<svg xmlns="http://www.w3.org/2000/svg" width="135" height="135" viewBox="0 0 135 135">
  <g id="_11" data-name="11" transform="translate(-733 -2278)">
    <circle id="Elipse_5172" data-name="Elipse 5172" cx="67.5" cy="67.5" r="67.5" transform="translate(733 2278)" fill="#084a93"/>
    <g id="Grupo_129057" data-name="Grupo 129057" transform="translate(930.65 2773.351)">
      <path id="Trazado_189988" data-name="Trazado 189988" d="M-27.964-335.511a3.852,3.852,0,0,1-.608,2.926,3.694,3.694,0,0,1-2.767.8c-7.327.015-14.78.015-21.985.011l-8.41,0h-.144c-.122,0-.247,0-.369,0-2.056-.122-2.877-1-2.827-3.044.148-6.419,2.9-11.382,8.4-15.171.391-.266.817-.521,1.266-.79.236-.14.475-.289.73-.445l.973-.6-.768-.848a12.26,12.26,0,0,1-3.473-9.341,11.409,11.409,0,0,1,3.618-7.525,11.529,11.529,0,0,1,15.638.031c4.146,3.815,5.529,10.816.144,16.813l-.741.828.935.6c.27.175.543.346.813.513.578.361,1.121.7,1.638,1.075A18.23,18.23,0,0,1-27.964-335.511Zm-5.932-1.931-.213-.946c-1.163-5.157-6.4-9.106-12.191-9.185h-.182a12.783,12.783,0,0,0-12.522,9.307l-.293,1.178H-52.1c5.5,0,10.937,0,16.368,0a2.809,2.809,0,0,0,.714-.114c.057-.015.114-.03.175-.042ZM-40.4-361.133a6.014,6.014,0,0,0-1.809-4.306,6.116,6.116,0,0,0-4.332-1.786h0a6.144,6.144,0,0,0-6.13,6.141,6.134,6.134,0,0,0,1.836,4.306,6.185,6.185,0,0,0,4.321,1.828h.023A6.241,6.241,0,0,0-40.4-361.133Z" transform="translate(-64.212 -58.132)" fill="#fff"/>
      <path id="Trazado_189989" data-name="Trazado 189989" d="M-14.1-447.694c.061,3.42.042,6.822.015,10.6-.015,1.832-.946,2.881-2.55,2.881h0c-2.067,0-2.523-1.573-2.542-2.892-.027-1.843-.023-3.721-.019-5.537,0-1.25.008-2.5,0-3.747-.019-3.918-1.722-5.594-5.685-5.609-.566,0-1.136,0-1.706,0h-2.105c-1.672,0-3.4.008-5.1-.007a3.655,3.655,0,0,1-2.6-.813,2.431,2.431,0,0,1-.589-1.8c.027-1.642,1.083-2.482,3.147-2.5,1.22-.011,2.44-.008,3.66-.008l2.539,0,.008-.1c.464.019.931.03,1.383.046a27.143,27.143,0,0,1,4.868.422A9.191,9.191,0,0,1-14.1-447.694Z" transform="translate(-81.63 -5.66)" fill="#fff"/>
      <path id="Trazado_189990" data-name="Trazado 189990" d="M-136.637-463.607c3.926,1.984,5.56,4.572,5.3,8.391-.144,2.174-.11,4.378-.072,6.506.015.954.03,1.912.03,2.865s-.011,1.9-.027,2.858c-.027,2.128-.057,4.329.061,6.5.194,3.5-1.3,5.986-4.7,7.836a27.586,27.586,0,0,1-16.2,2.934,43.482,43.482,0,0,1-10.405-2.409c-4.211-1.539-6.168-4.545-5.989-9.2.179-4.633.122-9.341.068-13.89-.019-1.589-.038-3.177-.046-4.766a7.562,7.562,0,0,1,3.869-6.742c3.717-2.394,8.091-3.508,14.187-3.622.3,0,.589-.008.878-.008A28.026,28.026,0,0,1-136.637-463.607Zm.019,7-.54-.642c-2.333-2.755-8.144-3.736-12.841-3.736h-.091c-4.61.012-10.337.984-12.587,3.675l-.464.559.41.593c1.988,2.869,7.9,3.569,10.356,3.736.768.053,1.558.08,2.364.08,5.028,0,10.459-1.068,12.826-3.648Zm-2.208,23.574a3.488,3.488,0,0,0,2.132-4.675l-.293-.931-.924.319a36.3,36.3,0,0,1-24.083.011l-.939-.319-.277.95a3.513,3.513,0,0,0,2.117,4.629,28.084,28.084,0,0,0,11.143,2.379A28.217,28.217,0,0,0-138.826-433.033Zm.175-10.8a3.33,3.33,0,0,0,1.908-4.572l-.319-.87-.878.3a36.218,36.218,0,0,1-24.045-.027l-.939-.316-.277.95a3.484,3.484,0,0,0,2.14,4.629,27.982,27.982,0,0,0,11.127,2.386A27.749,27.749,0,0,0-138.651-443.834Z" transform="translate(0 0)" fill="#fff"/>
      <path id="Trazado_189991" data-name="Trazado 189991" d="M-136.109-314.638c.011,1.7-1.076,2.569-3.234,2.58-1.174.011-2.352.008-3.531.008l-.635,0-.95-.019c-.555,0-1.113.008-1.672.011-1.186.008-2.413.019-3.607-.019a9.535,9.535,0,0,1-9.25-9.3c-.084-3.588-.049-7.247-.019-10.782.015-1.718.939-2.763,2.466-2.8a2.49,2.49,0,0,1,1.851.612,3.014,3.014,0,0,1,.771,2.181c.03,1.778.027,3.6.019,5.355,0,1.41-.008,2.873.008,4.31.034,3.553,1.8,5.294,5.385,5.324,1.589.015,3.2.011,4.766.008,1.444,0,2.892,0,4.34.008C-136.5-317.147-136.116-315.805-136.109-314.638Z" transform="translate(-5.959 -81.456)" fill="#fff"/>
    </g>
  </g>
</svg>
