<svg xmlns="http://www.w3.org/2000/svg" width="133.668" height="133.668" viewBox="0 0 133.668 133.668">
  <g id="_18" data-name="18" transform="translate(-320.506 -2845.961)">
    <g id="Grupo_129262" data-name="Grupo 129262" transform="translate(330.506 2855.961)">
      <g id="Trazado_187974" data-name="Trazado 187974" transform="translate(0 0)" fill="#f3f9ff">
        <path d="M 56.83386993408203 118.6677474975586 C 48.48854827880859 118.6677474975586 40.39020919799805 117.0321884155273 32.76380920410156 113.8064880371094 C 29.09881019592285 112.2563323974609 25.56431007385254 110.3379135131836 22.25848960876465 108.1045303344727 C 18.98534965515137 105.8932266235352 15.90758991241455 103.353889465332 13.11073017120361 100.5570297241211 C 10.31385040283203 97.76014709472656 7.774509906768799 94.68241119384766 5.563230037689209 91.40927124023438 C 3.3298499584198 88.10343170166016 1.411429882049561 84.56893157958984 -0.138730064034462 80.9039306640625 C -3.364429950714111 73.27752685546875 -4.999989986419678 65.17919158935547 -4.999989986419678 56.83386993408203 C -4.999989986419678 48.48854827880859 -3.364429950714111 40.39020919799805 -0.138730064034462 32.76380920410156 C 1.411429882049561 29.09882926940918 3.3298499584198 25.56431007385254 5.563230037689209 22.25848960876465 C 7.774509906768799 18.98534965515137 10.31385040283203 15.90758991241455 13.11073017120361 13.11073017120361 C 15.90758991241455 10.31385040283203 18.98534965515137 7.774509906768799 22.25848960876465 5.563230037689209 C 25.56431007385254 3.3298499584198 29.09882926940918 1.411429882049561 32.76380920410156 -0.138730064034462 C 40.39020919799805 -3.364429950714111 48.48854827880859 -4.999989986419678 56.83386993408203 -4.999989986419678 C 65.17919158935547 -4.999989986419678 73.27752685546875 -3.364429950714111 80.9039306640625 -0.138730064034462 C 84.56893157958984 1.411429882049561 88.10343170166016 3.3298499584198 91.40927124023438 5.563230037689209 C 94.68241119384766 7.774509906768799 97.76014709472656 10.31385040283203 100.5570297241211 13.11073017120361 C 103.353889465332 15.90758991241455 105.8932266235352 18.98534965515137 108.1045303344727 22.25848960876465 C 110.3379135131836 25.56431007385254 112.2563323974609 29.09881019592285 113.8064880371094 32.76380920410156 C 117.0321884155273 40.39020919799805 118.6677474975586 48.48854827880859 118.6677474975586 56.83386993408203 C 118.6677474975586 65.17919158935547 117.0321884155273 73.27752685546875 113.8064880371094 80.9039306640625 C 112.2563323974609 84.56893157958984 110.3379135131836 88.10343170166016 108.1045303344727 91.40927124023438 C 105.8932266235352 94.68241119384766 103.353889465332 97.76014709472656 100.5570297241211 100.5570297241211 C 97.76014709472656 103.353889465332 94.68241119384766 105.8932266235352 91.40927124023438 108.1045303344727 C 88.10343170166016 110.3379135131836 84.56893157958984 112.2563323974609 80.9039306640625 113.8064880371094 C 73.27752685546875 117.0321884155273 65.17919158935547 118.6677474975586 56.83386993408203 118.6677474975586 Z" stroke="none"/>
        <path d="M 56.83386993408203 -7.62939453125e-06 C 25.44539642333984 -7.62939453125e-06 -7.62939453125e-06 25.44539642333984 -7.62939453125e-06 56.83386993408203 C -7.62939453125e-06 88.22234344482422 25.44539642333984 113.667724609375 56.83386993408203 113.667724609375 C 88.22234344482422 113.667724609375 113.667724609375 88.22234344482422 113.667724609375 56.83386993408203 C 113.667724609375 25.44539642333984 88.22234344482422 -7.62939453125e-06 56.83386993408203 -7.62939453125e-06 M 56.83386993408203 -10.00000762939453 C 93.68618011474609 -10.00000762939453 123.667724609375 19.98153686523438 123.667724609375 56.83386993408203 C 123.667724609375 93.68618011474609 93.68618011474609 123.667724609375 56.83386993408203 123.667724609375 C 19.98153686523438 123.667724609375 -10.00000762939453 93.68618011474609 -10.00000762939453 56.83386993408203 C -10.00000762939453 19.98153686523438 19.98153686523438 -10.00000762939453 56.83386993408203 -10.00000762939453 Z" stroke="none" fill="#fdb32b"/>
      </g>
    </g>
    <g id="Grupo_129265" data-name="Grupo 129265" transform="translate(-3431.514 3645.87)">
      <path id="Trazado_190499" data-name="Trazado 190499" d="M3777.622-719.03c0-3.212.047-6.424-.02-9.635a3.581,3.581,0,0,1,1.9-3.357,10.9,10.9,0,0,1,3.05-1.274c.549-.139.671-.4.736-.92,1.53-12.21,7.61-21.406,18.313-27.508a1.019,1.019,0,0,0,.594-1.055c-.024-2.757.03-5.515-.028-8.27a3.441,3.441,0,0,1,1.75-3.182,15.41,15.41,0,0,1,5.749-1.987,48.688,48.688,0,0,1,19.7.42,11.51,11.51,0,0,1,3.913,1.614,3.472,3.472,0,0,1,1.671,3.143c-.056,2.784-.007,5.57-.026,8.356a.881.881,0,0,0,.533.91,35.3,35.3,0,0,1,18.023,24.951,22.184,22.184,0,0,1,.36,2.7.756.756,0,0,0,.649.816,11.618,11.618,0,0,1,3.134,1.294,3.628,3.628,0,0,1,1.894,3.361q-.074,9.634,0,19.27a3.642,3.642,0,0,1-1.947,3.417,17.282,17.282,0,0,1-6.03,1.961,47.477,47.477,0,0,1-9.5.67,2.085,2.085,0,0,0-1.464.5,35.3,35.3,0,0,1-44.042-.012,2.123,2.123,0,0,0-1.468-.489,43.4,43.4,0,0,1-12.4-1.336,11.7,11.7,0,0,1-3.278-1.389,3.532,3.532,0,0,1-1.786-3.25C3777.663-712.549,3777.622-715.79,3777.622-719.03Zm22.462,15.387c11.573,8.062,26.825,7.281,36.9-.008-.777-.121-1.5-.219-2.213-.347a17.506,17.506,0,0,1-6.113-1.982,3.591,3.591,0,0,1-1.925-3.343c.05-6.311.088-12.624-.017-18.934a4.135,4.135,0,0,1,2.678-4.192,24.616,24.616,0,0,1,7.729-1.906,50.337,50.337,0,0,1,13.26.18c.632.094.741-.01.651-.664a32.574,32.574,0,0,0-10.158-19.731,30.606,30.606,0,0,0-5.933-4.384c0,2.53-.047,4.94.018,7.348a3.5,3.5,0,0,1-1.794,3.247,13.569,13.569,0,0,1-4.511,1.712,48.609,48.609,0,0,1-15,.8,26.51,26.51,0,0,1-8.677-1.96c-1.869-.849-2.975-2.1-2.818-4.355.155-2.219.034-4.457.034-6.712a1.193,1.193,0,0,0-.242.06,32.389,32.389,0,0,0-15.8,23.678c-.163,1.047-.122,1.064.907.919a50.048,50.048,0,0,1,15.365.208,16.3,16.3,0,0,1,6.176,2.053,3.362,3.362,0,0,1,1.788,2.987q-.03,9.979,0,19.958a3.06,3.06,0,0,1-1.075,2.4,9.313,9.313,0,0,1-3.371,1.755A34.959,34.959,0,0,1,3800.084-703.643Zm-6.009-28.34a43.223,43.223,0,0,0-8.3.7,14.969,14.969,0,0,0-4.765,1.5c-.844.48-.833.7.035,1.164a11.579,11.579,0,0,0,3.041,1.07,46.389,46.389,0,0,0,19.264.115,11.448,11.448,0,0,0,3.824-1.379c.468-.29.532-.524.02-.848a8.884,8.884,0,0,0-2.26-.97A39.143,39.143,0,0,0,3794.075-731.983Zm25.132-42.307a42.272,42.272,0,0,0-11.05,1.2,9.731,9.731,0,0,0-2.827,1.155c-.5.32-.445.588.023.866a8.215,8.215,0,0,0,2.116.883,44.728,44.728,0,0,0,20.59.4,11.681,11.681,0,0,0,3.6-1.278c.542-.316.632-.6.028-.955a8.449,8.449,0,0,0-1.626-.737A36.651,36.651,0,0,0,3819.207-774.29Zm23.078,42.305a41.036,41.036,0,0,0-7.358.7,15.329,15.329,0,0,0-4.768,1.489c-.861.48-.857.7-.012,1.165a11.663,11.663,0,0,0,3.119,1.1,46.528,46.528,0,0,0,18.259.291,13.791,13.791,0,0,0,4.591-1.48c.717-.415.711-.607,0-1.032a9.819,9.819,0,0,0-2.6-1.031A43.506,43.506,0,0,0,3842.285-731.985Zm-23.05-16.366a35.975,35.975,0,0,0,5.565-.4,21.4,21.4,0,0,0,6.4-1.629,1.455,1.455,0,0,0,1-1.636,13.361,13.361,0,0,1-.01-1.958c.018-.519-.2-.57-.621-.4a31.6,31.6,0,0,1-10.838,1.9c-5.177.174-10.329-.1-15.265-1.934-.42-.156-.562-.056-.553.389.019.852.024,1.7-.005,2.555a.851.851,0,0,0,.48.82,9.853,9.853,0,0,0,2.84,1.112A44.837,44.837,0,0,0,3819.235-748.351Zm37.515,36.075c-.63.23-1.15.445-1.686.612a37.057,37.057,0,0,1-8.87,1.444,45.972,45.972,0,0,1-14.755-1.366c-.645-.173-1.431-.849-1.841-.5-.344.288-.11,1.278-.112,1.958-.006,1.713.07,1.8,1.733,2.4a29.259,29.259,0,0,0,6.814,1.389,47.276,47.276,0,0,0,12.215-.241,22.3,22.3,0,0,0,4.938-1.231c.617-.244,1.438-.425,1.531-1.179A27.222,27.222,0,0,0,3856.75-712.276Zm-24.556-49.111c-.825.278-1.564.556-2.32.776a37.626,37.626,0,0,1-8.484,1.255,44.944,44.944,0,0,1-14.429-1.336,9.281,9.281,0,0,0-1.994-.616c-.017.708-.046,1.415-.048,2.123-.006,1.615.092,1.723,1.635,2.308a25.8,25.8,0,0,0,6.049,1.356,46.929,46.929,0,0,0,13.994-.342,15.426,15.426,0,0,0,5.009-1.567c.29-.164.6-.318.594-.751C3832.183-759.227,3832.194-760.273,3832.194-761.387Zm-51.839,42.4c0,.924.031,1.886-.013,2.845a.975.975,0,0,0,.573,1.013,14.52,14.52,0,0,0,4.75,1.554,47.705,47.705,0,0,0,16.426.01,16.434,16.434,0,0,0,4.555-1.336c.392-.194.934-.366.963-.871.062-1.084.019-2.173.019-3.189A46.478,46.478,0,0,1,3780.355-718.984Zm27.27,6.693a32.851,32.851,0,0,1-10.437,2.065,57.559,57.559,0,0,1-7.318-.057,29.937,29.937,0,0,1-7.838-1.46c-1.678-.566-1.676-.575-1.676,1.234v.767c0,1.191.186,1.414,1.3,1.85a27.967,27.967,0,0,0,7.188,1.548,47.16,47.16,0,0,0,12.226-.235,19.259,19.259,0,0,0,5.638-1.54c.413-.2.918-.385.919-.994C3807.626-710.133,3807.625-711.154,3807.625-712.291Zm21.927-13.64c-.056,4.158-.92,3.886,3.307,5.053a41.628,41.628,0,0,0,14.713,1,28.451,28.451,0,0,0,7-1.347c2.193-.764,2.189-.774,2.188-3.053v-.171c0-1.45,0-1.45-1.393-.975-.107.037-.214.076-.323.107a46.588,46.588,0,0,1-18.576,1.1A26.343,26.343,0,0,1,3829.552-725.93Zm2.652-42.406a10.271,10.271,0,0,1-3.083,1.16,44.728,44.728,0,0,1-8.417,1.043c-5.214.116-10.4-.083-15.352-1.99-.356-.137-.448-.037-.442.314.013.852.035,1.706-.006,2.557a1.05,1.05,0,0,0,.632,1.084,10.825,10.825,0,0,0,2.623.985,45.464,45.464,0,0,0,17.841.618,15.859,15.859,0,0,0,5.594-1.681c.322-.183.632-.349.619-.821C3832.185-766.088,3832.2-767.109,3832.2-768.336Zm-38.032,48.668a37.2,37.2,0,0,0,11.357-1.588c2.119-.716,2.11-.748,2.106-2.928,0-.538.188-1.3-.087-1.56-.371-.355-.925.29-1.437.383a2.083,2.083,0,0,0-.25.054,36.948,36.948,0,0,1-10.413,1.487c-4.984.1-9.94-.172-14.673-1.994-.266-.1-.38-.1-.434.245-.469,3.006.011,3.764,2.974,4.6A41.85,41.85,0,0,0,3794.172-719.668Zm62.591.62a2.888,2.888,0,0,0-.477.1,30.827,30.827,0,0,1-10.9,1.942c-5.213.166-10.4-.073-15.364-1.927-.43-.161-.557-.029-.546.4a20.594,20.594,0,0,1-.009,2.3,1.135,1.135,0,0,0,.7,1.218,13.745,13.745,0,0,0,3.95,1.294,46.889,46.889,0,0,0,17.439.1,16.006,16.006,0,0,0,4.068-1.211c.482-.227,1.126-.386,1.136-1.111C3856.773-716.961,3856.762-717.981,3856.762-719.047Z" fill="#12263f"/>
    </g>
  </g>
</svg>
