<svg xmlns="http://www.w3.org/2000/svg" width="764.826" height="354" viewBox="0 0 764.826 354">
  <g id="_22" data-name="22" transform="translate(-654.174 -4096)">
    <rect id="BG" width="764.826" height="354" transform="translate(654.174 4096)" fill="#fee3a8" opacity="0.949"/>
    <g id="Grupo_130095" data-name="Grupo 130095" transform="translate(-1590.426 3891.323)">
      <path id="Rectángulo_294227" data-name="Rectángulo 294227" d="M1.335,0H112.284a1.334,1.334,0,0,1,1.334,1.334V112.283a1.335,1.335,0,0,1-1.335,1.335H1.335A1.335,1.335,0,0,1,0,112.283V1.335A1.335,1.335,0,0,1,1.335,0Z" transform="translate(2581.735 335.009)" fill="#fff"/>
      <path id="Rectángulo_294228" data-name="Rectángulo 294228" d="M1.334,0h110.95a1.334,1.334,0,0,1,1.334,1.334V112.283a1.335,1.335,0,0,1-1.335,1.335H1.335A1.335,1.335,0,0,1,0,112.283V1.334A1.334,1.334,0,0,1,1.334,0Z" transform="translate(2717.933 335.009)" fill="#fff"/>
      <path id="Rectángulo_294229" data-name="Rectángulo 294229" d="M1.334,0h110.95a1.334,1.334,0,0,1,1.334,1.334V112.283a1.335,1.335,0,0,1-1.335,1.335H1.335A1.335,1.335,0,0,1,0,112.283V1.334A1.334,1.334,0,0,1,1.334,0Z" transform="translate(2854.132 335.009)" fill="#fff"/>
      <g id="Grupo_130060" data-name="Grupo 130060" transform="translate(2553.331 388.412)">
        <path id="Trazado_191943" data-name="Trazado 191943" d="M2570.181,449.4h-18.359V375.052h3.543V445.7h14.815Z" transform="translate(-2551.822 -375.052)" fill="#1d1d1b"/>
      </g>
      <g id="Grupo_130061" data-name="Grupo 130061" transform="translate(2553.331 301.309)">
        <path id="Trazado_191944" data-name="Trazado 191944" d="M2555.366,375.66h-3.543V301.309h18.359v3.7h-14.815Z" transform="translate(-2551.822 -301.309)" fill="#1d1d1b"/>
      </g>
      <path id="Trazado_191945" data-name="Trazado 191945" d="M2555.1,374.759l-11.611-4.792,11.611-4.792Z" transform="translate(0 11.57)" fill="#1d1d1b"/>
      <g id="Grupo_130072" data-name="Grupo 130072" transform="translate(2578.191 302.161)">
        <g id="Grupo_130071" data-name="Grupo 130071" transform="translate(0 29.304)">
          <g id="Grupo_130062" data-name="Grupo 130062">
            <path id="Trazado_191946" data-name="Trazado 191946" d="M2688.455,447.546H2577.99a5.126,5.126,0,0,1-5.121-5.12V331.96a5.126,5.126,0,0,1,5.121-5.12h110.465a5.127,5.127,0,0,1,5.12,5.12V442.425A5.127,5.127,0,0,1,2688.455,447.546ZM2577.99,330.383a1.579,1.579,0,0,0-1.577,1.577V442.425A1.579,1.579,0,0,0,2577.99,444h110.465a1.579,1.579,0,0,0,1.577-1.577V331.96a1.579,1.579,0,0,0-1.577-1.577Z" transform="translate(-2572.869 -326.84)" fill="#1d1d1b"/>
          </g>
          <g id="Grupo_130063" data-name="Grupo 130063" transform="translate(7.857 12.975)">
            <path id="Trazado_191947" data-name="Trazado 191947" d="M2682.747,341.354h-101.46a1.765,1.765,0,1,1,0-3.529h101.46a1.765,1.765,0,0,1,0,3.529Z" transform="translate(-2579.521 -337.825)" fill="#1d1d1b"/>
          </g>
          <g id="Grupo_130064" data-name="Grupo 130064" transform="translate(7.857 25.529)">
            <path id="Trazado_191948" data-name="Trazado 191948" d="M2682.747,351.982h-101.46a1.765,1.765,0,1,1,0-3.529h101.46a1.765,1.765,0,0,1,0,3.529Z" transform="translate(-2579.521 -348.453)" fill="#1d1d1b"/>
          </g>
          <g id="Grupo_130065" data-name="Grupo 130065" transform="translate(7.857 38.082)">
            <path id="Trazado_191949" data-name="Trazado 191949" d="M2682.747,362.61h-101.46a1.765,1.765,0,1,1,0-3.529h101.46a1.765,1.765,0,0,1,0,3.529Z" transform="translate(-2579.521 -359.081)" fill="#1d1d1b"/>
          </g>
          <g id="Grupo_130066" data-name="Grupo 130066" transform="translate(7.857 50.634)">
            <path id="Trazado_191950" data-name="Trazado 191950" d="M2682.747,373.237h-101.46a1.765,1.765,0,1,1,0-3.529h101.46a1.765,1.765,0,0,1,0,3.529Z" transform="translate(-2579.521 -369.708)" fill="#1d1d1b"/>
          </g>
          <g id="Grupo_130067" data-name="Grupo 130067" transform="translate(7.857 63.186)">
            <path id="Trazado_191951" data-name="Trazado 191951" d="M2682.747,383.866h-101.46a1.765,1.765,0,1,1,0-3.531h101.46a1.765,1.765,0,0,1,0,3.531Z" transform="translate(-2579.521 -380.335)" fill="#1d1d1b"/>
          </g>
          <g id="Grupo_130068" data-name="Grupo 130068" transform="translate(60.298 83.725)">
            <circle id="Elipse_5179" data-name="Elipse 5179" cx="2.262" cy="2.262" r="2.262" fill="#1d1d1b"/>
          </g>
          <g id="Grupo_130069" data-name="Grupo 130069" transform="translate(60.298 89.681)">
            <circle id="Elipse_5180" data-name="Elipse 5180" cx="2.262" cy="2.262" r="2.262" fill="#1d1d1b"/>
          </g>
          <g id="Grupo_130070" data-name="Grupo 130070" transform="translate(60.298 95.637)">
            <circle id="Elipse_5181" data-name="Elipse 5181" cx="2.262" cy="2.262" r="2.262" fill="#1d1d1b"/>
          </g>
        </g>
        <text id="Tabla_A" data-name="Tabla A" transform="translate(27.301 17)" fill="#1d1d1b" font-size="16" font-family="Roboto-Black, Roboto" font-weight="800"><tspan x="0" y="0">Tabla A</tspan></text>
      </g>
      <g id="Grupo_130083" data-name="Grupo 130083" transform="translate(2714.39 302.161)">
        <g id="Grupo_130082" data-name="Grupo 130082" transform="translate(0 29.304)">
          <g id="Grupo_130073" data-name="Grupo 130073">
            <path id="Trazado_191952" data-name="Trazado 191952" d="M2803.762,447.546H2693.3a5.126,5.126,0,0,1-5.119-5.12V331.96a5.126,5.126,0,0,1,5.119-5.12h110.465a5.126,5.126,0,0,1,5.12,5.12V442.425A5.126,5.126,0,0,1,2803.762,447.546ZM2693.3,330.383a1.578,1.578,0,0,0-1.576,1.577V442.425A1.578,1.578,0,0,0,2693.3,444h110.465a1.578,1.578,0,0,0,1.577-1.577V331.96a1.578,1.578,0,0,0-1.577-1.577Z" transform="translate(-2688.178 -326.84)" fill="#1d1d1b"/>
          </g>
          <g id="Grupo_130074" data-name="Grupo 130074" transform="translate(7.857 12.975)">
            <path id="Trazado_191953" data-name="Trazado 191953" d="M2798.055,341.354H2696.594a1.765,1.765,0,0,1,0-3.529h101.461a1.765,1.765,0,1,1,0,3.529Z" transform="translate(-2694.83 -337.825)" fill="#1d1d1b"/>
          </g>
          <g id="Grupo_130075" data-name="Grupo 130075" transform="translate(7.857 25.529)">
            <path id="Trazado_191954" data-name="Trazado 191954" d="M2798.055,351.982H2696.594a1.765,1.765,0,1,1,0-3.529h101.461a1.765,1.765,0,1,1,0,3.529Z" transform="translate(-2694.83 -348.453)" fill="#1d1d1b"/>
          </g>
          <g id="Grupo_130076" data-name="Grupo 130076" transform="translate(7.857 38.082)">
            <path id="Trazado_191955" data-name="Trazado 191955" d="M2798.055,362.61H2696.594a1.765,1.765,0,0,1,0-3.529h101.461a1.765,1.765,0,1,1,0,3.529Z" transform="translate(-2694.83 -359.081)" fill="#1d1d1b"/>
          </g>
          <g id="Grupo_130077" data-name="Grupo 130077" transform="translate(7.857 50.634)">
            <path id="Trazado_191956" data-name="Trazado 191956" d="M2798.055,373.237H2696.594a1.765,1.765,0,0,1,0-3.529h101.461a1.765,1.765,0,1,1,0,3.529Z" transform="translate(-2694.83 -369.708)" fill="#1d1d1b"/>
          </g>
          <g id="Grupo_130078" data-name="Grupo 130078" transform="translate(7.857 63.186)">
            <path id="Trazado_191957" data-name="Trazado 191957" d="M2798.055,383.866H2696.594a1.765,1.765,0,0,1,0-3.531h101.461a1.765,1.765,0,0,1,0,3.531Z" transform="translate(-2694.83 -380.335)" fill="#1d1d1b"/>
          </g>
          <g id="Grupo_130079" data-name="Grupo 130079" transform="translate(60.297 83.725)">
            <circle id="Elipse_5182" data-name="Elipse 5182" cx="2.262" cy="2.262" r="2.262" fill="#1d1d1b"/>
          </g>
          <g id="Grupo_130080" data-name="Grupo 130080" transform="translate(60.297 89.681)">
            <circle id="Elipse_5183" data-name="Elipse 5183" cx="2.262" cy="2.262" r="2.262" fill="#1d1d1b"/>
          </g>
          <g id="Grupo_130081" data-name="Grupo 130081" transform="translate(60.297 95.637)">
            <circle id="Elipse_5184" data-name="Elipse 5184" cx="2.262" cy="2.262" r="2.262" fill="#1d1d1b"/>
          </g>
        </g>
        <text id="Tabla_B" data-name="Tabla B" transform="translate(27.686 17)" fill="#1d1d1b" font-size="16" font-family="Roboto-Black, Roboto" font-weight="800"><tspan x="0" y="0">Tabla B</tspan></text>
      </g>
      <g id="Grupo_130094" data-name="Grupo 130094" transform="translate(2850.588 302.161)">
        <g id="Grupo_130093" data-name="Grupo 130093" transform="translate(0 29.304)">
          <g id="Grupo_130084" data-name="Grupo 130084">
            <path id="Trazado_191958" data-name="Trazado 191958" d="M2919.071,447.546H2808.6a5.126,5.126,0,0,1-5.119-5.12V331.96a5.126,5.126,0,0,1,5.119-5.12h110.467a5.126,5.126,0,0,1,5.12,5.12V442.425A5.127,5.127,0,0,1,2919.071,447.546ZM2808.6,330.383a1.578,1.578,0,0,0-1.575,1.577V442.425A1.578,1.578,0,0,0,2808.6,444h110.467a1.579,1.579,0,0,0,1.577-1.577V331.96a1.579,1.579,0,0,0-1.577-1.577Z" transform="translate(-2803.486 -326.84)" fill="#1d1d1b"/>
          </g>
          <g id="Grupo_130085" data-name="Grupo 130085" transform="translate(7.857 12.975)">
            <path id="Trazado_191959" data-name="Trazado 191959" d="M2913.364,341.354H2811.9a1.765,1.765,0,0,1,0-3.529h101.461a1.765,1.765,0,0,1,0,3.529Z" transform="translate(-2810.138 -337.825)" fill="#1d1d1b"/>
          </g>
          <g id="Grupo_130086" data-name="Grupo 130086" transform="translate(7.857 25.529)">
            <path id="Trazado_191960" data-name="Trazado 191960" d="M2913.364,351.982H2811.9a1.765,1.765,0,1,1,0-3.529h101.461a1.765,1.765,0,1,1,0,3.529Z" transform="translate(-2810.138 -348.453)" fill="#1d1d1b"/>
          </g>
          <g id="Grupo_130087" data-name="Grupo 130087" transform="translate(7.857 38.082)">
            <path id="Trazado_191961" data-name="Trazado 191961" d="M2913.364,362.61H2811.9a1.765,1.765,0,0,1,0-3.529h101.461a1.765,1.765,0,0,1,0,3.529Z" transform="translate(-2810.138 -359.081)" fill="#1d1d1b"/>
          </g>
          <g id="Grupo_130088" data-name="Grupo 130088" transform="translate(7.857 50.634)">
            <path id="Trazado_191962" data-name="Trazado 191962" d="M2913.364,373.237H2811.9a1.765,1.765,0,0,1,0-3.529h101.461a1.765,1.765,0,0,1,0,3.529Z" transform="translate(-2810.138 -369.708)" fill="#1d1d1b"/>
          </g>
          <g id="Grupo_130089" data-name="Grupo 130089" transform="translate(7.857 63.186)">
            <path id="Trazado_191963" data-name="Trazado 191963" d="M2913.364,383.866H2811.9a1.765,1.765,0,0,1,0-3.531h101.461a1.765,1.765,0,0,1,0,3.531Z" transform="translate(-2810.138 -380.335)" fill="#1d1d1b"/>
          </g>
          <g id="Grupo_130090" data-name="Grupo 130090" transform="translate(60.297 83.725)">
            <circle id="Elipse_5185" data-name="Elipse 5185" cx="2.262" cy="2.262" r="2.262" fill="#1d1d1b"/>
          </g>
          <g id="Grupo_130091" data-name="Grupo 130091" transform="translate(60.297 89.681)">
            <circle id="Elipse_5186" data-name="Elipse 5186" cx="2.262" cy="2.262" r="2.262" fill="#1d1d1b"/>
          </g>
          <g id="Grupo_130092" data-name="Grupo 130092" transform="translate(60.297 95.637)">
            <circle id="Elipse_5187" data-name="Elipse 5187" cx="2.262" cy="2.262" r="2.262" fill="#1d1d1b"/>
          </g>
        </g>
        <text id="Tabla_C" data-name="Tabla C" transform="translate(27.665 17)" fill="#1d1d1b" font-size="16" font-family="Roboto-Black, Roboto" font-weight="800"><tspan x="0" y="0">Tabla C</tspan></text>
      </g>
    </g>
  </g>
</svg>
