<svg xmlns="http://www.w3.org/2000/svg" xmlns:xlink="http://www.w3.org/1999/xlink" width="1041.397" height="341.859" viewBox="0 0 1041.397 341.859">
  <defs>
    <filter id="Rectángulo_294748" x="0" y="112.917" width="318.397" height="148.254" filterUnits="userSpaceOnUse">
      <feOffset dy="3" input="SourceAlpha"/>
      <feGaussianBlur stdDeviation="3" result="blur"/>
      <feFlood flood-opacity="0.161"/>
      <feComposite operator="in" in2="blur"/>
      <feComposite in="SourceGraphic"/>
    </filter>
    <filter id="Trazado_194490" x="723" y="112.917" width="318.397" height="148.254" filterUnits="userSpaceOnUse">
      <feOffset dy="3" input="SourceAlpha"/>
      <feGaussianBlur stdDeviation="3" result="blur-2"/>
      <feFlood flood-opacity="0.161"/>
      <feComposite operator="in" in2="blur-2"/>
      <feComposite in="SourceGraphic"/>
    </filter>
    <filter id="Rectángulo_294756" x="739.001" y="180" width="286.734" height="46.688" filterUnits="userSpaceOnUse">
      <feOffset dy="3" input="SourceAlpha"/>
      <feGaussianBlur stdDeviation="3" result="blur-3"/>
      <feFlood flood-opacity="0.161"/>
      <feComposite operator="in" in2="blur-3"/>
      <feComposite in="SourceGraphic"/>
    </filter>
    <filter id="Rectángulo_294750" x="16.001" y="183" width="286.734" height="46.688" filterUnits="userSpaceOnUse">
      <feOffset dy="3" input="SourceAlpha"/>
      <feGaussianBlur stdDeviation="3" result="blur-4"/>
      <feFlood flood-opacity="0.161"/>
      <feComposite operator="in" in2="blur-4"/>
      <feComposite in="SourceGraphic"/>
    </filter>
    <filter id="Elipse_157" x="813" y="53.388" width="138" height="137" filterUnits="userSpaceOnUse">
      <feOffset dy="4" input="SourceAlpha"/>
      <feGaussianBlur stdDeviation="5" result="blur-5"/>
      <feFlood flood-opacity="0.161"/>
      <feComposite operator="in" in2="blur-5"/>
      <feComposite in="SourceGraphic"/>
    </filter>
  </defs>
  <g id="_26" data-name="26" transform="translate(-283 -7949)">
    <ellipse id="Elipse_5239" data-name="Elipse 5239" cx="140.487" cy="140.487" rx="140.487" ry="140.487" transform="translate(634.026 7976.839)" fill="#fff"/>
    <g id="Grupo_131842" data-name="Grupo 131842" transform="translate(592.893 7949)">
      <path id="Trazado_192366" data-name="Trazado 192366" d="M-2145.757,909.154h-45.781v-5.208h40.592a169.718,169.718,0,0,1,13.415-63.931,170.353,170.353,0,0,1,36.631-54.331,170.356,170.356,0,0,1,54.331-36.631,169.863,169.863,0,0,1,66.535-13.433v5.208c-91.38,0-165.722,74.343-165.722,165.722Z" transform="translate(2191.538 -735.62)" fill="#ffb30b"/>
    </g>
    <g id="Grupo_131843" data-name="Grupo 131843" transform="translate(804.396 8117.326)">
      <path id="Trazado_192367" data-name="Trazado 192367" d="M-1622.957,1361.661v-5.208c91.38,0,165.722-74.342,165.722-165.722v-2.6h45.782v5.208h-40.593a169.72,169.72,0,0,1-13.414,63.93,170.355,170.355,0,0,1-36.631,54.332,170.357,170.357,0,0,1-54.331,36.63A169.862,169.862,0,0,1-1622.957,1361.661Z" transform="translate(1622.957 -1188.128)" fill="#084a93"/>
    </g>
    <g id="Grupo_131844" data-name="Grupo 131844" transform="translate(633.644 8125.165)">
      <path id="Trazado_192368" data-name="Trazado 192368" d="M-1922.552,1374.527a2.61,2.61,0,0,1-2.436-2.6h0c0-.055,0-.108.007-.167h0a2.6,2.6,0,0,1,2.768-2.425h0a2.6,2.6,0,0,1,2.433,2.6h0c0,.056,0,.112,0,.168h0a2.6,2.6,0,0,1-2.6,2.433h0C-1922.436,1374.532-1922.5,1374.532-1922.552,1374.527Zm-11.271-1.112h0a2.6,2.6,0,0,1-2.261-2.589h0a2.519,2.519,0,0,1,.022-.334h0a2.6,2.6,0,0,1,2.924-2.24h0a2.607,2.607,0,0,1,2.262,2.593h0a2.5,2.5,0,0,1-.022.331h0a2.6,2.6,0,0,1-2.577,2.262h0A2.769,2.769,0,0,1-1933.823,1373.416Zm-11.17-1.856a2.6,2.6,0,0,1-2.095-2.537h0a2.512,2.512,0,0,1,.052-.525h0a2.6,2.6,0,0,1,3.062-2.042h0a2.6,2.6,0,0,1,2.09,2.541h0a2.587,2.587,0,0,1-.052.524h0a2.6,2.6,0,0,1-2.549,2.091h0A2.422,2.422,0,0,1-1944.993,1371.559Zm-11.03-2.593a2.6,2.6,0,0,1-1.923-2.511h0a2.728,2.728,0,0,1,.089-.684h0a2.607,2.607,0,0,1,3.2-1.83h0a2.6,2.6,0,0,1,1.923,2.511h0a2.666,2.666,0,0,1-.089.681h0a2.609,2.609,0,0,1-2.511,1.927h0A2.534,2.534,0,0,1-1956.023,1368.966Zm-10.828-3.322v0h0a2.609,2.609,0,0,1-1.76-2.474h0a2.634,2.634,0,0,1,.145-.833h0a2.6,2.6,0,0,1,3.307-1.615h0a2.6,2.6,0,0,1,1.759,2.474h0a2.736,2.736,0,0,1-.142.833h0a2.611,2.611,0,0,1-2.462,1.759h0A2.6,2.6,0,0,1-1966.851,1365.645Zm-10.6-4.047h0a2.612,2.612,0,0,1-1.6-2.4h0a2.646,2.646,0,0,1,.2-1.015h0a2.606,2.606,0,0,1,3.411-1.392h0a2.606,2.606,0,0,1,1.592,2.4h0a2.57,2.57,0,0,1-.2,1.012h0a2.608,2.608,0,0,1-2.4,1.6h0A2.613,2.613,0,0,1-1977.449,1361.6Zm-10.3-4.743a2.6,2.6,0,0,1-1.44-2.34h0a2.634,2.634,0,0,1,.279-1.157h0a2.6,2.6,0,0,1,3.493-1.16h0a2.611,2.611,0,0,1,1.44,2.34h0a2.634,2.634,0,0,1-.279,1.156h0a2.6,2.6,0,0,1-2.329,1.436h0A2.6,2.6,0,0,1-1987.749,1356.855Zm-9.962-5.416a2.6,2.6,0,0,1-1.283-2.24h0a2.547,2.547,0,0,1,.358-1.324h0a2.6,2.6,0,0,1,3.563-.926h0a2.6,2.6,0,0,1,1.287,2.239h0a2.6,2.6,0,0,1-.361,1.325h0a2.6,2.6,0,0,1-2.247,1.283h0A2.6,2.6,0,0,1-1997.711,1351.439Zm-9.574-6.064a2.609,2.609,0,0,1-1.142-2.164h0a2.6,2.6,0,0,1,.454-1.454h0a2.6,2.6,0,0,1,3.616-.689h0a2.6,2.6,0,0,1,1.138,2.165h0a2.566,2.566,0,0,1-.45,1.455h0a2.594,2.594,0,0,1-2.154,1.138h0A2.579,2.579,0,0,1-2007.286,1345.375Zm-9.155-6.681a2.613,2.613,0,0,1-1-2.05h0a2.584,2.584,0,0,1,.555-1.607h0a2.6,2.6,0,0,1,3.653-.446h0a2.586,2.586,0,0,1,1,2.046h0a2.578,2.578,0,0,1-.551,1.607h0a2.594,2.594,0,0,1-2.053,1h0A2.6,2.6,0,0,1-2016.441,1338.694Zm-8.689-7.272a2.6,2.6,0,0,1-.87-1.949h0a2.6,2.6,0,0,1,.666-1.726h0a2.6,2.6,0,0,1,3.675-.2h0a2.6,2.6,0,0,1,.87,1.953h0a2.6,2.6,0,0,1-.666,1.722h0a2.59,2.59,0,0,1-1.942.87h0A2.579,2.579,0,0,1-2025.13,1331.422Zm-8.191-7.823a2.6,2.6,0,0,1-.744-1.819h0a2.6,2.6,0,0,1,.781-1.863h0a2.6,2.6,0,0,1,3.683.037h0a2.6,2.6,0,0,1,.744,1.819h0a2.606,2.606,0,0,1-.781,1.864h0a2.6,2.6,0,0,1-1.823.744h0A2.592,2.592,0,0,1-2033.321,1323.6Zm-7.656-8.347a2.589,2.589,0,0,1-.629-1.7h0a2.612,2.612,0,0,1,.908-1.968h0a2.6,2.6,0,0,1,3.671.279h0a2.592,2.592,0,0,1,.629,1.707h0a2.611,2.611,0,0,1-.908,1.968h0a2.6,2.6,0,0,1-1.7.625h0A2.583,2.583,0,0,1-2040.977,1315.252Zm-7.09-8.828a2.6,2.6,0,0,1-.521-1.558h0a2.593,2.593,0,0,1,1.042-2.087h0a2.6,2.6,0,0,1,3.645.521h0a2.579,2.579,0,0,1,.521,1.554h0a2.606,2.606,0,0,1-1.041,2.091h0a2.6,2.6,0,0,1-1.559.521h0A2.61,2.61,0,0,1-2048.067,1306.425Zm-6.491-9.277a2.594,2.594,0,0,1-.421-1.432h0a2.608,2.608,0,0,1,1.183-2.172h0a2.6,2.6,0,0,1,3.6.763h0a2.562,2.562,0,0,1,.424,1.429h0a2.6,2.6,0,0,1-1.183,2.172h0a2.589,2.589,0,0,1-1.421.424h0A2.6,2.6,0,0,1-2054.557,1297.148Zm-5.859-9.683h0a2.562,2.562,0,0,1-.335-1.268h0a2.6,2.6,0,0,1,1.332-2.277h0a2.6,2.6,0,0,1,3.545,1h0a2.6,2.6,0,0,1,.332,1.268h0a2.6,2.6,0,0,1-1.329,2.276h0a2.589,2.589,0,0,1-1.272.335h0A2.6,2.6,0,0,1-2060.416,1287.464Zm-5.208-10.047a2.663,2.663,0,0,1-.253-1.131h0a2.6,2.6,0,0,1,1.485-2.34h0a2.6,2.6,0,0,1,3.47,1.227h0a2.623,2.623,0,0,1,.257,1.131h0a2.621,2.621,0,0,1-1.488,2.344h0a2.6,2.6,0,0,1-1.116.253h0A2.61,2.61,0,0,1-2065.624,1277.418Zm-4.524-10.371a2.632,2.632,0,0,1-.186-.953h0a2.615,2.615,0,0,1,1.644-2.429h0a2.6,2.6,0,0,1,3.382,1.458h0a2.644,2.644,0,0,1,.186.956h0a2.607,2.607,0,0,1-1.645,2.426h0a2.57,2.57,0,0,1-.959.186h0A2.6,2.6,0,0,1-2070.148,1267.047Zm-3.828-10.661a2.64,2.64,0,0,1-.127-.8h0a2.609,2.609,0,0,1,1.808-2.474h0a2.6,2.6,0,0,1,3.274,1.682h0a2.533,2.533,0,0,1,.126.807h0a2.6,2.6,0,0,1-1.808,2.47h0a2.571,2.571,0,0,1-.8.127h0A2.6,2.6,0,0,1-2073.975,1256.386Zm-3.11-10.892h0a2.555,2.555,0,0,1-.078-.617h0a2.6,2.6,0,0,1,1.976-2.541h0a2.6,2.6,0,0,1,3.155,1.9h0a2.542,2.542,0,0,1,.078.617h0a2.608,2.608,0,0,1-1.971,2.541h0a2.649,2.649,0,0,1-.633.078h0A2.607,2.607,0,0,1-2077.085,1245.494Zm-2.373-11.074h0a2.787,2.787,0,0,1-.041-.461h0a2.607,2.607,0,0,1,2.146-2.563h0a2.6,2.6,0,0,1,3.021,2.1h0a2.5,2.5,0,0,1,.04.462h0a2.6,2.6,0,0,1-2.143,2.563h0a2.758,2.758,0,0,1-.461.041h0A2.6,2.6,0,0,1-2079.458,1234.42Zm-1.637-11.208h0a2.693,2.693,0,0,1-.015-.3h0a2.607,2.607,0,0,1,2.314-2.581h0a2.607,2.607,0,0,1,2.88,2.3h0a2.745,2.745,0,0,1,.014.3h0a2.608,2.608,0,0,1-2.313,2.582h0a2.622,2.622,0,0,1-.294.015h0A2.6,2.6,0,0,1-2081.095,1223.212Zm-.889-11.29c0-.044,0-.089,0-.134h0a2.6,2.6,0,0,1,2.485-2.585h0a2.6,2.6,0,0,1,2.723,2.481h0c0,.045,0,.089,0,.134h0a2.6,2.6,0,0,1-2.484,2.589h-.12A2.6,2.6,0,0,1-2081.984,1211.922Z" transform="translate(2081.988 -1209.2)" fill="#084a93"/>
    </g>
    <g id="Grupo_131845" data-name="Grupo 131845" transform="translate(812.938 7949.362)">
      <path id="Trazado_192369" data-name="Trazado 192369" d="M-1459.357,898.909c0-.045,0-.09,0-.134h0a2.6,2.6,0,0,1,2.481-2.589h0a2.607,2.607,0,0,1,2.723,2.481h0c0,.045,0,.09,0,.134h0a2.606,2.606,0,0,1-2.485,2.589h0c-.045,0-.082,0-.123,0h0A2.6,2.6,0,0,1-1459.357,898.909Zm-.863-10.948h0a2.649,2.649,0,0,1-.015-.3h0a2.605,2.605,0,0,1,2.314-2.578h0a2.607,2.607,0,0,1,2.879,2.3h0a2.572,2.572,0,0,1,.015.3h0a2.6,2.6,0,0,1-2.313,2.577h0a2.525,2.525,0,0,1-.294.019h0A2.608,2.608,0,0,1-1460.219,887.961ZM-1461.8,877.1a2.434,2.434,0,0,1-.045-.462h0a2.607,2.607,0,0,1,2.146-2.563h0a2.6,2.6,0,0,1,3.021,2.1h0a2.445,2.445,0,0,1,.045.461h0a2.607,2.607,0,0,1-2.146,2.563h0a2.8,2.8,0,0,1-.462.041h0A2.6,2.6,0,0,1-1461.8,877.1Zm-2.3-10.735a2.554,2.554,0,0,1-.078-.622h0a2.6,2.6,0,0,1,1.971-2.537h0a2.606,2.606,0,0,1,3.158,1.9h0a2.509,2.509,0,0,1,.078.617h0a2.606,2.606,0,0,1-1.975,2.54h0a2.66,2.66,0,0,1-.633.078h0A2.6,2.6,0,0,1-1464.1,866.361Zm-3.013-10.557a2.647,2.647,0,0,1-.126-.807h0a2.6,2.6,0,0,1,1.8-2.47h0a2.6,2.6,0,0,1,3.278,1.681h0a2.622,2.622,0,0,1,.126.8h0a2.6,2.6,0,0,1-1.808,2.47h0a2.577,2.577,0,0,1-.8.126h0A2.6,2.6,0,0,1-1467.117,855.8Zm-3.712-10.337a2.537,2.537,0,0,1-.186-.952h0a2.607,2.607,0,0,1,1.644-2.425h0a2.6,2.6,0,0,1,3.382,1.458h0a2.7,2.7,0,0,1,.186.952h0a2.615,2.615,0,0,1-1.644,2.429h0a2.639,2.639,0,0,1-.96.183h0A2.6,2.6,0,0,1-1470.829,845.466Zm-4.386-10.051h0a2.546,2.546,0,0,1-.253-1.128h0a2.6,2.6,0,0,1,1.481-2.34h0a2.605,2.605,0,0,1,3.474,1.228h0a2.659,2.659,0,0,1,.252,1.13h0a2.6,2.6,0,0,1-1.484,2.34h0a2.557,2.557,0,0,1-1.12.257h0A2.607,2.607,0,0,1-1475.215,835.415Zm-5.047-9.739a2.6,2.6,0,0,1-.332-1.269h0a2.6,2.6,0,0,1,1.328-2.277h0a2.606,2.606,0,0,1,3.546,1h0a2.576,2.576,0,0,1,.334,1.269h0a2.607,2.607,0,0,1-1.332,2.277h0a2.581,2.581,0,0,1-1.272.335h0A2.6,2.6,0,0,1-1480.262,825.677Zm-5.681-9.389h0a2.575,2.575,0,0,1-.424-1.432h0a2.6,2.6,0,0,1,1.183-2.169h0a2.6,2.6,0,0,1,3.6.759h0a2.6,2.6,0,0,1,.42,1.432h0a2.607,2.607,0,0,1-1.183,2.173h0a2.613,2.613,0,0,1-1.417.42h0A2.6,2.6,0,0,1-1485.943,816.287Zm-6.294-8.994h0a2.584,2.584,0,0,1-.521-1.555h0a2.606,2.606,0,0,1,1.042-2.091h0a2.6,2.6,0,0,1,3.645.521h0a2.6,2.6,0,0,1,.521,1.559h0a2.6,2.6,0,0,1-1.042,2.087h0a2.575,2.575,0,0,1-1.558.52h0A2.6,2.6,0,0,1-1492.237,807.293Zm-6.874-8.563a2.589,2.589,0,0,1-.629-1.7h0a2.613,2.613,0,0,1,.908-1.968h0a2.608,2.608,0,0,1,3.671.279h0a2.6,2.6,0,0,1,.628,1.707h0a2.611,2.611,0,0,1-.907,1.968h0a2.6,2.6,0,0,1-1.7.625h0A2.583,2.583,0,0,1-1499.111,798.73Zm-7.425-8.091a2.6,2.6,0,0,1-.744-1.819h0a2.6,2.6,0,0,1,.781-1.863h0a2.6,2.6,0,0,1,3.683.037h0a2.594,2.594,0,0,1,.744,1.819h0a2.612,2.612,0,0,1-.781,1.864h0a2.6,2.6,0,0,1-1.822.744h0A2.59,2.59,0,0,1-1506.535,790.639Zm-7.942-7.588a2.6,2.6,0,0,1-.871-1.953h0a2.6,2.6,0,0,1,.666-1.723h0a2.6,2.6,0,0,1,3.675-.2h0a2.592,2.592,0,0,1,.866,1.949h0a2.575,2.575,0,0,1-.662,1.726h0a2.589,2.589,0,0,1-1.942.867h0A2.577,2.577,0,0,1-1514.478,783.051ZM-1522.9,776a2.581,2.581,0,0,1-1-2.046h0a2.581,2.581,0,0,1,.551-1.607h0a2.6,2.6,0,0,1,3.656-.45h0a2.606,2.606,0,0,1,1,2.046h0a2.594,2.594,0,0,1-.554,1.61h0a2.6,2.6,0,0,1-2.053,1h0A2.578,2.578,0,0,1-1522.9,776Zm-8.876-6.48a2.6,2.6,0,0,1-1.142-2.161h0a2.6,2.6,0,0,1,.454-1.455h0a2.6,2.6,0,0,1,3.615-.688h0a2.6,2.6,0,0,1,1.138,2.165h0a2.565,2.565,0,0,1-.45,1.454h0a2.6,2.6,0,0,1-2.154,1.138h0A2.559,2.559,0,0,1-1531.779,769.522Zm-9.285-5.878h0a2.6,2.6,0,0,1-1.287-2.239h0a2.6,2.6,0,0,1,.361-1.324h0a2.6,2.6,0,0,1,3.563-.927h0a2.6,2.6,0,0,1,1.283,2.239h0a2.554,2.554,0,0,1-.357,1.325h0a2.608,2.608,0,0,1-2.247,1.287h0A2.567,2.567,0,0,1-1541.063,763.644Zm-9.657-5.249a2.606,2.606,0,0,1-1.436-2.34h0a2.578,2.578,0,0,1,.275-1.156h0a2.6,2.6,0,0,1,3.493-1.161h0a2.608,2.608,0,0,1,1.439,2.34h0a2.629,2.629,0,0,1-.279,1.157h0a2.61,2.61,0,0,1-2.329,1.436h0A2.6,2.6,0,0,1-1550.72,758.4Zm-9.988-4.6a2.614,2.614,0,0,1-1.6-2.4h0a2.644,2.644,0,0,1,.2-1.016h0a2.607,2.607,0,0,1,3.411-1.392h0a2.611,2.611,0,0,1,1.6,2.4h0a2.653,2.653,0,0,1-.2,1.016h0a2.611,2.611,0,0,1-2.4,1.6h0A2.625,2.625,0,0,1-1560.708,753.8Zm-10.27-3.925h0a2.6,2.6,0,0,1-1.76-2.474h0a2.611,2.611,0,0,1,.141-.833h0a2.607,2.607,0,0,1,3.311-1.618h0v0h0a2.6,2.6,0,0,1,1.756,2.474h0a2.513,2.513,0,0,1-.141.833h0a2.607,2.607,0,0,1-2.463,1.759h0A2.574,2.574,0,0,1-1570.978,749.873Zm-10.5-3.221h0a2.6,2.6,0,0,1-1.924-2.511h0a2.668,2.668,0,0,1,.089-.681h0a2.6,2.6,0,0,1,3.2-1.834h0a2.6,2.6,0,0,1,1.923,2.511h0a2.5,2.5,0,0,1-.093.681h0a2.606,2.606,0,0,1-2.511,1.927h0A2.521,2.521,0,0,1-1581.475,746.652Zm-10.691-2.515a2.6,2.6,0,0,1-2.091-2.541h0a2.836,2.836,0,0,1,.048-.524h0a2.609,2.609,0,0,1,3.069-2.043h0v0h0a2.6,2.6,0,0,1,2.091,2.537h0a2.534,2.534,0,0,1-.052.525h0a2.6,2.6,0,0,1-2.552,2.094h0A2.689,2.689,0,0,1-1592.166,744.137Zm-10.829-1.8a2.6,2.6,0,0,1-2.265-2.592h0a2.525,2.525,0,0,1,.022-.331h0a2.6,2.6,0,0,1,2.924-2.239h0a2.6,2.6,0,0,1,2.262,2.589h0a2.523,2.523,0,0,1-.022.335h0a2.6,2.6,0,0,1-2.578,2.262h0A2.679,2.679,0,0,1-1603,742.341Zm-10.929-1.079h0a2.6,2.6,0,0,1-2.436-2.6h0c0-.056,0-.112.007-.168h0a2.6,2.6,0,0,1,2.768-2.429h0a2.6,2.6,0,0,1,2.433,2.6h0c0,.056,0,.111,0,.167h0a2.6,2.6,0,0,1-2.6,2.433h0C-1613.809,741.269-1613.868,741.266-1613.924,741.262Z" transform="translate(1616.36 -736.06)" fill="#ffb30b"/>
    </g>
    <g transform="matrix(1, 0, 0, 1, 283, 7949)" filter="url(#Rectángulo_294748)">
      <rect id="Rectángulo_294748-2" data-name="Rectángulo 294748" width="300.397" height="130.254" rx="10" transform="translate(9 118.92)" fill="#ffb30b"/>
    </g>
    <g transform="matrix(1, 0, 0, 1, 283, 7949)" filter="url(#Trazado_194490)">
      <path id="Trazado_194490-2" data-name="Trazado 194490" d="M10,0H290.4a10,10,0,0,1,10,10V120.254a10,10,0,0,1-10,10H10a10,10,0,0,1-10-10V10A10,10,0,0,1,10,0Z" transform="translate(732 118.92)" fill="#084a93"/>
    </g>
    <path id="Trazado_194597" data-name="Trazado 194597" d="M-106.672-9.844a10.6,10.6,0,0,1-.477,3.6,5.379,5.379,0,0,1-1.6,2.211l-1.031.953a4.075,4.075,0,0,0-1.453,2.906,2.171,2.171,0,0,0,.523,1.617,1.86,1.86,0,0,0,1.352.508,2.064,2.064,0,0,0,1.633-.664,2.871,2.871,0,0,0,.617-1.883h5.3A6.4,6.4,0,0,1-103.8,4.281a7.842,7.842,0,0,1-5.43,1.734A8.063,8.063,0,0,1-114.617,4.4a5.675,5.675,0,0,1-1.9-4.57,5.25,5.25,0,0,1,.594-2.445,9.7,9.7,0,0,1,2.031-2.492l1.328-1.219a3.589,3.589,0,0,0,1.344-2.391l.078-1.125Zm-2.094-2.109a3.027,3.027,0,0,1-2.086-.742,2.425,2.425,0,0,1-.836-1.9,2.425,2.425,0,0,1,.836-1.9,3.027,3.027,0,0,1,2.086-.742,2.975,2.975,0,0,1,2.1.758,2.459,2.459,0,0,1,.82,1.883,2.459,2.459,0,0,1-.82,1.883A2.975,2.975,0,0,1-108.766-11.953ZM-81.234-7.7a8.308,8.308,0,0,1-1.281,4.2A7.733,7.733,0,0,1-85.8-.687a11.2,11.2,0,0,1-4.836,1A8.934,8.934,0,0,1-97.7-2.609q-2.578-2.922-2.578-8.25v-1.125a13.771,13.771,0,0,1,1.164-5.852,8.82,8.82,0,0,1,3.352-3.875A9.351,9.351,0,0,1-90.7-23.078a9.806,9.806,0,0,1,6.656,2.18,8.612,8.612,0,0,1,2.859,6.008h-5.469A4.075,4.075,0,0,0-87.7-17.875a4.306,4.306,0,0,0-3-.906,3.276,3.276,0,0,0-3,1.531,9.841,9.841,0,0,0-1,4.891v1.609a10.89,10.89,0,0,0,.914,5.2,3.345,3.345,0,0,0,3.148,1.563,4.211,4.211,0,0,0,2.891-.891A3.78,3.78,0,0,0-86.687-7.7Zm12.422,5.875A5.429,5.429,0,0,1-73.328.313,5.324,5.324,0,0,1-77.539-1.3a6.8,6.8,0,0,1-1.43-4.648V-16.906H-73.7V-5.922A1.893,1.893,0,0,0-71.594-3.75a2.752,2.752,0,0,0,2.578-1.3V-16.906h5.3V0h-4.937ZM-51.312,0a5.945,5.945,0,0,1-.5-1.516A4.9,4.9,0,0,1-55.875.313a6,6,0,0,1-4.062-1.445,4.6,4.6,0,0,1-1.672-3.633,4.728,4.728,0,0,1,2.031-4.156,10.348,10.348,0,0,1,5.906-1.406h1.625v-.9q0-2.339-2.016-2.339a1.648,1.648,0,0,0-1.875,1.853H-61.2a4.72,4.72,0,0,1,2.086-3.98,8.766,8.766,0,0,1,5.32-1.529,7.686,7.686,0,0,1,5.109,1.578,5.487,5.487,0,0,1,1.922,4.328v7.484a7.665,7.665,0,0,0,.719,3.563V0Zm-3.3-3.437a2.937,2.937,0,0,0,1.633-.422,2.644,2.644,0,0,0,.93-.953v-2.7h-1.531q-2.75,0-2.75,2.469a1.507,1.507,0,0,0,.484,1.164A1.753,1.753,0,0,0-54.609-3.437ZM-53.3-24h5.563l-4.344,4.906-4.3-.008Zm14.281,7.094.172,1.984a5.733,5.733,0,0,1,4.828-2.3,4.823,4.823,0,0,1,3.945,1.578,7.513,7.513,0,0,1,1.352,4.75V0H-34V-10.672a2.853,2.853,0,0,0-.516-1.883,2.385,2.385,0,0,0-1.875-.6,2.511,2.511,0,0,0-2.3,1.219V0h-5.266V-16.906Zm12.547,8.328a10.327,10.327,0,0,1,1.734-6.328,5.709,5.709,0,0,1,4.844-2.312,4.855,4.855,0,0,1,3.813,1.781V-24H-10.8V0h-4.734L-15.8-1.812A4.986,4.986,0,0,1-19.922.313,5.7,5.7,0,0,1-24.7-2,10.655,10.655,0,0,1-26.469-8.578Zm5.266.328q0,4.5,2.625,4.5a2.592,2.592,0,0,0,2.5-1.469v-6.437a2.522,2.522,0,0,0-2.469-1.5q-2.437,0-2.641,3.938Zm12.734-.359a9.978,9.978,0,0,1,.984-4.508,7.04,7.04,0,0,1,2.828-3.039A8.518,8.518,0,0,1-.328-17.219a7.774,7.774,0,0,1,5.984,2.352,9.024,9.024,0,0,1,2.188,6.4v.188a8.755,8.755,0,0,1-2.2,6.273A7.794,7.794,0,0,1-.3.313a7.883,7.883,0,0,1-5.8-2.164A8.464,8.464,0,0,1-8.453-7.719Zm5.266.328a6.291,6.291,0,0,0,.734,3.438A2.447,2.447,0,0,0-.3-3.75q2.813,0,2.875-4.328v-.531q0-4.547-2.906-4.547-2.641,0-2.859,3.922ZM28.2-1.828A5.429,5.429,0,0,1,23.688.313,5.324,5.324,0,0,1,19.477-1.3a6.8,6.8,0,0,1-1.43-4.648V-16.906h5.266V-5.922A1.893,1.893,0,0,0,25.422-3.75,2.752,2.752,0,0,0,28-5.047V-16.906h5.3V0H28.359ZM42.313-21.109v4.2h2.781v3.656H42.313v7.734a1.975,1.975,0,0,0,.344,1.328,1.844,1.844,0,0,0,1.359.375,7.725,7.725,0,0,0,1.313-.094V-.141a9.718,9.718,0,0,1-2.969.453A5.516,5.516,0,0,1,38.344-.969a5.252,5.252,0,0,1-1.3-3.891V-13.25H34.891v-3.656h2.156v-4.2ZM52.719,0H47.438V-16.906h5.281ZM47.125-21.266a2.35,2.35,0,0,1,.813-1.844,3.066,3.066,0,0,1,2.109-.719,3.066,3.066,0,0,1,2.109.719,2.35,2.35,0,0,1,.813,1.844,2.35,2.35,0,0,1-.812,1.844,3.066,3.066,0,0,1-2.109.719,3.066,3.066,0,0,1-2.109-.719A2.35,2.35,0,0,1,47.125-21.266ZM61.516,0H56.234V-24h5.281Zm8.8,0H65.031V-16.906h5.281ZM64.719-21.266a2.35,2.35,0,0,1,.813-1.844,3.066,3.066,0,0,1,2.109-.719,3.066,3.066,0,0,1,2.109.719,2.35,2.35,0,0,1,.813,1.844,2.35,2.35,0,0,1-.812,1.844,3.066,3.066,0,0,1-2.109.719,3.066,3.066,0,0,1-2.109-.719A2.35,2.35,0,0,1,64.719-21.266Zm15.047,17.2h7.7V0H73.109V-2.937l7.5-9.906H73.438v-4.062H87.3v2.844ZM99.547,0a5.946,5.946,0,0,1-.5-1.516A4.9,4.9,0,0,1,94.984.313a6,6,0,0,1-4.062-1.445A4.6,4.6,0,0,1,89.25-4.766a4.728,4.728,0,0,1,2.031-4.156,10.348,10.348,0,0,1,5.906-1.406h1.625v-.9q0-2.339-2.016-2.339a1.648,1.648,0,0,0-1.875,1.853H89.656a4.72,4.72,0,0,1,2.086-3.98,8.766,8.766,0,0,1,5.32-1.529,7.686,7.686,0,0,1,5.109,1.578,5.487,5.487,0,0,1,1.922,4.328v7.484a7.665,7.665,0,0,0,.719,3.563V0Zm-3.3-3.437a2.937,2.937,0,0,0,1.633-.422,2.644,2.644,0,0,0,.93-.953v-2.7H97.281q-2.75,0-2.75,2.469a1.507,1.507,0,0,0,.484,1.164A1.753,1.753,0,0,0,96.25-3.437Zm20.984-8.7-1.734-.125q-2.484,0-3.187,1.563V0h-5.266V-16.906h4.938l.172,2.172a4.077,4.077,0,0,1,3.7-2.484,5.135,5.135,0,0,1,1.469.188ZM-93.4,28.953a2.253,2.253,0,0,0-.852-1.875,10.584,10.584,0,0,0-2.992-1.391,28.706,28.706,0,0,1-3.5-1.391q-4.422-2.172-4.422-5.969a5.352,5.352,0,0,1,1.1-3.336,7.125,7.125,0,0,1,3.117-2.25,12.131,12.131,0,0,1,4.531-.8,10.611,10.611,0,0,1,4.4.875A6.964,6.964,0,0,1-88.992,15.3,6.508,6.508,0,0,1-87.914,19h-5.469a2.75,2.75,0,0,0-.852-2.156,3.319,3.319,0,0,0-2.3-.766,3.743,3.743,0,0,0-2.32.648,1.989,1.989,0,0,0-.852,1.648,2,2,0,0,0,.938,1.586,11.823,11.823,0,0,0,3.3,1.469A20.2,20.2,0,0,1-91.6,23.063a6.512,6.512,0,0,1,3.688,5.859,5.555,5.555,0,0,1-2.25,4.688,10.008,10.008,0,0,1-6.172,1.7,12.245,12.245,0,0,1-5.008-.992,7.55,7.55,0,0,1-3.375-2.719,7.084,7.084,0,0,1-1.133-3.977h5.5a3.489,3.489,0,0,0,.945,2.7,4.468,4.468,0,0,0,3.07.867,3.53,3.53,0,0,0,2.148-.586A1.934,1.934,0,0,0-93.4,28.953ZM-65.8,24.094A13.444,13.444,0,0,1-66.852,29.6a9.574,9.574,0,0,1-2.891,3.773l3.672,2.906-3.391,2.875-4.891-3.937a10.165,10.165,0,0,1-1.375.094,9.861,9.861,0,0,1-5.156-1.344,9.139,9.139,0,0,1-3.508-3.844,13.055,13.055,0,0,1-1.3-5.75v-1.2a13.462,13.462,0,0,1,1.227-5.906,9.141,9.141,0,0,1,3.5-3.937,9.784,9.784,0,0,1,5.211-1.391A9.74,9.74,0,0,1-70.6,13.313a9.265,9.265,0,0,1,3.523,3.914,13.088,13.088,0,0,1,1.273,5.82Zm-5.578-.953a9.567,9.567,0,0,0-1.133-5.148,3.634,3.634,0,0,0-3.242-1.758,3.609,3.609,0,0,0-3.266,1.734,9.691,9.691,0,0,0-1.109,5.078v1.047a9.832,9.832,0,0,0,1.109,5.148,3.632,3.632,0,0,0,3.3,1.789,3.58,3.58,0,0,0,3.211-1.766,9.625,9.625,0,0,0,1.133-5.078Zm13.859,7.641h9.547V35H-63.008V12.25h5.484ZM-38.6,26.391a9.978,9.978,0,0,1,.984-4.508,7.04,7.04,0,0,1,2.828-3.039,8.518,8.518,0,0,1,4.328-1.062,7.774,7.774,0,0,1,5.984,2.352,9.024,9.024,0,0,1,2.188,6.4v.188a8.755,8.755,0,0,1-2.2,6.273,7.794,7.794,0,0,1-5.945,2.32,7.883,7.883,0,0,1-5.8-2.164,8.464,8.464,0,0,1-2.359-5.867Zm5.266.328a6.291,6.291,0,0,0,.734,3.438A2.447,2.447,0,0,0-30.43,31.25q2.813,0,2.875-4.328v-.531q0-4.547-2.906-4.547-2.641,0-2.859,3.922ZM7.242,35H1.789L-6.273,20.844V35h-5.484V12.25h5.484L1.773,26.406V12.25H7.242ZM29.977,24.094a13.416,13.416,0,0,1-1.234,5.891,9.123,9.123,0,0,1-3.508,3.945,9.767,9.767,0,0,1-5.18,1.383A9.906,9.906,0,0,1,14.9,33.977a9.108,9.108,0,0,1-3.508-3.82,13.03,13.03,0,0,1-1.32-5.7V23.172a13.475,13.475,0,0,1,1.227-5.9,9.1,9.1,0,0,1,3.516-3.945,9.836,9.836,0,0,1,5.211-1.391,9.74,9.74,0,0,1,5.156,1.375A9.265,9.265,0,0,1,28.7,17.227a13.088,13.088,0,0,1,1.273,5.82ZM24.4,23.141a9.567,9.567,0,0,0-1.133-5.148,3.634,3.634,0,0,0-3.242-1.758q-4.125,0-4.359,6.188l-.016,1.672a9.839,9.839,0,0,0,1.109,5.141,3.628,3.628,0,0,0,3.3,1.8,3.585,3.585,0,0,0,3.2-1.766A9.571,9.571,0,0,0,24.4,24.188Zm20.141,5.813a2.253,2.253,0,0,0-.852-1.875A10.584,10.584,0,0,0,40.7,25.688,28.707,28.707,0,0,1,37.2,24.3q-4.422-2.172-4.422-5.969a5.352,5.352,0,0,1,1.1-3.336,7.125,7.125,0,0,1,3.117-2.25,12.131,12.131,0,0,1,4.531-.8,10.611,10.611,0,0,1,4.4.875A6.964,6.964,0,0,1,48.945,15.3,6.508,6.508,0,0,1,50.023,19H44.555a2.75,2.75,0,0,0-.852-2.156,3.319,3.319,0,0,0-2.3-.766,3.743,3.743,0,0,0-2.32.648,1.91,1.91,0,0,0,.086,3.234,11.823,11.823,0,0,0,3.3,1.469,20.2,20.2,0,0,1,3.875,1.633,6.512,6.512,0,0,1,3.688,5.859,5.555,5.555,0,0,1-2.25,4.688,10.008,10.008,0,0,1-6.172,1.7,12.245,12.245,0,0,1-5.008-.992A7.55,7.55,0,0,1,33.219,31.6a7.084,7.084,0,0,1-1.133-3.977h5.5a3.489,3.489,0,0,0,.945,2.7,4.468,4.468,0,0,0,3.07.867A3.53,3.53,0,0,0,43.75,30.6,1.934,1.934,0,0,0,44.539,28.953Zm27.594-4.859A13.444,13.444,0,0,1,71.086,29.6,9.574,9.574,0,0,1,68.2,33.375l3.672,2.906-3.391,2.875-4.891-3.937a10.165,10.165,0,0,1-1.375.094,9.861,9.861,0,0,1-5.156-1.344,9.139,9.139,0,0,1-3.508-3.844,13.055,13.055,0,0,1-1.3-5.75v-1.2a13.462,13.462,0,0,1,1.227-5.906,9.141,9.141,0,0,1,3.5-3.937,10.407,10.407,0,0,1,10.367-.016,9.265,9.265,0,0,1,3.523,3.914,13.088,13.088,0,0,1,1.273,5.82Zm-5.578-.953a9.567,9.567,0,0,0-1.133-5.148,3.9,3.9,0,0,0-6.508-.023A9.691,9.691,0,0,0,57.8,23.047v1.047a9.832,9.832,0,0,0,1.109,5.148,3.632,3.632,0,0,0,3.3,1.789,3.58,3.58,0,0,0,3.211-1.766,9.625,9.625,0,0,0,1.133-5.078Zm13.859,7.641h9.547V35H74.93V12.25h5.484ZM95.93,27.8a10.17,10.17,0,0,1,.516-3.6,5.633,5.633,0,0,1,1.672-2.289,11.115,11.115,0,0,0,1.758-1.773,2.9,2.9,0,0,0,.6-1.773q0-2.359-2.031-2.359a1.885,1.885,0,0,0-1.516.688,2.924,2.924,0,0,0-.609,1.859H91.039a6.3,6.3,0,0,1,1.969-4.867,7.849,7.849,0,0,1,5.438-1.742,8.154,8.154,0,0,1,5.4,1.609,5.649,5.649,0,0,1,1.914,4.578,5.332,5.332,0,0,1-.516,2.359,7.974,7.974,0,0,1-1.656,2.172l-1.8,1.672a4.227,4.227,0,0,0-1.062,1.508A5.975,5.975,0,0,0,100.4,27.8Zm-.641,4.75a2.425,2.425,0,0,1,.836-1.9,3.3,3.3,0,0,1,4.172,0,2.574,2.574,0,0,1,0,3.8,3.3,3.3,0,0,1-4.172,0A2.425,2.425,0,0,1,95.289,32.547Z" transform="translate(800 8104.09)" fill="#12263f"/>
    <g transform="matrix(1, 0, 0, 1, 283, 7949)" filter="url(#Rectángulo_294756)">
      <rect id="Rectángulo_294756-2" data-name="Rectángulo 294756" width="28.688" height="268.734" rx="5" transform="translate(1016.73 186) rotate(90)" fill="#fff"/>
    </g>
    <g id="Grupo_131846" data-name="Grupo 131846" transform="translate(696 8172.633)">
      <g id="Grupo_130238" data-name="Grupo 130238" transform="translate(0)">
        <g id="Grupo_130236" data-name="Grupo 130236">
          <rect id="Rectángulo_294279" data-name="Rectángulo 294279" width="103.768" height="2.755" fill="#ffb30b"/>
        </g>
        <g id="Grupo_130237" data-name="Grupo 130237" transform="translate(103.768)">
          <rect id="Rectángulo_294280" data-name="Rectángulo 294280" width="103.768" height="2.755" fill="#084a93"/>
        </g>
      </g>
    </g>
    <g transform="matrix(1, 0, 0, 1, 283, 7949)" filter="url(#Rectángulo_294750)">
      <rect id="Rectángulo_294750-2" data-name="Rectángulo 294750" width="28.688" height="268.734" rx="5" transform="translate(293.73 189) rotate(90)" fill="#fff"/>
    </g>
    <path id="Trazado_194599" data-name="Trazado 194599" d="M87.789,18.465a1.69,1.69,0,0,0-.639-1.406,7.938,7.938,0,0,0-2.244-1.043,21.53,21.53,0,0,1-2.625-1.043q-3.316-1.629-3.316-4.477a4.014,4.014,0,0,1,.826-2.5,5.344,5.344,0,0,1,2.338-1.687,9.1,9.1,0,0,1,3.4-.6,7.958,7.958,0,0,1,3.3.656,5.223,5.223,0,0,1,2.268,1.869A4.881,4.881,0,0,1,91.9,11H87.8a2.063,2.063,0,0,0-.639-1.617,2.489,2.489,0,0,0-1.729-.574,2.807,2.807,0,0,0-1.74.486,1.432,1.432,0,0,0,.064,2.426,8.867,8.867,0,0,0,2.473,1.1,15.147,15.147,0,0,1,2.906,1.225A4.884,4.884,0,0,1,91.9,18.441a4.166,4.166,0,0,1-1.687,3.516,7.506,7.506,0,0,1-4.629,1.277,9.184,9.184,0,0,1-3.756-.744A5.663,5.663,0,0,1,79.3,20.451a5.313,5.313,0,0,1-.85-2.982h4.125a2.617,2.617,0,0,0,.709,2.021,3.351,3.351,0,0,0,2.3.65A2.647,2.647,0,0,0,87.2,19.7,1.45,1.45,0,0,0,87.789,18.465Zm20.7-3.645a10.083,10.083,0,0,1-.785,4.131,7.18,7.18,0,0,1-2.168,2.83l2.754,2.18-2.543,2.156-3.668-2.953a7.624,7.624,0,0,1-1.031.07,7.4,7.4,0,0,1-3.867-1.008,6.854,6.854,0,0,1-2.631-2.883,9.791,9.791,0,0,1-.979-4.312v-.9a10.1,10.1,0,0,1,.92-4.43,6.856,6.856,0,0,1,2.625-2.953,7.805,7.805,0,0,1,7.775-.012,6.948,6.948,0,0,1,2.643,2.936,9.816,9.816,0,0,1,.955,4.365Zm-4.184-.715a7.175,7.175,0,0,0-.85-3.861,2.929,2.929,0,0,0-4.881-.018,7.268,7.268,0,0,0-.832,3.809v.785a7.374,7.374,0,0,0,.832,3.861,2.724,2.724,0,0,0,2.473,1.342,2.685,2.685,0,0,0,2.408-1.324,7.219,7.219,0,0,0,.85-3.809Zm10.395,5.73h7.16V23H110.582V5.938H114.7Z" transform="translate(342 8136)" fill="#12263f"/>
    <path id="Trazado_194598" data-name="Trazado 194598" d="M78.074,23h-4.09L67.938,12.383V23H63.824V5.938h4.113l6.035,10.617V5.938h4.1ZM80,16.543a7.484,7.484,0,0,1,.738-3.381,5.28,5.28,0,0,1,2.121-2.279,6.388,6.388,0,0,1,3.246-.8A5.83,5.83,0,0,1,90.59,11.85a6.768,6.768,0,0,1,1.641,4.8v.141a6.566,6.566,0,0,1-1.646,4.705,5.846,5.846,0,0,1-4.459,1.74,5.912,5.912,0,0,1-4.348-1.623,6.348,6.348,0,0,1-1.77-4.4Zm3.949.246a4.718,4.718,0,0,0,.551,2.578,1.835,1.835,0,0,0,1.629.82q2.109,0,2.156-3.246v-.4q0-3.41-2.18-3.41-1.98,0-2.145,2.941Zm19.008,1.676a1.69,1.69,0,0,0-.639-1.406,7.938,7.938,0,0,0-2.244-1.043,21.53,21.53,0,0,1-2.625-1.043q-3.316-1.629-3.316-4.477a4.014,4.014,0,0,1,.826-2.5,5.344,5.344,0,0,1,2.338-1.687,9.1,9.1,0,0,1,3.4-.6,7.958,7.958,0,0,1,3.3.656,5.223,5.223,0,0,1,2.268,1.869A4.881,4.881,0,0,1,107.066,11h-4.1a2.063,2.063,0,0,0-.639-1.617,2.489,2.489,0,0,0-1.729-.574,2.807,2.807,0,0,0-1.74.486,1.432,1.432,0,0,0,.064,2.426,8.867,8.867,0,0,0,2.473,1.1,15.147,15.147,0,0,1,2.906,1.225,4.884,4.884,0,0,1,2.766,4.395,4.166,4.166,0,0,1-1.687,3.516,7.506,7.506,0,0,1-4.629,1.277,9.184,9.184,0,0,1-3.756-.744,5.663,5.663,0,0,1-2.531-2.039,5.313,5.313,0,0,1-.85-2.982h4.125a2.617,2.617,0,0,0,.709,2.021,3.351,3.351,0,0,0,2.3.65,2.647,2.647,0,0,0,1.611-.439A1.45,1.45,0,0,0,102.953,18.465Zm20.7-3.645a10.083,10.083,0,0,1-.785,4.131,7.18,7.18,0,0,1-2.168,2.83l2.754,2.18-2.543,2.156-3.668-2.953a7.624,7.624,0,0,1-1.031.07,7.4,7.4,0,0,1-3.867-1.008,6.854,6.854,0,0,1-2.631-2.883,9.791,9.791,0,0,1-.979-4.312v-.9a10.1,10.1,0,0,1,.92-4.43,6.856,6.856,0,0,1,2.625-2.953,7.805,7.805,0,0,1,7.775-.012,6.948,6.948,0,0,1,2.643,2.936,9.816,9.816,0,0,1,.955,4.365Zm-4.184-.715a7.175,7.175,0,0,0-.85-3.861,2.929,2.929,0,0,0-4.881-.018,7.268,7.268,0,0,0-.832,3.809v.785a7.374,7.374,0,0,0,.832,3.861,2.724,2.724,0,0,0,2.473,1.342,2.685,2.685,0,0,0,2.408-1.324,7.219,7.219,0,0,0,.85-3.809Zm10.395,5.73h7.16V23H125.746V5.938h4.113Z" transform="translate(1065 8133)" fill="#12263f"/>
    <g id="Grupo_131847" data-name="Grupo 131847" transform="translate(388.461 8021.128)">
      <circle id="Elipse_157-2" data-name="Elipse 157" cx="54" cy="54" r="54" transform="translate(-0.461 0.26)" fill="#f3f9ff"/>
    </g>
    <g id="Grupo_131848" data-name="Grupo 131848" transform="translate(1111.321 8012.932)">
      <g transform="matrix(1, 0, 0, 1, -828.32, -63.93)" filter="url(#Elipse_157)">
        <ellipse id="Elipse_157-3" data-name="Elipse 157" cx="54" cy="53.5" rx="54" ry="53.5" transform="translate(828 64.39)" fill="#f3f9ff"/>
      </g>
    </g>
    <g id="Grupo_131849" data-name="Grupo 131849" transform="translate(411.564 8045.208)">
      <path id="Trazado_192385" data-name="Trazado 192385" d="M-2950.24,1160.258a2.651,2.651,0,0,1-1.359-2.739c.061-1.989.054-3.982,0-5.971-.031-1.218.079-2.317,1.4-2.991a2.7,2.7,0,0,1-1.4-2.869c.053-2.136.063-4.276,0-6.411a2.558,2.558,0,0,1,1.453-2.5,14.713,14.713,0,0,1,4.439-1.5,77.63,77.63,0,0,1,17.83-1.212,60.857,60.857,0,0,1,12.272,1.452,13.105,13.105,0,0,1,3.343,1.239,2.591,2.591,0,0,1,1.5,2.536c-.065,2.219-.058,4.442,0,6.662a2.521,2.521,0,0,1-1.261,2.527c.034.247.241.3.375.411a2.3,2.3,0,0,1,.879,1.918c-.027,2.367-.033,4.735,0,7.1a2.291,2.291,0,0,1-1,2.1c-.312.211-.287.318,0,.519a2.317,2.317,0,0,1,1,2.107q-.056,3.519,0,7.04a2.408,2.408,0,0,1-1.189,2.2,11.125,11.125,0,0,1-3.918,1.464c-.615.13-.792.377-.764.987.052,1.129.025,2.262.012,3.394a2.741,2.741,0,0,1-2.954,2.94c-2.724,0-5.448.012-8.172-.01-.461,0-.61.1-.6.584.032,1.655.026,3.31,0,4.966-.006.413.113.55.523.52.458-.034.921,0,1.382-.009a1.86,1.86,0,0,1,1.6.71.7.7,0,0,0,.645.28q8.2-.007,16.406.005a1.57,1.57,0,0,0,.9-.361,3.787,3.787,0,0,1,4.457.216,3.812,3.812,0,0,1,1.183,4.3,3.811,3.811,0,0,1-3.72,2.475,3.584,3.584,0,0,1-1.992-.676,1.483,1.483,0,0,0-.923-.3q-8.109.014-16.218,0a.884.884,0,0,0-.805.349,1.669,1.669,0,0,1-1.379.63q-4.9,0-9.806,0a1.672,1.672,0,0,1-1.372-.646.832.832,0,0,0-.75-.332q-8.139.012-16.281,0a1.343,1.343,0,0,0-.816.238,3.746,3.746,0,0,1-4.407.051,3.816,3.816,0,0,1-1.515-4.035,3.782,3.782,0,0,1,3.344-2.88,3.549,3.549,0,0,1,2.545.693,1.39,1.39,0,0,0,.87.267q8.109-.01,16.218,0a.88.88,0,0,0,.807-.346,1.87,1.87,0,0,1,1.566-.65c.6-.011,1.4.263,1.754-.1.378-.392.1-1.192.111-1.812.019-1.194-.013-2.389.016-3.583.01-.441-.12-.562-.56-.559-2.724.02-5.448.012-8.172.009a2.751,2.751,0,0,1-2.994-2.964c-.01-1.194-.021-2.389.008-3.583.01-.426-.09-.622-.54-.715a15.39,15.39,0,0,1-3.171-.989,5.013,5.013,0,0,1-1.475-.942,2.007,2.007,0,0,1-.67-1.5c.007-2.557.01-5.113,0-7.669A2.5,2.5,0,0,1-2950.24,1160.258Z" transform="translate(2961.35 -1134)"/>
      <path id="Trazado_192386" data-name="Trazado 192386" d="M-2898.492,1149.61c0,1.818,0,3.6,0,5.374,0,.306-.221.432-.43.568a8.959,8.959,0,0,1-2.674,1.059,50.923,50.923,0,0,1-9.808,1.4,87.289,87.289,0,0,1-14.5-.253,32.742,32.742,0,0,1-8.466-1.724c-.117-.045-.229-.1-.347-.144a1.447,1.447,0,0,1-1.062-1.656c.087-1.523.024-3.054.024-4.667a19.472,19.472,0,0,0,4.161,1.3,62.878,62.878,0,0,0,9.033,1.113,89.364,89.364,0,0,0,10.866,0,51.468,51.468,0,0,0,11.1-1.63C-2899.912,1150.16-2899.257,1149.884-2898.492,1149.61Z" transform="translate(2947.288 -1142.563)" fill="#b9ddfc" opacity="0.8" style="isolation: isolate"/>
      <path id="Trazado_192387" data-name="Trazado 192387" d="M-2898.476,1175.6c0,1.835-.01,3.573.008,5.311,0,.424-.271.588-.557.753a12.331,12.331,0,0,1-3.672,1.246,76.889,76.889,0,0,1-20.009,1.136,48.389,48.389,0,0,1-9.928-1.41,11.285,11.285,0,0,1-2.468-.913,1.069,1.069,0,0,1-.65-1.087c.044-1.653.015-3.308.015-5.036a22.469,22.469,0,0,0,6.063,1.655,79.623,79.623,0,0,0,14.776.893,65.031,65.031,0,0,0,12.966-1.4A16.573,16.573,0,0,0-2898.476,1175.6Z" transform="translate(2947.273 -1156.88)" fill="#b9ddfc" opacity="0.8" style="isolation: isolate"/>
      <path id="Trazado_192388" data-name="Trazado 192388" d="M-2909.978,1219.249h-11.375c-1.082,0-1.376-.292-1.377-1.382q0-4.557,0-9.114c0-1.087.3-1.39,1.377-1.39q11.407,0,22.815,0c1.074,0,1.376.306,1.377,1.391q0,4.556,0,9.113c0,1.089-.3,1.381-1.378,1.382Z" transform="translate(2940.111 -1174.347)" fill="#ffb30b"/>
      <path id="Trazado_192389" data-name="Trazado 192389" d="M-2916.987,1143.956a70.173,70.173,0,0,1-14.428-1.3,13.477,13.477,0,0,1-3.445-1.138c-.269-.14-.68-.253-.685-.576s.405-.443.675-.579a16.768,16.768,0,0,1,4.859-1.429,81.475,81.475,0,0,1,19.1-.807,49.58,49.58,0,0,1,9.618,1.408,9,9,0,0,1,2.491,1.011c.524.329.526.45.007.776a10.426,10.426,0,0,1-3.216,1.208,57.193,57.193,0,0,1-9.641,1.281C-2913.425,1143.926-2915.206,1143.977-2916.987,1143.956Z" transform="translate(2947.157 -1136.15)" fill="#b9ddfc"/>
      <path id="Trazado_192390" data-name="Trazado 192390" d="M-2917.026,1172.576a68.913,68.913,0,0,1-14.3-1.283,12.533,12.533,0,0,1-3.79-1.28c-.652-.381-.644-.524-.007-.918a2.393,2.393,0,0,1,2.057-.324,49.771,49.771,0,0,0,10.3,1.5,90.785,90.785,0,0,0,13.121-.116,47.557,47.557,0,0,0,9.158-1.5,2.829,2.829,0,0,1,1.97.74c.187.251-.023.343-.158.444a5.95,5.95,0,0,1-1.748.836,37.054,37.054,0,0,1-7.57,1.459A80.975,80.975,0,0,1-2917.026,1172.576Z" transform="translate(2947.189 -1153.048)" fill="#b9ddfc"/>
      <path id="Trazado_192391" data-name="Trazado 192391" d="M-2917.068,1198.616a72.137,72.137,0,0,1-13.2-1.056,18.22,18.22,0,0,1-4.507-1.317c-.317-.151-.793-.3-.8-.635s.482-.468.785-.648a1.924,1.924,0,0,1,1.608-.17,52.678,52.678,0,0,0,11.551,1.589,87.012,87.012,0,0,0,15.744-.581,38.9,38.9,0,0,0,5.292-1.058,2.628,2.628,0,0,1,2.092.708c.2.259-.026.341-.153.438a5.815,5.815,0,0,1-1.751.832,35.1,35.1,0,0,1-7.254,1.432A83.839,83.839,0,0,1-2917.068,1198.616Z" transform="translate(2947.17 -1167.378)" fill="#b9ddfc"/>
      <path id="Trazado_192392" data-name="Trazado 192392" d="M-2900.419,1259.171c-1.488,0-2.974-.013-4.461.01-.384.006-.5-.094-.493-.485.027-1.047.025-2.094,0-3.141-.008-.389.118-.5.5-.5q4.461.021,8.922,0c.354,0,.534.054.524.472q-.04,1.6,0,3.2c.008.375-.131.446-.469.442C-2897.4,1259.162-2898.911,1259.171-2900.419,1259.171Z" transform="translate(2930.564 -1200.578)" fill="#f7f9fa"/>
      <path id="Trazado_192393" data-name="Trazado 192393" d="M-2936.7,1257.257c2.471,0,4.943.01,7.413-.009.441,0,.566.128.566.566,0,1.579.015,1.58-1.546,1.58-4.587,0-9.173-.01-13.76.013-.556,0-.7-.141-.551-.662a1.684,1.684,0,0,0-.014-.933c-.123-.444.018-.569.479-.565C-2941.642,1257.268-2939.17,1257.257-2936.7,1257.257Z" transform="translate(2952.156 -1201.782)" fill="#084a93"/>
      <path id="Trazado_192394" data-name="Trazado 192394" d="M-2871.426,1259.392c-2.45,0-4.9-.013-7.351.011-.475.005-.6-.13-.594-.6.015-1.55,0-1.55,1.521-1.55,4.587,0,9.174.007,13.76-.01.506,0,.754.068.583.641a1.89,1.89,0,0,0-.034.685c.068.822.075.821-.723.821Z" transform="translate(2916.264 -1201.781)" fill="#084a93"/>
      <path id="Trazado_192395" data-name="Trazado 192395" d="M-2930.788,1203.323a3.254,3.254,0,0,0-.869,2.642c.025.9.007,1.8,0,2.7,0,.178.052.393-.283.307a12.939,12.939,0,0,1-3.35-1.21.829.829,0,0,1-.45-.815c.021-1.57.017-3.14,0-4.709,0-.366.032-.484.434-.3a19.466,19.466,0,0,0,4.025,1.184A.713.713,0,0,1-2930.788,1203.323Z" transform="translate(2947.263 -1171.317)" fill="#b9ddfc" opacity="0.8" style="isolation: isolate"/>
      <path id="Trazado_192396" data-name="Trazado 192396" d="M-2864.041,1203.132a23.036,23.036,0,0,0,5-1.492v1.592c0,1.173-.024,2.346.012,3.517a.937.937,0,0,1-.546.953,14.2,14.2,0,0,1-3.543,1.221c0-1.089-.018-2.132.006-3.175A3.294,3.294,0,0,0-2864.041,1203.132Z" transform="translate(2907.833 -1171.2)" fill="#b9ddfc" opacity="0.8" style="isolation: isolate"/>
      <path id="Trazado_192397" data-name="Trazado 192397" d="M-2836.2,1257.1a2.086,2.086,0,0,1-2,2.08,2.1,2.1,0,0,1-2.1-2.05,2.1,2.1,0,0,1,2.039-2.052A2.091,2.091,0,0,1-2836.2,1257.1Z" transform="translate(2894.779 -1200.589)" fill="#f7f9fa"/>
      <path id="Trazado_192398" data-name="Trazado 192398" d="M-2953.35,1257.12a2.1,2.1,0,0,1-2.03,2.061,2.086,2.086,0,0,1-2.074-2.009,2.087,2.087,0,0,1,2.053-2.094A2.1,2.1,0,0,1-2953.35,1257.12Z" transform="translate(2959.207 -1200.589)" fill="#f7f9fa"/>
      <path id="Trazado_192399" data-name="Trazado 192399" d="M-2894.642,1240.7c0,.836-.018,1.675.008,2.511.011.389-.069.579-.507.531-.514-.057-1.182.21-1.515-.1s-.1-.987-.1-1.5c-.017-1.3.009-2.595-.014-3.892-.006-.412.069-.582.538-.578,1.594.011,1.594-.01,1.594,1.584Z" transform="translate(2925.87 -1191.017)" fill="#f7f9fa"/>
      <g id="Grupo_130234" data-name="Grupo 130234" transform="translate(19.789 34.27)">
        <path id="Trazado_192400" data-name="Trazado 192400" d="M-2912.855,1216.331a.818.818,0,0,0-.309-.681,3.847,3.847,0,0,0-1.087-.505,10.353,10.353,0,0,1-1.272-.5,2.407,2.407,0,0,1-1.606-2.168,1.944,1.944,0,0,1,.4-1.212,2.586,2.586,0,0,1,1.132-.817,4.407,4.407,0,0,1,1.646-.292,3.848,3.848,0,0,1,1.6.318,2.525,2.525,0,0,1,1.1.905,2.361,2.361,0,0,1,.392,1.342h-1.987a1,1,0,0,0-.309-.783,1.207,1.207,0,0,0-.837-.278,1.358,1.358,0,0,0-.843.235.724.724,0,0,0-.309.6.727.727,0,0,0,.34.576,4.287,4.287,0,0,0,1.2.534,7.353,7.353,0,0,1,1.407.593,2.366,2.366,0,0,1,1.34,2.128,2.018,2.018,0,0,1-.818,1.7,3.635,3.635,0,0,1-2.241.618,4.458,4.458,0,0,1-1.819-.36,2.739,2.739,0,0,1-1.226-.988,2.567,2.567,0,0,1-.411-1.444h2a1.267,1.267,0,0,0,.343.979,1.622,1.622,0,0,0,1.116.315,1.276,1.276,0,0,0,.779-.213A.7.7,0,0,0-2912.855,1216.331Z" transform="translate(2917.377 -1210.151)"/>
        <path id="Trazado_192401" data-name="Trazado 192401" d="M-2893.886,1214.566a4.879,4.879,0,0,1-.381,2,3.478,3.478,0,0,1-1.049,1.371l1.333,1.055-1.232,1.044-1.776-1.43a3.7,3.7,0,0,1-.5.034,3.582,3.582,0,0,1-1.873-.488,3.324,3.324,0,0,1-1.274-1.4,4.739,4.739,0,0,1-.474-2.089v-.437a4.885,4.885,0,0,1,.446-2.145,3.325,3.325,0,0,1,1.271-1.43,3.556,3.556,0,0,1,1.893-.505,3.536,3.536,0,0,1,1.873.5,3.361,3.361,0,0,1,1.28,1.422,4.763,4.763,0,0,1,.463,2.114Zm-2.026-.346a3.467,3.467,0,0,0-.412-1.87,1.319,1.319,0,0,0-1.177-.639,1.31,1.31,0,0,0-1.186.63,3.511,3.511,0,0,0-.4,1.844v.38a3.57,3.57,0,0,0,.4,1.87,1.32,1.32,0,0,0,1.2.65,1.3,1.3,0,0,0,1.166-.641,3.494,3.494,0,0,0,.412-1.844Z" transform="translate(2908.432 -1210.151)"/>
        <path id="Trazado_192402" data-name="Trazado 192402" d="M-2880.808,1217.134h3.467v1.532h-5.46V1210.4h1.992Z" transform="translate(2898.362 -1210.289)"/>
      </g>
    </g>
    <g id="Grupo_131850" data-name="Grupo 131850" transform="translate(1135 8041.771)">
      <rect id="Rectángulo_294277" data-name="Rectángulo 294277" width="39.868" height="32.991" transform="translate(10.394 5.92)" fill="#b9ddfc"/>
      <rect id="Rectángulo_294278" data-name="Rectángulo 294278" width="39.223" height="4.728" transform="translate(10.609 1.192)" fill="#ffb30b"/>
      <g id="Grupo_130232" data-name="Grupo 130232" transform="translate(0)">
        <path id="Trazado_192370" data-name="Trazado 192370" d="M-1005.861,1182.593a6.058,6.058,0,0,0,4.138,5.182,11.906,11.906,0,0,0,2.329.331,3.571,3.571,0,0,1,3.4,3.332,1.626,1.626,0,0,1-1.644,1.842c-.178.01-.358.007-.537.007q-10.342,0-20.684,0a4.47,4.47,0,0,1-.7-.029.841.841,0,0,1-.737-.907.822.822,0,0,1,.779-.815,5.069,5.069,0,0,1,.644-.015h20.993a1.517,1.517,0,0,0-1.247-1.584,3.536,3.536,0,0,0-.694-.052q-12.088,0-24.176,0a1.824,1.824,0,0,0-1.977,1.233,2.455,2.455,0,0,0-.046.369c.221.013.409.032.6.033.752.006,1.505-.012,2.256.018a.829.829,0,0,1,.809.842.771.771,0,0,1-.717.862,31.2,31.2,0,0,1-3.538-.036,1.51,1.51,0,0,1-1.219-1.612,3.559,3.559,0,0,1,3.36-3.478,16.532,16.532,0,0,0,1.708-.164,6.13,6.13,0,0,0,4.831-5.142.806.806,0,0,0-.034-.216h-.681q-8.972,0-17.944,0a5.127,5.127,0,0,1-4.619-2.336,4.629,4.629,0,0,1-.786-2.584q-.006-15.553.006-31.107a4.954,4.954,0,0,1,4.933-4.881c1.253-.026,2.507-.019,3.76,0,.394.006.536-.11.528-.516-.022-1.182-.013-2.364-.005-3.546,0-.81.3-1.114,1.1-1.115q15.419,0,30.838,0c.7,0,1.111.339,1.1.888s-.413.875-1.124.876q-4.244.008-8.489,0H-1030.3c-.706,0-.707,0-.707.691,0,.752.013,1.5-.006,2.256-.009.354.123.487.47.459.249-.021.5,0,.752,0h36.21c.766,0,.766,0,.767-.744s-.015-1.469.006-2.2c.01-.353-.116-.468-.464-.463-1.057.017-2.114.007-3.17,0a3.141,3.141,0,0,1-.535-.03.848.848,0,0,1-.732-.912.79.79,0,0,1,.787-.8q2.524-.04,5.049,0c.53.007.817.387.823,1,.011,1.182.03,2.365-.007,3.546-.016.514.166.634.644.621,1.164-.03,2.328-.017,3.492-.007a4.984,4.984,0,0,1,5.1,5.105q.012,15.338,0,30.676a4.97,4.97,0,0,1-4.768,5.1c-.285.022-.572.027-.859.027h-18.413Zm13.05-39.139H-1030.3c-.707,0-.707,0-.707.686q0,14.8,0,29.6c0,.739,0,.74.718.74h36.741c.733,0,.734,0,.734-.724q0-14.8,0-29.6Zm9.149,32.822h-56.576c0,.345,0,.661,0,.978a3.278,3.278,0,0,0,3.532,3.567q24.8.007,49.593.015C-984.9,1180.839-983.118,1179.187-983.662,1176.276Zm-49.2-32.822c-1.327,0-2.649,0-3.971,0-.268,0-.536.032-.8.058a1.441,1.441,0,0,0-.259.067,3.262,3.262,0,0,0-2.346,3.338q0,13.189,0,26.379c0,1.188,0,1.164,1.188,1.19.484.01.594-.145.593-.61q-.024-8.085-.009-16.171a3.129,3.129,0,0,1,.018-.59.815.815,0,0,1,.852-.736.814.814,0,0,1,.861.725,2.966,2.966,0,0,1,.021.589c0,5.372.011,10.745-.014,16.117,0,.568.168.7.694.674.839-.041,1.683-.01,2.524-.011.734,0,.736,0,.736-.724v-25.3c0-1.47,0-1.47-1.491-1.47h-2.449v.661q0,2.875,0,5.749c0,.68-.314,1.067-.853,1.079-.561.013-.9-.386-.9-1.088q0-3.546,0-7.092c0-.768.3-1.069,1.077-1.075,1.057-.007,2.113,0,3.17,0,1.6,0,1.6,0,1.417-1.62A1.154,1.154,0,0,0-1032.859,1143.454Zm45.755,3.524c-1.136,0-2.206.034-3.273-.014-.564-.025-.679.166-.678.7q.025,10.684.011,21.368c0,1.628.015,3.257-.01,4.885-.006.454.144.586.584.571.876-.029,1.754-.008,2.63-.009.734,0,.735,0,.735-.713v-26.785Zm-3.939-3.46c0,.423.02.817-.006,1.207s.122.5.494.491c1.307-.018,2.614-.007,3.92-.006,1.051,0,1.284.237,1.284,1.3q0,13.453,0,26.907c0,1.059,0,1.059,1.034,1.059.736,0,.737,0,.737-.717q0-13.346,0-26.692c0-.2,0-.394-.012-.591a3.072,3.072,0,0,0-2.555-2.926C-987.74,1143.413-989.355,1143.519-991.043,1143.519Zm-13.937,44.569a.912.912,0,0,0-.1-.207,9.039,9.039,0,0,1-2.566-4.856c-.078-.377-.257-.438-.586-.437-2.451.009-4.9.012-7.352,0-.38,0-.52.12-.6.49a9,9,0,0,1-2.516,4.765,1.042,1.042,0,0,0-.132.248Z" transform="translate(1042 -1136.512)"/>
        <path id="Trazado_192371" data-name="Trazado 192371" d="M-1011.788,1144.378c-.718,0-1.118-.293-1.151-.837-.035-.565.393-.927,1.108-.935.807-.01,1.26.328,1.234.918C-1010.621,1144.083-1011.035,1144.38-1011.788,1144.378Z" transform="translate(1025.523 -1139.967)"/>
        <path id="Trazado_192372" data-name="Trazado 192372" d="M-993.391,1144.34c-.441.029-.869-.063-1.022-.5a1.2,1.2,0,0,1,.07-.891,1.409,1.409,0,0,1,1.952-.051.883.883,0,0,1-.522,1.417A3.32,3.32,0,0,1-993.391,1144.34Z" transform="translate(1015.048 -1139.923)"/>
        <path id="Trazado_192373" data-name="Trazado 192373" d="M-1002.63,1144.352a.949.949,0,0,1-1.092-.565.815.815,0,0,1,.32-1.035,1.717,1.717,0,0,1,1.629.042.821.821,0,0,1,.234,1.057A.983.983,0,0,1-1002.63,1144.352Z" transform="translate(1020.336 -1139.946)"/>
        <path id="Trazado_192374" data-name="Trazado 192374" d="M-981.356,1228.349c.545,2.911-1.235,4.563-3.451,4.56q-24.8-.035-49.593-.015a3.278,3.278,0,0,1-3.532-3.567c0-.316,0-.633,0-.978Z" transform="translate(1039.693 -1188.586)" fill="#fff"/>
        <path id="Trazado_192375" data-name="Trazado 192375" d="M-1035.332,1163.555c-.518-.021-.827-.414-.827-1.086q0-3.546,0-7.092c0-.767.3-1.069,1.077-1.075,1.057-.007,2.113,0,3.17,0,1.6,0,1.6,0,1.417-1.619a1.2,1.2,0,0,0-.056-.137c-1.328,0-2.649,0-3.971,0-.268,0-.536.033-.8.058a1.456,1.456,0,0,0-.259.067,3.262,3.262,0,0,0-2.346,3.338q0,13.189,0,26.379c0,1.188,0,1.164,1.188,1.19.484.01.594-.145.592-.61q-.024-8.085-.01-16.171a3.131,3.131,0,0,1,.018-.59.815.815,0,0,1,.852-.736h0C-1035.278,1164.841-1035.311,1164.2-1035.332,1163.555Z" transform="translate(1039.693 -1145.602)" fill="#b9ddfc"/>
        <path id="Trazado_192376" data-name="Trazado 192376" d="M-1028.553,1160.684H-1031v.661q0,2.874,0,5.749c0,.68-.314,1.066-.853,1.079-.024,0-.048,0-.071,0,.021.641.054,1.286.044,1.917a.814.814,0,0,1,.86.725,2.964,2.964,0,0,1,.021.589c0,5.373.011,10.745-.014,16.117,0,.568.168.7.694.674.839-.041,1.682-.01,2.524-.011.734,0,.736,0,.736-.724v-25.3C-1027.062,1160.684-1027.062,1160.684-1028.553,1160.684Z" transform="translate(1036.289 -1150.218)" fill="#00defc"/>
        <path id="Trazado_192377" data-name="Trazado 192377" d="M-920.387,1160.664v26.784c0,.713,0,.713-.735.713-.877,0-1.754-.021-2.63.009-.44.015-.591-.117-.584-.571.024-1.628.01-3.257.01-4.885q0-10.684-.011-21.368c0-.53.114-.721.678-.7C-922.594,1160.7-921.523,1160.664-920.387,1160.664Z" transform="translate(975.283 -1150.198)" fill="#00defc"/>
        <path id="Trazado_192378" data-name="Trazado 192378" d="M-924.322,1152.644c1.688,0,3.3-.106,4.9.032a3.072,3.072,0,0,1,2.555,2.926c.016.2.013.394.013.591q0,13.346,0,26.692c0,.716,0,.716-.737.717-1.034,0-1.034,0-1.034-1.059q0-13.453,0-26.907c0-1.064-.233-1.3-1.284-1.3-1.307,0-2.613-.012-3.92.006-.372.005-.519-.112-.495-.491S-924.322,1153.067-924.322,1152.644Z" transform="translate(975.279 -1145.637)" fill="#b9ddfc"/>
        <path id="Trazado_192379" data-name="Trazado 192379" d="M-974.637,1248.424h-13.849a1.056,1.056,0,0,1,.132-.248,9,9,0,0,0,2.516-4.765c.079-.37.219-.493.6-.49,2.451.016,4.9.012,7.352,0,.329,0,.508.06.586.437a9.036,9.036,0,0,0,2.566,4.856A.92.92,0,0,1-974.637,1248.424Z" transform="translate(1011.656 -1196.848)" fill="#fff"/>
        <g id="Grupo_130231" data-name="Grupo 130231" transform="translate(13.469 20.146)">
          <path id="Trazado_192380" data-name="Trazado 192380" d="M-1004.221,1191.281h-1.914l-2.831-4.97v4.97h-1.925v-7.987h1.925l2.825,4.97v-4.97h1.92Z" transform="translate(1010.892 -1183.184)"/>
          <path id="Trazado_192381" data-name="Trazado 192381" d="M-993.408,1190.8a3.5,3.5,0,0,1,.346-1.583,2.469,2.469,0,0,1,.993-1.067,2.985,2.985,0,0,1,1.519-.373,2.731,2.731,0,0,1,2.1.826,3.169,3.169,0,0,1,.768,2.246v.066a3.075,3.075,0,0,1-.771,2.2,2.738,2.738,0,0,1-2.087.815,2.767,2.767,0,0,1-2.035-.76,2.971,2.971,0,0,1-.828-2.06Zm1.849.115a2.207,2.207,0,0,0,.258,1.207.858.858,0,0,0,.763.384q.987,0,1.009-1.519v-.187q0-1.6-1.021-1.6-.927,0-1,1.377Z" transform="translate(1000.978 -1185.727)"/>
          <path id="Trazado_192382" data-name="Trazado 192382" d="M-974.313,1189.014a.791.791,0,0,0-.3-.658,3.717,3.717,0,0,0-1.05-.489,9.967,9.967,0,0,1-1.229-.488,2.327,2.327,0,0,1-1.553-2.1,1.883,1.883,0,0,1,.387-1.171,2.5,2.5,0,0,1,1.095-.79,4.253,4.253,0,0,1,1.591-.283,3.729,3.729,0,0,1,1.545.307,2.446,2.446,0,0,1,1.062.875,2.286,2.286,0,0,1,.378,1.3h-1.92a.966.966,0,0,0-.3-.757,1.167,1.167,0,0,0-.809-.269,1.313,1.313,0,0,0-.814.228.7.7,0,0,0-.3.578.7.7,0,0,0,.329.557,4.141,4.141,0,0,0,1.157.516,7.106,7.106,0,0,1,1.361.573,2.287,2.287,0,0,1,1.295,2.057,1.95,1.95,0,0,1-.79,1.646,3.515,3.515,0,0,1-2.167.6,4.3,4.3,0,0,1-1.758-.349,2.652,2.652,0,0,1-1.185-.954,2.49,2.49,0,0,1-.4-1.4h1.931a1.226,1.226,0,0,0,.332.946,1.57,1.57,0,0,0,1.078.3,1.241,1.241,0,0,0,.754-.206A.68.68,0,0,0-974.313,1189.014Z" transform="translate(992.63 -1183.04)"/>
          <path id="Trazado_192383" data-name="Trazado 192383" d="M-955.357,1187.308a4.72,4.72,0,0,1-.368,1.934,3.369,3.369,0,0,1-1.015,1.325l1.289,1.02-1.19,1.009-1.717-1.382a3.62,3.62,0,0,1-.483.033,3.46,3.46,0,0,1-1.81-.472,3.206,3.206,0,0,1-1.231-1.35,4.577,4.577,0,0,1-.458-2.018v-.423a4.721,4.721,0,0,1,.431-2.073,3.206,3.206,0,0,1,1.229-1.383,3.433,3.433,0,0,1,1.829-.488,3.421,3.421,0,0,1,1.81.483,3.255,3.255,0,0,1,1.237,1.374,4.6,4.6,0,0,1,.447,2.043Zm-1.958-.335a3.36,3.36,0,0,0-.4-1.808,1.276,1.276,0,0,0-1.138-.617,1.267,1.267,0,0,0-1.147.609,3.408,3.408,0,0,0-.39,1.783v.368a3.449,3.449,0,0,0,.39,1.807,1.275,1.275,0,0,0,1.157.629,1.257,1.257,0,0,0,1.128-.62,3.38,3.38,0,0,0,.4-1.783Z" transform="translate(983.362 -1183.04)"/>
          <path id="Trazado_192384" data-name="Trazado 192384" d="M-942.019,1189.8h3.352v1.481h-5.277v-7.987h1.925Z" transform="translate(972.931 -1183.184)"/>
        </g>
      </g>
    </g>
  </g>
</svg>
