<svg xmlns="http://www.w3.org/2000/svg" width="820" height="505" viewBox="0 0 820 505">
  <g id="_26" data-name="26" transform="translate(-390 -9181)">
    <path id="Trazado_195222" data-name="Trazado 195222" d="M0,0H820V505H0Z" transform="translate(390 9181)" fill="none"/>
    <path id="Trazado_195223" data-name="Trazado 195223" d="M53.638,0c29.624,0,53.638,9.911,53.638,22.136S83.262,44.273,53.638,44.273,0,34.362,0,22.136,24.015,0,53.638,0Z" transform="translate(431 9501.931)" fill="#b9daf4"/>
    <path id="Trazado_195224" data-name="Trazado 195224" d="M0,104.728V0" transform="translate(962.665 9398.702)" fill="none" stroke="#b9daf4" stroke-width="2.698"/>
    <path id="Trazado_195225" data-name="Trazado 195225" d="M0,.286,62.626,0" transform="translate(1005.941 9452.5)" fill="none" stroke="#b9daf4" stroke-width="2.698"/>
    <path id="Trazado_195226" data-name="Trazado 195226" d="M0,0V435.168" transform="translate(808.703 9215.638)" fill="none" stroke="#b9daf4" stroke-width="2.424"/>
    <path id="Trazado_195227" data-name="Trazado 195227" d="M3,0H77a3,3,0,0,1,3,3V41.07a3,3,0,0,1-3,3H3a3,3,0,0,1-3-3V3A3,3,0,0,1,3,0Z" transform="translate(768.701 9316.145)" fill="#b9daf4"/>
    <path id="Trazado_195228" data-name="Trazado 195228" d="M3,0H77a3,3,0,0,1,3,3V41.07a3,3,0,0,1-3,3H3a3,3,0,0,1-3-3V3A3,3,0,0,1,3,0Z" transform="translate(769.067 9522.448)" fill="#b9daf4"/>
    <path id="Trazado_195229" data-name="Trazado 195229" d="M3,0H103.494a3,3,0,0,1,3,3V39.915a3,3,0,0,1-3,3H3a3,3,0,0,1-3-3V3A3,3,0,0,1,3,0Z" transform="translate(499.986 9431.328)" fill="#b9daf4"/>
    <path id="Trazado_195230" data-name="Trazado 195230" d="M3,0H103.6a3,3,0,0,1,3,3V37.866a3,3,0,0,1-3,3H3a3,3,0,0,1-3-3V3A3,3,0,0,1,3,0Z" transform="translate(906.067 9428.554)" fill="#b9daf4"/>
    <path id="Trazado_193975" data-name="Trazado 193975" d="M325.294,316.139l-71.945-44.951L325.294,228l71.945,43.188Z" transform="translate(483.719 9180.717)" fill="#b9daf4"/>
    <path id="Trazado_193976" data-name="Trazado 193976" d="M437.238,360.206,383.05,326.35l54.188-32.528,54.188,32.528Z" transform="translate(525.017 9201.941)" fill="#b9daf4"/>
    <path id="Trazado_195231" data-name="Trazado 195231" d="M50.22,0c27.736,0,50.22,8.994,50.22,20.088S77.956,40.176,50.22,40.176,0,31.182,0,20.088,22.484,0,50.22,0Z" transform="translate(912.068 9362.598)" fill="#b9daf4"/>
    <path id="Trazado_195232" data-name="Trazado 195232" d="M51.576,0c28.485,0,51.576,11.354,51.576,25.359S80.061,50.719,51.576,50.719,0,39.365,0,25.359,23.091,0,51.576,0Z" transform="translate(1066.068 9427.427)" fill="#b9daf4"/>
    <path id="Trazado_195233" data-name="Trazado 195233" d="M100.021,0c55.24,0,100.021,10.037,100.021,22.418S155.261,44.837,100.021,44.837,0,34.8,0,22.418,44.781,0,100.021,0Z" transform="translate(548.507 9247.203)" fill="#b9daf4"/>
    <path id="Trazado_195234" data-name="Trazado 195234" d="M86.174,0c47.593,0,86.174,8.648,86.174,19.315S133.767,38.63,86.174,38.63,0,29.982,0,19.315,38.582,0,86.174,0Z" transform="translate(858.081 9253.41)" fill="#b9daf4"/>
    <path id="Trazado_195235" data-name="Trazado 195235" d="M52.508,0c29,0,52.508,9.7,52.508,21.67S81.508,43.34,52.508,43.34,0,33.638,0,21.67,23.509,0,52.508,0Z" transform="translate(563.834 9602.391)" fill="#b9daf4"/>
    <path id="Trazado_195236" data-name="Trazado 195236" d="M101.914,0C158.2,0,203.829,10.607,203.829,23.692S158.2,47.385,101.914,47.385,0,36.777,0,23.692,45.629,0,101.914,0Z" transform="translate(904.027 9600.697)" fill="#b9daf4"/>
    <path id="Trazado_195237" data-name="Trazado 195237" d="M57.194,0c31.587,0,57.194,10.4,57.194,23.235S88.782,46.47,57.194,46.47,0,36.068,0,23.235,25.607,0,57.194,0Z" transform="translate(751.509 9639.275)" fill="#b9daf4"/>
    <path id="Trazado_195238" data-name="Trazado 195238" d="M51.9,0c28.664,0,51.9,9.44,51.9,21.085S80.566,42.17,51.9,42.17,0,32.73,0,21.085,23.237,0,51.9,0Z" transform="translate(756.802 9181.254)" fill="#b9daf4"/>
    <path id="Trazado_195239" data-name="Trazado 195239" d="M-21.946-1.872A1.666,1.666,0,0,0-20.8-2.259a1.355,1.355,0,0,0,.457-1.028h2.382a3.258,3.258,0,0,1-.527,1.771A3.48,3.48,0,0,1-19.912-.268,4.442,4.442,0,0,1-21.9.176a4.129,4.129,0,0,1-3.217-1.3A5.13,5.13,0,0,1-26.3-4.7v-.167a5.071,5.071,0,0,1,1.169-3.507,4.08,4.08,0,0,1,3.208-1.31A4,4,0,0,1-19.059-8.67a3.594,3.594,0,0,1,1.094,2.7h-2.382A1.745,1.745,0,0,0-20.8-7.174a1.524,1.524,0,0,0-1.16-.464,1.53,1.53,0,0,0-1.34.647,3.749,3.749,0,0,0-.453,2.1v.264a3.8,3.8,0,0,0,.448,2.113A1.549,1.549,0,0,0-21.946-1.872ZM-12.138.176a4.668,4.668,0,0,1-3.406-1.283,4.561,4.561,0,0,1-1.314-3.419v-.246A5.745,5.745,0,0,1-16.3-7.334a4.064,4.064,0,0,1,1.569-1.74,4.4,4.4,0,0,1,2.316-.611,3.947,3.947,0,0,1,3.072,1.23A5,5,0,0,1-8.227-4.966v1.037h-6.056a2.36,2.36,0,0,0,.743,1.494,2.245,2.245,0,0,0,1.569.563A2.742,2.742,0,0,0-9.677-2.936l1.248,1.4A3.813,3.813,0,0,1-9.976-.277,5.075,5.075,0,0,1-12.138.176Zm-.29-7.813a1.587,1.587,0,0,0-1.226.512,2.651,2.651,0,0,0-.6,1.466h3.533v-.2a1.891,1.891,0,0,0-.457-1.311A1.638,1.638,0,0,0-12.428-7.638Zm5.247,2.813a5.731,5.731,0,0,1,1-3.542A3.237,3.237,0,0,1-3.454-9.686,2.913,2.913,0,0,1-1.16-8.648V-13.5H1.389V0H-.905l-.123-1.011A2.989,2.989,0,0,1-3.472.176,3.228,3.228,0,0,1-6.166-1.147,5.916,5.916,0,0,1-7.181-4.825Zm2.54.189a3.754,3.754,0,0,0,.466,2.051,1.517,1.517,0,0,0,1.354.713A1.7,1.7,0,0,0-1.16-2.867V-6.625A1.675,1.675,0,0,0-2.8-7.62Q-4.641-7.62-4.641-4.636ZM9.053-.967A3.185,3.185,0,0,1,6.451.176,3,3,0,0,1,4.118-.7,3.752,3.752,0,0,1,3.3-3.278V-9.51h2.54v6.151q0,1.487,1.354,1.487a1.834,1.834,0,0,0,1.775-.9V-9.51h2.549V0H9.123ZM16.11,0H13.562V-13.5H16.11Zm7.6,0a2.821,2.821,0,0,1-.255-.853,3.073,3.073,0,0,1-2.4,1.028,3.376,3.376,0,0,1-2.316-.809,2.6,2.6,0,0,1-.918-2.039,2.687,2.687,0,0,1,1.121-2.32,5.529,5.529,0,0,1,3.239-.817h1.169v-.545a1.567,1.567,0,0,0-.338-1.055,1.331,1.331,0,0,0-1.068-.4A1.513,1.513,0,0,0,20.94-7.5a1.045,1.045,0,0,0-.365.844h-2.54a2.551,2.551,0,0,1,.51-1.529,3.37,3.37,0,0,1,1.441-1.1,5.253,5.253,0,0,1,2.092-.4,4.15,4.15,0,0,1,2.791.883A3.09,3.09,0,0,1,25.9-6.319V-2.2a4.546,4.546,0,0,0,.378,2.048V0Zm-2.1-1.767a2.188,2.188,0,0,0,1.037-.25,1.645,1.645,0,0,0,.7-.672V-4.324H22.4q-1.907,0-2.03,1.318l-.009.149a1.017,1.017,0,0,0,.334.782A1.3,1.3,0,0,0,21.612-1.767Z" transform="translate(803.963 9204.366)"/>
    <path id="Trazado_195240" data-name="Trazado 195240" d="M-41.673-3.173l2.9-9.624h2.936L-40.293,0h-2.751l-4.438-12.8h2.927ZM-29.694,0a2.821,2.821,0,0,1-.255-.853,3.073,3.073,0,0,1-2.4,1.028,3.376,3.376,0,0,1-2.316-.809,2.6,2.6,0,0,1-.918-2.039,2.687,2.687,0,0,1,1.121-2.32,5.529,5.529,0,0,1,3.239-.817h1.169v-.545a1.567,1.567,0,0,0-.338-1.055,1.331,1.331,0,0,0-1.068-.4,1.513,1.513,0,0,0-1.006.308,1.045,1.045,0,0,0-.365.844h-2.54a2.551,2.551,0,0,1,.51-1.529,3.37,3.37,0,0,1,1.441-1.1,5.253,5.253,0,0,1,2.092-.4,4.15,4.15,0,0,1,2.791.883,3.09,3.09,0,0,1,1.033,2.483V-2.2a4.546,4.546,0,0,0,.378,2.048V0Zm-2.1-1.767a2.188,2.188,0,0,0,1.037-.25,1.645,1.645,0,0,0,.7-.672V-4.324H-31q-1.907,0-2.03,1.318l-.009.149a1.017,1.017,0,0,0,.334.782A1.3,1.3,0,0,0-31.794-1.767ZM-22.874,0h-2.549V-13.5h2.549Zm1.7-4.843a5.64,5.64,0,0,1,.545-2.522,3.989,3.989,0,0,1,1.569-1.714,4.577,4.577,0,0,1,2.377-.606,4.33,4.33,0,0,1,3.142,1.178,4.727,4.727,0,0,1,1.358,3.2l.018.65A4.97,4.97,0,0,1-13.39-1.147,4.247,4.247,0,0,1-16.668.176a4.268,4.268,0,0,1-3.283-1.318,5.058,5.058,0,0,1-1.226-3.586Zm2.54.18a3.555,3.555,0,0,0,.51,2.073,1.682,1.682,0,0,0,1.459.717,1.686,1.686,0,0,0,1.441-.709,3.89,3.89,0,0,0,.519-2.267,3.519,3.519,0,0,0-.519-2.06,1.686,1.686,0,0,0-1.459-.731,1.658,1.658,0,0,0-1.441.726A3.955,3.955,0,0,0-18.637-4.662ZM-5.26-7.128a6.9,6.9,0,0,0-.914-.07,1.86,1.86,0,0,0-1.89.976V0H-10.6V-9.51h2.4l.07,1.134a2.354,2.354,0,0,1,2.118-1.31,2.662,2.662,0,0,1,.791.114ZM3,1.986H-5.005V0H3ZM7.554-3.1,9.321-9.51h2.654L8.767,0H6.341L3.133-9.51H5.788Zm9.8,3.278a4.668,4.668,0,0,1-3.406-1.283,4.561,4.561,0,0,1-1.314-3.419v-.246a5.745,5.745,0,0,1,.554-2.562,4.064,4.064,0,0,1,1.569-1.74,4.4,4.4,0,0,1,2.316-.611,3.947,3.947,0,0,1,3.072,1.23,5,5,0,0,1,1.121,3.489v1.037H15.209a2.36,2.36,0,0,0,.743,1.494,2.245,2.245,0,0,0,1.569.563,2.742,2.742,0,0,0,2.294-1.063l1.248,1.4A3.813,3.813,0,0,1,19.516-.277,5.075,5.075,0,0,1,17.354.176Zm-.29-7.813a1.587,1.587,0,0,0-1.226.512,2.651,2.651,0,0,0-.6,1.466h3.533v-.2a1.891,1.891,0,0,0-.457-1.311A1.638,1.638,0,0,0,17.064-7.638Zm7.98-1.872.079,1.1a3.32,3.32,0,0,1,2.733-1.274,2.759,2.759,0,0,1,2.25.888,4.142,4.142,0,0,1,.756,2.654V0h-2.54V-6.082a1.648,1.648,0,0,0-.352-1.173A1.574,1.574,0,0,0,26.8-7.62a1.747,1.747,0,0,0-1.608.914V0h-2.54V-9.51Zm10.784-2.338V-9.51h1.626v1.863H35.829V-2.9a1.133,1.133,0,0,0,.2.756,1.015,1.015,0,0,0,.773.229,4.051,4.051,0,0,0,.747-.062V-.053a5.229,5.229,0,0,1-1.538.229,2.425,2.425,0,0,1-2.725-2.7V-7.646H31.9V-9.51h1.389v-2.338ZM44.38,0a2.821,2.821,0,0,1-.255-.853,3.073,3.073,0,0,1-2.4,1.028A3.376,3.376,0,0,1,39.41-.633a2.6,2.6,0,0,1-.918-2.039,2.687,2.687,0,0,1,1.121-2.32,5.529,5.529,0,0,1,3.239-.817H44.02v-.545a1.567,1.567,0,0,0-.338-1.055,1.331,1.331,0,0,0-1.068-.4,1.513,1.513,0,0,0-1.006.308,1.045,1.045,0,0,0-.365.844H38.7a2.551,2.551,0,0,1,.51-1.529,3.37,3.37,0,0,1,1.441-1.1,5.253,5.253,0,0,1,2.092-.4,4.15,4.15,0,0,1,2.791.883,3.09,3.09,0,0,1,1.033,2.483V-2.2a4.546,4.546,0,0,0,.378,2.048V0Zm-2.1-1.767a2.188,2.188,0,0,0,1.037-.25,1.645,1.645,0,0,0,.7-.672V-4.324h-.949q-1.907,0-2.03,1.318l-.009.149a1.017,1.017,0,0,0,.334.782A1.3,1.3,0,0,0,42.28-1.767Z" transform="translate(937.259 9274.209)"/>
    <path id="Trazado_195241" data-name="Trazado 195241" d="M-33.1-3.173l2.9-9.624h2.936L-31.724,0h-2.751l-4.438-12.8h2.927ZM-22.241.176a4.668,4.668,0,0,1-3.406-1.283A4.561,4.561,0,0,1-26.96-4.526v-.246a5.745,5.745,0,0,1,.554-2.562,4.064,4.064,0,0,1,1.569-1.74,4.4,4.4,0,0,1,2.316-.611,3.947,3.947,0,0,1,3.072,1.23A5,5,0,0,1-18.33-4.966v1.037h-6.056a2.36,2.36,0,0,0,.743,1.494,2.245,2.245,0,0,0,1.569.563A2.742,2.742,0,0,0-19.78-2.936l1.248,1.4A3.813,3.813,0,0,1-20.079-.277,5.075,5.075,0,0,1-22.241.176Zm-.29-7.813a1.587,1.587,0,0,0-1.226.512,2.651,2.651,0,0,0-.6,1.466h3.533v-.2a1.891,1.891,0,0,0-.457-1.311A1.638,1.638,0,0,0-22.531-7.638Zm7.98-1.872.079,1.1a3.32,3.32,0,0,1,2.733-1.274,2.759,2.759,0,0,1,2.25.888,4.142,4.142,0,0,1,.756,2.654V0h-2.54V-6.082a1.648,1.648,0,0,0-.352-1.173,1.574,1.574,0,0,0-1.169-.365,1.747,1.747,0,0,0-1.608.914V0h-2.54V-9.51ZM-7.2-4.825a5.731,5.731,0,0,1,1-3.542A3.237,3.237,0,0,1-3.476-9.686,2.913,2.913,0,0,1-1.182-8.648V-13.5H1.367V0H-.927L-1.05-1.011A2.989,2.989,0,0,1-3.494.176,3.228,3.228,0,0,1-6.187-1.147,5.916,5.916,0,0,1-7.2-4.825Zm2.54.189A3.754,3.754,0,0,0-4.2-2.585a1.517,1.517,0,0,0,1.354.713,1.7,1.7,0,0,0,1.661-.995V-6.625A1.675,1.675,0,0,0-2.826-7.62Q-4.663-7.62-4.663-4.636ZM7.712.176A4.668,4.668,0,0,1,4.307-1.107,4.561,4.561,0,0,1,2.993-4.526v-.246a5.745,5.745,0,0,1,.554-2.562,4.064,4.064,0,0,1,1.569-1.74,4.4,4.4,0,0,1,2.316-.611A3.947,3.947,0,0,1,10.5-8.455a5,5,0,0,1,1.121,3.489v1.037H5.568a2.36,2.36,0,0,0,.743,1.494,2.245,2.245,0,0,0,1.569.563,2.742,2.742,0,0,0,2.294-1.063l1.248,1.4A3.813,3.813,0,0,1,9.875-.277,5.075,5.075,0,0,1,7.712.176Zm-.29-7.813A1.587,1.587,0,0,0,6.2-7.126a2.651,2.651,0,0,0-.6,1.466H9.127v-.2A1.891,1.891,0,0,0,8.67-7.174,1.638,1.638,0,0,0,7.422-7.638Zm5.247,2.813a5.731,5.731,0,0,1,1-3.542A3.237,3.237,0,0,1,16.4-9.686,2.913,2.913,0,0,1,18.69-8.648V-13.5h2.549V0H18.945l-.123-1.011A2.989,2.989,0,0,1,16.378.176a3.228,3.228,0,0,1-2.694-1.323A5.916,5.916,0,0,1,12.669-4.825Zm2.54.189a3.754,3.754,0,0,0,.466,2.051,1.517,1.517,0,0,0,1.354.713,1.7,1.7,0,0,0,1.661-.995V-6.625a1.675,1.675,0,0,0-1.644-.995Q15.209-7.62,15.209-4.636Zm7.6-.207a5.64,5.64,0,0,1,.545-2.522,3.989,3.989,0,0,1,1.569-1.714A4.577,4.577,0,0,1,27.3-9.686a4.33,4.33,0,0,1,3.142,1.178,4.727,4.727,0,0,1,1.358,3.2l.018.65A4.97,4.97,0,0,1,30.6-1.147,4.247,4.247,0,0,1,27.321.176a4.268,4.268,0,0,1-3.283-1.318,5.058,5.058,0,0,1-1.226-3.586Zm2.54.18a3.555,3.555,0,0,0,.51,2.073,1.682,1.682,0,0,0,1.459.717,1.686,1.686,0,0,0,1.441-.709,3.89,3.89,0,0,0,.519-2.267,3.519,3.519,0,0,0-.519-2.06A1.686,1.686,0,0,0,27.3-7.638a1.658,1.658,0,0,0-1.441.726A3.955,3.955,0,0,0,25.352-4.662ZM38.729-7.128a6.9,6.9,0,0,0-.914-.07,1.86,1.86,0,0,0-1.89.976V0h-2.54V-9.51h2.4l.07,1.134a2.354,2.354,0,0,1,2.118-1.31,2.662,2.662,0,0,1,.791.114Z" transform="translate(544.217 9455.398)"/>
    <g id="Grupo_130955" data-name="Grupo 130955" transform="translate(456 9510.807)">
      <text id="Código" transform="translate(29 17)" font-size="18" font-family="Roboto-Bold, Roboto" font-weight="700"><tspan x="-28.661" y="0">Código</tspan></text>
    </g>
    <g id="Grupo_130956" data-name="Grupo 130956" transform="translate(609.183 9501.931)">
      <ellipse id="Elipse_5230" data-name="Elipse 5230" cx="53.638" cy="22.136" rx="53.638" ry="22.136" transform="translate(0)" fill="#b9daf4"/>
      <text id="Nombre" transform="translate(47.763 27.003)" font-size="18" font-family="Roboto-Bold, Roboto" font-weight="700"><tspan x="-32.366" y="0">Nombre</tspan></text>
    </g>
    <path id="Trazado_195242" data-name="Trazado 195242" d="M-33.381,0h-2.637V-12.8h2.637Zm4.614-9.51.079,1.1a3.32,3.32,0,0,1,2.733-1.274A2.759,2.759,0,0,1-23.7-8.8a4.142,4.142,0,0,1,.756,2.654V0h-2.54V-6.082a1.648,1.648,0,0,0-.352-1.173,1.574,1.574,0,0,0-1.169-.365,1.747,1.747,0,0,0-1.608.914V0h-2.54V-9.51Zm11.3,6.407L-15.7-9.51h2.654L-16.251,0h-2.426l-3.208-9.51h2.654Zm5.01-1.74a5.64,5.64,0,0,1,.545-2.522A3.989,3.989,0,0,1-10.34-9.079a4.577,4.577,0,0,1,2.377-.606A4.33,4.33,0,0,1-4.821-8.508a4.727,4.727,0,0,1,1.358,3.2l.018.65A4.97,4.97,0,0,1-4.667-1.147,4.247,4.247,0,0,1-7.945.176a4.268,4.268,0,0,1-3.283-1.318,5.058,5.058,0,0,1-1.226-3.586Zm2.54.18A3.555,3.555,0,0,0-9.4-2.589a1.682,1.682,0,0,0,1.459.717A1.686,1.686,0,0,0-6.5-2.581a3.89,3.89,0,0,0,.519-2.267A3.519,3.519,0,0,0-6.5-6.907a1.686,1.686,0,0,0-1.459-.731A1.658,1.658,0,0,0-9.4-6.911,3.955,3.955,0,0,0-9.914-4.662ZM.8,0H-1.749V-13.5H.8ZM8.587-.967A3.185,3.185,0,0,1,5.985.176,3,3,0,0,1,3.652-.7,3.752,3.752,0,0,1,2.83-3.278V-9.51H5.37v6.151q0,1.487,1.354,1.487A1.834,1.834,0,0,0,8.5-2.77V-9.51h2.549V0H8.657Zm8.332-.905a1.666,1.666,0,0,0,1.143-.387,1.355,1.355,0,0,0,.457-1.028H20.9a3.258,3.258,0,0,1-.527,1.771A3.48,3.48,0,0,1,18.954-.268a4.442,4.442,0,0,1-1.991.444,4.129,4.129,0,0,1-3.217-1.3A5.13,5.13,0,0,1,12.568-4.7v-.167a5.071,5.071,0,0,1,1.169-3.507,4.08,4.08,0,0,1,3.208-1.31A4,4,0,0,1,19.806-8.67a3.594,3.594,0,0,1,1.094,2.7H18.519a1.745,1.745,0,0,0-.457-1.206,1.524,1.524,0,0,0-1.16-.464,1.53,1.53,0,0,0-1.34.647,3.749,3.749,0,0,0-.453,2.1v.264a3.8,3.8,0,0,0,.448,2.113A1.549,1.549,0,0,0,16.919-1.872ZM27.694-7.128a6.9,6.9,0,0,0-.914-.07,1.86,1.86,0,0,0-1.89.976V0h-2.54V-9.51h2.4l.07,1.134a2.354,2.354,0,0,1,2.118-1.31,2.662,2.662,0,0,1,.791.114ZM34.163,0a2.821,2.821,0,0,1-.255-.853,3.073,3.073,0,0,1-2.4,1.028,3.376,3.376,0,0,1-2.316-.809,2.6,2.6,0,0,1-.918-2.039A2.687,2.687,0,0,1,29.4-4.992a5.529,5.529,0,0,1,3.239-.817H33.8v-.545a1.567,1.567,0,0,0-.338-1.055A1.331,1.331,0,0,0,32.4-7.8,1.513,1.513,0,0,0,31.39-7.5a1.045,1.045,0,0,0-.365.844h-2.54A2.551,2.551,0,0,1,29-8.183a3.37,3.37,0,0,1,1.441-1.1,5.253,5.253,0,0,1,2.092-.4,4.15,4.15,0,0,1,2.791.883,3.09,3.09,0,0,1,1.033,2.483V-2.2a4.546,4.546,0,0,0,.378,2.048V0Zm-2.1-1.767a2.188,2.188,0,0,0,1.037-.25,1.645,1.645,0,0,0,.7-.672V-4.324h-.949q-1.907,0-2.03,1.318l-.009.149a1.017,1.017,0,0,0,.334.782A1.3,1.3,0,0,0,32.063-1.767Z" transform="translate(809.067 9455.271)"/>
    <path id="Trazado_195243" data-name="Trazado 195243" d="M-27.29-2.637h-4.623L-32.792,0h-2.8l4.764-12.8h2.443L-23.6,0h-2.8ZM-31.2-4.772H-28l-1.608-4.79ZM-19.89,0h-2.549V-13.5h2.549Zm4.474-9.51.079,1.063A3.342,3.342,0,0,1-12.6-9.686a2.536,2.536,0,0,1,2.522,1.45,3.265,3.265,0,0,1,2.856-1.45,2.836,2.836,0,0,1,2.3.9,4.141,4.141,0,0,1,.756,2.711V0H-6.715V-6.064a1.811,1.811,0,0,0-.316-1.182A1.4,1.4,0,0,0-8.147-7.62,1.585,1.585,0,0,0-9.729-6.53L-9.721,0h-2.54V-6.056a1.789,1.789,0,0,0-.325-1.2,1.416,1.416,0,0,0-1.107-.369,1.646,1.646,0,0,0-1.564.9V0H-17.8V-9.51ZM3.3,0a2.821,2.821,0,0,1-.255-.853A3.073,3.073,0,0,1,.642.176,3.376,3.376,0,0,1-1.674-.633a2.6,2.6,0,0,1-.918-2.039,2.687,2.687,0,0,1,1.121-2.32A5.529,5.529,0,0,1,1.767-5.81H2.936v-.545A1.567,1.567,0,0,0,2.6-7.409a1.331,1.331,0,0,0-1.068-.4A1.513,1.513,0,0,0,.523-7.5a1.045,1.045,0,0,0-.365.844h-2.54a2.551,2.551,0,0,1,.51-1.529,3.37,3.37,0,0,1,1.441-1.1,5.253,5.253,0,0,1,2.092-.4A4.15,4.15,0,0,1,4.452-8.8,3.09,3.09,0,0,1,5.484-6.319V-2.2A4.546,4.546,0,0,0,5.862-.149V0ZM1.2-1.767a2.188,2.188,0,0,0,1.037-.25,1.645,1.645,0,0,0,.7-.672V-4.324H1.986q-1.907,0-2.03,1.318l-.009.149a1.017,1.017,0,0,0,.334.782A1.3,1.3,0,0,0,1.2-1.767Zm10.2-.105a1.666,1.666,0,0,0,1.143-.387,1.355,1.355,0,0,0,.457-1.028h2.382a3.258,3.258,0,0,1-.527,1.771A3.48,3.48,0,0,1,13.425-.268a4.442,4.442,0,0,1-1.991.444,4.129,4.129,0,0,1-3.217-1.3A5.13,5.13,0,0,1,7.04-4.7v-.167A5.071,5.071,0,0,1,8.209-8.376a4.08,4.08,0,0,1,3.208-1.31A4,4,0,0,1,14.278-8.67a3.594,3.594,0,0,1,1.094,2.7H12.99a1.745,1.745,0,0,0-.457-1.206,1.524,1.524,0,0,0-1.16-.464,1.53,1.53,0,0,0-1.34.647,3.749,3.749,0,0,0-.453,2.1v.264a3.8,3.8,0,0,0,.448,2.113A1.549,1.549,0,0,0,11.391-1.872ZM21.2.176a4.668,4.668,0,0,1-3.406-1.283,4.561,4.561,0,0,1-1.314-3.419v-.246a5.745,5.745,0,0,1,.554-2.562A4.064,4.064,0,0,1,18.6-9.075a4.4,4.4,0,0,1,2.316-.611,3.947,3.947,0,0,1,3.072,1.23A5,5,0,0,1,25.11-4.966v1.037H19.055A2.36,2.36,0,0,0,19.8-2.435a2.245,2.245,0,0,0,1.569.563A2.742,2.742,0,0,0,23.66-2.936l1.248,1.4A3.813,3.813,0,0,1,23.361-.277,5.075,5.075,0,0,1,21.2.176Zm-.29-7.813a1.587,1.587,0,0,0-1.226.512,2.651,2.651,0,0,0-.6,1.466h3.533v-.2a1.891,1.891,0,0,0-.457-1.311A1.638,1.638,0,0,0,20.909-7.638Zm.229-5.862h2.769l-2.435,2.725H19.406ZM28.89-9.51l.079,1.1A3.32,3.32,0,0,1,31.7-9.686a2.759,2.759,0,0,1,2.25.888,4.142,4.142,0,0,1,.756,2.654V0h-2.54V-6.082a1.648,1.648,0,0,0-.352-1.173,1.574,1.574,0,0,0-1.169-.365,1.747,1.747,0,0,0-1.608.914V0H26.5V-9.51Z" transform="translate(959.068 9454.271)"/>
    <path id="Trazado_195244" data-name="Trazado 195244" d="M-17.473-4.263A4.528,4.528,0,0,1-19-1.011,5.355,5.355,0,0,1-22.623.176a4.816,4.816,0,0,1-3.872-1.657,6.793,6.793,0,0,1-1.411-4.548v-.782a7.671,7.671,0,0,1,.65-3.252A4.874,4.874,0,0,1-25.4-12.221a5.207,5.207,0,0,1,2.808-.751,5.217,5.217,0,0,1,3.568,1.187,4.866,4.866,0,0,1,1.564,3.331h-2.637a2.673,2.673,0,0,0-.69-1.8,2.555,2.555,0,0,0-1.806-.558,2.24,2.24,0,0,0-1.973.945,5.3,5.3,0,0,0-.672,2.931v.967A5.667,5.667,0,0,0-24.6-2.936a2.2,2.2,0,0,0,1.982.958A2.6,2.6,0,0,0-20.8-2.536a2.521,2.521,0,0,0,.69-1.727Zm1.169-.58a5.64,5.64,0,0,1,.545-2.522A3.989,3.989,0,0,1-14.19-9.079a4.577,4.577,0,0,1,2.377-.606A4.33,4.33,0,0,1-8.67-8.508a4.727,4.727,0,0,1,1.358,3.2l.018.65A4.97,4.97,0,0,1-8.517-1.147,4.247,4.247,0,0,1-11.795.176a4.268,4.268,0,0,1-3.283-1.318A5.058,5.058,0,0,1-16.3-4.729Zm2.54.18a3.555,3.555,0,0,0,.51,2.073,1.682,1.682,0,0,0,1.459.717,1.686,1.686,0,0,0,1.441-.709,3.89,3.89,0,0,0,.519-2.267,3.519,3.519,0,0,0-.519-2.06,1.686,1.686,0,0,0-1.459-.731,1.658,1.658,0,0,0-1.441.726A3.955,3.955,0,0,0-13.764-4.662Zm2.452-8.838h2.769l-2.435,2.725h-2.065Zm5.186,8.675a5.731,5.731,0,0,1,1-3.542A3.237,3.237,0,0,1-2.4-9.686,2.913,2.913,0,0,1-.105-8.648V-13.5H2.443V0H.149L.026-1.011A2.989,2.989,0,0,1-2.417.176,3.228,3.228,0,0,1-5.111-1.147,5.916,5.916,0,0,1-6.126-4.825Zm2.54.189A3.754,3.754,0,0,0-3.12-2.585a1.517,1.517,0,0,0,1.354.713A1.7,1.7,0,0,0-.105-2.867V-6.625A1.675,1.675,0,0,0-1.749-7.62Q-3.586-7.62-3.586-4.636ZM7.093,0H4.544V-9.51H7.093Zm-2.7-11.971a1.251,1.251,0,0,1,.382-.94,1.436,1.436,0,0,1,1.042-.369,1.44,1.44,0,0,1,1.037.369,1.244,1.244,0,0,1,.387.94,1.247,1.247,0,0,1-.391.949,1.443,1.443,0,0,1-1.033.369,1.443,1.443,0,0,1-1.033-.369A1.247,1.247,0,0,1,4.395-11.971ZM8.815-4.825A5.573,5.573,0,0,1,9.857-8.35a3.375,3.375,0,0,1,2.808-1.336A2.96,2.96,0,0,1,15.1-8.613l.105-.9h2.3V-.316a4.064,4.064,0,0,1-.567,2.171,3.641,3.641,0,0,1-1.6,1.406,5.608,5.608,0,0,1-2.408.483A5.215,5.215,0,0,1,10.9,3.327,3.619,3.619,0,0,1,9.4,2.25L10.521.7a2.975,2.975,0,0,0,2.3,1.063A2.178,2.178,0,0,0,14.4,1.226a2.027,2.027,0,0,0,.563-1.534v-.51a2.938,2.938,0,0,1-2.312.993,3.366,3.366,0,0,1-2.773-1.34A5.572,5.572,0,0,1,8.815-4.72Zm2.54.189a3.47,3.47,0,0,0,.519,2.029,1.65,1.65,0,0,0,1.424.735,1.764,1.764,0,0,0,1.661-.871V-6.749a1.76,1.76,0,0,0-1.644-.871,1.66,1.66,0,0,0-1.437.748A3.911,3.911,0,0,0,11.355-4.636Zm7.708-.207a5.64,5.64,0,0,1,.545-2.522,3.989,3.989,0,0,1,1.569-1.714,4.577,4.577,0,0,1,2.377-.606A4.33,4.33,0,0,1,26.7-8.508a4.727,4.727,0,0,1,1.358,3.2l.018.65a4.97,4.97,0,0,1-1.222,3.511A4.247,4.247,0,0,1,23.572.176,4.268,4.268,0,0,1,20.29-1.143a5.058,5.058,0,0,1-1.226-3.586Zm2.54.18a3.555,3.555,0,0,0,.51,2.073,1.682,1.682,0,0,0,1.459.717,1.686,1.686,0,0,0,1.441-.709,3.89,3.89,0,0,0,.519-2.267,3.519,3.519,0,0,0-.519-2.06,1.686,1.686,0,0,0-1.459-.731,1.658,1.658,0,0,0-1.441.726A3.955,3.955,0,0,0,21.6-4.662Z" transform="translate(962.068 9386.94)"/>
    <path id="Trazado_195245" data-name="Trazado 195245" d="M-29.276-12.8v8.429A4.315,4.315,0,0,1-30.59-1.046,5.066,5.066,0,0,1-34.181.176a5.123,5.123,0,0,1-3.56-1.187,4.242,4.242,0,0,1-1.345-3.261V-12.8h2.637v8.446a2.438,2.438,0,0,0,.6,1.833,2.311,2.311,0,0,0,1.666.576q2.224,0,2.259-2.338V-12.8Zm10.564,8.13A5.758,5.758,0,0,1-19.687-1.1,3.231,3.231,0,0,1-22.412.176a2.969,2.969,0,0,1-2.47-1.187L-25,0h-2.285V-13.5h2.54v4.843A2.893,2.893,0,0,1-22.43-9.686,3.258,3.258,0,0,1-19.7-8.407a5.767,5.767,0,0,1,.989,3.6Zm-2.54-.185a3.783,3.783,0,0,0-.457-2.1,1.545,1.545,0,0,0-1.362-.664,1.676,1.676,0,0,0-1.67.993v3.753a1.7,1.7,0,0,0,1.688,1,1.568,1.568,0,0,0,1.617-1.213A6.257,6.257,0,0,0-21.252-4.852ZM-14.467,0h-2.549V-9.51h2.549Zm-2.7-11.971a1.251,1.251,0,0,1,.382-.94,1.436,1.436,0,0,1,1.042-.369,1.44,1.44,0,0,1,1.037.369,1.244,1.244,0,0,1,.387.94,1.247,1.247,0,0,1-.391.949,1.443,1.443,0,0,1-1.033.369,1.443,1.443,0,0,1-1.033-.369A1.247,1.247,0,0,1-17.165-11.971Zm8.745,10.1a1.666,1.666,0,0,0,1.143-.387A1.355,1.355,0,0,0-6.82-3.287h2.382a3.258,3.258,0,0,1-.527,1.771A3.48,3.48,0,0,1-6.385-.268,4.442,4.442,0,0,1-8.376.176a4.129,4.129,0,0,1-3.217-1.3A5.13,5.13,0,0,1-12.771-4.7v-.167A5.071,5.071,0,0,1-11.6-8.376a4.08,4.08,0,0,1,3.208-1.31A4,4,0,0,1-5.533-8.67a3.594,3.594,0,0,1,1.094,2.7H-6.82a1.745,1.745,0,0,0-.457-1.206,1.524,1.524,0,0,0-1.16-.464,1.53,1.53,0,0,0-1.34.647,3.749,3.749,0,0,0-.453,2.1v.264a3.8,3.8,0,0,0,.448,2.113A1.549,1.549,0,0,0-8.42-1.872ZM2.522,0a2.821,2.821,0,0,1-.255-.853A3.073,3.073,0,0,1-.132.176,3.376,3.376,0,0,1-2.448-.633a2.6,2.6,0,0,1-.918-2.039,2.687,2.687,0,0,1,1.121-2.32A5.529,5.529,0,0,1,.993-5.81H2.162v-.545a1.567,1.567,0,0,0-.338-1.055A1.331,1.331,0,0,0,.756-7.8,1.513,1.513,0,0,0-.25-7.5a1.045,1.045,0,0,0-.365.844h-2.54a2.551,2.551,0,0,1,.51-1.529A3.37,3.37,0,0,1-1.2-9.286a5.253,5.253,0,0,1,2.092-.4A4.15,4.15,0,0,1,3.678-8.8,3.09,3.09,0,0,1,4.711-6.319V-2.2A4.546,4.546,0,0,0,5.089-.149V0ZM.422-1.767a2.188,2.188,0,0,0,1.037-.25,1.645,1.645,0,0,0,.7-.672V-4.324H1.213q-1.907,0-2.03,1.318l-.009.149a1.017,1.017,0,0,0,.334.782A1.3,1.3,0,0,0,.422-1.767Zm10.2-.105a1.666,1.666,0,0,0,1.143-.387,1.355,1.355,0,0,0,.457-1.028H14.6a3.258,3.258,0,0,1-.527,1.771A3.48,3.48,0,0,1,12.652-.268a4.442,4.442,0,0,1-1.991.444,4.129,4.129,0,0,1-3.217-1.3A5.13,5.13,0,0,1,6.267-4.7v-.167A5.071,5.071,0,0,1,7.436-8.376a4.08,4.08,0,0,1,3.208-1.31A4,4,0,0,1,13.5-8.67a3.594,3.594,0,0,1,1.094,2.7H12.217a1.745,1.745,0,0,0-.457-1.206,1.524,1.524,0,0,0-1.16-.464,1.53,1.53,0,0,0-1.34.647,3.749,3.749,0,0,0-.453,2.1v.264a3.8,3.8,0,0,0,.448,2.113A1.549,1.549,0,0,0,10.617-1.872ZM18.729,0H16.181V-9.51h2.549Zm-2.7-11.971a1.251,1.251,0,0,1,.382-.94,1.436,1.436,0,0,1,1.042-.369,1.44,1.44,0,0,1,1.037.369,1.244,1.244,0,0,1,.387.94,1.247,1.247,0,0,1-.391.949,1.443,1.443,0,0,1-1.033.369,1.443,1.443,0,0,1-1.033-.369A1.247,1.247,0,0,1,16.031-11.971Zm4.395,7.128a5.64,5.64,0,0,1,.545-2.522A3.989,3.989,0,0,1,22.54-9.079a4.577,4.577,0,0,1,2.377-.606,4.33,4.33,0,0,1,3.142,1.178,4.727,4.727,0,0,1,1.358,3.2l.018.65a4.97,4.97,0,0,1-1.222,3.511A4.247,4.247,0,0,1,24.935.176a4.268,4.268,0,0,1-3.283-1.318,5.058,5.058,0,0,1-1.226-3.586Zm2.54.18a3.555,3.555,0,0,0,.51,2.073,1.682,1.682,0,0,0,1.459.717,1.686,1.686,0,0,0,1.441-.709,3.89,3.89,0,0,0,.519-2.267,3.519,3.519,0,0,0-.519-2.06,1.686,1.686,0,0,0-1.459-.731,1.658,1.658,0,0,0-1.441.726A3.955,3.955,0,0,0,22.966-4.662ZM25.418-13.5h2.769l-2.435,2.725H23.687Zm7.919,3.99.079,1.1a3.32,3.32,0,0,1,2.733-1.274A2.759,2.759,0,0,1,38.4-8.8a4.142,4.142,0,0,1,.756,2.654V0h-2.54V-6.082a1.648,1.648,0,0,0-.352-1.173,1.574,1.574,0,0,0-1.169-.365,1.747,1.747,0,0,0-1.608.914V0h-2.54V-9.51Z" transform="translate(1117.067 9458.043)"/>
    <path id="Trazado_195246" data-name="Trazado 195246" d="M-17.284-4.263a4.528,4.528,0,0,1-1.525,3.252A5.355,5.355,0,0,1-22.434.176a4.816,4.816,0,0,1-3.872-1.657,6.793,6.793,0,0,1-1.411-4.548v-.782a7.671,7.671,0,0,1,.65-3.252,4.874,4.874,0,0,1,1.859-2.158,5.207,5.207,0,0,1,2.808-.751,5.217,5.217,0,0,1,3.568,1.187,4.866,4.866,0,0,1,1.564,3.331H-19.9a2.673,2.673,0,0,0-.69-1.8,2.555,2.555,0,0,0-1.806-.558,2.24,2.24,0,0,0-1.973.945,5.3,5.3,0,0,0-.672,2.931v.967a5.667,5.667,0,0,0,.628,3.032,2.2,2.2,0,0,0,1.982.958,2.6,2.6,0,0,0,1.824-.558,2.521,2.521,0,0,0,.69-1.727ZM-13.039,0h-2.549V-13.5h2.549Zm4.772,0h-2.549V-9.51h2.549Zm-2.7-11.971a1.251,1.251,0,0,1,.382-.94,1.436,1.436,0,0,1,1.042-.369,1.44,1.44,0,0,1,1.037.369,1.244,1.244,0,0,1,.387.94,1.247,1.247,0,0,1-.391.949,1.443,1.443,0,0,1-1.033.369,1.443,1.443,0,0,1-1.033-.369A1.247,1.247,0,0,1-10.964-11.971ZM-1.8.176A4.668,4.668,0,0,1-5.2-1.107,4.561,4.561,0,0,1-6.517-4.526v-.246a5.745,5.745,0,0,1,.554-2.562,4.064,4.064,0,0,1,1.569-1.74,4.4,4.4,0,0,1,2.316-.611A3.947,3.947,0,0,1,.993-8.455,5,5,0,0,1,2.114-4.966v1.037H-3.942A2.36,2.36,0,0,0-3.2-2.435a2.245,2.245,0,0,0,1.569.563A2.742,2.742,0,0,0,.664-2.936l1.248,1.4A3.813,3.813,0,0,1,.365-.277,5.075,5.075,0,0,1-1.8.176Zm-.29-7.813a1.587,1.587,0,0,0-1.226.512,2.651,2.651,0,0,0-.6,1.466H-.382v-.2A1.891,1.891,0,0,0-.839-7.174,1.638,1.638,0,0,0-2.087-7.638ZM5.893-9.51l.079,1.1A3.32,3.32,0,0,1,8.706-9.686a2.759,2.759,0,0,1,2.25.888,4.142,4.142,0,0,1,.756,2.654V0H9.171V-6.082A1.648,1.648,0,0,0,8.82-7.255,1.574,1.574,0,0,0,7.651-7.62a1.747,1.747,0,0,0-1.608.914V0H3.5V-9.51Zm10.784-2.338V-9.51H18.3v1.863H16.677V-2.9a1.133,1.133,0,0,0,.2.756,1.015,1.015,0,0,0,.773.229,4.051,4.051,0,0,0,.747-.062V-.053a5.229,5.229,0,0,1-1.538.229,2.425,2.425,0,0,1-2.725-2.7V-7.646H12.749V-9.51h1.389v-2.338ZM24.1.176a4.668,4.668,0,0,1-3.406-1.283,4.561,4.561,0,0,1-1.314-3.419v-.246a5.745,5.745,0,0,1,.554-2.562A4.064,4.064,0,0,1,21.5-9.075a4.4,4.4,0,0,1,2.316-.611,3.947,3.947,0,0,1,3.072,1.23,5,5,0,0,1,1.121,3.489v1.037H21.951a2.36,2.36,0,0,0,.743,1.494,2.245,2.245,0,0,0,1.569.563,2.742,2.742,0,0,0,2.294-1.063l1.248,1.4A3.813,3.813,0,0,1,26.257-.277,5.075,5.075,0,0,1,24.1.176Zm-.29-7.813a1.587,1.587,0,0,0-1.226.512,2.651,2.651,0,0,0-.6,1.466H25.51v-.2a1.891,1.891,0,0,0-.457-1.311A1.638,1.638,0,0,0,23.805-7.638Z" transform="translate(809.068 9548.345)"/>
    <path id="Trazado_195247" data-name="Trazado 195247" d="M-16.884-4.263a4.528,4.528,0,0,1-1.525,3.252A5.355,5.355,0,0,1-22.034.176a4.816,4.816,0,0,1-3.872-1.657,6.793,6.793,0,0,1-1.411-4.548v-.782a7.671,7.671,0,0,1,.65-3.252,4.874,4.874,0,0,1,1.859-2.158A5.207,5.207,0,0,1-22-12.973a5.217,5.217,0,0,1,3.568,1.187,4.866,4.866,0,0,1,1.564,3.331H-19.5a2.673,2.673,0,0,0-.69-1.8A2.555,2.555,0,0,0-22-10.811a2.24,2.24,0,0,0-1.973.945,5.3,5.3,0,0,0-.672,2.931v.967a5.667,5.667,0,0,0,.628,3.032,2.2,2.2,0,0,0,1.982.958,2.6,2.6,0,0,0,1.824-.558,2.521,2.521,0,0,0,.69-1.727ZM-10.942.176a4.668,4.668,0,0,1-3.406-1.283,4.561,4.561,0,0,1-1.314-3.419v-.246a5.745,5.745,0,0,1,.554-2.562,4.064,4.064,0,0,1,1.569-1.74,4.4,4.4,0,0,1,2.316-.611,3.947,3.947,0,0,1,3.072,1.23A5,5,0,0,1-7.031-4.966v1.037h-6.056a2.36,2.36,0,0,0,.743,1.494,2.245,2.245,0,0,0,1.569.563A2.742,2.742,0,0,0-8.481-2.936l1.248,1.4A3.813,3.813,0,0,1-8.78-.277,5.075,5.075,0,0,1-10.942.176Zm-.29-7.813a1.587,1.587,0,0,0-1.226.512,2.651,2.651,0,0,0-.6,1.466h3.533v-.2a1.891,1.891,0,0,0-.457-1.311A1.638,1.638,0,0,0-11.232-7.638Zm5.247,2.813a5.731,5.731,0,0,1,1-3.542A3.237,3.237,0,0,1-2.259-9.686,2.913,2.913,0,0,1,.035-8.648V-13.5H2.584V0H.29L.167-1.011A2.989,2.989,0,0,1-2.276.176,3.228,3.228,0,0,1-4.97-1.147,5.916,5.916,0,0,1-5.985-4.825Zm2.54.189a3.754,3.754,0,0,0,.466,2.051,1.517,1.517,0,0,0,1.354.713A1.7,1.7,0,0,0,.035-2.867V-6.625A1.675,1.675,0,0,0-1.608-7.62Q-3.445-7.62-3.445-4.636ZM10.248-.967A3.185,3.185,0,0,1,7.646.176,3,3,0,0,1,5.313-.7a3.752,3.752,0,0,1-.822-2.575V-9.51h2.54v6.151q0,1.487,1.354,1.487a1.834,1.834,0,0,0,1.775-.9V-9.51h2.549V0H10.318ZM17.306,0H14.757V-13.5h2.549Zm7.6,0a2.821,2.821,0,0,1-.255-.853,3.073,3.073,0,0,1-2.4,1.028,3.376,3.376,0,0,1-2.316-.809,2.6,2.6,0,0,1-.918-2.039,2.687,2.687,0,0,1,1.121-2.32,5.529,5.529,0,0,1,3.239-.817h1.169v-.545a1.567,1.567,0,0,0-.338-1.055,1.331,1.331,0,0,0-1.068-.4,1.513,1.513,0,0,0-1.006.308,1.045,1.045,0,0,0-.365.844H19.23a2.551,2.551,0,0,1,.51-1.529,3.37,3.37,0,0,1,1.441-1.1,5.253,5.253,0,0,1,2.092-.4,4.15,4.15,0,0,1,2.791.883A3.09,3.09,0,0,1,27.1-6.319V-2.2a4.546,4.546,0,0,0,.378,2.048V0Zm-2.1-1.767a2.188,2.188,0,0,0,1.037-.25,1.645,1.645,0,0,0,.7-.672V-4.324H23.6q-1.907,0-2.03,1.318l-.009.149a1.017,1.017,0,0,0,.334.782A1.3,1.3,0,0,0,22.808-1.767Z" transform="translate(609.915 9628.189)"/>
    <path id="Trazado_195248" data-name="Trazado 195248" d="M-20.817,0h-2.637l-5.133-8.42V0h-2.637V-12.8h2.637l5.142,8.438V-12.8h2.628Zm1.74-4.843a5.64,5.64,0,0,1,.545-2.522,3.989,3.989,0,0,1,1.569-1.714,4.577,4.577,0,0,1,2.377-.606,4.33,4.33,0,0,1,3.142,1.178,4.727,4.727,0,0,1,1.358,3.2l.018.65A4.97,4.97,0,0,1-11.29-1.147,4.247,4.247,0,0,1-14.568.176a4.268,4.268,0,0,1-3.283-1.318,5.058,5.058,0,0,1-1.226-3.586Zm2.54.18a3.555,3.555,0,0,0,.51,2.073,1.682,1.682,0,0,0,1.459.717,1.686,1.686,0,0,0,1.441-.709,3.89,3.89,0,0,0,.519-2.267,3.519,3.519,0,0,0-.519-2.06,1.686,1.686,0,0,0-1.459-.731,1.658,1.658,0,0,0-1.441.726A3.955,3.955,0,0,0-16.537-4.662ZM-6.122-9.51l.079,1.063A3.342,3.342,0,0,1-3.309-9.686,2.536,2.536,0,0,1-.787-8.235,3.265,3.265,0,0,1,2.07-9.686a2.836,2.836,0,0,1,2.3.9,4.141,4.141,0,0,1,.756,2.711V0H2.58V-6.064a1.811,1.811,0,0,0-.316-1.182A1.4,1.4,0,0,0,1.147-7.62,1.585,1.585,0,0,0-.435-6.53L-.426,0h-2.54V-6.056a1.789,1.789,0,0,0-.325-1.2A1.416,1.416,0,0,0-4.4-7.62a1.646,1.646,0,0,0-1.564.9V0H-8.5V-9.51ZM15.649-4.667A5.758,5.758,0,0,1,14.673-1.1,3.231,3.231,0,0,1,11.949.176a2.969,2.969,0,0,1-2.47-1.187L9.365,0H7.08V-13.5H9.62v4.843a2.893,2.893,0,0,1,2.312-1.028A3.258,3.258,0,0,1,14.66-8.407a5.767,5.767,0,0,1,.989,3.6Zm-2.54-.185a3.783,3.783,0,0,0-.457-2.1A1.545,1.545,0,0,0,11.29-7.62a1.676,1.676,0,0,0-1.67.993v3.753a1.7,1.7,0,0,0,1.688,1,1.568,1.568,0,0,0,1.617-1.213A6.257,6.257,0,0,0,13.109-4.852Zm9.448-2.276a6.9,6.9,0,0,0-.914-.07,1.86,1.86,0,0,0-1.89.976V0h-2.54V-9.51h2.4l.07,1.134A2.354,2.354,0,0,1,21.8-9.686a2.662,2.662,0,0,1,.791.114Zm5.432,7.3a4.668,4.668,0,0,1-3.406-1.283,4.561,4.561,0,0,1-1.314-3.419v-.246a5.745,5.745,0,0,1,.554-2.562,4.064,4.064,0,0,1,1.569-1.74,4.4,4.4,0,0,1,2.316-.611,3.947,3.947,0,0,1,3.072,1.23A5,5,0,0,1,31.9-4.966v1.037H25.844a2.36,2.36,0,0,0,.743,1.494,2.245,2.245,0,0,0,1.569.563A2.742,2.742,0,0,0,30.45-2.936l1.248,1.4A3.813,3.813,0,0,1,30.151-.277,5.075,5.075,0,0,1,27.989.176ZM27.7-7.638a1.587,1.587,0,0,0-1.226.512,2.651,2.651,0,0,0-.6,1.466H29.4v-.2a1.891,1.891,0,0,0-.457-1.311A1.638,1.638,0,0,0,27.7-7.638Z" transform="translate(802.353 9666.149)"/>
    <path id="Trazado_195249" data-name="Trazado 195249" d="M-55.916-4.263a4.528,4.528,0,0,1-1.525,3.252A5.355,5.355,0,0,1-61.066.176a4.816,4.816,0,0,1-3.872-1.657,6.793,6.793,0,0,1-1.411-4.548v-.782a7.671,7.671,0,0,1,.65-3.252,4.874,4.874,0,0,1,1.859-2.158,5.207,5.207,0,0,1,2.808-.751,5.217,5.217,0,0,1,3.568,1.187A4.866,4.866,0,0,1-55.9-8.455h-2.637a2.673,2.673,0,0,0-.69-1.8,2.555,2.555,0,0,0-1.806-.558A2.24,2.24,0,0,0-63-9.866a5.3,5.3,0,0,0-.672,2.931v.967a5.667,5.667,0,0,0,.628,3.032,2.2,2.2,0,0,0,1.982.958,2.6,2.6,0,0,0,1.824-.558,2.521,2.521,0,0,0,.69-1.727Zm1.169-.58A5.64,5.64,0,0,1-54.2-7.365a3.989,3.989,0,0,1,1.569-1.714,4.577,4.577,0,0,1,2.377-.606,4.33,4.33,0,0,1,3.142,1.178,4.727,4.727,0,0,1,1.358,3.2l.018.65A4.97,4.97,0,0,1-46.96-1.147,4.247,4.247,0,0,1-50.238.176a4.268,4.268,0,0,1-3.283-1.318,5.058,5.058,0,0,1-1.226-3.586Zm2.54.18a3.555,3.555,0,0,0,.51,2.073,1.682,1.682,0,0,0,1.459.717A1.686,1.686,0,0,0-48.8-2.581a3.89,3.89,0,0,0,.519-2.267,3.519,3.519,0,0,0-.519-2.06,1.686,1.686,0,0,0-1.459-.731,1.658,1.658,0,0,0-1.441.726A3.955,3.955,0,0,0-52.207-4.662Zm2.452-8.838h2.769l-2.435,2.725h-2.065Zm5.186,8.675a5.731,5.731,0,0,1,1-3.542,3.237,3.237,0,0,1,2.729-1.318,2.913,2.913,0,0,1,2.294,1.037V-13.5H-36V0h-2.294l-.123-1.011A2.989,2.989,0,0,1-40.86.176a3.228,3.228,0,0,1-2.694-1.323A5.916,5.916,0,0,1-44.569-4.825Zm2.54.189a3.754,3.754,0,0,0,.466,2.051,1.517,1.517,0,0,0,1.354.713,1.7,1.7,0,0,0,1.661-.995V-6.625a1.675,1.675,0,0,0-1.644-.995Q-42.029-7.62-42.029-4.636ZM-31.351,0H-33.9V-9.51h2.549Zm-2.7-11.971a1.251,1.251,0,0,1,.382-.94,1.436,1.436,0,0,1,1.042-.369,1.44,1.44,0,0,1,1.037.369,1.244,1.244,0,0,1,.387.94,1.247,1.247,0,0,1-.391.949,1.443,1.443,0,0,1-1.033.369,1.443,1.443,0,0,1-1.033-.369A1.247,1.247,0,0,1-34.049-11.971Zm4.421,7.146A5.573,5.573,0,0,1-28.586-8.35a3.375,3.375,0,0,1,2.808-1.336,2.96,2.96,0,0,1,2.435,1.072l.105-.9h2.3V-.316A4.064,4.064,0,0,1-21.5,1.854a3.641,3.641,0,0,1-1.6,1.406,5.608,5.608,0,0,1-2.408.483,5.215,5.215,0,0,1-2.039-.417,3.619,3.619,0,0,1-1.5-1.077L-27.923.7a2.975,2.975,0,0,0,2.3,1.063,2.178,2.178,0,0,0,1.573-.541,2.027,2.027,0,0,0,.563-1.534v-.51A2.938,2.938,0,0,1-25.8.176a3.366,3.366,0,0,1-2.773-1.34A5.572,5.572,0,0,1-29.628-4.72Zm2.54.189a3.47,3.47,0,0,0,.519,2.029,1.65,1.65,0,0,0,1.424.735,1.764,1.764,0,0,0,1.661-.871V-6.749a1.76,1.76,0,0,0-1.644-.871,1.66,1.66,0,0,0-1.437.748A3.911,3.911,0,0,0-27.088-4.636Zm7.708-.207a5.64,5.64,0,0,1,.545-2.522,3.989,3.989,0,0,1,1.569-1.714,4.577,4.577,0,0,1,2.377-.606,4.33,4.33,0,0,1,3.142,1.178,4.727,4.727,0,0,1,1.358,3.2l.018.65a4.97,4.97,0,0,1-1.222,3.511A4.247,4.247,0,0,1-14.871.176a4.268,4.268,0,0,1-3.283-1.318A5.058,5.058,0,0,1-19.38-4.729Zm2.54.18a3.555,3.555,0,0,0,.51,2.073,1.682,1.682,0,0,0,1.459.717,1.686,1.686,0,0,0,1.441-.709,3.89,3.89,0,0,0,.519-2.267,3.519,3.519,0,0,0-.519-2.06,1.686,1.686,0,0,0-1.459-.731,1.658,1.658,0,0,0-1.441.726A3.955,3.955,0,0,0-16.84-4.662ZM-1.767,1.986H-9.773V0h8.007ZM4.737,0a2.821,2.821,0,0,1-.255-.853A3.073,3.073,0,0,1,2.083.176,3.376,3.376,0,0,1-.233-.633a2.6,2.6,0,0,1-.918-2.039A2.687,2.687,0,0,1-.031-4.992,5.529,5.529,0,0,1,3.208-5.81H4.377v-.545a1.567,1.567,0,0,0-.338-1.055,1.331,1.331,0,0,0-1.068-.4A1.513,1.513,0,0,0,1.964-7.5a1.045,1.045,0,0,0-.365.844H-.94a2.551,2.551,0,0,1,.51-1.529,3.37,3.37,0,0,1,1.441-1.1,5.253,5.253,0,0,1,2.092-.4A4.15,4.15,0,0,1,5.893-8.8,3.09,3.09,0,0,1,6.926-6.319V-2.2A4.546,4.546,0,0,0,7.3-.149V0Zm-2.1-1.767a2.188,2.188,0,0,0,1.037-.25,1.645,1.645,0,0,0,.7-.672V-4.324H3.428q-1.907,0-2.03,1.318l-.009.149a1.017,1.017,0,0,0,.334.782A1.3,1.3,0,0,0,2.637-1.767ZM11.558,0H9.009V-13.5h2.549Zm4.474-9.51.079,1.063a3.342,3.342,0,0,1,2.733-1.239,2.536,2.536,0,0,1,2.522,1.45,3.265,3.265,0,0,1,2.856-1.45,2.836,2.836,0,0,1,2.3.9,4.141,4.141,0,0,1,.756,2.711V0H24.732V-6.064a1.811,1.811,0,0,0-.316-1.182A1.4,1.4,0,0,0,23.3-7.62a1.585,1.585,0,0,0-1.582,1.09L21.727,0h-2.54V-6.056a1.789,1.789,0,0,0-.325-1.2,1.416,1.416,0,0,0-1.107-.369,1.646,1.646,0,0,0-1.564.9V0h-2.54V-9.51ZM34.743,0a2.821,2.821,0,0,1-.255-.853,3.073,3.073,0,0,1-2.4,1.028,3.376,3.376,0,0,1-2.316-.809,2.6,2.6,0,0,1-.918-2.039,2.687,2.687,0,0,1,1.121-2.32,5.529,5.529,0,0,1,3.239-.817h1.169v-.545a1.567,1.567,0,0,0-.338-1.055,1.331,1.331,0,0,0-1.068-.4A1.513,1.513,0,0,0,31.97-7.5a1.045,1.045,0,0,0-.365.844h-2.54a2.551,2.551,0,0,1,.51-1.529,3.37,3.37,0,0,1,1.441-1.1,5.253,5.253,0,0,1,2.092-.4A4.15,4.15,0,0,1,35.9-8.8a3.09,3.09,0,0,1,1.033,2.483V-2.2A4.546,4.546,0,0,0,37.31-.149V0Zm-2.1-1.767a2.188,2.188,0,0,0,1.037-.25,1.645,1.645,0,0,0,.7-.672V-4.324h-.949q-1.907,0-2.03,1.318l-.009.149a1.017,1.017,0,0,0,.334.782A1.3,1.3,0,0,0,32.643-1.767Zm10.2-.105a1.666,1.666,0,0,0,1.143-.387,1.355,1.355,0,0,0,.457-1.028h2.382a3.258,3.258,0,0,1-.527,1.771A3.48,3.48,0,0,1,44.873-.268a4.442,4.442,0,0,1-1.991.444,4.129,4.129,0,0,1-3.217-1.3A5.13,5.13,0,0,1,38.487-4.7v-.167a5.071,5.071,0,0,1,1.169-3.507,4.08,4.08,0,0,1,3.208-1.31A4,4,0,0,1,45.725-8.67a3.594,3.594,0,0,1,1.094,2.7H44.438a1.745,1.745,0,0,0-.457-1.206,1.524,1.524,0,0,0-1.16-.464,1.53,1.53,0,0,0-1.34.647,3.749,3.749,0,0,0-.453,2.1v.264a3.8,3.8,0,0,0,.448,2.113A1.549,1.549,0,0,0,42.838-1.872ZM52.646.176a4.668,4.668,0,0,1-3.406-1.283,4.561,4.561,0,0,1-1.314-3.419v-.246a5.745,5.745,0,0,1,.554-2.562,4.064,4.064,0,0,1,1.569-1.74,4.4,4.4,0,0,1,2.316-.611,3.947,3.947,0,0,1,3.072,1.23,5,5,0,0,1,1.121,3.489v1.037H50.5a2.36,2.36,0,0,0,.743,1.494,2.245,2.245,0,0,0,1.569.563,2.742,2.742,0,0,0,2.294-1.063l1.248,1.4A3.813,3.813,0,0,1,54.809-.277,5.075,5.075,0,0,1,52.646.176Zm-.29-7.813a1.587,1.587,0,0,0-1.226.512,2.651,2.651,0,0,0-.6,1.466h3.533v-.2A1.891,1.891,0,0,0,53.6-7.174,1.638,1.638,0,0,0,52.356-7.638Zm7.98-1.872.079,1.1a3.32,3.32,0,0,1,2.733-1.274A2.759,2.759,0,0,1,65.4-8.8a4.142,4.142,0,0,1,.756,2.654V0h-2.54V-6.082a1.648,1.648,0,0,0-.352-1.173,1.574,1.574,0,0,0-1.169-.365,1.747,1.747,0,0,0-1.608.914V0h-2.54V-9.51Z" transform="translate(1006.068 9630.39)"/>
    <path id="Trazado_195250" data-name="Trazado 195250" d="M-57.489-4.263a4.528,4.528,0,0,1-1.525,3.252A5.355,5.355,0,0,1-62.64.176a4.816,4.816,0,0,1-3.872-1.657,6.793,6.793,0,0,1-1.411-4.548v-.782a7.671,7.671,0,0,1,.65-3.252,4.874,4.874,0,0,1,1.859-2.158,5.207,5.207,0,0,1,2.808-.751,5.217,5.217,0,0,1,3.568,1.187,4.866,4.866,0,0,1,1.564,3.331h-2.637a2.673,2.673,0,0,0-.69-1.8,2.555,2.555,0,0,0-1.806-.558,2.24,2.24,0,0,0-1.973.945,5.3,5.3,0,0,0-.672,2.931v.967a5.667,5.667,0,0,0,.628,3.032,2.2,2.2,0,0,0,1.982.958,2.6,2.6,0,0,0,1.824-.558,2.521,2.521,0,0,0,.69-1.727Zm1.169-.58a5.64,5.64,0,0,1,.545-2.522,3.989,3.989,0,0,1,1.569-1.714,4.577,4.577,0,0,1,2.377-.606,4.33,4.33,0,0,1,3.142,1.178,4.727,4.727,0,0,1,1.358,3.2l.018.65a4.97,4.97,0,0,1-1.222,3.511A4.247,4.247,0,0,1-51.812.176a4.268,4.268,0,0,1-3.283-1.318A5.058,5.058,0,0,1-56.32-4.729Zm2.54.18a3.555,3.555,0,0,0,.51,2.073,1.682,1.682,0,0,0,1.459.717,1.686,1.686,0,0,0,1.441-.709,3.89,3.89,0,0,0,.519-2.267,3.519,3.519,0,0,0-.519-2.06,1.686,1.686,0,0,0-1.459-.731,1.658,1.658,0,0,0-1.441.726A3.955,3.955,0,0,0-53.78-4.662Zm2.452-8.838h2.769l-2.435,2.725H-53.06Zm5.186,8.675a5.731,5.731,0,0,1,1-3.542,3.237,3.237,0,0,1,2.729-1.318,2.913,2.913,0,0,1,2.294,1.037V-13.5h2.549V0h-2.294l-.123-1.011A2.989,2.989,0,0,1-42.434.176a3.228,3.228,0,0,1-2.694-1.323A5.916,5.916,0,0,1-46.143-4.825Zm2.54.189a3.754,3.754,0,0,0,.466,2.051,1.517,1.517,0,0,0,1.354.713,1.7,1.7,0,0,0,1.661-.995V-6.625a1.675,1.675,0,0,0-1.644-.995Q-43.6-7.62-43.6-4.636ZM-32.924,0h-2.549V-9.51h2.549Zm-2.7-11.971a1.251,1.251,0,0,1,.382-.94A1.436,1.436,0,0,1-34.2-13.28a1.44,1.44,0,0,1,1.037.369,1.244,1.244,0,0,1,.387.94,1.247,1.247,0,0,1-.391.949,1.443,1.443,0,0,1-1.033.369,1.443,1.443,0,0,1-1.033-.369A1.247,1.247,0,0,1-35.622-11.971ZM-31.2-4.825A5.573,5.573,0,0,1-30.16-8.35a3.375,3.375,0,0,1,2.808-1.336,2.96,2.96,0,0,1,2.435,1.072l.105-.9h2.3V-.316a4.064,4.064,0,0,1-.567,2.171,3.641,3.641,0,0,1-1.6,1.406,5.608,5.608,0,0,1-2.408.483,5.215,5.215,0,0,1-2.039-.417,3.619,3.619,0,0,1-1.5-1.077L-29.5.7a2.975,2.975,0,0,0,2.3,1.063,2.178,2.178,0,0,0,1.573-.541,2.027,2.027,0,0,0,.563-1.534v-.51a2.938,2.938,0,0,1-2.312.993,3.366,3.366,0,0,1-2.773-1.34A5.572,5.572,0,0,1-31.2-4.72Zm2.54.189a3.47,3.47,0,0,0,.519,2.029,1.65,1.65,0,0,0,1.424.735,1.764,1.764,0,0,0,1.661-.871V-6.749A1.76,1.76,0,0,0-26.7-7.62a1.66,1.66,0,0,0-1.437.748A3.911,3.911,0,0,0-28.661-4.636Zm7.708-.207a5.64,5.64,0,0,1,.545-2.522,3.989,3.989,0,0,1,1.569-1.714,4.577,4.577,0,0,1,2.377-.606A4.33,4.33,0,0,1-13.32-8.508a4.727,4.727,0,0,1,1.358,3.2l.018.65a4.97,4.97,0,0,1-1.222,3.511A4.247,4.247,0,0,1-16.444.176a4.268,4.268,0,0,1-3.283-1.318,5.058,5.058,0,0,1-1.226-3.586Zm2.54.18a3.555,3.555,0,0,0,.51,2.073,1.682,1.682,0,0,0,1.459.717A1.686,1.686,0,0,0-15-2.581a3.89,3.89,0,0,0,.519-2.267A3.519,3.519,0,0,0-15-6.907a1.686,1.686,0,0,0-1.459-.731,1.658,1.658,0,0,0-1.441.726A3.955,3.955,0,0,0-18.413-4.662ZM-2.338-3.1-.571-9.51H2.083L-1.125,0H-3.551L-6.759-9.51H-4.1ZM7.462.176A4.668,4.668,0,0,1,4.056-1.107,4.561,4.561,0,0,1,2.742-4.526v-.246A5.745,5.745,0,0,1,3.3-7.334a4.064,4.064,0,0,1,1.569-1.74,4.4,4.4,0,0,1,2.316-.611,3.947,3.947,0,0,1,3.072,1.23,5,5,0,0,1,1.121,3.489v1.037H5.317A2.36,2.36,0,0,0,6.06-2.435a2.245,2.245,0,0,0,1.569.563A2.742,2.742,0,0,0,9.923-2.936l1.248,1.4A3.813,3.813,0,0,1,9.624-.277,5.075,5.075,0,0,1,7.462.176Zm-.29-7.813a1.587,1.587,0,0,0-1.226.512,2.651,2.651,0,0,0-.6,1.466H8.877v-.2A1.891,1.891,0,0,0,8.42-7.174,1.638,1.638,0,0,0,7.172-7.638Zm7.98-1.872.079,1.1a3.32,3.32,0,0,1,2.733-1.274,2.759,2.759,0,0,1,2.25.888,4.142,4.142,0,0,1,.756,2.654V0h-2.54V-6.082a1.648,1.648,0,0,0-.352-1.173A1.574,1.574,0,0,0,16.91-7.62a1.747,1.747,0,0,0-1.608.914V0h-2.54V-9.51ZM22.5-4.825a5.731,5.731,0,0,1,1-3.542,3.237,3.237,0,0,1,2.729-1.318,2.913,2.913,0,0,1,2.294,1.037V-13.5h2.549V0H28.775l-.123-1.011A2.989,2.989,0,0,1,26.209.176a3.228,3.228,0,0,1-2.694-1.323A5.916,5.916,0,0,1,22.5-4.825Zm2.54.189a3.754,3.754,0,0,0,.466,2.051,1.517,1.517,0,0,0,1.354.713,1.7,1.7,0,0,0,1.661-.995V-6.625a1.675,1.675,0,0,0-1.644-.995Q25.04-7.62,25.04-4.636ZM37.415.176a4.668,4.668,0,0,1-3.406-1.283A4.561,4.561,0,0,1,32.7-4.526v-.246a5.745,5.745,0,0,1,.554-2.562,4.064,4.064,0,0,1,1.569-1.74,4.4,4.4,0,0,1,2.316-.611,3.947,3.947,0,0,1,3.072,1.23,5,5,0,0,1,1.121,3.489v1.037H35.271a2.36,2.36,0,0,0,.743,1.494,2.245,2.245,0,0,0,1.569.563,2.742,2.742,0,0,0,2.294-1.063l1.248,1.4A3.813,3.813,0,0,1,39.577-.277,5.075,5.075,0,0,1,37.415.176Zm-.29-7.813a1.587,1.587,0,0,0-1.226.512,2.651,2.651,0,0,0-.6,1.466H38.83v-.2a1.891,1.891,0,0,0-.457-1.311A1.638,1.638,0,0,0,37.125-7.638Zm5.247,2.813a5.731,5.731,0,0,1,1-3.542A3.237,3.237,0,0,1,46.1-9.686a2.913,2.913,0,0,1,2.294,1.037V-13.5h2.549V0H48.647l-.123-1.011A2.989,2.989,0,0,1,46.081.176a3.228,3.228,0,0,1-2.694-1.323A5.916,5.916,0,0,1,42.372-4.825Zm2.54.189a3.754,3.754,0,0,0,.466,2.051,1.517,1.517,0,0,0,1.354.713,1.7,1.7,0,0,0,1.661-.995V-6.625a1.675,1.675,0,0,0-1.644-.995Q44.912-7.62,44.912-4.636Zm7.6-.207a5.64,5.64,0,0,1,.545-2.522,3.989,3.989,0,0,1,1.569-1.714,4.577,4.577,0,0,1,2.377-.606,4.33,4.33,0,0,1,3.142,1.178,4.727,4.727,0,0,1,1.358,3.2l.018.65A4.97,4.97,0,0,1,60.3-1.147,4.247,4.247,0,0,1,57.023.176a4.268,4.268,0,0,1-3.283-1.318,5.058,5.058,0,0,1-1.226-3.586Zm2.54.18a3.555,3.555,0,0,0,.51,2.073,1.682,1.682,0,0,0,1.459.717,1.686,1.686,0,0,0,1.441-.709,3.89,3.89,0,0,0,.519-2.267,3.519,3.519,0,0,0-.519-2.06,1.686,1.686,0,0,0-1.459-.731,1.658,1.658,0,0,0-1.441.726A3.955,3.955,0,0,0,55.055-4.662ZM68.432-7.128a6.9,6.9,0,0,0-.914-.07,1.86,1.86,0,0,0-1.89.976V0h-2.54V-9.51h2.4l.07,1.134a2.354,2.354,0,0,1,2.118-1.31,2.662,2.662,0,0,1,.791.114Z" transform="translate(648.528 9275.621)"/>
    <path id="Trazado_195251" data-name="Trazado 195251" d="M1.876,0H-.664V-9.791l-3.032.94v-2.065l5.3-1.9h.272Z" transform="translate(612.66 9372.191)"/>
    <path id="Trazado_195252" data-name="Trazado 195252" d="M1.876,0H-.664V-9.791l-3.032.94v-2.065l5.3-1.9h.272Z" transform="translate(843.687 9501.852)"/>
    <path id="Trazado_195253" data-name="Trazado 195253" d="M1.876,0H-.664V-9.791l-3.032.94v-2.065l5.3-1.9h.272Z" transform="translate(1010.523 9516.638)"/>
    <path id="Trazado_195254" data-name="Trazado 195254" d="M-4.188-8.981l.075,1a3.156,3.156,0,0,1,2.582-1.17A2.4,2.4,0,0,1,.851-7.778a3.084,3.084,0,0,1,2.7-1.37A2.679,2.679,0,0,1,5.723-8.3a3.911,3.911,0,0,1,.714,2.561V0H4.03V-5.728a1.71,1.71,0,0,0-.3-1.116A1.324,1.324,0,0,0,2.677-7.2,1.5,1.5,0,0,0,1.183-6.167L1.191,0h-2.4V-5.719a1.689,1.689,0,0,0-.307-1.129A1.337,1.337,0,0,0-2.561-7.2a1.555,1.555,0,0,0-1.478.847V0h-2.4V-8.981Z" transform="translate(729.252 9386.267)"/>
    <path id="Trazado_195255" data-name="Trazado 195255" d="M-3.113-12.086l3.1,8.766L3.08-12.086H6.35V0h-2.5V-3.3l.249-5.7L.838,0H-.872L-4.125-9-3.876-3.3V0h-2.49V-12.086Z" transform="translate(840.807 9414.605)"/>
    <path id="Trazado_195256" data-name="Trazado 195256" d="M-3.113-12.086l3.1,8.766L3.08-12.086H6.35V0h-2.5V-3.3l.249-5.7L.838,0H-.872L-4.125-9-3.876-3.3V0h-2.49V-12.086Z" transform="translate(921.481 9505.489)"/>
    <path id="Trazado_195257" data-name="Trazado 195257" d="M112.567,46.854,0,0" transform="translate(663.606 9286.277)" fill="none" stroke="#b9daf4" stroke-width="2.698"/>
    <path id="Trazado_195258" data-name="Trazado 195258" d="M0,94.764,226.705,0" transform="translate(549.021 9345.723)" fill="none" stroke="#b9daf4" stroke-width="2.698"/>
    <path id="Trazado_195259" data-name="Trazado 195259" d="M0,0,91.689,36.429" transform="translate(569.889 9468.166)" fill="none" stroke="#b9daf4" stroke-width="2.698"/>
    <path id="Trazado_195260" data-name="Trazado 195260" d="M41.729,0,0,44.112" transform="translate(476.547 9467.169)" fill="none" stroke="#b9daf4" stroke-width="2.563"/>
    <path id="Trazado_195261" data-name="Trazado 195261" d="M158.637,0,0,66.529" transform="translate(615.281 9543.979)" fill="none" stroke="#b9daf4" stroke-width="2.698"/>
    <path id="Trazado_195262" data-name="Trazado 195262" d="M0,0,143.866,52.159" transform="translate(840.024 9557.026)" fill="none" stroke="#b9daf4" stroke-width="2.698"/>
    <path id="Trazado_195263" data-name="Trazado 195263" d="M0,2.464,107.192,0" transform="translate(840.412 9533.617)" fill="none" stroke="#b9daf4" stroke-width="2.698"/>
    <path id="Trazado_193977" data-name="Trazado 193977" d="M211.638,263.056l-59.611-37.244,59.611-35.784,59.61,35.784Z" transform="translate(450.737 9168.473)" fill="#b9daf4"/>
    <path id="Trazado_195264" data-name="Trazado 195264" d="M-29.149-4.685h-2.1V0h-2.637V-12.8h4.755a5.375,5.375,0,0,1,3.5,1.011A3.488,3.488,0,0,1-24.4-8.93a3.937,3.937,0,0,1-.567,2.184,3.866,3.866,0,0,1-1.718,1.393l2.769,5.229V0h-2.83Zm-2.1-2.136h2.127a2.178,2.178,0,0,0,1.538-.505,1.806,1.806,0,0,0,.545-1.393,1.933,1.933,0,0,0-.514-1.424,2.137,2.137,0,0,0-1.578-.519H-31.25Zm13.061,7a4.668,4.668,0,0,1-3.406-1.283,4.561,4.561,0,0,1-1.314-3.419v-.246a5.745,5.745,0,0,1,.554-2.562,4.064,4.064,0,0,1,1.569-1.74,4.4,4.4,0,0,1,2.316-.611A3.947,3.947,0,0,1-15.4-8.455a5,5,0,0,1,1.121,3.489v1.037h-6.056a2.36,2.36,0,0,0,.743,1.494,2.245,2.245,0,0,0,1.569.563,2.742,2.742,0,0,0,2.294-1.063l1.248,1.4A3.813,3.813,0,0,1-16.027-.277,5.075,5.075,0,0,1-18.189.176Zm-.29-7.813a1.587,1.587,0,0,0-1.226.512,2.651,2.651,0,0,0-.6,1.466h3.533v-.2a1.891,1.891,0,0,0-.457-1.311A1.638,1.638,0,0,0-18.479-7.638ZM-10.156,0H-12.7V-13.5h2.549Zm7.6,0a2.821,2.821,0,0,1-.255-.853A3.073,3.073,0,0,1-5.208.176,3.376,3.376,0,0,1-7.523-.633a2.6,2.6,0,0,1-.918-2.039,2.687,2.687,0,0,1,1.121-2.32A5.529,5.529,0,0,1-4.083-5.81h1.169v-.545a1.567,1.567,0,0,0-.338-1.055A1.331,1.331,0,0,0-4.32-7.8,1.513,1.513,0,0,0-5.326-7.5a1.045,1.045,0,0,0-.365.844h-2.54a2.551,2.551,0,0,1,.51-1.529,3.37,3.37,0,0,1,1.441-1.1,5.253,5.253,0,0,1,2.092-.4A4.15,4.15,0,0,1-1.4-8.8,3.09,3.09,0,0,1-.365-6.319V-2.2A4.546,4.546,0,0,0,.013-.149V0Zm-2.1-1.767a2.188,2.188,0,0,0,1.037-.25,1.645,1.645,0,0,0,.7-.672V-4.324h-.949q-1.907,0-2.03,1.318l-.009.149a1.017,1.017,0,0,0,.334.782A1.3,1.3,0,0,0-4.654-1.767Zm10.2-.105a1.666,1.666,0,0,0,1.143-.387,1.355,1.355,0,0,0,.457-1.028H9.523A3.258,3.258,0,0,1,9-1.516,3.48,3.48,0,0,1,7.576-.268,4.442,4.442,0,0,1,5.585.176a4.129,4.129,0,0,1-3.217-1.3A5.13,5.13,0,0,1,1.191-4.7v-.167A5.071,5.071,0,0,1,2.36-8.376a4.08,4.08,0,0,1,3.208-1.31A4,4,0,0,1,8.429-8.67a3.594,3.594,0,0,1,1.094,2.7H7.141a1.745,1.745,0,0,0-.457-1.206,1.524,1.524,0,0,0-1.16-.464,1.53,1.53,0,0,0-1.34.647,3.749,3.749,0,0,0-.453,2.1v.264a3.8,3.8,0,0,0,.448,2.113A1.549,1.549,0,0,0,5.542-1.872ZM13.654,0H11.1V-9.51h2.549Zm-2.7-11.971a1.251,1.251,0,0,1,.382-.94,1.436,1.436,0,0,1,1.042-.369,1.44,1.44,0,0,1,1.037.369,1.244,1.244,0,0,1,.387.94,1.247,1.247,0,0,1-.391.949,1.443,1.443,0,0,1-1.033.369,1.443,1.443,0,0,1-1.033-.369A1.247,1.247,0,0,1,10.956-11.971ZM15.35-4.843A5.64,5.64,0,0,1,15.9-7.365a3.989,3.989,0,0,1,1.569-1.714,4.577,4.577,0,0,1,2.377-.606,4.33,4.33,0,0,1,3.142,1.178,4.727,4.727,0,0,1,1.358,3.2l.018.65a4.97,4.97,0,0,1-1.222,3.511A4.247,4.247,0,0,1,19.859.176a4.268,4.268,0,0,1-3.283-1.318A5.058,5.058,0,0,1,15.35-4.729Zm2.54.18a3.555,3.555,0,0,0,.51,2.073,1.682,1.682,0,0,0,1.459.717A1.686,1.686,0,0,0,21.3-2.581a3.89,3.89,0,0,0,.519-2.267,3.519,3.519,0,0,0-.519-2.06,1.686,1.686,0,0,0-1.459-.731,1.658,1.658,0,0,0-1.441.726A3.955,3.955,0,0,0,17.89-4.662ZM20.342-13.5h2.769l-2.435,2.725H18.611Zm7.919,3.99.079,1.1a3.32,3.32,0,0,1,2.733-1.274,2.759,2.759,0,0,1,2.25.888,4.142,4.142,0,0,1,.756,2.654V0H31.54V-6.082a1.648,1.648,0,0,0-.352-1.173,1.574,1.574,0,0,0-1.169-.365,1.747,1.747,0,0,0-1.608.914V0h-2.54V-9.51Z" transform="translate(651.283 9396.499)"/>
    <path id="Trazado_195265" data-name="Trazado 195265" d="M0,45.711,106.432,0" transform="translate(823.139 9286.277)" fill="none" stroke="#b9daf4" stroke-width="2.698"/>
    <path id="Trazado_195266" data-name="Trazado 195266" d="M-11.949-10.661h-3.92V0h-2.637V-10.661h-3.867V-12.8h10.424ZM-7.932,0h-2.549V-9.51h2.549Zm-2.7-11.971a1.251,1.251,0,0,1,.382-.94,1.436,1.436,0,0,1,1.042-.369,1.44,1.44,0,0,1,1.037.369,1.244,1.244,0,0,1,.387.94,1.247,1.247,0,0,1-.391.949,1.443,1.443,0,0,1-1.033.369,1.443,1.443,0,0,1-1.033-.369A1.247,1.247,0,0,1-10.63-11.971ZM-1.463.176A4.668,4.668,0,0,1-4.869-1.107,4.561,4.561,0,0,1-6.183-4.526v-.246a5.745,5.745,0,0,1,.554-2.562,4.064,4.064,0,0,1,1.569-1.74,4.4,4.4,0,0,1,2.316-.611,3.947,3.947,0,0,1,3.072,1.23A5,5,0,0,1,2.448-4.966v1.037H-3.608a2.36,2.36,0,0,0,.743,1.494A2.245,2.245,0,0,0-1.3-1.872,2.742,2.742,0,0,0,1-2.936l1.248,1.4A3.813,3.813,0,0,1,.7-.277,5.075,5.075,0,0,1-1.463.176Zm-.29-7.813a1.587,1.587,0,0,0-1.226.512,2.651,2.651,0,0,0-.6,1.466H-.048v-.2A1.891,1.891,0,0,0-.505-7.174,1.638,1.638,0,0,0-1.753-7.638ZM6.227-9.51l.079,1.1A3.32,3.32,0,0,1,9.04-9.686a2.759,2.759,0,0,1,2.25.888,4.142,4.142,0,0,1,.756,2.654V0H9.505V-6.082a1.648,1.648,0,0,0-.352-1.173A1.574,1.574,0,0,0,7.985-7.62a1.747,1.747,0,0,0-1.608.914V0H3.836V-9.51ZM18.347.176a4.668,4.668,0,0,1-3.406-1.283,4.561,4.561,0,0,1-1.314-3.419v-.246a5.745,5.745,0,0,1,.554-2.562,4.064,4.064,0,0,1,1.569-1.74,4.4,4.4,0,0,1,2.316-.611,3.947,3.947,0,0,1,3.072,1.23,5,5,0,0,1,1.121,3.489v1.037H16.2a2.36,2.36,0,0,0,.743,1.494,2.245,2.245,0,0,0,1.569.563,2.742,2.742,0,0,0,2.294-1.063l1.248,1.4A3.813,3.813,0,0,1,20.509-.277,5.075,5.075,0,0,1,18.347.176Zm-.29-7.813a1.587,1.587,0,0,0-1.226.512,2.651,2.651,0,0,0-.6,1.466h3.533v-.2a1.891,1.891,0,0,0-.457-1.311A1.638,1.638,0,0,0,18.057-7.638Z" transform="translate(962.068 9534.572)"/>
    <path id="Trazado_195267" data-name="Trazado 195267" d="M-22.219-3.173l2.9-9.624h2.936L-20.839,0H-23.59l-4.438-12.8H-25.1ZM-11.355.176a4.668,4.668,0,0,1-3.406-1.283,4.561,4.561,0,0,1-1.314-3.419v-.246a5.745,5.745,0,0,1,.554-2.562,4.064,4.064,0,0,1,1.569-1.74,4.4,4.4,0,0,1,2.316-.611,3.947,3.947,0,0,1,3.072,1.23A5,5,0,0,1-7.444-4.966v1.037H-13.5a2.36,2.36,0,0,0,.743,1.494,2.245,2.245,0,0,0,1.569.563A2.742,2.742,0,0,0-8.895-2.936l1.248,1.4A3.813,3.813,0,0,1-9.193-.277,5.075,5.075,0,0,1-11.355.176Zm-.29-7.813a1.587,1.587,0,0,0-1.226.512,2.651,2.651,0,0,0-.6,1.466H-9.94v-.2A1.891,1.891,0,0,0-10.4-7.174,1.638,1.638,0,0,0-11.646-7.638Zm7.98-1.872.079,1.1A3.32,3.32,0,0,1-.853-9.686,2.759,2.759,0,0,1,1.4-8.8a4.142,4.142,0,0,1,.756,2.654V0H-.387V-6.082A1.648,1.648,0,0,0-.738-7.255,1.574,1.574,0,0,0-1.907-7.62a1.747,1.747,0,0,0-1.608.914V0h-2.54V-9.51ZM7.119-11.848V-9.51H8.745v1.863H7.119V-2.9a1.133,1.133,0,0,0,.2.756,1.015,1.015,0,0,0,.773.229,4.051,4.051,0,0,0,.747-.062V-.053A5.229,5.229,0,0,1,7.3.176a2.425,2.425,0,0,1-2.725-2.7V-7.646H3.19V-9.51H4.579v-2.338ZM15.671,0a2.821,2.821,0,0,1-.255-.853,3.073,3.073,0,0,1-2.4,1.028A3.376,3.376,0,0,1,10.7-.633a2.6,2.6,0,0,1-.918-2.039A2.687,2.687,0,0,1,10.9-4.992a5.529,5.529,0,0,1,3.239-.817h1.169v-.545a1.567,1.567,0,0,0-.338-1.055A1.331,1.331,0,0,0,13.9-7.8,1.513,1.513,0,0,0,12.9-7.5a1.045,1.045,0,0,0-.365.844H9.993a2.551,2.551,0,0,1,.51-1.529,3.37,3.37,0,0,1,1.441-1.1,5.253,5.253,0,0,1,2.092-.4,4.15,4.15,0,0,1,2.791.883,3.09,3.09,0,0,1,1.033,2.483V-2.2a4.546,4.546,0,0,0,.378,2.048V0Zm-2.1-1.767a2.188,2.188,0,0,0,1.037-.25,1.645,1.645,0,0,0,.7-.672V-4.324h-.949q-1.907,0-2.03,1.318l-.009.149a1.017,1.017,0,0,0,.334.782A1.3,1.3,0,0,0,13.57-1.767Zm11.391-.861a.818.818,0,0,0-.461-.734,5.241,5.241,0,0,0-1.481-.479q-3.393-.712-3.393-2.883a2.613,2.613,0,0,1,1.05-2.114,4.237,4.237,0,0,1,2.747-.848,4.56,4.56,0,0,1,2.9.853A2.687,2.687,0,0,1,27.4-6.618h-2.54a1.229,1.229,0,0,0-.352-.9,1.488,1.488,0,0,0-1.1-.356,1.52,1.52,0,0,0-.993.29.916.916,0,0,0-.352.738.783.783,0,0,0,.4.681,4.114,4.114,0,0,0,1.349.448,11.019,11.019,0,0,1,1.6.426,2.628,2.628,0,0,1,2.013,2.558,2.481,2.481,0,0,1-1.116,2.1,4.815,4.815,0,0,1-2.883.8A5.029,5.029,0,0,1,21.309-.25a3.561,3.561,0,0,1-1.455-1.169,2.716,2.716,0,0,1-.527-1.6h2.408a1.326,1.326,0,0,0,.5,1.037,1.987,1.987,0,0,0,1.248.36,1.839,1.839,0,0,0,1.1-.277A.861.861,0,0,0,24.961-2.628Z" transform="translate(803.642 9339.664)"/>
  </g>
</svg>
