<svg xmlns="http://www.w3.org/2000/svg" width="1030" height="615.552" viewBox="0 0 1030 615.552">
  <g id="_8" data-name="8" transform="translate(-285 -1865)">
    <path id="Trazado_194853" data-name="Trazado 194853" d="M0,160.251V0" transform="translate(1054.308 2096.893)" fill="none" stroke="#b8dcfb" stroke-width="2.896"/>
    <path id="Trazado_194854" data-name="Trazado 194854" d="M0,0H60.331" transform="translate(1107.615 2179.648)" fill="none" stroke="#b8dcfb" stroke-width="2.896"/>
    <path id="Trazado_194855" data-name="Trazado 194855" d="M0,0V524.114" transform="translate(809.332 1914.019)" fill="none" stroke="#b8dcfb" stroke-width="2.601"/>
    <path id="Trazado_194856" data-name="Trazado 194856" d="M3,0h98.634a3,3,0,0,1,3,3V47.9a3,3,0,0,1-3,3H3a3,3,0,0,1-3-3V3A3,3,0,0,1,3,0Z" transform="translate(758.067 1978.832)" fill="#b8dcfb"/>
    <path id="Trazado_194857" data-name="Trazado 194857" d="M3,0H123.316a3,3,0,0,1,3,3V47.9a3,3,0,0,1-3,3H3a3,3,0,0,1-3-3V3A3,3,0,0,1,3,0Z" transform="translate(364.654 2154.197)" fill="#b8dcfb"/>
    <path id="Trazado_194858" data-name="Trazado 194858" d="M3,0H113.89a3,3,0,0,1,3,3V53.559a3,3,0,0,1-3,3H3a3,3,0,0,1-3-3V3A3,3,0,0,1,3,0Z" transform="translate(751.939 2293.906)" fill="#b8dcfb"/>
    <path id="Trazado_194859" data-name="Trazado 194859" d="M3,0H113.89a3,3,0,0,1,3,3V47.9a3,3,0,0,1-3,3H3a3,3,0,0,1-3-3V3A3,3,0,0,1,3,0Z" transform="translate(995.565 2154.197)" fill="#b8dcfb"/>
    <path id="Trazado_189303" data-name="Trazado 189303" d="M6816.475,11175.16l-76.946-48.074,76.946-46.189,76.946,46.189Z" transform="translate(-6006.091 -8948.381)" fill="#b8dcfb"/>
    <path id="Trazado_189304" data-name="Trazado 189304" d="M6935.581,11212.871l-55.4-34.615,55.4-33.256,55.4,33.256Z" transform="translate(-5881.572 -8891.629)" fill="#b8dcfb"/>
    <path id="Trazado_194860" data-name="Trazado 194860" d="M86.724,0c47.9,0,86.724,10.973,86.724,24.509S134.62,49.018,86.724,49.018,0,38.045,0,24.509,38.828,0,86.724,0Z" transform="translate(904.004 1914.019)" fill="#b8dcfb"/>
    <path id="Trazado_194861" data-name="Trazado 194861" d="M61.272,0c33.84,0,61.272,10.973,61.272,24.509S95.112,49.018,61.272,49.018,0,38.045,0,24.509,27.433,0,61.272,0Z" transform="translate(992.738 2047.874)" fill="#b8dcfb"/>
    <path id="Trazado_194862" data-name="Trazado 194862" d="M75.412,0c41.649,0,75.412,10.973,75.412,24.509S117.061,49.018,75.412,49.018,0,38.045,0,24.509,33.763,0,75.412,0Z" transform="translate(1164.176 2155.14)" fill="#b8dcfb"/>
    <path id="Trazado_194863" data-name="Trazado 194863" d="M109.348,0C169.738,0,218.7,10.973,218.7,24.509S169.738,49.018,109.348,49.018,0,38.045,0,24.509,48.957,0,109.348,0Z" transform="translate(485.467 1914.019)" fill="#b8dcfb"/>
    <path id="Trazado_194864" data-name="Trazado 194864" d="M59.387,0c32.8,0,59.387,10.973,59.387,24.509S92.186,49.018,59.387,49.018,0,38.045,0,24.509,26.588,0,59.387,0Z" transform="translate(543.912 2364.605)" fill="#b8dcfb"/>
    <path id="Trazado_194865" data-name="Trazado 194865" d="M99.45,0c54.925,0,99.45,10.973,99.45,24.509S154.374,49.018,99.45,49.018,0,38.045,0,24.509,44.525,0,99.45,0Z" transform="translate(930.587 2364.605)" fill="#b8dcfb"/>
    <path id="Trazado_194866" data-name="Trazado 194866" d="M60.33,0c33.319,0,60.33,10.973,60.33,24.509S93.649,49.018,60.33,49.018,0,38.045,0,24.509,27.011,0,60.33,0Z" transform="translate(750.055 2431.534)" fill="#b8dcfb"/>
    <path id="Trazado_194867" data-name="Trazado 194867" d="M60.33,0c33.319,0,60.33,10.973,60.33,24.509S93.649,49.018,60.33,49.018,0,38.045,0,24.509,27.011,0,60.33,0Z" transform="translate(750.055 1865)" fill="#b8dcfb"/>
    <path id="Trazado_194868" data-name="Trazado 194868" d="M5.752-2.184a1.944,1.944,0,0,0,1.333-.451,1.581,1.581,0,0,0,.533-1.2H10.4a3.8,3.8,0,0,1-.615,2.066A4.06,4.06,0,0,1,8.126-.313,5.183,5.183,0,0,1,5.8.205,4.817,4.817,0,0,1,2.051-1.307,5.985,5.985,0,0,1,.677-5.486v-.195A5.917,5.917,0,0,1,2.041-9.772,4.761,4.761,0,0,1,5.783-11.3a4.667,4.667,0,0,1,3.338,1.184A4.193,4.193,0,0,1,10.4-6.962H7.619a2.036,2.036,0,0,0-.533-1.407,1.778,1.778,0,0,0-1.354-.541,1.785,1.785,0,0,0-1.564.755A4.374,4.374,0,0,0,3.64-5.707V-5.4a4.43,4.43,0,0,0,.523,2.465A1.807,1.807,0,0,0,5.752-2.184ZM17.2.205a5.447,5.447,0,0,1-3.973-1.5,5.321,5.321,0,0,1-1.533-3.989v-.287a6.7,6.7,0,0,1,.646-2.989,4.741,4.741,0,0,1,1.83-2.03,5.137,5.137,0,0,1,2.7-.713,4.6,4.6,0,0,1,3.584,1.436,5.833,5.833,0,0,1,1.307,4.071v1.21H14.694A2.753,2.753,0,0,0,15.56-2.84a2.619,2.619,0,0,0,1.83.656,3.2,3.2,0,0,0,2.676-1.241l1.456,1.63a4.449,4.449,0,0,1-1.8,1.471A5.921,5.921,0,0,1,17.2.205Zm-.338-9.116a1.852,1.852,0,0,0-1.43.6,3.093,3.093,0,0,0-.7,1.71h4.122V-6.84a2.206,2.206,0,0,0-.533-1.529A1.91,1.91,0,0,0,16.857-8.911Zm6.122,3.281a6.686,6.686,0,0,1,1.164-4.132A3.776,3.776,0,0,1,27.327-11.3,3.4,3.4,0,0,1,30-10.09v-5.66h2.974V0H30.3l-.144-1.179A3.487,3.487,0,0,1,27.306.205a3.766,3.766,0,0,1-3.143-1.543A6.9,6.9,0,0,1,22.979-5.629Zm2.963.221a4.38,4.38,0,0,0,.543,2.393,1.77,1.77,0,0,0,1.579.832A1.983,1.983,0,0,0,30-3.345V-7.73a1.954,1.954,0,0,0-1.917-1.16Q25.942-8.89,25.942-5.409ZM41.918-1.128A3.716,3.716,0,0,1,38.883.205,3.5,3.5,0,0,1,36.16-.82a4.377,4.377,0,0,1-.959-3v-7.27h2.963v7.176q0,1.735,1.579,1.735a2.14,2.14,0,0,0,2.071-1.047v-7.863h2.974V0H42ZM50.152,0H47.178V-15.75h2.974Zm8.87,0a3.291,3.291,0,0,1-.3-.995,3.586,3.586,0,0,1-2.8,1.2,3.939,3.939,0,0,1-2.7-.943,3.034,3.034,0,0,1-1.072-2.379,3.135,3.135,0,0,1,1.307-2.707,6.451,6.451,0,0,1,3.779-.954H58.6v-.636a1.828,1.828,0,0,0-.395-1.23,1.553,1.553,0,0,0-1.246-.461,1.766,1.766,0,0,0-1.174.359,1.219,1.219,0,0,0-.426.984H52.4a2.977,2.977,0,0,1,.595-1.784,3.931,3.931,0,0,1,1.682-1.287,6.129,6.129,0,0,1,2.44-.467,4.842,4.842,0,0,1,3.256,1.031,3.605,3.605,0,0,1,1.2,2.9v4.809a5.3,5.3,0,0,0,.441,2.389V0ZM56.571-2.061a2.552,2.552,0,0,0,1.21-.292,1.919,1.919,0,0,0,.82-.784V-5.045H57.494q-2.225,0-2.369,1.538l-.01.174a1.186,1.186,0,0,0,.39.913A1.514,1.514,0,0,0,56.571-2.061Z" transform="translate(776.603 1896.467)" fill="#12263f"/>
    <path id="Trazado_194869" data-name="Trazado 194869" d="M6.85-3.7,10.233-14.93h3.425L8.459,0H5.25L.072-14.93H3.486ZM20.826,0a3.291,3.291,0,0,1-.3-.995,3.586,3.586,0,0,1-2.8,1.2,3.939,3.939,0,0,1-2.7-.943,3.034,3.034,0,0,1-1.072-2.379,3.135,3.135,0,0,1,1.307-2.707,6.451,6.451,0,0,1,3.779-.954h1.364v-.636a1.828,1.828,0,0,0-.395-1.23,1.553,1.553,0,0,0-1.246-.461,1.766,1.766,0,0,0-1.174.359,1.219,1.219,0,0,0-.426.984H14.2A2.977,2.977,0,0,1,14.8-9.546a3.931,3.931,0,0,1,1.682-1.287,6.129,6.129,0,0,1,2.44-.467,4.842,4.842,0,0,1,3.256,1.031,3.605,3.605,0,0,1,1.2,2.9v4.809A5.3,5.3,0,0,0,23.82-.174V0ZM18.375-2.061a2.552,2.552,0,0,0,1.21-.292,1.919,1.919,0,0,0,.82-.784V-5.045H19.3q-2.225,0-2.369,1.538l-.01.174a1.186,1.186,0,0,0,.39.913A1.514,1.514,0,0,0,18.375-2.061ZM28.783,0H25.809V-15.75h2.974Zm1.979-5.65A6.58,6.58,0,0,1,31.4-8.593a4.654,4.654,0,0,1,1.83-2A5.34,5.34,0,0,1,36-11.3a5.052,5.052,0,0,1,3.666,1.374,5.514,5.514,0,0,1,1.584,3.732l.021.759a5.8,5.8,0,0,1-1.425,4.1A4.954,4.954,0,0,1,36.022.205a4.979,4.979,0,0,1-3.83-1.538,5.9,5.9,0,0,1-1.43-4.184Zm2.963.21a4.147,4.147,0,0,0,.595,2.418,1.962,1.962,0,0,0,1.7.837A1.966,1.966,0,0,0,37.7-3.011a4.538,4.538,0,0,0,.6-2.644,4.106,4.106,0,0,0-.6-2.4A1.967,1.967,0,0,0,36-8.911a1.934,1.934,0,0,0-1.682.847A4.614,4.614,0,0,0,33.725-5.44ZM49.332-8.316A8.051,8.051,0,0,0,48.265-8.4a2.171,2.171,0,0,0-2.2,1.138V0H43.1V-11.095h2.8l.082,1.323A2.746,2.746,0,0,1,48.45-11.3a3.105,3.105,0,0,1,.923.133ZM58.97,2.317H49.629V0H58.97ZM64.282-3.62l2.061-7.475h3.1L65.7,0h-2.83L59.124-11.095h3.1ZM75.715.205a5.447,5.447,0,0,1-3.973-1.5,5.321,5.321,0,0,1-1.533-3.989v-.287a6.7,6.7,0,0,1,.646-2.989,4.741,4.741,0,0,1,1.83-2.03,5.137,5.137,0,0,1,2.7-.713A4.6,4.6,0,0,1,78.97-9.864a5.833,5.833,0,0,1,1.307,4.071v1.21H73.213a2.753,2.753,0,0,0,.866,1.743,2.619,2.619,0,0,0,1.83.656,3.2,3.2,0,0,0,2.676-1.241l1.456,1.63a4.449,4.449,0,0,1-1.8,1.471A5.921,5.921,0,0,1,75.715.205Zm-.338-9.116a1.852,1.852,0,0,0-1.43.6,3.093,3.093,0,0,0-.7,1.71h4.122V-6.84a2.206,2.206,0,0,0-.533-1.529A1.91,1.91,0,0,0,75.376-8.911Zm9.311-2.184.092,1.282A3.874,3.874,0,0,1,87.968-11.3a3.219,3.219,0,0,1,2.625,1.036,4.832,4.832,0,0,1,.882,3.1V0H88.512V-7.1a1.923,1.923,0,0,0-.41-1.369,1.836,1.836,0,0,0-1.364-.426,2.039,2.039,0,0,0-1.876,1.066V0H81.9V-11.095Zm12.582-2.728v2.728h1.9v2.174h-1.9v5.537A1.322,1.322,0,0,0,97.5-2.5a1.184,1.184,0,0,0,.9.267,4.726,4.726,0,0,0,.872-.072V-.062a6.1,6.1,0,0,1-1.794.267q-3.117,0-3.179-3.148V-8.921h-1.62v-2.174h1.62v-2.728ZM107.246,0a3.291,3.291,0,0,1-.3-.995,3.586,3.586,0,0,1-2.8,1.2,3.939,3.939,0,0,1-2.7-.943,3.034,3.034,0,0,1-1.072-2.379,3.135,3.135,0,0,1,1.307-2.707,6.451,6.451,0,0,1,3.779-.954h1.364v-.636a1.828,1.828,0,0,0-.395-1.23,1.553,1.553,0,0,0-1.246-.461,1.766,1.766,0,0,0-1.174.359,1.219,1.219,0,0,0-.426.984h-2.963a2.977,2.977,0,0,1,.595-1.784,3.931,3.931,0,0,1,1.682-1.287,6.129,6.129,0,0,1,2.44-.467,4.842,4.842,0,0,1,3.256,1.031,3.605,3.605,0,0,1,1.2,2.9v4.809a5.3,5.3,0,0,0,.441,2.389V0Zm-2.451-2.061A2.552,2.552,0,0,0,106-2.353a1.919,1.919,0,0,0,.82-.784V-5.045h-1.107q-2.225,0-2.369,1.538l-.01.174a1.186,1.186,0,0,0,.39.913A1.514,1.514,0,0,0,104.795-2.061Z" transform="translate(932.083 1942.63)" fill="#12263f"/>
    <path id="Trazado_194870" data-name="Trazado 194870" d="M6.85-3.7,10.233-14.93h3.425L8.459,0H5.25L.072-14.93H3.486ZM19.523.205a5.447,5.447,0,0,1-3.973-1.5,5.321,5.321,0,0,1-1.533-3.989v-.287a6.7,6.7,0,0,1,.646-2.989,4.741,4.741,0,0,1,1.83-2.03,5.137,5.137,0,0,1,2.7-.713,4.6,4.6,0,0,1,3.584,1.436,5.833,5.833,0,0,1,1.307,4.071v1.21H17.021a2.753,2.753,0,0,0,.866,1.743,2.619,2.619,0,0,0,1.83.656,3.2,3.2,0,0,0,2.676-1.241l1.456,1.63a4.449,4.449,0,0,1-1.8,1.471A5.921,5.921,0,0,1,19.523.205Zm-.338-9.116a1.852,1.852,0,0,0-1.43.6,3.093,3.093,0,0,0-.7,1.71h4.122V-6.84a2.206,2.206,0,0,0-.533-1.529A1.91,1.91,0,0,0,19.185-8.911ZM28.5-11.095l.092,1.282A3.874,3.874,0,0,1,31.777-11.3,3.219,3.219,0,0,1,34.4-10.264a4.832,4.832,0,0,1,.882,3.1V0H32.32V-7.1a1.923,1.923,0,0,0-.41-1.369,1.836,1.836,0,0,0-1.364-.426A2.039,2.039,0,0,0,28.67-7.824V0H25.707V-11.095Zm12.582-2.728v2.728h1.9v2.174h-1.9v5.537a1.322,1.322,0,0,0,.236.882,1.184,1.184,0,0,0,.9.267,4.726,4.726,0,0,0,.872-.072V-.062a6.1,6.1,0,0,1-1.794.267q-3.117,0-3.179-3.148V-8.921h-1.62v-2.174h1.62v-2.728ZM51.054,0a3.291,3.291,0,0,1-.3-.995,3.586,3.586,0,0,1-2.8,1.2,3.939,3.939,0,0,1-2.7-.943,3.034,3.034,0,0,1-1.072-2.379,3.135,3.135,0,0,1,1.307-2.707,6.451,6.451,0,0,1,3.779-.954h1.364v-.636a1.828,1.828,0,0,0-.395-1.23,1.553,1.553,0,0,0-1.246-.461,1.766,1.766,0,0,0-1.174.359,1.219,1.219,0,0,0-.426.984H44.43a2.977,2.977,0,0,1,.595-1.784,3.931,3.931,0,0,1,1.682-1.287,6.129,6.129,0,0,1,2.44-.467A4.842,4.842,0,0,1,52.4-10.269a3.605,3.605,0,0,1,1.2,2.9v4.809a5.3,5.3,0,0,0,.441,2.389V0ZM48.6-2.061a2.552,2.552,0,0,0,1.21-.292,1.919,1.919,0,0,0,.82-.784V-5.045H49.526q-2.225,0-2.369,1.538l-.01.174a1.186,1.186,0,0,0,.39.913A1.514,1.514,0,0,0,48.6-2.061Zm13.289-1a.955.955,0,0,0-.538-.856,6.115,6.115,0,0,0-1.728-.559q-3.958-.831-3.958-3.363a3.049,3.049,0,0,1,1.225-2.466,4.943,4.943,0,0,1,3.2-.99,5.32,5.32,0,0,1,3.379.995,3.135,3.135,0,0,1,1.266,2.584H61.78a1.434,1.434,0,0,0-.41-1.051,1.736,1.736,0,0,0-1.282-.415,1.774,1.774,0,0,0-1.159.338,1.068,1.068,0,0,0-.41.861.913.913,0,0,0,.467.795,4.8,4.8,0,0,0,1.574.523,12.856,12.856,0,0,1,1.866.5,3.066,3.066,0,0,1,2.348,2.984,2.894,2.894,0,0,1-1.3,2.456,5.618,5.618,0,0,1-3.363.938,5.867,5.867,0,0,1-2.476-.5,4.155,4.155,0,0,1-1.7-1.364,3.169,3.169,0,0,1-.615-1.871h2.81a1.547,1.547,0,0,0,.584,1.21,2.318,2.318,0,0,0,1.456.42,2.146,2.146,0,0,0,1.287-.323A1,1,0,0,0,61.893-3.066Z" transform="translate(774.836 2008.386)" fill="#12263f"/>
    <path id="Trazado_194871" data-name="Trazado 194871" d="M6.85-3.7,10.233-14.93h3.425L8.459,0H5.25L.072-14.93H3.486ZM19.523.205a5.447,5.447,0,0,1-3.973-1.5,5.321,5.321,0,0,1-1.533-3.989v-.287a6.7,6.7,0,0,1,.646-2.989,4.741,4.741,0,0,1,1.83-2.03,5.137,5.137,0,0,1,2.7-.713,4.6,4.6,0,0,1,3.584,1.436,5.833,5.833,0,0,1,1.307,4.071v1.21H17.021a2.753,2.753,0,0,0,.866,1.743,2.619,2.619,0,0,0,1.83.656,3.2,3.2,0,0,0,2.676-1.241l1.456,1.63a4.449,4.449,0,0,1-1.8,1.471A5.921,5.921,0,0,1,19.523.205Zm-.338-9.116a1.852,1.852,0,0,0-1.43.6,3.093,3.093,0,0,0-.7,1.71h4.122V-6.84a2.206,2.206,0,0,0-.533-1.529A1.91,1.91,0,0,0,19.185-8.911ZM28.5-11.095l.092,1.282A3.874,3.874,0,0,1,31.777-11.3,3.219,3.219,0,0,1,34.4-10.264a4.832,4.832,0,0,1,.882,3.1V0H32.32V-7.1a1.923,1.923,0,0,0-.41-1.369,1.836,1.836,0,0,0-1.364-.426A2.039,2.039,0,0,0,28.67-7.824V0H25.707V-11.095Zm8.572,5.465a6.686,6.686,0,0,1,1.164-4.132A3.776,3.776,0,0,1,41.416-11.3a3.4,3.4,0,0,1,2.676,1.21v-5.66h2.974V0H44.389l-.144-1.179A3.487,3.487,0,0,1,41.4.205a3.766,3.766,0,0,1-3.143-1.543A6.9,6.9,0,0,1,37.068-5.629Zm2.963.221a4.38,4.38,0,0,0,.543,2.393,1.77,1.77,0,0,0,1.579.832,1.983,1.983,0,0,0,1.938-1.16V-7.73a1.954,1.954,0,0,0-1.917-1.16Q40.031-8.89,40.031-5.409ZM54.469.205a5.447,5.447,0,0,1-3.973-1.5,5.321,5.321,0,0,1-1.533-3.989v-.287a6.7,6.7,0,0,1,.646-2.989,4.741,4.741,0,0,1,1.83-2.03,5.137,5.137,0,0,1,2.7-.713,4.6,4.6,0,0,1,3.584,1.436,5.833,5.833,0,0,1,1.307,4.071v1.21H51.967a2.753,2.753,0,0,0,.866,1.743,2.619,2.619,0,0,0,1.83.656A3.2,3.2,0,0,0,57.34-3.425L58.8-1.794a4.449,4.449,0,0,1-1.8,1.471A5.921,5.921,0,0,1,54.469.205ZM54.13-8.911a1.852,1.852,0,0,0-1.43.6A3.093,3.093,0,0,0,52-6.6H56.12V-6.84a2.206,2.206,0,0,0-.533-1.529A1.91,1.91,0,0,0,54.13-8.911Zm6.122,3.281a6.686,6.686,0,0,1,1.164-4.132A3.776,3.776,0,0,1,64.6-11.3a3.4,3.4,0,0,1,2.676,1.21v-5.66H70.25V0H67.573L67.43-1.179A3.487,3.487,0,0,1,64.579.205a3.766,3.766,0,0,1-3.143-1.543A6.9,6.9,0,0,1,60.252-5.629Zm2.963.221a4.38,4.38,0,0,0,.543,2.393,1.77,1.77,0,0,0,1.579.832,1.983,1.983,0,0,0,1.938-1.16V-7.73a1.954,1.954,0,0,0-1.917-1.16Q63.215-8.89,63.215-5.409Zm8.87-.241a6.58,6.58,0,0,1,.636-2.943,4.654,4.654,0,0,1,1.83-2,5.34,5.34,0,0,1,2.774-.708A5.052,5.052,0,0,1,80.99-9.926a5.514,5.514,0,0,1,1.584,3.732l.021.759a5.8,5.8,0,0,1-1.425,4.1A4.954,4.954,0,0,1,77.345.205a4.979,4.979,0,0,1-3.83-1.538,5.9,5.9,0,0,1-1.43-4.184Zm2.963.21a4.147,4.147,0,0,0,.595,2.418,1.962,1.962,0,0,0,1.7.837,1.966,1.966,0,0,0,1.682-.827,4.538,4.538,0,0,0,.6-2.644,4.106,4.106,0,0,0-.6-2.4,1.967,1.967,0,0,0-1.7-.852,1.934,1.934,0,0,0-1.682.847A4.614,4.614,0,0,0,75.048-5.44ZM90.655-8.316A8.051,8.051,0,0,0,89.588-8.4a2.171,2.171,0,0,0-2.2,1.138V0H84.42V-11.095h2.8L87.3-9.772A2.746,2.746,0,0,1,89.773-11.3a3.105,3.105,0,0,1,.923.133Z" transform="translate(378.582 2183.752)" fill="#12263f"/>
    <path id="Trazado_194872" data-name="Trazado 194872" d="M59.387,0c32.8,0,59.387,10.973,59.387,24.509S92.186,49.018,59.387,49.018,0,38.045,0,24.509,26.588,0,59.387,0Z" transform="translate(285 2264.213)" fill="#b8dcfb"/>
    <path id="Trazado_194873" data-name="Trazado 194873" d="M13.053-4.973a5.283,5.283,0,0,1-1.779,3.794A6.248,6.248,0,0,1,7.044.205,5.618,5.618,0,0,1,2.528-1.728,7.925,7.925,0,0,1,.882-7.034v-.913a8.95,8.95,0,0,1,.759-3.794,5.686,5.686,0,0,1,2.169-2.517,6.075,6.075,0,0,1,3.276-.877,6.087,6.087,0,0,1,4.163,1.384,5.677,5.677,0,0,1,1.825,3.886H10a3.118,3.118,0,0,0-.8-2.1,2.981,2.981,0,0,0-2.107-.651,2.614,2.614,0,0,0-2.3,1.1A6.178,6.178,0,0,0,4-8.09v1.128a6.612,6.612,0,0,0,.733,3.538A2.565,2.565,0,0,0,7.044-2.307a3.037,3.037,0,0,0,2.128-.651,2.941,2.941,0,0,0,.8-2.015Zm1.364-.677a6.58,6.58,0,0,1,.636-2.943,4.654,4.654,0,0,1,1.83-2,5.34,5.34,0,0,1,2.774-.708,5.052,5.052,0,0,1,3.666,1.374,5.514,5.514,0,0,1,1.584,3.732l.021.759a5.8,5.8,0,0,1-1.425,4.1A4.954,4.954,0,0,1,19.677.205a4.979,4.979,0,0,1-3.83-1.538,5.9,5.9,0,0,1-1.43-4.184Zm2.963.21a4.147,4.147,0,0,0,.595,2.418,1.962,1.962,0,0,0,1.7.837,1.966,1.966,0,0,0,1.682-.827,4.538,4.538,0,0,0,.6-2.644,4.106,4.106,0,0,0-.6-2.4,1.967,1.967,0,0,0-1.7-.852,1.934,1.934,0,0,0-1.682.847A4.614,4.614,0,0,0,17.38-5.44Zm2.861-10.31h3.23l-2.84,3.179h-2.41Zm6.05,10.121a6.686,6.686,0,0,1,1.164-4.132A3.776,3.776,0,0,1,30.639-11.3a3.4,3.4,0,0,1,2.676,1.21v-5.66h2.974V0H33.612l-.144-1.179A3.487,3.487,0,0,1,30.618.205a3.766,3.766,0,0,1-3.143-1.543A6.9,6.9,0,0,1,26.291-5.629Zm2.963.221A4.38,4.38,0,0,0,29.8-3.016a1.77,1.77,0,0,0,1.579.832,1.983,1.983,0,0,0,1.938-1.16V-7.73A1.954,1.954,0,0,0,31.4-8.89Q29.254-8.89,29.254-5.409ZM41.713,0H38.739V-11.095h2.974ZM38.565-13.966a1.459,1.459,0,0,1,.446-1.1,1.676,1.676,0,0,1,1.215-.431,1.679,1.679,0,0,1,1.21.431,1.451,1.451,0,0,1,.451,1.1,1.455,1.455,0,0,1-.456,1.107,1.684,1.684,0,0,1-1.2.431,1.684,1.684,0,0,1-1.2-.431A1.455,1.455,0,0,1,38.565-13.966Zm5.158,8.336a6.5,6.5,0,0,1,1.215-4.112A3.937,3.937,0,0,1,48.214-11.3a3.453,3.453,0,0,1,2.84,1.251l.123-1.046h2.687V-.369A4.742,4.742,0,0,1,53.2,2.164,4.248,4.248,0,0,1,51.341,3.8a6.543,6.543,0,0,1-2.81.564,6.084,6.084,0,0,1-2.379-.487A4.222,4.222,0,0,1,44.4,2.625L45.712.82A3.471,3.471,0,0,0,48.4,2.061a2.541,2.541,0,0,0,1.835-.631A2.365,2.365,0,0,0,50.89-.359V-.954a3.428,3.428,0,0,1-2.7,1.159,3.927,3.927,0,0,1-3.235-1.564,6.5,6.5,0,0,1-1.236-4.148Zm2.963.221a4.049,4.049,0,0,0,.6,2.367,1.925,1.925,0,0,0,1.661.857A2.058,2.058,0,0,0,50.89-3.2V-7.873A2.053,2.053,0,0,0,48.973-8.89a1.937,1.937,0,0,0-1.677.873A4.563,4.563,0,0,0,46.686-5.409Zm8.993-.241a6.58,6.58,0,0,1,.636-2.943,4.654,4.654,0,0,1,1.83-2,5.34,5.34,0,0,1,2.774-.708,5.052,5.052,0,0,1,3.666,1.374,5.514,5.514,0,0,1,1.584,3.732l.021.759a5.8,5.8,0,0,1-1.425,4.1A4.954,4.954,0,0,1,60.939.205a4.979,4.979,0,0,1-3.83-1.538,5.9,5.9,0,0,1-1.43-4.184Zm2.963.21a4.147,4.147,0,0,0,.595,2.418,1.962,1.962,0,0,0,1.7.837,1.966,1.966,0,0,0,1.682-.827,4.538,4.538,0,0,0,.6-2.644,4.106,4.106,0,0,0-.6-2.4,1.967,1.967,0,0,0-1.7-.852,1.934,1.934,0,0,0-1.682.847A4.614,4.614,0,0,0,58.642-5.44Z" transform="translate(310.251 2292.822)" fill="#12263f"/>
    <path id="Trazado_194874" data-name="Trazado 194874" d="M59.387,0c32.8,0,59.387,10.973,59.387,24.509S92.186,49.018,59.387,49.018,0,38.045,0,24.509,26.588,0,59.387,0Z" transform="translate(451.849 2264.213)" fill="#b8dcfb"/>
    <path id="Trazado_194875" data-name="Trazado 194875" d="M13.474,0H10.4L4.409-9.823V0H1.333V-14.93H4.409l6,9.844V-14.93h3.066ZM15.5-5.65a6.58,6.58,0,0,1,.636-2.943,4.654,4.654,0,0,1,1.83-2,5.34,5.34,0,0,1,2.774-.708,5.052,5.052,0,0,1,3.666,1.374,5.514,5.514,0,0,1,1.584,3.732l.021.759a5.8,5.8,0,0,1-1.425,4.1A4.954,4.954,0,0,1,20.764.205a4.979,4.979,0,0,1-3.83-1.538A5.9,5.9,0,0,1,15.5-5.517Zm2.963.21a4.147,4.147,0,0,0,.595,2.418,1.962,1.962,0,0,0,1.7.837,1.966,1.966,0,0,0,1.682-.827,4.538,4.538,0,0,0,.6-2.644,4.106,4.106,0,0,0-.6-2.4,1.967,1.967,0,0,0-1.7-.852,1.934,1.934,0,0,0-1.682.847A4.614,4.614,0,0,0,18.467-5.44Zm12.151-5.655.092,1.241A3.9,3.9,0,0,1,33.9-11.3a2.959,2.959,0,0,1,2.943,1.692A3.809,3.809,0,0,1,40.175-11.3a3.309,3.309,0,0,1,2.687,1.051,4.831,4.831,0,0,1,.882,3.163V0H40.77V-7.075A2.113,2.113,0,0,0,40.4-8.454a1.636,1.636,0,0,0-1.3-.436,1.85,1.85,0,0,0-1.846,1.271L37.263,0H34.3V-7.065a2.087,2.087,0,0,0-.379-1.395,1.652,1.652,0,0,0-1.292-.431A1.92,1.92,0,0,0,30.8-7.844V0H27.839V-11.095Zm25.4,5.65a6.718,6.718,0,0,1-1.138,4.158A3.77,3.77,0,0,1,51.7.205a3.464,3.464,0,0,1-2.881-1.384L48.686,0H46.02V-15.75h2.963v5.65a3.375,3.375,0,0,1,2.7-1.2,3.8,3.8,0,0,1,3.184,1.492,6.728,6.728,0,0,1,1.154,4.2ZM53.054-5.66a4.414,4.414,0,0,0-.533-2.456,1.8,1.8,0,0,0-1.589-.774,1.955,1.955,0,0,0-1.948,1.159v4.378a1.981,1.981,0,0,0,1.969,1.169A1.83,1.83,0,0,0,52.838-3.6,7.3,7.3,0,0,0,53.054-5.66ZM64.077-8.316A8.051,8.051,0,0,0,63.01-8.4a2.171,2.171,0,0,0-2.2,1.138V0H57.842V-11.095h2.8l.082,1.323A2.746,2.746,0,0,1,63.195-11.3a3.105,3.105,0,0,1,.923.133ZM70.414.205a5.447,5.447,0,0,1-3.973-1.5,5.321,5.321,0,0,1-1.533-3.989v-.287a6.7,6.7,0,0,1,.646-2.989,4.741,4.741,0,0,1,1.83-2.03,5.137,5.137,0,0,1,2.7-.713,4.6,4.6,0,0,1,3.584,1.436,5.833,5.833,0,0,1,1.307,4.071v1.21H67.912a2.753,2.753,0,0,0,.866,1.743,2.619,2.619,0,0,0,1.83.656,3.2,3.2,0,0,0,2.676-1.241l1.456,1.63a4.449,4.449,0,0,1-1.8,1.471A5.921,5.921,0,0,1,70.414.205Zm-.338-9.116a1.852,1.852,0,0,0-1.43.6,3.093,3.093,0,0,0-.7,1.71h4.122V-6.84a2.206,2.206,0,0,0-.533-1.529A1.91,1.91,0,0,0,70.075-8.911Z" transform="translate(472.387 2292.822)" fill="#12263f"/>
    <path id="Trazado_194876" data-name="Trazado 194876" d="M4.6,0H1.528V-14.93H4.6ZM9.987-11.095l.092,1.282A3.874,3.874,0,0,1,13.269-11.3a3.219,3.219,0,0,1,2.625,1.036,4.832,4.832,0,0,1,.882,3.1V0H13.812V-7.1a1.923,1.923,0,0,0-.41-1.369,1.836,1.836,0,0,0-1.364-.426,2.039,2.039,0,0,0-1.876,1.066V0H7.2V-11.095ZM23.174-3.62l2.061-7.475h3.1L24.589,0h-2.83L18.016-11.095h3.1Zm5.845-2.03a6.58,6.58,0,0,1,.636-2.943,4.654,4.654,0,0,1,1.83-2,5.34,5.34,0,0,1,2.774-.708,5.052,5.052,0,0,1,3.666,1.374,5.514,5.514,0,0,1,1.584,3.732l.021.759a5.8,5.8,0,0,1-1.425,4.1A4.954,4.954,0,0,1,34.279.205a4.979,4.979,0,0,1-3.83-1.538,5.9,5.9,0,0,1-1.43-4.184Zm2.963.21a4.147,4.147,0,0,0,.595,2.418,1.962,1.962,0,0,0,1.7.837,1.966,1.966,0,0,0,1.682-.827,4.538,4.538,0,0,0,.6-2.644,4.106,4.106,0,0,0-.6-2.4,1.967,1.967,0,0,0-1.7-.852,1.934,1.934,0,0,0-1.682.847A4.614,4.614,0,0,0,31.982-5.44ZM44.481,0H41.508V-15.75h2.974Zm9.085-1.128A3.716,3.716,0,0,1,50.531.205,3.5,3.5,0,0,1,47.809-.82a4.377,4.377,0,0,1-.959-3v-7.27h2.963v7.176q0,1.735,1.579,1.735a2.14,2.14,0,0,0,2.071-1.047v-7.863h2.974V0H53.648Zm9.721-1.056a1.944,1.944,0,0,0,1.333-.451,1.581,1.581,0,0,0,.533-1.2h2.779a3.8,3.8,0,0,1-.615,2.066A4.06,4.06,0,0,1,65.661-.313a5.183,5.183,0,0,1-2.323.518,4.817,4.817,0,0,1-3.753-1.512,5.985,5.985,0,0,1-1.374-4.178v-.195a5.917,5.917,0,0,1,1.364-4.091A4.761,4.761,0,0,1,63.318-11.3a4.667,4.667,0,0,1,3.338,1.184,4.193,4.193,0,0,1,1.277,3.153H65.153a2.036,2.036,0,0,0-.533-1.407,1.778,1.778,0,0,0-1.354-.541,1.785,1.785,0,0,0-1.564.755,4.374,4.374,0,0,0-.528,2.449V-5.4A4.43,4.43,0,0,0,61.7-2.934,1.807,1.807,0,0,0,63.287-2.184ZM75.858-8.316A8.051,8.051,0,0,0,74.792-8.4a2.171,2.171,0,0,0-2.2,1.138V0H69.624V-11.095h2.8l.082,1.323A2.746,2.746,0,0,1,74.977-11.3a3.105,3.105,0,0,1,.923.133ZM83.405,0a3.291,3.291,0,0,1-.3-.995,3.586,3.586,0,0,1-2.8,1.2,3.939,3.939,0,0,1-2.7-.943,3.034,3.034,0,0,1-1.072-2.379,3.135,3.135,0,0,1,1.307-2.707,6.451,6.451,0,0,1,3.779-.954h1.364v-.636a1.828,1.828,0,0,0-.395-1.23,1.553,1.553,0,0,0-1.246-.461,1.766,1.766,0,0,0-1.174.359,1.219,1.219,0,0,0-.426.984H76.781a2.977,2.977,0,0,1,.595-1.784,3.931,3.931,0,0,1,1.682-1.287A6.129,6.129,0,0,1,81.5-11.3a4.842,4.842,0,0,1,3.256,1.031,3.605,3.605,0,0,1,1.2,2.9v4.809A5.3,5.3,0,0,0,86.4-.174V0ZM80.955-2.061a2.552,2.552,0,0,0,1.21-.292,1.919,1.919,0,0,0,.82-.784V-5.045H81.877q-2.225,0-2.369,1.538l-.01.174a1.186,1.186,0,0,0,.39.913A1.514,1.514,0,0,0,80.955-2.061Z" transform="translate(763.469 2183.751)" fill="#12263f"/>
    <path id="Trazado_194877" data-name="Trazado 194877" d="M12.571-12.438H8V0H4.922V-12.438H.41V-14.93H12.571ZM17.257,0H14.284V-11.095h2.974ZM14.109-13.966a1.459,1.459,0,0,1,.446-1.1,1.676,1.676,0,0,1,1.215-.431,1.679,1.679,0,0,1,1.21.431,1.451,1.451,0,0,1,.451,1.1,1.455,1.455,0,0,1-.456,1.107,1.684,1.684,0,0,1-1.2.431,1.684,1.684,0,0,1-1.2-.431A1.455,1.455,0,0,1,14.109-13.966ZM24.8.205a5.447,5.447,0,0,1-3.973-1.5A5.321,5.321,0,0,1,19.3-5.281v-.287a6.7,6.7,0,0,1,.646-2.989,4.741,4.741,0,0,1,1.83-2.03,5.137,5.137,0,0,1,2.7-.713A4.6,4.6,0,0,1,28.06-9.864a5.833,5.833,0,0,1,1.307,4.071v1.21H22.3a2.753,2.753,0,0,0,.866,1.743A2.619,2.619,0,0,0,25-2.184a3.2,3.2,0,0,0,2.676-1.241l1.456,1.63a4.449,4.449,0,0,1-1.8,1.471A5.921,5.921,0,0,1,24.8.205Zm-.338-9.116a1.852,1.852,0,0,0-1.43.6,3.093,3.093,0,0,0-.7,1.71h4.122V-6.84a2.206,2.206,0,0,0-.533-1.529A1.91,1.91,0,0,0,24.466-8.911Zm9.311-2.184.092,1.282A3.874,3.874,0,0,1,37.058-11.3a3.219,3.219,0,0,1,2.625,1.036,4.832,4.832,0,0,1,.882,3.1V0H37.6V-7.1a1.923,1.923,0,0,0-.41-1.369,1.836,1.836,0,0,0-1.364-.426,2.039,2.039,0,0,0-1.876,1.066V0H30.987V-11.095ZM47.917.205a5.447,5.447,0,0,1-3.973-1.5A5.321,5.321,0,0,1,42.41-5.281v-.287a6.7,6.7,0,0,1,.646-2.989,4.741,4.741,0,0,1,1.83-2.03,5.137,5.137,0,0,1,2.7-.713,4.6,4.6,0,0,1,3.584,1.436,5.833,5.833,0,0,1,1.307,4.071v1.21H45.415a2.753,2.753,0,0,0,.866,1.743,2.619,2.619,0,0,0,1.83.656,3.2,3.2,0,0,0,2.676-1.241l1.456,1.63a4.449,4.449,0,0,1-1.8,1.471A5.921,5.921,0,0,1,47.917.205Zm-.338-9.116a1.852,1.852,0,0,0-1.43.6,3.093,3.093,0,0,0-.7,1.71h4.122V-6.84a2.206,2.206,0,0,0-.533-1.529A1.91,1.91,0,0,0,47.578-8.911Z" transform="translate(1025.449 2291.879)" fill="#12263f"/>
    <path id="Trazado_194878" data-name="Trazado 194878" d="M9.762-3.076H4.368L3.343,0H.072L5.629-14.93H8.48L14.068,0H10.8ZM5.2-5.568H8.931L7.055-11.156ZM18.4,0H15.422V-15.75H18.4Zm5.219-11.095.092,1.241A3.9,3.9,0,0,1,26.9-11.3a2.959,2.959,0,0,1,2.943,1.692A3.809,3.809,0,0,1,33.171-11.3a3.309,3.309,0,0,1,2.687,1.051,4.831,4.831,0,0,1,.882,3.163V0H33.766V-7.075A2.113,2.113,0,0,0,33.4-8.454a1.636,1.636,0,0,0-1.3-.436,1.85,1.85,0,0,0-1.846,1.271L30.259,0H27.3V-7.065a2.087,2.087,0,0,0-.379-1.395,1.652,1.652,0,0,0-1.292-.431A1.92,1.92,0,0,0,23.8-7.844V0H20.836V-11.095ZM45.445,0a3.291,3.291,0,0,1-.3-.995,3.586,3.586,0,0,1-2.8,1.2,3.939,3.939,0,0,1-2.7-.943,3.034,3.034,0,0,1-1.072-2.379,3.135,3.135,0,0,1,1.307-2.707,6.451,6.451,0,0,1,3.779-.954h1.364v-.636a1.828,1.828,0,0,0-.395-1.23,1.553,1.553,0,0,0-1.246-.461,1.766,1.766,0,0,0-1.174.359,1.219,1.219,0,0,0-.426.984H38.821a2.977,2.977,0,0,1,.595-1.784A3.931,3.931,0,0,1,41.1-10.833a6.129,6.129,0,0,1,2.44-.467,4.842,4.842,0,0,1,3.256,1.031,3.605,3.605,0,0,1,1.2,2.9v4.809a5.3,5.3,0,0,0,.441,2.389V0ZM42.995-2.061a2.552,2.552,0,0,0,1.21-.292,1.919,1.919,0,0,0,.82-.784V-5.045H43.917q-2.225,0-2.369,1.538l-.01.174a1.186,1.186,0,0,0,.39.913A1.514,1.514,0,0,0,42.995-2.061Zm11.895-.123a1.944,1.944,0,0,0,1.333-.451,1.581,1.581,0,0,0,.533-1.2h2.779a3.8,3.8,0,0,1-.615,2.066A4.06,4.06,0,0,1,57.263-.313,5.183,5.183,0,0,1,54.94.205a4.817,4.817,0,0,1-3.753-1.512,5.985,5.985,0,0,1-1.374-4.178v-.195a5.917,5.917,0,0,1,1.364-4.091A4.761,4.761,0,0,1,54.92-11.3a4.667,4.667,0,0,1,3.338,1.184,4.193,4.193,0,0,1,1.277,3.153H56.755a2.036,2.036,0,0,0-.533-1.407,1.778,1.778,0,0,0-1.354-.541,1.785,1.785,0,0,0-1.564.755,4.374,4.374,0,0,0-.528,2.449V-5.4A4.43,4.43,0,0,0,53.3-2.934,1.807,1.807,0,0,0,54.889-2.184ZM66.333.205a5.447,5.447,0,0,1-3.973-1.5,5.321,5.321,0,0,1-1.533-3.989v-.287a6.7,6.7,0,0,1,.646-2.989,4.741,4.741,0,0,1,1.83-2.03A5.137,5.137,0,0,1,66-11.3a4.6,4.6,0,0,1,3.584,1.436A5.833,5.833,0,0,1,70.9-5.793v1.21H63.831A2.753,2.753,0,0,0,64.7-2.84a2.619,2.619,0,0,0,1.83.656A3.2,3.2,0,0,0,69.2-3.425l1.456,1.63a4.449,4.449,0,0,1-1.8,1.471A5.921,5.921,0,0,1,66.333.205Zm-.338-9.116a1.852,1.852,0,0,0-1.43.6,3.093,3.093,0,0,0-.7,1.71h4.122V-6.84A2.206,2.206,0,0,0,67.45-8.37,1.91,1.91,0,0,0,65.994-8.911Zm.267-6.839h3.23l-2.84,3.179h-2.41ZM75.3-11.095,75.4-9.813A3.874,3.874,0,0,1,78.586-11.3a3.219,3.219,0,0,1,2.625,1.036,4.832,4.832,0,0,1,.882,3.1V0H79.129V-7.1a1.923,1.923,0,0,0-.41-1.369,1.836,1.836,0,0,0-1.364-.426,2.039,2.039,0,0,0-1.876,1.066V0H72.516V-11.095Z" transform="translate(1009.193 2183.751)" fill="#12263f"/>
    <path id="Trazado_194879" data-name="Trazado 194879" d="M13.053-4.973a5.283,5.283,0,0,1-1.779,3.794A6.248,6.248,0,0,1,7.044.205,5.618,5.618,0,0,1,2.528-1.728,7.925,7.925,0,0,1,.882-7.034v-.913a8.95,8.95,0,0,1,.759-3.794,5.686,5.686,0,0,1,2.169-2.517,6.075,6.075,0,0,1,3.276-.877,6.087,6.087,0,0,1,4.163,1.384,5.677,5.677,0,0,1,1.825,3.886H10a3.118,3.118,0,0,0-.8-2.1,2.981,2.981,0,0,0-2.107-.651,2.614,2.614,0,0,0-2.3,1.1A6.178,6.178,0,0,0,4-8.09v1.128a6.612,6.612,0,0,0,.733,3.538A2.565,2.565,0,0,0,7.044-2.307a3.037,3.037,0,0,0,2.128-.651,2.941,2.941,0,0,0,.8-2.015Zm1.364-.677a6.58,6.58,0,0,1,.636-2.943,4.654,4.654,0,0,1,1.83-2,5.34,5.34,0,0,1,2.774-.708,5.052,5.052,0,0,1,3.666,1.374,5.514,5.514,0,0,1,1.584,3.732l.021.759a5.8,5.8,0,0,1-1.425,4.1A4.954,4.954,0,0,1,19.677.205a4.979,4.979,0,0,1-3.83-1.538,5.9,5.9,0,0,1-1.43-4.184Zm2.963.21a4.147,4.147,0,0,0,.595,2.418,1.962,1.962,0,0,0,1.7.837,1.966,1.966,0,0,0,1.682-.827,4.538,4.538,0,0,0,.6-2.644,4.106,4.106,0,0,0-.6-2.4,1.967,1.967,0,0,0-1.7-.852,1.934,1.934,0,0,0-1.682.847A4.614,4.614,0,0,0,17.38-5.44Zm2.861-10.31h3.23l-2.84,3.179h-2.41Zm6.05,10.121a6.686,6.686,0,0,1,1.164-4.132A3.776,3.776,0,0,1,30.639-11.3a3.4,3.4,0,0,1,2.676,1.21v-5.66h2.974V0H33.612l-.144-1.179A3.487,3.487,0,0,1,30.618.205a3.766,3.766,0,0,1-3.143-1.543A6.9,6.9,0,0,1,26.291-5.629Zm2.963.221A4.38,4.38,0,0,0,29.8-3.016a1.77,1.77,0,0,0,1.579.832,1.983,1.983,0,0,0,1.938-1.16V-7.73A1.954,1.954,0,0,0,31.4-8.89Q29.254-8.89,29.254-5.409ZM41.713,0H38.739V-11.095h2.974ZM38.565-13.966a1.459,1.459,0,0,1,.446-1.1,1.676,1.676,0,0,1,1.215-.431,1.679,1.679,0,0,1,1.21.431,1.451,1.451,0,0,1,.451,1.1,1.455,1.455,0,0,1-.456,1.107,1.684,1.684,0,0,1-1.2.431,1.684,1.684,0,0,1-1.2-.431A1.455,1.455,0,0,1,38.565-13.966Zm5.158,8.336a6.5,6.5,0,0,1,1.215-4.112A3.937,3.937,0,0,1,48.214-11.3a3.453,3.453,0,0,1,2.84,1.251l.123-1.046h2.687V-.369A4.742,4.742,0,0,1,53.2,2.164,4.248,4.248,0,0,1,51.341,3.8a6.543,6.543,0,0,1-2.81.564,6.084,6.084,0,0,1-2.379-.487A4.222,4.222,0,0,1,44.4,2.625L45.712.82A3.471,3.471,0,0,0,48.4,2.061a2.541,2.541,0,0,0,1.835-.631A2.365,2.365,0,0,0,50.89-.359V-.954a3.428,3.428,0,0,1-2.7,1.159,3.927,3.927,0,0,1-3.235-1.564,6.5,6.5,0,0,1-1.236-4.148Zm2.963.221a4.049,4.049,0,0,0,.6,2.367,1.925,1.925,0,0,0,1.661.857A2.058,2.058,0,0,0,50.89-3.2V-7.873A2.053,2.053,0,0,0,48.973-8.89a1.937,1.937,0,0,0-1.677.873A4.563,4.563,0,0,0,46.686-5.409Zm8.993-.241a6.58,6.58,0,0,1,.636-2.943,4.654,4.654,0,0,1,1.83-2,5.34,5.34,0,0,1,2.774-.708,5.052,5.052,0,0,1,3.666,1.374,5.514,5.514,0,0,1,1.584,3.732l.021.759a5.8,5.8,0,0,1-1.425,4.1A4.954,4.954,0,0,1,60.939.205a4.979,4.979,0,0,1-3.83-1.538,5.9,5.9,0,0,1-1.43-4.184Zm2.963.21a4.147,4.147,0,0,0,.595,2.418,1.962,1.962,0,0,0,1.7.837,1.966,1.966,0,0,0,1.682-.827,4.538,4.538,0,0,0,.6-2.644,4.106,4.106,0,0,0-.6-2.4,1.967,1.967,0,0,0-1.7-.852,1.934,1.934,0,0,0-1.682.847A4.614,4.614,0,0,0,58.642-5.44Z" transform="translate(1017.986 2080.727)" fill="#12263f"/>
    <path id="Trazado_194880" data-name="Trazado 194880" d="M12.633-14.93V-5.1A5.035,5.035,0,0,1,11.1-1.22,5.91,5.91,0,0,1,6.911.205,5.976,5.976,0,0,1,2.758-1.179a4.949,4.949,0,0,1-1.569-3.8V-14.93H4.266v9.854a2.845,2.845,0,0,0,.7,2.138,2.7,2.7,0,0,0,1.943.672q2.594,0,2.635-2.728V-14.93ZM24.958-5.445A6.718,6.718,0,0,1,23.82-1.287,3.77,3.77,0,0,1,20.641.205,3.464,3.464,0,0,1,17.76-1.179L17.626,0H14.96V-15.75h2.963v5.65a3.375,3.375,0,0,1,2.7-1.2A3.8,3.8,0,0,1,23.8-9.808a6.728,6.728,0,0,1,1.154,4.2ZM21.995-5.66a4.414,4.414,0,0,0-.533-2.456,1.8,1.8,0,0,0-1.589-.774,1.955,1.955,0,0,0-1.948,1.159v4.378a1.981,1.981,0,0,0,1.969,1.169A1.83,1.83,0,0,0,21.779-3.6,7.3,7.3,0,0,0,21.995-5.66ZM29.911,0H26.937V-11.095h2.974ZM26.763-13.966a1.459,1.459,0,0,1,.446-1.1,1.676,1.676,0,0,1,1.215-.431,1.679,1.679,0,0,1,1.21.431,1.451,1.451,0,0,1,.451,1.1,1.455,1.455,0,0,1-.456,1.107,1.684,1.684,0,0,1-1.2.431,1.684,1.684,0,0,1-1.2-.431A1.455,1.455,0,0,1,26.763-13.966Zm10.2,11.782A1.944,1.944,0,0,0,38.3-2.635a1.581,1.581,0,0,0,.533-1.2H41.61A3.8,3.8,0,0,1,41-1.769,4.06,4.06,0,0,1,39.339-.313a5.183,5.183,0,0,1-2.323.518,4.817,4.817,0,0,1-3.753-1.512A5.985,5.985,0,0,1,31.89-5.486v-.195a5.917,5.917,0,0,1,1.364-4.091A4.761,4.761,0,0,1,37-11.3a4.667,4.667,0,0,1,3.338,1.184A4.193,4.193,0,0,1,41.61-6.962H38.832A2.036,2.036,0,0,0,38.3-8.369a1.778,1.778,0,0,0-1.354-.541,1.785,1.785,0,0,0-1.564.755,4.374,4.374,0,0,0-.528,2.449V-5.4a4.43,4.43,0,0,0,.523,2.465A1.807,1.807,0,0,0,36.965-2.184ZM49.731,0a3.291,3.291,0,0,1-.3-.995,3.586,3.586,0,0,1-2.8,1.2,3.939,3.939,0,0,1-2.7-.943,3.034,3.034,0,0,1-1.072-2.379,3.135,3.135,0,0,1,1.307-2.707,6.451,6.451,0,0,1,3.779-.954h1.364v-.636a1.828,1.828,0,0,0-.395-1.23,1.553,1.553,0,0,0-1.246-.461,1.766,1.766,0,0,0-1.174.359,1.219,1.219,0,0,0-.426.984H43.107A2.977,2.977,0,0,1,43.7-9.546a3.931,3.931,0,0,1,1.682-1.287,6.129,6.129,0,0,1,2.44-.467,4.842,4.842,0,0,1,3.256,1.031,3.605,3.605,0,0,1,1.2,2.9v4.809a5.3,5.3,0,0,0,.441,2.389V0ZM47.281-2.061a2.552,2.552,0,0,0,1.21-.292,1.919,1.919,0,0,0,.82-.784V-5.045H48.2q-2.225,0-2.369,1.538l-.01.174a1.186,1.186,0,0,0,.39.913A1.514,1.514,0,0,0,47.281-2.061Zm11.895-.123a1.944,1.944,0,0,0,1.333-.451,1.581,1.581,0,0,0,.533-1.2H63.82a3.8,3.8,0,0,1-.615,2.066A4.06,4.06,0,0,1,61.549-.313a5.183,5.183,0,0,1-2.323.518,4.817,4.817,0,0,1-3.753-1.512A5.985,5.985,0,0,1,54.1-5.486v-.195a5.917,5.917,0,0,1,1.364-4.091A4.761,4.761,0,0,1,59.206-11.3a4.667,4.667,0,0,1,3.338,1.184A4.193,4.193,0,0,1,63.82-6.962H61.042a2.036,2.036,0,0,0-.533-1.407,1.778,1.778,0,0,0-1.354-.541,1.785,1.785,0,0,0-1.564.755,4.374,4.374,0,0,0-.528,2.449V-5.4a4.43,4.43,0,0,0,.523,2.465A1.807,1.807,0,0,0,59.175-2.184ZM68.64,0H65.666V-11.095H68.64ZM65.492-13.966a1.459,1.459,0,0,1,.446-1.1,1.676,1.676,0,0,1,1.215-.431,1.679,1.679,0,0,1,1.21.431,1.451,1.451,0,0,1,.451,1.1,1.455,1.455,0,0,1-.456,1.107,1.684,1.684,0,0,1-1.2.431,1.684,1.684,0,0,1-1.2-.431A1.455,1.455,0,0,1,65.492-13.966ZM70.619-5.65a6.58,6.58,0,0,1,.636-2.943,4.654,4.654,0,0,1,1.83-2,5.34,5.34,0,0,1,2.774-.708,5.052,5.052,0,0,1,3.666,1.374,5.514,5.514,0,0,1,1.584,3.732l.021.759a5.8,5.8,0,0,1-1.425,4.1A4.954,4.954,0,0,1,75.879.205a4.979,4.979,0,0,1-3.83-1.538,5.9,5.9,0,0,1-1.43-4.184Zm2.963.21a4.147,4.147,0,0,0,.595,2.418,1.962,1.962,0,0,0,1.7.837,1.966,1.966,0,0,0,1.682-.827,4.538,4.538,0,0,0,.6-2.644,4.106,4.106,0,0,0-.6-2.4,1.967,1.967,0,0,0-1.7-.852,1.934,1.934,0,0,0-1.682.847A4.614,4.614,0,0,0,73.582-5.44Zm2.861-10.31h3.23l-2.84,3.179h-2.41Zm9.239,4.655.092,1.282A3.874,3.874,0,0,1,88.963-11.3a3.219,3.219,0,0,1,2.625,1.036,4.832,4.832,0,0,1,.882,3.1V0H89.506V-7.1a1.923,1.923,0,0,0-.41-1.369,1.836,1.836,0,0,0-1.364-.426,2.039,2.039,0,0,0-1.876,1.066V0H82.893V-11.095Z" transform="translate(1189.427 2183.751)" fill="#12263f"/>
    <path id="Trazado_194881" data-name="Trazado 194881" d="M13.053-4.973a5.283,5.283,0,0,1-1.779,3.794A6.248,6.248,0,0,1,7.044.205,5.618,5.618,0,0,1,2.528-1.728,7.925,7.925,0,0,1,.882-7.034v-.913a8.95,8.95,0,0,1,.759-3.794,5.686,5.686,0,0,1,2.169-2.517,6.075,6.075,0,0,1,3.276-.877,6.087,6.087,0,0,1,4.163,1.384,5.677,5.677,0,0,1,1.825,3.886H10a3.118,3.118,0,0,0-.8-2.1,2.981,2.981,0,0,0-2.107-.651,2.614,2.614,0,0,0-2.3,1.1A6.178,6.178,0,0,0,4-8.09v1.128a6.612,6.612,0,0,0,.733,3.538A2.565,2.565,0,0,0,7.044-2.307a3.037,3.037,0,0,0,2.128-.651,2.941,2.941,0,0,0,.8-2.015ZM18.006,0H15.032V-15.75h2.974Zm5.568,0H20.6V-11.095h2.974ZM20.426-13.966a1.459,1.459,0,0,1,.446-1.1,1.676,1.676,0,0,1,1.215-.431,1.679,1.679,0,0,1,1.21.431,1.451,1.451,0,0,1,.451,1.1,1.455,1.455,0,0,1-.456,1.107,1.684,1.684,0,0,1-1.2.431,1.684,1.684,0,0,1-1.2-.431A1.455,1.455,0,0,1,20.426-13.966ZM31.121.205a5.447,5.447,0,0,1-3.973-1.5,5.321,5.321,0,0,1-1.533-3.989v-.287a6.7,6.7,0,0,1,.646-2.989,4.741,4.741,0,0,1,1.83-2.03,5.137,5.137,0,0,1,2.7-.713,4.6,4.6,0,0,1,3.584,1.436,5.833,5.833,0,0,1,1.307,4.071v1.21H28.619a2.753,2.753,0,0,0,.866,1.743,2.619,2.619,0,0,0,1.83.656,3.2,3.2,0,0,0,2.676-1.241l1.456,1.63a4.449,4.449,0,0,1-1.8,1.471A5.921,5.921,0,0,1,31.121.205Zm-.338-9.116a1.852,1.852,0,0,0-1.43.6,3.093,3.093,0,0,0-.7,1.71h4.122V-6.84a2.206,2.206,0,0,0-.533-1.529A1.91,1.91,0,0,0,30.782-8.911Zm9.311-2.184.092,1.282A3.874,3.874,0,0,1,43.374-11.3,3.219,3.219,0,0,1,46-10.264a4.832,4.832,0,0,1,.882,3.1V0H43.917V-7.1a1.923,1.923,0,0,0-.41-1.369,1.836,1.836,0,0,0-1.364-.426,2.039,2.039,0,0,0-1.876,1.066V0H37.3V-11.095Zm12.582-2.728v2.728h1.9v2.174h-1.9v5.537a1.322,1.322,0,0,0,.236.882,1.184,1.184,0,0,0,.9.267,4.726,4.726,0,0,0,.872-.072V-.062A6.1,6.1,0,0,1,52.89.205q-3.117,0-3.179-3.148V-8.921h-1.62v-2.174h1.62v-2.728ZM61.329.205a5.447,5.447,0,0,1-3.973-1.5,5.321,5.321,0,0,1-1.533-3.989v-.287a6.7,6.7,0,0,1,.646-2.989,4.741,4.741,0,0,1,1.83-2.03A5.137,5.137,0,0,1,61-11.3a4.6,4.6,0,0,1,3.584,1.436,5.833,5.833,0,0,1,1.307,4.071v1.21H58.827a2.753,2.753,0,0,0,.866,1.743,2.619,2.619,0,0,0,1.83.656A3.2,3.2,0,0,0,64.2-3.425l1.456,1.63a4.449,4.449,0,0,1-1.8,1.471A5.921,5.921,0,0,1,61.329.205ZM60.99-8.911a1.852,1.852,0,0,0-1.43.6,3.093,3.093,0,0,0-.7,1.71h4.122V-6.84a2.206,2.206,0,0,0-.533-1.529A1.91,1.91,0,0,0,60.99-8.911Z" transform="translate(774.599 2327.7)" fill="#12263f"/>
    <path id="Trazado_194882" data-name="Trazado 194882" d="M13.053-4.973a5.283,5.283,0,0,1-1.779,3.794A6.248,6.248,0,0,1,7.044.205,5.618,5.618,0,0,1,2.528-1.728,7.925,7.925,0,0,1,.882-7.034v-.913a8.95,8.95,0,0,1,.759-3.794,5.686,5.686,0,0,1,2.169-2.517,6.075,6.075,0,0,1,3.276-.877,6.087,6.087,0,0,1,4.163,1.384,5.677,5.677,0,0,1,1.825,3.886H10a3.118,3.118,0,0,0-.8-2.1,2.981,2.981,0,0,0-2.107-.651,2.614,2.614,0,0,0-2.3,1.1A6.178,6.178,0,0,0,4-8.09v1.128a6.612,6.612,0,0,0,.733,3.538A2.565,2.565,0,0,0,7.044-2.307a3.037,3.037,0,0,0,2.128-.651,2.941,2.941,0,0,0,.8-2.015ZM19.985.205a5.447,5.447,0,0,1-3.973-1.5,5.321,5.321,0,0,1-1.533-3.989v-.287a6.7,6.7,0,0,1,.646-2.989,4.741,4.741,0,0,1,1.83-2.03,5.137,5.137,0,0,1,2.7-.713A4.6,4.6,0,0,1,23.24-9.864a5.833,5.833,0,0,1,1.307,4.071v1.21H17.483a2.753,2.753,0,0,0,.866,1.743,2.619,2.619,0,0,0,1.83.656,3.2,3.2,0,0,0,2.676-1.241l1.456,1.63a4.449,4.449,0,0,1-1.8,1.471A5.921,5.921,0,0,1,19.985.205Zm-.338-9.116a1.852,1.852,0,0,0-1.43.6,3.093,3.093,0,0,0-.7,1.71h4.122V-6.84A2.206,2.206,0,0,0,21.1-8.37,1.91,1.91,0,0,0,19.646-8.911Zm6.122,3.281a6.686,6.686,0,0,1,1.164-4.132A3.776,3.776,0,0,1,30.116-11.3a3.4,3.4,0,0,1,2.676,1.21v-5.66h2.974V0H33.089l-.144-1.179A3.487,3.487,0,0,1,30.1.205a3.766,3.766,0,0,1-3.143-1.543A6.9,6.9,0,0,1,25.768-5.629Zm2.963.221a4.38,4.38,0,0,0,.543,2.393,1.77,1.77,0,0,0,1.579.832,1.983,1.983,0,0,0,1.938-1.16V-7.73a1.954,1.954,0,0,0-1.917-1.16Q28.731-8.89,28.731-5.409ZM44.707-1.128A3.716,3.716,0,0,1,41.672.205,3.5,3.5,0,0,1,38.949-.82a4.377,4.377,0,0,1-.959-3v-7.27h2.963v7.176q0,1.735,1.579,1.735A2.14,2.14,0,0,0,44.6-3.231v-7.863h2.974V0H44.789ZM52.941,0H49.967V-15.75h2.974Zm8.87,0a3.291,3.291,0,0,1-.3-.995,3.586,3.586,0,0,1-2.8,1.2,3.939,3.939,0,0,1-2.7-.943A3.034,3.034,0,0,1,54.94-3.117a3.135,3.135,0,0,1,1.307-2.707,6.451,6.451,0,0,1,3.779-.954H61.39v-.636A1.828,1.828,0,0,0,61-8.644a1.553,1.553,0,0,0-1.246-.461,1.766,1.766,0,0,0-1.174.359,1.219,1.219,0,0,0-.426.984H55.187a2.977,2.977,0,0,1,.595-1.784,3.931,3.931,0,0,1,1.682-1.287A6.129,6.129,0,0,1,59.9-11.3a4.842,4.842,0,0,1,3.256,1.031,3.605,3.605,0,0,1,1.2,2.9v4.809A5.3,5.3,0,0,0,64.8-.174V0ZM59.36-2.061a2.552,2.552,0,0,0,1.21-.292,1.919,1.919,0,0,0,.82-.784V-5.045H60.283q-2.225,0-2.369,1.538l-.01.174a1.186,1.186,0,0,0,.39.913A1.514,1.514,0,0,0,59.36-2.061Z" transform="translate(571.048 2393.217)" fill="#12263f"/>
    <path id="Trazado_194883" data-name="Trazado 194883" d="M13.474,0H10.4L4.409-9.823V0H1.333V-14.93H4.409l6,9.844V-14.93h3.066ZM15.5-5.65a6.58,6.58,0,0,1,.636-2.943,4.654,4.654,0,0,1,1.83-2,5.34,5.34,0,0,1,2.774-.708,5.052,5.052,0,0,1,3.666,1.374,5.514,5.514,0,0,1,1.584,3.732l.021.759a5.8,5.8,0,0,1-1.425,4.1A4.954,4.954,0,0,1,20.764.205a4.979,4.979,0,0,1-3.83-1.538A5.9,5.9,0,0,1,15.5-5.517Zm2.963.21a4.147,4.147,0,0,0,.595,2.418,1.962,1.962,0,0,0,1.7.837,1.966,1.966,0,0,0,1.682-.827,4.538,4.538,0,0,0,.6-2.644,4.106,4.106,0,0,0-.6-2.4,1.967,1.967,0,0,0-1.7-.852,1.934,1.934,0,0,0-1.682.847A4.614,4.614,0,0,0,18.467-5.44Zm12.151-5.655.092,1.241A3.9,3.9,0,0,1,33.9-11.3a2.959,2.959,0,0,1,2.943,1.692A3.809,3.809,0,0,1,40.175-11.3a3.309,3.309,0,0,1,2.687,1.051,4.831,4.831,0,0,1,.882,3.163V0H40.77V-7.075A2.113,2.113,0,0,0,40.4-8.454a1.636,1.636,0,0,0-1.3-.436,1.85,1.85,0,0,0-1.846,1.271L37.263,0H34.3V-7.065a2.087,2.087,0,0,0-.379-1.395,1.652,1.652,0,0,0-1.292-.431A1.92,1.92,0,0,0,30.8-7.844V0H27.839V-11.095Zm25.4,5.65a6.718,6.718,0,0,1-1.138,4.158A3.77,3.77,0,0,1,51.7.205a3.464,3.464,0,0,1-2.881-1.384L48.686,0H46.02V-15.75h2.963v5.65a3.375,3.375,0,0,1,2.7-1.2,3.8,3.8,0,0,1,3.184,1.492,6.728,6.728,0,0,1,1.154,4.2ZM53.054-5.66a4.414,4.414,0,0,0-.533-2.456,1.8,1.8,0,0,0-1.589-.774,1.955,1.955,0,0,0-1.948,1.159v4.378a1.981,1.981,0,0,0,1.969,1.169A1.83,1.83,0,0,0,52.838-3.6,7.3,7.3,0,0,0,53.054-5.66ZM64.077-8.316A8.051,8.051,0,0,0,63.01-8.4a2.171,2.171,0,0,0-2.2,1.138V0H57.842V-11.095h2.8l.082,1.323A2.746,2.746,0,0,1,63.195-11.3a3.105,3.105,0,0,1,.923.133ZM70.414.205a5.447,5.447,0,0,1-3.973-1.5,5.321,5.321,0,0,1-1.533-3.989v-.287a6.7,6.7,0,0,1,.646-2.989,4.741,4.741,0,0,1,1.83-2.03,5.137,5.137,0,0,1,2.7-.713,4.6,4.6,0,0,1,3.584,1.436,5.833,5.833,0,0,1,1.307,4.071v1.21H67.912a2.753,2.753,0,0,0,.866,1.743,2.619,2.619,0,0,0,1.83.656,3.2,3.2,0,0,0,2.676-1.241l1.456,1.63a4.449,4.449,0,0,1-1.8,1.471A5.921,5.921,0,0,1,70.414.205Zm-.338-9.116a1.852,1.852,0,0,0-1.43.6,3.093,3.093,0,0,0-.7,1.71h4.122V-6.84a2.206,2.206,0,0,0-.533-1.529A1.91,1.91,0,0,0,70.075-8.911Z" transform="translate(769.6 2463.442)" fill="#12263f"/>
    <path id="Trazado_194884" data-name="Trazado 194884" d="M13.053-4.973a5.283,5.283,0,0,1-1.779,3.794A6.248,6.248,0,0,1,7.044.205,5.618,5.618,0,0,1,2.528-1.728,7.925,7.925,0,0,1,.882-7.034v-.913a8.95,8.95,0,0,1,.759-3.794,5.686,5.686,0,0,1,2.169-2.517,6.075,6.075,0,0,1,3.276-.877,6.087,6.087,0,0,1,4.163,1.384,5.677,5.677,0,0,1,1.825,3.886H10a3.118,3.118,0,0,0-.8-2.1,2.981,2.981,0,0,0-2.107-.651,2.614,2.614,0,0,0-2.3,1.1A6.178,6.178,0,0,0,4-8.09v1.128a6.612,6.612,0,0,0,.733,3.538A2.565,2.565,0,0,0,7.044-2.307a3.037,3.037,0,0,0,2.128-.651,2.941,2.941,0,0,0,.8-2.015Zm1.364-.677a6.58,6.58,0,0,1,.636-2.943,4.654,4.654,0,0,1,1.83-2,5.34,5.34,0,0,1,2.774-.708,5.052,5.052,0,0,1,3.666,1.374,5.514,5.514,0,0,1,1.584,3.732l.021.759a5.8,5.8,0,0,1-1.425,4.1A4.954,4.954,0,0,1,19.677.205a4.979,4.979,0,0,1-3.83-1.538,5.9,5.9,0,0,1-1.43-4.184Zm2.963.21a4.147,4.147,0,0,0,.595,2.418,1.962,1.962,0,0,0,1.7.837,1.966,1.966,0,0,0,1.682-.827,4.538,4.538,0,0,0,.6-2.644,4.106,4.106,0,0,0-.6-2.4,1.967,1.967,0,0,0-1.7-.852,1.934,1.934,0,0,0-1.682.847A4.614,4.614,0,0,0,17.38-5.44Zm2.861-10.31h3.23l-2.84,3.179h-2.41Zm6.05,10.121a6.686,6.686,0,0,1,1.164-4.132A3.776,3.776,0,0,1,30.639-11.3a3.4,3.4,0,0,1,2.676,1.21v-5.66h2.974V0H33.612l-.144-1.179A3.487,3.487,0,0,1,30.618.205a3.766,3.766,0,0,1-3.143-1.543A6.9,6.9,0,0,1,26.291-5.629Zm2.963.221A4.38,4.38,0,0,0,29.8-3.016a1.77,1.77,0,0,0,1.579.832,1.983,1.983,0,0,0,1.938-1.16V-7.73A1.954,1.954,0,0,0,31.4-8.89Q29.254-8.89,29.254-5.409ZM41.713,0H38.739V-11.095h2.974ZM38.565-13.966a1.459,1.459,0,0,1,.446-1.1,1.676,1.676,0,0,1,1.215-.431,1.679,1.679,0,0,1,1.21.431,1.451,1.451,0,0,1,.451,1.1,1.455,1.455,0,0,1-.456,1.107,1.684,1.684,0,0,1-1.2.431,1.684,1.684,0,0,1-1.2-.431A1.455,1.455,0,0,1,38.565-13.966Zm5.158,8.336a6.5,6.5,0,0,1,1.215-4.112A3.937,3.937,0,0,1,48.214-11.3a3.453,3.453,0,0,1,2.84,1.251l.123-1.046h2.687V-.369A4.742,4.742,0,0,1,53.2,2.164,4.248,4.248,0,0,1,51.341,3.8a6.543,6.543,0,0,1-2.81.564,6.084,6.084,0,0,1-2.379-.487A4.222,4.222,0,0,1,44.4,2.625L45.712.82A3.471,3.471,0,0,0,48.4,2.061a2.541,2.541,0,0,0,1.835-.631A2.365,2.365,0,0,0,50.89-.359V-.954a3.428,3.428,0,0,1-2.7,1.159,3.927,3.927,0,0,1-3.235-1.564,6.5,6.5,0,0,1-1.236-4.148Zm2.963.221a4.049,4.049,0,0,0,.6,2.367,1.925,1.925,0,0,0,1.661.857A2.058,2.058,0,0,0,50.89-3.2V-7.873A2.053,2.053,0,0,0,48.973-8.89a1.937,1.937,0,0,0-1.677.873A4.563,4.563,0,0,0,46.686-5.409Zm8.993-.241a6.58,6.58,0,0,1,.636-2.943,4.654,4.654,0,0,1,1.83-2,5.34,5.34,0,0,1,2.774-.708,5.052,5.052,0,0,1,3.666,1.374,5.514,5.514,0,0,1,1.584,3.732l.021.759a5.8,5.8,0,0,1-1.425,4.1A4.954,4.954,0,0,1,60.939.205a4.979,4.979,0,0,1-3.83-1.538,5.9,5.9,0,0,1-1.43-4.184Zm2.963.21a4.147,4.147,0,0,0,.595,2.418,1.962,1.962,0,0,0,1.7.837,1.966,1.966,0,0,0,1.682-.827,4.538,4.538,0,0,0,.6-2.644,4.106,4.106,0,0,0-.6-2.4,1.967,1.967,0,0,0-1.7-.852,1.934,1.934,0,0,0-1.682.847A4.614,4.614,0,0,0,58.642-5.44ZM76.228,2.317H66.886V0h9.341ZM86.01-3.076H80.616L79.591,0H76.32l5.558-14.93h2.851L90.316,0H87.045ZM81.447-5.568h3.732L83.3-11.156ZM94.644,0H91.67V-15.75h2.974Zm5.219-11.095.092,1.241a3.9,3.9,0,0,1,3.189-1.446,2.959,2.959,0,0,1,2.943,1.692,3.809,3.809,0,0,1,3.333-1.692,3.309,3.309,0,0,1,2.687,1.051,4.831,4.831,0,0,1,.882,3.163V0h-2.974V-7.075a2.113,2.113,0,0,0-.369-1.379,1.636,1.636,0,0,0-1.3-.436A1.85,1.85,0,0,0,106.5-7.619L106.507,0h-2.963V-7.065a2.087,2.087,0,0,0-.379-1.395,1.652,1.652,0,0,0-1.292-.431,1.92,1.92,0,0,0-1.825,1.046V0H97.084V-11.095ZM121.693,0a3.291,3.291,0,0,1-.3-.995,3.586,3.586,0,0,1-2.8,1.2,3.939,3.939,0,0,1-2.7-.943,3.034,3.034,0,0,1-1.072-2.379,3.135,3.135,0,0,1,1.307-2.707,6.451,6.451,0,0,1,3.779-.954h1.364v-.636a1.828,1.828,0,0,0-.395-1.23,1.553,1.553,0,0,0-1.246-.461,1.766,1.766,0,0,0-1.174.359,1.219,1.219,0,0,0-.426.984h-2.963a2.977,2.977,0,0,1,.595-1.784,3.931,3.931,0,0,1,1.682-1.287,6.129,6.129,0,0,1,2.44-.467,4.842,4.842,0,0,1,3.256,1.031,3.605,3.605,0,0,1,1.2,2.9v4.809a5.3,5.3,0,0,0,.441,2.389V0Zm-2.451-2.061a2.552,2.552,0,0,0,1.21-.292,1.919,1.919,0,0,0,.82-.784V-5.045h-1.107q-2.225,0-2.369,1.538l-.01.174a1.186,1.186,0,0,0,.39.913A1.514,1.514,0,0,0,119.243-2.061Zm11.895-.123a1.944,1.944,0,0,0,1.333-.451,1.581,1.581,0,0,0,.533-1.2h2.779a3.8,3.8,0,0,1-.615,2.066,4.06,4.06,0,0,1-1.656,1.456,5.183,5.183,0,0,1-2.323.518,4.817,4.817,0,0,1-3.753-1.512,5.985,5.985,0,0,1-1.374-4.178v-.195a5.917,5.917,0,0,1,1.364-4.091,4.761,4.761,0,0,1,3.743-1.528,4.667,4.667,0,0,1,3.338,1.184,4.193,4.193,0,0,1,1.277,3.153H133a2.036,2.036,0,0,0-.533-1.407,1.778,1.778,0,0,0-1.354-.541,1.785,1.785,0,0,0-1.564.755,4.374,4.374,0,0,0-.528,2.449V-5.4a4.43,4.43,0,0,0,.523,2.465A1.807,1.807,0,0,0,131.137-2.184ZM142.581.205a5.447,5.447,0,0,1-3.973-1.5,5.321,5.321,0,0,1-1.533-3.989v-.287a6.7,6.7,0,0,1,.646-2.989,4.741,4.741,0,0,1,1.83-2.03,5.137,5.137,0,0,1,2.7-.713,4.6,4.6,0,0,1,3.584,1.436,5.833,5.833,0,0,1,1.307,4.071v1.21h-7.065a2.753,2.753,0,0,0,.866,1.743,2.619,2.619,0,0,0,1.83.656,3.2,3.2,0,0,0,2.676-1.241l1.456,1.63a4.449,4.449,0,0,1-1.8,1.471A5.921,5.921,0,0,1,142.581.205Zm-.338-9.116a1.852,1.852,0,0,0-1.43.6,3.093,3.093,0,0,0-.7,1.71h4.122V-6.84A2.206,2.206,0,0,0,143.7-8.37,1.91,1.91,0,0,0,142.242-8.911Zm9.311-2.184.092,1.282a3.874,3.874,0,0,1,3.189-1.487,3.219,3.219,0,0,1,2.625,1.036,4.832,4.832,0,0,1,.882,3.1V0h-2.963V-7.1a1.923,1.923,0,0,0-.41-1.369A1.836,1.836,0,0,0,153.6-8.89a2.039,2.039,0,0,0-1.876,1.066V0h-2.963V-11.095Z" transform="translate(944.149 2393.217)" fill="#12263f"/>
    <path id="Trazado_194885" data-name="Trazado 194885" d="M13.053-4.973a5.283,5.283,0,0,1-1.779,3.794A6.248,6.248,0,0,1,7.044.205,5.618,5.618,0,0,1,2.528-1.728,7.925,7.925,0,0,1,.882-7.034v-.913a8.95,8.95,0,0,1,.759-3.794,5.686,5.686,0,0,1,2.169-2.517,6.075,6.075,0,0,1,3.276-.877,6.087,6.087,0,0,1,4.163,1.384,5.677,5.677,0,0,1,1.825,3.886H10a3.118,3.118,0,0,0-.8-2.1,2.981,2.981,0,0,0-2.107-.651,2.614,2.614,0,0,0-2.3,1.1A6.178,6.178,0,0,0,4-8.09v1.128a6.612,6.612,0,0,0,.733,3.538A2.565,2.565,0,0,0,7.044-2.307a3.037,3.037,0,0,0,2.128-.651,2.941,2.941,0,0,0,.8-2.015Zm1.364-.677a6.58,6.58,0,0,1,.636-2.943,4.654,4.654,0,0,1,1.83-2,5.34,5.34,0,0,1,2.774-.708,5.052,5.052,0,0,1,3.666,1.374,5.514,5.514,0,0,1,1.584,3.732l.021.759a5.8,5.8,0,0,1-1.425,4.1A4.954,4.954,0,0,1,19.677.205a4.979,4.979,0,0,1-3.83-1.538,5.9,5.9,0,0,1-1.43-4.184Zm2.963.21a4.147,4.147,0,0,0,.595,2.418,1.962,1.962,0,0,0,1.7.837,1.966,1.966,0,0,0,1.682-.827,4.538,4.538,0,0,0,.6-2.644,4.106,4.106,0,0,0-.6-2.4,1.967,1.967,0,0,0-1.7-.852,1.934,1.934,0,0,0-1.682.847A4.614,4.614,0,0,0,17.38-5.44Zm2.861-10.31h3.23l-2.84,3.179h-2.41Zm6.05,10.121a6.686,6.686,0,0,1,1.164-4.132A3.776,3.776,0,0,1,30.639-11.3a3.4,3.4,0,0,1,2.676,1.21v-5.66h2.974V0H33.612l-.144-1.179A3.487,3.487,0,0,1,30.618.205a3.766,3.766,0,0,1-3.143-1.543A6.9,6.9,0,0,1,26.291-5.629Zm2.963.221A4.38,4.38,0,0,0,29.8-3.016a1.77,1.77,0,0,0,1.579.832,1.983,1.983,0,0,0,1.938-1.16V-7.73A1.954,1.954,0,0,0,31.4-8.89Q29.254-8.89,29.254-5.409ZM41.713,0H38.739V-11.095h2.974ZM38.565-13.966a1.459,1.459,0,0,1,.446-1.1,1.676,1.676,0,0,1,1.215-.431,1.679,1.679,0,0,1,1.21.431,1.451,1.451,0,0,1,.451,1.1,1.455,1.455,0,0,1-.456,1.107,1.684,1.684,0,0,1-1.2.431,1.684,1.684,0,0,1-1.2-.431A1.455,1.455,0,0,1,38.565-13.966Zm5.158,8.336a6.5,6.5,0,0,1,1.215-4.112A3.937,3.937,0,0,1,48.214-11.3a3.453,3.453,0,0,1,2.84,1.251l.123-1.046h2.687V-.369A4.742,4.742,0,0,1,53.2,2.164,4.248,4.248,0,0,1,51.341,3.8a6.543,6.543,0,0,1-2.81.564,6.084,6.084,0,0,1-2.379-.487A4.222,4.222,0,0,1,44.4,2.625L45.712.82A3.471,3.471,0,0,0,48.4,2.061a2.541,2.541,0,0,0,1.835-.631A2.365,2.365,0,0,0,50.89-.359V-.954a3.428,3.428,0,0,1-2.7,1.159,3.927,3.927,0,0,1-3.235-1.564,6.5,6.5,0,0,1-1.236-4.148Zm2.963.221a4.049,4.049,0,0,0,.6,2.367,1.925,1.925,0,0,0,1.661.857A2.058,2.058,0,0,0,50.89-3.2V-7.873A2.053,2.053,0,0,0,48.973-8.89a1.937,1.937,0,0,0-1.677.873A4.563,4.563,0,0,0,46.686-5.409Zm8.993-.241a6.58,6.58,0,0,1,.636-2.943,4.654,4.654,0,0,1,1.83-2,5.34,5.34,0,0,1,2.774-.708,5.052,5.052,0,0,1,3.666,1.374,5.514,5.514,0,0,1,1.584,3.732l.021.759a5.8,5.8,0,0,1-1.425,4.1A4.954,4.954,0,0,1,60.939.205a4.979,4.979,0,0,1-3.83-1.538,5.9,5.9,0,0,1-1.43-4.184Zm2.963.21a4.147,4.147,0,0,0,.595,2.418,1.962,1.962,0,0,0,1.7.837,1.966,1.966,0,0,0,1.682-.827,4.538,4.538,0,0,0,.6-2.644,4.106,4.106,0,0,0-.6-2.4,1.967,1.967,0,0,0-1.7-.852,1.934,1.934,0,0,0-1.682.847A4.614,4.614,0,0,0,58.642-5.44ZM78.955-3.7,82.339-14.93h3.425L80.565,0H77.355L72.177-14.93h3.415ZM91.629.205a5.447,5.447,0,0,1-3.973-1.5,5.321,5.321,0,0,1-1.533-3.989v-.287a6.7,6.7,0,0,1,.646-2.989,4.741,4.741,0,0,1,1.83-2.03,5.137,5.137,0,0,1,2.7-.713,4.6,4.6,0,0,1,3.584,1.436,5.833,5.833,0,0,1,1.307,4.071v1.21H89.127a2.753,2.753,0,0,0,.866,1.743,2.619,2.619,0,0,0,1.83.656A3.2,3.2,0,0,0,94.5-3.425l1.456,1.63a4.449,4.449,0,0,1-1.8,1.471A5.921,5.921,0,0,1,91.629.205Zm-.338-9.116a1.852,1.852,0,0,0-1.43.6,3.093,3.093,0,0,0-.7,1.71H93.28V-6.84a2.206,2.206,0,0,0-.533-1.529A1.91,1.91,0,0,0,91.291-8.911Zm9.311-2.184.092,1.282a3.874,3.874,0,0,1,3.189-1.487,3.219,3.219,0,0,1,2.625,1.036,4.832,4.832,0,0,1,.882,3.1V0h-2.963V-7.1a1.923,1.923,0,0,0-.41-1.369,1.836,1.836,0,0,0-1.364-.426,2.039,2.039,0,0,0-1.876,1.066V0H97.812V-11.095Zm8.572,5.465a6.686,6.686,0,0,1,1.164-4.132,3.776,3.776,0,0,1,3.184-1.538,3.4,3.4,0,0,1,2.676,1.21v-5.66h2.974V0h-2.676l-.144-1.179A3.487,3.487,0,0,1,113.5.205a3.766,3.766,0,0,1-3.143-1.543A6.9,6.9,0,0,1,109.173-5.629Zm2.963.221a4.38,4.38,0,0,0,.543,2.393,1.77,1.77,0,0,0,1.579.832,1.983,1.983,0,0,0,1.938-1.16V-7.73a1.954,1.954,0,0,0-1.917-1.16Q112.137-8.89,112.137-5.409ZM126.574.205a5.447,5.447,0,0,1-3.973-1.5,5.321,5.321,0,0,1-1.533-3.989v-.287a6.7,6.7,0,0,1,.646-2.989,4.741,4.741,0,0,1,1.83-2.03,5.137,5.137,0,0,1,2.7-.713,4.6,4.6,0,0,1,3.584,1.436,5.833,5.833,0,0,1,1.307,4.071v1.21h-7.065a2.753,2.753,0,0,0,.866,1.743,2.619,2.619,0,0,0,1.83.656,3.2,3.2,0,0,0,2.676-1.241l1.456,1.63a4.449,4.449,0,0,1-1.8,1.471A5.921,5.921,0,0,1,126.574.205Zm-.338-9.116a1.852,1.852,0,0,0-1.43.6,3.093,3.093,0,0,0-.7,1.71h4.122V-6.84a2.206,2.206,0,0,0-.533-1.529A1.91,1.91,0,0,0,126.236-8.911Zm6.122,3.281a6.686,6.686,0,0,1,1.164-4.132,3.776,3.776,0,0,1,3.184-1.538,3.4,3.4,0,0,1,2.676,1.21v-5.66h2.974V0h-2.676l-.144-1.179A3.487,3.487,0,0,1,136.685.205a3.766,3.766,0,0,1-3.143-1.543A6.9,6.9,0,0,1,132.357-5.629Zm2.963.221a4.38,4.38,0,0,0,.543,2.393,1.77,1.77,0,0,0,1.579.832,1.983,1.983,0,0,0,1.938-1.16V-7.73a1.954,1.954,0,0,0-1.917-1.16Q135.321-8.89,135.321-5.409Zm8.87-.241a6.58,6.58,0,0,1,.636-2.943,4.654,4.654,0,0,1,1.83-2,5.34,5.34,0,0,1,2.774-.708A5.052,5.052,0,0,1,153.1-9.926a5.514,5.514,0,0,1,1.584,3.732l.021.759a5.8,5.8,0,0,1-1.425,4.1A4.954,4.954,0,0,1,149.451.205a4.979,4.979,0,0,1-3.83-1.538,5.9,5.9,0,0,1-1.43-4.184Zm2.963.21a4.147,4.147,0,0,0,.595,2.418,1.962,1.962,0,0,0,1.7.837,1.966,1.966,0,0,0,1.682-.827,4.538,4.538,0,0,0,.6-2.644,4.106,4.106,0,0,0-.6-2.4,1.967,1.967,0,0,0-1.7-.852,1.934,1.934,0,0,0-1.682.847A4.614,4.614,0,0,0,147.154-5.44ZM162.76-8.316a8.051,8.051,0,0,0-1.066-.082,2.171,2.171,0,0,0-2.2,1.138V0h-2.963V-11.095h2.8l.082,1.323a2.746,2.746,0,0,1,2.471-1.528,3.105,3.105,0,0,1,.923.133Z" transform="translate(506.745 1942.63)" fill="#12263f"/>
    <path id="Trazado_194886" data-name="Trazado 194886" d="M8.213,0H5.25V-11.423l-3.538,1.1v-2.41L7.9-14.95h.318Z" transform="translate(502.234 2073.686)"/>
    <path id="Trazado_194887" data-name="Trazado 194887" d="M8.213,0H5.25V-11.423l-3.538,1.1v-2.41L7.9-14.95h.318Z" transform="translate(838.486 2256.56)" fill="#12263f"/>
    <path id="Trazado_194888" data-name="Trazado 194888" d="M8.213,0H5.25V-11.423l-3.538,1.1v-2.41L7.9-14.95h.318Z" transform="translate(1109.302 2279.184)" fill="#12263f"/>
    <path id="Trazado_194889" data-name="Trazado 194889" d="M3.73-10.566l.088,1.182a3.713,3.713,0,0,1,3.037-1.377,2.818,2.818,0,0,1,2.8,1.611,3.628,3.628,0,0,1,3.174-1.611,3.152,3.152,0,0,1,2.559,1,4.6,4.6,0,0,1,.84,3.013V0H13.4V-6.738a2.012,2.012,0,0,0-.352-1.313,1.558,1.558,0,0,0-1.24-.415,1.761,1.761,0,0,0-1.758,1.211L10.059,0H7.236V-6.729a1.988,1.988,0,0,0-.361-1.328,1.573,1.573,0,0,0-1.23-.41,1.829,1.829,0,0,0-1.738,1V0H1.084V-10.566Z" transform="translate(664.37 2080.228)" fill="#12263f"/>
    <path id="Trazado_194890" data-name="Trazado 194890" d="M5.353-14.93,9.188-4.1,13-14.93h4.04V0H13.956V-4.081l.308-7.044L10.233,0H8.121L4.1-11.115l.308,7.034V0H1.333V-14.93Z" transform="translate(835.067 2124.589)" fill="#12263f"/>
    <path id="Trazado_194891" data-name="Trazado 194891" d="M5.353-14.93,9.188-4.1,13-14.93h4.04V0H13.956V-4.081l.308-7.044L10.233,0H8.121L4.1-11.115l.308,7.034V0H1.333V-14.93Z" transform="translate(979.215 2279.184)" fill="#12263f"/>
    <path id="Trazado_194892" data-name="Trazado 194892" d="M162.858,35.545,0,0" transform="translate(596.7 1959.265)" fill="none" stroke="#b8dcfb" stroke-width="2.896"/>
    <path id="Trazado_194893" data-name="Trazado 194893" d="M0,145,346.9,0" transform="translate(421.367 2015.823)" fill="none" stroke="#b8dcfb" stroke-width="2.896"/>
    <path id="Trazado_194894" data-name="Trazado 194894" d="M0,0,58.565,63.387" transform="translate(453.296 2203.184)" fill="none" stroke="#b8dcfb" stroke-width="2.896"/>
    <path id="Trazado_194895" data-name="Trazado 194895" d="M69.074,0,0,63.387" transform="translate(342.185 2203.184)" fill="none" stroke="#b8dcfb" stroke-width="2.896"/>
    <path id="Trazado_194896" data-name="Trazado 194896" d="M156.219,0,0,49.961" transform="translate(601.674 2318.415)" fill="none" stroke="#b8dcfb" stroke-width="2.896"/>
    <path id="Trazado_194897" data-name="Trazado 194897" d="M0,0,159.43,29.222" transform="translate(866.647 2339.153)" fill="none" stroke="#b8dcfb" stroke-width="2.896"/>
    <path id="Trazado_194898" data-name="Trazado 194898" d="M0,3.771,164.021,0" transform="translate(867.241 2303.332)" fill="none" stroke="#b8dcfb" stroke-width="2.896"/>
    <path id="Trazado_189305" data-name="Trazado 189305" d="M6699.965,11124.118l-72.329-45.193,72.329-43.417,72.328,43.417Z" transform="translate(-6105.15 -8988.563)" fill="#b8dcfb"/>
    <path id="Trazado_194899" data-name="Trazado 194899" d="M6.86-5.465H4.409V0H1.333V-14.93H6.88a6.271,6.271,0,0,1,4.081,1.179A4.07,4.07,0,0,1,12.4-10.418a4.593,4.593,0,0,1-.661,2.548,4.511,4.511,0,0,1-2,1.625l3.23,6.1V0h-3.3ZM4.409-7.957H6.891a2.541,2.541,0,0,0,1.794-.59,2.107,2.107,0,0,0,.636-1.625,2.256,2.256,0,0,0-.6-1.661,2.493,2.493,0,0,0-1.841-.6H4.409ZM19.646.205a5.447,5.447,0,0,1-3.973-1.5A5.321,5.321,0,0,1,14.14-5.281v-.287a6.7,6.7,0,0,1,.646-2.989,4.741,4.741,0,0,1,1.83-2.03,5.137,5.137,0,0,1,2.7-.713A4.6,4.6,0,0,1,22.9-9.864a5.833,5.833,0,0,1,1.307,4.071v1.21H17.145a2.753,2.753,0,0,0,.866,1.743,2.619,2.619,0,0,0,1.83.656,3.2,3.2,0,0,0,2.676-1.241l1.456,1.63a4.449,4.449,0,0,1-1.8,1.471A5.921,5.921,0,0,1,19.646.205Zm-.338-9.116a1.852,1.852,0,0,0-1.43.6,3.093,3.093,0,0,0-.7,1.71H21.3V-6.84a2.206,2.206,0,0,0-.533-1.529A1.91,1.91,0,0,0,19.308-8.911ZM29.019,0H26.045V-15.75h2.974Zm8.87,0a3.291,3.291,0,0,1-.3-.995,3.586,3.586,0,0,1-2.8,1.2,3.939,3.939,0,0,1-2.7-.943,3.034,3.034,0,0,1-1.072-2.379,3.135,3.135,0,0,1,1.307-2.707A6.451,6.451,0,0,1,36.1-6.778h1.364v-.636a1.828,1.828,0,0,0-.395-1.23,1.553,1.553,0,0,0-1.246-.461,1.766,1.766,0,0,0-1.174.359,1.219,1.219,0,0,0-.426.984H31.264a2.977,2.977,0,0,1,.595-1.784,3.931,3.931,0,0,1,1.682-1.287,6.129,6.129,0,0,1,2.44-.467,4.842,4.842,0,0,1,3.256,1.031,3.605,3.605,0,0,1,1.2,2.9v4.809a5.3,5.3,0,0,0,.441,2.389V0ZM35.438-2.061a2.552,2.552,0,0,0,1.21-.292,1.919,1.919,0,0,0,.82-.784V-5.045H36.36q-2.225,0-2.369,1.538l-.01.174a1.186,1.186,0,0,0,.39.913A1.514,1.514,0,0,0,35.438-2.061Zm11.895-.123a1.944,1.944,0,0,0,1.333-.451,1.581,1.581,0,0,0,.533-1.2h2.779a3.8,3.8,0,0,1-.615,2.066A4.06,4.06,0,0,1,49.706-.313a5.183,5.183,0,0,1-2.323.518A4.817,4.817,0,0,1,43.63-1.307a5.985,5.985,0,0,1-1.374-4.178v-.195A5.917,5.917,0,0,1,43.62-9.772,4.761,4.761,0,0,1,47.363-11.3,4.667,4.667,0,0,1,50.7-10.115a4.193,4.193,0,0,1,1.277,3.153H49.2a2.036,2.036,0,0,0-.533-1.407,1.778,1.778,0,0,0-1.354-.541,1.785,1.785,0,0,0-1.564.755,4.374,4.374,0,0,0-.528,2.449V-5.4a4.43,4.43,0,0,0,.523,2.465A1.807,1.807,0,0,0,47.332-2.184ZM56.8,0H53.823V-11.095H56.8ZM53.648-13.966a1.459,1.459,0,0,1,.446-1.1,1.676,1.676,0,0,1,1.215-.431,1.679,1.679,0,0,1,1.21.431,1.451,1.451,0,0,1,.451,1.1,1.455,1.455,0,0,1-.456,1.107,1.684,1.684,0,0,1-1.2.431,1.684,1.684,0,0,1-1.2-.431A1.455,1.455,0,0,1,53.648-13.966ZM58.775-5.65a6.58,6.58,0,0,1,.636-2.943,4.654,4.654,0,0,1,1.83-2,5.34,5.34,0,0,1,2.774-.708,5.052,5.052,0,0,1,3.666,1.374,5.514,5.514,0,0,1,1.584,3.732l.021.759a5.8,5.8,0,0,1-1.425,4.1A4.954,4.954,0,0,1,64.036.205a4.979,4.979,0,0,1-3.83-1.538,5.9,5.9,0,0,1-1.43-4.184Zm2.963.21a4.147,4.147,0,0,0,.595,2.418,1.962,1.962,0,0,0,1.7.837,1.966,1.966,0,0,0,1.682-.827,4.538,4.538,0,0,0,.6-2.644,4.106,4.106,0,0,0-.6-2.4,1.967,1.967,0,0,0-1.7-.852,1.934,1.934,0,0,0-1.682.847A4.614,4.614,0,0,0,61.739-5.44ZM64.6-15.75h3.23l-2.84,3.179H62.58Zm9.239,4.655.092,1.282A3.874,3.874,0,0,1,77.12-11.3a3.219,3.219,0,0,1,2.625,1.036,4.832,4.832,0,0,1,.882,3.1V0H77.663V-7.1a1.923,1.923,0,0,0-.41-1.369,1.836,1.836,0,0,0-1.364-.426,2.039,2.039,0,0,0-1.876,1.066V0H71.049V-11.095Z" transform="translate(550.788 2095.352)" fill="#12263f"/>
    <path id="Trazado_194900" data-name="Trazado 194900" d="M0,35.545,162.858,0" transform="translate(841.716 1959.265)" fill="none" stroke="#b8dcfb" stroke-width="2.896"/>
  </g>
</svg>
