<svg xmlns="http://www.w3.org/2000/svg" width="157.342" height="60.517" viewBox="0 0 157.342 60.517">
  <g id="_5" data-name="5" transform="translate(-4191.356 -2703.412)">
    <ellipse id="Elipse_5237" data-name="Elipse 5237" cx="78.671" cy="30.258" rx="78.671" ry="30.258" transform="translate(4191.356 2703.412)" fill="#0c4a91"/>
    <path id="Trazado_194851" data-name="Trazado 194851" d="M-22.176-2.125h-3.758L-26.59,0h-2.93l4.172-11.375h2.578L-18.566,0h-2.945Zm-3.1-2.117h2.445l-1.227-3.945Zm10.352-6.312v2.1h1.391v1.828h-1.391v3.867a.987.987,0,0,0,.172.664.922.922,0,0,0,.68.188,3.862,3.862,0,0,0,.656-.047V-.07A4.859,4.859,0,0,1-14.9.156,2.758,2.758,0,0,1-16.91-.484a2.626,2.626,0,0,1-.648-1.945v-4.2h-1.078V-8.453h1.078v-2.1ZM-7.387-6.07l-.867-.062a1.558,1.558,0,0,0-1.594.781V0H-12.48V-8.453h2.469l.086,1.086A2.039,2.039,0,0,1-8.074-8.609a2.567,2.567,0,0,1,.734.094ZM-3.66,0H-6.3V-8.453H-3.66Zm-2.8-10.633a1.175,1.175,0,0,1,.406-.922A1.533,1.533,0,0,1-5-11.914a1.533,1.533,0,0,1,1.055.359,1.175,1.175,0,0,1,.406.922,1.175,1.175,0,0,1-.406.922A1.533,1.533,0,0,1-5-9.352a1.533,1.533,0,0,1-1.055-.359A1.175,1.175,0,0,1-6.457-10.633ZM5.809-4.156a5.152,5.152,0,0,1-.859,3.2A2.878,2.878,0,0,1,2.527.156,2.5,2.5,0,0,1,.449-.867L.34,0H-2.02V-12H.613v4.227a2.41,2.41,0,0,1,1.9-.836A2.879,2.879,0,0,1,4.949-7.477a5.179,5.179,0,0,1,.859,3.188ZM3.168-4.324a3.437,3.437,0,0,0-.324-1.735,1.093,1.093,0,0,0-1-.519A1.261,1.261,0,0,0,.613-5.9v3.354a1.268,1.268,0,0,0,1.25.671,1.118,1.118,0,0,0,1.18-.9A6.5,6.5,0,0,0,3.168-4.324ZM12-.914A2.714,2.714,0,0,1,9.746.156,2.662,2.662,0,0,1,7.641-.652a3.4,3.4,0,0,1-.715-2.324V-8.453H9.559v5.492a.946.946,0,0,0,1.055,1.086A1.376,1.376,0,0,0,11.9-2.523v-5.93h2.648V0H12.082Zm7.055-9.641v2.1h1.391v1.828H19.059v3.867a.987.987,0,0,0,.172.664.922.922,0,0,0,.68.188,3.862,3.862,0,0,0,.656-.047V-.07a4.859,4.859,0,0,1-1.484.227,2.758,2.758,0,0,1-2.008-.641,2.626,2.626,0,0,1-.648-1.945v-4.2H15.348V-8.453h1.078v-2.1ZM20.918-4.3a4.989,4.989,0,0,1,.492-2.254,3.52,3.52,0,0,1,1.414-1.52,4.259,4.259,0,0,1,2.164-.531A3.887,3.887,0,0,1,27.98-7.434a4.512,4.512,0,0,1,1.094,3.2v.094A4.378,4.378,0,0,1,27.977-1,3.9,3.9,0,0,1,25,.156a3.942,3.942,0,0,1-2.9-1.082,4.232,4.232,0,0,1-1.18-2.934Zm2.633.164a3.145,3.145,0,0,0,.367,1.719A1.223,1.223,0,0,0,25-1.875q1.406,0,1.438-2.164V-4.3q0-2.273-1.453-2.273-1.32,0-1.43,1.961Z" transform="translate(4269.924 2740.57)" fill="#fff"/>
    <line id="Línea_500" data-name="Línea 500" x2="58.824" transform="translate(4240.176 2745.017)" fill="none" stroke="#fff" stroke-miterlimit="10" stroke-width="1.232"/>
  </g>
</svg>
