<svg xmlns="http://www.w3.org/2000/svg" width="172.676" height="123.34" viewBox="0 0 172.676 123.34">
  <g id="Grupo_131779" data-name="Grupo 131779" transform="translate(-3713.073 -2672)">
    <g id="c1">
      <path id="Trazado_194404" data-name="Trazado 194404" d="M3799.411,2795.34l-86.338-61.67,86.338-61.67,86.338,61.67Z" fill="#0c4a91"/>
      <path id="Trazado_195268" data-name="Trazado 195268" d="M-26.293-4.023h-1.484V0H-30.52V-11.375h4.477a5,5,0,0,1,3.164.9,3.041,3.041,0,0,1,1.141,2.536,3.693,3.693,0,0,1-.48,1.967,3.41,3.41,0,0,1-1.5,1.264l2.375,4.593V0h-2.937Zm-1.484-2.109h1.734a1.557,1.557,0,0,0,1.176-.411,1.59,1.59,0,0,0,.395-1.147,1.608,1.608,0,0,0-.4-1.155,1.542,1.542,0,0,0-1.172-.419h-1.734ZM-16.113.156A4.345,4.345,0,0,1-19.262-1a4.006,4.006,0,0,1-1.2-3.02v-.219a5.191,5.191,0,0,1,.48-2.289,3.516,3.516,0,0,1,1.4-1.535,4.233,4.233,0,0,1,2.188-.543A3.659,3.659,0,0,1-13.582-7.5a4.344,4.344,0,0,1,1.031,3.082V-3.4h-5.234a1.9,1.9,0,0,0,.617,1.117,1.836,1.836,0,0,0,1.234.406A2.366,2.366,0,0,0-13.98-2.75l1.2,1.422A3.363,3.363,0,0,1-14.172-.246,4.713,4.713,0,0,1-16.113.156Zm-.3-6.734q-1.156,0-1.375,1.531h2.656v-.2a1.3,1.3,0,0,0-.32-.98A1.275,1.275,0,0,0-16.41-6.578ZM-8.715,0h-2.641V-12h2.641Zm6.383,0a2.973,2.973,0,0,1-.25-.758A2.448,2.448,0,0,1-4.613.156,3,3,0,0,1-6.645-.566,2.3,2.3,0,0,1-7.48-2.383,2.364,2.364,0,0,1-6.465-4.461a5.174,5.174,0,0,1,2.953-.7H-2.7v-.448q0-1.17-1.008-1.17a.824.824,0,0,0-.937.926H-7.277a2.36,2.36,0,0,1,1.043-1.99,4.383,4.383,0,0,1,2.66-.765A3.843,3.843,0,0,1-1.02-7.82,2.743,2.743,0,0,1-.059-5.656v3.742A3.832,3.832,0,0,0,.3-.133V0ZM-3.98-1.719a1.469,1.469,0,0,0,.816-.211A1.322,1.322,0,0,0-2.7-2.406V-3.758h-.766q-1.375,0-1.375,1.234a.754.754,0,0,0,.242.582A.876.876,0,0,0-3.98-1.719Zm8.953-.156a1.171,1.171,0,0,0,.859-.3,1.1,1.1,0,0,0,.3-.84H8.6a2.922,2.922,0,0,1-1,2.281A3.705,3.705,0,0,1,5.035.156,3.751,3.751,0,0,1,2.129-1,4.556,4.556,0,0,1,1.066-4.2v-.109a5.149,5.149,0,0,1,.473-2.262A3.441,3.441,0,0,1,2.9-8.082a4.065,4.065,0,0,1,2.109-.527A3.658,3.658,0,0,1,7.629-7.7,3.242,3.242,0,0,1,8.6-5.219H6.129a1.445,1.445,0,0,0-.32-1.008,1.106,1.106,0,0,0-.859-.352q-1.023,0-1.2,1.3A9.206,9.206,0,0,0,3.7-4.133,3.616,3.616,0,0,0,4-2.367,1.055,1.055,0,0,0,4.973-1.875ZM12.488,0H9.848V-8.453h2.641Zm-2.8-10.633a1.175,1.175,0,0,1,.406-.922,1.533,1.533,0,0,1,1.055-.359,1.533,1.533,0,0,1,1.055.359,1.175,1.175,0,0,1,.406.922,1.175,1.175,0,0,1-.406.922,1.533,1.533,0,0,1-1.055.359A1.533,1.533,0,0,1,10.1-9.711,1.175,1.175,0,0,1,9.691-10.633ZM13.777-4.3a4.989,4.989,0,0,1,.492-2.254,3.52,3.52,0,0,1,1.414-1.52,4.259,4.259,0,0,1,2.164-.531A3.887,3.887,0,0,1,20.84-7.434a4.512,4.512,0,0,1,1.094,3.2v.094A4.378,4.378,0,0,1,20.836-1,3.9,3.9,0,0,1,17.863.156a3.942,3.942,0,0,1-2.9-1.082,4.232,4.232,0,0,1-1.18-2.934Zm2.633.164a3.145,3.145,0,0,0,.367,1.719,1.223,1.223,0,0,0,1.086.547q1.406,0,1.438-2.164V-4.3q0-2.273-1.453-2.273-1.32,0-1.43,1.961ZM18.207-12h2.781L18.816-9.547l-2.148,0Zm7.3,3.547.086.992a2.867,2.867,0,0,1,2.414-1.148,2.412,2.412,0,0,1,1.973.789,3.757,3.757,0,0,1,.676,2.375V0H28.02V-5.336a1.426,1.426,0,0,0-.258-.941,1.193,1.193,0,0,0-.937-.3,1.256,1.256,0,0,0-1.148.609V0H23.043V-8.453Z" transform="translate(3799.409 2740.744)" fill="#fff"/>
    </g>
  </g>
</svg>
