<svg xmlns="http://www.w3.org/2000/svg" xmlns:xlink="http://www.w3.org/1999/xlink" width="308" height="305" viewBox="0 0 308 305">
  <defs>
    <clipPath id="clip-path">
      <rect id="Rectángulo_294179" data-name="Rectángulo 294179" width="308" height="305" transform="translate(876.332 252.563)" fill="#fff" stroke="#707070" stroke-width="1"/>
    </clipPath>
    <linearGradient id="linear-gradient" x1="-11.349" y1="3.258" x2="-11.352" y2="2.175" gradientUnits="objectBoundingBox">
      <stop offset="0" stop-color="#ff9085"/>
      <stop offset="1" stop-color="#fb6fbb"/>
    </linearGradient>
    <linearGradient id="linear-gradient-2" x1="-11.349" y1="3.258" x2="-11.352" y2="2.175" xlink:href="#linear-gradient"/>
    <linearGradient id="linear-gradient-5" x1="-11.349" y1="3.258" x2="-11.352" y2="2.175" xlink:href="#linear-gradient"/>
    <linearGradient id="linear-gradient-8" y1="0.5" x2="1" y2="0.5" gradientUnits="objectBoundingBox">
      <stop offset="0" stop-color="#5ab6ff"/>
      <stop offset="1" stop-color="#2f68e3"/>
    </linearGradient>
    <linearGradient id="linear-gradient-9" x1="0.979" y1="0.471" x2="-0.62" y2="0.672" xlink:href="#linear-gradient-8"/>
    <linearGradient id="linear-gradient-10" x1="114.8" y1="0.238" x2="113.965" y2="0.678" gradientUnits="objectBoundingBox">
      <stop offset="0" stop-color="#f9b776"/>
      <stop offset="1" stop-color="#f47960"/>
    </linearGradient>
    <linearGradient id="linear-gradient-11" x1="139.053" y1="-59.62" x2="138.863" y2="-55.9" gradientUnits="objectBoundingBox">
      <stop offset="0" stop-color="#2b3582"/>
      <stop offset="1" stop-color="#150e42"/>
    </linearGradient>
    <linearGradient id="linear-gradient-12" x1="136.734" y1="0.225" x2="140.137" y2="-1.251" xlink:href="#linear-gradient-10"/>
    <linearGradient id="linear-gradient-13" x1="225.768" y1="-53.474" x2="225.547" y2="-50.365" xlink:href="#linear-gradient-11"/>
    <linearGradient id="linear-gradient-14" x1="1.197" y1="-0.666" x2="0.254" y2="3.592" xlink:href="#linear-gradient-11"/>
    <linearGradient id="linear-gradient-15" x1="42.21" y1="1.897" x2="41.922" y2="0.319" xlink:href="#linear-gradient-10"/>
    <linearGradient id="linear-gradient-16" x1="283.918" y1="-48.13" x2="285.348" y2="-47.394" xlink:href="#linear-gradient-10"/>
    <linearGradient id="linear-gradient-17" x1="1224.82" y1="-155.102" x2="1230.986" y2="-152.742" xlink:href="#linear-gradient-10"/>
    <linearGradient id="linear-gradient-18" x1="10.938" y1="0.5" x2="11.938" y2="0.5" xlink:href="#linear-gradient-10"/>
    <linearGradient id="linear-gradient-19" x1="18.691" y1="24.079" x2="17.951" y2="26.516" xlink:href="#linear-gradient-11"/>
    <linearGradient id="linear-gradient-20" x1="10.032" y1="0.134" x2="9.632" y2="0.8" xlink:href="#linear-gradient-11"/>
    <linearGradient id="linear-gradient-21" x1="93.701" y1="-0.304" x2="91.862" y2="1.583" gradientUnits="objectBoundingBox">
      <stop offset="0" stop-color="#53d8ff"/>
      <stop offset="1" stop-color="#3840f7"/>
    </linearGradient>
    <linearGradient id="linear-gradient-22" x1="-549.189" y1="-121.705" x2="-548.094" y2="-121.705" gradientUnits="objectBoundingBox">
      <stop offset="0" stop-color="#b37cff"/>
      <stop offset="1" stop-color="#f895e7"/>
    </linearGradient>
    <linearGradient id="linear-gradient-23" x1="-20.13" y1="-17.325" x2="-19.346" y2="-17.325" xlink:href="#linear-gradient-22"/>
    <linearGradient id="linear-gradient-24" x1="-21.243" y1="-31.744" x2="-20.287" y2="-31.744" xlink:href="#linear-gradient-22"/>
    <linearGradient id="linear-gradient-25" x1="-401.847" y1="-131.913" x2="-400.612" y2="-131.913" xlink:href="#linear-gradient-22"/>
    <linearGradient id="linear-gradient-26" x1="1999.119" y1="0.14" x2="1996.689" y2="1.459" xlink:href="#linear-gradient-10"/>
    <linearGradient id="linear-gradient-27" x1="-305.376" y1="-5.386" x2="-307.892" y2="17.677" xlink:href="#linear-gradient-11"/>
    <linearGradient id="linear-gradient-28" x1="278.274" y1="0.968" x2="280.51" y2="-0.567" xlink:href="#linear-gradient-11"/>
    <linearGradient id="linear-gradient-29" x1="1064.043" y1="-0.843" x2="1063.537" y2="2.39" xlink:href="#linear-gradient-10"/>
    <linearGradient id="linear-gradient-30" x1="281.339" y1="-5.386" x2="278.822" y2="17.677" xlink:href="#linear-gradient-11"/>
    <linearGradient id="linear-gradient-31" x1="281.498" y1="0.794" x2="283.581" y2="-0.625" xlink:href="#linear-gradient-11"/>
    <linearGradient id="linear-gradient-32" x1="1089.745" y1="-0.224" x2="1089.23" y2="2.539" xlink:href="#linear-gradient-10"/>
    <linearGradient id="linear-gradient-33" x1="161.49" y1="0.068" x2="161.49" y2="1.34" gradientUnits="objectBoundingBox">
      <stop offset="0" stop-color="#3f2bf3"/>
      <stop offset="1" stop-color="#3522cb"/>
    </linearGradient>
    <linearGradient id="linear-gradient-34" x1="2211.486" y1="0.429" x2="2215.197" y2="-1.257" xlink:href="#linear-gradient-21"/>
    <linearGradient id="linear-gradient-35" x1="2.982" y1="-0.397" x2="-3.014" y2="1.673" xlink:href="#linear-gradient-10"/>
    <linearGradient id="linear-gradient-36" x1="236.295" y1="0.5" x2="237.295" y2="0.5" xlink:href="#linear-gradient-10"/>
    <linearGradient id="linear-gradient-37" x1="451.259" y1="-0.222" x2="450.441" y2="2.966" xlink:href="#linear-gradient-10"/>
    <linearGradient id="linear-gradient-38" x1="476.563" y1="29.919" x2="474.999" y2="31.294" xlink:href="#linear-gradient-10"/>
    <linearGradient id="linear-gradient-39" x1="275.97" y1="18.629" x2="277.054" y2="18.629" xlink:href="#linear-gradient-11"/>
    <linearGradient id="linear-gradient-40" x1="1184.064" y1="86.748" x2="1187.202" y2="84.319" xlink:href="#linear-gradient-10"/>
    <linearGradient id="linear-gradient-41" x1="661.993" y1="0.024" x2="659.182" y2="1.814" xlink:href="#linear-gradient-11"/>
    <linearGradient id="linear-gradient-42" x1="3450.833" y1="-406.506" x2="3449.903" y2="-402.185" gradientUnits="objectBoundingBox">
      <stop offset="0" stop-color="#8d55d1"/>
      <stop offset="0.996" stop-color="#1c2873"/>
    </linearGradient>
    <linearGradient id="linear-gradient-43" x1="1211.326" y1="0.133" x2="1208.287" y2="1.569" xlink:href="#linear-gradient-10"/>
  </defs>
  <g id="_1" data-name="1" transform="translate(-876.332 -252.563)" clip-path="url(#clip-path)">
    <g id="Grupo_130038" data-name="Grupo 130038" transform="translate(885.8 262.8)">
      <g id="Grupo_130007" data-name="Grupo 130007" transform="translate(19.225 64.802)">
        <g id="Grupo_130000" data-name="Grupo 130000" transform="translate(0 138.409)">
          <path id="Trazado_191797" data-name="Trazado 191797" d="M716.307-3191.168v12.146h-.017c-.745,7.331-31.408,20.8-75.944,21.044-65.483.365-87.6-14.257-88.626-21.745H551.7v-11.192Z" transform="translate(-551.695 3205.245)" fill="#084a93"/>
          <path id="Trazado_191798" data-name="Trazado 191798" d="M551.7-3195.2c0,7.551,37.783,13.513,83.638,13.32,45.042-.189,80.974-6.266,80.974-13.576s-35.932-13.276-80.974-13.324C589.478-3208.835,551.7-3202.755,551.7-3195.2Z" transform="translate(-551.695 3209.581)" fill="#b9ddfc"/>
          <path id="Trazado_191799" data-name="Trazado 191799" d="M552.541-3196.383c0,7.493,37.5,13.423,83.01,13.248,44.722-.173,80.407-6.2,80.407-13.454s-35.685-13.191-80.407-13.251C590.036-3209.9,552.541-3203.877,552.541-3196.383Z" transform="translate(-551.903 3209.841)" fill="url(#linear-gradient)"/>
          <path id="Trazado_191800" data-name="Trazado 191800" d="M551.7-3179.721v-11.192l164.612-.255v12.146Z" transform="translate(-551.695 3205.245)" fill="#084a93"/>
          <path id="Trazado_191801" data-name="Trazado 191801" d="M551.7-3195.2c0,7.551,37.783,13.513,83.638,13.32,45.042-.189,80.974-6.266,80.974-13.576s-35.932-13.276-80.974-13.324C589.478-3208.835,551.7-3202.755,551.7-3195.2Z" transform="translate(-551.695 3209.581)" fill="#b9ddfc"/>
        </g>
        <g id="Grupo_130001" data-name="Grupo 130001" transform="translate(0 115.388)">
          <path id="Trazado_191802" data-name="Trazado 191802" d="M716.307-3221.705v12.146h-.017c-.745,7.331-31.408,20.157-75.944,19.928-70.574-.363-87.6-13.141-88.626-20.628H551.7v-11.192Z" transform="translate(-551.695 3235.782)" fill="#084a93"/>
          <path id="Trazado_191803" data-name="Trazado 191803" d="M551.7-3225.742c0,7.551,37.783,13.513,83.638,13.32,45.042-.189,80.974-6.266,80.974-13.576s-35.932-13.275-80.974-13.324C589.478-3239.372,551.7-3233.292,551.7-3225.742Z" transform="translate(-551.695 3240.118)" fill="#b9ddfc"/>
          <path id="Trazado_191804" data-name="Trazado 191804" d="M552.541-3226.92c0,7.493,37.5,13.423,83.01,13.247,44.722-.173,80.407-6.2,80.407-13.454s-35.685-13.19-80.407-13.251C590.036-3240.439,552.541-3234.414,552.541-3226.92Z" transform="translate(-551.903 3240.379)" fill="url(#linear-gradient-2)"/>
          <path id="Trazado_191805" data-name="Trazado 191805" d="M551.7-3210.258v-11.192l164.612-.255v12.146Z" transform="translate(-551.695 3235.782)" fill="#084a93"/>
          <path id="Trazado_191806" data-name="Trazado 191806" d="M551.7-3225.742c0,7.551,37.783,13.513,83.638,13.32,45.042-.189,80.974-6.266,80.974-13.576s-35.932-13.275-80.974-13.324C589.478-3239.372,551.7-3233.292,551.7-3225.742Z" transform="translate(-551.695 3240.118)" fill="#b9ddfc"/>
        </g>
        <g id="Grupo_130002" data-name="Grupo 130002" transform="translate(0 92.31)">
          <path id="Trazado_191807" data-name="Trazado 191807" d="M716.307-3252.318v12.147h-.017c-.745,7.331-31.408,20.157-75.944,19.928-70.574-.363-87.6-13.141-88.626-20.628H551.7v-11.193Z" transform="translate(-551.695 3266.395)" fill="#084a93"/>
          <path id="Trazado_191808" data-name="Trazado 191808" d="M551.7-3256.354c0,7.551,37.783,13.512,83.638,13.32,45.042-.189,80.974-6.266,80.974-13.576s-35.932-13.275-80.974-13.324C589.478-3269.984,551.7-3263.9,551.7-3256.354Z" transform="translate(-551.695 3270.73)" fill="#b9ddfc"/>
          <path id="Trazado_191809" data-name="Trazado 191809" d="M552.541-3257.533c0,7.494,37.5,13.424,83.01,13.248,44.722-.173,80.407-6.2,80.407-13.454s-35.685-13.191-80.407-13.251C590.036-3271.051,552.541-3265.026,552.541-3257.533Z" transform="translate(-551.903 3270.991)" fill="url(#linear-gradient)"/>
          <path id="Trazado_191810" data-name="Trazado 191810" d="M551.7-3240.871v-11.192l164.612-.255v12.146Z" transform="translate(-551.695 3266.395)" fill="#084a93"/>
          <path id="Trazado_191811" data-name="Trazado 191811" d="M551.7-3256.354c0,7.551,37.783,13.512,83.638,13.32,45.042-.189,80.974-6.266,80.974-13.576s-35.932-13.275-80.974-13.324C589.478-3269.984,551.7-3263.9,551.7-3256.354Z" transform="translate(-551.695 3270.73)" fill="#b9ddfc"/>
        </g>
        <g id="Grupo_130003" data-name="Grupo 130003" transform="translate(0 69.233)">
          <path id="Trazado_191812" data-name="Trazado 191812" d="M716.307-3282.93v12.146h-.017c-.745,7.331-31.408,20.157-75.944,19.928-70.574-.363-87.6-13.141-88.626-20.628H551.7v-11.193Z" transform="translate(-551.695 3297.007)" fill="#084a93"/>
          <path id="Trazado_191813" data-name="Trazado 191813" d="M551.7-3286.966c0,7.55,37.783,13.512,83.638,13.319,45.042-.188,80.974-6.266,80.974-13.576s-35.932-13.275-80.974-13.324C589.478-3300.6,551.7-3294.517,551.7-3286.966Z" transform="translate(-551.695 3301.343)" fill="#b9ddfc"/>
          <path id="Trazado_191814" data-name="Trazado 191814" d="M552.541-3288.145c0,7.493,37.5,13.423,83.01,13.248,44.722-.173,80.407-6.2,80.407-13.454s-35.685-13.191-80.407-13.251C590.036-3301.663,552.541-3295.638,552.541-3288.145Z" transform="translate(-551.903 3301.603)" fill="url(#linear-gradient)"/>
          <path id="Trazado_191815" data-name="Trazado 191815" d="M551.7-3271.483v-11.192l164.612-.254v12.146Z" transform="translate(-551.695 3297.007)" fill="#084a93"/>
          <path id="Trazado_191816" data-name="Trazado 191816" d="M551.7-3286.966c0,7.55,37.783,13.512,83.638,13.319,45.042-.188,80.974-6.266,80.974-13.576s-35.932-13.275-80.974-13.324C589.478-3300.6,551.7-3294.517,551.7-3286.966Z" transform="translate(-551.695 3301.343)" fill="#b9ddfc"/>
        </g>
        <g id="Grupo_130004" data-name="Grupo 130004" transform="translate(0 46.156)">
          <path id="Trazado_191817" data-name="Trazado 191817" d="M716.307-3313.542v12.146h-.017c-.745,7.331-31.408,20.157-75.944,19.927-70.574-.363-87.6-13.141-88.626-20.628H551.7v-11.192Z" transform="translate(-551.695 3327.619)" fill="#084a93"/>
          <path id="Trazado_191818" data-name="Trazado 191818" d="M551.7-3317.579c0,7.551,37.783,13.513,83.638,13.32,45.042-.189,80.974-6.266,80.974-13.576s-35.932-13.275-80.974-13.325C589.478-3331.209,551.7-3325.129,551.7-3317.579Z" transform="translate(-551.695 3331.955)" fill="#b9ddfc"/>
          <path id="Trazado_191819" data-name="Trazado 191819" d="M552.541-3318.757c0,7.493,37.5,13.424,83.01,13.247,44.722-.173,80.407-6.2,80.407-13.454s-35.685-13.191-80.407-13.251C590.036-3332.275,552.541-3326.251,552.541-3318.757Z" transform="translate(-551.903 3332.215)" fill="url(#linear-gradient-5)"/>
          <path id="Trazado_191820" data-name="Trazado 191820" d="M551.7-3302.1v-11.192l164.612-.254v12.146Z" transform="translate(-551.695 3327.618)" fill="#084a93"/>
          <path id="Trazado_191821" data-name="Trazado 191821" d="M551.7-3317.579c0,7.551,37.783,13.513,83.638,13.32,45.042-.189,80.974-6.266,80.974-13.576s-35.932-13.275-80.974-13.325C589.478-3331.209,551.7-3325.129,551.7-3317.579Z" transform="translate(-551.695 3331.955)" fill="#b9ddfc"/>
        </g>
        <g id="Grupo_130005" data-name="Grupo 130005" transform="translate(0 23.077)">
          <path id="Trazado_191822" data-name="Trazado 191822" d="M716.307-3344.155v12.147h-.017c-.745,7.331-31.408,20.157-75.944,19.928-70.574-.363-87.6-13.141-88.626-20.628H551.7V-3343.9Z" transform="translate(-551.695 3358.232)" fill="#084a93"/>
          <path id="Trazado_191823" data-name="Trazado 191823" d="M551.7-3348.191c0,7.551,37.783,13.512,83.638,13.32,45.042-.189,80.974-6.266,80.974-13.576s-35.932-13.275-80.974-13.324C589.478-3361.821,551.7-3355.741,551.7-3348.191Z" transform="translate(-551.695 3362.567)" fill="#b9ddfc"/>
          <path id="Trazado_191824" data-name="Trazado 191824" d="M552.541-3349.37c0,7.494,37.5,13.424,83.01,13.248,44.722-.173,80.407-6.2,80.407-13.454s-35.685-13.19-80.407-13.251C590.036-3362.888,552.541-3356.863,552.541-3349.37Z" transform="translate(-551.903 3362.828)" fill="url(#linear-gradient-2)"/>
          <path id="Trazado_191825" data-name="Trazado 191825" d="M551.7-3332.708V-3343.9l164.612-.254v12.146Z" transform="translate(-551.695 3358.231)" fill="#084a93"/>
          <path id="Trazado_191826" data-name="Trazado 191826" d="M551.7-3348.191c0,7.551,37.783,13.512,83.638,13.32,45.042-.189,80.974-6.266,80.974-13.576s-35.932-13.275-80.974-13.324C589.478-3361.821,551.7-3355.741,551.7-3348.191Z" transform="translate(-551.695 3362.567)" fill="#b9ddfc"/>
        </g>
        <g id="Grupo_130006" data-name="Grupo 130006">
          <path id="Trazado_191827" data-name="Trazado 191827" d="M716.307-3374.767v12.146h-.017c-.745,7.332-31.408,20.158-75.944,19.929-70.574-.363-87.6-13.141-88.626-20.628H551.7v-11.193Z" transform="translate(-551.695 3388.844)" fill="#084a93"/>
          <path id="Trazado_191828" data-name="Trazado 191828" d="M551.7-3378.8c0,7.55,37.783,13.512,83.638,13.32,45.042-.189,80.974-6.266,80.974-13.576s-35.932-13.275-80.974-13.324C589.478-3392.433,551.7-3386.354,551.7-3378.8Z" transform="translate(-551.695 3393.179)" fill="#b9ddfc"/>
          <path id="Trazado_191829" data-name="Trazado 191829" d="M552.541-3379.982c0,7.493,37.5,13.423,83.01,13.248,44.722-.174,80.407-6.2,80.407-13.454s-35.685-13.191-80.407-13.251C590.036-3393.5,552.541-3387.475,552.541-3379.982Z" transform="translate(-551.903 3393.44)" fill="url(#linear-gradient)"/>
          <path id="Trazado_191830" data-name="Trazado 191830" d="M551.7-3363.32v-11.192l164.612-.254v12.146Z" transform="translate(-551.695 3388.844)" fill="#084a93"/>
          <path id="Trazado_191831" data-name="Trazado 191831" d="M551.7-3378.8c0,7.55,37.783,13.512,83.638,13.32,45.042-.189,80.974-6.266,80.974-13.576s-35.932-13.275-80.974-13.324C589.478-3392.433,551.7-3386.354,551.7-3378.8Z" transform="translate(-551.695 3393.179)" fill="#b9ddfc"/>
        </g>
      </g>
      <g id="Grupo_130008" data-name="Grupo 130008" transform="translate(0 116.55)">
        <path id="Trazado_191832" data-name="Trazado 191832" d="M749.721-3252.692a1.784,1.784,0,0,1-1.743-1.75c-.178-9.8-3.236-58.471-46.1-68.642-47.718-11.323-69.556,37.2-69.556,37.2s-59.041-22.646-70.365,38.013c-37.021,8.885-46.639,57.232-22.56,80.856a20.694,20.694,0,0,0,14.314,5.924L785.557-3159a15.265,15.265,0,0,0,14.772-10.917C807.57-3194.359,817.063-3251.115,749.721-3252.692Z" transform="translate(-526.193 3324.797)" fill="url(#linear-gradient-8)"/>
        <path id="Trazado_191833" data-name="Trazado 191833" d="M746.634-3249.755a1.784,1.784,0,0,1-1.741-1.747c-.19-9.4-3.218-54.531-43.586-63.991-45.121-10.574-65.77,34.743-65.77,34.743s-55.828-21.147-66.534,35.5c-34.67,8.218-43.923,52.583-21.979,74.866a20.71,20.71,0,0,0,14.569,6.177l218.249,1.941a15.263,15.263,0,0,0,14.782-10.958C801.43-3196.439,809.507-3248.25,746.634-3249.755Z" transform="translate(-528.406 3322.901)" fill="url(#linear-gradient-9)"/>
      </g>
      <g id="Grupo_130012" data-name="Grupo 130012" transform="translate(34.605)">
        <path id="Trazado_191834" data-name="Trazado 191834" d="M675.1-3339.457c-.051-.02-27.68-48.4-31.414-52.957a2.892,2.892,0,0,0-2.583-1.038l-7.711.919-9.06,19.6,15.093-8.789c-1.493,10.329,17.9,25.678,24.544,31.28a1.527,1.527,0,0,1,.121,2.224l-2.655,2.78a30.494,30.494,0,0,0,15.064,8.566Z" transform="translate(-584.954 3458.25)" fill="url(#linear-gradient-10)"/>
        <path id="Trazado_191835" data-name="Trazado 191835" d="M674.813-3331.749a3.909,3.909,0,0,0-2.268,2.057,1.726,1.726,0,0,0,.649,1.989c2.79,2,11.993,8.452,16.239,9.715a.48.48,0,0,0,.6-.565,15.3,15.3,0,0,0-3.194-5.841l.2.412a.591.591,0,0,1-.817.779C683.388-3324.807,677.6-3328.316,674.813-3331.749Z" transform="translate(-596.795 3443.058)" fill="url(#linear-gradient-11)"/>
        <path id="Trazado_191836" data-name="Trazado 191836" d="M663.381-3325.8c-.047-.029-4.191-10.016-4.238-10.046a175.834,175.834,0,0,0-15.808-48.172,2.894,2.894,0,0,0-2.32-1.54l-7.738-.661-12.838,17.36L637-3374.408c-3.553,9.812,12.328,28.768,17.707,35.6a1.527,1.527,0,0,1-.333,2.2l-3.162,2.185a30.491,30.491,0,0,0,13.018,11.438Z" transform="translate(-583.995 3456.464)" fill="url(#linear-gradient-12)"/>
        <path id="Trazado_191837" data-name="Trazado 191837" d="M662.712-3319.047a3.909,3.909,0,0,0-2.637,1.555,1.727,1.727,0,0,0,.233,2.08c2.328,2.522,10.034,10.7,13.937,12.8a.48.48,0,0,0,.7-.433A15.294,15.294,0,0,0,673-3309.41l.116.445a.59.59,0,0,1-.957.6C669.7-3310.513,664.748-3315.121,662.712-3319.047Z" transform="translate(-593.69 3439.932)" fill="url(#linear-gradient-13)"/>
        <g id="Grupo_130009" data-name="Grupo 130009" transform="translate(5.408 66.286)">
          <path id="Trazado_191838" data-name="Trazado 191838" d="M586.923-3391.164s-7,10.412-7.574,15.161,1.935,6.391,9.262,7c21.8,1.8,32.55-4.732,32.55-4.732,1.492-9.51,2.553-11.929,15.01-17.1,0,0-15.755,1.251-18.926.02S586.923-3391.164,586.923-3391.164Z" transform="translate(-579.27 3391.471)" fill="url(#linear-gradient-14)"/>
        </g>
        <g id="Grupo_130010" data-name="Grupo 130010">
          <path id="Trazado_191839" data-name="Trazado 191839" d="M606.038-3405.214s8.152-7.762,12.164-12.9a10.907,10.907,0,0,0,1.847-9.817c-1.832-6.172-5.087-12.565-5.384-13.559-.455-1.525-9.6-1.462-9.6-1.462s-17.986,11.673-25.053,31.446l7.937,2.47a92.7,92.7,0,0,1,9.336-12.887s-8.029,10.606-8.311,14.948Z" transform="translate(-574.046 3470.43)" fill="#ffb30b"/>
          <path id="Trazado_191840" data-name="Trazado 191840" d="M624.089-3453.471c-.1.317-2.481,8.226-2.668,8.39s-5.231.436-7.606-1.187l4.847-10.722Z" transform="translate(-582.365 3473.884)" fill="url(#linear-gradient-15)"/>
          <path id="Trazado_191841" data-name="Trazado 191841" d="M632-3464.775s1.7,3.923-.3,9.888-5.257,6.482-7.322,5.008a11.756,11.756,0,0,1-5.077-9.511C618.971-3464.794,629.659-3469.737,632-3464.775Z" transform="translate(-583.714 3476.304)" fill="url(#linear-gradient-16)"/>
          <path id="Trazado_191842" data-name="Trazado 191842" d="M622.178-3461.7s3.6-8.072,9.009-3.043l.417,2.078s5.147-1.466,3.456-6.131a9.454,9.454,0,0,0-13.348-4.805c-5.505,3.023-7.377,6.584-7.08,10.83s3.478,2.793,3.478,2.793.612-3.122,2.107-3.677,1.463,1.809,1.463,1.809Z" transform="translate(-582.559 3478.266)" fill="#084a93"/>
          <path id="Trazado_191843" data-name="Trazado 191843" d="M622.207-3458.7s1.877-4.139-.752-4.288-1.56,3.989-1.036,5.5Z" transform="translate(-583.827 3475.361)" fill="url(#linear-gradient-17)"/>
          <path id="Trazado_191844" data-name="Trazado 191844" d="M620.969-3391.884l-6.125-6.664-7.074,1.9s-8.247,1.277-12.967,0l-4.72-1.278-10.667-3.321-1.675,4.734a2.851,2.851,0,0,0,1.041,3.275,18.833,18.833,0,0,0,2.694,1.678c1.4.615,32.358.195,32.358.195Z" transform="translate(-573.446 3460.163)" fill="url(#linear-gradient-18)"/>
          <path id="Trazado_191845" data-name="Trazado 191845" d="M608.985-3471.748a1.847,1.847,0,0,0,1.064-3.093c-3.234-3.533-9.338-7.453-18.034-1.438-9.795,6.776-15.095,9.842-17.5,9.2a1.856,1.856,0,0,0-2.208,2.6,7.87,7.87,0,0,0,3.75,3.224C592.069-3453.359,600.346-3470.7,608.985-3471.748Z" transform="translate(-572.097 3479.4)" fill="#084a93"/>
        </g>
        <g id="Grupo_130011" data-name="Grupo 130011" transform="translate(26.051 45.337)">
          <path id="Trazado_191846" data-name="Trazado 191846" d="M607.85-3386.164a.578.578,0,0,0,.065,0l28.173-.03a1.261,1.261,0,0,0,1.26-1.263,1.255,1.255,0,0,0-1.263-1.26l-28.172.031a1.261,1.261,0,0,0-1.26,1.262A1.261,1.261,0,0,0,607.85-3386.164Z" transform="translate(-606.653 3411.743)" fill="url(#linear-gradient-19)"/>
          <path id="Trazado_191847" data-name="Trazado 191847" d="M666.771-3419.261H643.308a4.471,4.471,0,0,0-4.044,2.565l-10.847,23h29.157a2.718,2.718,0,0,0,2.528-1.719l8.411-21.282A1.873,1.873,0,0,0,666.771-3419.261Z" transform="translate(-612.01 3419.261)" fill="url(#linear-gradient-20)"/>
          <path id="Trazado_191848" data-name="Trazado 191848" d="M657.292-3404.385c-.508,1.579-.133,3.114.839,3.426s2.172-.714,2.681-2.294.133-3.114-.839-3.426S657.8-3405.966,657.292-3404.385Z" transform="translate(-619.061 3416.178)" fill="url(#linear-gradient-21)"/>
        </g>
      </g>
      <g id="Grupo_130016" data-name="Grupo 130016" transform="translate(71.682 153.022)">
        <g id="Grupo_130013" data-name="Grupo 130013" opacity="0.64">
          <path id="Trazado_191849" data-name="Trazado 191849" d="M625.123-3180.39a1.02,1.02,0,0,1-.978-.733q-.234-.8-.445-1.6a1.021,1.021,0,0,1,.729-1.246,1.022,1.022,0,0,1,1.245.729q.2.776.428,1.542a1.019,1.019,0,0,1-.691,1.266A1,1,0,0,1,625.123-3180.39Z" transform="translate(-621.867 3253.67)" fill="#fff"/>
          <path id="Trazado_191850" data-name="Trazado 191850" d="M623.005-3209.888a1.02,1.02,0,0,1-1.006-.858c-.174-1.082-.32-2.189-.432-3.29a1.02,1.02,0,0,1,.911-1.119,1.02,1.02,0,0,1,1.119.911c.108,1.062.248,2.13.416,3.173a1.02,1.02,0,0,1-.845,1.169A1,1,0,0,1,623.005-3209.888Zm-.706-8.518a1.019,1.019,0,0,1-1.02-1.012v-.338c0-.982.026-1.986.078-2.981a1.024,1.024,0,0,1,1.072-.966,1.02,1.02,0,0,1,.966,1.071c-.05.96-.075,1.929-.075,2.88v.319a1.02,1.02,0,0,1-1.012,1.028Zm.6-8.525a1.116,1.116,0,0,1-.15-.011,1.02,1.02,0,0,1-.861-1.158c.16-1.087.354-2.186.578-3.267a1.021,1.021,0,0,1,1.205-.792,1.021,1.021,0,0,1,.792,1.206c-.216,1.042-.4,2.1-.557,3.15A1.021,1.021,0,0,1,622.9-3226.931Zm1.886-8.333a1.037,1.037,0,0,1-.3-.046,1.021,1.021,0,0,1-.673-1.277c.325-1.049.686-2.105,1.074-3.139a1.021,1.021,0,0,1,1.313-.6,1.02,1.02,0,0,1,.6,1.313c-.373,1-.721,2.015-1.034,3.027A1.021,1.021,0,0,1,624.786-3235.265Zm3.15-7.944a1.012,1.012,0,0,1-.448-.1,1.02,1.02,0,0,1-.467-1.365c.485-.991,1.006-1.981,1.548-2.94a1.019,1.019,0,0,1,1.389-.387,1.02,1.02,0,0,1,.387,1.389c-.522.926-1.024,1.879-1.492,2.834A1.02,1.02,0,0,1,627.936-3243.209Zm4.34-7.367a1.015,1.015,0,0,1-.583-.183,1.021,1.021,0,0,1-.252-1.421c.631-.9,1.3-1.8,1.98-2.665a1.02,1.02,0,0,1,1.432-.169,1.02,1.02,0,0,1,.168,1.432c-.657.834-1.3,1.7-1.909,2.57A1.019,1.019,0,0,1,632.276-3250.576Zm5.419-6.612a1.016,1.016,0,0,1-.7-.283,1.02,1.02,0,0,1-.032-1.442c.759-.793,1.555-1.578,2.363-2.33a1.02,1.02,0,0,1,1.442.052,1.02,1.02,0,0,1-.052,1.441c-.78.725-1.546,1.482-2.278,2.247A1.017,1.017,0,0,1,637.694-3257.189Zm6.363-5.708a1.016,1.016,0,0,1-.81-.4,1.02,1.02,0,0,1,.188-1.43c.871-.669,1.776-1.323,2.689-1.943a1.021,1.021,0,0,1,1.417.271,1.02,1.02,0,0,1-.271,1.417c-.88.6-1.752,1.228-2.593,1.873A1.015,1.015,0,0,1,644.058-3262.9Zm7.157-4.669a1.019,1.019,0,0,1-.9-.53,1.021,1.021,0,0,1,.4-1.385c.964-.528,1.957-1.035,2.952-1.508a1.02,1.02,0,0,1,1.359.484,1.021,1.021,0,0,1-.484,1.359c-.96.455-1.918.945-2.847,1.454A1.014,1.014,0,0,1,651.215-3267.565Zm52.414-.5a1.009,1.009,0,0,1-.472-.117c-.942-.493-1.911-.963-2.878-1.4a1.02,1.02,0,0,1-.511-1.349,1.019,1.019,0,0,1,1.349-.511c1,.452,2.008.939,2.986,1.451a1.019,1.019,0,0,1,.43,1.376A1.019,1.019,0,0,1,703.629-3268.067ZM659-3271.082a1.02,1.02,0,0,1-.959-.673,1.021,1.021,0,0,1,.612-1.307c1.033-.373,2.092-.721,3.147-1.035a1.021,1.021,0,0,1,1.268.688,1.019,1.019,0,0,1-.688,1.268c-1.017.3-2.038.638-3.033,1A1.02,1.02,0,0,1,659-3271.082Zm36.773-.35a1,1,0,0,1-.327-.054c-1.01-.342-2.04-.657-3.06-.937a1.02,1.02,0,0,1-.713-1.254,1.021,1.021,0,0,1,1.254-.714c1.058.29,2.126.617,3.174.972a1.02,1.02,0,0,1,.639,1.294A1.019,1.019,0,0,1,695.772-3271.432Zm-28.542-1.926a1.02,1.02,0,0,1-1-.826,1.019,1.019,0,0,1,.807-1.2c1.078-.21,2.179-.391,3.274-.537a1.018,1.018,0,0,1,1.147.875,1.02,1.02,0,0,1-.875,1.146c-1.055.141-2.117.316-3.156.518A1.038,1.038,0,0,1,667.229-3273.358Zm20.259-.185a1.007,1.007,0,0,1-.176-.015c-1.044-.182-2.109-.336-3.167-.457a1.019,1.019,0,0,1-.9-1.129,1.015,1.015,0,0,1,1.13-.9c1.1.126,2.2.285,3.284.473a1.02,1.02,0,0,1,.83,1.18A1.02,1.02,0,0,1,687.489-3273.542Zm-11.771-.794a1.02,1.02,0,0,1-1.018-.981,1.02,1.02,0,0,1,.981-1.058c1.1-.042,2.21-.051,3.319-.028a1.019,1.019,0,0,1,1,1.041,1.009,1.009,0,0,1-1.041,1c-1.071-.021-2.144-.012-3.2.027Z" transform="translate(-621.279 3276.417)" fill="#fff"/>
          <path id="Trazado_191851" data-name="Trazado 191851" d="M737.64-3261.519a1.01,1.01,0,0,1-.581-.183q-.657-.457-1.328-.895a1.02,1.02,0,0,1-.3-1.412,1.02,1.02,0,0,1,1.412-.3q.7.453,1.377.928a1.019,1.019,0,0,1,.256,1.42A1.018,1.018,0,0,1,737.64-3261.519Z" transform="translate(-649.335 3273.476)" fill="#fff"/>
        </g>
        <g id="Grupo_130014" data-name="Grupo 130014" transform="translate(21.807 44.496)" opacity="0.64">
          <path id="Trazado_191852" data-name="Trazado 191852" d="M768.6-3213.749a1.02,1.02,0,0,1-1-.846q-.137-.791-.3-1.573a1.02,1.02,0,0,1,.8-1.2,1.02,1.02,0,0,1,1.2.8q.165.813.307,1.634a1.021,1.021,0,0,1-.832,1.179A1.064,1.064,0,0,1,768.6-3213.749Z" transform="translate(-679.021 3217.393)" fill="#fff"/>
          <path id="Trazado_191853" data-name="Trazado 191853" d="M685.906-3146.474h-.019c-.969-.018-1.955-.061-2.927-.129l-.333-.023a1.019,1.019,0,0,1-.943-1.091,1.02,1.02,0,0,1,1.091-.944l.326.023c.938.065,1.888.107,2.823.124a1.021,1.021,0,0,1,1,1.039A1.021,1.021,0,0,1,685.906-3146.474Zm5.205-.148a1.021,1.021,0,0,1-1.016-.944,1.021,1.021,0,0,1,.941-1.094c1.045-.079,2.1-.189,3.131-.326a1.018,1.018,0,0,1,1.146.875,1.02,1.02,0,0,1-.876,1.147c-1.071.143-2.164.257-3.247.339C691.163-3146.623,691.137-3146.622,691.111-3146.622Zm-13.582-.631a.961.961,0,0,1-.172-.014c-1.073-.181-2.15-.4-3.2-.637a1.021,1.021,0,0,1-.767-1.223,1.019,1.019,0,0,1,1.222-.766c1.015.233,2.054.44,3.089.615a1.02,1.02,0,0,1,.835,1.176A1.019,1.019,0,0,1,677.529-3147.253Zm21.9-.635a1.021,1.021,0,0,1-.994-.79,1.02,1.02,0,0,1,.764-1.224c1.02-.237,2.044-.5,3.043-.8a1.019,1.019,0,0,1,1.267.691,1.02,1.02,0,0,1-.691,1.267c-1.037.3-2.1.583-3.159.828A1.02,1.02,0,0,1,699.425-3147.889Zm-30.062-1.392a1.015,1.015,0,0,1-.32-.052c-1.031-.342-2.064-.717-3.071-1.116a1.02,1.02,0,0,1-.572-1.324,1.02,1.02,0,0,1,1.325-.572c.97.385,1.965.747,2.959,1.076a1.02,1.02,0,0,1,.648,1.288A1.021,1.021,0,0,1,669.363-3149.281Zm38.088-1.125a1.021,1.021,0,0,1-.948-.642,1.02,1.02,0,0,1,.568-1.326c.969-.388,1.94-.808,2.884-1.25a1.02,1.02,0,0,1,1.357.491,1.021,1.021,0,0,1-.492,1.357c-.979.458-1.986.895-2.992,1.3A1.021,1.021,0,0,1,707.451-3150.405Zm-45.85-2.119a1.02,1.02,0,0,1-.463-.112c-.966-.493-1.929-1.021-2.865-1.57a1.02,1.02,0,0,1-.364-1.4,1.022,1.022,0,0,1,1.4-.364c.9.528,1.83,1.037,2.761,1.512a1.021,1.021,0,0,1,.445,1.373A1.02,1.02,0,0,1,661.6-3152.524Zm53.4-1.582a1.018,1.018,0,0,1-.88-.5,1.019,1.019,0,0,1,.362-1.4c.9-.532,1.8-1.094,2.665-1.673a1.02,1.02,0,0,1,1.415.282,1.02,1.02,0,0,1-.281,1.415c-.9.6-1.829,1.184-2.764,1.734A1.012,1.012,0,0,1,715-3154.106Zm6.907-4.8a1.019,1.019,0,0,1-.793-.376,1.021,1.021,0,0,1,.149-1.435c.811-.659,1.613-1.349,2.386-2.054a1.019,1.019,0,0,1,1.441.066,1.019,1.019,0,0,1-.066,1.441c-.8.731-1.633,1.448-2.473,2.131A1.018,1.018,0,0,1,721.906-3158.9Zm6.109-5.779a1.014,1.014,0,0,1-.685-.265,1.02,1.02,0,0,1-.069-1.44c.706-.777,1.4-1.582,2.051-2.391a1.021,1.021,0,0,1,1.435-.152,1.021,1.021,0,0,1,.151,1.436c-.679.838-1.395,1.673-2.127,2.479A1.018,1.018,0,0,1,728.015-3164.681Zm5.174-6.633a1.019,1.019,0,0,1-.564-.17,1.02,1.02,0,0,1-.284-1.414c.579-.871,1.14-1.77,1.668-2.673a1.019,1.019,0,0,1,1.395-.365,1.019,1.019,0,0,1,.366,1.395c-.547.937-1.129,1.87-1.73,2.773A1.018,1.018,0,0,1,733.189-3171.315Zm4.112-7.339a1.024,1.024,0,0,1-.428-.094,1.021,1.021,0,0,1-.5-1.356c.442-.952.86-1.927,1.243-2.9a1.02,1.02,0,0,1,1.324-.574,1.019,1.019,0,0,1,.574,1.323c-.4,1.007-.832,2.018-1.29,3.007A1.02,1.02,0,0,1,737.3-3178.653Zm2.951-7.881a1.024,1.024,0,0,1-.284-.041,1.02,1.02,0,0,1-.7-1.263c.291-1,.556-2.03.787-3.047a1.018,1.018,0,0,1,1.221-.768,1.02,1.02,0,0,1,.768,1.221c-.24,1.055-.515,2.119-.817,3.161A1.021,1.021,0,0,1,740.253-3186.534Zm1.72-8.231a.987.987,0,0,1-.133-.009,1.02,1.02,0,0,1-.879-1.144c.136-1.033.244-2.088.321-3.132a1.02,1.02,0,0,1,1.092-.942,1.02,1.02,0,0,1,.942,1.093c-.081,1.082-.192,2.175-.333,3.247A1.02,1.02,0,0,1,741.973-3194.766Zm.469-8.4a1.021,1.021,0,0,1-1.02-1c-.02-1.043-.07-2.1-.15-3.144a1.021,1.021,0,0,1,.939-1.1,1.025,1.025,0,0,1,1.1.939c.083,1.083.135,2.179.156,3.263a1.022,1.022,0,0,1-1,1.039Z" transform="translate(-652.067 3215.181)" fill="#fff"/>
          <path id="Trazado_191854" data-name="Trazado 191854" d="M652.533-3141.1a1.018,1.018,0,0,1-.6-.193q-.673-.486-1.332-.991a1.02,1.02,0,0,1-.188-1.43,1.019,1.019,0,0,1,1.43-.188q.634.487,1.285.955a1.021,1.021,0,0,1,.231,1.425A1.021,1.021,0,0,1,652.533-3141.1Z" transform="translate(-650.205 3199.358)" fill="#fff"/>
        </g>
        <g id="Grupo_130015" data-name="Grupo 130015" transform="translate(13.604 13.129)">
          <path id="Trazado_191855" data-name="Trazado 191855" d="M652.311-3185.153a.666.666,0,0,0,.747.2l7.621-2.8a35.356,35.356,0,0,0,10.09,5.433l1.858,7.9a.668.668,0,0,0,.582.511l9.69.982a.668.668,0,0,0,.672-.384l3.405-7.366a35.357,35.357,0,0,0,10.974-3.3l6.9,4.274a.666.666,0,0,0,.773-.05l7.545-6.158a.666.666,0,0,0,.2-.747l-2.8-7.62a35.368,35.368,0,0,0,5.433-10.09l7.9-1.858a.667.667,0,0,0,.51-.582l.982-9.69a.668.668,0,0,0-.384-.673l-7.365-3.4a35.375,35.375,0,0,0-3.3-10.974l4.274-6.9a.667.667,0,0,0-.051-.773l-6.158-7.545a.667.667,0,0,0-.747-.205l-7.621,2.8a35.357,35.357,0,0,0-10.089-5.433l-1.858-7.9a.667.667,0,0,0-.583-.511l-9.689-.982a.668.668,0,0,0-.673.384l-3.4,7.365a35.371,35.371,0,0,0-10.974,3.3l-6.9-4.274a.667.667,0,0,0-.773.05l-7.546,6.158a.668.668,0,0,0-.2.747l2.8,7.621a35.362,35.362,0,0,0-5.434,10.09l-7.9,1.858a.667.667,0,0,0-.511.582l-.982,9.69a.666.666,0,0,0,.384.672l7.365,3.405a35.4,35.4,0,0,0,3.3,10.974l-4.273,6.9a.667.667,0,0,0,.05.773Z" transform="translate(-639.324 3259.002)" fill="#084a93"/>
          <path id="Trazado_191856" data-name="Trazado 191856" d="M693.32-3195.536a9.479,9.479,0,0,1-9.357-8.085,9.474,9.474,0,0,1,7.983-10.743,9.4,9.4,0,0,1,7.025,1.766,9.4,9.4,0,0,1,3.717,6.217,9.474,9.474,0,0,1-7.983,10.743h0A9.5,9.5,0,0,1,693.32-3195.536Zm1.267-.909h0Zm-1.244-16.389a7.938,7.938,0,0,0-1.159.085,7.841,7.841,0,0,0-6.606,8.89,7.84,7.84,0,0,0,8.89,6.607h0a7.841,7.841,0,0,0,6.607-8.89,7.784,7.784,0,0,0-3.077-5.145A7.773,7.773,0,0,0,693.342-3212.834Z" transform="translate(-650.286 3248.04)" fill="#fff"/>
          <path id="Trazado_191857" data-name="Trazado 191857" d="M688.851-3186a24.389,24.389,0,0,1-2.454-.124h0a24.109,24.109,0,0,1-3.864-.713l-.1-.026-.115-.032-.073-.02q-.168-.047-.336-.1-.249-.074-.5-.155a.408.408,0,0,1-.283-.387.411.411,0,0,1,.02-.126.408.408,0,0,1,.514-.262,23.271,23.271,0,0,0,4.812,1.01,22.941,22.941,0,0,0,16.928-5.084,22.942,22.942,0,0,0,8.375-15.564,23.077,23.077,0,0,0,.118-2.348,23.124,23.124,0,0,0-20.766-22.954,23.119,23.119,0,0,0-25.3,20.647,23.23,23.23,0,0,0-.118,2.343,23.023,23.023,0,0,0,2.179,9.784.406.406,0,0,1,.039.173.408.408,0,0,1-.235.369.408.408,0,0,1-.543-.2,23.854,23.854,0,0,1-2.257-10.13,23.974,23.974,0,0,1,.123-2.425,23.939,23.939,0,0,1,26.2-21.377,23.942,23.942,0,0,1,21.5,23.765,24.044,24.044,0,0,1-.123,2.431,23.752,23.752,0,0,1-8.671,16.115A23.729,23.729,0,0,1,688.851-3186Z" transform="translate(-645.619 3252.803)" fill="#fff"/>
        </g>
      </g>
      <g id="Grupo_130020" data-name="Grupo 130020" transform="translate(153.356 136.466)">
        <g id="Grupo_130017" data-name="Grupo 130017" opacity="0.64">
          <path id="Trazado_191858" data-name="Trazado 191858" d="M731.13-3262a.49.49,0,0,1-.469-.352c-.116-.394-.223-.8-.318-1.211a.49.49,0,0,1,.366-.587.49.49,0,0,1,.588.366c.09.392.192.781.3,1.156a.489.489,0,0,1-.331.608A.5.5,0,0,1,731.13-3262Z" transform="translate(-729.794 3289.956)" fill="#fff"/>
          <path id="Trazado_191859" data-name="Trazado 191859" d="M730.245-3273.919a.49.49,0,0,1-.486-.434,21.791,21.791,0,0,1-.14-2.4.489.489,0,0,1,.488-.491h0a.49.49,0,0,1,.49.488,20.9,20.9,0,0,0,.133,2.292.488.488,0,0,1-.43.542A.38.38,0,0,1,730.245-3273.919Zm-.014-4.694a.378.378,0,0,1-.052,0,.488.488,0,0,1-.435-.538,21.774,21.774,0,0,1,.389-2.374.494.494,0,0,1,.584-.372.491.491,0,0,1,.372.584,20.732,20.732,0,0,0-.372,2.264A.489.489,0,0,1,730.231-3278.613Zm1.017-4.582a.517.517,0,0,1-.159-.026.491.491,0,0,1-.3-.622,21.5,21.5,0,0,1,.908-2.229.491.491,0,0,1,.653-.232.489.489,0,0,1,.232.652,20.528,20.528,0,0,0-.866,2.127A.49.49,0,0,1,731.248-3283.195Zm2.012-4.242a.494.494,0,0,1-.258-.074.49.49,0,0,1-.158-.674,21.474,21.474,0,0,1,1.381-1.97.491.491,0,0,1,.688-.082.489.489,0,0,1,.081.688,20.6,20.6,0,0,0-1.319,1.88A.489.489,0,0,1,733.26-3287.437Zm2.905-3.688a.486.486,0,0,1-.344-.141.489.489,0,0,1,0-.692,21.535,21.535,0,0,1,1.781-1.615.489.489,0,0,1,.688.071.488.488,0,0,1-.072.688,20.688,20.688,0,0,0-1.7,1.543A.487.487,0,0,1,736.166-3291.125Zm3.646-2.956a.49.49,0,0,1-.412-.225.49.49,0,0,1,.148-.677,21.635,21.635,0,0,1,2.093-1.183.488.488,0,0,1,.656.221.49.49,0,0,1-.222.656,20.785,20.785,0,0,0-2,1.13A.491.491,0,0,1,739.812-3294.081Zm20.238-1.357a.48.48,0,0,1-.206-.046,20.79,20.79,0,0,0-2.133-.85.489.489,0,0,1-.308-.62.49.49,0,0,1,.62-.308,21.5,21.5,0,0,1,2.234.891.49.49,0,0,1,.237.651A.489.489,0,0,1,760.05-3295.438Zm-16.032-.719a.49.49,0,0,1-.461-.323.49.49,0,0,1,.294-.627,21.512,21.512,0,0,1,2.3-.689.492.492,0,0,1,.59.363.49.49,0,0,1-.363.59,20.549,20.549,0,0,0-2.2.657A.491.491,0,0,1,744.018-3296.157Zm11.581-.773a.435.435,0,0,1-.1-.011,21.058,21.058,0,0,0-2.268-.355.49.49,0,0,1-.439-.536.489.489,0,0,1,.537-.438,21.792,21.792,0,0,1,2.375.373.488.488,0,0,1,.376.581A.488.488,0,0,1,755.6-3296.93Zm-7.016-.316a.49.49,0,0,1-.485-.43.49.49,0,0,1,.427-.545,21.4,21.4,0,0,1,2.4-.158h0a.49.49,0,0,1,.491.484.49.49,0,0,1-.485.495,20.715,20.715,0,0,0-2.29.15A.422.422,0,0,1,748.583-3297.246Z" transform="translate(-729.619 3298.379)" fill="#fff"/>
          <path id="Trazado_191860" data-name="Trazado 191860" d="M773.626-3292.637a.485.485,0,0,1-.279-.088c-.32-.222-.656-.442-1-.653a.49.49,0,0,1-.162-.673.49.49,0,0,1,.673-.161c.36.22.712.45,1.048.684a.49.49,0,0,1,.122.682A.489.489,0,0,1,773.626-3292.637Z" transform="translate(-740.078 3297.371)" fill="#fff"/>
        </g>
        <g id="Grupo_130018" data-name="Grupo 130018" transform="translate(8.259 16.853)" opacity="0.64">
          <path id="Trazado_191861" data-name="Trazado 191861" d="M785.614-3273.84a.49.49,0,0,1-.484-.42c-.057-.4-.125-.791-.2-1.177a.491.491,0,0,1,.383-.577.492.492,0,0,1,.577.382c.081.4.153.819.213,1.234a.49.49,0,0,1-.415.554A.521.521,0,0,1,785.614-3273.84Z" transform="translate(-751.488 3276.023)" fill="#fff"/>
          <path id="Trazado_191862" data-name="Trazado 191862" d="M755.188-3248.568a.489.489,0,0,1-.489-.484.49.49,0,0,1,.484-.5,20.494,20.494,0,0,0,2.489-.182.491.491,0,0,1,.55.42.49.49,0,0,1-.421.55,21.534,21.534,0,0,1-2.607.19Zm-2.552-.121-.054,0a21.833,21.833,0,0,1-2.578-.437.488.488,0,0,1-.366-.587.488.488,0,0,1,.587-.367,20.872,20.872,0,0,0,2.462.417.49.49,0,0,1,.434.539A.49.49,0,0,1,752.636-3248.689Zm7.606-.56a.49.49,0,0,1-.473-.366.489.489,0,0,1,.35-.6,20.379,20.379,0,0,0,2.371-.778.491.491,0,0,1,.636.274.489.489,0,0,1-.274.635,21.594,21.594,0,0,1-2.485.816A.5.5,0,0,1,760.242-3249.249Zm-12.577-.6a.5.5,0,0,1-.168-.029,21.579,21.579,0,0,1-2.4-1.047.49.49,0,0,1-.213-.659.49.49,0,0,1,.659-.213,20.436,20.436,0,0,0,2.287,1,.49.49,0,0,1,.292.628A.49.49,0,0,1,747.666-3249.846Zm17.317-1.285a.489.489,0,0,1-.43-.255.488.488,0,0,1,.194-.664,20.863,20.863,0,0,0,2.113-1.328.491.491,0,0,1,.684.113.491.491,0,0,1-.114.684,21.894,21.894,0,0,1-2.213,1.39A.491.491,0,0,1,764.983-3251.131Zm4.149-2.968a.49.49,0,0,1-.361-.158.489.489,0,0,1,.03-.692,20.675,20.675,0,0,0,1.735-1.794.49.49,0,0,1,.691-.054.489.489,0,0,1,.053.69,21.7,21.7,0,0,1-1.818,1.88A.489.489,0,0,1,769.131-3254.1Zm3.318-3.875a.483.483,0,0,1-.271-.082.49.49,0,0,1-.137-.679,20.468,20.468,0,0,0,1.254-2.159.489.489,0,0,1,.657-.218.489.489,0,0,1,.218.657,21.541,21.541,0,0,1-1.313,2.263A.488.488,0,0,1,772.45-3257.974Zm2.287-4.562a.486.486,0,0,1-.164-.029.489.489,0,0,1-.3-.625,20.4,20.4,0,0,0,.693-2.4.49.49,0,0,1,.585-.37.488.488,0,0,1,.37.584,21.462,21.462,0,0,1-.726,2.513A.491.491,0,0,1,774.737-3262.535Zm1.117-4.977-.049,0a.489.489,0,0,1-.439-.535q.032-.319.054-.64c.032-.477.05-.959.05-1.435,0-.14,0-.28,0-.421a.49.49,0,0,1,.48-.5h.006a.49.49,0,0,1,.493.48c0,.146,0,.293,0,.44,0,.5-.017,1-.051,1.5-.016.225-.035.447-.057.669A.489.489,0,0,1,775.854-3267.512Z" transform="translate(-741.623 3274.798)" fill="#fff"/>
          <path id="Trazado_191863" data-name="Trazado 191863" d="M742.055-3246.577a.481.481,0,0,1-.274-.084c-.344-.233-.686-.479-1.016-.732a.489.489,0,0,1-.091-.686.491.491,0,0,1,.687-.091c.314.241.641.476.969.7a.49.49,0,0,1,.13.68A.489.489,0,0,1,742.055-3246.577Z" transform="translate(-740.574 3269.192)" fill="#fff"/>
        </g>
        <g id="Grupo_130019" data-name="Grupo 130019" transform="translate(5.255 5.074)">
          <path id="Trazado_191864" data-name="Trazado 191864" d="M741.509-3263.677a.253.253,0,0,0,.283.078l2.887-1.062a13.417,13.417,0,0,0,3.821,2.058l.7,2.991a.253.253,0,0,0,.22.194l3.671.372a.253.253,0,0,0,.255-.146l1.289-2.789a13.417,13.417,0,0,0,4.157-1.25l2.614,1.619a.254.254,0,0,0,.293-.019l2.858-2.333a.251.251,0,0,0,.077-.283l-1.061-2.886a13.394,13.394,0,0,0,2.057-3.821l2.992-.7a.253.253,0,0,0,.194-.22l.372-3.671a.253.253,0,0,0-.146-.255l-2.79-1.29a13.371,13.371,0,0,0-1.25-4.156l1.619-2.615a.252.252,0,0,0-.02-.292l-2.332-2.858a.254.254,0,0,0-.283-.078l-2.887,1.062a13.407,13.407,0,0,0-3.821-2.058l-.7-2.991a.255.255,0,0,0-.221-.194l-3.67-.372a.253.253,0,0,0-.255.146l-1.29,2.79a13.385,13.385,0,0,0-4.156,1.249l-2.615-1.618a.252.252,0,0,0-.292.02l-2.858,2.332a.254.254,0,0,0-.078.283l1.061,2.886a13.391,13.391,0,0,0-2.058,3.821l-2.991.7a.253.253,0,0,0-.194.221l-.372,3.67a.252.252,0,0,0,.146.255l2.789,1.29a13.41,13.41,0,0,0,1.25,4.156l-1.619,2.615a.254.254,0,0,0,.019.293Z" transform="translate(-736.59 3291.647)" fill="#084a93"/>
          <path id="Trazado_191865" data-name="Trazado 191865" d="M756.982-3267.488a3.771,3.771,0,0,1-3.723-3.217,3.77,3.77,0,0,1,3.175-4.274,3.772,3.772,0,0,1,4.274,3.176,3.742,3.742,0,0,1-.7,2.795,3.74,3.74,0,0,1-2.473,1.479h0A3.81,3.81,0,0,1,756.982-3267.488Zm.479-.525h0Zm-.476-6.027a2.763,2.763,0,0,0-.409.03,2.789,2.789,0,0,0-2.349,3.162,2.767,2.767,0,0,0,1.095,1.83,2.768,2.768,0,0,0,2.068.52,2.766,2.766,0,0,0,1.83-1.095,2.765,2.765,0,0,0,.52-2.068A2.791,2.791,0,0,0,756.986-3274.04Z" transform="translate(-740.683 3287.554)" fill="#fff" opacity="0.56"/>
          <path id="Trazado_191866" data-name="Trazado 191866" d="M755.241-3263.771q-.481,0-.965-.049a9.446,9.446,0,0,1-1.9-.393l-.056-.017a.49.49,0,0,1-.339-.465.5.5,0,0,1,.024-.151.489.489,0,0,1,.617-.315,8.4,8.4,0,0,0,1.753.367h0l.084.008a8.355,8.355,0,0,0,4.066-.635,8.46,8.46,0,0,0,2.016-1.224,8.36,8.36,0,0,0,3.051-5.67c.029-.289.044-.578.044-.864a8.347,8.347,0,0,0-1.9-5.3,8.353,8.353,0,0,0-5.669-3.051,8.361,8.361,0,0,0-6.166,1.852,8.357,8.357,0,0,0-3.05,5.669q-.043.427-.043.853a8.371,8.371,0,0,0,.794,3.564.5.5,0,0,1,.046.208.489.489,0,0,1-.282.444.489.489,0,0,1-.651-.235,9.361,9.361,0,0,1-.887-3.984,9.483,9.483,0,0,1,.048-.948,9.331,9.331,0,0,1,3.406-6.329,9.334,9.334,0,0,1,6.884-2.067,9.327,9.327,0,0,1,6.329,3.405,9.326,9.326,0,0,1,2.116,5.918c0,.32-.017.642-.049.965a9.327,9.327,0,0,1-3.406,6.329A9.316,9.316,0,0,1,755.241-3263.771Z" transform="translate(-738.865 3289.409)" fill="#fff" opacity="0.56"/>
        </g>
      </g>
      <g id="Grupo_130024" data-name="Grupo 130024" transform="translate(177.092 215.083)">
        <g id="Grupo_130023" data-name="Grupo 130023">
          <g id="Grupo_130021" data-name="Grupo 130021" transform="translate(0 9.222)">
            <path id="Trazado_191867" data-name="Trazado 191867" d="M785.633-3132.543a.671.671,0,0,1-.094-.006l-5.45-.66a.776.776,0,0,1-.664-.606l-.914-4.259a20.3,20.3,0,0,1-5.358-3.023l-4.119,1.424a.776.776,0,0,1-.863-.255l-3.386-4.32a.775.775,0,0,1-.041-.9l2.366-3.659a20.3,20.3,0,0,1-1.655-5.926l-3.916-1.9a.773.773,0,0,1-.43-.79l.66-5.449a.775.775,0,0,1,.606-.665l4.259-.914a20.266,20.266,0,0,1,3.023-5.357l-1.423-4.12a.775.775,0,0,1,.254-.862l4.32-3.386a.775.775,0,0,1,.9-.041l3.659,2.366a20.305,20.305,0,0,1,5.925-1.655l1.905-3.917a.777.777,0,0,1,.789-.43l5.45.66a.776.776,0,0,1,.664.607l.914,4.258a20.278,20.278,0,0,1,5.358,3.024l4.12-1.423a.773.773,0,0,1,.862.254l3.386,4.32a.777.777,0,0,1,.041.9l-2.366,3.659a20.315,20.315,0,0,1,1.654,5.925l3.916,1.905a.774.774,0,0,1,.43.79l-.66,5.449a.775.775,0,0,1-.607.664l-4.258.914a20.3,20.3,0,0,1-3.023,5.357l1.423,4.119a.777.777,0,0,1-.255.863l-4.32,3.386a.779.779,0,0,1-.9.042l-3.66-2.367a20.311,20.311,0,0,1-5.925,1.655l-1.905,3.917A.774.774,0,0,1,785.633-3132.543Zm-12.325-9.451.171.138a19.511,19.511,0,0,0,5.513,3.11l.207.075,1.006,4.687,5.43.643,2.074-4.3.219-.024a19.514,19.514,0,0,0,6.1-1.7l.2-.092,4.027,2.6,4.295-3.385-1.573-4.509.137-.171a19.507,19.507,0,0,0,3.11-5.513l.076-.207,4.687-1.005.642-5.429-4.3-2.075-.024-.219a19.525,19.525,0,0,0-1.7-6.1l-.093-.2,2.6-4.027-3.386-4.294-4.508,1.573-.172-.137a19.506,19.506,0,0,0-5.512-3.11l-.207-.075-1.006-4.687-5.431-.643-2.073,4.3-.219.024a19.53,19.53,0,0,0-6.1,1.7l-.2.093-4.028-2.6-4.294,3.385,1.573,4.508-.138.172a19.491,19.491,0,0,0-3.11,5.513l-.076.207-4.671,1-.659,5.434,4.3,2.074.024.219a19.518,19.518,0,0,0,1.7,6.1l.093.2-2.6,4.028,3.385,4.294Zm12.581-1.626a13.827,13.827,0,0,1-1.67-.1,13.627,13.627,0,0,1-6.723-2.764.4.4,0,0,1-.07-.559.4.4,0,0,1,.559-.07,12.82,12.82,0,0,0,6.33,2.6,12.768,12.768,0,0,0,9.471-2.642,12.764,12.764,0,0,0,4.829-8.565,12.764,12.764,0,0,0-2.642-9.472,12.757,12.757,0,0,0-8.565-4.829,12.859,12.859,0,0,0-14.3,11.207,12.914,12.914,0,0,0-.041,2.735.4.4,0,0,1-.36.434.4.4,0,0,1-.433-.36,13.764,13.764,0,0,1,.043-2.9,13.662,13.662,0,0,1,15.188-11.9,13.555,13.555,0,0,1,9.1,5.129,13.558,13.558,0,0,1,2.807,10.059,13.558,13.558,0,0,1-5.129,9.1A13.543,13.543,0,0,1,785.888-3143.62Z" transform="translate(-761.104 3181.861)" fill="#fff"/>
            <path id="Trazado_191868" data-name="Trazado 191868" d="M792.094-3145.6a5.258,5.258,0,0,1-1.9-.356,5.237,5.237,0,0,1-2.923-2.782,5.239,5.239,0,0,1-.1-4.034,5.278,5.278,0,0,1,6.816-3.024,5.279,5.279,0,0,1,3.024,6.817,5.233,5.233,0,0,1-2.783,2.923A5.247,5.247,0,0,1,792.094-3145.6Zm0-9.754a4.475,4.475,0,0,0-1.814.387,4.446,4.446,0,0,0-2.361,2.482,4.452,4.452,0,0,0,.084,3.425,4.447,4.447,0,0,0,2.482,2.361,4.445,4.445,0,0,0,3.425-.084,4.449,4.449,0,0,0,2.362-2.482,4.482,4.482,0,0,0-2.567-5.787A4.494,4.494,0,0,0,792.09-3155.352Z" transform="translate(-767.433 3175.531)" fill="#fff"/>
          </g>
          <g id="Grupo_130022" data-name="Grupo 130022" transform="translate(49.112)">
            <path id="Trazado_191869" data-name="Trazado 191869" d="M840.843-3170.7a.581.581,0,0,1-.443-.205l-1.282-1.515a9.94,9.94,0,0,1-2.8-.062l-1.348,1.454a.58.58,0,0,1-.658.136l-2.415-1.065a.581.581,0,0,1-.344-.577l.166-1.977a9.956,9.956,0,0,1-1.932-2.023l-1.983.075a.581.581,0,0,1-.562-.369l-.954-2.462a.579.579,0,0,1,.165-.651l1.516-1.282a9.929,9.929,0,0,1,.062-2.8l-1.454-1.349a.581.581,0,0,1-.136-.659l1.066-2.416a.572.572,0,0,1,.579-.343l1.975.165a9.956,9.956,0,0,1,2.023-1.932l-.075-1.983a.577.577,0,0,1,.371-.562l2.46-.955a.58.58,0,0,1,.652.165l1.281,1.516a9.956,9.956,0,0,1,2.8.062l1.348-1.454a.58.58,0,0,1,.659-.137l2.415,1.066a.581.581,0,0,1,.344.578l-.166,1.977a9.949,9.949,0,0,1,1.932,2.023l1.983-.075a.562.562,0,0,1,.562.368l.955,2.463a.579.579,0,0,1-.166.651l-1.515,1.282a9.963,9.963,0,0,1-.062,2.8l1.454,1.347a.581.581,0,0,1,.136.659l-1.065,2.415a.579.579,0,0,1-.578.344l-1.977-.165a9.976,9.976,0,0,1-2.023,1.933l.075,1.982a.579.579,0,0,1-.369.562l-2.462.955A.576.576,0,0,1,840.843-3170.7Zm-1.4-2.569,1.463,1.73,2.173-.842-.087-2.265.182-.124a9.166,9.166,0,0,0,2.154-2.057l.132-.176,2.257.188.94-2.131L847-3180.485l.04-.216a9.159,9.159,0,0,0,.067-2.977l-.031-.218,1.73-1.463-.842-2.172-2.265.087-.124-.183a9.187,9.187,0,0,0-2.057-2.153l-.176-.133.188-2.256-2.131-.94-1.539,1.66-.216-.04a9.194,9.194,0,0,0-2.977-.067l-.218.031-1.463-1.73-2.173.842.086,2.264-.182.125a9.175,9.175,0,0,0-2.153,2.056l-.133.176-2.256-.187-.94,2.131,1.661,1.539-.041.216a9.168,9.168,0,0,0-.066,2.976l.031.218-1.73,1.463.842,2.173,2.265-.086.124.182a9.173,9.173,0,0,0,2.056,2.153l.176.132-.189,2.257,2.132.94,1.539-1.661.216.041a9.188,9.188,0,0,0,2.976.066Zm3.642,1.043h0Zm-10.866-.461h0Zm15.435-3.984Zm-19.88-.586h0Zm-.744-2.323h0Zm21.828-5.634h0Zm-20.84-2.779h0Zm.217-.129h0Zm4.432-4.234h0Zm.137-.211h0Zm5.184,16.924a6.732,6.732,0,0,1-2.722-.576,6.755,6.755,0,0,1-2.793-2.281.4.4,0,0,1,.095-.555.4.4,0,0,1,.556.095,5.954,5.954,0,0,0,2.464,2.012,5.978,5.978,0,0,0,7.874-3.054,5.979,5.979,0,0,0-3.054-7.875,5.938,5.938,0,0,0-4.57-.1,5.93,5.93,0,0,0-3.3,3.158,5.962,5.962,0,0,0-.388,1.212.4.4,0,0,1-.471.309.4.4,0,0,1-.31-.47,6.85,6.85,0,0,1,.439-1.372,6.724,6.724,0,0,1,3.746-3.579,6.724,6.724,0,0,1,5.179.117,6.777,6.777,0,0,1,3.463,8.925A6.782,6.782,0,0,1,837.991-3175.644Z" transform="translate(-826.251 3194.093)" fill="#fff"/>
          </g>
        </g>
      </g>
      <g id="Grupo_130028" data-name="Grupo 130028" transform="translate(21.893 212.009)">
        <g id="Grupo_130025" data-name="Grupo 130025" opacity="0.3">
          <path id="Trazado_191870" data-name="Trazado 191870" d="M555.661-3162.432a.719.719,0,0,1-.421-.752c.081-.605.181-1.217.3-1.817a.72.72,0,0,1,.844-.568.718.718,0,0,1,.568.844c-.112.572-.207,1.155-.284,1.732a.72.72,0,0,1-.808.618A.729.729,0,0,1,555.661-3162.432Z" transform="translate(-555.234 3190.15)" fill="url(#linear-gradient-22)"/>
          <path id="Trazado_191871" data-name="Trazado 191871" d="M557.3-3175.848a.719.719,0,0,1-.391-.881,31.239,31.239,0,0,1,1.137-2.954q.135-.3.277-.605a.744.744,0,0,1,.957-.346.719.719,0,0,1,.345.957q-.136.289-.265.579a29.909,29.909,0,0,0-1.084,2.817.72.72,0,0,1-.908.461C557.341-3175.829,557.317-3175.838,557.3-3175.848Zm3.177-6.761a.743.743,0,0,1-.091-.048.72.72,0,0,1-.227-.993,31.113,31.113,0,0,1,2.233-3.111.72.72,0,0,1,1.012-.1.719.719,0,0,1,.1,1.012,29.971,29.971,0,0,0-2.13,2.968A.719.719,0,0,1,560.472-3182.609Zm4.721-5.789a.719.719,0,0,1-.228-.16.719.719,0,0,1,.023-1.017,31.063,31.063,0,0,1,2.931-2.469.718.718,0,0,1,1.006.15.719.719,0,0,1-.149,1.006,29.663,29.663,0,0,0-2.795,2.354A.719.719,0,0,1,565.194-3188.4Zm6-4.45a.727.727,0,0,1-.334-.3.72.72,0,0,1,.273-.981,31.2,31.2,0,0,1,3.444-1.676.72.72,0,0,1,.939.39.72.72,0,0,1-.391.94,29.553,29.553,0,0,0-3.285,1.6A.722.722,0,0,1,571.195-3192.848Zm6.905-2.851a.717.717,0,0,1-.4-.467.721.721,0,0,1,.5-.885,31.562,31.562,0,0,1,3.746-.789.719.719,0,0,1,.817.607.72.72,0,0,1-.607.816,30.016,30.016,0,0,0-3.574.753A.718.718,0,0,1,578.1-3195.7Zm7.387-1.088a.719.719,0,0,1-.427-.641.719.719,0,0,1,.7-.736,30.948,30.948,0,0,1,3.824.148.72.72,0,0,1,.644.789.719.719,0,0,1-.789.643,29.558,29.558,0,0,0-3.646-.142A.7.7,0,0,1,585.487-3196.786Zm7.426.752a.721.721,0,0,1-.409-.818.72.72,0,0,1,.862-.54,31.075,31.075,0,0,1,3.674,1.083.723.723,0,0,1,.43.922.72.72,0,0,1-.922.431,29.474,29.474,0,0,0-3.5-1.034A.757.757,0,0,1,592.914-3196.034Zm10.245,4.452a.782.782,0,0,1-.111-.062,29.858,29.858,0,0,0-2.725-1.634c-.142-.076-.282-.149-.423-.22a.719.719,0,0,1-.315-.967.713.713,0,0,1,.967-.317c.149.077.3.154.447.234a31.273,31.273,0,0,1,2.853,1.711.72.72,0,0,1,.194,1A.72.72,0,0,1,603.159-3191.582Z" transform="translate(-555.636 3198.171)" fill="url(#linear-gradient-23)"/>
        </g>
        <g id="Grupo_130026" data-name="Grupo 130026" transform="translate(3.447 44.902)" opacity="0.3">
          <path id="Trazado_191872" data-name="Trazado 191872" d="M575.943-3122.371a.72.72,0,0,1-.369-.942.719.719,0,0,1,.945-.377,29.9,29.9,0,0,0,3.38,1.214.723.723,0,0,1,.489.892.72.72,0,0,1-.893.49,31.393,31.393,0,0,1-3.544-1.273Zm-3.29-1.652a.634.634,0,0,1-.069-.035,31.438,31.438,0,0,1-3.141-2.081.719.719,0,0,1-.143-1.007.721.721,0,0,1,1.008-.142,30.091,30.091,0,0,0,3,1.986.719.719,0,0,1,.262.983A.72.72,0,0,1,572.653-3124.023Zm10.342,3.709a.721.721,0,0,1-.418-.773.72.72,0,0,1,.826-.594,29.859,29.859,0,0,0,3.576.36.719.719,0,0,1,.69.748.721.721,0,0,1-.748.691,31.388,31.388,0,0,1-3.748-.378A.761.761,0,0,1,582.995-3120.314Zm-16.211-8.133a.729.729,0,0,1-.207-.14,30.847,30.847,0,0,1-2.547-2.779.719.719,0,0,1,.106-1.012.722.722,0,0,1,1.012.106,29.35,29.35,0,0,0,2.428,2.65.719.719,0,0,1,.017,1.017A.718.718,0,0,1,566.783-3128.447Zm23.551,8.424a.719.719,0,0,1-.425-.6.72.72,0,0,1,.658-.777,29.619,29.619,0,0,0,3.556-.51.72.72,0,0,1,.85.56.72.72,0,0,1-.56.85,31.025,31.025,0,0,1-3.729.534A.71.71,0,0,1,590.334-3120.023Zm7.2-1.478a.719.719,0,0,1-.391-.429.719.719,0,0,1,.454-.911,30.173,30.173,0,0,0,3.333-1.346.719.719,0,0,1,.959.341.719.719,0,0,1-.341.958,31.521,31.521,0,0,1-3.493,1.411A.719.719,0,0,1,597.53-3121.5Zm6.635-3.159a.71.71,0,0,1-.314-.272.719.719,0,0,1,.222-.993,29.509,29.509,0,0,0,2.912-2.106.721.721,0,0,1,1.012.1.72.72,0,0,1-.1,1.013,31.066,31.066,0,0,1-3.054,2.208A.719.719,0,0,1,604.165-3124.66Z" transform="translate(-560.806 3137.115)" fill="url(#linear-gradient-24)"/>
          <path id="Trazado_191873" data-name="Trazado 191873" d="M561.139-3135.681a.715.715,0,0,1-.317-.277c-.326-.522-.638-1.056-.927-1.588a.72.72,0,0,1,.287-.976.722.722,0,0,1,.976.288c.276.508.574,1.017.885,1.516a.719.719,0,0,1-.23.99A.718.718,0,0,1,561.139-3135.681Z" transform="translate(-559.806 3138.609)" fill="url(#linear-gradient-25)"/>
        </g>
        <g id="Grupo_130027" data-name="Grupo 130027" transform="translate(7.688 7.627)">
          <path id="Trazado_191874" data-name="Trazado 191874" d="M566.845-3156.1a.364.364,0,0,0,.327.268l4.424.291a19.317,19.317,0,0,0,3.83,4.949l-.824,4.354a.363.363,0,0,0,.177.383l4.617,2.639a.364.364,0,0,0,.421-.042l3.332-2.921a19.319,19.319,0,0,0,6.208.787l2.5,3.664a.364.364,0,0,0,.4.146l5.132-1.4a.365.365,0,0,0,.268-.328l.291-4.425a19.313,19.313,0,0,0,4.948-3.83l4.354.824a.366.366,0,0,0,.384-.177l2.639-4.618a.365.365,0,0,0-.042-.421l-2.921-3.333a19.315,19.315,0,0,0,.786-6.208l3.664-2.5a.365.365,0,0,0,.146-.4l-1.4-5.132a.364.364,0,0,0-.327-.268l-4.424-.291a19.308,19.308,0,0,0-3.83-4.948l.824-4.354a.363.363,0,0,0-.177-.384l-4.617-2.639a.366.366,0,0,0-.421.042l-3.332,2.92a19.3,19.3,0,0,0-6.208-.786l-2.5-3.664a.365.365,0,0,0-.4-.146l-5.132,1.4a.364.364,0,0,0-.268.327l-.291,4.424a19.323,19.323,0,0,0-4.949,3.831l-4.354-.824a.364.364,0,0,0-.384.177l-2.639,4.617a.366.366,0,0,0,.042.422l2.92,3.332a19.319,19.319,0,0,0-.786,6.208l-3.664,2.5a.365.365,0,0,0-.146.4Z" transform="translate(-565.432 3188.054)" fill="#084a93"/>
          <path id="Trazado_191875" data-name="Trazado 191875" d="M592.263-3154.032a5.4,5.4,0,0,1-2.519-2.3,5.406,5.406,0,0,1-.5-4.135,5.449,5.449,0,0,1,6.7-3.781,5.45,5.45,0,0,1,3.781,6.7,5.4,5.4,0,0,1-2.568,3.279,5.4,5.4,0,0,1-4.135.5A5.478,5.478,0,0,1,592.263-3154.032Zm3.849-8.626a4.051,4.051,0,0,0-.553-.2,4.009,4.009,0,0,0-4.931,2.782,3.978,3.978,0,0,0,.369,3.041,3.984,3.984,0,0,0,2.412,1.89h0a3.975,3.975,0,0,0,3.041-.37,3.975,3.975,0,0,0,1.89-2.412A4.01,4.01,0,0,0,596.112-3162.659Z" transform="translate(-571.243 3182.243)" fill="#fff" opacity="0.56"/>
          <path id="Trazado_191876" data-name="Trazado 191876" d="M586.483-3149.312q-.624-.278-1.23-.623a13.661,13.661,0,0,1-2.247-1.6l-.093-.083a.72.72,0,0,1-.177-.827.715.715,0,0,1,.123-.189.72.72,0,0,1,1.016-.054,12.193,12.193,0,0,0,2.092,1.509h0l.124.069a11.984,11.984,0,0,0,5.732,1.531,12.2,12.2,0,0,0,3.236-.4l.026-.007.079-.022a12.038,12.038,0,0,0,7.331-5.677,12.317,12.317,0,0,0,.563-1.112,12.024,12.024,0,0,0,.605-8.086,12.036,12.036,0,0,0-5.677-7.329,12.046,12.046,0,0,0-9.2-1.169,12.036,12.036,0,0,0-7.33,5.677,12.077,12.077,0,0,0-.556,1.1,12.066,12.066,0,0,0-1.04,5.154.709.709,0,0,1-.062.307.719.719,0,0,1-.642.427.719.719,0,0,1-.734-.7,13.5,13.5,0,0,1,1.162-5.767,13.6,13.6,0,0,1,.621-1.229,13.467,13.467,0,0,1,8.2-6.352,13.453,13.453,0,0,1,10.289,1.308,13.459,13.459,0,0,1,6.351,8.2,13.449,13.449,0,0,1-.677,9.046q-.282.634-.63,1.245A13.573,13.573,0,0,1,586.483-3149.312Z" transform="translate(-568.629 3184.906)" fill="#fff" opacity="0.56"/>
        </g>
      </g>
      <g id="Grupo_130037" data-name="Grupo 130037" transform="translate(199.933 86.536)">
        <path id="Trazado_191877" data-name="Trazado 191877" d="M804.517-3333.809a7.5,7.5,0,0,0,.93-3.4c-.112-1.515.832-3.741-.173-3.576s-1.211.031-1.484,1.849S801.063-3330.41,804.517-3333.809Z" transform="translate(-794.181 3358.747)" fill="url(#linear-gradient-26)"/>
        <g id="Grupo_130029" data-name="Grupo 130029" transform="translate(52.301 187.614)">
          <path id="Trazado_191878" data-name="Trazado 191878" d="M867.348-3102.255a19.782,19.782,0,0,1-6.532-.933c0,.364,0,.734.012,1.118a.722.722,0,0,0,.689.735l20.1-.13a.918.918,0,0,0,.738-1.336C879.717-3102.583,873.006-3102.1,867.348-3102.255Z" transform="translate(-860.789 3112.651)" fill="url(#linear-gradient-27)"/>
          <path id="Trazado_191879" data-name="Trazado 191879" d="M861.665-3113.05a3.686,3.686,0,0,1,3.666-2.689l1.678.053c8.932,2.142,13.452,7.08,15.227,9.56a.944.944,0,0,1,.079.152c-2.635.218-9.346.7-15,.546a19.8,19.8,0,0,1-6.532-.933A25.244,25.244,0,0,1,861.665-3113.05Z" transform="translate(-860.78 3115.74)" fill="url(#linear-gradient-28)"/>
        </g>
        <path id="Trazado_191880" data-name="Trazado 191880" d="M870.944-3123.316l-1.4,6.757a1.1,1.1,0,0,1-.944.909,9.381,9.381,0,0,1-2.175-.035,1.389,1.389,0,0,1-1.1-1.632l.976-6Z" transform="translate(-809.592 3305.219)" fill="url(#linear-gradient-29)"/>
        <g id="Grupo_130030" data-name="Grupo 130030" transform="translate(17.174 187.618)">
          <path id="Trazado_191881" data-name="Trazado 191881" d="M829.281-3102.255a19.776,19.776,0,0,0,6.531-.933c0,.364,0,.734-.011,1.118a.723.723,0,0,1-.69.735l-20.1-.13a.918.918,0,0,1-.739-1.336C816.912-3102.583,823.623-3102.1,829.281-3102.255Z" transform="translate(-814.184 3112.648)" fill="url(#linear-gradient-30)"/>
          <path id="Trazado_191882" data-name="Trazado 191882" d="M814.307-3105.889a.931.931,0,0,1,.08-.151c1.775-2.48,6.295-7.418,15.227-9.56l4.285-.136s1.908,3.316,1.944,9.459a19.779,19.779,0,0,1-6.532.933C823.653-3105.185,816.943-3105.672,814.307-3105.889Z" transform="translate(-814.214 3115.736)" fill="url(#linear-gradient-31)"/>
        </g>
        <path id="Trazado_191883" data-name="Trazado 191883" d="M839.536-3124.689c-.047.32-.635,5.174-.862,7.056a.933.933,0,0,1-.787.842,9.79,9.79,0,0,1-2.943-.045,1.268,1.268,0,0,1-.96-1.272v-7.62Z" transform="translate(-801.884 3305.813)" fill="url(#linear-gradient-32)"/>
        <path id="Trazado_191884" data-name="Trazado 191884" d="M842.6-3241.864s-10.335,39.276-10.149,88.7a1.914,1.914,0,0,0,1.518,1.865,22.266,22.266,0,0,0,4.791.554,1.776,1.776,0,0,0,1.692-1.482c1.449-8.5,9.766-56.374,14.5-64.145,0,0,3.117,42.639,2.121,64.76a1.049,1.049,0,0,0,.925,1.091,17.609,17.609,0,0,0,3.846-.011,1.4,1.4,0,0,0,1.251-1.191c1.032-7.193,6.973-50,6.721-80.843-.014-1.739-4.6-9.3-4.6-9.3Z" transform="translate(-801.505 3334.398)" fill="url(#linear-gradient-33)"/>
        <path id="Trazado_191885" data-name="Trazado 191885" d="M888.406-3292.748c2.809-7.689,1.79-16.972,1.779-17.065l-.773.089c.01.091,1.007,9.2-1.738,16.709Z" transform="translate(-815.098 3351.122)" fill="url(#linear-gradient-34)"/>
        <g id="Grupo_130031" data-name="Grupo 130031" transform="translate(0.474 28.177)">
          <path id="Trazado_191886" data-name="Trazado 191886" d="M792.853-3293.819c-2.319-12.618,1.009-33.414,1.009-33.414l4.533,4.7s.766,16.976,3.993,24A15.686,15.686,0,0,0,792.853-3293.819Z" transform="translate(-792.032 3327.233)" fill="url(#linear-gradient-35)"/>
          <path id="Trazado_191887" data-name="Trazado 191887" d="M802.657-3297.995a5.779,5.779,0,0,0,2.1,2.735c2.914,1.6,8.568-7.53,12.782-15.443,3.031-5.688,5.319-10.745,5.319-10.745,3.031-3.423,10.537-3.894,17.519-3.458a106.69,106.69,0,0,1,14.444,1.988.152.152,0,0,0,.029,0c3.346.441,6.25.81,8.35,1.077a10.017,10.017,0,0,1,6.317,3.395c6.415,7.423,20.5,27.754,3.923,48.24a30.907,30.907,0,0,1-7.181-5.251c1.833-5.169,1.983-11.773-1.857-19.875-.131.645-.3,1.28-.49,1.906a117.615,117.615,0,0,0-5.567,33.956,1.059,1.059,0,0,1-.669.994c-6.968,2.793-20.389,1.13-24.889.461a1.517,1.517,0,0,1-1.27-1.721c1.343-9.732-2.323-23.28-6.075-33.893-22.023,21.824-29.889,13.583-32.323.345A15.685,15.685,0,0,1,802.657-3297.995Z" transform="translate(-792.3 3326.694)" fill="#ffb30b"/>
        </g>
        <path id="Trazado_191888" data-name="Trazado 191888" d="M871.914-3245.179c1.913-1.072,9.331-5.679,12.311-14.083a30.87,30.87,0,0,0,7.181,5.25,59.646,59.646,0,0,1-13.126,11.672h0c-.2,4.366-3.557,5.982-4.325,7.4s.323,1.092-.162,2.869-5.576-2.828-6.788-3.879-.486-3.959-.486-3.959a16.379,16.379,0,0,0-.4-1.818C865.8-3242.941,871.889-3245.17,871.914-3245.179Z" transform="translate(-809.789 3338.68)" fill="url(#linear-gradient-36)"/>
        <g id="Grupo_130033" data-name="Grupo 130033" transform="translate(42.545)">
          <path id="Trazado_191889" data-name="Trazado 191889" d="M866.221-3339.071l1.343,13.725s-7.721,2.326-13.337-1.636l3.947-12.474Z" transform="translate(-849.412 3358.419)" fill="url(#linear-gradient-37)"/>
          <g id="Grupo_130032" data-name="Grupo 130032">
            <path id="Trazado_191890" data-name="Trazado 191890" d="M852.6-3354.953c-.092.238-.479,17.107-.479,17.107l9.636.017,2.743-15.933S854.131-3358.94,852.6-3354.953Z" transform="translate(-848.892 3362.604)" fill="url(#linear-gradient-38)"/>
            <path id="Trazado_191891" data-name="Trazado 191891" d="M860.14-3353.776a1.385,1.385,0,0,1,.433,1.14l-.776,8.379a1.353,1.353,0,0,1-.086.369c-.256.656-1.242,2.676-3.292,1.555-1.748-.956-3.368-1.81-4.684-1.852a1.383,1.383,0,0,0-1.417,1.363,51.543,51.543,0,0,0,.374,7.617,1.377,1.377,0,0,0,1.454,1.176,38.423,38.423,0,0,0,8.542-1.415,1.384,1.384,0,0,0,.939-1.069c.409-2.211,1.578-8.406,2.177-10.1.557-1.577,2.721-2.123,3.732-2.294a1.4,1.4,0,0,0,.934-.61,3.05,3.05,0,0,0-.976-4.681,1.385,1.385,0,0,1-.429-1.881,3.062,3.062,0,0,0-.824-4.424,4.317,4.317,0,0,0-5.205-.038,1.437,1.437,0,0,1-1.723-.1.914.914,0,0,0-.887-.2,1.344,1.344,0,0,1-1.664-.952,3.545,3.545,0,0,0-3.544-2.8c-4.267-.234-5.77,4.21-5.3,7.124s5.115,2.9,7.634,2.064C857.406-3356.029,859.278-3354.586,860.14-3353.776Z" transform="translate(-847.839 3364.609)" fill="url(#linear-gradient-39)"/>
            <path id="Trazado_191892" data-name="Trazado 191892" d="M868.567-3338.63s-.61-5.112,1.389-5.874,4.431.425,3.083,3.72C871.364-3336.685,868.567-3338.63,868.567-3338.63Z" transform="translate(-852.92 3359.716)" fill="url(#linear-gradient-40)"/>
          </g>
        </g>
        <g id="Grupo_130035" data-name="Grupo 130035" transform="translate(32.391 46.459)">
          <g id="Grupo_130034" data-name="Grupo 130034">
            <path id="Trazado_191893" data-name="Trazado 191893" d="M835.436-3288.656l.03,0a.241.241,0,0,0,.21-.271c-.013-.106-1.319-10.7-.61-13.755a.242.242,0,0,0-.182-.291.241.241,0,0,0-.291.181c-.728,3.137.547,13.487.6,13.925A.242.242,0,0,0,835.436-3288.656Z" transform="translate(-834.37 3302.982)" fill="#ffb30b"/>
          </g>
        </g>
        <g id="Grupo_130036" data-name="Grupo 130036" transform="translate(2.028 12.771)">
          <path id="Trazado_191894" data-name="Trazado 191894" d="M794.808-3346.749a.955.955,0,0,1,.375-.722.955.955,0,0,1,.795-.174l6.931,1.576a.542.542,0,0,1,.418.589l-2.015,18.013a.3.3,0,0,1-.109.2.3.3,0,0,1-.217.061l-6.05-.733a.958.958,0,0,1-.842-.989Z" transform="translate(-794.093 3347.669)" fill="url(#linear-gradient-41)"/>
          <path id="Trazado_191895" data-name="Trazado 191895" d="M797.34-3345.238a.544.544,0,0,1,.22-.406.539.539,0,0,1,.453-.089l4.56,1.14a.542.542,0,0,1,.407.586l-1.73,15.34a.294.294,0,0,1-.116.2.292.292,0,0,1-.226.053l-4.205-.748a.293.293,0,0,1-.241-.3Z" transform="translate(-794.676 3347.197)" fill="#b9ddfc"/>
          <path id="Trazado_191896" data-name="Trazado 191896" d="M801.1-3345.657c-.011.054.063.115.167.137l1.525.316c.1.021.2-.005.207-.059l.011-.053c.011-.054-.064-.116-.167-.137l-1.524-.316c-.1-.022-.2.005-.208.06Z" transform="translate(-795.818 3347.203)" fill="url(#linear-gradient-42)"/>
        </g>
        <path id="Trazado_191897" data-name="Trazado 191897" d="M791.739-3341.425c1.12-.412,3.311-4.2,3.73-2.957s-.177,2.957,0,3.488,1.389,3.478.844,4.833a52.527,52.527,0,0,0-1.374,5.59,1.144,1.144,0,0,1-1.12.912,1.145,1.145,0,0,1-1.121-.911C792.654-3330.683,790.619-3341.013,791.739-3341.425Z" transform="translate(-791.403 3359.693)" fill="url(#linear-gradient-43)"/>
      </g>
    </g>
  </g>
</svg>
