<svg id="_10" data-name="10" xmlns="http://www.w3.org/2000/svg" width="189.999" height="189.999" viewBox="0 0 189.999 189.999">
  <g id="Grupo_113834" data-name="Grupo 113834" transform="translate(3.065 3.065)">
    <g id="Grupo_113823" data-name="Grupo 113823" transform="translate(153.225 15.323)">
      <path id="Trazado_118618" data-name="Trazado 118618" d="M81.645,12.129V36.645a6.147,6.147,0,0,1-6.129,6.129H57.129A6.147,6.147,0,0,1,51,36.645V12.129A6.147,6.147,0,0,1,57.129,6H75.516A6.147,6.147,0,0,1,81.645,12.129Z" transform="translate(-51 -6)" fill="#e8e8e8"/>
    </g>
    <g id="Grupo_113824" data-name="Grupo 113824" transform="translate(104.193 15.323)">
      <path id="Trazado_118619" data-name="Trazado 118619" d="M35,36.645V12.129A6.147,6.147,0,0,1,41.129,6H59.516a6.147,6.147,0,0,1,6.129,6.129V36.645a6.147,6.147,0,0,1-6.129,6.129H41.129A6.147,6.147,0,0,1,35,36.645Z" transform="translate(-35 -6)" fill="#e8e8e8"/>
    </g>
    <g id="Grupo_113825" data-name="Grupo 113825" transform="translate(0 24.516)">
      <path id="Trazado_118620" data-name="Trazado 118620" d="M1,9V76.419a6.147,6.147,0,0,0,6.129,6.129l85.806,0V9Z" transform="translate(-1 -9)" fill="#d2e1f1"/>
    </g>
    <g id="Grupo_113826" data-name="Grupo 113826" transform="translate(12.258 36.774)">
      <path id="Trazado_118621" data-name="Trazado 118621" d="M5,13H72.419V25.258H5Z" transform="translate(-5 -13)" fill="#00defc"/>
    </g>
    <g id="Grupo_113827" data-name="Grupo 113827">
      <path id="Trazado_118622" data-name="Trazado 118622" d="M1,25.516V7.129A6.147,6.147,0,0,1,7.129,1H86.806a6.147,6.147,0,0,1,6.129,6.129V25.516Z" transform="translate(-1 -1)" fill="#ffb30b"/>
    </g>
    <g id="Grupo_113828" data-name="Grupo 113828" transform="translate(9.194 110.322)">
      <path id="Trazado_118623" data-name="Trazado 118623" d="M43.839,86.032a6.174,6.174,0,0,0-6.129,6.129,18.518,18.518,0,0,0,1.042,6.129H28.516l-1.379-4.137A27.3,27.3,0,0,1,21.192,91.7L17.3,93.663,8.627,84.99,10.589,81.1a27.3,27.3,0,0,1-2.452-5.945L4,73.774V61.516l4.137-1.379a27.3,27.3,0,0,1,2.452-5.945L8.627,50.3,17.3,41.627l3.892,1.961a27.3,27.3,0,0,1,5.945-2.452L28.516,37H43.839V55.387a15.142,15.142,0,0,0-9.194-3.064A15.323,15.323,0,1,0,43.839,79.9Z" transform="translate(-4 -37)" fill="#ffb30b"/>
    </g>
    <g id="Grupo_113829" data-name="Grupo 113829" transform="translate(42.903 159.354)">
      <path id="Trazado_118624" data-name="Trazado 118624" d="M149.838,53H21.129A6.174,6.174,0,0,0,15,59.129,18.354,18.354,0,0,0,33.387,77.516H137.58a18.415,18.415,0,0,0,18.387-18.387A6.147,6.147,0,0,0,149.838,53Z" transform="translate(-15 -53)" fill="#b0c0d2"/>
    </g>
    <g id="Grupo_113830" data-name="Grupo 113830" transform="translate(49.032 73.548)">
      <path id="Trazado_118625" data-name="Trazado 118625" d="M145.709,37.258v73.548H17V37.258A12.255,12.255,0,0,1,29.258,25H133.451A12.255,12.255,0,0,1,145.709,37.258Z" transform="translate(-17 -25)" fill="#dee4f0"/>
    </g>
    <g id="Grupo_113831" data-name="Grupo 113831" transform="translate(153.225 171.612)">
      <path id="Trazado_118626" data-name="Trazado 118626" d="M51,57H63.258V69.258H51Z" transform="translate(-51 -57)" fill="#00defc"/>
    </g>
    <g id="Grupo_113832" data-name="Grupo 113832" transform="translate(128.709 171.612)">
      <path id="Trazado_118627" data-name="Trazado 118627" d="M43,57H55.258V69.258H43Z" transform="translate(-43 -57)" fill="#00defc"/>
    </g>
    <g id="Grupo_113833" data-name="Grupo 113833" transform="translate(61.29 85.806)">
      <path id="Trazado_118628" data-name="Trazado 118628" d="M21,87.226V32.064A3.074,3.074,0,0,1,24.065,29h98.064a3.074,3.074,0,0,1,3.064,3.064V87.226a3.074,3.074,0,0,1-3.064,3.064H24.065A3.074,3.074,0,0,1,21,87.226Z" transform="translate(-21 -29)" fill="#b9ddfc"/>
    </g>
  </g>
  <g id="Grupo_113835" data-name="Grupo 113835">
    <path id="Trazado_118629" data-name="Trazado 118629" d="M20,34.129V89.29a6.135,6.135,0,0,0,6.129,6.129h98.064a6.135,6.135,0,0,0,6.129-6.129V34.129A6.135,6.135,0,0,0,124.193,28H26.129A6.135,6.135,0,0,0,20,34.129Zm6.129,0h98.064V89.29H26.129Z" transform="translate(41.29 57.806)"/>
    <path id="Trazado_118630" data-name="Trazado 118630" d="M0,0H31.252V6.129H0Z" transform="matrix(0.196, -0.981, 0.981, 0.196, 128.781, 134.146)"/>
    <path id="Trazado_118631" data-name="Trazado 118631" d="M47.293,39.626l7.027,7.027L47.293,53.68l4.333,4.333,11.36-11.36-11.36-11.36Z" transform="translate(97.636 72.862)"/>
    <path id="Trazado_118632" data-name="Trazado 118632" d="M46.946,35.293l-11.36,11.36,11.36,11.36,4.333-4.333-7.027-7.027,7.027-7.027Z" transform="translate(73.467 72.862)"/>
    <path id="Trazado_118633" data-name="Trazado 118633" d="M24,32H54.645v6.129H24Z" transform="translate(49.548 66.064)"/>
    <path id="Trazado_118634" data-name="Trazado 118634" d="M24,36H54.645v6.129H24Z" transform="translate(49.548 74.322)"/>
    <path id="Trazado_118635" data-name="Trazado 118635" d="M24,40H54.645v6.129H24Z" transform="translate(49.548 82.58)"/>
    <path id="Trazado_118636" data-name="Trazado 118636" d="M24,44H54.645v6.129H24Z" transform="translate(49.548 90.838)"/>
    <path id="Trazado_118637" data-name="Trazado 118637" d="M8,4h6.129v6.129H8Z" transform="translate(16.516 8.258)"/>
    <path id="Trazado_118638" data-name="Trazado 118638" d="M4,4h6.129v6.129H4Z" transform="translate(8.258 8.258)"/>
    <path id="Trazado_118639" data-name="Trazado 118639" d="M12,4h6.129v6.129H12Z" transform="translate(24.774 8.258)"/>
    <path id="Trazado_118640" data-name="Trazado 118640" d="M162.419,58.226h18.387A9.2,9.2,0,0,0,190,49.032V24.516a9.2,9.2,0,0,0-9.194-9.194H162.419a9.2,9.2,0,0,0-9.193,9.194V33.71H140.967V24.516a9.2,9.2,0,0,0-9.193-9.194H113.387a9.2,9.2,0,0,0-9.193,9.194V33.71H98.064V9.194A9.2,9.2,0,0,0,88.871,0H9.194A9.2,9.2,0,0,0,0,9.194V95a9.2,9.2,0,0,0,9.194,9.194H49.032v6.129H34.564l-1.578,4.732a31.462,31.462,0,0,0-3.573,1.471L24.96,114.3,13.168,126.089l2.228,4.453a29.95,29.95,0,0,0-1.471,3.573l-4.732,1.578v16.674l4.732,1.578a30.468,30.468,0,0,0,1.471,3.573l-2.228,4.453L24.96,173.763l4.453-2.228a29.953,29.953,0,0,0,3.573,1.471l1.578,4.735H45A21.457,21.457,0,0,0,64.355,190H168.548A21.477,21.477,0,0,0,190,168.547a9.181,9.181,0,0,0-6.129-8.63V88.87a15.34,15.34,0,0,0-15.323-15.323H98.064V39.838h6.129v9.193a9.2,9.2,0,0,0,9.193,9.194h18.387a9.2,9.2,0,0,0,9.193-9.194V39.838h12.258v9.193a9.2,9.2,0,0,0,9.193,9.194ZM9.194,6.129H88.871a3.068,3.068,0,0,1,3.064,3.065V24.516H6.129V9.194A3.068,3.068,0,0,1,9.194,6.129ZM49.032,154.613A12.114,12.114,0,0,1,42.9,156.29a12.258,12.258,0,1,1,0-24.516,12.111,12.111,0,0,1,6.129,1.673Zm-10.049,17-1.189-3.567-1.56-.441a24.581,24.581,0,0,1-5.289-2.185l-1.416-.791L26.174,166.3l-5.547-5.541L22.3,157.4l-.791-1.416a24.161,24.161,0,0,1-2.179-5.286l-.441-1.563-3.57-1.186v-7.842l3.57-1.189.441-1.563a24.286,24.286,0,0,1,2.179-5.286l.794-1.416L20.627,127.3l5.544-5.544,3.356,1.676,1.416-.791a24.582,24.582,0,0,1,5.289-2.185l1.56-.441,1.192-3.564H49.032v10.26a18.413,18.413,0,1,0-3.57,35.5,9.155,9.155,0,0,0-2.559,6.334,21.53,21.53,0,0,0,.245,3.064ZM140.967,183.87h-6.129v-6.129h6.129Zm24.516,0h-6.129v-6.129h6.129Zm6.129-.31V171.612H153.225V183.87H147.1V171.612H128.709V183.87H64.355a15.34,15.34,0,0,1-15.323-15.323,3.068,3.068,0,0,1,3.065-3.064H180.806a3.068,3.068,0,0,1,3.064,3.064A15.351,15.351,0,0,1,171.612,183.561Zm6.129-94.69v70.484H55.161V88.871a9.2,9.2,0,0,1,9.194-9.194H168.548a9.2,9.2,0,0,1,9.194,9.194ZM64.355,73.548A15.34,15.34,0,0,0,49.032,88.871v9.193H9.194A3.068,3.068,0,0,1,6.129,95V30.645H91.935v42.9Zm70.484-24.516a3.068,3.068,0,0,1-3.064,3.064H113.387a3.068,3.068,0,0,1-3.064-3.064V24.516a3.068,3.068,0,0,1,3.064-3.065h18.387a3.068,3.068,0,0,1,3.064,3.065Zm24.516-24.516a3.068,3.068,0,0,1,3.065-3.065h18.387a3.068,3.068,0,0,1,3.064,3.065V49.032a3.068,3.068,0,0,1-3.064,3.064H162.419a3.068,3.068,0,0,1-3.065-3.064Z"/>
    <path id="Trazado_118641" data-name="Trazado 118641" d="M38,9H50.258v6.129H38Z" transform="translate(78.451 18.581)"/>
    <path id="Trazado_118642" data-name="Trazado 118642" d="M38,13H50.258v6.129H38Z" transform="translate(78.451 26.839)"/>
    <path id="Trazado_118643" data-name="Trazado 118643" d="M54,9H66.258v6.129H54Z" transform="translate(111.483 18.581)"/>
    <path id="Trazado_118644" data-name="Trazado 118644" d="M54,13H66.258v6.129H54Z" transform="translate(111.483 26.839)"/>
    <path id="Trazado_118645" data-name="Trazado 118645" d="M4,12V30.387H77.548V12ZM71.419,24.258H10.129V18.129h61.29Z" transform="translate(8.258 24.774)"/>
    <path id="Trazado_118646" data-name="Trazado 118646" d="M4,20H77.548v6.129H4Z" transform="translate(8.258 41.29)"/>
    <path id="Trazado_118647" data-name="Trazado 118647" d="M4,24H34.645v6.129H4Z" transform="translate(8.258 49.548)"/>
    <path id="Trazado_118648" data-name="Trazado 118648" d="M4,28H34.645v6.129H4Z" transform="translate(8.258 57.806)"/>
  </g>
</svg>
