<svg xmlns="http://www.w3.org/2000/svg" width="614.788" height="255.288" viewBox="0 0 614.788 255.288">
  <g id="_12" data-name="12" transform="translate(-715.207 -6348.457)">
    <path id="Trazado_193965" data-name="Trazado 193965" d="M788.921,2396.773v6.3h19.474v-6.3h8.666l-18.4-18.4-18.4,18.4Z" transform="translate(152.46 4197.835)" fill="#003b82"/>
    <path id="Trazado_193966" data-name="Trazado 193966" d="M936.36,2396.773v6.3h19.474v-6.3H964.5l-18.4-18.4-18.4,18.4Z" transform="translate(145.631 4197.835)" fill="#003b82"/>
    <path id="Rectángulo_293621" data-name="Rectángulo 293621" d="M0,0H283.66V28.674H0Z" transform="translate(715.207 6350.808)" fill="#e3e3e3"/>
    <path id="Línea_338" data-name="Línea 338" d="M283.19,0H0" transform="translate(715.677 6440.917)" fill="none" stroke="#d9d9d9" stroke-width="0.493"/>
    <path id="Línea_339" data-name="Línea 339" d="M283.19,0H0" transform="translate(715.677 6472.703)" fill="none" stroke="#d9d9d9" stroke-width="0.493"/>
    <path id="Línea_341" data-name="Línea 341" d="M283.19,0H0" transform="translate(715.442 6504.487)" fill="none" stroke="#d9d9d9" stroke-width="0.493"/>
    <path id="Línea_342" data-name="Línea 342" d="M283.19,0H0" transform="translate(715.442 6536.272)" fill="none" stroke="#d9d9d9" stroke-width="0.493"/>
    <path id="Línea_343" data-name="Línea 343" d="M283.19,0H0" transform="translate(715.442 6568.057)" fill="none" stroke="#d9d9d9" stroke-width="0.493"/>
    <path id="Línea_337" data-name="Línea 337" d="M0,0V159.967" transform="translate(715.983 6407.85)" fill="none" stroke="#d9d9d9" stroke-width="0.719"/>
    <path id="Línea_337-2" data-name="Línea 337" d="M0,0V159.967" transform="translate(998.938 6407.85)" fill="none" stroke="#d9d9d9" stroke-width="0.719"/>
    <path id="Rectángulo_293620" data-name="Rectángulo 293620" d="M0,0H283.66V2.35H0Z" transform="translate(715.207 6348.457)" fill="#fda000"/>
    <path id="Rectángulo_293621-2" data-name="Rectángulo 293621" d="M0,0H283.66V28.674H0Z" transform="translate(715.207 6379.482)" fill="#e3e3e3"/>
    <path id="Trazado_194658" data-name="Trazado 194658" d="M9.324-3.552A3.774,3.774,0,0,1,8.053-.842,4.463,4.463,0,0,1,5.032.146,4.013,4.013,0,0,1,1.805-1.234,5.661,5.661,0,0,1,.63-5.024v-.652a6.393,6.393,0,0,1,.542-2.71,4.062,4.062,0,0,1,1.549-1.8,4.339,4.339,0,0,1,2.34-.626,4.348,4.348,0,0,1,2.974.989,4.055,4.055,0,0,1,1.3,2.776h-2.2a2.227,2.227,0,0,0-.575-1.5,2.129,2.129,0,0,0-1.505-.465,1.867,1.867,0,0,0-1.644.787,4.413,4.413,0,0,0-.56,2.443v.806A4.723,4.723,0,0,0,3.38-2.446a1.832,1.832,0,0,0,1.652.8,2.169,2.169,0,0,0,1.52-.465,2.1,2.1,0,0,0,.575-1.439Zm.974-.483a4.7,4.7,0,0,1,.454-2.1,3.324,3.324,0,0,1,1.307-1.428,3.814,3.814,0,0,1,1.981-.505,3.609,3.609,0,0,1,2.618.981,3.939,3.939,0,0,1,1.132,2.666l.015.542A4.142,4.142,0,0,1,16.787-.956a3.539,3.539,0,0,1-2.732,1.1,3.556,3.556,0,0,1-2.736-1.1A4.215,4.215,0,0,1,10.3-3.94Zm2.117.15a2.962,2.962,0,0,0,.425,1.727,1.4,1.4,0,0,0,1.216.6,1.4,1.4,0,0,0,1.2-.591,3.241,3.241,0,0,0,.432-1.889,2.933,2.933,0,0,0-.432-1.716,1.4,1.4,0,0,0-1.216-.609,1.382,1.382,0,0,0-1.2.605A3.3,3.3,0,0,0,12.415-3.885Zm6.365-.136a4.776,4.776,0,0,1,.831-2.952,2.7,2.7,0,0,1,2.274-1.1,2.427,2.427,0,0,1,1.912.864V-11.25H25.92V0H24.009l-.1-.842A2.491,2.491,0,0,1,21.87.146a2.69,2.69,0,0,1-2.245-1.1A4.93,4.93,0,0,1,18.779-4.021Zm2.117.158a3.128,3.128,0,0,0,.388,1.709,1.265,1.265,0,0,0,1.128.594A1.416,1.416,0,0,0,23.8-2.389V-5.521a1.4,1.4,0,0,0-1.37-.829Q20.9-6.35,20.9-3.863ZM33.428,1.655H26.755V0h6.672ZM38.848,0a2.351,2.351,0,0,1-.212-.71,2.561,2.561,0,0,1-2,.857,2.814,2.814,0,0,1-1.93-.674,2.167,2.167,0,0,1-.765-1.7,2.24,2.24,0,0,1,.934-1.934,4.608,4.608,0,0,1,2.7-.681h.974V-5.3a1.306,1.306,0,0,0-.282-.879,1.109,1.109,0,0,0-.89-.33,1.261,1.261,0,0,0-.839.256.871.871,0,0,0-.3.7H34.116a2.126,2.126,0,0,1,.425-1.274,2.808,2.808,0,0,1,1.2-.919,4.378,4.378,0,0,1,1.743-.333,3.459,3.459,0,0,1,2.325.736,2.575,2.575,0,0,1,.861,2.069v3.435a3.789,3.789,0,0,0,.315,1.707V0ZM37.1-1.472a1.823,1.823,0,0,0,.864-.209,1.371,1.371,0,0,0,.586-.56V-3.6h-.791q-1.589,0-1.692,1.1l-.007.125a.847.847,0,0,0,.278.652A1.081,1.081,0,0,0,37.1-1.472ZM44.531,0H42.407V-11.25h2.124Zm1.414-4.036a4.737,4.737,0,0,1,.831-2.952,2.718,2.718,0,0,1,2.281-1.084,2.433,2.433,0,0,1,2.029.974l.139-.828h1.86V3.047H50.962V-.681a2.44,2.44,0,0,1-1.919.828,2.7,2.7,0,0,1-2.256-1.1A4.969,4.969,0,0,1,45.945-4.036Zm2.117.15a3.107,3.107,0,0,0,.4,1.731,1.278,1.278,0,0,0,1.124.594,1.423,1.423,0,0,0,1.377-.778V-5.617A1.412,1.412,0,0,0,49.6-6.365a1.293,1.293,0,0,0-1.135.594A3.432,3.432,0,0,0,48.062-3.885ZM59.495-.806a2.654,2.654,0,0,1-2.168.952,2.5,2.5,0,0,1-1.945-.732A3.127,3.127,0,0,1,54.7-2.732V-7.925h2.117V-2.8q0,1.239,1.128,1.239a1.528,1.528,0,0,0,1.479-.748V-7.925h2.124V0H59.553ZM65.376,0H63.252V-7.925h2.124ZM63.127-9.976a1.042,1.042,0,0,1,.319-.784,1.2,1.2,0,0,1,.868-.308,1.2,1.2,0,0,1,.864.308,1.036,1.036,0,0,1,.322.784,1.039,1.039,0,0,1-.326.791,1.2,1.2,0,0,1-.861.308,1.2,1.2,0,0,1-.861-.308A1.039,1.039,0,0,1,63.127-9.976ZM69.353,0H67.229V-11.25h2.124Zm5.391.146A3.89,3.89,0,0,1,71.906-.923a3.8,3.8,0,0,1-1.095-2.849v-.205a4.787,4.787,0,0,1,.461-2.135,3.386,3.386,0,0,1,1.307-1.45,3.669,3.669,0,0,1,1.93-.509,3.289,3.289,0,0,1,2.56,1.025A4.167,4.167,0,0,1,78-4.138v.864H72.957a1.966,1.966,0,0,0,.619,1.245,1.871,1.871,0,0,0,1.307.469,2.285,2.285,0,0,0,1.912-.886l1.04,1.165A3.178,3.178,0,0,1,76.545-.231,4.229,4.229,0,0,1,74.744.146ZM74.5-6.365a1.323,1.323,0,0,0-1.022.427,2.209,2.209,0,0,0-.5,1.221h2.944v-.169a1.576,1.576,0,0,0-.381-1.092A1.365,1.365,0,0,0,74.5-6.365Zm9.155.425A5.751,5.751,0,0,0,82.9-6a1.55,1.55,0,0,0-1.575.813V0H79.2V-7.925h2l.059.945a1.961,1.961,0,0,1,1.765-1.091,2.218,2.218,0,0,1,.659.1Z" transform="translate(722.154 6396.738)" fill="#0c1d30"/>
    <path id="Trazado_194659" data-name="Trazado 194659" d="M9.324-3.552A3.774,3.774,0,0,1,8.053-.842,4.463,4.463,0,0,1,5.032.146,4.013,4.013,0,0,1,1.805-1.234,5.661,5.661,0,0,1,.63-5.024v-.652a6.393,6.393,0,0,1,.542-2.71,4.062,4.062,0,0,1,1.549-1.8,4.339,4.339,0,0,1,2.34-.626,4.348,4.348,0,0,1,2.974.989,4.055,4.055,0,0,1,1.3,2.776h-2.2a2.227,2.227,0,0,0-.575-1.5,2.129,2.129,0,0,0-1.505-.465,1.867,1.867,0,0,0-1.644.787,4.413,4.413,0,0,0-.56,2.443v.806A4.723,4.723,0,0,0,3.38-2.446a1.832,1.832,0,0,0,1.652.8,2.169,2.169,0,0,0,1.52-.465,2.1,2.1,0,0,0,.575-1.439ZM12.861,0H10.737V-11.25h2.124ZM19.2,0a2.351,2.351,0,0,1-.212-.71,2.561,2.561,0,0,1-2,.857,2.814,2.814,0,0,1-1.93-.674,2.167,2.167,0,0,1-.765-1.7,2.24,2.24,0,0,1,.934-1.934,4.608,4.608,0,0,1,2.7-.681H18.9V-5.3a1.306,1.306,0,0,0-.282-.879,1.109,1.109,0,0,0-.89-.33,1.261,1.261,0,0,0-.839.256.871.871,0,0,0-.3.7H14.465a2.126,2.126,0,0,1,.425-1.274,2.808,2.808,0,0,1,1.2-.919,4.378,4.378,0,0,1,1.743-.333,3.459,3.459,0,0,1,2.325.736,2.575,2.575,0,0,1,.861,2.069v3.435a3.789,3.789,0,0,0,.315,1.707V0Zm-1.75-1.472a1.823,1.823,0,0,0,.864-.209,1.371,1.371,0,0,0,.586-.56V-3.6h-.791q-1.589,0-1.692,1.1l-.007.125a.847.847,0,0,0,.278.652A1.081,1.081,0,0,0,17.446-1.472ZM25.5-2.585l1.472-5.339h2.212L26.514,0H24.492L21.819-7.925h2.212ZM33.669.146A3.89,3.89,0,0,1,30.831-.923a3.8,3.8,0,0,1-1.095-2.849v-.205A4.787,4.787,0,0,1,30.2-6.112a3.386,3.386,0,0,1,1.307-1.45,3.669,3.669,0,0,1,1.93-.509,3.289,3.289,0,0,1,2.56,1.025,4.167,4.167,0,0,1,.934,2.908v.864H31.882A1.966,1.966,0,0,0,32.5-2.029a1.871,1.871,0,0,0,1.307.469,2.285,2.285,0,0,0,1.912-.886l1.04,1.165A3.178,3.178,0,0,1,35.471-.231,4.229,4.229,0,0,1,33.669.146Zm-.242-6.511a1.323,1.323,0,0,0-1.022.427,2.209,2.209,0,0,0-.5,1.221h2.944v-.169a1.576,1.576,0,0,0-.381-1.092A1.365,1.365,0,0,0,33.428-6.365ZM49-3.889a4.753,4.753,0,0,1-.831,2.933,2.665,2.665,0,0,1-2.245,1.1,2.469,2.469,0,0,1-1.941-.835V3.047H41.865V-7.925h1.963l.073.776a2.488,2.488,0,0,1,2.007-.923,2.683,2.683,0,0,1,2.278,1.084A4.882,4.882,0,0,1,49-4Zm-2.117-.154A3.119,3.119,0,0,0,46.49-5.75a1.276,1.276,0,0,0-1.139-.6,1.386,1.386,0,0,0-1.37.762v3.245a1.41,1.41,0,0,0,1.384.784Q46.882-1.56,46.882-4.043Zm7.881-1.9A5.751,5.751,0,0,0,54-6a1.55,1.55,0,0,0-1.575.813V0H50.31V-7.925h2l.059.945a1.961,1.961,0,0,1,1.765-1.091,2.218,2.218,0,0,1,.659.1ZM58.015,0H55.891V-7.925h2.124ZM55.767-9.976a1.042,1.042,0,0,1,.319-.784,1.2,1.2,0,0,1,.868-.308,1.2,1.2,0,0,1,.864.308,1.036,1.036,0,0,1,.322.784,1.039,1.039,0,0,1-.326.791,1.2,1.2,0,0,1-.861.308,1.2,1.2,0,0,1-.861-.308A1.039,1.039,0,0,1,55.767-9.976Zm5.94,2.051.066.916A2.767,2.767,0,0,1,64.05-8.071a2.3,2.3,0,0,1,1.875.74,3.451,3.451,0,0,1,.63,2.212V0H64.438V-5.068a1.373,1.373,0,0,0-.293-.978,1.312,1.312,0,0,0-.974-.3,1.456,1.456,0,0,0-1.34.762V0H59.714V-7.925ZM71.455-1.56a1.388,1.388,0,0,0,.952-.322,1.129,1.129,0,0,0,.381-.857h1.985a2.715,2.715,0,0,1-.439,1.476,2.9,2.9,0,0,1-1.183,1.04,3.7,3.7,0,0,1-1.659.37,3.44,3.44,0,0,1-2.681-1.08,4.275,4.275,0,0,1-.981-2.985v-.139A4.226,4.226,0,0,1,68.8-6.98a3.4,3.4,0,0,1,2.673-1.091,3.333,3.333,0,0,1,2.384.846,3,3,0,0,1,.912,2.252H72.788a1.455,1.455,0,0,0-.381-1.005,1.27,1.27,0,0,0-.967-.387,1.275,1.275,0,0,0-1.117.539,3.125,3.125,0,0,0-.377,1.749v.22A3.164,3.164,0,0,0,70.32-2.1,1.291,1.291,0,0,0,71.455-1.56ZM78.215,0H76.091V-7.925h2.124ZM75.967-9.976a1.042,1.042,0,0,1,.319-.784,1.2,1.2,0,0,1,.868-.308,1.2,1.2,0,0,1,.864.308,1.036,1.036,0,0,1,.322.784,1.039,1.039,0,0,1-.326.791,1.2,1.2,0,0,1-.861.308,1.2,1.2,0,0,1-.861-.308A1.039,1.039,0,0,1,75.967-9.976ZM87.092-3.889a4.753,4.753,0,0,1-.831,2.933,2.665,2.665,0,0,1-2.245,1.1,2.469,2.469,0,0,1-1.941-.835V3.047H79.958V-7.925h1.963l.073.776A2.488,2.488,0,0,1,84-8.071a2.683,2.683,0,0,1,2.278,1.084A4.882,4.882,0,0,1,87.092-4Zm-2.117-.154a3.119,3.119,0,0,0-.392-1.707,1.276,1.276,0,0,0-1.139-.6,1.386,1.386,0,0,0-1.37.762v3.245a1.41,1.41,0,0,0,1.384.784Q84.976-1.56,84.976-4.043ZM93,0a2.351,2.351,0,0,1-.212-.71,2.561,2.561,0,0,1-2,.857,2.814,2.814,0,0,1-1.93-.674,2.167,2.167,0,0,1-.765-1.7,2.24,2.24,0,0,1,.934-1.934,4.608,4.608,0,0,1,2.7-.681H92.7V-5.3a1.306,1.306,0,0,0-.282-.879,1.109,1.109,0,0,0-.89-.33,1.261,1.261,0,0,0-.839.256.871.871,0,0,0-.3.7H88.264a2.126,2.126,0,0,1,.425-1.274,2.808,2.808,0,0,1,1.2-.919,4.378,4.378,0,0,1,1.743-.333,3.459,3.459,0,0,1,2.325.736,2.575,2.575,0,0,1,.861,2.069v3.435a3.789,3.789,0,0,0,.315,1.707V0Zm-1.75-1.472a1.823,1.823,0,0,0,.864-.209,1.371,1.371,0,0,0,.586-.56V-3.6H91.9q-1.589,0-1.692,1.1l-.007.125a.847.847,0,0,0,.278.652A1.081,1.081,0,0,0,91.245-1.472ZM98.679,0H96.555V-11.25h2.124Z" transform="translate(792.28 6600.698)" fill="#0c1d30"/>
    <path id="Trazado_194660" data-name="Trazado 194660" d="M9.324-3.552A3.774,3.774,0,0,1,8.053-.842,4.463,4.463,0,0,1,5.032.146,4.013,4.013,0,0,1,1.805-1.234,5.661,5.661,0,0,1,.63-5.024v-.652a6.393,6.393,0,0,1,.542-2.71,4.062,4.062,0,0,1,1.549-1.8,4.339,4.339,0,0,1,2.34-.626,4.348,4.348,0,0,1,2.974.989,4.055,4.055,0,0,1,1.3,2.776h-2.2a2.227,2.227,0,0,0-.575-1.5,2.129,2.129,0,0,0-1.505-.465,1.867,1.867,0,0,0-1.644.787,4.413,4.413,0,0,0-.56,2.443v.806A4.723,4.723,0,0,0,3.38-2.446a1.832,1.832,0,0,0,1.652.8,2.169,2.169,0,0,0,1.52-.465,2.1,2.1,0,0,0,.575-1.439ZM12.861,0H10.737V-11.25h2.124ZM19.2,0a2.351,2.351,0,0,1-.212-.71,2.561,2.561,0,0,1-2,.857,2.814,2.814,0,0,1-1.93-.674,2.167,2.167,0,0,1-.765-1.7,2.24,2.24,0,0,1,.934-1.934,4.608,4.608,0,0,1,2.7-.681H18.9V-5.3a1.306,1.306,0,0,0-.282-.879,1.109,1.109,0,0,0-.89-.33,1.261,1.261,0,0,0-.839.256.871.871,0,0,0-.3.7H14.465a2.126,2.126,0,0,1,.425-1.274,2.808,2.808,0,0,1,1.2-.919,4.378,4.378,0,0,1,1.743-.333,3.459,3.459,0,0,1,2.325.736,2.575,2.575,0,0,1,.861,2.069v3.435a3.789,3.789,0,0,0,.315,1.707V0Zm-1.75-1.472a1.823,1.823,0,0,0,.864-.209,1.371,1.371,0,0,0,.586-.56V-3.6h-.791q-1.589,0-1.692,1.1l-.007.125a.847.847,0,0,0,.278.652A1.081,1.081,0,0,0,17.446-1.472ZM25.5-2.585l1.472-5.339h2.212L26.514,0H24.492L21.819-7.925h2.212ZM33.669.146A3.89,3.89,0,0,1,30.831-.923a3.8,3.8,0,0,1-1.095-2.849v-.205A4.787,4.787,0,0,1,30.2-6.112a3.386,3.386,0,0,1,1.307-1.45,3.669,3.669,0,0,1,1.93-.509,3.289,3.289,0,0,1,2.56,1.025,4.167,4.167,0,0,1,.934,2.908v.864H31.882A1.966,1.966,0,0,0,32.5-2.029a1.871,1.871,0,0,0,1.307.469,2.285,2.285,0,0,0,1.912-.886l1.04,1.165A3.178,3.178,0,0,1,35.471-.231,4.229,4.229,0,0,1,33.669.146Zm-.242-6.511a1.323,1.323,0,0,0-1.022.427,2.209,2.209,0,0,0-.5,1.221h2.944v-.169a1.576,1.576,0,0,0-.381-1.092A1.365,1.365,0,0,0,33.428-6.365ZM47.534-2.8a1.128,1.128,0,0,0-.439-.956,5.764,5.764,0,0,0-1.582-.7A11.215,11.215,0,0,1,43.7-5.186,2.956,2.956,0,0,1,41.887-7.83a2.575,2.575,0,0,1,.487-1.542,3.177,3.177,0,0,1,1.4-1.058,5.265,5.265,0,0,1,2.047-.381,4.793,4.793,0,0,1,2.036.414,3.242,3.242,0,0,1,1.388,1.168,3.057,3.057,0,0,1,.494,1.714h-2.2a1.438,1.438,0,0,0-.461-1.139,1.9,1.9,0,0,0-1.3-.406,2.026,2.026,0,0,0-1.252.341,1.074,1.074,0,0,0-.447.9,1.029,1.029,0,0,0,.524.872,5.916,5.916,0,0,0,1.542.659,6.661,6.661,0,0,1,2.732,1.4,2.786,2.786,0,0,1,.857,2.08A2.566,2.566,0,0,1,48.691-.641a4.585,4.585,0,0,1-2.82.787A5.445,5.445,0,0,1,43.63-.3a3.546,3.546,0,0,1-1.542-1.234,3.161,3.161,0,0,1-.531-1.816h2.2q0,1.765,2.109,1.765a2.052,2.052,0,0,0,1.223-.319A1.037,1.037,0,0,0,47.534-2.8Zm7.2,2.944A3.89,3.89,0,0,1,51.9-.923,3.8,3.8,0,0,1,50.8-3.772v-.205a4.787,4.787,0,0,1,.461-2.135,3.386,3.386,0,0,1,1.307-1.45,3.669,3.669,0,0,1,1.93-.509,3.289,3.289,0,0,1,2.56,1.025,4.167,4.167,0,0,1,.934,2.908v.864H52.947a1.966,1.966,0,0,0,.619,1.245,1.871,1.871,0,0,0,1.307.469,2.285,2.285,0,0,0,1.912-.886l1.04,1.165A3.178,3.178,0,0,1,56.536-.231,4.229,4.229,0,0,1,54.734.146Zm-.242-6.511a1.323,1.323,0,0,0-1.022.427,2.209,2.209,0,0,0-.5,1.221h2.944v-.169a1.576,1.576,0,0,0-.381-1.092A1.365,1.365,0,0,0,54.492-6.365Zm8,4.8a1.388,1.388,0,0,0,.952-.322,1.129,1.129,0,0,0,.381-.857h1.985a2.715,2.715,0,0,1-.439,1.476,2.9,2.9,0,0,1-1.183,1.04,3.7,3.7,0,0,1-1.659.37,3.44,3.44,0,0,1-2.681-1.08,4.275,4.275,0,0,1-.981-2.985v-.139a4.226,4.226,0,0,1,.974-2.922,3.4,3.4,0,0,1,2.673-1.091,3.333,3.333,0,0,1,2.384.846,3,3,0,0,1,.912,2.252H63.823a1.455,1.455,0,0,0-.381-1.005,1.27,1.27,0,0,0-.967-.387,1.275,1.275,0,0,0-1.117.539,3.125,3.125,0,0,0-.377,1.749v.22A3.164,3.164,0,0,0,61.355-2.1,1.291,1.291,0,0,0,62.49-1.56Zm9.272.754a2.654,2.654,0,0,1-2.168.952A2.5,2.5,0,0,1,67.65-.586a3.127,3.127,0,0,1-.685-2.146V-7.925h2.117V-2.8q0,1.239,1.128,1.239a1.528,1.528,0,0,0,1.479-.748V-7.925h2.124V0H71.821Zm5.6-7.119.066.916A2.767,2.767,0,0,1,79.7-8.071a2.3,2.3,0,0,1,1.875.74,3.451,3.451,0,0,1,.63,2.212V0H80.09V-5.068a1.373,1.373,0,0,0-.293-.978,1.312,1.312,0,0,0-.974-.3,1.456,1.456,0,0,0-1.34.762V0H75.366V-7.925Zm6.123,3.9a4.776,4.776,0,0,1,.831-2.952,2.7,2.7,0,0,1,2.274-1.1,2.427,2.427,0,0,1,1.912.864V-11.25h2.124V0H88.711l-.1-.842a2.491,2.491,0,0,1-2.036.989,2.69,2.69,0,0,1-2.245-1.1A4.93,4.93,0,0,1,83.481-4.021Zm2.117.158a3.128,3.128,0,0,0,.388,1.709,1.265,1.265,0,0,0,1.128.594A1.416,1.416,0,0,0,88.5-2.389V-5.521a1.4,1.4,0,0,0-1.37-.829Q85.6-6.35,85.6-3.863ZM96.855,0a2.351,2.351,0,0,1-.212-.71,2.561,2.561,0,0,1-2,.857,2.814,2.814,0,0,1-1.93-.674,2.167,2.167,0,0,1-.765-1.7,2.24,2.24,0,0,1,.934-1.934,4.608,4.608,0,0,1,2.7-.681h.974V-5.3a1.306,1.306,0,0,0-.282-.879,1.109,1.109,0,0,0-.89-.33,1.261,1.261,0,0,0-.839.256.871.871,0,0,0-.3.7H92.124a2.126,2.126,0,0,1,.425-1.274,2.808,2.808,0,0,1,1.2-.919,4.378,4.378,0,0,1,1.743-.333,3.459,3.459,0,0,1,2.325.736,2.575,2.575,0,0,1,.861,2.069v3.435a3.789,3.789,0,0,0,.315,1.707V0ZM95.1-1.472a1.823,1.823,0,0,0,.864-.209,1.371,1.371,0,0,0,.586-.56V-3.6h-.791q-1.589,0-1.692,1.1l-.007.125a.847.847,0,0,0,.278.652A1.081,1.081,0,0,0,95.1-1.472Zm9.653-4.468A5.751,5.751,0,0,0,104-6a1.55,1.55,0,0,0-1.575.813V0h-2.117V-7.925h2l.059.945a1.961,1.961,0,0,1,1.765-1.091,2.218,2.218,0,0,1,.659.1ZM108.01,0h-2.124V-7.925h2.124Zm-2.249-9.976a1.042,1.042,0,0,1,.319-.784,1.2,1.2,0,0,1,.868-.308,1.2,1.2,0,0,1,.864.308,1.036,1.036,0,0,1,.322.784,1.039,1.039,0,0,1-.326.791,1.2,1.2,0,0,1-.861.308,1.2,1.2,0,0,1-.861-.308A1.039,1.039,0,0,1,105.762-9.976ZM114.346,0a2.351,2.351,0,0,1-.212-.71,2.561,2.561,0,0,1-2,.857,2.814,2.814,0,0,1-1.93-.674,2.167,2.167,0,0,1-.765-1.7,2.24,2.24,0,0,1,.934-1.934,4.608,4.608,0,0,1,2.7-.681h.974V-5.3a1.306,1.306,0,0,0-.282-.879,1.109,1.109,0,0,0-.89-.33,1.261,1.261,0,0,0-.839.256.871.871,0,0,0-.3.7h-2.117a2.126,2.126,0,0,1,.425-1.274,2.808,2.808,0,0,1,1.2-.919,4.378,4.378,0,0,1,1.743-.333,3.459,3.459,0,0,1,2.325.736,2.575,2.575,0,0,1,.861,2.069v3.435a3.789,3.789,0,0,0,.315,1.707V0ZM112.6-1.472a1.823,1.823,0,0,0,.864-.209,1.371,1.371,0,0,0,.586-.56V-3.6h-.791q-1.589,0-1.692,1.1l-.007.125a.847.847,0,0,0,.278.652A1.081,1.081,0,0,0,112.6-1.472Z" transform="translate(1141.484 6600.698)" fill="#0c1d30"/>
    <path id="Trazado_194661" data-name="Trazado 194661" d="M6.973-2.2H3.12L2.388,0H.051l3.97-10.664H6.057L10.049,0H7.712ZM3.713-3.977H6.379L5.039-7.969ZM13.14,0H11.016V-11.25H13.14Zm1.414-4.036a4.737,4.737,0,0,1,.831-2.952,2.718,2.718,0,0,1,2.281-1.084,2.433,2.433,0,0,1,2.029.974l.139-.828h1.86V3.047H19.57V-.681a2.44,2.44,0,0,1-1.919.828A2.7,2.7,0,0,1,15.4-.952,4.969,4.969,0,0,1,14.553-4.036Zm2.117.15a3.107,3.107,0,0,0,.4,1.731,1.278,1.278,0,0,0,1.124.594,1.423,1.423,0,0,0,1.377-.778V-5.617a1.412,1.412,0,0,0-1.362-.748,1.293,1.293,0,0,0-1.135.594A3.432,3.432,0,0,0,16.67-3.885ZM28.1-.806a2.654,2.654,0,0,1-2.168.952A2.5,2.5,0,0,1,23.99-.586a3.127,3.127,0,0,1-.685-2.146V-7.925h2.117V-2.8q0,1.239,1.128,1.239a1.528,1.528,0,0,0,1.479-.748V-7.925h2.124V0H28.162ZM33.984,0H31.86V-7.925h2.124ZM31.736-9.976a1.042,1.042,0,0,1,.319-.784,1.2,1.2,0,0,1,.868-.308,1.2,1.2,0,0,1,.864.308,1.036,1.036,0,0,1,.322.784,1.039,1.039,0,0,1-.326.791,1.2,1.2,0,0,1-.861.308,1.2,1.2,0,0,1-.861-.308A1.039,1.039,0,0,1,31.736-9.976ZM37.961,0H35.837V-11.25h2.124Zm5.391.146A3.89,3.89,0,0,1,40.514-.923a3.8,3.8,0,0,1-1.095-2.849v-.205a4.787,4.787,0,0,1,.461-2.135,3.386,3.386,0,0,1,1.307-1.45,3.669,3.669,0,0,1,1.93-.509,3.289,3.289,0,0,1,2.56,1.025,4.167,4.167,0,0,1,.934,2.908v.864H41.565a1.966,1.966,0,0,0,.619,1.245,1.871,1.871,0,0,0,1.307.469A2.285,2.285,0,0,0,45.4-2.446l1.04,1.165A3.178,3.178,0,0,1,45.154-.231,4.229,4.229,0,0,1,43.352.146ZM43.11-6.365a1.323,1.323,0,0,0-1.022.427,2.209,2.209,0,0,0-.5,1.221h2.944v-.169a1.576,1.576,0,0,0-.381-1.092A1.365,1.365,0,0,0,43.11-6.365Zm9.155.425A5.751,5.751,0,0,0,51.5-6a1.55,1.55,0,0,0-1.575.813V0H47.813V-7.925h2l.059.945a1.961,1.961,0,0,1,1.765-1.091,2.218,2.218,0,0,1,.659.1ZM56.792.146A3.89,3.89,0,0,1,53.954-.923a3.8,3.8,0,0,1-1.095-2.849v-.205a4.787,4.787,0,0,1,.461-2.135,3.386,3.386,0,0,1,1.307-1.45,3.669,3.669,0,0,1,1.93-.509,3.289,3.289,0,0,1,2.56,1.025,4.167,4.167,0,0,1,.934,2.908v.864H55a1.966,1.966,0,0,0,.619,1.245,1.871,1.871,0,0,0,1.307.469,2.285,2.285,0,0,0,1.912-.886l1.04,1.165A3.178,3.178,0,0,1,58.594-.231,4.229,4.229,0,0,1,56.792.146ZM56.55-6.365a1.323,1.323,0,0,0-1.022.427,2.209,2.209,0,0,0-.5,1.221h2.944v-.169a1.576,1.576,0,0,0-.381-1.092A1.365,1.365,0,0,0,56.55-6.365ZM65.544-2.19A.682.682,0,0,0,65.16-2.8a4.368,4.368,0,0,0-1.234-.4Q61.1-3.794,61.1-5.6a2.178,2.178,0,0,1,.875-1.761,3.531,3.531,0,0,1,2.289-.707,3.8,3.8,0,0,1,2.413.71,2.239,2.239,0,0,1,.9,1.846H65.464a1.024,1.024,0,0,0-.293-.751,1.24,1.24,0,0,0-.916-.3,1.267,1.267,0,0,0-.828.242.763.763,0,0,0-.293.615.652.652,0,0,0,.333.568,3.428,3.428,0,0,0,1.124.374,9.183,9.183,0,0,1,1.333.355A2.19,2.19,0,0,1,67.6-2.278a2.067,2.067,0,0,1-.93,1.754,4.013,4.013,0,0,1-2.4.67A4.191,4.191,0,0,1,62.5-.209a2.968,2.968,0,0,1-1.212-.974A2.263,2.263,0,0,1,60.85-2.52h2.007a1.105,1.105,0,0,0,.417.864,1.656,1.656,0,0,0,1.04.3,1.533,1.533,0,0,0,.919-.231A.718.718,0,0,0,65.544-2.19Z" transform="translate(822.302 6368.711)" fill="#0c1d30"/>
    <path id="Trazado_194662" data-name="Trazado 194662" d="M9.324-3.552A3.774,3.774,0,0,1,8.053-.842,4.463,4.463,0,0,1,5.032.146,4.013,4.013,0,0,1,1.805-1.234,5.661,5.661,0,0,1,.63-5.024v-.652a6.393,6.393,0,0,1,.542-2.71,4.062,4.062,0,0,1,1.549-1.8,4.339,4.339,0,0,1,2.34-.626,4.348,4.348,0,0,1,2.974.989,4.055,4.055,0,0,1,1.3,2.776h-2.2a2.227,2.227,0,0,0-.575-1.5,2.129,2.129,0,0,0-1.505-.465,1.867,1.867,0,0,0-1.644.787,4.413,4.413,0,0,0-.56,2.443v.806A4.723,4.723,0,0,0,3.38-2.446a1.832,1.832,0,0,0,1.652.8,2.169,2.169,0,0,0,1.52-.465,2.1,2.1,0,0,0,.575-1.439Zm.974-.483a4.7,4.7,0,0,1,.454-2.1,3.324,3.324,0,0,1,1.307-1.428,3.814,3.814,0,0,1,1.981-.505,3.609,3.609,0,0,1,2.618.981,3.939,3.939,0,0,1,1.132,2.666l.015.542A4.142,4.142,0,0,1,16.787-.956a3.539,3.539,0,0,1-2.732,1.1,3.556,3.556,0,0,1-2.736-1.1A4.215,4.215,0,0,1,10.3-3.94Zm2.117.15a2.962,2.962,0,0,0,.425,1.727,1.4,1.4,0,0,0,1.216.6,1.4,1.4,0,0,0,1.2-.591,3.241,3.241,0,0,0,.432-1.889,2.933,2.933,0,0,0-.432-1.716,1.4,1.4,0,0,0-1.216-.609,1.382,1.382,0,0,0-1.2.605A3.3,3.3,0,0,0,12.415-3.885Zm6.365-.136a4.776,4.776,0,0,1,.831-2.952,2.7,2.7,0,0,1,2.274-1.1,2.427,2.427,0,0,1,1.912.864V-11.25H25.92V0H24.009l-.1-.842A2.491,2.491,0,0,1,21.87.146a2.69,2.69,0,0,1-2.245-1.1A4.93,4.93,0,0,1,18.779-4.021Zm2.117.158a3.128,3.128,0,0,0,.388,1.709,1.265,1.265,0,0,0,1.128.594A1.416,1.416,0,0,0,23.8-2.389V-5.521a1.4,1.4,0,0,0-1.37-.829Q20.9-6.35,20.9-3.863ZM33.428,1.655H26.755V0h6.672ZM37.551-1.56a1.388,1.388,0,0,0,.952-.322,1.129,1.129,0,0,0,.381-.857h1.985a2.715,2.715,0,0,1-.439,1.476,2.9,2.9,0,0,1-1.183,1.04,3.7,3.7,0,0,1-1.659.37,3.44,3.44,0,0,1-2.681-1.08,4.275,4.275,0,0,1-.981-2.985v-.139A4.226,4.226,0,0,1,34.9-6.98a3.4,3.4,0,0,1,2.673-1.091,3.333,3.333,0,0,1,2.384.846,3,3,0,0,1,.912,2.252H38.884A1.455,1.455,0,0,0,38.5-5.978a1.27,1.27,0,0,0-.967-.387,1.275,1.275,0,0,0-1.117.539,3.125,3.125,0,0,0-.377,1.749v.22A3.164,3.164,0,0,0,36.416-2.1,1.291,1.291,0,0,0,37.551-1.56ZM44.312,0H42.188V-11.25h2.124Zm3.977,0H46.165V-7.925h2.124ZM46.04-9.976a1.042,1.042,0,0,1,.319-.784,1.2,1.2,0,0,1,.868-.308,1.2,1.2,0,0,1,.864.308,1.036,1.036,0,0,1,.322.784,1.039,1.039,0,0,1-.326.791,1.2,1.2,0,0,1-.861.308,1.2,1.2,0,0,1-.861-.308A1.039,1.039,0,0,1,46.04-9.976ZM53.679.146A3.89,3.89,0,0,1,50.841-.923a3.8,3.8,0,0,1-1.095-2.849v-.205a4.787,4.787,0,0,1,.461-2.135,3.386,3.386,0,0,1,1.307-1.45,3.669,3.669,0,0,1,1.93-.509A3.289,3.289,0,0,1,56-7.046a4.167,4.167,0,0,1,.934,2.908v.864H51.892a1.966,1.966,0,0,0,.619,1.245,1.871,1.871,0,0,0,1.307.469,2.285,2.285,0,0,0,1.912-.886l1.04,1.165A3.178,3.178,0,0,1,55.481-.231,4.229,4.229,0,0,1,53.679.146Zm-.242-6.511a1.323,1.323,0,0,0-1.022.427,2.209,2.209,0,0,0-.5,1.221h2.944v-.169a1.576,1.576,0,0,0-.381-1.092A1.365,1.365,0,0,0,53.438-6.365Zm6.65-1.56.066.916a2.767,2.767,0,0,1,2.278-1.062,2.3,2.3,0,0,1,1.875.74,3.451,3.451,0,0,1,.63,2.212V0H62.82V-5.068a1.373,1.373,0,0,0-.293-.978,1.312,1.312,0,0,0-.974-.3,1.456,1.456,0,0,0-1.34.762V0H58.1V-7.925Zm8.987-1.948v1.948H70.43v1.553H69.075v3.955a.944.944,0,0,0,.168.63.846.846,0,0,0,.645.19,3.376,3.376,0,0,0,.623-.051v1.6a4.358,4.358,0,0,1-1.282.19A2.021,2.021,0,0,1,66.958-2.1v-4.27H65.8V-7.925h1.157V-9.873ZM75.256.146A3.89,3.89,0,0,1,72.418-.923a3.8,3.8,0,0,1-1.095-2.849v-.205a4.787,4.787,0,0,1,.461-2.135,3.386,3.386,0,0,1,1.307-1.45,3.669,3.669,0,0,1,1.93-.509,3.289,3.289,0,0,1,2.56,1.025,4.167,4.167,0,0,1,.934,2.908v.864H73.469a1.966,1.966,0,0,0,.619,1.245A1.871,1.871,0,0,0,75.4-1.56a2.285,2.285,0,0,0,1.912-.886l1.04,1.165A3.178,3.178,0,0,1,77.058-.231,4.229,4.229,0,0,1,75.256.146Zm-.242-6.511a1.323,1.323,0,0,0-1.022.427,2.209,2.209,0,0,0-.5,1.221h2.944v-.169a1.576,1.576,0,0,0-.381-1.092A1.365,1.365,0,0,0,75.015-6.365Z" transform="translate(912.229 6396.799)" fill="#0c1d30"/>
    <path id="Trazado_194663" data-name="Trazado 194663" d="M7.368-4.358H3.149V0H.952V-10.664H7.9v1.78H3.149V-6.13H7.368Zm5.156,4.5A3.89,3.89,0,0,1,9.686-.923,3.8,3.8,0,0,1,8.591-3.772v-.205a4.787,4.787,0,0,1,.461-2.135,3.386,3.386,0,0,1,1.307-1.45,3.669,3.669,0,0,1,1.93-.509,3.289,3.289,0,0,1,2.56,1.025,4.167,4.167,0,0,1,.934,2.908v.864H10.737a1.966,1.966,0,0,0,.619,1.245,1.871,1.871,0,0,0,1.307.469,2.285,2.285,0,0,0,1.912-.886l1.04,1.165A3.178,3.178,0,0,1,14.326-.231,4.229,4.229,0,0,1,12.524.146Zm-.242-6.511a1.323,1.323,0,0,0-1.022.427,2.209,2.209,0,0,0-.5,1.221H13.7v-.169a1.576,1.576,0,0,0-.381-1.092A1.365,1.365,0,0,0,12.283-6.365Zm8,4.8a1.388,1.388,0,0,0,.952-.322,1.129,1.129,0,0,0,.381-.857H23.6a2.715,2.715,0,0,1-.439,1.476,2.9,2.9,0,0,1-1.183,1.04,3.7,3.7,0,0,1-1.659.37,3.44,3.44,0,0,1-2.681-1.08,4.275,4.275,0,0,1-.981-2.985v-.139a4.226,4.226,0,0,1,.974-2.922A3.4,3.4,0,0,1,20.3-8.071a3.333,3.333,0,0,1,2.384.846A3,3,0,0,1,23.6-4.973H21.614a1.455,1.455,0,0,0-.381-1.005,1.27,1.27,0,0,0-.967-.387,1.275,1.275,0,0,0-1.117.539,3.125,3.125,0,0,0-.377,1.749v.22A3.164,3.164,0,0,0,19.146-2.1,1.291,1.291,0,0,0,20.281-1.56Zm6.592-5.5a2.642,2.642,0,0,1,2.117-1.011q2.578,0,2.615,3V0H29.487V-5.017a1.472,1.472,0,0,0-.293-1.007,1.256,1.256,0,0,0-.974-.326,1.441,1.441,0,0,0-1.348.718V0H24.756V-11.25h2.117ZM37.793,0a2.351,2.351,0,0,1-.212-.71,2.561,2.561,0,0,1-2,.857,2.814,2.814,0,0,1-1.93-.674,2.167,2.167,0,0,1-.765-1.7A2.24,2.24,0,0,1,33.82-4.16a4.608,4.608,0,0,1,2.7-.681h.974V-5.3a1.306,1.306,0,0,0-.282-.879,1.109,1.109,0,0,0-.89-.33,1.261,1.261,0,0,0-.839.256.871.871,0,0,0-.3.7H33.062a2.126,2.126,0,0,1,.425-1.274,2.808,2.808,0,0,1,1.2-.919,4.378,4.378,0,0,1,1.743-.333,3.459,3.459,0,0,1,2.325.736,2.575,2.575,0,0,1,.861,2.069v3.435a3.789,3.789,0,0,0,.315,1.707V0Zm-1.75-1.472a1.823,1.823,0,0,0,.864-.209,1.371,1.371,0,0,0,.586-.56V-3.6H36.7q-1.589,0-1.692,1.1L35-2.38a.847.847,0,0,0,.278.652A1.081,1.081,0,0,0,36.042-1.472Z" transform="translate(837.35 6396.738)" fill="#0c1d30"/>
    <path id="Trazado_194664" data-name="Trazado 194664" d="M5.339,0H3.977V-9.031l-2.732,1v-1.23l3.882-1.458h.212Z" transform="translate(760.525 6432.949)" fill="#0c1d30"/>
    <path id="Trazado_194665" data-name="Trazado 194665" d="M7.874,0H.886V-.974l3.691-4.1A8.77,8.77,0,0,0,5.709-6.588a2.524,2.524,0,0,0,.311-1.2,1.913,1.913,0,0,0-.505-1.37A1.767,1.767,0,0,0,4.167-9.7,2.093,2.093,0,0,0,2.6-9.122a2.2,2.2,0,0,0-.56,1.6H.681A3.145,3.145,0,0,1,1.63-9.9a3.516,3.516,0,0,1,2.538-.908,3.379,3.379,0,0,1,2.351.78,2.661,2.661,0,0,1,.864,2.076q0,1.575-2.007,3.75L2.52-1.106H7.874Z" transform="translate(760.525 6464.156)" fill="#0c1d30"/>
    <path id="Trazado_194666" data-name="Trazado 194666" d="M2.856-5.991H3.875A2.238,2.238,0,0,0,5.383-6.5a1.688,1.688,0,0,0,.549-1.326A1.654,1.654,0,0,0,4.065-9.7a1.943,1.943,0,0,0-1.4.5,1.756,1.756,0,0,0-.524,1.329H.784A2.72,2.72,0,0,1,1.71-9.972a3.375,3.375,0,0,1,2.355-.839,3.335,3.335,0,0,1,2.366.8,2.884,2.884,0,0,1,.857,2.219,2.341,2.341,0,0,1-.45,1.348,2.72,2.72,0,0,1-1.227.974,2.621,2.621,0,0,1,1.359.923,2.563,2.563,0,0,1,.48,1.575A2.909,2.909,0,0,1,6.511-.7,3.511,3.511,0,0,1,4.072.146,3.6,3.6,0,0,1,1.63-.667,2.7,2.7,0,0,1,.688-2.812H2.051A1.743,1.743,0,0,0,2.6-1.465a2.089,2.089,0,0,0,1.472.505,2.05,2.05,0,0,0,1.5-.513,1.976,1.976,0,0,0,.52-1.472,1.793,1.793,0,0,0-.571-1.428,2.489,2.489,0,0,0-1.648-.513H2.856Z" transform="translate(760.525 6495.363)" fill="#0c1d30"/>
    <path id="Trazado_194667" data-name="Trazado 194667" d="M6.606-3.582H8.086v1.106H6.606V0H5.244V-2.476H.388v-.8l4.775-7.39H6.606Zm-4.68,0H5.244V-8.811l-.161.293Z" transform="translate(760.525 6526.571)" fill="#0c1d30"/>
    <path id="Trazado_194668" data-name="Trazado 194668" d="M1.509-5.347l.542-5.317H7.515v1.252H3.2L2.878-6.5a3.441,3.441,0,0,1,1.78-.461A2.942,2.942,0,0,1,6.973-6,3.775,3.775,0,0,1,7.83-3.4,3.643,3.643,0,0,1,6.94-.8,3.243,3.243,0,0,1,4.453.146,3.371,3.371,0,0,1,2.146-.637,3.128,3.128,0,0,1,1.128-2.805H2.41a2.152,2.152,0,0,0,.652,1.381,2.027,2.027,0,0,0,1.392.465A1.828,1.828,0,0,0,5.936-1.6a2.694,2.694,0,0,0,.538-1.78A2.473,2.473,0,0,0,5.892-5.1,1.981,1.981,0,0,0,4.343-5.75a2.234,2.234,0,0,0-1.392.388l-.359.293Z" transform="translate(760.525 6557.778)" fill="#0c1d30"/>
    <path id="Trazado_194669" data-name="Trazado 194669" d="M5.339,0H3.977V-9.031l-2.732,1v-1.23l3.882-1.458h.212ZM16.3,0H9.309V-.974L13-5.076a8.77,8.77,0,0,0,1.132-1.512,2.524,2.524,0,0,0,.311-1.2,1.913,1.913,0,0,0-.505-1.37A1.767,1.767,0,0,0,12.59-9.7a2.093,2.093,0,0,0-1.571.575,2.2,2.2,0,0,0-.56,1.6H9.1a3.145,3.145,0,0,1,.948-2.38,3.516,3.516,0,0,1,2.538-.908,3.379,3.379,0,0,1,2.351.78,2.661,2.661,0,0,1,.864,2.076q0,1.575-2.007,3.75l-2.856,3.1H16.3Zm1.846.916H16.978l4.453-11.58h1.157Zm10.964-5.6a3.315,3.315,0,0,1-1.014.813,2.752,2.752,0,0,1-1.293.308,2.841,2.841,0,0,1-1.608-.454A2.952,2.952,0,0,1,24.133-5.3a4.357,4.357,0,0,1-.374-1.82,4.439,4.439,0,0,1,.406-1.926,2.986,2.986,0,0,1,1.154-1.311,3.289,3.289,0,0,1,1.743-.454,2.978,2.978,0,0,1,2.494,1.183A5.159,5.159,0,0,1,30.469-6.4v.4a6.894,6.894,0,0,1-1.23,4.545A4.727,4.727,0,0,1,25.525.007h-.264v-1.15h.286a3.73,3.73,0,0,0,2.578-.873A3.748,3.748,0,0,0,29.106-4.687Zm-2.087,0A2.092,2.092,0,0,0,28.275-5.1a2.461,2.461,0,0,0,.839-1.033V-6.68a3.729,3.729,0,0,0-.579-2.168,1.727,1.727,0,0,0-1.465-.835A1.74,1.74,0,0,0,25.635-9a2.825,2.825,0,0,0-.542,1.805,2.94,2.94,0,0,0,.524,1.8A1.658,1.658,0,0,0,27.019-4.687Zm5.728,5.6H31.582l4.453-11.58h1.157ZM45.505,0H38.518V-.974l3.691-4.1a8.77,8.77,0,0,0,1.132-1.512,2.524,2.524,0,0,0,.311-1.2,1.913,1.913,0,0,0-.505-1.37A1.767,1.767,0,0,0,41.8-9.7a2.093,2.093,0,0,0-1.571.575,2.2,2.2,0,0,0-.56,1.6H38.313a3.145,3.145,0,0,1,.948-2.38,3.516,3.516,0,0,1,2.538-.908,3.379,3.379,0,0,1,2.351.78,2.661,2.661,0,0,1,.864,2.076q0,1.575-2.007,3.75l-2.856,3.1h5.354Zm8.123-4.548a6.2,6.2,0,0,1-.813,3.538A2.891,2.891,0,0,1,50.273.146,2.912,2.912,0,0,1,47.747-.985a5.882,5.882,0,0,1-.85-3.38V-6.174a6.059,6.059,0,0,1,.813-3.494,2.914,2.914,0,0,1,2.549-1.143,2.94,2.94,0,0,1,2.534,1.1,5.847,5.847,0,0,1,.835,3.4ZM52.273-6.4A4.965,4.965,0,0,0,51.79-8.91,1.664,1.664,0,0,0,50.259-9.7a1.642,1.642,0,0,0-1.516.784,4.848,4.848,0,0,0-.491,2.41v2.168a5.045,5.045,0,0,0,.5,2.552,1.661,1.661,0,0,0,1.52.824,1.638,1.638,0,0,0,1.49-.776,4.862,4.862,0,0,0,.509-2.446Zm9.778,1.853a6.2,6.2,0,0,1-.813,3.538A2.891,2.891,0,0,1,58.7.146,2.912,2.912,0,0,1,56.169-.985a5.882,5.882,0,0,1-.85-3.38V-6.174a6.059,6.059,0,0,1,.813-3.494,2.914,2.914,0,0,1,2.549-1.143,2.94,2.94,0,0,1,2.534,1.1,5.847,5.847,0,0,1,.835,3.4ZM60.7-6.4a4.965,4.965,0,0,0-.483-2.509A1.664,1.664,0,0,0,58.682-9.7a1.642,1.642,0,0,0-1.516.784,4.848,4.848,0,0,0-.491,2.41v2.168a5.045,5.045,0,0,0,.5,2.552,1.661,1.661,0,0,0,1.52.824,1.638,1.638,0,0,0,1.49-.776A4.862,4.862,0,0,0,60.7-4.182Zm9.558-1.479a2.476,2.476,0,0,1-.421,1.421,2.865,2.865,0,0,1-1.139.974,3.056,3.056,0,0,1,1.322,1.047,2.636,2.636,0,0,1,.487,1.56,2.787,2.787,0,0,1-.934,2.2,3.588,3.588,0,0,1-2.457.82,3.572,3.572,0,0,1-2.465-.824,2.8,2.8,0,0,1-.927-2.2,2.714,2.714,0,0,1,.472-1.56A2.94,2.94,0,0,1,65.5-5.493a2.8,2.8,0,0,1-1.121-.974,2.512,2.512,0,0,1-.41-1.414,2.757,2.757,0,0,1,.864-2.139,3.242,3.242,0,0,1,2.278-.791,3.245,3.245,0,0,1,2.274.791A2.751,2.751,0,0,1,70.254-7.881ZM69.148-2.908a1.965,1.965,0,0,0-.568-1.458A2.013,2.013,0,0,0,67.1-4.929a1.978,1.978,0,0,0-1.469.557,1.988,1.988,0,0,0-.553,1.465,1.893,1.893,0,0,0,.538,1.428,2.066,2.066,0,0,0,1.5.52,2.06,2.06,0,0,0,1.494-.524A1.888,1.888,0,0,0,69.148-2.908ZM67.112-9.7a1.748,1.748,0,0,0-1.293.494,1.816,1.816,0,0,0-.494,1.344,1.807,1.807,0,0,0,.487,1.315,1.729,1.729,0,0,0,1.3.5,1.729,1.729,0,0,0,1.3-.5A1.807,1.807,0,0,0,68.9-7.859a1.808,1.808,0,0,0-.505-1.326A1.724,1.724,0,0,0,67.112-9.7Z" transform="translate(821.715 6464.156)" fill="#0c1d30"/>
    <path id="Trazado_194670" data-name="Trazado 194670" d="M5.339,0H3.977V-9.031l-2.732,1v-1.23l3.882-1.458h.212Zm9.287-10.671v1.15h-.249a3.568,3.568,0,0,0-2.52.938,3.9,3.9,0,0,0-1.084,2.556,2.892,2.892,0,0,1,2.3-.967,2.765,2.765,0,0,1,2.223.981,3.786,3.786,0,0,1,.831,2.534,3.774,3.774,0,0,1-.9,2.637,3.089,3.089,0,0,1-2.406.989,3.044,3.044,0,0,1-2.483-1.176A4.659,4.659,0,0,1,9.39-4.058v-.52a7.02,7.02,0,0,1,1.256-4.5,4.613,4.613,0,0,1,3.739-1.593Zm-1.78,4.8a2.162,2.162,0,0,0-1.282.417A2.175,2.175,0,0,0,10.752-4.4v.5a3.5,3.5,0,0,0,.593,2.124,1.778,1.778,0,0,0,1.479.806,1.723,1.723,0,0,0,1.439-.674,2.8,2.8,0,0,0,.524-1.765,2.8,2.8,0,0,0-.531-1.776A1.7,1.7,0,0,0,12.847-5.867Zm5.3,6.782H16.978l4.453-11.58h1.157Zm10.964-5.6a3.315,3.315,0,0,1-1.014.813,2.752,2.752,0,0,1-1.293.308,2.841,2.841,0,0,1-1.608-.454A2.952,2.952,0,0,1,24.133-5.3a4.357,4.357,0,0,1-.374-1.82,4.439,4.439,0,0,1,.406-1.926,2.986,2.986,0,0,1,1.154-1.311,3.289,3.289,0,0,1,1.743-.454,2.978,2.978,0,0,1,2.494,1.183A5.159,5.159,0,0,1,30.469-6.4v.4a6.894,6.894,0,0,1-1.23,4.545A4.727,4.727,0,0,1,25.525.007h-.264v-1.15h.286a3.73,3.73,0,0,0,2.578-.873A3.748,3.748,0,0,0,29.106-4.687Zm-2.087,0A2.092,2.092,0,0,0,28.275-5.1a2.461,2.461,0,0,0,.839-1.033V-6.68a3.729,3.729,0,0,0-.579-2.168,1.727,1.727,0,0,0-1.465-.835A1.74,1.74,0,0,0,25.635-9a2.825,2.825,0,0,0-.542,1.805,2.94,2.94,0,0,0,.524,1.8A1.658,1.658,0,0,0,27.019-4.687Zm5.728,5.6H31.582l4.453-11.58h1.157ZM45.505,0H38.518V-.974l3.691-4.1a8.77,8.77,0,0,0,1.132-1.512,2.524,2.524,0,0,0,.311-1.2,1.913,1.913,0,0,0-.505-1.37A1.767,1.767,0,0,0,41.8-9.7a2.093,2.093,0,0,0-1.571.575,2.2,2.2,0,0,0-.56,1.6H38.313a3.145,3.145,0,0,1,.948-2.38,3.516,3.516,0,0,1,2.538-.908,3.379,3.379,0,0,1,2.351.78,2.661,2.661,0,0,1,.864,2.076q0,1.575-2.007,3.75l-2.856,3.1h5.354Zm8.123-4.548a6.2,6.2,0,0,1-.813,3.538A2.891,2.891,0,0,1,50.273.146,2.912,2.912,0,0,1,47.747-.985a5.882,5.882,0,0,1-.85-3.38V-6.174a6.059,6.059,0,0,1,.813-3.494,2.914,2.914,0,0,1,2.549-1.143,2.94,2.94,0,0,1,2.534,1.1,5.847,5.847,0,0,1,.835,3.4ZM52.273-6.4A4.965,4.965,0,0,0,51.79-8.91,1.664,1.664,0,0,0,50.259-9.7a1.642,1.642,0,0,0-1.516.784,4.848,4.848,0,0,0-.491,2.41v2.168a5.045,5.045,0,0,0,.5,2.552,1.661,1.661,0,0,0,1.52.824,1.638,1.638,0,0,0,1.49-.776,4.862,4.862,0,0,0,.509-2.446Zm9.778,1.853a6.2,6.2,0,0,1-.813,3.538A2.891,2.891,0,0,1,58.7.146,2.912,2.912,0,0,1,56.169-.985a5.882,5.882,0,0,1-.85-3.38V-6.174a6.059,6.059,0,0,1,.813-3.494,2.914,2.914,0,0,1,2.549-1.143,2.94,2.94,0,0,1,2.534,1.1,5.847,5.847,0,0,1,.835,3.4ZM60.7-6.4a4.965,4.965,0,0,0-.483-2.509A1.664,1.664,0,0,0,58.682-9.7a1.642,1.642,0,0,0-1.516.784,4.848,4.848,0,0,0-.491,2.41v2.168a5.045,5.045,0,0,0,.5,2.552,1.661,1.661,0,0,0,1.52.824,1.638,1.638,0,0,0,1.49-.776A4.862,4.862,0,0,0,60.7-4.182Zm9.558-1.479a2.476,2.476,0,0,1-.421,1.421,2.865,2.865,0,0,1-1.139.974,3.056,3.056,0,0,1,1.322,1.047,2.636,2.636,0,0,1,.487,1.56,2.787,2.787,0,0,1-.934,2.2,3.588,3.588,0,0,1-2.457.82,3.572,3.572,0,0,1-2.465-.824,2.8,2.8,0,0,1-.927-2.2,2.714,2.714,0,0,1,.472-1.56A2.94,2.94,0,0,1,65.5-5.493a2.8,2.8,0,0,1-1.121-.974,2.512,2.512,0,0,1-.41-1.414,2.757,2.757,0,0,1,.864-2.139,3.242,3.242,0,0,1,2.278-.791,3.245,3.245,0,0,1,2.274.791A2.751,2.751,0,0,1,70.254-7.881ZM69.148-2.908a1.965,1.965,0,0,0-.568-1.458A2.013,2.013,0,0,0,67.1-4.929a1.978,1.978,0,0,0-1.469.557,1.988,1.988,0,0,0-.553,1.465,1.893,1.893,0,0,0,.538,1.428,2.066,2.066,0,0,0,1.5.52,2.06,2.06,0,0,0,1.494-.524A1.888,1.888,0,0,0,69.148-2.908ZM67.112-9.7a1.748,1.748,0,0,0-1.293.494,1.816,1.816,0,0,0-.494,1.344,1.807,1.807,0,0,0,.487,1.315,1.729,1.729,0,0,0,1.3.5,1.729,1.729,0,0,0,1.3-.5A1.807,1.807,0,0,0,68.9-7.859a1.808,1.808,0,0,0-.505-1.326A1.724,1.724,0,0,0,67.112-9.7Z" transform="translate(821.715 6557.778)" fill="#0c1d30"/>
    <path id="Línea_337-3" data-name="Línea 337" d="M0,0V188.334" transform="translate(812.862 6379.482)" fill="none" stroke="#d9d9d9" stroke-width="0.748" style="mix-blend-mode: multiply;isolation: isolate"/>
    <path id="Trazado_194671" data-name="Trazado 194671" d="M5.339,0H3.977V-9.031l-2.732,1v-1.23l3.882-1.458h.212ZM16.3,0H9.309V-.974L13-5.076a8.77,8.77,0,0,0,1.132-1.512,2.524,2.524,0,0,0,.311-1.2,1.913,1.913,0,0,0-.505-1.37A1.767,1.767,0,0,0,12.59-9.7a2.093,2.093,0,0,0-1.571.575,2.2,2.2,0,0,0-.56,1.6H9.1a3.145,3.145,0,0,1,.948-2.38,3.516,3.516,0,0,1,2.538-.908,3.379,3.379,0,0,1,2.351.78,2.661,2.661,0,0,1,.864,2.076q0,1.575-2.007,3.75l-2.856,3.1H16.3Zm1.846.916H16.978l4.453-11.58h1.157Zm10.964-5.6a3.315,3.315,0,0,1-1.014.813,2.752,2.752,0,0,1-1.293.308,2.841,2.841,0,0,1-1.608-.454A2.952,2.952,0,0,1,24.133-5.3a4.357,4.357,0,0,1-.374-1.82,4.439,4.439,0,0,1,.406-1.926,2.986,2.986,0,0,1,1.154-1.311,3.289,3.289,0,0,1,1.743-.454,2.978,2.978,0,0,1,2.494,1.183A5.159,5.159,0,0,1,30.469-6.4v.4a6.894,6.894,0,0,1-1.23,4.545A4.727,4.727,0,0,1,25.525.007h-.264v-1.15h.286a3.73,3.73,0,0,0,2.578-.873A3.748,3.748,0,0,0,29.106-4.687Zm-2.087,0A2.092,2.092,0,0,0,28.275-5.1a2.461,2.461,0,0,0,.839-1.033V-6.68a3.729,3.729,0,0,0-.579-2.168,1.727,1.727,0,0,0-1.465-.835A1.74,1.74,0,0,0,25.635-9a2.825,2.825,0,0,0-.542,1.805,2.94,2.94,0,0,0,.524,1.8A1.658,1.658,0,0,0,27.019-4.687Zm5.728,5.6H31.582l4.453-11.58h1.157ZM45.505,0H38.518V-.974l3.691-4.1a8.77,8.77,0,0,0,1.132-1.512,2.524,2.524,0,0,0,.311-1.2,1.913,1.913,0,0,0-.505-1.37A1.767,1.767,0,0,0,41.8-9.7a2.093,2.093,0,0,0-1.571.575,2.2,2.2,0,0,0-.56,1.6H38.313a3.145,3.145,0,0,1,.948-2.38,3.516,3.516,0,0,1,2.538-.908,3.379,3.379,0,0,1,2.351.78,2.661,2.661,0,0,1,.864,2.076q0,1.575-2.007,3.75l-2.856,3.1h5.354Zm8.123-4.548a6.2,6.2,0,0,1-.813,3.538A2.891,2.891,0,0,1,50.273.146,2.912,2.912,0,0,1,47.747-.985a5.882,5.882,0,0,1-.85-3.38V-6.174a6.059,6.059,0,0,1,.813-3.494,2.914,2.914,0,0,1,2.549-1.143,2.94,2.94,0,0,1,2.534,1.1,5.847,5.847,0,0,1,.835,3.4ZM52.273-6.4A4.965,4.965,0,0,0,51.79-8.91,1.664,1.664,0,0,0,50.259-9.7a1.642,1.642,0,0,0-1.516.784,4.848,4.848,0,0,0-.491,2.41v2.168a5.045,5.045,0,0,0,.5,2.552,1.661,1.661,0,0,0,1.52.824,1.638,1.638,0,0,0,1.49-.776,4.862,4.862,0,0,0,.509-2.446Zm9.778,1.853a6.2,6.2,0,0,1-.813,3.538A2.891,2.891,0,0,1,58.7.146,2.912,2.912,0,0,1,56.169-.985a5.882,5.882,0,0,1-.85-3.38V-6.174a6.059,6.059,0,0,1,.813-3.494,2.914,2.914,0,0,1,2.549-1.143,2.94,2.94,0,0,1,2.534,1.1,5.847,5.847,0,0,1,.835,3.4ZM60.7-6.4a4.965,4.965,0,0,0-.483-2.509A1.664,1.664,0,0,0,58.682-9.7a1.642,1.642,0,0,0-1.516.784,4.848,4.848,0,0,0-.491,2.41v2.168a5.045,5.045,0,0,0,.5,2.552,1.661,1.661,0,0,0,1.52.824,1.638,1.638,0,0,0,1.49-.776A4.862,4.862,0,0,0,60.7-4.182Zm9.558-1.479a2.476,2.476,0,0,1-.421,1.421,2.865,2.865,0,0,1-1.139.974,3.056,3.056,0,0,1,1.322,1.047,2.636,2.636,0,0,1,.487,1.56,2.787,2.787,0,0,1-.934,2.2,3.588,3.588,0,0,1-2.457.82,3.572,3.572,0,0,1-2.465-.824,2.8,2.8,0,0,1-.927-2.2,2.714,2.714,0,0,1,.472-1.56A2.94,2.94,0,0,1,65.5-5.493a2.8,2.8,0,0,1-1.121-.974,2.512,2.512,0,0,1-.41-1.414,2.757,2.757,0,0,1,.864-2.139,3.242,3.242,0,0,1,2.278-.791,3.245,3.245,0,0,1,2.274.791A2.751,2.751,0,0,1,70.254-7.881ZM69.148-2.908a1.965,1.965,0,0,0-.568-1.458A2.013,2.013,0,0,0,67.1-4.929a1.978,1.978,0,0,0-1.469.557,1.988,1.988,0,0,0-.553,1.465,1.893,1.893,0,0,0,.538,1.428,2.066,2.066,0,0,0,1.5.52,2.06,2.06,0,0,0,1.494-.524A1.888,1.888,0,0,0,69.148-2.908ZM67.112-9.7a1.748,1.748,0,0,0-1.293.494,1.816,1.816,0,0,0-.494,1.344,1.807,1.807,0,0,0,.487,1.315,1.729,1.729,0,0,0,1.3.5,1.729,1.729,0,0,0,1.3-.5A1.807,1.807,0,0,0,68.9-7.859a1.808,1.808,0,0,0-.505-1.326A1.724,1.724,0,0,0,67.112-9.7Z" transform="translate(821.715 6432.949)" fill="#0c1d30"/>
    <path id="Trazado_194672" data-name="Trazado 194672" d="M5.339,0H3.977V-9.031l-2.732,1v-1.23l3.882-1.458h.212ZM9.932-5.347l.542-5.317h5.464v1.252H11.624L11.3-6.5a3.441,3.441,0,0,1,1.78-.461A2.942,2.942,0,0,1,15.4-6a3.775,3.775,0,0,1,.857,2.6,3.643,3.643,0,0,1-.89,2.6,3.243,3.243,0,0,1-2.487.948,3.371,3.371,0,0,1-2.307-.784A3.128,3.128,0,0,1,9.551-2.805h1.282a2.152,2.152,0,0,0,.652,1.381,2.027,2.027,0,0,0,1.392.465A1.828,1.828,0,0,0,14.359-1.6a2.694,2.694,0,0,0,.538-1.78A2.473,2.473,0,0,0,14.315-5.1a1.981,1.981,0,0,0-1.549-.648,2.234,2.234,0,0,0-1.392.388l-.359.293ZM18.142.916H16.978l4.453-11.58h1.157Zm10.964-5.6a3.315,3.315,0,0,1-1.014.813,2.752,2.752,0,0,1-1.293.308,2.841,2.841,0,0,1-1.608-.454A2.952,2.952,0,0,1,24.133-5.3a4.357,4.357,0,0,1-.374-1.82,4.439,4.439,0,0,1,.406-1.926,2.986,2.986,0,0,1,1.154-1.311,3.289,3.289,0,0,1,1.743-.454,2.978,2.978,0,0,1,2.494,1.183A5.159,5.159,0,0,1,30.469-6.4v.4a6.894,6.894,0,0,1-1.23,4.545A4.727,4.727,0,0,1,25.525.007h-.264v-1.15h.286a3.73,3.73,0,0,0,2.578-.873A3.748,3.748,0,0,0,29.106-4.687Zm-2.087,0A2.092,2.092,0,0,0,28.275-5.1a2.461,2.461,0,0,0,.839-1.033V-6.68a3.729,3.729,0,0,0-.579-2.168,1.727,1.727,0,0,0-1.465-.835A1.74,1.74,0,0,0,25.635-9a2.825,2.825,0,0,0-.542,1.805,2.94,2.94,0,0,0,.524,1.8A1.658,1.658,0,0,0,27.019-4.687Zm5.728,5.6H31.582l4.453-11.58h1.157ZM45.505,0H38.518V-.974l3.691-4.1a8.77,8.77,0,0,0,1.132-1.512,2.524,2.524,0,0,0,.311-1.2,1.913,1.913,0,0,0-.505-1.37A1.767,1.767,0,0,0,41.8-9.7a2.093,2.093,0,0,0-1.571.575,2.2,2.2,0,0,0-.56,1.6H38.313a3.145,3.145,0,0,1,.948-2.38,3.516,3.516,0,0,1,2.538-.908,3.379,3.379,0,0,1,2.351.78,2.661,2.661,0,0,1,.864,2.076q0,1.575-2.007,3.75l-2.856,3.1h5.354Zm8.123-4.548a6.2,6.2,0,0,1-.813,3.538A2.891,2.891,0,0,1,50.273.146,2.912,2.912,0,0,1,47.747-.985a5.882,5.882,0,0,1-.85-3.38V-6.174a6.059,6.059,0,0,1,.813-3.494,2.914,2.914,0,0,1,2.549-1.143,2.94,2.94,0,0,1,2.534,1.1,5.847,5.847,0,0,1,.835,3.4ZM52.273-6.4A4.965,4.965,0,0,0,51.79-8.91,1.664,1.664,0,0,0,50.259-9.7a1.642,1.642,0,0,0-1.516.784,4.848,4.848,0,0,0-.491,2.41v2.168a5.045,5.045,0,0,0,.5,2.552,1.661,1.661,0,0,0,1.52.824,1.638,1.638,0,0,0,1.49-.776,4.862,4.862,0,0,0,.509-2.446Zm9.778,1.853a6.2,6.2,0,0,1-.813,3.538A2.891,2.891,0,0,1,58.7.146,2.912,2.912,0,0,1,56.169-.985a5.882,5.882,0,0,1-.85-3.38V-6.174a6.059,6.059,0,0,1,.813-3.494,2.914,2.914,0,0,1,2.549-1.143,2.94,2.94,0,0,1,2.534,1.1,5.847,5.847,0,0,1,.835,3.4ZM60.7-6.4a4.965,4.965,0,0,0-.483-2.509A1.664,1.664,0,0,0,58.682-9.7a1.642,1.642,0,0,0-1.516.784,4.848,4.848,0,0,0-.491,2.41v2.168a5.045,5.045,0,0,0,.5,2.552,1.661,1.661,0,0,0,1.52.824,1.638,1.638,0,0,0,1.49-.776A4.862,4.862,0,0,0,60.7-4.182Zm9.558-1.479a2.476,2.476,0,0,1-.421,1.421,2.865,2.865,0,0,1-1.139.974,3.056,3.056,0,0,1,1.322,1.047,2.636,2.636,0,0,1,.487,1.56,2.787,2.787,0,0,1-.934,2.2,3.588,3.588,0,0,1-2.457.82,3.572,3.572,0,0,1-2.465-.824,2.8,2.8,0,0,1-.927-2.2,2.714,2.714,0,0,1,.472-1.56A2.94,2.94,0,0,1,65.5-5.493a2.8,2.8,0,0,1-1.121-.974,2.512,2.512,0,0,1-.41-1.414,2.757,2.757,0,0,1,.864-2.139,3.242,3.242,0,0,1,2.278-.791,3.245,3.245,0,0,1,2.274.791A2.751,2.751,0,0,1,70.254-7.881ZM69.148-2.908a1.965,1.965,0,0,0-.568-1.458A2.013,2.013,0,0,0,67.1-4.929a1.978,1.978,0,0,0-1.469.557,1.988,1.988,0,0,0-.553,1.465,1.893,1.893,0,0,0,.538,1.428,2.066,2.066,0,0,0,1.5.52,2.06,2.06,0,0,0,1.494-.524A1.888,1.888,0,0,0,69.148-2.908ZM67.112-9.7a1.748,1.748,0,0,0-1.293.494,1.816,1.816,0,0,0-.494,1.344,1.807,1.807,0,0,0,.487,1.315,1.729,1.729,0,0,0,1.3.5,1.729,1.729,0,0,0,1.3-.5A1.807,1.807,0,0,0,68.9-7.859a1.808,1.808,0,0,0-.505-1.326A1.724,1.724,0,0,0,67.112-9.7Z" transform="translate(821.715 6495.363)" fill="#0c1d30"/>
    <path id="Trazado_194673" data-name="Trazado 194673" d="M5.339,0H3.977V-9.031l-2.732,1v-1.23l3.882-1.458h.212Zm9.287-10.671v1.15h-.249a3.568,3.568,0,0,0-2.52.938,3.9,3.9,0,0,0-1.084,2.556,2.892,2.892,0,0,1,2.3-.967,2.765,2.765,0,0,1,2.223.981,3.786,3.786,0,0,1,.831,2.534,3.774,3.774,0,0,1-.9,2.637,3.089,3.089,0,0,1-2.406.989,3.044,3.044,0,0,1-2.483-1.176A4.659,4.659,0,0,1,9.39-4.058v-.52a7.02,7.02,0,0,1,1.256-4.5,4.613,4.613,0,0,1,3.739-1.593Zm-1.78,4.8a2.162,2.162,0,0,0-1.282.417A2.175,2.175,0,0,0,10.752-4.4v.5a3.5,3.5,0,0,0,.593,2.124,1.778,1.778,0,0,0,1.479.806,1.723,1.723,0,0,0,1.439-.674,2.8,2.8,0,0,0,.524-1.765,2.8,2.8,0,0,0-.531-1.776A1.7,1.7,0,0,0,12.847-5.867Zm5.3,6.782H16.978l4.453-11.58h1.157Zm10.964-5.6a3.315,3.315,0,0,1-1.014.813,2.752,2.752,0,0,1-1.293.308,2.841,2.841,0,0,1-1.608-.454A2.952,2.952,0,0,1,24.133-5.3a4.357,4.357,0,0,1-.374-1.82,4.439,4.439,0,0,1,.406-1.926,2.986,2.986,0,0,1,1.154-1.311,3.289,3.289,0,0,1,1.743-.454,2.978,2.978,0,0,1,2.494,1.183A5.159,5.159,0,0,1,30.469-6.4v.4a6.894,6.894,0,0,1-1.23,4.545A4.727,4.727,0,0,1,25.525.007h-.264v-1.15h.286a3.73,3.73,0,0,0,2.578-.873A3.748,3.748,0,0,0,29.106-4.687Zm-2.087,0A2.092,2.092,0,0,0,28.275-5.1a2.461,2.461,0,0,0,.839-1.033V-6.68a3.729,3.729,0,0,0-.579-2.168,1.727,1.727,0,0,0-1.465-.835A1.74,1.74,0,0,0,25.635-9a2.825,2.825,0,0,0-.542,1.805,2.94,2.94,0,0,0,.524,1.8A1.658,1.658,0,0,0,27.019-4.687Zm5.728,5.6H31.582l4.453-11.58h1.157ZM45.505,0H38.518V-.974l3.691-4.1a8.77,8.77,0,0,0,1.132-1.512,2.524,2.524,0,0,0,.311-1.2,1.913,1.913,0,0,0-.505-1.37A1.767,1.767,0,0,0,41.8-9.7a2.093,2.093,0,0,0-1.571.575,2.2,2.2,0,0,0-.56,1.6H38.313a3.145,3.145,0,0,1,.948-2.38,3.516,3.516,0,0,1,2.538-.908,3.379,3.379,0,0,1,2.351.78,2.661,2.661,0,0,1,.864,2.076q0,1.575-2.007,3.75l-2.856,3.1h5.354Zm8.123-4.548a6.2,6.2,0,0,1-.813,3.538A2.891,2.891,0,0,1,50.273.146,2.912,2.912,0,0,1,47.747-.985a5.882,5.882,0,0,1-.85-3.38V-6.174a6.059,6.059,0,0,1,.813-3.494,2.914,2.914,0,0,1,2.549-1.143,2.94,2.94,0,0,1,2.534,1.1,5.847,5.847,0,0,1,.835,3.4ZM52.273-6.4A4.965,4.965,0,0,0,51.79-8.91,1.664,1.664,0,0,0,50.259-9.7a1.642,1.642,0,0,0-1.516.784,4.848,4.848,0,0,0-.491,2.41v2.168a5.045,5.045,0,0,0,.5,2.552,1.661,1.661,0,0,0,1.52.824,1.638,1.638,0,0,0,1.49-.776,4.862,4.862,0,0,0,.509-2.446Zm9.778,1.853a6.2,6.2,0,0,1-.813,3.538A2.891,2.891,0,0,1,58.7.146,2.912,2.912,0,0,1,56.169-.985a5.882,5.882,0,0,1-.85-3.38V-6.174a6.059,6.059,0,0,1,.813-3.494,2.914,2.914,0,0,1,2.549-1.143,2.94,2.94,0,0,1,2.534,1.1,5.847,5.847,0,0,1,.835,3.4ZM60.7-6.4a4.965,4.965,0,0,0-.483-2.509A1.664,1.664,0,0,0,58.682-9.7a1.642,1.642,0,0,0-1.516.784,4.848,4.848,0,0,0-.491,2.41v2.168a5.045,5.045,0,0,0,.5,2.552,1.661,1.661,0,0,0,1.52.824,1.638,1.638,0,0,0,1.49-.776A4.862,4.862,0,0,0,60.7-4.182Zm9.558-1.479a2.476,2.476,0,0,1-.421,1.421,2.865,2.865,0,0,1-1.139.974,3.056,3.056,0,0,1,1.322,1.047,2.636,2.636,0,0,1,.487,1.56,2.787,2.787,0,0,1-.934,2.2,3.588,3.588,0,0,1-2.457.82,3.572,3.572,0,0,1-2.465-.824,2.8,2.8,0,0,1-.927-2.2,2.714,2.714,0,0,1,.472-1.56A2.94,2.94,0,0,1,65.5-5.493a2.8,2.8,0,0,1-1.121-.974,2.512,2.512,0,0,1-.41-1.414,2.757,2.757,0,0,1,.864-2.139,3.242,3.242,0,0,1,2.278-.791,3.245,3.245,0,0,1,2.274.791A2.751,2.751,0,0,1,70.254-7.881ZM69.148-2.908a1.965,1.965,0,0,0-.568-1.458A2.013,2.013,0,0,0,67.1-4.929a1.978,1.978,0,0,0-1.469.557,1.988,1.988,0,0,0-.553,1.465,1.893,1.893,0,0,0,.538,1.428,2.066,2.066,0,0,0,1.5.52,2.06,2.06,0,0,0,1.494-.524A1.888,1.888,0,0,0,69.148-2.908ZM67.112-9.7a1.748,1.748,0,0,0-1.293.494,1.816,1.816,0,0,0-.494,1.344,1.807,1.807,0,0,0,.487,1.315,1.729,1.729,0,0,0,1.3.5,1.729,1.729,0,0,0,1.3-.5A1.807,1.807,0,0,0,68.9-7.859a1.808,1.808,0,0,0-.505-1.326A1.724,1.724,0,0,0,67.112-9.7Z" transform="translate(821.715 6526.571)" fill="#0c1d30"/>
    <path id="Línea_337-4" data-name="Línea 337" d="M0,0V188.334" transform="translate(906.462 6379.482)" fill="none" stroke="#d9d9d9" stroke-width="0.748" style="mix-blend-mode: multiply;isolation: isolate"/>
    <path id="Trazado_194674" data-name="Trazado 194674" d="M5.339,0H3.977V-9.031l-2.732,1v-1.23l3.882-1.458h.212ZM16.3,0H9.309V-.974L13-5.076a8.77,8.77,0,0,0,1.132-1.512,2.524,2.524,0,0,0,.311-1.2,1.913,1.913,0,0,0-.505-1.37A1.767,1.767,0,0,0,12.59-9.7a2.093,2.093,0,0,0-1.571.575,2.2,2.2,0,0,0-.56,1.6H9.1a3.145,3.145,0,0,1,.948-2.38,3.516,3.516,0,0,1,2.538-.908,3.379,3.379,0,0,1,2.351.78,2.661,2.661,0,0,1,.864,2.076q0,1.575-2.007,3.75l-2.856,3.1H16.3Zm5.889,0H20.823V-9.031l-2.732,1v-1.23l3.882-1.458h.212Z" transform="translate(939.51 6464.156)" fill="#0c1d30"/>
    <path id="Trazado_194675" data-name="Trazado 194675" d="M5.339,0H3.977V-9.031l-2.732,1v-1.23l3.882-1.458h.212ZM16.3,0H9.309V-.974L13-5.076a8.77,8.77,0,0,0,1.132-1.512,2.524,2.524,0,0,0,.311-1.2,1.913,1.913,0,0,0-.505-1.37A1.767,1.767,0,0,0,12.59-9.7a2.093,2.093,0,0,0-1.571.575,2.2,2.2,0,0,0-.56,1.6H9.1a3.145,3.145,0,0,1,.948-2.38,3.516,3.516,0,0,1,2.538-.908,3.379,3.379,0,0,1,2.351.78,2.661,2.661,0,0,1,.864,2.076q0,1.575-2.007,3.75l-2.856,3.1H16.3Zm6.628-4.687a3.315,3.315,0,0,1-1.014.813,2.752,2.752,0,0,1-1.293.308,2.841,2.841,0,0,1-1.608-.454A2.952,2.952,0,0,1,17.952-5.3a4.357,4.357,0,0,1-.374-1.82,4.439,4.439,0,0,1,.406-1.926,2.986,2.986,0,0,1,1.154-1.311,3.289,3.289,0,0,1,1.743-.454,2.978,2.978,0,0,1,2.494,1.183A5.159,5.159,0,0,1,24.287-6.4v.4a6.894,6.894,0,0,1-1.23,4.545A4.727,4.727,0,0,1,19.343.007H19.08v-1.15h.286a3.73,3.73,0,0,0,2.578-.873A3.748,3.748,0,0,0,22.925-4.687Zm-2.087,0A2.092,2.092,0,0,0,22.094-5.1a2.461,2.461,0,0,0,.839-1.033V-6.68a3.729,3.729,0,0,0-.579-2.168,1.727,1.727,0,0,0-1.465-.835A1.74,1.74,0,0,0,19.453-9a2.825,2.825,0,0,0-.542,1.805,2.94,2.94,0,0,0,.524,1.8A1.658,1.658,0,0,0,20.837-4.687Z" transform="translate(939.51 6557.839)" fill="#0c1d30"/>
    <path id="Trazado_194676" data-name="Trazado 194676" d="M5.339,0H3.977V-9.031l-2.732,1v-1.23l3.882-1.458h.212ZM16.3,0H9.309V-.974L13-5.076a8.77,8.77,0,0,0,1.132-1.512,2.524,2.524,0,0,0,.311-1.2,1.913,1.913,0,0,0-.505-1.37A1.767,1.767,0,0,0,12.59-9.7a2.093,2.093,0,0,0-1.571.575,2.2,2.2,0,0,0-.56,1.6H9.1a3.145,3.145,0,0,1,.948-2.38,3.516,3.516,0,0,1,2.538-.908,3.379,3.379,0,0,1,2.351.78,2.661,2.661,0,0,1,.864,2.076q0,1.575-2.007,3.75l-2.856,3.1H16.3Zm5.889,0H20.823V-9.031l-2.732,1v-1.23l3.882-1.458h.212Z" transform="translate(939.51 6433.01)" fill="#0c1d30"/>
    <path id="Trazado_194677" data-name="Trazado 194677" d="M6.079-4.687a3.315,3.315,0,0,1-1.014.813,2.752,2.752,0,0,1-1.293.308,2.841,2.841,0,0,1-1.608-.454A2.952,2.952,0,0,1,1.106-5.3a4.357,4.357,0,0,1-.374-1.82,4.439,4.439,0,0,1,.406-1.926,2.986,2.986,0,0,1,1.154-1.311,3.289,3.289,0,0,1,1.743-.454A2.978,2.978,0,0,1,6.53-9.628,5.159,5.159,0,0,1,7.441-6.4v.4a6.894,6.894,0,0,1-1.23,4.545A4.727,4.727,0,0,1,2.5.007H2.234v-1.15H2.52A3.73,3.73,0,0,0,5.1-2.016,3.748,3.748,0,0,0,6.079-4.687Zm-2.087,0A2.092,2.092,0,0,0,5.248-5.1a2.461,2.461,0,0,0,.839-1.033V-6.68a3.729,3.729,0,0,0-.579-2.168,1.727,1.727,0,0,0-1.465-.835A1.74,1.74,0,0,0,2.607-9a2.825,2.825,0,0,0-.542,1.805,2.94,2.94,0,0,0,.524,1.8A1.658,1.658,0,0,0,3.992-4.687ZM16.194-9.9,11.777,0H10.356l4.4-9.551H8.987v-1.113h7.207Z" transform="translate(943.794 6495.425)" fill="#0c1d30"/>
    <path id="Trazado_194678" data-name="Trazado 194678" d="M5.339,0H3.977V-9.031l-2.732,1v-1.23l3.882-1.458h.212Zm8.423,0H12.4V-9.031l-2.732,1v-1.23l3.882-1.458h.212ZM19.7-5.991H20.72A2.238,2.238,0,0,0,22.229-6.5a1.688,1.688,0,0,0,.549-1.326A1.654,1.654,0,0,0,20.911-9.7a1.943,1.943,0,0,0-1.4.5,1.756,1.756,0,0,0-.524,1.329H17.629a2.72,2.72,0,0,1,.927-2.106,3.375,3.375,0,0,1,2.355-.839,3.335,3.335,0,0,1,2.366.8,2.884,2.884,0,0,1,.857,2.219,2.341,2.341,0,0,1-.45,1.348,2.72,2.72,0,0,1-1.227.974,2.621,2.621,0,0,1,1.359.923,2.563,2.563,0,0,1,.48,1.575A2.909,2.909,0,0,1,23.357-.7a3.511,3.511,0,0,1-2.439.842,3.6,3.6,0,0,1-2.443-.813,2.7,2.7,0,0,1-.941-2.146H18.9a1.743,1.743,0,0,0,.549,1.348,2.089,2.089,0,0,0,1.472.505,2.05,2.05,0,0,0,1.5-.513,1.976,1.976,0,0,0,.52-1.472,1.793,1.793,0,0,0-.571-1.428,2.489,2.489,0,0,0-1.648-.513H19.7Z" transform="translate(939.51 6526.632)" fill="#0c1d30"/>
    <path id="Línea_338-2" data-name="Línea 338" d="M283.19,0H0" transform="translate(715.677 6379.482)" fill="none" stroke="#d9d9d9" stroke-width="0.748" style="mix-blend-mode: multiply;isolation: isolate"/>
    <path id="Rectángulo_293621-3" data-name="Rectángulo 293621" d="M0,0H283.66V28.674H0Z" transform="translate(1045.904 6350.808)" fill="#e3e3e3"/>
    <path id="Línea_338-3" data-name="Línea 338" d="M283.19,0H0" transform="translate(1046.374 6440.917)" fill="none" stroke="#d9d9d9" stroke-width="0.493"/>
    <path id="Línea_339-2" data-name="Línea 339" d="M283.19,0H0" transform="translate(1046.374 6472.703)" fill="none" stroke="#d9d9d9" stroke-width="0.493"/>
    <path id="Línea_341-2" data-name="Línea 341" d="M283.19,0H0" transform="translate(1046.139 6504.487)" fill="none" stroke="#d9d9d9" stroke-width="0.493"/>
    <path id="Línea_342-2" data-name="Línea 342" d="M283.19,0H0" transform="translate(1046.139 6536.272)" fill="none" stroke="#d9d9d9" stroke-width="0.493"/>
    <path id="Línea_343-2" data-name="Línea 343" d="M283.19,0H0" transform="translate(1046.139 6568.057)" fill="none" stroke="#d9d9d9" stroke-width="0.493"/>
    <path id="Línea_337-5" data-name="Línea 337" d="M0,0V159.967" transform="translate(1046.681 6407.85)" fill="none" stroke="#d9d9d9" stroke-width="0.719"/>
    <path id="Línea_337-6" data-name="Línea 337" d="M0,0V159.967" transform="translate(1329.636 6407.85)" fill="none" stroke="#d9d9d9" stroke-width="0.719"/>
    <path id="Rectángulo_293620-2" data-name="Rectángulo 293620" d="M0,0H283.66V2.35H0Z" transform="translate(1045.904 6348.457)" fill="#fda000"/>
    <path id="Rectángulo_293621-4" data-name="Rectángulo 293621" d="M0,0H283.66V28.674H0Z" transform="translate(1045.904 6379.482)" fill="#e3e3e3"/>
    <path id="Trazado_194679" data-name="Trazado 194679" d="M9.324-3.552A3.774,3.774,0,0,1,8.053-.842,4.463,4.463,0,0,1,5.032.146,4.013,4.013,0,0,1,1.805-1.234,5.661,5.661,0,0,1,.63-5.024v-.652a6.393,6.393,0,0,1,.542-2.71,4.062,4.062,0,0,1,1.549-1.8,4.339,4.339,0,0,1,2.34-.626,4.348,4.348,0,0,1,2.974.989,4.055,4.055,0,0,1,1.3,2.776h-2.2a2.227,2.227,0,0,0-.575-1.5,2.129,2.129,0,0,0-1.505-.465,1.867,1.867,0,0,0-1.644.787,4.413,4.413,0,0,0-.56,2.443v.806A4.723,4.723,0,0,0,3.38-2.446a1.832,1.832,0,0,0,1.652.8,2.169,2.169,0,0,0,1.52-.465,2.1,2.1,0,0,0,.575-1.439Zm.974-.483a4.7,4.7,0,0,1,.454-2.1,3.324,3.324,0,0,1,1.307-1.428,3.814,3.814,0,0,1,1.981-.505,3.609,3.609,0,0,1,2.618.981,3.939,3.939,0,0,1,1.132,2.666l.015.542A4.142,4.142,0,0,1,16.787-.956a3.539,3.539,0,0,1-2.732,1.1,3.556,3.556,0,0,1-2.736-1.1A4.215,4.215,0,0,1,10.3-3.94Zm2.117.15a2.962,2.962,0,0,0,.425,1.727,1.4,1.4,0,0,0,1.216.6,1.4,1.4,0,0,0,1.2-.591,3.241,3.241,0,0,0,.432-1.889,2.933,2.933,0,0,0-.432-1.716,1.4,1.4,0,0,0-1.216-.609,1.382,1.382,0,0,0-1.2.605A3.3,3.3,0,0,0,12.415-3.885Zm6.365-.136a4.776,4.776,0,0,1,.831-2.952,2.7,2.7,0,0,1,2.274-1.1,2.427,2.427,0,0,1,1.912.864V-11.25H25.92V0H24.009l-.1-.842A2.491,2.491,0,0,1,21.87.146a2.69,2.69,0,0,1-2.245-1.1A4.93,4.93,0,0,1,18.779-4.021Zm2.117.158a3.128,3.128,0,0,0,.388,1.709,1.265,1.265,0,0,0,1.128.594A1.416,1.416,0,0,0,23.8-2.389V-5.521a1.4,1.4,0,0,0-1.37-.829Q20.9-6.35,20.9-3.863ZM33.428,1.655H26.755V0h6.672Zm9.338-5.208A3.774,3.774,0,0,1,41.5-.842a4.463,4.463,0,0,1-3.021.989,4.013,4.013,0,0,1-3.226-1.381,5.661,5.661,0,0,1-1.176-3.79v-.652a6.393,6.393,0,0,1,.542-2.71,4.062,4.062,0,0,1,1.549-1.8,4.339,4.339,0,0,1,2.34-.626,4.348,4.348,0,0,1,2.974.989,4.055,4.055,0,0,1,1.3,2.776h-2.2a2.227,2.227,0,0,0-.575-1.5A2.129,2.129,0,0,0,38.5-9.009a1.867,1.867,0,0,0-1.644.787,4.413,4.413,0,0,0-.56,2.443v.806a4.723,4.723,0,0,0,.524,2.527,1.832,1.832,0,0,0,1.652.8,2.169,2.169,0,0,0,1.52-.465,2.1,2.1,0,0,0,.575-1.439ZM46.3,0H44.18V-11.25H46.3Zm3.977,0H48.157V-7.925h2.124ZM48.032-9.976a1.042,1.042,0,0,1,.319-.784,1.2,1.2,0,0,1,.868-.308,1.2,1.2,0,0,1,.864.308,1.036,1.036,0,0,1,.322.784,1.039,1.039,0,0,1-.326.791,1.2,1.2,0,0,1-.861.308,1.2,1.2,0,0,1-.861-.308A1.039,1.039,0,0,1,48.032-9.976ZM55.671.146A3.89,3.89,0,0,1,52.833-.923a3.8,3.8,0,0,1-1.095-2.849v-.205A4.787,4.787,0,0,1,52.2-6.112a3.386,3.386,0,0,1,1.307-1.45,3.669,3.669,0,0,1,1.93-.509A3.289,3.289,0,0,1,58-7.046a4.167,4.167,0,0,1,.934,2.908v.864H53.884A1.966,1.966,0,0,0,54.5-2.029a1.871,1.871,0,0,0,1.307.469,2.285,2.285,0,0,0,1.912-.886l1.04,1.165A3.178,3.178,0,0,1,57.473-.231,4.229,4.229,0,0,1,55.671.146ZM55.43-6.365a1.323,1.323,0,0,0-1.022.427,2.209,2.209,0,0,0-.5,1.221h2.944v-.169a1.576,1.576,0,0,0-.381-1.092A1.365,1.365,0,0,0,55.43-6.365Zm6.65-1.56.066.916a2.767,2.767,0,0,1,2.278-1.062,2.3,2.3,0,0,1,1.875.74,3.451,3.451,0,0,1,.63,2.212V0H64.812V-5.068a1.373,1.373,0,0,0-.293-.978,1.312,1.312,0,0,0-.974-.3,1.456,1.456,0,0,0-1.34.762V0H60.088V-7.925Zm8.987-1.948v1.948h1.355v1.553H71.067v3.955a.944.944,0,0,0,.168.63.846.846,0,0,0,.645.19,3.376,3.376,0,0,0,.623-.051v1.6a4.358,4.358,0,0,1-1.282.19A2.021,2.021,0,0,1,68.95-2.1v-4.27H67.793V-7.925H68.95V-9.873ZM77.249.146A3.89,3.89,0,0,1,74.41-.923a3.8,3.8,0,0,1-1.095-2.849v-.205a4.787,4.787,0,0,1,.461-2.135,3.386,3.386,0,0,1,1.307-1.45,3.669,3.669,0,0,1,1.93-.509,3.289,3.289,0,0,1,2.56,1.025,4.167,4.167,0,0,1,.934,2.908v.864H75.461a1.966,1.966,0,0,0,.619,1.245,1.871,1.871,0,0,0,1.307.469A2.285,2.285,0,0,0,79.3-2.446l1.04,1.165A3.178,3.178,0,0,1,79.05-.231,4.229,4.229,0,0,1,77.249.146Zm-.242-6.511a1.323,1.323,0,0,0-1.022.427,2.209,2.209,0,0,0-.5,1.221h2.944v-.169a1.576,1.576,0,0,0-.381-1.092A1.365,1.365,0,0,0,77.007-6.365Z" transform="translate(1053.906 6396.738)" fill="#0c1d30"/>
    <path id="Trazado_194680" data-name="Trazado 194680" d="M9.324-3.552A3.774,3.774,0,0,1,8.053-.842,4.463,4.463,0,0,1,5.032.146,4.013,4.013,0,0,1,1.805-1.234,5.661,5.661,0,0,1,.63-5.024v-.652a6.393,6.393,0,0,1,.542-2.71,4.062,4.062,0,0,1,1.549-1.8,4.339,4.339,0,0,1,2.34-.626,4.348,4.348,0,0,1,2.974.989,4.055,4.055,0,0,1,1.3,2.776h-2.2a2.227,2.227,0,0,0-.575-1.5,2.129,2.129,0,0,0-1.505-.465,1.867,1.867,0,0,0-1.644.787,4.413,4.413,0,0,0-.56,2.443v.806A4.723,4.723,0,0,0,3.38-2.446a1.832,1.832,0,0,0,1.652.8,2.169,2.169,0,0,0,1.52-.465,2.1,2.1,0,0,0,.575-1.439ZM12.861,0H10.737V-11.25h2.124Zm3.977,0H14.714V-7.925h2.124ZM14.59-9.976a1.042,1.042,0,0,1,.319-.784,1.2,1.2,0,0,1,.868-.308,1.2,1.2,0,0,1,.864.308,1.036,1.036,0,0,1,.322.784,1.039,1.039,0,0,1-.326.791,1.2,1.2,0,0,1-.861.308,1.2,1.2,0,0,1-.861-.308A1.039,1.039,0,0,1,14.59-9.976ZM22.229.146A3.89,3.89,0,0,1,19.391-.923,3.8,3.8,0,0,1,18.3-3.772v-.205a4.787,4.787,0,0,1,.461-2.135,3.386,3.386,0,0,1,1.307-1.45,3.669,3.669,0,0,1,1.93-.509,3.289,3.289,0,0,1,2.56,1.025,4.167,4.167,0,0,1,.934,2.908v.864H20.442a1.966,1.966,0,0,0,.619,1.245,1.871,1.871,0,0,0,1.307.469,2.285,2.285,0,0,0,1.912-.886l1.04,1.165A3.178,3.178,0,0,1,24.031-.231,4.229,4.229,0,0,1,22.229.146Zm-.242-6.511a1.323,1.323,0,0,0-1.022.427,2.209,2.209,0,0,0-.5,1.221h2.944v-.169a1.576,1.576,0,0,0-.381-1.092A1.365,1.365,0,0,0,21.987-6.365Zm6.65-1.56.066.916a2.767,2.767,0,0,1,2.278-1.062,2.3,2.3,0,0,1,1.875.74,3.451,3.451,0,0,1,.63,2.212V0H31.37V-5.068a1.373,1.373,0,0,0-.293-.978,1.312,1.312,0,0,0-.974-.3,1.456,1.456,0,0,0-1.34.762V0H26.646V-7.925Zm8.987-1.948v1.948h1.355v1.553H37.625v3.955a.944.944,0,0,0,.168.63.846.846,0,0,0,.645.19,3.376,3.376,0,0,0,.623-.051v1.6a4.358,4.358,0,0,1-1.282.19A2.021,2.021,0,0,1,35.508-2.1v-4.27H34.351V-7.925h1.157V-9.873ZM43.806.146A3.89,3.89,0,0,1,40.968-.923a3.8,3.8,0,0,1-1.095-2.849v-.205a4.787,4.787,0,0,1,.461-2.135,3.386,3.386,0,0,1,1.307-1.45,3.669,3.669,0,0,1,1.93-.509,3.289,3.289,0,0,1,2.56,1.025,4.167,4.167,0,0,1,.934,2.908v.864H42.019a1.966,1.966,0,0,0,.619,1.245,1.871,1.871,0,0,0,1.307.469,2.285,2.285,0,0,0,1.912-.886L46.9-1.282A3.178,3.178,0,0,1,45.608-.231,4.229,4.229,0,0,1,43.806.146Zm-.242-6.511a1.323,1.323,0,0,0-1.022.427,2.209,2.209,0,0,0-.5,1.221h2.944v-.169A1.576,1.576,0,0,0,44.6-5.979,1.365,1.365,0,0,0,43.564-6.365ZM52.559-2.19a.682.682,0,0,0-.385-.612,4.368,4.368,0,0,0-1.234-.4q-2.827-.593-2.827-2.4a2.178,2.178,0,0,1,.875-1.761,3.531,3.531,0,0,1,2.289-.707,3.8,3.8,0,0,1,2.413.71,2.239,2.239,0,0,1,.9,1.846H52.478a1.024,1.024,0,0,0-.293-.751,1.24,1.24,0,0,0-.916-.3,1.267,1.267,0,0,0-.828.242.763.763,0,0,0-.293.615.652.652,0,0,0,.333.568,3.428,3.428,0,0,0,1.124.374,9.183,9.183,0,0,1,1.333.355,2.19,2.19,0,0,1,1.677,2.131,2.067,2.067,0,0,1-.93,1.754,4.013,4.013,0,0,1-2.4.67,4.191,4.191,0,0,1-1.769-.355A2.968,2.968,0,0,1,48.3-1.183a2.263,2.263,0,0,1-.439-1.337h2.007a1.105,1.105,0,0,0,.417.864,1.656,1.656,0,0,0,1.04.3,1.533,1.533,0,0,0,.919-.231A.718.718,0,0,0,52.559-2.19Z" transform="translate(1162.638 6368.711)" fill="#0c1d30"/>
    <path id="Trazado_194681" data-name="Trazado 194681" d="M6.973-2.2H3.12L2.388,0H.051l3.97-10.664H6.057L10.049,0H7.712ZM3.713-3.977H6.379L5.039-7.969Zm13.975.088a4.753,4.753,0,0,1-.831,2.933,2.665,2.665,0,0,1-2.245,1.1,2.469,2.469,0,0,1-1.941-.835V3.047H10.554V-7.925h1.963l.073.776A2.488,2.488,0,0,1,14.6-8.071a2.683,2.683,0,0,1,2.278,1.084A4.882,4.882,0,0,1,17.688-4Zm-2.117-.154a3.119,3.119,0,0,0-.392-1.707,1.276,1.276,0,0,0-1.139-.6,1.386,1.386,0,0,0-1.37.762v3.245a1.41,1.41,0,0,0,1.384.784Q15.571-1.56,15.571-4.043ZM22.646.146A3.89,3.89,0,0,1,19.808-.923a3.8,3.8,0,0,1-1.095-2.849v-.205a4.787,4.787,0,0,1,.461-2.135,3.386,3.386,0,0,1,1.307-1.45,3.669,3.669,0,0,1,1.93-.509,3.289,3.289,0,0,1,2.56,1.025,4.167,4.167,0,0,1,.934,2.908v.864H20.859a1.966,1.966,0,0,0,.619,1.245,1.871,1.871,0,0,0,1.307.469A2.285,2.285,0,0,0,24.7-2.446l1.04,1.165A3.178,3.178,0,0,1,24.448-.231,4.229,4.229,0,0,1,22.646.146ZM22.4-6.365a1.323,1.323,0,0,0-1.022.427,2.209,2.209,0,0,0-.5,1.221h2.944v-.169a1.576,1.576,0,0,0-.381-1.092A1.365,1.365,0,0,0,22.4-6.365ZM29.341,0H27.217V-11.25h2.124Zm3.977,0H31.194V-11.25h2.124Zm3.977,0H35.171V-7.925h2.124ZM35.046-9.976a1.042,1.042,0,0,1,.319-.784,1.2,1.2,0,0,1,.868-.308,1.2,1.2,0,0,1,.864.308,1.036,1.036,0,0,1,.322.784,1.039,1.039,0,0,1-.326.791,1.2,1.2,0,0,1-.861.308,1.2,1.2,0,0,1-.861-.308A1.039,1.039,0,0,1,35.046-9.976Zm3.662,5.955a4.776,4.776,0,0,1,.831-2.952,2.7,2.7,0,0,1,2.274-1.1,2.427,2.427,0,0,1,1.912.864V-11.25H45.85V0H43.938l-.1-.842A2.491,2.491,0,0,1,41.8.146a2.69,2.69,0,0,1-2.245-1.1A4.93,4.93,0,0,1,38.708-4.021Zm2.117.158a3.128,3.128,0,0,0,.388,1.709,1.265,1.265,0,0,0,1.128.594,1.416,1.416,0,0,0,1.384-.829V-5.521a1.4,1.4,0,0,0-1.37-.829Q40.825-6.35,40.825-3.863Zm6.335-.172a4.7,4.7,0,0,1,.454-2.1,3.324,3.324,0,0,1,1.307-1.428A3.814,3.814,0,0,1,50.9-8.071a3.609,3.609,0,0,1,2.618.981,3.939,3.939,0,0,1,1.132,2.666l.015.542A4.142,4.142,0,0,1,53.65-.956a3.539,3.539,0,0,1-2.732,1.1,3.556,3.556,0,0,1-2.736-1.1A4.215,4.215,0,0,1,47.161-3.94Zm2.117.15A2.962,2.962,0,0,0,49.7-2.158a1.4,1.4,0,0,0,1.216.6,1.4,1.4,0,0,0,1.2-.591,3.241,3.241,0,0,0,.432-1.889,2.933,2.933,0,0,0-.432-1.716A1.4,1.4,0,0,0,50.9-6.365a1.382,1.382,0,0,0-1.2.605A3.3,3.3,0,0,0,49.277-3.885Zm10.986,1.7a.682.682,0,0,0-.385-.612,4.368,4.368,0,0,0-1.234-.4q-2.827-.593-2.827-2.4a2.178,2.178,0,0,1,.875-1.761,3.531,3.531,0,0,1,2.289-.707,3.8,3.8,0,0,1,2.413.71,2.239,2.239,0,0,1,.9,1.846H60.183a1.024,1.024,0,0,0-.293-.751,1.24,1.24,0,0,0-.916-.3,1.267,1.267,0,0,0-.828.242.763.763,0,0,0-.293.615.652.652,0,0,0,.333.568,3.428,3.428,0,0,0,1.124.374,9.183,9.183,0,0,1,1.333.355,2.19,2.19,0,0,1,1.677,2.131,2.067,2.067,0,0,1-.93,1.754,4.013,4.013,0,0,1-2.4.67A4.191,4.191,0,0,1,57.22-.209a2.968,2.968,0,0,1-1.212-.974,2.263,2.263,0,0,1-.439-1.337h2.007a1.105,1.105,0,0,0,.417.864,1.656,1.656,0,0,0,1.04.3,1.533,1.533,0,0,0,.919-.231A.718.718,0,0,0,60.264-2.19Z" transform="translate(1253.479 6396.799)" fill="#0c1d30"/>
    <path id="Trazado_194682" data-name="Trazado 194682" d="M9.624,0h-2.2L3.149-7.017V0H.952V-10.664h2.2L7.434-3.633v-7.031h2.19Zm1.45-4.036a4.7,4.7,0,0,1,.454-2.1,3.324,3.324,0,0,1,1.307-1.428,3.814,3.814,0,0,1,1.981-.505,3.609,3.609,0,0,1,2.618.981,3.939,3.939,0,0,1,1.132,2.666l.015.542A4.142,4.142,0,0,1,17.563-.956a3.539,3.539,0,0,1-2.732,1.1A3.556,3.556,0,0,1,12.1-.952,4.215,4.215,0,0,1,11.074-3.94Zm2.117.15a2.962,2.962,0,0,0,.425,1.727,1.4,1.4,0,0,0,1.216.6,1.4,1.4,0,0,0,1.2-.591,3.241,3.241,0,0,0,.432-1.889,2.933,2.933,0,0,0-.432-1.716,1.4,1.4,0,0,0-1.216-.609,1.382,1.382,0,0,0-1.2.605A3.3,3.3,0,0,0,13.191-3.885ZM21.87-7.925l.066.886a2.785,2.785,0,0,1,2.278-1.033,2.114,2.114,0,0,1,2.1,1.208A2.721,2.721,0,0,1,28.7-8.071a2.364,2.364,0,0,1,1.919.751,3.451,3.451,0,0,1,.63,2.26V0H29.121V-5.054a1.509,1.509,0,0,0-.264-.985,1.169,1.169,0,0,0-.93-.311,1.321,1.321,0,0,0-1.318.908L26.616,0H24.5V-5.046a1.491,1.491,0,0,0-.271-1,1.18,1.18,0,0,0-.923-.308A1.372,1.372,0,0,0,22-5.6V0H19.885V-7.925ZM40.012-3.889A4.8,4.8,0,0,1,39.2-.919,2.693,2.693,0,0,1,36.929.146a2.474,2.474,0,0,1-2.058-.989l-.1.842h-1.9V-11.25h2.117v4.036a2.411,2.411,0,0,1,1.926-.857,2.715,2.715,0,0,1,2.274,1.066,4.806,4.806,0,0,1,.824,3ZM37.9-4.043A3.153,3.153,0,0,0,37.515-5.8a1.288,1.288,0,0,0-1.135-.553,1.4,1.4,0,0,0-1.392.828V-2.4a1.415,1.415,0,0,0,1.406.835,1.307,1.307,0,0,0,1.348-1.011A5.214,5.214,0,0,0,37.9-4.043Zm7.874-1.9A5.751,5.751,0,0,0,45.007-6a1.55,1.55,0,0,0-1.575.813V0H41.316V-7.925h2l.059.945a1.961,1.961,0,0,1,1.765-1.091,2.218,2.218,0,0,1,.659.1ZM50.3.146A3.89,3.89,0,0,1,47.457-.923a3.8,3.8,0,0,1-1.095-2.849v-.205a4.787,4.787,0,0,1,.461-2.135,3.386,3.386,0,0,1,1.307-1.45,3.669,3.669,0,0,1,1.93-.509,3.289,3.289,0,0,1,2.56,1.025,4.167,4.167,0,0,1,.934,2.908v.864H48.508a1.966,1.966,0,0,0,.619,1.245,1.871,1.871,0,0,0,1.307.469,2.285,2.285,0,0,0,1.912-.886l1.04,1.165A3.178,3.178,0,0,1,52.1-.231,4.229,4.229,0,0,1,50.3.146Zm-.242-6.511a1.323,1.323,0,0,0-1.022.427,2.209,2.209,0,0,0-.5,1.221h2.944v-.169a1.576,1.576,0,0,0-.381-1.092A1.365,1.365,0,0,0,50.054-6.365Z" transform="translate(1163.021 6396.738)" fill="#0c1d30"/>
    <path id="Trazado_194683" data-name="Trazado 194683" d="M4.38-4.753A6.612,6.612,0,0,1,1.747-6.031,2.442,2.442,0,0,1,.923-7.9,2.58,2.58,0,0,1,1.93-9.987a4,4,0,0,1,2.618-.824,4.369,4.369,0,0,1,1.959.425A3.222,3.222,0,0,1,7.841-9.214a3,3,0,0,1,.472,1.633H6.9a1.95,1.95,0,0,0-.615-1.525,2.5,2.5,0,0,0-1.736-.555A2.561,2.561,0,0,0,2.926-9.2a1.53,1.53,0,0,0-.582,1.273,1.376,1.376,0,0,0,.553,1.1A5.424,5.424,0,0,0,4.779-6a8.734,8.734,0,0,1,2.08.825A3.157,3.157,0,0,1,7.972-4.124,2.683,2.683,0,0,1,8.335-2.71,2.492,2.492,0,0,1,7.324-.634a4.31,4.31,0,0,1-2.7.78A5.013,5.013,0,0,1,2.571-.275,3.451,3.451,0,0,1,1.1-1.428,2.815,2.815,0,0,1,.586-3.091H2a1.837,1.837,0,0,0,.714,1.527A3.007,3.007,0,0,0,4.622-1a2.764,2.764,0,0,0,1.707-.454A1.475,1.475,0,0,0,6.921-2.7a1.448,1.448,0,0,0-.549-1.212A6.333,6.333,0,0,0,4.38-4.753ZM14.817,0a2.846,2.846,0,0,1-.19-.835,3.023,3.023,0,0,1-2.256.981,2.8,2.8,0,0,1-1.923-.663A2.145,2.145,0,0,1,9.7-2.2a2.24,2.24,0,0,1,.941-1.923A4.437,4.437,0,0,1,13.286-4.8H14.6v-.623a1.522,1.522,0,0,0-.425-1.132,1.707,1.707,0,0,0-1.252-.421,1.976,1.976,0,0,0-1.216.366,1.079,1.079,0,0,0-.491.886H9.858a1.87,1.87,0,0,1,.421-1.146,2.874,2.874,0,0,1,1.143-.875,3.844,3.844,0,0,1,1.586-.322,3.133,3.133,0,0,1,2.146.685A2.47,2.47,0,0,1,15.959-5.5v3.647a4.459,4.459,0,0,0,.278,1.736V0ZM12.568-1.033a2.381,2.381,0,0,0,1.208-.33,1.994,1.994,0,0,0,.828-.857V-3.845H13.542q-2.49,0-2.49,1.458a1.234,1.234,0,0,0,.425,1A1.633,1.633,0,0,0,12.568-1.033Zm9.346-5.676a4.061,4.061,0,0,0-.667-.051,1.786,1.786,0,0,0-1.809,1.135V0H18.083V-7.925H19.4l.022.916a2.11,2.11,0,0,1,1.89-1.062,1.384,1.384,0,0,1,.6.1ZM27.759,0a2.846,2.846,0,0,1-.19-.835,3.023,3.023,0,0,1-2.256.981A2.8,2.8,0,0,1,23.39-.516,2.145,2.145,0,0,1,22.639-2.2,2.24,2.24,0,0,1,23.58-4.12,4.437,4.437,0,0,1,26.228-4.8h1.318v-.623a1.522,1.522,0,0,0-.425-1.132,1.707,1.707,0,0,0-1.252-.421,1.976,1.976,0,0,0-1.216.366,1.079,1.079,0,0,0-.491.886H22.8a1.87,1.87,0,0,1,.421-1.146,2.874,2.874,0,0,1,1.143-.875,3.844,3.844,0,0,1,1.586-.322,3.133,3.133,0,0,1,2.146.685A2.47,2.47,0,0,1,28.9-5.5v3.647A4.459,4.459,0,0,0,29.18-.117V0ZM25.51-1.033a2.381,2.381,0,0,0,1.208-.33,1.994,1.994,0,0,0,.828-.857V-3.845H26.484q-2.49,0-2.49,1.458a1.234,1.234,0,0,0,.425,1A1.633,1.633,0,0,0,25.51-1.033Z" transform="translate(1175.27 6464.156)" fill="#0c1d30"/>
    <path id="Trazado_194684" data-name="Trazado 194684" d="M9.111-1.4A3.248,3.248,0,0,1,7.6-.238a6.109,6.109,0,0,1-2.26.385A4.382,4.382,0,0,1,3.025-.465,4.074,4.074,0,0,1,1.461-2.2,6.008,6.008,0,0,1,.894-4.819v-.93A5.608,5.608,0,0,1,2.018-9.485a3.917,3.917,0,0,1,3.16-1.326,4.046,4.046,0,0,1,2.688.853A3.717,3.717,0,0,1,9.111-7.537H7.705a2.325,2.325,0,0,0-2.52-2.124,2.489,2.489,0,0,0-2.142.993A4.85,4.85,0,0,0,2.307-5.79v.872a4.545,4.545,0,0,0,.82,2.855A2.659,2.659,0,0,0,5.347-1a4.9,4.9,0,0,0,1.384-.175,2.141,2.141,0,0,0,.981-.592V-4.16H5.244V-5.31H9.111Zm1.772-2.637a4.681,4.681,0,0,1,.458-2.095,3.415,3.415,0,0,1,1.274-1.436,3.469,3.469,0,0,1,1.864-.505A3.342,3.342,0,0,1,17.1-6.951a4.311,4.311,0,0,1,1,2.981v.1A4.722,4.722,0,0,1,17.655-1.8,3.365,3.365,0,0,1,16.388-.366a3.509,3.509,0,0,1-1.893.513A3.334,3.334,0,0,1,11.884-.974a4.29,4.29,0,0,1-1-2.966Zm1.362.161a3.39,3.39,0,0,0,.612,2.117,1.957,1.957,0,0,0,1.637.8,1.945,1.945,0,0,0,1.641-.809,3.707,3.707,0,0,0,.608-2.267,3.384,3.384,0,0,0-.619-2.113,1.968,1.968,0,0,0-1.644-.809,1.946,1.946,0,0,0-1.619.8A3.68,3.68,0,0,0,12.246-3.875Zm8.833-4.05.044,1A2.888,2.888,0,0,1,23.5-8.071q2.512,0,2.534,2.834V0H24.675V-5.244a1.824,1.824,0,0,0-.392-1.267,1.57,1.57,0,0,0-1.2-.41,1.956,1.956,0,0,0-1.157.352,2.387,2.387,0,0,0-.776.923V0H19.8V-7.925Zm8.269,6.819h4.636V0H27.693V-1L32.065-6.8H27.759V-7.925h6.006v.959ZM40.4,0a2.846,2.846,0,0,1-.19-.835,3.023,3.023,0,0,1-2.256.981,2.8,2.8,0,0,1-1.923-.663A2.145,2.145,0,0,1,35.281-2.2a2.24,2.24,0,0,1,.941-1.923A4.437,4.437,0,0,1,38.87-4.8h1.318v-.623a1.522,1.522,0,0,0-.425-1.132,1.707,1.707,0,0,0-1.252-.421,1.976,1.976,0,0,0-1.216.366,1.079,1.079,0,0,0-.491.886H35.442a1.87,1.87,0,0,1,.421-1.146,2.874,2.874,0,0,1,1.143-.875,3.844,3.844,0,0,1,1.586-.322,3.133,3.133,0,0,1,2.146.685A2.47,2.47,0,0,1,41.543-5.5v3.647a4.459,4.459,0,0,0,.278,1.736V0ZM38.152-1.033a2.381,2.381,0,0,0,1.208-.33,1.994,1.994,0,0,0,.828-.857V-3.845H39.126q-2.49,0-2.49,1.458a1.234,1.234,0,0,0,.425,1A1.633,1.633,0,0,0,38.152-1.033ZM45.139,0H43.784V-11.25h1.355Zm1.809-4.036a4.681,4.681,0,0,1,.458-2.095A3.415,3.415,0,0,1,48.68-7.566a3.469,3.469,0,0,1,1.864-.505,3.342,3.342,0,0,1,2.618,1.121,4.311,4.311,0,0,1,1,2.981v.1A4.722,4.722,0,0,1,53.719-1.8,3.365,3.365,0,0,1,52.452-.366a3.509,3.509,0,0,1-1.893.513A3.334,3.334,0,0,1,47.948-.974a4.29,4.29,0,0,1-1-2.966Zm1.362.161a3.39,3.39,0,0,0,.612,2.117,1.957,1.957,0,0,0,1.637.8A1.945,1.945,0,0,0,52.2-1.769a3.707,3.707,0,0,0,.608-2.267,3.384,3.384,0,0,0-.619-2.113,1.968,1.968,0,0,0-1.644-.809,1.946,1.946,0,0,0-1.619.8A3.68,3.68,0,0,0,48.311-3.875Z" transform="translate(1162.638 6557.778)" fill="#0c1d30"/>
    <path id="Línea_337-7" data-name="Línea 337" d="M0,0V188.334" transform="translate(1143.56 6379.482)" fill="none" stroke="#d9d9d9" stroke-width="0.748" style="mix-blend-mode: multiply;isolation: isolate"/>
    <path id="Trazado_194685" data-name="Trazado 194685" d="M7.126-2.791H2.659L1.655,0H.205L4.277-10.664h1.23L9.587,0H8.145ZM3.083-3.94H6.709L4.893-8.928ZM14.641-6.709a4.061,4.061,0,0,0-.667-.051,1.786,1.786,0,0,0-1.809,1.135V0H10.811V-7.925h1.318l.022.916a2.11,2.11,0,0,1,1.89-1.062,1.384,1.384,0,0,1,.6.1Zm3.45-3.135v1.919H19.57v1.047H18.091v4.921a1.1,1.1,0,0,0,.2.715A.832.832,0,0,0,18.962-1a3.281,3.281,0,0,0,.645-.088V0a3.951,3.951,0,0,1-1.04.146A1.687,1.687,0,0,1,17.2-.4a2.36,2.36,0,0,1-.461-1.56V-6.877H15.293V-7.925h1.443V-9.844Zm7.954,9.06a2.878,2.878,0,0,1-2.322.93,2.464,2.464,0,0,1-1.93-.736,3.186,3.186,0,0,1-.67-2.179V-7.925h1.355v5.12q0,1.8,1.465,1.8a2.028,2.028,0,0,0,2.065-1.157V-7.925h1.355V0H26.074Zm7.207-5.925a4.061,4.061,0,0,0-.667-.051,1.786,1.786,0,0,0-1.809,1.135V0H29.421V-7.925H30.74l.022.916a2.11,2.11,0,0,1,1.89-1.062,1.384,1.384,0,0,1,.6.1Zm.74,2.673a4.681,4.681,0,0,1,.458-2.095,3.415,3.415,0,0,1,1.274-1.436,3.469,3.469,0,0,1,1.864-.505,3.342,3.342,0,0,1,2.618,1.121,4.311,4.311,0,0,1,1,2.981v.1A4.722,4.722,0,0,1,40.763-1.8,3.365,3.365,0,0,1,39.5-.366,3.509,3.509,0,0,1,37.6.146,3.334,3.334,0,0,1,34.991-.974a4.29,4.29,0,0,1-1-2.966Zm1.362.161a3.39,3.39,0,0,0,.612,2.117,1.957,1.957,0,0,0,1.637.8,1.945,1.945,0,0,0,1.641-.809,3.707,3.707,0,0,0,.608-2.267,3.384,3.384,0,0,0-.619-2.113,1.968,1.968,0,0,0-1.644-.809,1.946,1.946,0,0,0-1.619.8A3.68,3.68,0,0,0,35.354-3.875Z" transform="translate(1169.228 6432.949)" fill="#0c1d30"/>
    <path id="Trazado_194686" data-name="Trazado 194686" d="M5.706-10.664H7.119v7.551A3.128,3.128,0,0,1,6.2-.718,3.431,3.431,0,0,1,3.75.146,3.527,3.527,0,0,1,1.274-.667,2.936,2.936,0,0,1,.388-2.944H1.794a1.955,1.955,0,0,0,.5,1.428A1.944,1.944,0,0,0,3.75-1a1.886,1.886,0,0,0,1.41-.549,2.128,2.128,0,0,0,.546-1.538ZM8.943-4.036A4.681,4.681,0,0,1,9.4-6.13a3.415,3.415,0,0,1,1.274-1.436,3.469,3.469,0,0,1,1.864-.505,3.342,3.342,0,0,1,2.618,1.121,4.311,4.311,0,0,1,1,2.981v.1A4.722,4.722,0,0,1,15.714-1.8,3.365,3.365,0,0,1,14.447-.366a3.509,3.509,0,0,1-1.893.513A3.334,3.334,0,0,1,9.943-.974a4.29,4.29,0,0,1-1-2.966Zm1.362.161a3.39,3.39,0,0,0,.612,2.117,1.957,1.957,0,0,0,1.637.8,1.945,1.945,0,0,0,1.641-.809A3.707,3.707,0,0,0,14.8-4.036a3.384,3.384,0,0,0-.619-2.113,1.968,1.968,0,0,0-1.644-.809,1.946,1.946,0,0,0-1.619.8A3.68,3.68,0,0,0,10.305-3.875ZM22.471-2.1a1,1,0,0,0-.414-.853,3.983,3.983,0,0,0-1.443-.524,6.822,6.822,0,0,1-1.633-.527,2.324,2.324,0,0,1-.894-.732A1.752,1.752,0,0,1,17.8-5.75,2.056,2.056,0,0,1,18.622-7.4a3.218,3.218,0,0,1,2.106-.674,3.311,3.311,0,0,1,2.186.7,2.21,2.21,0,0,1,.839,1.78H22.39a1.223,1.223,0,0,0-.472-.959,1.77,1.77,0,0,0-1.19-.4,1.852,1.852,0,0,0-1.157.322,1.014,1.014,0,0,0-.417.842.822.822,0,0,0,.388.74,4.776,4.776,0,0,0,1.4.476,7.308,7.308,0,0,1,1.644.542,2.4,2.4,0,0,1,.934.758,1.864,1.864,0,0,1,.3,1.08,2.028,2.028,0,0,1-.85,1.7,3.564,3.564,0,0,1-2.2.641A3.991,3.991,0,0,1,19.087-.19a2.74,2.74,0,0,1-1.146-.941,2.268,2.268,0,0,1-.414-1.307h1.355a1.4,1.4,0,0,0,.546,1.08,2.117,2.117,0,0,0,1.344.4,2.185,2.185,0,0,0,1.234-.311A.956.956,0,0,0,22.471-2.1ZM30.483-.784a2.878,2.878,0,0,1-2.322.93,2.464,2.464,0,0,1-1.93-.736,3.186,3.186,0,0,1-.67-2.179V-7.925h1.355v5.12q0,1.8,1.465,1.8a2.028,2.028,0,0,0,2.065-1.157V-7.925H31.8V0H30.513Z" transform="translate(1173.828 6495.363)" fill="#0c1d30"/>
    <path id="Trazado_194687" data-name="Trazado 194687" d="M7.126-2.791H2.659L1.655,0H.205L4.277-10.664h1.23L9.587,0H8.145ZM3.083-3.94H6.709L4.893-8.928ZM12.283,0H10.928V-11.25h1.355ZM21.16-3.875a4.712,4.712,0,0,1-.835,2.919,2.668,2.668,0,0,1-2.241,1.1A2.763,2.763,0,0,1,15.762-.916L15.7,0H14.451V-11.25h1.355v4.2a2.747,2.747,0,0,1,2.263-1.018A2.684,2.684,0,0,1,20.336-6.98a4.853,4.853,0,0,1,.824,2.988ZM19.8-4.028a3.662,3.662,0,0,0-.535-2.139,1.77,1.77,0,0,0-1.538-.754,1.989,1.989,0,0,0-1.926,1.245v3.428A2.045,2.045,0,0,0,17.747-1a1.76,1.76,0,0,0,1.516-.754A3.894,3.894,0,0,0,19.8-4.028ZM27.759,0a2.846,2.846,0,0,1-.19-.835,3.023,3.023,0,0,1-2.256.981A2.8,2.8,0,0,1,23.39-.516,2.145,2.145,0,0,1,22.639-2.2,2.24,2.24,0,0,1,23.58-4.12,4.437,4.437,0,0,1,26.228-4.8h1.318v-.623a1.522,1.522,0,0,0-.425-1.132,1.707,1.707,0,0,0-1.252-.421,1.976,1.976,0,0,0-1.216.366,1.079,1.079,0,0,0-.491.886H22.8a1.87,1.87,0,0,1,.421-1.146,2.874,2.874,0,0,1,1.143-.875,3.844,3.844,0,0,1,1.586-.322,3.133,3.133,0,0,1,2.146.685A2.47,2.47,0,0,1,28.9-5.5v3.647A4.459,4.459,0,0,0,29.18-.117V0ZM25.51-1.033a2.381,2.381,0,0,0,1.208-.33,1.994,1.994,0,0,0,.828-.857V-3.845H26.484q-2.49,0-2.49,1.458a1.234,1.234,0,0,0,.425,1A1.633,1.633,0,0,0,25.51-1.033Z" transform="translate(1175.27 6526.571)" fill="#0c1d30"/>
    <path id="Línea_337-8" data-name="Línea 337" d="M0,0V188.334" transform="translate(1237.16 6379.482)" fill="none" stroke="#d9d9d9" stroke-width="0.748" style="mix-blend-mode: multiply;isolation: isolate"/>
    <path id="Trazado_194688" data-name="Trazado 194688" d="M7.126-2.791H2.659L1.655,0H.205L4.277-10.664h1.23L9.587,0H8.145ZM3.083-3.94H6.709L4.893-8.928Zm2.5-9.58H7.229L5.266-11.367l-1.091,0ZM12.283,0H10.928V-11.25h1.355Zm4.783-1.838,1.963-6.086h1.384L17.571,0H16.538L13.667-7.925h1.384ZM26.5,0a2.846,2.846,0,0,1-.19-.835,3.023,3.023,0,0,1-2.256.981A2.8,2.8,0,0,1,22.13-.516,2.145,2.145,0,0,1,21.379-2.2a2.24,2.24,0,0,1,.941-1.923A4.437,4.437,0,0,1,24.968-4.8h1.318v-.623a1.522,1.522,0,0,0-.425-1.132,1.707,1.707,0,0,0-1.252-.421,1.976,1.976,0,0,0-1.216.366,1.079,1.079,0,0,0-.491.886H21.541a1.87,1.87,0,0,1,.421-1.146A2.874,2.874,0,0,1,23.1-7.749a3.844,3.844,0,0,1,1.586-.322,3.133,3.133,0,0,1,2.146.685A2.47,2.47,0,0,1,27.642-5.5v3.647A4.459,4.459,0,0,0,27.92-.117V0ZM24.25-1.033a2.381,2.381,0,0,0,1.208-.33,1.994,1.994,0,0,0,.828-.857V-3.845H25.225q-2.49,0-2.49,1.458a1.234,1.234,0,0,0,.425,1A1.633,1.633,0,0,0,24.25-1.033ZM33.6-6.709a4.061,4.061,0,0,0-.667-.051,1.786,1.786,0,0,0-1.809,1.135V0H29.766V-7.925h1.318l.022.916A2.11,2.11,0,0,1,33-8.071a1.384,1.384,0,0,1,.6.1ZM37.991.146A3.463,3.463,0,0,1,35.369-.912a3.928,3.928,0,0,1-1.011-2.831v-.249a4.756,4.756,0,0,1,.45-2.106,3.514,3.514,0,0,1,1.26-1.45,3.167,3.167,0,0,1,1.754-.524,2.968,2.968,0,0,1,2.4,1.018,4.408,4.408,0,0,1,.857,2.915v.564H35.713A2.817,2.817,0,0,0,36.4-1.681a2.153,2.153,0,0,0,1.666.721,2.36,2.36,0,0,0,1.216-.293,3.055,3.055,0,0,0,.872-.776l.828.645A3.328,3.328,0,0,1,37.991.146Zm-.168-7.1a1.807,1.807,0,0,0-1.377.6,2.9,2.9,0,0,0-.688,1.674h3.97v-.1a2.581,2.581,0,0,0-.557-1.6A1.7,1.7,0,0,0,37.822-6.958Zm6.1,5.852H48.56V0H42.268V-1L46.641-6.8H42.334V-7.925H48.34v.959Z" transform="translate(1260.613 6464.156)" fill="#0c1d30"/>
    <path id="Trazado_194689" data-name="Trazado 194689" d="M2.644-4.175V0H1.238V-10.664H5.171a3.952,3.952,0,0,1,2.743.894A3.029,3.029,0,0,1,8.906-7.4a2.989,2.989,0,0,1-.97,2.391,4.128,4.128,0,0,1-2.78.839Zm0-1.15H5.171A2.526,2.526,0,0,0,6.9-5.857a1.945,1.945,0,0,0,.6-1.537A2.009,2.009,0,0,0,6.9-8.92a2.367,2.367,0,0,0-1.648-.594H2.644ZM13.682.146A3.463,3.463,0,0,1,11.06-.912a3.928,3.928,0,0,1-1.011-2.831v-.249A4.756,4.756,0,0,1,10.5-6.1a3.514,3.514,0,0,1,1.26-1.45,3.167,3.167,0,0,1,1.754-.524,2.968,2.968,0,0,1,2.4,1.018,4.408,4.408,0,0,1,.857,2.915v.564H11.4a2.817,2.817,0,0,0,.685,1.893,2.153,2.153,0,0,0,1.666.721,2.36,2.36,0,0,0,1.216-.293,3.055,3.055,0,0,0,.872-.776l.828.645A3.328,3.328,0,0,1,13.682.146Zm-.168-7.1a1.807,1.807,0,0,0-1.377.6,2.9,2.9,0,0,0-.688,1.674h3.97v-.1a2.581,2.581,0,0,0-.557-1.6A1.7,1.7,0,0,0,13.513-6.958Zm.659-4.292h1.641L13.85-9.1l-1.091,0Zm8,4.541A4.061,4.061,0,0,0,21.5-6.76a1.786,1.786,0,0,0-1.809,1.135V0H18.34V-7.925h1.318l.022.916a2.11,2.11,0,0,1,1.89-1.062,1.384,1.384,0,0,1,.6.1ZM26.565.146A3.463,3.463,0,0,1,23.943-.912a3.928,3.928,0,0,1-1.011-2.831v-.249a4.756,4.756,0,0,1,.45-2.106,3.514,3.514,0,0,1,1.26-1.45A3.167,3.167,0,0,1,26.4-8.071a2.968,2.968,0,0,1,2.4,1.018,4.408,4.408,0,0,1,.857,2.915v.564H24.287a2.817,2.817,0,0,0,.685,1.893,2.153,2.153,0,0,0,1.666.721,2.36,2.36,0,0,0,1.216-.293,3.055,3.055,0,0,0,.872-.776l.828.645A3.328,3.328,0,0,1,26.565.146Zm-.168-7.1a1.807,1.807,0,0,0-1.377.6,2.9,2.9,0,0,0-.688,1.674H28.3v-.1a2.581,2.581,0,0,0-.557-1.6A1.7,1.7,0,0,0,26.4-6.958Zm6.1,5.852h4.636V0H30.842V-1L35.215-6.8H30.908V-7.925h6.006v.959Z" transform="translate(1266.377 6557.839)" fill="#0c1d30"/>
    <path id="Trazado_194690" data-name="Trazado 194690" d="M9.082-3.384A3.923,3.923,0,0,1,7.833-.773,4.093,4.093,0,0,1,5.039.146,3.758,3.758,0,0,1,2.01-1.208,5.451,5.451,0,0,1,.872-4.834V-5.859A6.076,6.076,0,0,1,1.4-8.474a3.966,3.966,0,0,1,1.505-1.732,4.191,4.191,0,0,1,2.256-.6,3.853,3.853,0,0,1,2.725.948A3.971,3.971,0,0,1,9.082-7.236H7.668a3.064,3.064,0,0,0-.795-1.851,2.4,2.4,0,0,0-1.71-.573,2.516,2.516,0,0,0-2.113,1,4.577,4.577,0,0,0-.765,2.837v1.034A4.7,4.7,0,0,0,3.01-2.03,2.343,2.343,0,0,0,5.039-1a2.706,2.706,0,0,0,1.8-.531,2.947,2.947,0,0,0,.831-1.849Zm5.537-3.325a4.061,4.061,0,0,0-.667-.051,1.786,1.786,0,0,0-1.809,1.135V0H10.789V-7.925h1.318l.022.916a2.11,2.11,0,0,1,1.89-1.062,1.384,1.384,0,0,1,.6.1ZM19.014.146A3.463,3.463,0,0,1,16.392-.912a3.928,3.928,0,0,1-1.011-2.831v-.249a4.756,4.756,0,0,1,.45-2.106,3.514,3.514,0,0,1,1.26-1.45,3.167,3.167,0,0,1,1.754-.524,2.968,2.968,0,0,1,2.4,1.018A4.408,4.408,0,0,1,22.1-4.138v.564H16.736a2.817,2.817,0,0,0,.685,1.893,2.153,2.153,0,0,0,1.666.721A2.36,2.36,0,0,0,20.3-1.252a3.055,3.055,0,0,0,.872-.776L22-1.384A3.328,3.328,0,0,1,19.014.146Zm-.168-7.1a1.807,1.807,0,0,0-1.377.6,2.9,2.9,0,0,0-.688,1.674h3.97v-.1a2.581,2.581,0,0,0-.557-1.6A1.7,1.7,0,0,0,18.845-6.958ZM28.286-2.1a1,1,0,0,0-.414-.853,3.983,3.983,0,0,0-1.443-.524A6.822,6.822,0,0,1,24.8-4.006a2.324,2.324,0,0,1-.894-.732,1.752,1.752,0,0,1-.289-1.011A2.056,2.056,0,0,1,24.437-7.4a3.218,3.218,0,0,1,2.106-.674,3.311,3.311,0,0,1,2.186.7,2.21,2.21,0,0,1,.839,1.78H28.206a1.223,1.223,0,0,0-.472-.959,1.77,1.77,0,0,0-1.19-.4,1.852,1.852,0,0,0-1.157.322,1.014,1.014,0,0,0-.417.842.822.822,0,0,0,.388.74,4.776,4.776,0,0,0,1.4.476,7.308,7.308,0,0,1,1.644.542,2.4,2.4,0,0,1,.934.758,1.864,1.864,0,0,1,.3,1.08,2.028,2.028,0,0,1-.85,1.7,3.564,3.564,0,0,1-2.2.641A3.991,3.991,0,0,1,24.9-.19a2.74,2.74,0,0,1-1.146-.941,2.268,2.268,0,0,1-.414-1.307H24.7a1.4,1.4,0,0,0,.546,1.08,2.117,2.117,0,0,0,1.344.4,2.185,2.185,0,0,0,1.234-.311A.956.956,0,0,0,28.286-2.1ZM38.1-3.875a4.745,4.745,0,0,1-.828,2.915A2.653,2.653,0,0,1,35.032.146a2.906,2.906,0,0,1-2.271-.916V3.047H31.406V-7.925h1.238l.066.879a2.791,2.791,0,0,1,2.3-1.025,2.7,2.7,0,0,1,2.26,1.077A4.8,4.8,0,0,1,38.1-4Zm-1.355-.154a3.5,3.5,0,0,0-.571-2.117,1.84,1.84,0,0,0-1.567-.776A1.992,1.992,0,0,0,32.761-5.83v3.787a2,2,0,0,0,1.86,1.084,1.832,1.832,0,0,0,1.549-.773A3.822,3.822,0,0,0,36.746-4.028Zm2.717-.007a4.681,4.681,0,0,1,.458-2.095A3.415,3.415,0,0,1,41.2-7.566a3.469,3.469,0,0,1,1.864-.505,3.342,3.342,0,0,1,2.618,1.121,4.311,4.311,0,0,1,1,2.981v.1A4.722,4.722,0,0,1,46.234-1.8,3.365,3.365,0,0,1,44.967-.366a3.509,3.509,0,0,1-1.893.513A3.334,3.334,0,0,1,40.463-.974a4.29,4.29,0,0,1-1-2.966Zm1.362.161a3.39,3.39,0,0,0,.612,2.117,1.957,1.957,0,0,0,1.637.8,1.945,1.945,0,0,0,1.641-.809,3.707,3.707,0,0,0,.608-2.267A3.384,3.384,0,0,0,44.7-6.149a1.968,1.968,0,0,0-1.644-.809,1.946,1.946,0,0,0-1.619.8A3.68,3.68,0,0,0,40.825-3.875Z" transform="translate(1261.481 6433.01)" fill="#0c1d30"/>
    <path id="Trazado_194691" data-name="Trazado 194691" d="M2.651-1.15H7.705V0H1.238V-10.664H2.651ZM8.738-4.036A4.681,4.681,0,0,1,9.2-6.13,3.415,3.415,0,0,1,10.47-7.566a3.469,3.469,0,0,1,1.864-.505,3.342,3.342,0,0,1,2.618,1.121,4.311,4.311,0,0,1,1,2.981v.1A4.722,4.722,0,0,1,15.509-1.8,3.365,3.365,0,0,1,14.242-.366a3.509,3.509,0,0,1-1.893.513A3.334,3.334,0,0,1,9.738-.974a4.29,4.29,0,0,1-1-2.966Zm1.362.161a3.39,3.39,0,0,0,.612,2.117,1.957,1.957,0,0,0,1.637.8,1.945,1.945,0,0,0,1.641-.809A3.707,3.707,0,0,0,14.6-4.036a3.384,3.384,0,0,0-.619-2.113,1.968,1.968,0,0,0-1.644-.809,1.946,1.946,0,0,0-1.619.8A3.68,3.68,0,0,0,10.1-3.875Zm14.246,0a4.745,4.745,0,0,1-.828,2.915A2.653,2.653,0,0,1,21.277.146a2.906,2.906,0,0,1-2.271-.916V3.047H17.651V-7.925h1.238l.066.879a2.791,2.791,0,0,1,2.3-1.025,2.7,2.7,0,0,1,2.26,1.077,4.8,4.8,0,0,1,.831,3Zm-1.355-.154a3.5,3.5,0,0,0-.571-2.117,1.84,1.84,0,0,0-1.567-.776A1.992,1.992,0,0,0,19.006-5.83v3.787a2,2,0,0,0,1.86,1.084,1.832,1.832,0,0,0,1.549-.773A3.822,3.822,0,0,0,22.991-4.028ZM29.355.146A3.463,3.463,0,0,1,26.733-.912a3.928,3.928,0,0,1-1.011-2.831v-.249a4.756,4.756,0,0,1,.45-2.106,3.514,3.514,0,0,1,1.26-1.45,3.167,3.167,0,0,1,1.754-.524,2.968,2.968,0,0,1,2.4,1.018,4.408,4.408,0,0,1,.857,2.915v.564H27.078a2.817,2.817,0,0,0,.685,1.893,2.153,2.153,0,0,0,1.666.721,2.36,2.36,0,0,0,1.216-.293,3.055,3.055,0,0,0,.872-.776l.828.645A3.328,3.328,0,0,1,29.355.146Zm-.168-7.1a1.807,1.807,0,0,0-1.377.6,2.9,2.9,0,0,0-.688,1.674h3.97v-.1a2.581,2.581,0,0,0-.557-1.6A1.7,1.7,0,0,0,29.187-6.958Zm6.665-2.886v1.919h1.479v1.047H35.852v4.921a1.1,1.1,0,0,0,.2.715A.832.832,0,0,0,36.724-1a3.281,3.281,0,0,0,.645-.088V0a3.951,3.951,0,0,1-1.04.146A1.687,1.687,0,0,1,34.958-.4a2.36,2.36,0,0,1-.461-1.56V-6.877H33.054V-7.925H34.5V-9.844ZM42.2.146A3.463,3.463,0,0,1,39.58-.912a3.928,3.928,0,0,1-1.011-2.831v-.249A4.756,4.756,0,0,1,39.02-6.1a3.514,3.514,0,0,1,1.26-1.45,3.167,3.167,0,0,1,1.754-.524,2.968,2.968,0,0,1,2.4,1.018,4.408,4.408,0,0,1,.857,2.915v.564H39.924a2.817,2.817,0,0,0,.685,1.893,2.153,2.153,0,0,0,1.666.721,2.36,2.36,0,0,0,1.216-.293,3.055,3.055,0,0,0,.872-.776l.828.645A3.328,3.328,0,0,1,42.2.146Zm-.168-7.1a1.807,1.807,0,0,0-1.377.6,2.9,2.9,0,0,0-.688,1.674h3.97v-.1a2.581,2.581,0,0,0-.557-1.6A1.7,1.7,0,0,0,42.034-6.958Zm4.5,2.93A4.658,4.658,0,0,1,47.4-6.976a2.741,2.741,0,0,1,2.271-1.095,2.726,2.726,0,0,1,2.263,1.025l.066-.879h1.238V-.19a3.224,3.224,0,0,1-.912,2.424,3.365,3.365,0,0,1-2.45.886,4.076,4.076,0,0,1-1.677-.366,2.887,2.887,0,0,1-1.252-1l.7-.813a2.65,2.65,0,0,0,2.131,1.077,2.076,2.076,0,0,0,1.542-.557A2.128,2.128,0,0,0,51.87-.11V-.791a2.785,2.785,0,0,1-2.219.938A2.707,2.707,0,0,1,47.4-.974,4.9,4.9,0,0,1,46.538-4.028Zm1.362.154a3.553,3.553,0,0,0,.549,2.106A1.785,1.785,0,0,0,49.988-1,1.985,1.985,0,0,0,51.87-2.168V-5.786A2.008,2.008,0,0,0,50-6.921a1.8,1.8,0,0,0-1.545.769A3.87,3.87,0,0,0,47.9-3.875ZM56.748,0H55.393V-7.925h1.355ZM55.283-10.027a.809.809,0,0,1,.2-.557.756.756,0,0,1,.6-.227.768.768,0,0,1,.6.227.8.8,0,0,1,.205.557.774.774,0,0,1-.205.549.782.782,0,0,1-.6.22.77.77,0,0,1-.6-.22A.782.782,0,0,1,55.283-10.027Z" transform="translate(1256.191 6495.425)" fill="#0c1d30"/>
    <path id="Trazado_194692" data-name="Trazado 194692" d="M2.644-4.175V0H1.238V-10.664H5.171a3.952,3.952,0,0,1,2.743.894A3.029,3.029,0,0,1,8.906-7.4a2.989,2.989,0,0,1-.97,2.391,4.128,4.128,0,0,1-2.78.839Zm0-1.15H5.171A2.526,2.526,0,0,0,6.9-5.857a1.945,1.945,0,0,0,.6-1.537A2.009,2.009,0,0,0,6.9-8.92a2.367,2.367,0,0,0-1.648-.594H2.644ZM13.682.146A3.463,3.463,0,0,1,11.06-.912a3.928,3.928,0,0,1-1.011-2.831v-.249A4.756,4.756,0,0,1,10.5-6.1a3.514,3.514,0,0,1,1.26-1.45,3.167,3.167,0,0,1,1.754-.524,2.968,2.968,0,0,1,2.4,1.018,4.408,4.408,0,0,1,.857,2.915v.564H11.4a2.817,2.817,0,0,0,.685,1.893,2.153,2.153,0,0,0,1.666.721,2.36,2.36,0,0,0,1.216-.293,3.055,3.055,0,0,0,.872-.776l.828.645A3.328,3.328,0,0,1,13.682.146Zm-.168-7.1a1.807,1.807,0,0,0-1.377.6,2.9,2.9,0,0,0-.688,1.674h3.97v-.1a2.581,2.581,0,0,0-.557-1.6A1.7,1.7,0,0,0,13.513-6.958Zm8.657.249A4.061,4.061,0,0,0,21.5-6.76a1.786,1.786,0,0,0-1.809,1.135V0H18.34V-7.925h1.318l.022.916a2.11,2.11,0,0,1,1.89-1.062,1.384,1.384,0,0,1,.6.1ZM26.565.146A3.463,3.463,0,0,1,23.943-.912a3.928,3.928,0,0,1-1.011-2.831v-.249a4.756,4.756,0,0,1,.45-2.106,3.514,3.514,0,0,1,1.26-1.45A3.167,3.167,0,0,1,26.4-8.071a2.968,2.968,0,0,1,2.4,1.018,4.408,4.408,0,0,1,.857,2.915v.564H24.287a2.817,2.817,0,0,0,.685,1.893,2.153,2.153,0,0,0,1.666.721,2.36,2.36,0,0,0,1.216-.293,3.055,3.055,0,0,0,.872-.776l.828.645A3.328,3.328,0,0,1,26.565.146Zm-.168-7.1a1.807,1.807,0,0,0-1.377.6,2.9,2.9,0,0,0-.688,1.674H28.3v-.1a2.581,2.581,0,0,0-.557-1.6A1.7,1.7,0,0,0,26.4-6.958ZM32.7,0H31.34V-7.925H32.7ZM31.23-10.027a.809.809,0,0,1,.2-.557.756.756,0,0,1,.6-.227.768.768,0,0,1,.6.227.8.8,0,0,1,.205.557.774.774,0,0,1-.205.549.782.782,0,0,1-.6.22.77.77,0,0,1-.6-.22A.782.782,0,0,1,31.23-10.027Zm7.463,3.318a4.061,4.061,0,0,0-.667-.051,1.786,1.786,0,0,0-1.809,1.135V0H34.863V-7.925h1.318l.022.916a2.11,2.11,0,0,1,1.89-1.062,1.384,1.384,0,0,1,.6.1ZM44.539,0a2.846,2.846,0,0,1-.19-.835,3.023,3.023,0,0,1-2.256.981A2.8,2.8,0,0,1,40.17-.516,2.145,2.145,0,0,1,39.419-2.2,2.24,2.24,0,0,1,40.36-4.12,4.437,4.437,0,0,1,43.008-4.8h1.318v-.623A1.522,1.522,0,0,0,43.9-6.559a1.707,1.707,0,0,0-1.252-.421,1.976,1.976,0,0,0-1.216.366,1.079,1.079,0,0,0-.491.886H39.58A1.87,1.87,0,0,1,40-6.874a2.874,2.874,0,0,1,1.143-.875,3.844,3.844,0,0,1,1.586-.322,3.133,3.133,0,0,1,2.146.685A2.47,2.47,0,0,1,45.681-5.5v3.647a4.459,4.459,0,0,0,.278,1.736V0ZM42.29-1.033a2.381,2.381,0,0,0,1.208-.33,1.994,1.994,0,0,0,.828-.857V-3.845H43.264q-2.49,0-2.49,1.458a1.234,1.234,0,0,0,.425,1A1.633,1.633,0,0,0,42.29-1.033Z" transform="translate(1261.724 6526.632)" fill="#0c1d30"/>
    <path id="Línea_338-4" data-name="Línea 338" d="M283.19,0H0" transform="translate(1046.375 6379.482)" fill="none" stroke="#d9d9d9" stroke-width="0.748" style="mix-blend-mode: multiply;isolation: isolate"/>
    <path id="Trazado_194693" data-name="Trazado 194693" d="M6.079-4.687a3.315,3.315,0,0,1-1.014.813,2.752,2.752,0,0,1-1.293.308,2.841,2.841,0,0,1-1.608-.454A2.952,2.952,0,0,1,1.106-5.3a4.357,4.357,0,0,1-.374-1.82,4.439,4.439,0,0,1,.406-1.926,2.986,2.986,0,0,1,1.154-1.311,3.289,3.289,0,0,1,1.743-.454A2.978,2.978,0,0,1,6.53-9.628,5.159,5.159,0,0,1,7.441-6.4v.4a6.894,6.894,0,0,1-1.23,4.545A4.727,4.727,0,0,1,2.5.007H2.234v-1.15H2.52A3.73,3.73,0,0,0,5.1-2.016,3.748,3.748,0,0,0,6.079-4.687Zm-2.087,0A2.092,2.092,0,0,0,5.248-5.1a2.461,2.461,0,0,0,.839-1.033V-6.68a3.729,3.729,0,0,0-.579-2.168,1.727,1.727,0,0,0-1.465-.835A1.74,1.74,0,0,0,2.607-9a2.825,2.825,0,0,0-.542,1.805,2.94,2.94,0,0,0,.524,1.8A1.658,1.658,0,0,0,3.992-4.687ZM16.194-9.9,11.777,0H10.356l4.4-9.551H8.987v-1.113h7.207Z" transform="translate(1086.483 6432.949)" fill="#0c1d30"/>
    <path id="Trazado_194694" data-name="Trazado 194694" d="M5.339,0H3.977V-9.031l-2.732,1v-1.23l3.882-1.458h.212Zm8.423,0H12.4V-9.031l-2.732,1v-1.23l3.882-1.458h.212ZM19.7-5.991H20.72A2.238,2.238,0,0,0,22.229-6.5a1.688,1.688,0,0,0,.549-1.326A1.654,1.654,0,0,0,20.911-9.7a1.943,1.943,0,0,0-1.4.5,1.756,1.756,0,0,0-.524,1.329H17.629a2.72,2.72,0,0,1,.927-2.106,3.375,3.375,0,0,1,2.355-.839,3.335,3.335,0,0,1,2.366.8,2.884,2.884,0,0,1,.857,2.219,2.341,2.341,0,0,1-.45,1.348,2.72,2.72,0,0,1-1.227.974,2.621,2.621,0,0,1,1.359.923,2.563,2.563,0,0,1,.48,1.575A2.909,2.909,0,0,1,23.357-.7a3.511,3.511,0,0,1-2.439.842,3.6,3.6,0,0,1-2.443-.813,2.7,2.7,0,0,1-.941-2.146H18.9a1.743,1.743,0,0,0,.549,1.348,2.089,2.089,0,0,0,1.472.505,2.05,2.05,0,0,0,1.5-.513,1.976,1.976,0,0,0,.52-1.472,1.793,1.793,0,0,0-.571-1.428,2.489,2.489,0,0,0-1.648-.513H19.7Z" transform="translate(1082.199 6464.156)" fill="#0c1d30"/>
    <path id="Trazado_194695" data-name="Trazado 194695" d="M5.339,0H3.977V-9.031l-2.732,1v-1.23l3.882-1.458h.212ZM16.3,0H9.309V-.974L13-5.076a8.77,8.77,0,0,0,1.132-1.512,2.524,2.524,0,0,0,.311-1.2,1.913,1.913,0,0,0-.505-1.37A1.767,1.767,0,0,0,12.59-9.7a2.093,2.093,0,0,0-1.571.575,2.2,2.2,0,0,0-.56,1.6H9.1a3.145,3.145,0,0,1,.948-2.38,3.516,3.516,0,0,1,2.538-.908,3.379,3.379,0,0,1,2.351.78,2.661,2.661,0,0,1,.864,2.076q0,1.575-2.007,3.75l-2.856,3.1H16.3Zm5.889,0H20.823V-9.031l-2.732,1v-1.23l3.882-1.458h.212Z" transform="translate(1082.199 6495.363)" fill="#0c1d30"/>
    <path id="Trazado_194696" data-name="Trazado 194696" d="M5.339,0H3.977V-9.031l-2.732,1v-1.23l3.882-1.458h.212ZM16.3,0H9.309V-.974L13-5.076a8.77,8.77,0,0,0,1.132-1.512,2.524,2.524,0,0,0,.311-1.2,1.913,1.913,0,0,0-.505-1.37A1.767,1.767,0,0,0,12.59-9.7a2.093,2.093,0,0,0-1.571.575,2.2,2.2,0,0,0-.56,1.6H9.1a3.145,3.145,0,0,1,.948-2.38,3.516,3.516,0,0,1,2.538-.908,3.379,3.379,0,0,1,2.351.78,2.661,2.661,0,0,1,.864,2.076q0,1.575-2.007,3.75l-2.856,3.1H16.3ZM19.7-5.991H20.72A2.238,2.238,0,0,0,22.229-6.5a1.688,1.688,0,0,0,.549-1.326A1.654,1.654,0,0,0,20.911-9.7a1.943,1.943,0,0,0-1.4.5,1.756,1.756,0,0,0-.524,1.329H17.629a2.72,2.72,0,0,1,.927-2.106,3.375,3.375,0,0,1,2.355-.839,3.335,3.335,0,0,1,2.366.8,2.884,2.884,0,0,1,.857,2.219,2.341,2.341,0,0,1-.45,1.348,2.72,2.72,0,0,1-1.227.974,2.621,2.621,0,0,1,1.359.923,2.563,2.563,0,0,1,.48,1.575A2.909,2.909,0,0,1,23.357-.7a3.511,3.511,0,0,1-2.439.842,3.6,3.6,0,0,1-2.443-.813,2.7,2.7,0,0,1-.941-2.146H18.9a1.743,1.743,0,0,0,.549,1.348,2.089,2.089,0,0,0,1.472.505,2.05,2.05,0,0,0,1.5-.513,1.976,1.976,0,0,0,.52-1.472,1.793,1.793,0,0,0-.571-1.428,2.489,2.489,0,0,0-1.648-.513H19.7Z" transform="translate(1082.199 6526.571)" fill="#0c1d30"/>
    <path id="Trazado_194697" data-name="Trazado 194697" d="M5.339,0H3.977V-9.031l-2.732,1v-1.23l3.882-1.458h.212ZM16.3,0H9.309V-.974L13-5.076a8.77,8.77,0,0,0,1.132-1.512,2.524,2.524,0,0,0,.311-1.2,1.913,1.913,0,0,0-.505-1.37A1.767,1.767,0,0,0,12.59-9.7a2.093,2.093,0,0,0-1.571.575,2.2,2.2,0,0,0-.56,1.6H9.1a3.145,3.145,0,0,1,.948-2.38,3.516,3.516,0,0,1,2.538-.908,3.379,3.379,0,0,1,2.351.78,2.661,2.661,0,0,1,.864,2.076q0,1.575-2.007,3.75l-2.856,3.1H16.3Zm6.628-4.687a3.315,3.315,0,0,1-1.014.813,2.752,2.752,0,0,1-1.293.308,2.841,2.841,0,0,1-1.608-.454A2.952,2.952,0,0,1,17.952-5.3a4.357,4.357,0,0,1-.374-1.82,4.439,4.439,0,0,1,.406-1.926,2.986,2.986,0,0,1,1.154-1.311,3.289,3.289,0,0,1,1.743-.454,2.978,2.978,0,0,1,2.494,1.183A5.159,5.159,0,0,1,24.287-6.4v.4a6.894,6.894,0,0,1-1.23,4.545A4.727,4.727,0,0,1,19.343.007H19.08v-1.15h.286a3.73,3.73,0,0,0,2.578-.873A3.748,3.748,0,0,0,22.925-4.687Zm-2.087,0A2.092,2.092,0,0,0,22.094-5.1a2.461,2.461,0,0,0,.839-1.033V-6.68a3.729,3.729,0,0,0-.579-2.168,1.727,1.727,0,0,0-1.465-.835A1.74,1.74,0,0,0,19.453-9a2.825,2.825,0,0,0-.542,1.805,2.94,2.94,0,0,0,.524,1.8A1.658,1.658,0,0,0,20.837-4.687Z" transform="translate(1082.199 6557.778)" fill="#0c1d30"/>
    <path id="Trazado_194698" data-name="Trazado 194698" d="M0,0H38.517" transform="translate(998.938 6554.708)" fill="none" stroke="#0c1d30" stroke-width="2"/>
    <path id="Trazado_193967" data-name="Trazado 193967" d="M888.1,2358.466l10.339-2.771-10.339-2.771Z" transform="translate(147.465 4199.014)" fill="#0c1d30"/>
    <path id="Trazado_194699" data-name="Trazado 194699" d="M0,62.163,42.219,0" transform="translate(998.938 6458.213)" fill="none" stroke="#0c1d30" stroke-width="2"/>
    <path id="Trazado_193968" data-name="Trazado 193968" d="M895.031,2257.428l3.517-10.109-8.1,7Z" transform="translate(147.356 4203.905)" fill="#0c1d30"/>
    <path id="Trazado_194700" data-name="Trazado 194700" d="M0,56.5,42.652,0" transform="translate(998.938 6431.848)" fill="none" stroke="#0c1d30" stroke-width="2"/>
    <path id="Trazado_193969" data-name="Trazado 193969" d="M895.328,2229.851l4.018-9.921-8.44,6.582Z" transform="translate(147.335 4205.174)" fill="#0c1d30"/>
    <path id="Trazado_194701" data-name="Trazado 194701" d="M0,0,41.349,35.727" transform="translate(998.938 6456.725)" fill="none" stroke="#0c1d30" stroke-width="2"/>
    <path id="Trazado_193970" data-name="Trazado 193970" d="M889.653,2291.248l9.634,4.663-6.012-8.856Z" transform="translate(147.393 4202.064)" fill="#0c1d30"/>
    <path id="Trazado_194702" data-name="Trazado 194702" d="M0,0,42.456,52.94" transform="translate(998.938 6425.104)" fill="none" stroke="#0c1d30" stroke-width="2"/>
    <path id="Trazado_193971" data-name="Trazado 193971" d="M890.707,2275.545l8.63,6.332-4.307-9.8Z" transform="translate(147.344 4202.759)" fill="#0c1d30"/>
  </g>
</svg>
