<svg xmlns="http://www.w3.org/2000/svg" xmlns:xlink="http://www.w3.org/1999/xlink" width="505" height="400" viewBox="0 0 505 400">
  <defs>
    <clipPath id="clip-path">
      <path id="Trazado_189273" data-name="Trazado 189273" d="M7501.788,10999.317c-24.69,5.235-50.924-5.447-65.606-23.968-5.973-7.535-30.426-33.835-32.556-43.878-7.366-34.734,41.162-58.776,75.9-66.141s73.559,16.412,80.925,51.145c3.286,15.5-10.759,47.051-17.728,59.983C7534.068,10992.513,7521.024,10995.238,7501.788,10999.317Z" transform="translate(-7402.876 -10863.989)" fill="none"/>
    </clipPath>
    <linearGradient id="linear-gradient" x1="-47.366" y1="-0.339" x2="-48.414" y2="0.95" gradientUnits="objectBoundingBox">
      <stop offset="0" stop-color="#febbba"/>
      <stop offset="1" stop-color="#ff928e"/>
    </linearGradient>
    <linearGradient id="linear-gradient-2" x1="11.582" y1="-3.638" x2="10.962" y2="-2.99" gradientUnits="objectBoundingBox">
      <stop offset="0" stop-color="#09005d"/>
      <stop offset="1" stop-color="#1a0f91"/>
    </linearGradient>
    <linearGradient id="linear-gradient-3" x1="0.847" y1="0.14" x2="0.107" y2="1.142" gradientUnits="objectBoundingBox">
      <stop offset="0" stop-color="#4f52ff"/>
      <stop offset="1" stop-color="#4042e2"/>
    </linearGradient>
    <linearGradient id="linear-gradient-4" x1="39.749" y1="-8.587" x2="39.939" y2="-9.509" xlink:href="#linear-gradient"/>
    <linearGradient id="linear-gradient-5" x1="28.586" y1="-7.889" x2="29.871" y2="-6.75" xlink:href="#linear-gradient"/>
    <linearGradient id="linear-gradient-6" x1="33.496" y1="-11.805" x2="31.651" y2="-9.848" xlink:href="#linear-gradient-2"/>
    <linearGradient id="linear-gradient-7" x1="74.898" y1="-30.512" x2="78.326" y2="-26.419" xlink:href="#linear-gradient"/>
    <linearGradient id="linear-gradient-8" x1="-76.965" y1="1.047" x2="-73.83" y2="-1.146" xlink:href="#linear-gradient"/>
    <clipPath id="clip-path-2">
      <path id="Trazado_189287" data-name="Trazado 189287" d="M7243.069,11035.462c-25.525,5.413-52.643-5.631-67.823-24.778-6.174-7.788-25.288-33.562-27.49-43.946-7.615-35.906,36.378-62.151,72.286-69.767s76.052,16.946,83.667,52.854c3.4,16.021-2.592,49.213-9.8,62.583C7284.969,11029,7262.955,11031.245,7243.069,11035.462Z" transform="translate(-7146.888 -10895.583)" fill="none"/>
    </clipPath>
    <linearGradient id="linear-gradient-9" x1="-154.298" y1="0.5" x2="-152.573" y2="0.5" gradientUnits="objectBoundingBox">
      <stop offset="0" stop-color="#a22b25"/>
      <stop offset="1" stop-color="#c0423c"/>
    </linearGradient>
    <linearGradient id="linear-gradient-10" x1="2.28" y1="-1.017" x2="1.535" y2="-0.346" xlink:href="#linear-gradient-3"/>
    <linearGradient id="linear-gradient-11" x1="0.204" y1="0.873" x2="1.655" y2="-1.427" xlink:href="#linear-gradient-3"/>
    <linearGradient id="linear-gradient-12" x1="67.447" y1="0.372" x2="67.423" y2="-0.738" xlink:href="#linear-gradient-9"/>
    <linearGradient id="linear-gradient-13" x1="201.956" y1="-78.327" x2="202.698" y2="-77.204" xlink:href="#linear-gradient-9"/>
    <linearGradient id="linear-gradient-14" x1="273.937" y1="15.984" x2="274.818" y2="16.814" xlink:href="#linear-gradient-2"/>
    <linearGradient id="linear-gradient-15" x1="794.588" y1="-311.632" x2="797.51" y2="-307.186" xlink:href="#linear-gradient-9"/>
    <linearGradient id="linear-gradient-16" x1="0.222" y1="0.802" x2="2.798" y2="-1.961" xlink:href="#linear-gradient-3"/>
    <linearGradient id="linear-gradient-17" x1="32.285" y1="-0.394" x2="32.72" y2="1.885" xlink:href="#linear-gradient-9"/>
    <linearGradient id="linear-gradient-18" x1="67.006" y1="-3.765" x2="67.983" y2="2.657" xlink:href="#linear-gradient-9"/>
    <linearGradient id="linear-gradient-19" x1="-297.152" y1="0.5" x2="-296.152" y2="0.5" xlink:href="#linear-gradient-9"/>
    <clipPath id="clip-path-3">
      <path id="Trazado_189299" data-name="Trazado 189299" d="M7333.733,10747.863c23.669,4.613,121.8,4.891,136.1-13.148,5.818-7.338-40.978-26.393-38.9-36.174,7.176-33.83-13.976-60.514-47.807-67.689s-68.917,7.307-76.091,41.137c-3.2,15.1-6.788,42.881,0,55.477C7315.459,10743.1,7314.934,10744.2,7333.733,10747.863Z" transform="translate(-7303.174 -10629.058)" fill="none"/>
    </clipPath>
    <linearGradient id="linear-gradient-20" x1="64.694" y1="22.234" x2="65.693" y2="22.234" xlink:href="#linear-gradient"/>
    <linearGradient id="linear-gradient-21" x1="-162.768" y1="0.5" x2="-161.768" y2="0.5" xlink:href="#linear-gradient"/>
    <linearGradient id="linear-gradient-22" x1="-80.658" y1="0.5" x2="-79.658" y2="0.5" xlink:href="#linear-gradient"/>
    <linearGradient id="linear-gradient-23" x1="420.285" y1="0.175" x2="418.968" y2="1.493" xlink:href="#linear-gradient"/>
    <linearGradient id="linear-gradient-24" x1="-104.106" y1="-0.149" x2="-104.571" y2="1.601" xlink:href="#linear-gradient-2"/>
    <linearGradient id="linear-gradient-25" x1="1410.046" y1="2.7" x2="1413.496" y2="0.456" xlink:href="#linear-gradient"/>
  </defs>
  <g id="_16" data-name="16" transform="translate(-180 -8365)">
    <rect id="Rectángulo_294778" data-name="Rectángulo 294778" width="505" height="400" transform="translate(180 8365)" fill="none"/>
    <g id="Grupo_128694" data-name="Grupo 128694" transform="translate(4.966 -589.186)">
      <g id="Grupo_128693" data-name="Grupo 128693" transform="translate(241.034 8968.186)">
        <path id="Trazado_189255" data-name="Trazado 189255" d="M7434.374,10916.49a142.682,142.682,0,0,1-25.062,20.344c-64.909,43.34-139.106,30.85-162.046,26.578-37.011-6.887-68.253-11.748-95.095-36-61-55.107-58.028-170.062-11.422-241.273,5.526-8.443,52.063-77.424,126.421-87.145,1.819-.236,3.176-.373,4.364-.5,11.5-1.219,82.785-7.646,140.908,41.049a173.408,173.408,0,0,1,34.125,38.719C7491.969,10748.381,7492.111,10856.977,7434.374,10916.49Z" transform="translate(-7105.447 -10597.483)" fill="#ebf1f8"/>
        <g id="Grupo_128665" data-name="Grupo 128665" transform="translate(256.761 7.664)">
          <rect id="Rectángulo_41218" data-name="Rectángulo 41218" width="29.889" height="3.6" transform="matrix(0.402, -0.916, 0.916, 0.402, 56.029, 186.919)" fill="#fcce57"/>
          <g id="Grupo_128663" data-name="Grupo 128663" transform="translate(41.751 92.463)">
            <path id="Trazado_189256" data-name="Trazado 189256" d="M7546.075,10787.059l.749,4.384a3.488,3.488,0,0,0,2.874,2.857l3.482.571a2.918,2.918,0,0,1,2.152,1.629,31.174,31.174,0,0,0,3.79,6.016,2.925,2.925,0,0,1,.538,2.648l-.991,3.392a3.492,3.492,0,0,0,1.332,3.828l3.628,2.57a3.493,3.493,0,0,0,4.054-.013l2.87-2.06a2.923,2.923,0,0,1,2.677-.37,31.165,31.165,0,0,0,6.933,1.579,2.922,2.922,0,0,1,2.249,1.492l1.7,3.1a3.492,3.492,0,0,0,3.649,1.764l4.383-.747a3.493,3.493,0,0,0,2.857-2.875l.573-3.483a2.918,2.918,0,0,1,1.627-2.151,31.235,31.235,0,0,0,6.016-3.789,2.922,2.922,0,0,1,2.649-.539l3.391.991a3.491,3.491,0,0,0,3.828-1.333l2.57-3.627a3.49,3.49,0,0,0-.013-4.053l-2.059-2.871a2.925,2.925,0,0,1-.371-2.678,31.146,31.146,0,0,0,1.58-6.932,2.919,2.919,0,0,1,1.491-2.249l3.1-1.7a3.493,3.493,0,0,0,1.765-3.649l-.748-4.382a3.494,3.494,0,0,0-2.875-2.859l-3.482-.571a2.924,2.924,0,0,1-2.152-1.629,31.153,31.153,0,0,0-3.789-6.016,2.925,2.925,0,0,1-.539-2.648l.991-3.392a3.487,3.487,0,0,0-1.332-3.827l-3.628-2.57a3.49,3.49,0,0,0-4.053.012l-2.871,2.06a2.921,2.921,0,0,1-2.678.37,31.144,31.144,0,0,0-6.932-1.579,2.918,2.918,0,0,1-2.249-1.492l-1.7-3.1a3.492,3.492,0,0,0-3.649-1.764l-4.383.747a3.493,3.493,0,0,0-2.857,2.874l-.572,3.483a2.925,2.925,0,0,1-1.628,2.153,31.17,31.17,0,0,0-6.016,3.789,2.923,2.923,0,0,1-2.648.538l-3.392-.99a3.489,3.489,0,0,0-3.828,1.332l-2.57,3.628a3.49,3.49,0,0,0,.013,4.054l2.06,2.87a2.925,2.925,0,0,1,.37,2.677,31.162,31.162,0,0,0-1.58,6.931,2.925,2.925,0,0,1-1.491,2.252l-3.1,1.7A3.488,3.488,0,0,0,7546.075,10787.059Zm11.719-2.389a25.874,25.874,0,1,1,27.573,24.054A25.873,25.873,0,0,1,7557.794,10784.67Z" transform="translate(-7546.025 -10745.328)" fill="#fcce57"/>
          </g>
          <rect id="Rectángulo_41219" data-name="Rectángulo 41219" width="3.6" height="48.853" transform="translate(55.036 52.315) rotate(-12.506)" fill="#fcce57"/>
          <rect id="Rectángulo_41220" data-name="Rectángulo 41220" width="35.204" height="3.6" transform="matrix(0.994, -0.11, 0.11, 0.994, 0, 38.713)" fill="#fcce57"/>
          <g id="Grupo_128664" data-name="Grupo 128664" transform="translate(29.9)">
            <path id="Trazado_189257" data-name="Trazado 189257" d="M7528.56,10639.614l.552,3.24a2.579,2.579,0,0,0,2.125,2.11l2.574.424a2.16,2.16,0,0,1,1.592,1.2,22.966,22.966,0,0,0,2.8,4.445,2.157,2.157,0,0,1,.4,1.959l-.732,2.506a2.578,2.578,0,0,0,.985,2.828l2.681,1.9a2.58,2.58,0,0,0,3-.008l2.122-1.522a2.16,2.16,0,0,1,1.979-.273,23.045,23.045,0,0,0,5.123,1.168,2.158,2.158,0,0,1,1.664,1.1l1.253,2.288a2.578,2.578,0,0,0,2.7,1.3l3.24-.553a2.58,2.58,0,0,0,2.111-2.124l.424-2.574a2.157,2.157,0,0,1,1.2-1.592,23.031,23.031,0,0,0,4.446-2.8,2.161,2.161,0,0,1,1.957-.4l2.507.732a2.583,2.583,0,0,0,2.83-.985l1.9-2.681a2.583,2.583,0,0,0-.009-3l-1.522-2.122a2.158,2.158,0,0,1-.274-1.979,23.068,23.068,0,0,0,1.168-5.125,2.157,2.157,0,0,1,1.1-1.661l2.289-1.252a2.584,2.584,0,0,0,1.3-2.7l-.553-3.24a2.58,2.58,0,0,0-2.125-2.111l-2.575-.425a2.154,2.154,0,0,1-1.591-1.2,23.083,23.083,0,0,0-2.8-4.447,2.157,2.157,0,0,1-.4-1.957l.732-2.507a2.58,2.58,0,0,0-.985-2.828l-2.682-1.9a2.581,2.581,0,0,0-3,.009l-2.123,1.522a2.158,2.158,0,0,1-1.979.272,23.092,23.092,0,0,0-5.123-1.167,2.158,2.158,0,0,1-1.663-1.1l-1.253-2.29a2.581,2.581,0,0,0-2.7-1.3l-3.24.553a2.58,2.58,0,0,0-2.112,2.124l-.424,2.575a2.153,2.153,0,0,1-1.2,1.59,23.186,23.186,0,0,0-4.446,2.8,2.159,2.159,0,0,1-1.957.4l-2.506-.732a2.579,2.579,0,0,0-2.83.985l-1.9,2.681a2.578,2.578,0,0,0,.009,3l1.522,2.121a2.161,2.161,0,0,1,.273,1.98,23.051,23.051,0,0,0-1.167,5.122,2.159,2.159,0,0,1-1.1,1.663l-2.288,1.253A2.581,2.581,0,0,0,7528.56,10639.614Zm8.661-1.766a19.123,19.123,0,1,1,20.379,17.777A19.123,19.123,0,0,1,7537.221,10637.849Z" transform="translate(-7528.523 -10608.771)" fill="#fcce57"/>
          </g>
        </g>
        <g id="Grupo_128668" data-name="Grupo 128668" transform="translate(13.852)">
          <rect id="Rectángulo_41221" data-name="Rectángulo 41221" width="3.6" height="45.527" transform="matrix(0.288, -0.958, 0.958, 0.288, 81.593, 56.179)" fill="#fcce57"/>
          <g id="Grupo_128667" data-name="Grupo 128667">
            <g id="Grupo_128666" data-name="Grupo 128666">
              <path id="Trazado_189258" data-name="Trazado 189258" d="M7127.312,10627.147l-1.522,5.224a4.271,4.271,0,0,0,1.634,4.682l3.527,2.5a3.572,3.572,0,0,1,1.5,2.943,38.161,38.161,0,0,0,.95,8.647,3.577,3.577,0,0,1-.824,3.2l-2.906,3.2a4.27,4.27,0,0,0-.582,4.926l2.616,4.77a4.271,4.271,0,0,0,4.467,2.155l4.262-.729a3.577,3.577,0,0,1,3.144,1.024,38.021,38.021,0,0,0,6.782,5.448,3.572,3.572,0,0,1,1.677,2.846l.209,4.313a4.27,4.27,0,0,0,3.071,3.894l5.224,1.523a4.273,4.273,0,0,0,4.683-1.635l2.494-3.525a3.57,3.57,0,0,1,2.943-1.5,38.205,38.205,0,0,0,8.648-.95,3.567,3.567,0,0,1,3.2.825l3.2,2.9a4.27,4.27,0,0,0,4.925.582l4.771-2.616a4.272,4.272,0,0,0,2.156-4.467l-.73-4.261a3.578,3.578,0,0,1,1.025-3.146,38.109,38.109,0,0,0,5.448-6.781,3.57,3.57,0,0,1,2.844-1.678l4.315-.209a4.273,4.273,0,0,0,3.894-3.07l1.523-5.225a4.273,4.273,0,0,0-1.634-4.683l-3.526-2.5a3.569,3.569,0,0,1-1.5-2.941,38.212,38.212,0,0,0-.95-8.649,3.574,3.574,0,0,1,.824-3.2l2.906-3.2a4.271,4.271,0,0,0,.582-4.924l-2.617-4.771a4.271,4.271,0,0,0-4.466-2.156l-4.262.73a3.573,3.573,0,0,1-3.143-1.024,38.163,38.163,0,0,0-6.783-5.449,3.57,3.57,0,0,1-1.677-2.845l-.209-4.313a4.271,4.271,0,0,0-3.071-3.895l-5.223-1.523a4.272,4.272,0,0,0-4.683,1.635l-2.494,3.526a3.577,3.577,0,0,1-2.944,1.5,38.086,38.086,0,0,0-8.647.95,3.578,3.578,0,0,1-3.2-.825l-3.2-2.905a4.272,4.272,0,0,0-4.926-.583l-4.77,2.616a4.276,4.276,0,0,0-2.156,4.468l.73,4.262a3.576,3.576,0,0,1-1.025,3.144,38.175,38.175,0,0,0-5.449,6.782,3.571,3.571,0,0,1-2.844,1.678l-4.315.21A4.271,4.271,0,0,0,7127.312,10627.147Zm14.175,3.642a31.661,31.661,0,1,1,17.469,41.229A31.662,31.662,0,0,1,7141.486,10630.789Z" transform="translate(-7125.619 -10597.451)" fill="#fcce57"/>
            </g>
          </g>
        </g>
        <g id="Grupo_128669" data-name="Grupo 128669" transform="translate(58.427 53.79)">
          <path id="Trazado_189259" data-name="Trazado 189259" d="M7191.522,10679.58a2.166,2.166,0,0,1,3.507-2.164c16.248,13.795,55.715,55.563,50.243,132.285-6.865,96.26,14.813,130.173,40.688,150.226,0,0-34.572-8.309-57.781-42.66C7171.2,10832.926,7200.761,10715.736,7191.522,10679.58Z" transform="translate(-7191.451 -10676.894)" fill="#fcce57"/>
          <path id="Trazado_189260" data-name="Trazado 189260" d="M7211.2,10723.795c2.475,10.553,4.741,21.15,6.615,31.814q2.9,15.976,4.807,32.1c1.229,10.746,2.255,21.514,2.824,32.309.618,10.789.77,21.6.885,32.445.175,10.842.292,21.766,1.525,32.711a109.975,109.975,0,0,0,8.238,32.041c1.117,2.533,2.285,5.055,3.59,7.484,1.26,2.453,2.63,4.852,4.042,7.225a114.012,114.012,0,0,0,33.857,35.908,2.1,2.1,0,0,0,2.433-3.412l-.007,0c-2.157-1.582-4.294-3.186-6.351-4.883-1.043-.83-2.047-1.705-3.066-2.561-.985-.895-2.007-1.75-2.963-2.674a110.272,110.272,0,0,1-10.845-11.67,121.034,121.034,0,0,1-16.456-27.242,105.358,105.358,0,0,1-5.152-15.037,119.8,119.8,0,0,1-2.908-15.693c-1.28-10.621-1.483-21.432-1.737-32.273s-.611-21.736-1.4-32.6q-.573-8.15-1.436-16.271c-.272-2.707-.6-5.41-.916-8.113q-.518-4.046-1.088-8.088-2.324-16.16-5.64-32.139c-2.264-10.635-4.81-21.207-7.758-31.66a.562.562,0,0,0-1.089.281Z" transform="translate(-7197.823 -10691.813)" fill="#fff" style="mix-blend-mode: soft-light;isolation: isolate"/>
        </g>
        <g id="Grupo_128671" data-name="Grupo 128671" transform="translate(0 99.888)">
          <g id="Grupo_128670" data-name="Grupo 128670">
            <path id="Trazado_189261" data-name="Trazado 189261" d="M7197.993,10982.031a5.445,5.445,0,0,1-8.475,3.146c-17.352-12.416-63.24-51.967-67.751-125.492-3.809-62.088-11.775-95.395-16.438-110.262a3.415,3.415,0,0,1,5.275-3.777C7139.959,10767.094,7230.143,10845.635,7197.993,10982.031Z" transform="translate(-7105.162 -10744.974)" fill="#fcce57"/>
            <path id="Trazado_189262" data-name="Trazado 189262" d="M7207.085,11014.131a1.384,1.384,0,0,1-.241.166,1.508,1.508,0,0,1-2.054-.582c-.46-.826-46.167-83.532-55.364-169.625a1.51,1.51,0,1,1,3-.32c9.129,85.465,54.54,167.652,55,168.474A1.508,1.508,0,0,1,7207.085,11014.131Z" transform="translate(-7119.452 -10776.438)" fill="#fff" style="mix-blend-mode: soft-light;isolation: isolate"/>
          </g>
        </g>
        <path id="Trazado_189263" data-name="Trazado 189263" d="M7232.618,10917.453l127.3-229.584,74,202.131Zm126.128-214.473-114.521,206.531,181.093-24.7Z" transform="translate(-7146.316 -10626.648)" fill="#084a92"/>
        <g id="Grupo_128677" data-name="Grupo 128677" transform="translate(201.585 172.482)">
          <circle id="Elipse_4858" data-name="Elipse 4858" cx="67.21" cy="67.21" r="67.21" transform="translate(21.162 18.224)" fill="#fff"/>
          <g id="Grupo_128673" data-name="Grupo 128673" transform="translate(0.1)">
            <g id="Grupo_128672" data-name="Grupo 128672">
              <path id="Trazado_189264" data-name="Trazado 189264" d="M7403.674,10927.661l-.634,10.091a7.941,7.941,0,0,0,4.87,7.827l7.411,3.088a6.639,6.639,0,0,1,3.914,4.728,70.857,70.857,0,0,0,5.245,15.295,6.645,6.645,0,0,1-.192,6.144l-3.966,6.989a7.94,7.94,0,0,0,.951,9.169l6.687,7.584a7.942,7.942,0,0,0,8.978,2.091l7.431-3.06a6.645,6.645,0,0,1,6.119.579,71.011,71.011,0,0,0,14.518,7.118,6.634,6.634,0,0,1,4.2,4.475l2.136,7.739a7.938,7.938,0,0,0,7.155,5.811l10.092.635a7.942,7.942,0,0,0,7.827-4.871l3.088-7.41a6.637,6.637,0,0,1,4.727-3.914,70.79,70.79,0,0,0,15.295-5.246,6.647,6.647,0,0,1,6.143.193l6.989,3.965a7.937,7.937,0,0,0,9.169-.95l7.584-6.687a7.94,7.94,0,0,0,2.091-8.978l-3.06-7.431a6.646,6.646,0,0,1,.579-6.12,70.852,70.852,0,0,0,7.117-14.518,6.639,6.639,0,0,1,4.476-4.2l7.739-2.137a7.938,7.938,0,0,0,5.811-7.154l.634-10.093a7.941,7.941,0,0,0-4.869-7.827l-7.411-3.088a6.64,6.64,0,0,1-3.916-4.728,70.855,70.855,0,0,0-5.244-15.294,6.641,6.641,0,0,1,.192-6.144l3.965-6.989a7.94,7.94,0,0,0-.951-9.169l-6.687-7.585a7.941,7.941,0,0,0-8.978-2.09l-7.432,3.059a6.644,6.644,0,0,1-6.119-.577,70.781,70.781,0,0,0-14.518-7.118,6.642,6.642,0,0,1-4.2-4.476l-2.136-7.74a7.94,7.94,0,0,0-7.156-5.811l-10.092-.635a7.942,7.942,0,0,0-7.826,4.872l-3.087,7.409a6.642,6.642,0,0,1-4.729,3.915,70.9,70.9,0,0,0-15.294,5.245,6.642,6.642,0,0,1-6.144-.193l-6.989-3.964a7.94,7.94,0,0,0-9.168.949l-7.586,6.688a7.94,7.94,0,0,0-2.09,8.978l3.06,7.432a6.645,6.645,0,0,1-.579,6.119,70.918,70.918,0,0,0-7.117,14.517,6.642,6.642,0,0,1-4.476,4.2l-7.739,2.136A7.939,7.939,0,0,0,7403.674,10927.661Zm27.186.831a58.846,58.846,0,1,1,48.47,67.649A58.847,58.847,0,0,1,7430.859,10928.492Z" transform="translate(-7403.024 -10852.186)" fill="#084a92"/>
            </g>
          </g>
          <g id="Grupo_128676" data-name="Grupo 128676" transform="translate(0 7.992)">
            <g id="Grupo_128675" data-name="Grupo 128675" clip-path="url(#clip-path)">
              <g id="Grupo_128674" data-name="Grupo 128674" transform="translate(16.148 7.588)">
                <path id="Trazado_189265" data-name="Trazado 189265" d="M7427.6,10932.834a.961.961,0,0,1,1.786-.035c1.243,2.973,3.988,8.084,8.572,9.447.231.068.45.139.664.211a2.225,2.225,0,0,0-.524-1.963c-1.61-1.895.475-5.02.475-5.02a6.331,6.331,0,0,0,2.557,3.789,6.089,6.089,0,0,1,2.149,6.637c-1.2,9.428-3.205,21.949,11.618,29.049s30.933-20.8,30.933-20.8l-5.765,31.592s-13.422,12.779-32.562-.41-10.541-36.963-10.541-36.963S7423.172,10944.717,7427.6,10932.834Z" transform="translate(-7426.726 -10893.605)" fill="url(#linear-gradient)"/>
                <path id="Trazado_189266" data-name="Trazado 189266" d="M7508.166,10890.786s-6.214-17.323,14.794-15.172c0,0,9.706-2.865,11.386,6.424,0,0,6.917,3.406,3.257,12.09,0,0,18.062-9.72,28.425,5.88s3.911,25.711-3.759,29.1a8,8,0,0,1,4.729,10.137c-2.137,7.7-16.967,14.813-27.23,7.059,0,0-25.585,6.709-27.375-11.734,0,0-13.084-6.293-2.283-23.079S7508.166,10890.786,7508.166,10890.786Z" transform="translate(-7452.27 -10875.197)" fill="url(#linear-gradient-2)"/>
                <path id="Trazado_189267" data-name="Trazado 189267" d="M7509.582,10958.348c3.948-1.744,15.606-5.517,28.286,3.539a7.09,7.09,0,0,1,2.908,6.755c-1.64,11.619-5.518,45.823,3.348,59.3,0,0-10.717,15.278-25.679,5.932,0,0-9.425-25.774-18.867-36.424-6.518-7.352,4.984-31.31,7.925-37.118A4.268,4.268,0,0,1,7509.582,10958.348Z" transform="translate(-7449.612 -10901.308)" fill="url(#linear-gradient-3)"/>
                <path id="Trazado_189268" data-name="Trazado 189268" d="M7524.147,10924.369s8.225,16.4,9.634,23.91a13.08,13.08,0,0,1-13.288-.459s-2.817-17.059-4.161-20.006Z" transform="translate(-7455.659 -10891.073)" fill="url(#linear-gradient-4)"/>
                <path id="Trazado_189269" data-name="Trazado 189269" d="M7507.874,10891.014s-13.077,24.2-2.78,29.459,19.608-11.943,19.608-11.943,2.154-12.618-2.214-16.257S7507.874,10891.014,7507.874,10891.014Z" transform="translate(-7450.753 -10880.057)" fill="url(#linear-gradient-5)"/>
                <path id="Trazado_189270" data-name="Trazado 189270" d="M7517.273,10881.793s-7.072,2.644-7.68,6.07,11.137,5.058,14.339,4.807l4.238,12.989s6.007-13.476,2.095-20.329S7517.273,10881.793,7517.273,10881.793Z" transform="translate(-7453.476 -10877.065)" fill="url(#linear-gradient-6)"/>
                <path id="Trazado_189271" data-name="Trazado 189271" d="M7531.092,10913.077s5.277-7.931,8.32-3.575-4.534,8.862-7.6,6.922Z" transform="translate(-7460.425 -10885.852)" fill="url(#linear-gradient-7)"/>
                <path id="Trazado_189272" data-name="Trazado 189272" d="M7555.613,10967.247s21.407,13.67,28.984,35.075-25.26,27.911-25.26,27.911-5.129-4.458-10.244-2-1.516-8.714,4.736-9.472,3.978,4.546,12.313-.567c8.119-4.983,11.925-17.713-12.341-33.234a10.03,10.03,0,0,1-3.4-3.586C7544.784,10971.173,7547.284,10963.706,7555.613,10967.247Z" transform="translate(-7465.451 -10904.631)" fill="url(#linear-gradient-8)"/>
              </g>
            </g>
          </g>
        </g>
        <g id="Grupo_128684" data-name="Grupo 128684" transform="translate(22.285 193.584)">
          <circle id="Elipse_4859" data-name="Elipse 4859" cx="71.967" cy="71.967" r="71.967" transform="translate(27.663 21.075)" fill="#fff"/>
          <g id="Grupo_128678" data-name="Grupo 128678">
            <path id="Trazado_189274" data-name="Trazado 189274" d="M7138.745,10961.375l-.655,10.434a8.208,8.208,0,0,0,5.035,8.091l7.661,3.192a6.861,6.861,0,0,1,4.047,4.888,73.29,73.29,0,0,0,5.421,15.811,6.868,6.868,0,0,1-.2,6.351l-4.1,7.226a8.208,8.208,0,0,0,.983,9.479l6.913,7.84a8.209,8.209,0,0,0,9.282,2.162l7.682-3.163a6.87,6.87,0,0,1,6.326.6,73.31,73.31,0,0,0,15.008,7.358,6.864,6.864,0,0,1,4.343,4.627l2.208,8a8.21,8.21,0,0,0,7.4,6.009l10.432.655a8.208,8.208,0,0,0,8.091-5.035l3.192-7.66a6.862,6.862,0,0,1,4.887-4.047,73.344,73.344,0,0,0,15.811-5.422,6.869,6.869,0,0,1,6.352.2l7.226,4.1a8.208,8.208,0,0,0,9.478-.983l7.841-6.914a8.208,8.208,0,0,0,2.162-9.281l-3.163-7.682a6.867,6.867,0,0,1,.6-6.325,73.242,73.242,0,0,0,7.358-15.009,6.865,6.865,0,0,1,4.626-4.342l8-2.208a8.207,8.207,0,0,0,6.007-7.4l.656-10.435a8.208,8.208,0,0,0-5.034-8.091l-7.662-3.191a6.861,6.861,0,0,1-4.046-4.888,73.352,73.352,0,0,0-5.421-15.812,6.867,6.867,0,0,1,.2-6.351l4.1-7.225a8.206,8.206,0,0,0-.982-9.479l-6.914-7.841a8.2,8.2,0,0,0-9.28-2.161l-7.683,3.164a6.871,6.871,0,0,1-6.325-.6,73.238,73.238,0,0,0-15.008-7.358,6.864,6.864,0,0,1-4.343-4.627l-2.208-8a8.209,8.209,0,0,0-7.4-6.009l-10.434-.655a8.208,8.208,0,0,0-8.09,5.034l-3.192,7.662a6.864,6.864,0,0,1-4.888,4.047,73.316,73.316,0,0,0-15.811,5.421,6.871,6.871,0,0,1-6.351-.2l-7.225-4.1a8.206,8.206,0,0,0-9.479.982l-7.841,6.913a8.207,8.207,0,0,0-2.161,9.28l3.163,7.683a6.869,6.869,0,0,1-.6,6.326,73.31,73.31,0,0,0-7.358,15.008,6.86,6.86,0,0,1-4.626,4.342l-8,2.209A8.208,8.208,0,0,0,7138.745,10961.375Zm28.105.86a60.833,60.833,0,1,1,50.106,69.934A60.832,60.832,0,0,1,7166.851,10962.235Z" transform="translate(-7138.074 -10883.352)" fill="#084a92"/>
          </g>
          <g id="Grupo_128683" data-name="Grupo 128683" transform="translate(5.968 8.281)">
            <g id="Grupo_128682" data-name="Grupo 128682" clip-path="url(#clip-path-2)">
              <g id="Grupo_128681" data-name="Grupo 128681" transform="translate(39.233 10.442)">
                <path id="Trazado_189275" data-name="Trazado 189275" d="M7323.019,11061.575c3.542,2.853,7.794,3.942,12.771,1.366l2.258,5.122s-2.268,11.324-13.63,12.349a13.625,13.625,0,0,1-3.342-.125C7315.807,11072.073,7319.716,11065.273,7323.019,11061.575Z" transform="translate(-7241.531 -10959.623)" fill="url(#linear-gradient-9)"/>
                <path id="Trazado_189276" data-name="Trazado 189276" d="M7297.546,11057.081l5.425-32.318c.213.338,4.605,17.935,13.282,24.926-3.3,3.7-7.211,10.5-1.943,18.713C7305.123,11066.976,7297.546,11057.081,7297.546,11057.081Z" transform="translate(-7234.767 -10947.735)" fill="url(#linear-gradient-10)"/>
                <path id="Trazado_189277" data-name="Trazado 189277" d="M7233.986,10998.687a109.667,109.667,0,0,1,45.78-2.971c2.694.387,9.659,14.911,8.623,25-1.757,17.092-11.084,45.78-11.418,45.869-10.756,2.855-46.193.445-46.193.445Z" transform="translate(-7213.208 -10937.996)" fill="url(#linear-gradient-11)"/>
                <path id="Trazado_189278" data-name="Trazado 189278" d="M7264.608,10965.293l1.114,17.316a3.757,3.757,0,0,0,2.608,3.408c3.367,1,9.725,2.2,15.957-.312a2.479,2.479,0,0,0,1.343-3.043l-8.244-26.477Z" transform="translate(-7224.132 -10925.594)" fill="url(#linear-gradient-12)"/>
                <g id="Grupo_128679" data-name="Grupo 128679" transform="translate(26.045)">
                  <path id="Trazado_189279" data-name="Trazado 189279" d="M7273.618,10930.339s9.288,9.369,11.916,15.159,5.395,9.136-.986,12.985-13.468,2.68-18.881-2c0,0-8.422-7.184-8.769-11.33S7273.618,10930.339,7273.618,10930.339Z" transform="translate(-7247.685 -10917.248)" fill="url(#linear-gradient-13)"/>
                  <path id="Trazado_189280" data-name="Trazado 189280" d="M7261.968,10945.091l.865-.336s-6.4-5.928-3.771-8.428,14.057-9.849,15.024-15.291c.933-5.245-3.5-9.833-7.536-10.03a.494.494,0,0,0-.5.443l-.075.651a.5.5,0,0,1-.892.244.5.5,0,0,0-.884.2c-.308,1.634-1.695,4.637-7.219,8.045-7.838,4.838-12.094,10.423-9.964,16.311a.5.5,0,0,1-.571.66c-.771-.137-1.838.072-2.736,1.711-1.561,2.85,1.352,7.538,8.049,9.726a.494.494,0,0,1,.268.752c-.688.959-1.508,2.92,2.79,3.438,4.4.533,6.468-.516,7.2-1.041a.5.5,0,0,0,.165-.616l-2.328-5.047a.5.5,0,0,1,.272-.674Z" transform="translate(-7243.294 -10911.005)" fill="url(#linear-gradient-14)"/>
                  <path id="Trazado_189281" data-name="Trazado 189281" d="M7268.178,10960.854s-4.67-6.477-7.116-3.2,4.811,7.42,7.512,6.682Z" transform="translate(-7248.872 -10925.768)" fill="url(#linear-gradient-15)"/>
                </g>
                <g id="Grupo_128680" data-name="Grupo 128680" transform="translate(0 60.688)">
                  <path id="Trazado_189282" data-name="Trazado 189282" d="M7225.76,11050.421c-1.082-7.637,6.825-18.861,10.1-23.12a7.073,7.073,0,0,0,1.472-4.244c.1-10.814-4.445-17.759-11.72-22.423,0,0-26.406,30.763-19.683,54.426a19.887,19.887,0,0,0,3.275,6.633C7210.261,11052.777,7220.566,11050.832,7225.76,11050.421Z" transform="translate(-7204.83 -11000.634)" fill="url(#linear-gradient-16)"/>
                  <path id="Trazado_189283" data-name="Trazado 189283" d="M7235.987,11060.036l-1.006-.113c.854-7.489,7.424-16.731,10.209-20.36l.8.617C7243.26,11043.741,7236.813,11052.8,7235.987,11060.036Z" transform="translate(-7214.565 -11013.204)" fill="#fcce57"/>
                  <path id="Trazado_189284" data-name="Trazado 189284" d="M7228.051,11075.22a8.806,8.806,0,0,1-.208-1.058c-5.194.411-15.5,2.357-16.559,11.272,11.784,15.586,44.264,9.964,44.264,9.964v-6.063S7230.6,11084.7,7228.051,11075.22Z" transform="translate(-7206.914 -11024.375)" fill="url(#linear-gradient-17)"/>
                </g>
                <path id="Trazado_189285" data-name="Trazado 189285" d="M7272.047,11101.462s1.766-12.111,13.247-7.3c8.629,3.615,7.786,6.642,7.786,6.642Z" transform="translate(-7226.534 -10969.779)" fill="url(#linear-gradient-18)"/>
                <path id="Trazado_189286" data-name="Trazado 189286" d="M7347.932,11050.068s-4.891-3.008-8.123-.729c-3.078,2.169,1.943,15.255,3.75,16.533S7351.546,11057,7347.932,11050.068Z" transform="translate(-7248.098 -10955.396)" fill="url(#linear-gradient-19)"/>
              </g>
            </g>
          </g>
        </g>
        <g id="Grupo_128692" data-name="Grupo 128692" transform="translate(114.756 1.934)">
          <circle id="Elipse_4860" data-name="Elipse 4860" cx="67.21" cy="67.21" r="67.21" transform="translate(16.453 16.754)" fill="#fff"/>
          <g id="Grupo_128686" data-name="Grupo 128686">
            <g id="Grupo_128685" data-name="Grupo 128685">
              <path id="Trazado_189288" data-name="Trazado 189288" d="M7435.675,10666.854l-7.538-2.082a6.467,6.467,0,0,1-4.36-4.09,68.976,68.976,0,0,0-6.932-14.141,6.472,6.472,0,0,1-.564-5.961l2.98-7.238a7.734,7.734,0,0,0-2.037-8.744l-7.387-6.514a7.737,7.737,0,0,0-8.931-.926l-6.808,3.863a6.468,6.468,0,0,1-5.984.186,69.114,69.114,0,0,0-14.9-5.107,6.462,6.462,0,0,1-4.6-3.812l-3.008-7.219a7.736,7.736,0,0,0-7.623-4.744l-9.83.617a7.736,7.736,0,0,0-6.969,5.66l-2.08,7.539a6.462,6.462,0,0,1-4.092,4.357,69.245,69.245,0,0,0-14.141,6.934,6.465,6.465,0,0,1-5.959.564l-7.238-2.979a7.731,7.731,0,0,0-8.745,2.035l-6.513,7.387a7.732,7.732,0,0,0-.926,8.93l3.863,6.809a6.473,6.473,0,0,1,.187,5.984,69.011,69.011,0,0,0-5.108,14.9,6.461,6.461,0,0,1-3.813,4.6l-7.218,3.01a7.732,7.732,0,0,0-4.743,7.623l.618,9.83a7.732,7.732,0,0,0,5.66,6.969l7.537,2.08a6.462,6.462,0,0,1,4.36,4.092,69.193,69.193,0,0,0,6.933,14.143,6.463,6.463,0,0,1,.563,5.957l-2.98,7.238a7.731,7.731,0,0,0,2.037,8.744l7.387,6.514a7.73,7.73,0,0,0,8.931.926l6.808-3.863a6.478,6.478,0,0,1,5.983-.186,69.009,69.009,0,0,0,14.9,5.107,6.474,6.474,0,0,1,4.6,3.814l3.008,7.217a7.734,7.734,0,0,0,7.623,4.744l9.83-.617a7.732,7.732,0,0,0,6.969-5.66l2.081-7.537a6.465,6.465,0,0,1,4.091-4.359,69.136,69.136,0,0,0,14.141-6.934,6.47,6.47,0,0,1,5.959-.564l7.238,2.98a7.732,7.732,0,0,0,8.744-2.035l6.515-7.389a7.732,7.732,0,0,0,.925-8.93l-3.863-6.807a6.474,6.474,0,0,1-.187-5.984,69.026,69.026,0,0,0,5.108-14.9,6.465,6.465,0,0,1,3.814-4.6l7.218-3.008a7.732,7.732,0,0,0,4.743-7.623l-.617-9.83A7.732,7.732,0,0,0,7435.675,10666.854Zm-68.029,73.668a57.316,57.316,0,1,1,47.209-65.891A57.313,57.313,0,0,1,7367.646,10740.521Z" transform="translate(-7274.642 -10600.31)" fill="#fcce57"/>
            </g>
          </g>
          <g id="Grupo_128691" data-name="Grupo 128691" transform="translate(19.319 19.466)">
            <g id="Grupo_128690" data-name="Grupo 128690" clip-path="url(#clip-path-3)">
              <g id="Grupo_128689" data-name="Grupo 128689" transform="translate(7.019 -0.497)">
                <path id="Trazado_189289" data-name="Trazado 189289" d="M7403.935,10707.664s24.772,44.795,60.263,48.035l1.892,5.338s-48.906,9.551-73.958-30.738Z" transform="translate(-7338.916 -10653.942)" fill="#084a92"/>
                <path id="Trazado_189290" data-name="Trazado 189290" d="M7497.345,10779.983a3.432,3.432,0,0,1,2.944-4.972c.122,0,.248,0,.378,0,4.176.155,8.41-.489,9.974-1.559a1.123,1.123,0,0,1,1.587.278c.432.7.089,1.884-3.868,3.609,0,0,8.757,3.413,15.81.061,6.875-3.268-3.056,14.03-23.969,5.729a4.566,4.566,0,0,1-2.4-2.238Z" transform="translate(-7372.773 -10675.119)" fill="url(#linear-gradient-20)"/>
                <path id="Trazado_189291" data-name="Trazado 189291" d="M7377.5,10778.031s22.964-62.913,4.885-77.2c0,0-27.1-4.373-46.8,3.1l2.248,57.692S7352.293,10787.038,7377.5,10778.031Z" transform="translate(-7320.659 -10651.326)" fill="#084a92"/>
                <path id="Trazado_189292" data-name="Trazado 189292" d="M7385.039,10674.421s-3.52,8.551-4.417,15.271a4.519,4.519,0,0,1-3.753,3.854c-4.207.7-11.18,1.087-15.423-2.785a3.167,3.167,0,0,1-.833-3.406c1.748-4.893,10.833-25.263,15.783-28.385Z" transform="translate(-7328.679 -10638.22)" fill="url(#linear-gradient-21)"/>
                <g id="Grupo_128687" data-name="Grupo 128687" transform="translate(0 52.603)">
                  <path id="Trazado_189293" data-name="Trazado 189293" d="M7337.628,10774.637c0,.038,0,.077,0,.111-.074,10.641,14.314,11.657,14.314,11.657s4.114-6.84,9.395-7.063,12.607,8.378,12.607,8.378l-11.717,1.876s-22.344,13.4-37.657-2.52C7327.275,10777.161,7333.728,10775,7337.628,10774.637Z" transform="translate(-7317.1 -10728.169)" fill="url(#linear-gradient-22)"/>
                  <path id="Trazado_189294" data-name="Trazado 189294" d="M7328.468,10706.013c14.517,5.147,12.416,16.549,12.416,16.549s-6.7,19.256-6.817,29.918c-3.9.358-10.353,2.525-13.061,12.44-.363-.378-.724-.768-1.079-1.179C7301.625,10742.533,7328.468,10706.013,7328.468,10706.013Z" transform="translate(-7313.54 -10706.013)" fill="#084a92"/>
                  <path id="Trazado_189295" data-name="Trazado 189295" d="M7343.587,10761.8a.563.563,0,0,0,.563-.557c.093-8.3,4.227-21.91,6-27.378a.564.564,0,0,0-1.074-.348c-1.79,5.517-5.96,19.261-6.055,27.712a.565.565,0,0,0,.559.57Z" transform="translate(-7323.06 -10714.768)" fill="#084a92"/>
                </g>
                <g id="Grupo_128688" data-name="Grupo 128688" transform="translate(40.713)">
                  <path id="Trazado_189296" data-name="Trazado 189296" d="M7408.528,10647.34c0,.425-9.507,26.911-9.507,26.911l-15.008-5.749,5.28-26.443S7408.528,10640.213,7408.528,10647.34Z" transform="translate(-7377.008 -10632.688)" fill="url(#linear-gradient-23)"/>
                  <path id="Trazado_189297" data-name="Trazado 189297" d="M7388.838,10644.134l-3.87,13.7a1.9,1.9,0,0,0-.076.534c0,1.117.275,4.964,4.192,4.44,3.554-.476,6.8-.854,8.873.119a1.987,1.987,0,0,1,1.025,2.471,86.029,86.029,0,0,1-5.405,12.2,1.984,1.984,0,0,1-2.552.816,64.088,64.088,0,0,1-12.868-7.568,1.987,1.987,0,0,1-.7-1.91c.657-3.5,2.616-14.166,2.7-17.22.081-2.868-3.137-5.058-4.553-5.881a1.955,1.955,0,0,1-.921-1.235c-.445-1.848-.822-6.023,4.506-6.943a1.992,1.992,0,0,0,1.615-2.369c-.45-2.208-.306-5.457,3.885-6.654,4.262-1.215,6.942,1.35,8.305,3.316a1.99,1.99,0,0,0,2.467.658,1.576,1.576,0,0,1,1.764.315,1.96,1.96,0,0,0,2.866-.435,5.938,5.938,0,0,1,7.321-2.418c6.78,2.193,6.456,10.011,3.971,14.261s-9.7,1.454-13.118-1.362c-2.6-2.142-6.551-.86-8.3-.123A1.972,1.972,0,0,0,7388.838,10644.134Z" transform="translate(-7373.919 -10628.322)" fill="url(#linear-gradient-24)"/>
                  <path id="Trazado_189298" data-name="Trazado 189298" d="M7379.3,10665.012s3.255-7.69.6-10.072-6.355-1.566-6.234,4.37C7373.82,10666.694,7379.3,10665.012,7379.3,10665.012Z" transform="translate(-7373.667 -10636.515)" fill="url(#linear-gradient-25)"/>
                </g>
              </g>
            </g>
          </g>
        </g>
      </g>
    </g>
  </g>
</svg>
