<svg xmlns="http://www.w3.org/2000/svg" width="508.119" height="381.481" viewBox="0 0 508.119 381.481">
  <g id="_17" data-name="17" transform="translate(-869 -8961.407)">
    <path id="Trazado_194706" data-name="Trazado 194706" d="M40.559,0c22.4,0,40.559,7.494,40.559,16.739S62.96,33.478,40.559,33.478,0,25.983,0,16.739,18.159,0,40.559,0Z" transform="translate(869 9203.893)" fill="#b9daf4"/>
    <path id="Trazado_194707" data-name="Trazado 194707" d="M0,79.192V0" transform="translate(1248.291 9125.835)" fill="none" stroke="#b9daf4" stroke-width="2.698"/>
    <path id="Trazado_194708" data-name="Trazado 194708" d="M0,0H29.814" transform="translate(1274.635 9166.731)" fill="none" stroke="#b9daf4" stroke-width="2.698"/>
    <path id="Trazado_194709" data-name="Trazado 194709" d="M0,0V329.059" transform="translate(1131.871 8987.407)" fill="none" stroke="#b9daf4" stroke-width="2.424"/>
    <path id="Trazado_194710" data-name="Trazado 194710" d="M3,0H57.5a3,3,0,0,1,3,3V30.325a3,3,0,0,1-3,3H3a3,3,0,0,1-3-3V3A3,3,0,0,1,3,0Z" transform="translate(1101.622 9063.407)" fill="#b9daf4"/>
    <path id="Trazado_194711" data-name="Trazado 194711" d="M3,0H57.5a3,3,0,0,1,3,3V30.325a3,3,0,0,1-3,3H3a3,3,0,0,1-3-3V3A3,3,0,0,1,3,0Z" transform="translate(1101.622 9219.407)" fill="#b9daf4"/>
    <path id="Trazado_194712" data-name="Trazado 194712" d="M3,0H77.527a3,3,0,0,1,3,3V29.451a3,3,0,0,1-3,3H3a3,3,0,0,1-3-3V3A3,3,0,0,1,3,0Z" transform="translate(898.429 9150.506)" fill="#b9daf4"/>
    <path id="Trazado_194713" data-name="Trazado 194713" d="M3,0H77.609a3,3,0,0,1,3,3V27.9a3,3,0,0,1-3,3H3a3,3,0,0,1-3-3V3A3,3,0,0,1,3,0Z" transform="translate(1205.282 9148.407)" fill="#b9daf4"/>
    <path id="Trazado_193975" data-name="Trazado 193975" d="M307.752,294.648l-54.4-33.99L307.752,228l54.4,32.657Z" transform="translate(824.119 8905.407)" fill="#b9daf4"/>
    <path id="Trazado_193976" data-name="Trazado 193976" d="M424.025,344.019l-40.975-25.6,40.975-24.6L465,318.419Z" transform="translate(824.119 8905.407)" fill="#b9daf4"/>
    <path id="Trazado_194714" data-name="Trazado 194714" d="M37.975,0C58.948,0,75.95,6.8,75.95,15.19s-17,15.19-37.975,15.19S0,23.579,0,15.19,17,0,37.975,0Z" transform="translate(1210.169 9098.533)" fill="#b9daf4"/>
    <path id="Trazado_194715" data-name="Trazado 194715" d="M39,0C60.539,0,78,8.585,78,19.176S60.539,38.352,39,38.352,0,29.767,0,19.176,17.461,0,39,0Z" transform="translate(1299.119 9147.555)" fill="#b9daf4"/>
    <path id="Trazado_194716" data-name="Trazado 194716" d="M75.632,0c41.771,0,75.632,7.59,75.632,16.952S117.4,33.9,75.632,33.9,0,26.314,0,16.952,33.862,0,75.632,0Z" transform="translate(935.119 9011.275)" fill="#b9daf4"/>
    <path id="Trazado_194717" data-name="Trazado 194717" d="M65.162,0c35.988,0,65.162,6.539,65.162,14.605S101.15,29.211,65.162,29.211,0,22.672,0,14.605,29.174,0,65.162,0Z" transform="translate(1169.208 9015.969)" fill="#b9daf4"/>
    <path id="Trazado_194718" data-name="Trazado 194718" d="M39.7,0c21.928,0,39.7,7.336,39.7,16.386S61.633,32.772,39.7,32.772,0,25.436,0,16.386,17.777,0,39.7,0Z" transform="translate(946.709 9279.857)" fill="#b9daf4"/>
    <path id="Trazado_194719" data-name="Trazado 194719" d="M77.064,0c42.561,0,77.064,8.021,77.064,17.915s-34.5,17.915-77.064,17.915S0,27.81,0,17.915,34.5,0,77.064,0Z" transform="translate(1203.951 9278.576)" fill="#b9daf4"/>
    <path id="Trazado_194720" data-name="Trazado 194720" d="M43.248,0C67.134,0,86.5,7.866,86.5,17.57s-19.363,17.57-43.248,17.57S0,27.273,0,17.57,19.363,0,43.248,0Z" transform="translate(1088.622 9307.748)" fill="#b9daf4"/>
    <path id="Trazado_194721" data-name="Trazado 194721" d="M39.246,0C60.921,0,78.493,7.138,78.493,15.944S60.921,31.888,39.246,31.888,0,24.749,0,15.944,17.571,0,39.246,0Z" transform="translate(1092.624 8961.407)" fill="#b9daf4"/>
    <path id="Trazado_194722" data-name="Trazado 194722" d="M-19.508-1.664a1.481,1.481,0,0,0,1.016-.344,1.2,1.2,0,0,0,.406-.914h2.117a2.9,2.9,0,0,1-.469,1.574A3.093,3.093,0,0,1-17.7-.238a3.949,3.949,0,0,1-1.77.395A3.67,3.67,0,0,1-22.328-1,4.56,4.56,0,0,1-23.375-4.18v-.148a4.508,4.508,0,0,1,1.039-3.117,3.627,3.627,0,0,1,2.852-1.164,3.555,3.555,0,0,1,2.543.9,3.2,3.2,0,0,1,.973,2.4h-2.117a1.551,1.551,0,0,0-.406-1.072,1.354,1.354,0,0,0-1.031-.412,1.36,1.36,0,0,0-1.191.575,3.333,3.333,0,0,0-.4,1.866v.235a3.375,3.375,0,0,0,.4,1.878A1.377,1.377,0,0,0-19.508-1.664Zm8.719,1.82A4.15,4.15,0,0,1-13.816-.984a4.054,4.054,0,0,1-1.168-3.039v-.219a5.106,5.106,0,0,1,.492-2.277A3.612,3.612,0,0,1-13.1-8.066a3.914,3.914,0,0,1,2.059-.543,3.508,3.508,0,0,1,2.73,1.094,4.444,4.444,0,0,1,1,3.1v.922H-12.7a2.1,2.1,0,0,0,.66,1.328,2,2,0,0,0,1.395.5A2.437,2.437,0,0,0-8.6-2.609l1.109,1.242A3.389,3.389,0,0,1-8.867-.246,4.511,4.511,0,0,1-10.789.156Zm-.258-6.945a1.411,1.411,0,0,0-1.09.455,2.357,2.357,0,0,0-.535,1.3h3.141v-.181a1.681,1.681,0,0,0-.406-1.165A1.456,1.456,0,0,0-11.047-6.789Zm4.664,2.5A5.094,5.094,0,0,1-5.5-7.437,2.877,2.877,0,0,1-3.07-8.609a2.589,2.589,0,0,1,2.039.922V-12H1.234V0H-.8L-.914-.9A2.657,2.657,0,0,1-3.086.156,2.869,2.869,0,0,1-5.48-1.02,5.258,5.258,0,0,1-6.383-4.289Zm2.258.168A3.337,3.337,0,0,0-3.711-2.3a1.349,1.349,0,0,0,1.2.634,1.511,1.511,0,0,0,1.477-.884V-5.889a1.489,1.489,0,0,0-1.461-.884Q-4.125-6.773-4.125-4.121ZM8.047-.859A2.831,2.831,0,0,1,5.734.156,2.67,2.67,0,0,1,3.66-.625a3.335,3.335,0,0,1-.73-2.289V-8.453H5.188v5.467q0,1.322,1.2,1.322a1.63,1.63,0,0,0,1.578-.8V-8.453h2.266V0H8.109ZM14.32,0H12.055V-12H14.32Zm6.758,0a2.507,2.507,0,0,1-.227-.758,2.732,2.732,0,0,1-2.133.914A3,3,0,0,1,16.66-.562a2.312,2.312,0,0,1-.816-1.812,2.389,2.389,0,0,1,1-2.062,4.915,4.915,0,0,1,2.879-.727h1.039v-.484a1.393,1.393,0,0,0-.3-.937,1.183,1.183,0,0,0-.949-.352,1.345,1.345,0,0,0-.895.273.929.929,0,0,0-.324.75H16.031a2.268,2.268,0,0,1,.453-1.359,3,3,0,0,1,1.281-.98,4.669,4.669,0,0,1,1.859-.355,3.689,3.689,0,0,1,2.48.785,2.747,2.747,0,0,1,.918,2.207v3.664a4.041,4.041,0,0,0,.336,1.82V0ZM19.211-1.57a1.945,1.945,0,0,0,.922-.223,1.462,1.462,0,0,0,.625-.6V-3.844h-.844q-1.7,0-1.8,1.172l-.008.133a.9.9,0,0,0,.3.7A1.153,1.153,0,0,0,19.211-1.57Z" transform="translate(1131.87 8981.029)"/>
    <path id="Trazado_194723" data-name="Trazado 194723" d="M-37.043-2.82l2.578-8.555h2.609L-35.816,0h-2.445l-3.945-11.375h2.6ZM-26.395,0a2.507,2.507,0,0,1-.227-.758,2.732,2.732,0,0,1-2.133.914,3,3,0,0,1-2.059-.719,2.312,2.312,0,0,1-.816-1.812,2.389,2.389,0,0,1,1-2.062,4.915,4.915,0,0,1,2.879-.727h1.039v-.484a1.393,1.393,0,0,0-.3-.937,1.183,1.183,0,0,0-.949-.352,1.345,1.345,0,0,0-.895.273.929.929,0,0,0-.324.75h-2.258a2.268,2.268,0,0,1,.453-1.359,3,3,0,0,1,1.281-.98,4.669,4.669,0,0,1,1.859-.355,3.689,3.689,0,0,1,2.48.785,2.747,2.747,0,0,1,.918,2.207v3.664a4.041,4.041,0,0,0,.336,1.82V0Zm-1.867-1.57a1.945,1.945,0,0,0,.922-.223,1.462,1.462,0,0,0,.625-.6V-3.844h-.844q-1.7,0-1.8,1.172l-.008.133a.9.9,0,0,0,.3.7A1.153,1.153,0,0,0-28.262-1.57ZM-20.332,0H-22.6V-12h2.266Zm1.508-4.3a5.013,5.013,0,0,1,.484-2.242A3.546,3.546,0,0,1-16.945-8.07a4.069,4.069,0,0,1,2.113-.539,3.849,3.849,0,0,1,2.793,1.047,4.2,4.2,0,0,1,1.207,2.844l.016.578A4.418,4.418,0,0,1-11.9-1.02,3.775,3.775,0,0,1-14.816.156a3.793,3.793,0,0,1-2.918-1.172A4.5,4.5,0,0,1-18.824-4.2Zm2.258.16A3.16,3.16,0,0,0-16.113-2.3a1.5,1.5,0,0,0,1.3.638,1.5,1.5,0,0,0,1.281-.63,3.457,3.457,0,0,0,.461-2.015,3.128,3.128,0,0,0-.461-1.831,1.5,1.5,0,0,0-1.3-.649,1.474,1.474,0,0,0-1.281.646A3.516,3.516,0,0,0-16.566-4.144ZM-4.676-6.336A6.134,6.134,0,0,0-5.488-6.4a1.654,1.654,0,0,0-1.68.867V0H-9.426V-8.453h2.133l.063,1.008A2.092,2.092,0,0,1-5.348-8.609a2.366,2.366,0,0,1,.7.1Zm7.344,8.1H-4.449V0H2.668ZM6.715-2.758l1.57-5.7h2.359L7.793,0H5.637L2.785-8.453H5.145ZM15.426.156A4.15,4.15,0,0,1,12.4-.984,4.054,4.054,0,0,1,11.23-4.023v-.219a5.106,5.106,0,0,1,.492-2.277,3.612,3.612,0,0,1,1.395-1.547,3.914,3.914,0,0,1,2.059-.543,3.508,3.508,0,0,1,2.73,1.094,4.444,4.444,0,0,1,1,3.1v.922H13.52a2.1,2.1,0,0,0,.66,1.328,2,2,0,0,0,1.395.5,2.437,2.437,0,0,0,2.039-.945l1.109,1.242A3.389,3.389,0,0,1,17.348-.246,4.511,4.511,0,0,1,15.426.156Zm-.258-6.945a1.411,1.411,0,0,0-1.09.455,2.357,2.357,0,0,0-.535,1.3h3.141v-.181a1.681,1.681,0,0,0-.406-1.165A1.456,1.456,0,0,0,15.168-6.789Zm7.094-1.664.07.977a2.951,2.951,0,0,1,2.43-1.133,2.453,2.453,0,0,1,2,.789,3.682,3.682,0,0,1,.672,2.359V0H25.176V-5.406a1.465,1.465,0,0,0-.312-1.043,1.4,1.4,0,0,0-1.039-.324,1.553,1.553,0,0,0-1.43.813V0H20.137V-8.453Zm9.586-2.078v2.078h1.445V-6.8H31.848v4.219a1.007,1.007,0,0,0,.18.672.9.9,0,0,0,.688.2,3.6,3.6,0,0,0,.664-.055V-.047a4.648,4.648,0,0,1-1.367.2,2.156,2.156,0,0,1-2.422-2.4V-6.8H28.355V-8.453H29.59v-2.078ZM39.449,0a2.507,2.507,0,0,1-.227-.758A2.732,2.732,0,0,1,37.09.156a3,3,0,0,1-2.059-.719,2.312,2.312,0,0,1-.816-1.812,2.389,2.389,0,0,1,1-2.062,4.915,4.915,0,0,1,2.879-.727h1.039v-.484a1.393,1.393,0,0,0-.3-.937,1.183,1.183,0,0,0-.949-.352,1.345,1.345,0,0,0-.895.273.929.929,0,0,0-.324.75H34.4a2.268,2.268,0,0,1,.453-1.359,3,3,0,0,1,1.281-.98A4.669,4.669,0,0,1,38-8.609a3.689,3.689,0,0,1,2.48.785,2.747,2.747,0,0,1,.918,2.207v3.664a4.041,4.041,0,0,0,.336,1.82V0ZM37.582-1.57a1.945,1.945,0,0,0,.922-.223,1.462,1.462,0,0,0,.625-.6V-3.844h-.844q-1.7,0-1.8,1.172l-.008.133a.9.9,0,0,0,.3.7A1.153,1.153,0,0,0,37.582-1.57Z" transform="translate(1234.784 9033.842)"/>
    <path id="Trazado_194724" data-name="Trazado 194724" d="M-29.426-2.82l2.578-8.555h2.609L-28.2,0h-2.445L-34.59-11.375h2.6ZM-19.77.156A4.15,4.15,0,0,1-22.8-.984a4.054,4.054,0,0,1-1.168-3.039v-.219a5.106,5.106,0,0,1,.492-2.277,3.612,3.612,0,0,1,1.395-1.547,3.914,3.914,0,0,1,2.059-.543,3.508,3.508,0,0,1,2.73,1.094,4.444,4.444,0,0,1,1,3.1v.922h-5.383a2.1,2.1,0,0,0,.66,1.328,2,2,0,0,0,1.395.5,2.437,2.437,0,0,0,2.039-.945l1.109,1.242A3.389,3.389,0,0,1-17.848-.246,4.511,4.511,0,0,1-19.77.156Zm-.258-6.945a1.411,1.411,0,0,0-1.09.455,2.357,2.357,0,0,0-.535,1.3h3.141v-.181a1.681,1.681,0,0,0-.406-1.165A1.456,1.456,0,0,0-20.027-6.789Zm7.094-1.664.07.977a2.951,2.951,0,0,1,2.43-1.133,2.453,2.453,0,0,1,2,.789,3.682,3.682,0,0,1,.672,2.359V0H-10.02V-5.406a1.465,1.465,0,0,0-.312-1.043,1.4,1.4,0,0,0-1.039-.324,1.553,1.553,0,0,0-1.43.813V0h-2.258V-8.453ZM-6.4-4.289a5.094,5.094,0,0,1,.887-3.148A2.877,2.877,0,0,1-3.09-8.609a2.589,2.589,0,0,1,2.039.922V-12H1.215V0H-.824L-.934-.9A2.657,2.657,0,0,1-3.105.156,2.869,2.869,0,0,1-5.5-1.02,5.258,5.258,0,0,1-6.4-4.289Zm2.258.168A3.337,3.337,0,0,0-3.73-2.3a1.349,1.349,0,0,0,1.2.634,1.511,1.511,0,0,0,1.477-.884V-5.889a1.489,1.489,0,0,0-1.461-.884Q-4.145-6.773-4.145-4.121Zm11,4.277A4.15,4.15,0,0,1,3.828-.984,4.054,4.054,0,0,1,2.66-4.023v-.219A5.106,5.106,0,0,1,3.152-6.52,3.612,3.612,0,0,1,4.547-8.066a3.914,3.914,0,0,1,2.059-.543,3.508,3.508,0,0,1,2.73,1.094,4.444,4.444,0,0,1,1,3.1v.922H4.949a2.1,2.1,0,0,0,.66,1.328A2,2,0,0,0,7-1.664a2.437,2.437,0,0,0,2.039-.945l1.109,1.242A3.389,3.389,0,0,1,8.777-.246,4.511,4.511,0,0,1,6.855.156ZM6.6-6.789a1.411,1.411,0,0,0-1.09.455,2.357,2.357,0,0,0-.535,1.3H8.113v-.181a1.681,1.681,0,0,0-.406-1.165A1.456,1.456,0,0,0,6.6-6.789Zm4.664,2.5a5.094,5.094,0,0,1,.887-3.148,2.877,2.877,0,0,1,2.426-1.172,2.589,2.589,0,0,1,2.039.922V-12h2.266V0H16.84L16.73-.9A2.657,2.657,0,0,1,14.559.156,2.869,2.869,0,0,1,12.164-1.02,5.258,5.258,0,0,1,11.262-4.289Zm2.258.168A3.337,3.337,0,0,0,13.934-2.3a1.349,1.349,0,0,0,1.2.634,1.511,1.511,0,0,0,1.477-.884V-5.889a1.489,1.489,0,0,0-1.461-.884Q13.52-6.773,13.52-4.121ZM20.277-4.3a5.013,5.013,0,0,1,.484-2.242A3.546,3.546,0,0,1,22.156-8.07a4.069,4.069,0,0,1,2.113-.539,3.849,3.849,0,0,1,2.793,1.047A4.2,4.2,0,0,1,28.27-4.719l.016.578A4.418,4.418,0,0,1,27.2-1.02,3.775,3.775,0,0,1,24.285.156a3.793,3.793,0,0,1-2.918-1.172A4.5,4.5,0,0,1,20.277-4.2Zm2.258.16A3.16,3.16,0,0,0,22.988-2.3a1.5,1.5,0,0,0,1.3.638,1.5,1.5,0,0,0,1.281-.63,3.457,3.457,0,0,0,.461-2.015,3.128,3.128,0,0,0-.461-1.831,1.5,1.5,0,0,0-1.3-.649,1.474,1.474,0,0,0-1.281.646A3.516,3.516,0,0,0,22.535-4.144ZM34.426-6.336a6.134,6.134,0,0,0-.812-.062,1.654,1.654,0,0,0-1.68.867V0H29.676V-8.453h2.133l.063,1.008a2.092,2.092,0,0,1,1.883-1.164,2.366,2.366,0,0,1,.7.1Z" transform="translate(937.385 9170.852)"/>
    <path id="Trazado_194725" data-name="Trazado 194725" d="M-15.531-3.789A4.025,4.025,0,0,1-16.887-.9,4.76,4.76,0,0,1-20.109.156a4.28,4.28,0,0,1-3.441-1.473A6.038,6.038,0,0,1-24.8-5.359v-.7a6.819,6.819,0,0,1,.578-2.891,4.332,4.332,0,0,1,1.652-1.918,4.629,4.629,0,0,1,2.5-.668,4.637,4.637,0,0,1,3.172,1.055,4.326,4.326,0,0,1,1.391,2.961h-2.344a2.376,2.376,0,0,0-.613-1.6,2.271,2.271,0,0,0-1.605-.5,1.991,1.991,0,0,0-1.754.84,4.707,4.707,0,0,0-.6,2.605V-5.3a5.038,5.038,0,0,0,.559,2.7,1.954,1.954,0,0,0,1.762.852,2.314,2.314,0,0,0,1.621-.5,2.241,2.241,0,0,0,.613-1.535Zm1.039-.516a5.013,5.013,0,0,1,.484-2.242A3.546,3.546,0,0,1-12.613-8.07,4.069,4.069,0,0,1-10.5-8.609,3.849,3.849,0,0,1-7.707-7.562,4.2,4.2,0,0,1-6.5-4.719l.016.578A4.418,4.418,0,0,1-7.57-1.02,3.775,3.775,0,0,1-10.484.156,3.793,3.793,0,0,1-13.4-1.016,4.5,4.5,0,0,1-14.492-4.2Zm2.258.16A3.16,3.16,0,0,0-11.781-2.3a1.5,1.5,0,0,0,1.3.638A1.5,1.5,0,0,0-9.2-2.294a3.457,3.457,0,0,0,.461-2.015A3.128,3.128,0,0,0-9.2-6.14a1.5,1.5,0,0,0-1.3-.649,1.474,1.474,0,0,0-1.281.646A3.516,3.516,0,0,0-12.234-4.144ZM-10.055-12h2.461L-9.758-9.578h-1.836Zm4.609,7.711a5.094,5.094,0,0,1,.887-3.148A2.877,2.877,0,0,1-2.133-8.609a2.589,2.589,0,0,1,2.039.922V-12H2.172V0H.133L.023-.9A2.657,2.657,0,0,1-2.148.156,2.869,2.869,0,0,1-4.543-1.02,5.258,5.258,0,0,1-5.445-4.289Zm2.258.168A3.337,3.337,0,0,0-2.773-2.3a1.349,1.349,0,0,0,1.2.634A1.511,1.511,0,0,0-.094-2.548V-5.889a1.489,1.489,0,0,0-1.461-.884Q-3.188-6.773-3.187-4.121ZM6.3,0H4.039V-8.453H6.3Zm-2.4-10.641a1.112,1.112,0,0,1,.34-.836,1.277,1.277,0,0,1,.926-.328,1.28,1.28,0,0,1,.922.328,1.105,1.105,0,0,1,.344.836A1.108,1.108,0,0,1,6.09-9.8a1.283,1.283,0,0,1-.918.328A1.283,1.283,0,0,1,4.254-9.8,1.108,1.108,0,0,1,3.906-10.641Zm3.93,6.352a4.954,4.954,0,0,1,.926-3.133,3,3,0,0,1,2.5-1.187,2.631,2.631,0,0,1,2.164.953l.094-.8h2.047V-.281a3.613,3.613,0,0,1-.5,1.93A3.236,3.236,0,0,1,13.641,2.9a4.985,4.985,0,0,1-2.141.43,4.635,4.635,0,0,1-1.812-.371A3.217,3.217,0,0,1,8.352,2l1-1.375A2.645,2.645,0,0,0,11.4,1.57a1.936,1.936,0,0,0,1.4-.48,1.8,1.8,0,0,0,.5-1.363V-.727a2.612,2.612,0,0,1-2.055.883A2.992,2.992,0,0,1,8.777-1.035,4.953,4.953,0,0,1,7.836-4.2Zm2.258.168a3.085,3.085,0,0,0,.461,1.8,1.466,1.466,0,0,0,1.266.653A1.568,1.568,0,0,0,13.3-2.439V-6a1.564,1.564,0,0,0-1.461-.775,1.476,1.476,0,0,0-1.277.665A3.477,3.477,0,0,0,10.094-4.121ZM16.945-4.3a5.013,5.013,0,0,1,.484-2.242A3.546,3.546,0,0,1,18.824-8.07a4.069,4.069,0,0,1,2.113-.539A3.849,3.849,0,0,1,23.73-7.562a4.2,4.2,0,0,1,1.207,2.844l.016.578A4.418,4.418,0,0,1,23.867-1.02,3.775,3.775,0,0,1,20.953.156a3.793,3.793,0,0,1-2.918-1.172A4.5,4.5,0,0,1,16.945-4.2Zm2.258.16A3.16,3.16,0,0,0,19.656-2.3a1.5,1.5,0,0,0,1.3.638,1.5,1.5,0,0,0,1.281-.63A3.457,3.457,0,0,0,22.7-4.309a3.128,3.128,0,0,0-.461-1.831,1.5,1.5,0,0,0-1.3-.649,1.474,1.474,0,0,0-1.281.646A3.516,3.516,0,0,0,19.2-4.144Z" transform="translate(909.207 9225.604)"/>
    <path id="Trazado_194726" data-name="Trazado 194726" d="M40.559,0c22.4,0,40.559,7.494,40.559,16.739S62.96,33.478,40.559,33.478,0,25.983,0,16.739,18.159,0,40.559,0Z" transform="translate(981 9203.893)" fill="#b9daf4"/>
    <path id="Trazado_194727" data-name="Trazado 194727" d="M-18.5,0h-2.344L-25.41-7.484V0h-2.344V-11.375h2.344l4.57,7.5v-7.5H-18.5Zm1.547-4.3a5.013,5.013,0,0,1,.484-2.242A3.546,3.546,0,0,1-15.078-8.07a4.069,4.069,0,0,1,2.113-.539,3.849,3.849,0,0,1,2.793,1.047A4.2,4.2,0,0,1-8.965-4.719l.016.578A4.418,4.418,0,0,1-10.035-1.02,3.775,3.775,0,0,1-12.949.156a3.793,3.793,0,0,1-2.918-1.172A4.5,4.5,0,0,1-16.957-4.2Zm2.258.16A3.16,3.16,0,0,0-14.246-2.3a1.5,1.5,0,0,0,1.3.638,1.5,1.5,0,0,0,1.281-.63,3.457,3.457,0,0,0,.461-2.015,3.128,3.128,0,0,0-.461-1.831,1.5,1.5,0,0,0-1.3-.649,1.474,1.474,0,0,0-1.281.646A3.516,3.516,0,0,0-14.7-4.144Zm9.258-4.309.07.945a2.971,2.971,0,0,1,2.43-1.1A2.255,2.255,0,0,1-.7-7.32,2.9,2.9,0,0,1,1.84-8.609a2.521,2.521,0,0,1,2.047.8A3.681,3.681,0,0,1,4.559-5.4V0H2.293V-5.391a1.61,1.61,0,0,0-.281-1.051,1.246,1.246,0,0,0-.992-.332A1.409,1.409,0,0,0-.387-5.8L-.379,0H-2.637V-5.383a1.59,1.59,0,0,0-.289-1.062,1.259,1.259,0,0,0-.984-.328,1.463,1.463,0,0,0-1.391.8V0H-7.559V-8.453Zm19.352,4.3A5.119,5.119,0,0,1,13.043-.98,2.872,2.872,0,0,1,10.621.156,2.639,2.639,0,0,1,8.426-.9l-.1.9H6.293V-12H8.551v4.3a2.571,2.571,0,0,1,2.055-.914,2.9,2.9,0,0,1,2.426,1.137,5.126,5.126,0,0,1,.879,3.2Zm-2.258-.164a3.363,3.363,0,0,0-.406-1.871,1.374,1.374,0,0,0-1.211-.59,1.489,1.489,0,0,0-1.484.883v3.336a1.509,1.509,0,0,0,1.5.891,1.394,1.394,0,0,0,1.438-1.078A5.562,5.562,0,0,0,11.652-4.312Zm8.4-2.023a6.134,6.134,0,0,0-.812-.062,1.654,1.654,0,0,0-1.68.867V0H15.3V-8.453h2.133L17.5-7.445a2.092,2.092,0,0,1,1.883-1.164,2.366,2.366,0,0,1,.7.1ZM24.879.156A4.15,4.15,0,0,1,21.852-.984a4.054,4.054,0,0,1-1.168-3.039v-.219a5.106,5.106,0,0,1,.492-2.277A3.612,3.612,0,0,1,22.57-8.066a3.914,3.914,0,0,1,2.059-.543,3.508,3.508,0,0,1,2.73,1.094,4.444,4.444,0,0,1,1,3.1v.922H22.973a2.1,2.1,0,0,0,.66,1.328,2,2,0,0,0,1.395.5,2.437,2.437,0,0,0,2.039-.945l1.109,1.242A3.389,3.389,0,0,1,26.8-.246,4.511,4.511,0,0,1,24.879.156Zm-.258-6.945a1.411,1.411,0,0,0-1.09.455A2.357,2.357,0,0,0,23-5.031h3.141v-.181a1.681,1.681,0,0,0-.406-1.165A1.456,1.456,0,0,0,24.621-6.789Z" transform="translate(1021.92 9226.457)"/>
    <path id="Trazado_194728" data-name="Trazado 194728" d="M-29.672,0h-2.344V-11.375h2.344Zm4.1-8.453.07.977a2.951,2.951,0,0,1,2.43-1.133,2.453,2.453,0,0,1,2,.789A3.682,3.682,0,0,1-20.4-5.461V0h-2.258V-5.406a1.465,1.465,0,0,0-.312-1.043,1.4,1.4,0,0,0-1.039-.324,1.553,1.553,0,0,0-1.43.813V0H-27.7V-8.453Zm10.047,5.7,1.57-5.7h2.359L-14.445,0H-16.6l-2.852-8.453h2.359ZM-11.07-4.3a5.013,5.013,0,0,1,.484-2.242A3.546,3.546,0,0,1-9.191-8.07a4.069,4.069,0,0,1,2.113-.539A3.849,3.849,0,0,1-4.285-7.562,4.2,4.2,0,0,1-3.078-4.719l.016.578A4.418,4.418,0,0,1-4.148-1.02,3.775,3.775,0,0,1-7.062.156,3.793,3.793,0,0,1-9.98-1.016,4.5,4.5,0,0,1-11.07-4.2Zm2.258.16A3.16,3.16,0,0,0-8.359-2.3a1.5,1.5,0,0,0,1.3.638,1.5,1.5,0,0,0,1.281-.63A3.457,3.457,0,0,0-5.32-4.309,3.128,3.128,0,0,0-5.781-6.14a1.5,1.5,0,0,0-1.3-.649,1.474,1.474,0,0,0-1.281.646A3.516,3.516,0,0,0-8.812-4.144ZM.711,0H-1.555V-12H.711ZM7.633-.859A2.831,2.831,0,0,1,5.32.156,2.67,2.67,0,0,1,3.246-.625a3.335,3.335,0,0,1-.73-2.289V-8.453H4.773v5.467q0,1.322,1.2,1.322a1.63,1.63,0,0,0,1.578-.8V-8.453H9.82V0H7.7Zm7.406-.8a1.481,1.481,0,0,0,1.016-.344,1.2,1.2,0,0,0,.406-.914h2.117a2.9,2.9,0,0,1-.469,1.574A3.093,3.093,0,0,1,16.848-.238a3.949,3.949,0,0,1-1.77.395A3.67,3.67,0,0,1,12.219-1,4.56,4.56,0,0,1,11.172-4.18v-.148a4.508,4.508,0,0,1,1.039-3.117,3.627,3.627,0,0,1,2.852-1.164,3.555,3.555,0,0,1,2.543.9,3.2,3.2,0,0,1,.973,2.4H16.461a1.551,1.551,0,0,0-.406-1.072,1.354,1.354,0,0,0-1.031-.412,1.36,1.36,0,0,0-1.191.575,3.333,3.333,0,0,0-.4,1.866v.235a3.375,3.375,0,0,0,.4,1.878A1.377,1.377,0,0,0,15.039-1.664Zm9.578-4.672A6.134,6.134,0,0,0,23.8-6.4a1.654,1.654,0,0,0-1.68.867V0H19.867V-8.453H22l.063,1.008a2.092,2.092,0,0,1,1.883-1.164,2.366,2.366,0,0,1,.7.1ZM30.367,0a2.507,2.507,0,0,1-.227-.758,2.732,2.732,0,0,1-2.133.914,3,3,0,0,1-2.059-.719,2.312,2.312,0,0,1-.816-1.812,2.389,2.389,0,0,1,1-2.062,4.915,4.915,0,0,1,2.879-.727h1.039v-.484a1.393,1.393,0,0,0-.3-.937,1.183,1.183,0,0,0-.949-.352,1.345,1.345,0,0,0-.895.273.929.929,0,0,0-.324.75H25.32a2.268,2.268,0,0,1,.453-1.359,3,3,0,0,1,1.281-.98,4.669,4.669,0,0,1,1.859-.355,3.689,3.689,0,0,1,2.48.785,2.747,2.747,0,0,1,.918,2.207v3.664a4.041,4.041,0,0,0,.336,1.82V0ZM28.5-1.57a1.945,1.945,0,0,0,.922-.223,1.462,1.462,0,0,0,.625-.6V-3.844H29.2q-1.7,0-1.8,1.172l-.008.133a.9.9,0,0,0,.3.7A1.153,1.153,0,0,0,28.5-1.57Z" transform="translate(1131.871 9169.998)"/>
    <path id="Trazado_194729" data-name="Trazado 194729" d="M-24.258-2.344h-4.109L-29.148,0h-2.492l4.234-11.375h2.172L-20.977,0h-2.492Zm-3.477-1.9h2.844L-26.32-8.5ZM-17.68,0h-2.266V-12h2.266ZM-13.7-8.453l.07.945a2.971,2.971,0,0,1,2.43-1.1A2.255,2.255,0,0,1-8.961-7.32,2.9,2.9,0,0,1-6.422-8.609a2.521,2.521,0,0,1,2.047.8A3.681,3.681,0,0,1-3.7-5.4V0H-5.969V-5.391A1.61,1.61,0,0,0-6.25-6.441a1.246,1.246,0,0,0-.992-.332A1.409,1.409,0,0,0-8.648-5.8L-8.641,0H-10.9V-5.383a1.59,1.59,0,0,0-.289-1.062,1.259,1.259,0,0,0-.984-.328,1.463,1.463,0,0,0-1.391.8V0H-15.82V-8.453ZM2.93,0A2.507,2.507,0,0,1,2.7-.758,2.732,2.732,0,0,1,.57.156,3,3,0,0,1-1.488-.562,2.312,2.312,0,0,1-2.3-2.375a2.389,2.389,0,0,1,1-2.062A4.915,4.915,0,0,1,1.57-5.164H2.609v-.484a1.393,1.393,0,0,0-.3-.937,1.183,1.183,0,0,0-.949-.352,1.345,1.345,0,0,0-.895.273.929.929,0,0,0-.324.75H-2.117a2.268,2.268,0,0,1,.453-1.359,3,3,0,0,1,1.281-.98,4.669,4.669,0,0,1,1.859-.355,3.689,3.689,0,0,1,2.48.785,2.747,2.747,0,0,1,.918,2.207v3.664a4.041,4.041,0,0,0,.336,1.82V0ZM1.063-1.57a1.945,1.945,0,0,0,.922-.223,1.462,1.462,0,0,0,.625-.6V-3.844H1.766q-1.7,0-1.8,1.172l-.008.133a.9.9,0,0,0,.3.7A1.153,1.153,0,0,0,1.063-1.57Zm9.063-.094a1.481,1.481,0,0,0,1.016-.344,1.2,1.2,0,0,0,.406-.914h2.117A2.9,2.9,0,0,1,13.2-1.348,3.093,3.093,0,0,1,11.934-.238a3.949,3.949,0,0,1-1.77.395A3.67,3.67,0,0,1,7.3-1,4.56,4.56,0,0,1,6.258-4.18v-.148A4.508,4.508,0,0,1,7.3-7.445a3.627,3.627,0,0,1,2.852-1.164,3.555,3.555,0,0,1,2.543.9,3.2,3.2,0,0,1,.973,2.4H11.547a1.551,1.551,0,0,0-.406-1.072,1.354,1.354,0,0,0-1.031-.412,1.36,1.36,0,0,0-1.191.575,3.333,3.333,0,0,0-.4,1.866v.235a3.375,3.375,0,0,0,.4,1.878A1.377,1.377,0,0,0,10.125-1.664ZM18.844.156A4.15,4.15,0,0,1,15.816-.984a4.054,4.054,0,0,1-1.168-3.039v-.219a5.106,5.106,0,0,1,.492-2.277,3.612,3.612,0,0,1,1.395-1.547,3.914,3.914,0,0,1,2.059-.543,3.508,3.508,0,0,1,2.73,1.094,4.444,4.444,0,0,1,1,3.1v.922H16.938a2.1,2.1,0,0,0,.66,1.328,2,2,0,0,0,1.395.5,2.437,2.437,0,0,0,2.039-.945l1.109,1.242A3.389,3.389,0,0,1,20.766-.246,4.511,4.511,0,0,1,18.844.156Zm-.258-6.945a1.411,1.411,0,0,0-1.09.455,2.357,2.357,0,0,0-.535,1.3H20.1v-.181A1.681,1.681,0,0,0,19.7-6.377,1.456,1.456,0,0,0,18.586-6.789Zm.2-5.211H21.25L19.086-9.578H17.25ZM25.68-8.453l.07.977a2.951,2.951,0,0,1,2.43-1.133,2.453,2.453,0,0,1,2,.789,3.682,3.682,0,0,1,.672,2.359V0H28.594V-5.406a1.465,1.465,0,0,0-.312-1.043,1.4,1.4,0,0,0-1.039-.324,1.553,1.553,0,0,0-1.43.813V0H23.555V-8.453Z" transform="translate(1243.901 9169.998)"/>
    <path id="Trazado_194730" data-name="Trazado 194730" d="M-15.531-3.789A4.025,4.025,0,0,1-16.887-.9,4.76,4.76,0,0,1-20.109.156a4.28,4.28,0,0,1-3.441-1.473A6.038,6.038,0,0,1-24.8-5.359v-.7a6.819,6.819,0,0,1,.578-2.891,4.332,4.332,0,0,1,1.652-1.918,4.629,4.629,0,0,1,2.5-.668,4.637,4.637,0,0,1,3.172,1.055,4.326,4.326,0,0,1,1.391,2.961h-2.344a2.376,2.376,0,0,0-.613-1.6,2.271,2.271,0,0,0-1.605-.5,1.991,1.991,0,0,0-1.754.84,4.707,4.707,0,0,0-.6,2.605V-5.3a5.038,5.038,0,0,0,.559,2.7,1.954,1.954,0,0,0,1.762.852,2.314,2.314,0,0,0,1.621-.5,2.241,2.241,0,0,0,.613-1.535Zm1.039-.516a5.013,5.013,0,0,1,.484-2.242A3.546,3.546,0,0,1-12.613-8.07,4.069,4.069,0,0,1-10.5-8.609,3.849,3.849,0,0,1-7.707-7.562,4.2,4.2,0,0,1-6.5-4.719l.016.578A4.418,4.418,0,0,1-7.57-1.02,3.775,3.775,0,0,1-10.484.156,3.793,3.793,0,0,1-13.4-1.016,4.5,4.5,0,0,1-14.492-4.2Zm2.258.16A3.16,3.16,0,0,0-11.781-2.3a1.5,1.5,0,0,0,1.3.638A1.5,1.5,0,0,0-9.2-2.294a3.457,3.457,0,0,0,.461-2.015A3.128,3.128,0,0,0-9.2-6.14a1.5,1.5,0,0,0-1.3-.649,1.474,1.474,0,0,0-1.281.646A3.516,3.516,0,0,0-12.234-4.144ZM-10.055-12h2.461L-9.758-9.578h-1.836Zm4.609,7.711a5.094,5.094,0,0,1,.887-3.148A2.877,2.877,0,0,1-2.133-8.609a2.589,2.589,0,0,1,2.039.922V-12H2.172V0H.133L.023-.9A2.657,2.657,0,0,1-2.148.156,2.869,2.869,0,0,1-4.543-1.02,5.258,5.258,0,0,1-5.445-4.289Zm2.258.168A3.337,3.337,0,0,0-2.773-2.3a1.349,1.349,0,0,0,1.2.634A1.511,1.511,0,0,0-.094-2.548V-5.889a1.489,1.489,0,0,0-1.461-.884Q-3.188-6.773-3.187-4.121ZM6.3,0H4.039V-8.453H6.3Zm-2.4-10.641a1.112,1.112,0,0,1,.34-.836,1.277,1.277,0,0,1,.926-.328,1.28,1.28,0,0,1,.922.328,1.105,1.105,0,0,1,.344.836A1.108,1.108,0,0,1,6.09-9.8a1.283,1.283,0,0,1-.918.328A1.283,1.283,0,0,1,4.254-9.8,1.108,1.108,0,0,1,3.906-10.641Zm3.93,6.352a4.954,4.954,0,0,1,.926-3.133,3,3,0,0,1,2.5-1.187,2.631,2.631,0,0,1,2.164.953l.094-.8h2.047V-.281a3.613,3.613,0,0,1-.5,1.93A3.236,3.236,0,0,1,13.641,2.9a4.985,4.985,0,0,1-2.141.43,4.635,4.635,0,0,1-1.812-.371A3.217,3.217,0,0,1,8.352,2l1-1.375A2.645,2.645,0,0,0,11.4,1.57a1.936,1.936,0,0,0,1.4-.48,1.8,1.8,0,0,0,.5-1.363V-.727a2.612,2.612,0,0,1-2.055.883A2.992,2.992,0,0,1,8.777-1.035,4.953,4.953,0,0,1,7.836-4.2Zm2.258.168a3.085,3.085,0,0,0,.461,1.8,1.466,1.466,0,0,0,1.266.653A1.568,1.568,0,0,0,13.3-2.439V-6a1.564,1.564,0,0,0-1.461-.775,1.476,1.476,0,0,0-1.277.665A3.477,3.477,0,0,0,10.094-4.121ZM16.945-4.3a5.013,5.013,0,0,1,.484-2.242A3.546,3.546,0,0,1,18.824-8.07a4.069,4.069,0,0,1,2.113-.539A3.849,3.849,0,0,1,23.73-7.562a4.2,4.2,0,0,1,1.207,2.844l.016.578A4.418,4.418,0,0,1,23.867-1.02,3.775,3.775,0,0,1,20.953.156a3.793,3.793,0,0,1-2.918-1.172A4.5,4.5,0,0,1,16.945-4.2Zm2.258.16A3.16,3.16,0,0,0,19.656-2.3a1.5,1.5,0,0,0,1.3.638,1.5,1.5,0,0,0,1.281-.63A3.457,3.457,0,0,0,22.7-4.309a3.128,3.128,0,0,0-.461-1.831,1.5,1.5,0,0,0-1.3-.649,1.474,1.474,0,0,0-1.281.646A3.516,3.516,0,0,0,19.2-4.144Z" transform="translate(1248.247 9119.086)"/>
    <path id="Trazado_194731" data-name="Trazado 194731" d="M-26.023-11.375v7.492A3.836,3.836,0,0,1-27.191-.93,4.5,4.5,0,0,1-30.383.156,4.553,4.553,0,0,1-33.547-.9a3.77,3.77,0,0,1-1.2-2.9v-7.578H-32.4v7.508a2.167,2.167,0,0,0,.535,1.629,2.054,2.054,0,0,0,1.48.512q1.977,0,2.008-2.078v-7.57Zm9.391,7.227A5.119,5.119,0,0,1-17.5-.98,2.872,2.872,0,0,1-19.922.156,2.639,2.639,0,0,1-22.117-.9l-.1.9H-24.25V-12h2.258v4.3a2.571,2.571,0,0,1,2.055-.914,2.9,2.9,0,0,1,2.426,1.137,5.126,5.126,0,0,1,.879,3.2Zm-2.258-.164A3.363,3.363,0,0,0-19.3-6.184a1.374,1.374,0,0,0-1.211-.59,1.489,1.489,0,0,0-1.484.883v3.336a1.509,1.509,0,0,0,1.5.891,1.394,1.394,0,0,0,1.438-1.078A5.562,5.562,0,0,0-18.891-4.312ZM-12.859,0h-2.266V-8.453h2.266Zm-2.4-10.641a1.112,1.112,0,0,1,.34-.836,1.277,1.277,0,0,1,.926-.328,1.28,1.28,0,0,1,.922.328,1.105,1.105,0,0,1,.344.836,1.108,1.108,0,0,1-.348.844,1.283,1.283,0,0,1-.918.328A1.283,1.283,0,0,1-14.91-9.8,1.108,1.108,0,0,1-15.258-10.641Zm7.773,8.977a1.481,1.481,0,0,0,1.016-.344,1.2,1.2,0,0,0,.406-.914h2.117a2.9,2.9,0,0,1-.469,1.574A3.093,3.093,0,0,1-5.676-.238a3.949,3.949,0,0,1-1.77.395A3.67,3.67,0,0,1-10.3-1,4.56,4.56,0,0,1-11.352-4.18v-.148a4.508,4.508,0,0,1,1.039-3.117A3.627,3.627,0,0,1-7.461-8.609a3.555,3.555,0,0,1,2.543.9,3.2,3.2,0,0,1,.973,2.4H-6.062a1.551,1.551,0,0,0-.406-1.072A1.354,1.354,0,0,0-7.5-6.789a1.36,1.36,0,0,0-1.191.575,3.333,3.333,0,0,0-.4,1.866v.235a3.375,3.375,0,0,0,.4,1.878A1.377,1.377,0,0,0-7.484-1.664ZM2.242,0a2.507,2.507,0,0,1-.227-.758A2.732,2.732,0,0,1-.117.156,3,3,0,0,1-2.176-.562a2.312,2.312,0,0,1-.816-1.812A2.389,2.389,0,0,1-2-4.437,4.915,4.915,0,0,1,.883-5.164H1.922v-.484a1.393,1.393,0,0,0-.3-.937,1.183,1.183,0,0,0-.949-.352,1.345,1.345,0,0,0-.895.273.929.929,0,0,0-.324.75H-2.8a2.268,2.268,0,0,1,.453-1.359,3,3,0,0,1,1.281-.98A4.669,4.669,0,0,1,.789-8.609a3.689,3.689,0,0,1,2.48.785,2.747,2.747,0,0,1,.918,2.207v3.664a4.041,4.041,0,0,0,.336,1.82V0ZM.375-1.57A1.945,1.945,0,0,0,1.3-1.793a1.462,1.462,0,0,0,.625-.6V-3.844H1.078q-1.7,0-1.8,1.172l-.008.133a.9.9,0,0,0,.3.7A1.153,1.153,0,0,0,.375-1.57Zm9.063-.094a1.481,1.481,0,0,0,1.016-.344,1.2,1.2,0,0,0,.406-.914h2.117a2.9,2.9,0,0,1-.469,1.574A3.093,3.093,0,0,1,11.246-.238a3.949,3.949,0,0,1-1.77.395A3.67,3.67,0,0,1,6.617-1,4.56,4.56,0,0,1,5.57-4.18v-.148A4.508,4.508,0,0,1,6.609-7.445,3.627,3.627,0,0,1,9.461-8.609a3.555,3.555,0,0,1,2.543.9,3.2,3.2,0,0,1,.973,2.4H10.859a1.551,1.551,0,0,0-.406-1.072,1.354,1.354,0,0,0-1.031-.412,1.36,1.36,0,0,0-1.191.575,3.333,3.333,0,0,0-.4,1.866v.235a3.375,3.375,0,0,0,.4,1.878A1.377,1.377,0,0,0,9.438-1.664ZM16.648,0H14.383V-8.453h2.266Zm-2.4-10.641a1.112,1.112,0,0,1,.34-.836,1.277,1.277,0,0,1,.926-.328,1.28,1.28,0,0,1,.922.328,1.105,1.105,0,0,1,.344.836,1.108,1.108,0,0,1-.348.844,1.283,1.283,0,0,1-.918.328A1.283,1.283,0,0,1,14.6-9.8,1.108,1.108,0,0,1,14.25-10.641ZM18.156-4.3a5.013,5.013,0,0,1,.484-2.242A3.546,3.546,0,0,1,20.035-8.07a4.069,4.069,0,0,1,2.113-.539,3.849,3.849,0,0,1,2.793,1.047,4.2,4.2,0,0,1,1.207,2.844l.016.578A4.418,4.418,0,0,1,25.078-1.02,3.775,3.775,0,0,1,22.164.156a3.793,3.793,0,0,1-2.918-1.172A4.5,4.5,0,0,1,18.156-4.2Zm2.258.16A3.16,3.16,0,0,0,20.867-2.3a1.5,1.5,0,0,0,1.3.638,1.5,1.5,0,0,0,1.281-.63,3.457,3.457,0,0,0,.461-2.015,3.128,3.128,0,0,0-.461-1.831,1.5,1.5,0,0,0-1.3-.649,1.474,1.474,0,0,0-1.281.646A3.516,3.516,0,0,0,20.414-4.144ZM22.594-12h2.461L22.891-9.578H21.055Zm7.039,3.547.07.977a2.951,2.951,0,0,1,2.43-1.133,2.453,2.453,0,0,1,2,.789A3.682,3.682,0,0,1,34.8-5.461V0H32.547V-5.406a1.465,1.465,0,0,0-.312-1.043A1.4,1.4,0,0,0,31.2-6.773a1.553,1.553,0,0,0-1.43.813V0H27.508V-8.453Z" transform="translate(1338.642 9172.852)"/>
    <path id="Trazado_194732" data-name="Trazado 194732" d="M-15.363-3.789A4.025,4.025,0,0,1-16.719-.9,4.76,4.76,0,0,1-19.941.156a4.28,4.28,0,0,1-3.441-1.473,6.038,6.038,0,0,1-1.254-4.043v-.7a6.819,6.819,0,0,1,.578-2.891,4.332,4.332,0,0,1,1.652-1.918,4.629,4.629,0,0,1,2.5-.668,4.637,4.637,0,0,1,3.172,1.055,4.326,4.326,0,0,1,1.391,2.961h-2.344a2.376,2.376,0,0,0-.613-1.6,2.271,2.271,0,0,0-1.605-.5,1.991,1.991,0,0,0-1.754.84,4.707,4.707,0,0,0-.6,2.605V-5.3a5.038,5.038,0,0,0,.559,2.7,1.954,1.954,0,0,0,1.762.852,2.314,2.314,0,0,0,1.621-.5,2.241,2.241,0,0,0,.613-1.535ZM-11.59,0h-2.266V-12h2.266Zm4.242,0H-9.613V-8.453h2.266Zm-2.4-10.641a1.112,1.112,0,0,1,.34-.836A1.277,1.277,0,0,1-8.48-11.8a1.28,1.28,0,0,1,.922.328,1.105,1.105,0,0,1,.344.836,1.108,1.108,0,0,1-.348.844,1.283,1.283,0,0,1-.918.328A1.283,1.283,0,0,1-9.4-9.8,1.108,1.108,0,0,1-9.746-10.641ZM-1.6.156A4.15,4.15,0,0,1-4.625-.984,4.054,4.054,0,0,1-5.793-4.023v-.219A5.106,5.106,0,0,1-5.3-6.52,3.612,3.612,0,0,1-3.906-8.066a3.914,3.914,0,0,1,2.059-.543A3.508,3.508,0,0,1,.883-7.516a4.444,4.444,0,0,1,1,3.1v.922H-3.5a2.1,2.1,0,0,0,.66,1.328,2,2,0,0,0,1.395.5A2.437,2.437,0,0,0,.59-2.609L1.7-1.367A3.389,3.389,0,0,1,.324-.246,4.511,4.511,0,0,1-1.6.156Zm-.258-6.945a1.411,1.411,0,0,0-1.09.455,2.357,2.357,0,0,0-.535,1.3H-.34v-.181A1.681,1.681,0,0,0-.746-6.377,1.456,1.456,0,0,0-1.855-6.789ZM5.238-8.453l.07.977a2.951,2.951,0,0,1,2.43-1.133,2.453,2.453,0,0,1,2,.789,3.682,3.682,0,0,1,.672,2.359V0H8.152V-5.406A1.465,1.465,0,0,0,7.84-6.449,1.4,1.4,0,0,0,6.8-6.773a1.553,1.553,0,0,0-1.43.813V0H3.113V-8.453Zm9.586-2.078v2.078H16.27V-6.8H14.824v4.219a1.007,1.007,0,0,0,.18.672.9.9,0,0,0,.688.2,3.6,3.6,0,0,0,.664-.055V-.047a4.648,4.648,0,0,1-1.367.2,2.156,2.156,0,0,1-2.422-2.4V-6.8H11.332V-8.453h1.234v-2.078ZM21.418.156A4.15,4.15,0,0,1,18.391-.984a4.054,4.054,0,0,1-1.168-3.039v-.219a5.106,5.106,0,0,1,.492-2.277,3.612,3.612,0,0,1,1.395-1.547,3.914,3.914,0,0,1,2.059-.543A3.508,3.508,0,0,1,23.9-7.516a4.444,4.444,0,0,1,1,3.1v.922H19.512a2.1,2.1,0,0,0,.66,1.328,2,2,0,0,0,1.395.5,2.437,2.437,0,0,0,2.039-.945l1.109,1.242A3.389,3.389,0,0,1,23.34-.246,4.511,4.511,0,0,1,21.418.156ZM21.16-6.789a1.411,1.411,0,0,0-1.09.455,2.357,2.357,0,0,0-.535,1.3h3.141v-.181a1.681,1.681,0,0,0-.406-1.165A1.456,1.456,0,0,0,21.16-6.789Z" transform="translate(1131.87 9241.135)"/>
    <path id="Trazado_194733" data-name="Trazado 194733" d="M-15.008-3.789A4.025,4.025,0,0,1-16.363-.9,4.76,4.76,0,0,1-19.586.156a4.28,4.28,0,0,1-3.441-1.473,6.038,6.038,0,0,1-1.254-4.043v-.7A6.819,6.819,0,0,1-23.7-8.945a4.332,4.332,0,0,1,1.652-1.918,4.629,4.629,0,0,1,2.5-.668,4.637,4.637,0,0,1,3.172,1.055,4.326,4.326,0,0,1,1.391,2.961h-2.344a2.376,2.376,0,0,0-.613-1.6,2.271,2.271,0,0,0-1.605-.5,1.991,1.991,0,0,0-1.754.84,4.707,4.707,0,0,0-.6,2.605V-5.3a5.038,5.038,0,0,0,.559,2.7,1.954,1.954,0,0,0,1.762.852,2.314,2.314,0,0,0,1.621-.5,2.241,2.241,0,0,0,.613-1.535ZM-9.727.156A4.15,4.15,0,0,1-12.754-.984a4.054,4.054,0,0,1-1.168-3.039v-.219A5.106,5.106,0,0,1-13.43-6.52a3.612,3.612,0,0,1,1.395-1.547,3.914,3.914,0,0,1,2.059-.543,3.508,3.508,0,0,1,2.73,1.094,4.444,4.444,0,0,1,1,3.1v.922h-5.383a2.1,2.1,0,0,0,.66,1.328,2,2,0,0,0,1.395.5,2.437,2.437,0,0,0,2.039-.945L-6.43-1.367A3.389,3.389,0,0,1-7.8-.246,4.511,4.511,0,0,1-9.727.156Zm-.258-6.945a1.411,1.411,0,0,0-1.09.455,2.357,2.357,0,0,0-.535,1.3h3.141v-.181a1.681,1.681,0,0,0-.406-1.165A1.456,1.456,0,0,0-9.984-6.789Zm4.664,2.5a5.094,5.094,0,0,1,.887-3.148A2.877,2.877,0,0,1-2.008-8.609a2.589,2.589,0,0,1,2.039.922V-12H2.3V0H.258L.148-.9A2.657,2.657,0,0,1-2.023.156,2.869,2.869,0,0,1-4.418-1.02,5.258,5.258,0,0,1-5.32-4.289Zm2.258.168A3.337,3.337,0,0,0-2.648-2.3a1.349,1.349,0,0,0,1.2.634A1.511,1.511,0,0,0,.031-2.548V-5.889A1.489,1.489,0,0,0-1.43-6.773Q-3.063-6.773-3.062-4.121ZM9.109-.859A2.831,2.831,0,0,1,6.8.156,2.67,2.67,0,0,1,4.723-.625a3.335,3.335,0,0,1-.73-2.289V-8.453H6.25v5.467q0,1.322,1.2,1.322a1.63,1.63,0,0,0,1.578-.8V-8.453H11.3V0H9.172ZM15.383,0H13.117V-12h2.266Zm6.758,0a2.507,2.507,0,0,1-.227-.758,2.732,2.732,0,0,1-2.133.914,3,3,0,0,1-2.059-.719,2.312,2.312,0,0,1-.816-1.812,2.389,2.389,0,0,1,1-2.062,4.915,4.915,0,0,1,2.879-.727H21.82v-.484a1.393,1.393,0,0,0-.3-.937,1.183,1.183,0,0,0-.949-.352,1.345,1.345,0,0,0-.895.273.929.929,0,0,0-.324.75H17.094a2.268,2.268,0,0,1,.453-1.359,3,3,0,0,1,1.281-.98,4.669,4.669,0,0,1,1.859-.355,3.689,3.689,0,0,1,2.48.785,2.747,2.747,0,0,1,.918,2.207v3.664a4.041,4.041,0,0,0,.336,1.82V0ZM20.273-1.57a1.945,1.945,0,0,0,.922-.223,1.462,1.462,0,0,0,.625-.6V-3.844h-.844q-1.7,0-1.8,1.172l-.008.133a.9.9,0,0,0,.3.7A1.153,1.153,0,0,0,20.273-1.57Z" transform="translate(985.381 9301.51)"/>
    <path id="Trazado_194734" data-name="Trazado 194734" d="M-18.5,0h-2.344L-25.41-7.484V0h-2.344V-11.375h2.344l4.57,7.5v-7.5H-18.5Zm1.547-4.3a5.013,5.013,0,0,1,.484-2.242A3.546,3.546,0,0,1-15.078-8.07a4.069,4.069,0,0,1,2.113-.539,3.849,3.849,0,0,1,2.793,1.047A4.2,4.2,0,0,1-8.965-4.719l.016.578A4.418,4.418,0,0,1-10.035-1.02,3.775,3.775,0,0,1-12.949.156a3.793,3.793,0,0,1-2.918-1.172A4.5,4.5,0,0,1-16.957-4.2Zm2.258.16A3.16,3.16,0,0,0-14.246-2.3a1.5,1.5,0,0,0,1.3.638,1.5,1.5,0,0,0,1.281-.63,3.457,3.457,0,0,0,.461-2.015,3.128,3.128,0,0,0-.461-1.831,1.5,1.5,0,0,0-1.3-.649,1.474,1.474,0,0,0-1.281.646A3.516,3.516,0,0,0-14.7-4.144Zm9.258-4.309.07.945a2.971,2.971,0,0,1,2.43-1.1A2.255,2.255,0,0,1-.7-7.32,2.9,2.9,0,0,1,1.84-8.609a2.521,2.521,0,0,1,2.047.8A3.681,3.681,0,0,1,4.559-5.4V0H2.293V-5.391a1.61,1.61,0,0,0-.281-1.051,1.246,1.246,0,0,0-.992-.332A1.409,1.409,0,0,0-.387-5.8L-.379,0H-2.637V-5.383a1.59,1.59,0,0,0-.289-1.062,1.259,1.259,0,0,0-.984-.328,1.463,1.463,0,0,0-1.391.8V0H-7.559V-8.453Zm19.352,4.3A5.119,5.119,0,0,1,13.043-.98,2.872,2.872,0,0,1,10.621.156,2.639,2.639,0,0,1,8.426-.9l-.1.9H6.293V-12H8.551v4.3a2.571,2.571,0,0,1,2.055-.914,2.9,2.9,0,0,1,2.426,1.137,5.126,5.126,0,0,1,.879,3.2Zm-2.258-.164a3.363,3.363,0,0,0-.406-1.871,1.374,1.374,0,0,0-1.211-.59,1.489,1.489,0,0,0-1.484.883v3.336a1.509,1.509,0,0,0,1.5.891,1.394,1.394,0,0,0,1.438-1.078A5.562,5.562,0,0,0,11.652-4.312Zm8.4-2.023a6.134,6.134,0,0,0-.812-.062,1.654,1.654,0,0,0-1.68.867V0H15.3V-8.453h2.133L17.5-7.445a2.092,2.092,0,0,1,1.883-1.164,2.366,2.366,0,0,1,.7.1ZM24.879.156A4.15,4.15,0,0,1,21.852-.984a4.054,4.054,0,0,1-1.168-3.039v-.219a5.106,5.106,0,0,1,.492-2.277A3.612,3.612,0,0,1,22.57-8.066a3.914,3.914,0,0,1,2.059-.543,3.508,3.508,0,0,1,2.73,1.094,4.444,4.444,0,0,1,1,3.1v.922H22.973a2.1,2.1,0,0,0,.66,1.328,2,2,0,0,0,1.395.5,2.437,2.437,0,0,0,2.039-.945l1.109,1.242A3.389,3.389,0,0,1,26.8-.246,4.511,4.511,0,0,1,24.879.156Zm-.258-6.945a1.411,1.411,0,0,0-1.09.455A2.357,2.357,0,0,0,23-5.031h3.141v-.181a1.681,1.681,0,0,0-.406-1.165A1.456,1.456,0,0,0,24.621-6.789Z" transform="translate(1131.871 9330.215)"/>
    <path id="Trazado_194735" data-name="Trazado 194735" d="M-50.8-3.789A4.025,4.025,0,0,1-52.152-.9,4.76,4.76,0,0,1-55.375.156a4.28,4.28,0,0,1-3.441-1.473A6.038,6.038,0,0,1-60.07-5.359v-.7a6.819,6.819,0,0,1,.578-2.891,4.332,4.332,0,0,1,1.652-1.918,4.629,4.629,0,0,1,2.5-.668,4.637,4.637,0,0,1,3.172,1.055,4.326,4.326,0,0,1,1.391,2.961h-2.344a2.376,2.376,0,0,0-.613-1.6,2.271,2.271,0,0,0-1.605-.5,1.991,1.991,0,0,0-1.754.84,4.707,4.707,0,0,0-.6,2.605V-5.3a5.038,5.038,0,0,0,.559,2.7,1.954,1.954,0,0,0,1.762.852,2.314,2.314,0,0,0,1.621-.5,2.241,2.241,0,0,0,.613-1.535Zm1.039-.516a5.013,5.013,0,0,1,.484-2.242A3.546,3.546,0,0,1-47.879-8.07a4.069,4.069,0,0,1,2.113-.539,3.849,3.849,0,0,1,2.793,1.047,4.2,4.2,0,0,1,1.207,2.844l.016.578A4.418,4.418,0,0,1-42.836-1.02,3.775,3.775,0,0,1-45.75.156a3.793,3.793,0,0,1-2.918-1.172A4.5,4.5,0,0,1-49.758-4.2Zm2.258.16A3.16,3.16,0,0,0-47.047-2.3a1.5,1.5,0,0,0,1.3.638,1.5,1.5,0,0,0,1.281-.63,3.457,3.457,0,0,0,.461-2.015,3.128,3.128,0,0,0-.461-1.831,1.5,1.5,0,0,0-1.3-.649,1.474,1.474,0,0,0-1.281.646A3.516,3.516,0,0,0-47.5-4.144ZM-45.32-12h2.461l-2.164,2.422h-1.836Zm4.609,7.711a5.094,5.094,0,0,1,.887-3.148A2.877,2.877,0,0,1-37.4-8.609a2.589,2.589,0,0,1,2.039.922V-12h2.266V0h-2.039l-.109-.9A2.657,2.657,0,0,1-37.414.156,2.869,2.869,0,0,1-39.809-1.02,5.258,5.258,0,0,1-40.711-4.289Zm2.258.168A3.337,3.337,0,0,0-38.039-2.3a1.349,1.349,0,0,0,1.2.634,1.511,1.511,0,0,0,1.477-.884V-5.889a1.489,1.489,0,0,0-1.461-.884Q-38.453-6.773-38.453-4.121ZM-28.961,0h-2.266V-8.453h2.266Zm-2.4-10.641a1.112,1.112,0,0,1,.34-.836,1.277,1.277,0,0,1,.926-.328,1.28,1.28,0,0,1,.922.328,1.105,1.105,0,0,1,.344.836,1.108,1.108,0,0,1-.348.844,1.283,1.283,0,0,1-.918.328,1.283,1.283,0,0,1-.918-.328A1.108,1.108,0,0,1-31.359-10.641Zm3.93,6.352A4.954,4.954,0,0,1-26.5-7.422a3,3,0,0,1,2.5-1.187,2.631,2.631,0,0,1,2.164.953l.094-.8H-19.7V-.281a3.613,3.613,0,0,1-.5,1.93A3.236,3.236,0,0,1-21.625,2.9a4.985,4.985,0,0,1-2.141.43,4.635,4.635,0,0,1-1.812-.371A3.217,3.217,0,0,1-26.914,2l1-1.375a2.645,2.645,0,0,0,2.047.945,1.936,1.936,0,0,0,1.4-.48,1.8,1.8,0,0,0,.5-1.363V-.727a2.612,2.612,0,0,1-2.055.883,2.992,2.992,0,0,1-2.465-1.191A4.953,4.953,0,0,1-27.43-4.2Zm2.258.168a3.085,3.085,0,0,0,.461,1.8,1.466,1.466,0,0,0,1.266.653,1.568,1.568,0,0,0,1.477-.775V-6a1.564,1.564,0,0,0-1.461-.775,1.476,1.476,0,0,0-1.277.665A3.477,3.477,0,0,0-25.172-4.121ZM-18.32-4.3a5.013,5.013,0,0,1,.484-2.242A3.546,3.546,0,0,1-16.441-8.07a4.069,4.069,0,0,1,2.113-.539,3.849,3.849,0,0,1,2.793,1.047,4.2,4.2,0,0,1,1.207,2.844l.016.578A4.418,4.418,0,0,1-11.4-1.02,3.775,3.775,0,0,1-14.312.156,3.793,3.793,0,0,1-17.23-1.016,4.5,4.5,0,0,1-18.32-4.2Zm2.258.16A3.16,3.16,0,0,0-15.609-2.3a1.5,1.5,0,0,0,1.3.638,1.5,1.5,0,0,0,1.281-.63,3.457,3.457,0,0,0,.461-2.015,3.128,3.128,0,0,0-.461-1.831,1.5,1.5,0,0,0-1.3-.649,1.474,1.474,0,0,0-1.281.646A3.516,3.516,0,0,0-16.062-4.144Zm13.4,5.91H-9.781V0h7.117ZM4.789-2.344H.68L-.1,0H-2.594L1.641-11.375H3.813L8.07,0H5.578Zm-3.477-1.9H4.156L2.727-8.5ZM11.367,0H9.1V-12h2.266Zm3.977-8.453.07.945a2.971,2.971,0,0,1,2.43-1.1A2.255,2.255,0,0,1,20.086-7.32a2.9,2.9,0,0,1,2.539-1.289,2.521,2.521,0,0,1,2.047.8,3.681,3.681,0,0,1,.672,2.41V0H23.078V-5.391A1.61,1.61,0,0,0,22.8-6.441a1.246,1.246,0,0,0-.992-.332A1.409,1.409,0,0,0,20.4-5.8L20.406,0H18.148V-5.383a1.59,1.59,0,0,0-.289-1.062,1.259,1.259,0,0,0-.984-.328,1.463,1.463,0,0,0-1.391.8V0H13.227V-8.453ZM31.977,0a2.507,2.507,0,0,1-.227-.758,2.732,2.732,0,0,1-2.133.914,3,3,0,0,1-2.059-.719,2.312,2.312,0,0,1-.816-1.812,2.389,2.389,0,0,1,1-2.062,4.915,4.915,0,0,1,2.879-.727h1.039v-.484a1.393,1.393,0,0,0-.3-.937,1.183,1.183,0,0,0-.949-.352,1.345,1.345,0,0,0-.895.273.929.929,0,0,0-.324.75H26.93a2.268,2.268,0,0,1,.453-1.359,3,3,0,0,1,1.281-.98,4.669,4.669,0,0,1,1.859-.355A3.689,3.689,0,0,1,33-7.824a2.747,2.747,0,0,1,.918,2.207v3.664a4.041,4.041,0,0,0,.336,1.82V0ZM30.109-1.57a1.945,1.945,0,0,0,.922-.223,1.462,1.462,0,0,0,.625-.6V-3.844h-.844q-1.7,0-1.8,1.172L29-2.539a.9.9,0,0,0,.3.7A1.153,1.153,0,0,0,30.109-1.57Zm9.063-.094a1.481,1.481,0,0,0,1.016-.344,1.2,1.2,0,0,0,.406-.914h2.117a2.9,2.9,0,0,1-.469,1.574A3.093,3.093,0,0,1,40.98-.238a3.949,3.949,0,0,1-1.77.395A3.67,3.67,0,0,1,36.352-1,4.56,4.56,0,0,1,35.3-4.18v-.148a4.508,4.508,0,0,1,1.039-3.117A3.627,3.627,0,0,1,39.2-8.609a3.555,3.555,0,0,1,2.543.9,3.2,3.2,0,0,1,.973,2.4H40.594a1.551,1.551,0,0,0-.406-1.072,1.354,1.354,0,0,0-1.031-.412,1.36,1.36,0,0,0-1.191.575,3.333,3.333,0,0,0-.4,1.866v.235a3.375,3.375,0,0,0,.4,1.878A1.377,1.377,0,0,0,39.172-1.664ZM47.891.156A4.15,4.15,0,0,1,44.863-.984,4.054,4.054,0,0,1,43.7-4.023v-.219a5.106,5.106,0,0,1,.492-2.277,3.612,3.612,0,0,1,1.395-1.547,3.914,3.914,0,0,1,2.059-.543,3.508,3.508,0,0,1,2.73,1.094,4.444,4.444,0,0,1,1,3.1v.922H45.984a2.1,2.1,0,0,0,.66,1.328,2,2,0,0,0,1.395.5,2.437,2.437,0,0,0,2.039-.945l1.109,1.242A3.389,3.389,0,0,1,49.813-.246,4.511,4.511,0,0,1,47.891.156Zm-.258-6.945a1.411,1.411,0,0,0-1.09.455,2.357,2.357,0,0,0-.535,1.3h3.141v-.181a1.681,1.681,0,0,0-.406-1.165A1.456,1.456,0,0,0,47.633-6.789Zm7.094-1.664.07.977a2.951,2.951,0,0,1,2.43-1.133,2.453,2.453,0,0,1,2,.789A3.682,3.682,0,0,1,59.9-5.461V0H57.641V-5.406a1.465,1.465,0,0,0-.312-1.043,1.4,1.4,0,0,0-1.039-.324,1.553,1.553,0,0,0-1.43.813V0H52.6V-8.453Z" transform="translate(1284.389 9301.068)"/>
    <path id="Trazado_194736" data-name="Trazado 194736" d="M-52.168-3.789A4.025,4.025,0,0,1-53.523-.9,4.76,4.76,0,0,1-56.746.156a4.28,4.28,0,0,1-3.441-1.473,6.038,6.038,0,0,1-1.254-4.043v-.7a6.819,6.819,0,0,1,.578-2.891,4.332,4.332,0,0,1,1.652-1.918,4.629,4.629,0,0,1,2.5-.668,4.637,4.637,0,0,1,3.172,1.055,4.326,4.326,0,0,1,1.391,2.961H-54.5a2.376,2.376,0,0,0-.613-1.6,2.271,2.271,0,0,0-1.605-.5,1.991,1.991,0,0,0-1.754.84,4.707,4.707,0,0,0-.6,2.605V-5.3a5.038,5.038,0,0,0,.559,2.7,1.954,1.954,0,0,0,1.762.852,2.314,2.314,0,0,0,1.621-.5,2.241,2.241,0,0,0,.613-1.535Zm1.039-.516a5.013,5.013,0,0,1,.484-2.242A3.546,3.546,0,0,1-49.25-8.07a4.069,4.069,0,0,1,2.113-.539,3.849,3.849,0,0,1,2.793,1.047,4.2,4.2,0,0,1,1.207,2.844l.016.578A4.418,4.418,0,0,1-44.207-1.02,3.775,3.775,0,0,1-47.121.156a3.793,3.793,0,0,1-2.918-1.172A4.5,4.5,0,0,1-51.129-4.2Zm2.258.16A3.16,3.16,0,0,0-48.418-2.3a1.5,1.5,0,0,0,1.3.638,1.5,1.5,0,0,0,1.281-.63,3.457,3.457,0,0,0,.461-2.015A3.128,3.128,0,0,0-45.84-6.14a1.5,1.5,0,0,0-1.3-.649,1.474,1.474,0,0,0-1.281.646A3.516,3.516,0,0,0-48.871-4.144ZM-46.691-12h2.461l-2.164,2.422H-48.23Zm4.609,7.711A5.094,5.094,0,0,1-41.2-7.437,2.877,2.877,0,0,1-38.77-8.609a2.589,2.589,0,0,1,2.039.922V-12h2.266V0H-36.5l-.109-.9A2.657,2.657,0,0,1-38.785.156,2.869,2.869,0,0,1-41.18-1.02,5.258,5.258,0,0,1-42.082-4.289Zm2.258.168A3.337,3.337,0,0,0-39.41-2.3a1.349,1.349,0,0,0,1.2.634,1.511,1.511,0,0,0,1.477-.884V-5.889a1.489,1.489,0,0,0-1.461-.884Q-39.824-6.773-39.824-4.121ZM-30.332,0H-32.6V-8.453h2.266Zm-2.4-10.641a1.112,1.112,0,0,1,.34-.836,1.277,1.277,0,0,1,.926-.328,1.28,1.28,0,0,1,.922.328,1.105,1.105,0,0,1,.344.836,1.108,1.108,0,0,1-.348.844,1.283,1.283,0,0,1-.918.328,1.283,1.283,0,0,1-.918-.328A1.108,1.108,0,0,1-32.73-10.641Zm3.93,6.352a4.954,4.954,0,0,1,.926-3.133,3,3,0,0,1,2.5-1.187,2.631,2.631,0,0,1,2.164.953l.094-.8h2.047V-.281a3.613,3.613,0,0,1-.5,1.93A3.236,3.236,0,0,1-23,2.9a4.985,4.985,0,0,1-2.141.43,4.635,4.635,0,0,1-1.812-.371A3.217,3.217,0,0,1-28.285,2l1-1.375a2.645,2.645,0,0,0,2.047.945,1.936,1.936,0,0,0,1.4-.48,1.8,1.8,0,0,0,.5-1.363V-.727a2.612,2.612,0,0,1-2.055.883,2.992,2.992,0,0,1-2.465-1.191A4.953,4.953,0,0,1-28.8-4.2Zm2.258.168a3.085,3.085,0,0,0,.461,1.8,1.466,1.466,0,0,0,1.266.653,1.568,1.568,0,0,0,1.477-.775V-6A1.564,1.564,0,0,0-24.8-6.773a1.476,1.476,0,0,0-1.277.665A3.477,3.477,0,0,0-26.543-4.121Zm6.852-.184a5.013,5.013,0,0,1,.484-2.242A3.546,3.546,0,0,1-17.812-8.07,4.069,4.069,0,0,1-15.7-8.609a3.849,3.849,0,0,1,2.793,1.047A4.2,4.2,0,0,1-11.7-4.719l.016.578A4.418,4.418,0,0,1-12.77-1.02,3.775,3.775,0,0,1-15.684.156,3.793,3.793,0,0,1-18.6-1.016,4.5,4.5,0,0,1-19.691-4.2Zm2.258.16A3.16,3.16,0,0,0-16.98-2.3a1.5,1.5,0,0,0,1.3.638,1.5,1.5,0,0,0,1.281-.63,3.457,3.457,0,0,0,.461-2.015A3.128,3.128,0,0,0-14.4-6.14a1.5,1.5,0,0,0-1.3-.649,1.474,1.474,0,0,0-1.281.646A3.516,3.516,0,0,0-17.434-4.144ZM-1.957-2.82.621-11.375H3.23L-.73,0H-3.176L-7.121-11.375h2.6ZM7.7.156A4.15,4.15,0,0,1,4.672-.984,4.054,4.054,0,0,1,3.5-4.023v-.219A5.106,5.106,0,0,1,4-6.52,3.612,3.612,0,0,1,5.391-8.066a3.914,3.914,0,0,1,2.059-.543,3.508,3.508,0,0,1,2.73,1.094,4.444,4.444,0,0,1,1,3.1v.922H5.793a2.1,2.1,0,0,0,.66,1.328,2,2,0,0,0,1.395.5,2.437,2.437,0,0,0,2.039-.945L11-1.367A3.389,3.389,0,0,1,9.621-.246,4.511,4.511,0,0,1,7.7.156ZM7.441-6.789a1.411,1.411,0,0,0-1.09.455,2.357,2.357,0,0,0-.535,1.3H8.957v-.181a1.681,1.681,0,0,0-.406-1.165A1.456,1.456,0,0,0,7.441-6.789Zm7.094-1.664.07.977a2.951,2.951,0,0,1,2.43-1.133,2.453,2.453,0,0,1,2,.789,3.682,3.682,0,0,1,.672,2.359V0H17.449V-5.406a1.465,1.465,0,0,0-.312-1.043A1.4,1.4,0,0,0,16.1-6.773a1.553,1.553,0,0,0-1.43.813V0H12.41V-8.453Zm6.531,4.164a5.094,5.094,0,0,1,.887-3.148,2.877,2.877,0,0,1,2.426-1.172,2.589,2.589,0,0,1,2.039.922V-12h2.266V0H26.645l-.109-.9A2.657,2.657,0,0,1,24.363.156,2.869,2.869,0,0,1,21.969-1.02,5.258,5.258,0,0,1,21.066-4.289Zm2.258.168A3.337,3.337,0,0,0,23.738-2.3a1.349,1.349,0,0,0,1.2.634,1.511,1.511,0,0,0,1.477-.884V-5.889a1.489,1.489,0,0,0-1.461-.884Q23.324-6.773,23.324-4.121Zm11,4.277A4.15,4.15,0,0,1,31.3-.984a4.054,4.054,0,0,1-1.168-3.039v-.219a5.106,5.106,0,0,1,.492-2.277,3.612,3.612,0,0,1,1.395-1.547,3.914,3.914,0,0,1,2.059-.543A3.508,3.508,0,0,1,36.8-7.516a4.444,4.444,0,0,1,1,3.1v.922H32.418a2.1,2.1,0,0,0,.66,1.328,2,2,0,0,0,1.395.5,2.437,2.437,0,0,0,2.039-.945l1.109,1.242A3.389,3.389,0,0,1,36.246-.246,4.511,4.511,0,0,1,34.324.156Zm-.258-6.945a1.411,1.411,0,0,0-1.09.455,2.357,2.357,0,0,0-.535,1.3h3.141v-.181a1.681,1.681,0,0,0-.406-1.165A1.456,1.456,0,0,0,34.066-6.789Zm4.664,2.5a5.094,5.094,0,0,1,.887-3.148,2.877,2.877,0,0,1,2.426-1.172,2.589,2.589,0,0,1,2.039.922V-12h2.266V0H44.309L44.2-.9A2.657,2.657,0,0,1,42.027.156,2.869,2.869,0,0,1,39.633-1.02,5.258,5.258,0,0,1,38.73-4.289Zm2.258.168A3.337,3.337,0,0,0,41.4-2.3a1.349,1.349,0,0,0,1.2.634,1.511,1.511,0,0,0,1.477-.884V-5.889a1.489,1.489,0,0,0-1.461-.884Q40.988-6.773,40.988-4.121ZM47.746-4.3a5.013,5.013,0,0,1,.484-2.242A3.546,3.546,0,0,1,49.625-8.07a4.069,4.069,0,0,1,2.113-.539,3.849,3.849,0,0,1,2.793,1.047,4.2,4.2,0,0,1,1.207,2.844l.016.578A4.418,4.418,0,0,1,54.668-1.02,3.775,3.775,0,0,1,51.754.156a3.793,3.793,0,0,1-2.918-1.172A4.5,4.5,0,0,1,47.746-4.2ZM50-4.144A3.16,3.16,0,0,0,50.457-2.3a1.5,1.5,0,0,0,1.3.638,1.5,1.5,0,0,0,1.281-.63A3.457,3.457,0,0,0,53.5-4.309a3.128,3.128,0,0,0-.461-1.831,1.5,1.5,0,0,0-1.3-.649,1.474,1.474,0,0,0-1.281.646A3.516,3.516,0,0,0,50-4.144ZM61.895-6.336a6.134,6.134,0,0,0-.812-.062,1.654,1.654,0,0,0-1.68.867V0H57.145V-8.453h2.133l.063,1.008a2.092,2.092,0,0,1,1.883-1.164,2.366,2.366,0,0,1,.7.1Z" transform="translate(1010.772 9033.842)"/>
    <path id="Trazado_194737" data-name="Trazado 194737" d="M1.668,0H-.59V-8.7l-2.7.836V-9.7l4.711-1.687h.242Z" transform="translate(984.849 9107.934)"/>
    <path id="Trazado_194738" data-name="Trazado 194738" d="M1.668,0H-.59V-8.7l-2.7.836V-9.7l4.711-1.687h.242Z" transform="translate(1159.543 9205.979)"/>
    <path id="Trazado_194739" data-name="Trazado 194739" d="M1.668,0H-.59V-8.7l-2.7.836V-9.7l4.711-1.687h.242Z" transform="translate(1285.699 9217.158)"/>
    <path id="Trazado_194740" data-name="Trazado 194740" d="M-3.941-8.453l.07.945a2.971,2.971,0,0,1,2.43-1.1A2.255,2.255,0,0,1,.8-7.32,2.9,2.9,0,0,1,3.34-8.609a2.521,2.521,0,0,1,2.047.8A3.681,3.681,0,0,1,6.059-5.4V0H3.793V-5.391a1.61,1.61,0,0,0-.281-1.051,1.246,1.246,0,0,0-.992-.332A1.409,1.409,0,0,0,1.113-5.8L1.121,0H-1.137V-5.383a1.59,1.59,0,0,0-.289-1.062,1.259,1.259,0,0,0-.984-.328,1.463,1.463,0,0,0-1.391.8V0H-6.059V-8.453Z" transform="translate(1073.499 9119.332)"/>
    <path id="Trazado_194741" data-name="Trazado 194741" d="M-2.93-11.375l2.922,8.25L2.9-11.375H5.977V0H3.625V-3.109l.234-5.367L.789,0H-.82L-3.883-8.469l.234,5.359V0H-5.992V-11.375Z" transform="translate(1157.854 9140.762)"/>
    <path id="Trazado_194742" data-name="Trazado 194742" d="M-2.93-11.375l2.922,8.25L2.9-11.375H5.977V0H3.625V-3.109l.234-5.367L.789,0H-.82L-3.883-8.469l.234,5.359V0H-5.992V-11.375Z" transform="translate(1218.856 9209.484)"/>
    <path id="Trazado_194743" data-name="Trazado 194743" d="M85.119,35.43,0,0" transform="translate(1022.153 9040.823)" fill="none" stroke="#b9daf4" stroke-width="2.698"/>
    <path id="Trazado_194744" data-name="Trazado 194744" d="M0,71.658,171.427,0" transform="translate(935.508 9085.772)" fill="none" stroke="#b9daf4" stroke-width="2.698"/>
    <path id="Trazado_194745" data-name="Trazado 194745" d="M0,0,69.332,27.547" transform="translate(951.287 9178.36)" fill="none" stroke="#b9daf4" stroke-width="2.698"/>
    <path id="Trazado_194746" data-name="Trazado 194746" d="M31.554,0,0,33.356" transform="translate(895.828 9177.606)" fill="none" stroke="#b9daf4" stroke-width="2.563"/>
    <path id="Trazado_194747" data-name="Trazado 194747" d="M119.956,0,0,50.307" transform="translate(985.611 9235.688)" fill="none" stroke="#b9daf4" stroke-width="2.698"/>
    <path id="Trazado_194748" data-name="Trazado 194748" d="M0,0,108.786,39.441" transform="translate(1155.554 9245.554)" fill="none" stroke="#b9daf4" stroke-width="2.698"/>
    <path id="Trazado_194749" data-name="Trazado 194749" d="M0,1.863,81.055,0" transform="translate(1155.848 9227.853)" fill="none" stroke="#b9daf4" stroke-width="2.698"/>
    <path id="Trazado_193977" data-name="Trazado 193977" d="M197.1,245.25l-45.075-28.163L197.1,190.029l45.075,27.058Z" transform="translate(824.119 8905.407)" fill="#b9daf4"/>
    <path id="Trazado_194750" data-name="Trazado 194750" d="M-25.91-4.164h-1.867V0h-2.344V-11.375h4.227a4.778,4.778,0,0,1,3.109.9,3.1,3.1,0,0,1,1.094,2.539A3.5,3.5,0,0,1-22.2-6a3.437,3.437,0,0,1-1.527,1.238l2.461,4.648V0h-2.516Zm-1.867-1.9h1.891a1.936,1.936,0,0,0,1.367-.449,1.606,1.606,0,0,0,.484-1.238,1.719,1.719,0,0,0-.457-1.266,1.9,1.9,0,0,0-1.4-.461h-1.883ZM-16.168.156A4.15,4.15,0,0,1-19.2-.984a4.054,4.054,0,0,1-1.168-3.039v-.219a5.106,5.106,0,0,1,.492-2.277,3.612,3.612,0,0,1,1.395-1.547,3.914,3.914,0,0,1,2.059-.543,3.508,3.508,0,0,1,2.73,1.094,4.444,4.444,0,0,1,1,3.1v.922h-5.383a2.1,2.1,0,0,0,.66,1.328,2,2,0,0,0,1.395.5,2.437,2.437,0,0,0,2.039-.945l1.109,1.242A3.389,3.389,0,0,1-14.246-.246,4.511,4.511,0,0,1-16.168.156Zm-.258-6.945a1.411,1.411,0,0,0-1.09.455,2.357,2.357,0,0,0-.535,1.3h3.141v-.181a1.681,1.681,0,0,0-.406-1.165A1.456,1.456,0,0,0-16.426-6.789ZM-9.027,0h-2.266V-12h2.266ZM-2.27,0A2.507,2.507,0,0,1-2.5-.758,2.732,2.732,0,0,1-4.629.156,3,3,0,0,1-6.687-.562,2.312,2.312,0,0,1-7.5-2.375a2.389,2.389,0,0,1,1-2.062,4.915,4.915,0,0,1,2.879-.727H-2.59v-.484a1.393,1.393,0,0,0-.3-.937,1.183,1.183,0,0,0-.949-.352,1.345,1.345,0,0,0-.895.273.929.929,0,0,0-.324.75H-7.316a2.268,2.268,0,0,1,.453-1.359,3,3,0,0,1,1.281-.98,4.669,4.669,0,0,1,1.859-.355,3.689,3.689,0,0,1,2.48.785A2.747,2.747,0,0,1-.324-5.617v3.664A4.041,4.041,0,0,0,.012-.133V0ZM-4.137-1.57a1.945,1.945,0,0,0,.922-.223,1.462,1.462,0,0,0,.625-.6V-3.844h-.844q-1.7,0-1.8,1.172l-.008.133a.9.9,0,0,0,.3.7A1.153,1.153,0,0,0-4.137-1.57Zm9.063-.094a1.481,1.481,0,0,0,1.016-.344,1.2,1.2,0,0,0,.406-.914H8.465A2.9,2.9,0,0,1,8-1.348,3.093,3.093,0,0,1,6.734-.238a3.949,3.949,0,0,1-1.77.395A3.67,3.67,0,0,1,2.105-1,4.56,4.56,0,0,1,1.059-4.18v-.148A4.508,4.508,0,0,1,2.1-7.445,3.627,3.627,0,0,1,4.949-8.609a3.555,3.555,0,0,1,2.543.9,3.2,3.2,0,0,1,.973,2.4H6.348a1.551,1.551,0,0,0-.406-1.072A1.354,1.354,0,0,0,4.91-6.789a1.36,1.36,0,0,0-1.191.575,3.333,3.333,0,0,0-.4,1.866v.235a3.375,3.375,0,0,0,.4,1.878A1.377,1.377,0,0,0,4.926-1.664ZM12.137,0H9.871V-8.453h2.266Zm-2.4-10.641a1.112,1.112,0,0,1,.34-.836A1.277,1.277,0,0,1,11-11.8a1.28,1.28,0,0,1,.922.328,1.105,1.105,0,0,1,.344.836,1.108,1.108,0,0,1-.348.844A1.283,1.283,0,0,1,11-9.469a1.283,1.283,0,0,1-.918-.328A1.108,1.108,0,0,1,9.738-10.641ZM13.645-4.3a5.013,5.013,0,0,1,.484-2.242A3.546,3.546,0,0,1,15.523-8.07a4.069,4.069,0,0,1,2.113-.539A3.849,3.849,0,0,1,20.43-7.562a4.2,4.2,0,0,1,1.207,2.844l.016.578A4.418,4.418,0,0,1,20.566-1.02,3.775,3.775,0,0,1,17.652.156a3.793,3.793,0,0,1-2.918-1.172A4.5,4.5,0,0,1,13.645-4.2Zm2.258.16A3.16,3.16,0,0,0,16.355-2.3a1.5,1.5,0,0,0,1.3.638,1.5,1.5,0,0,0,1.281-.63,3.457,3.457,0,0,0,.461-2.015,3.128,3.128,0,0,0-.461-1.831,1.5,1.5,0,0,0-1.3-.649,1.474,1.474,0,0,0-1.281.646A3.516,3.516,0,0,0,15.9-4.144ZM18.082-12h2.461L18.379-9.578H16.543Zm7.039,3.547.07.977a2.951,2.951,0,0,1,2.43-1.133,2.453,2.453,0,0,1,2,.789,3.682,3.682,0,0,1,.672,2.359V0H28.035V-5.406a1.465,1.465,0,0,0-.312-1.043,1.4,1.4,0,0,0-1.039-.324,1.553,1.553,0,0,0-1.43.813V0H23V-8.453Z" transform="translate(1017.369 9126.313)"/>
    <path id="Trazado_194751" data-name="Trazado 194751" d="M0,34.565,80.48,0" transform="translate(1142.786 9040.823)" fill="none" stroke="#b9daf4" stroke-width="2.698"/>
    <path id="Trazado_194752" data-name="Trazado 194752" d="M-10.621-9.477h-3.484V0h-2.344V-9.477h-3.437v-1.9h9.266ZM-7.051,0H-9.316V-8.453h2.266Zm-2.4-10.641a1.112,1.112,0,0,1,.34-.836,1.277,1.277,0,0,1,.926-.328,1.28,1.28,0,0,1,.922.328,1.105,1.105,0,0,1,.344.836,1.108,1.108,0,0,1-.348.844,1.283,1.283,0,0,1-.918.328A1.283,1.283,0,0,1-9.1-9.8,1.108,1.108,0,0,1-9.449-10.641ZM-1.3.156A4.15,4.15,0,0,1-4.328-.984,4.054,4.054,0,0,1-5.5-4.023v-.219A5.106,5.106,0,0,1-5-6.52,3.612,3.612,0,0,1-3.609-8.066a3.914,3.914,0,0,1,2.059-.543A3.508,3.508,0,0,1,1.18-7.516a4.444,4.444,0,0,1,1,3.1v.922H-3.207a2.1,2.1,0,0,0,.66,1.328,2,2,0,0,0,1.395.5A2.437,2.437,0,0,0,.887-2.609L2-1.367A3.389,3.389,0,0,1,.621-.246,4.511,4.511,0,0,1-1.3.156Zm-.258-6.945a1.411,1.411,0,0,0-1.09.455,2.357,2.357,0,0,0-.535,1.3H-.043v-.181A1.681,1.681,0,0,0-.449-6.377,1.456,1.456,0,0,0-1.559-6.789ZM5.535-8.453l.07.977a2.951,2.951,0,0,1,2.43-1.133,2.453,2.453,0,0,1,2,.789,3.682,3.682,0,0,1,.672,2.359V0H8.449V-5.406a1.465,1.465,0,0,0-.312-1.043A1.4,1.4,0,0,0,7.1-6.773a1.553,1.553,0,0,0-1.43.813V0H3.41V-8.453ZM16.309.156A4.15,4.15,0,0,1,13.281-.984a4.054,4.054,0,0,1-1.168-3.039v-.219a5.106,5.106,0,0,1,.492-2.277A3.612,3.612,0,0,1,14-8.066a3.914,3.914,0,0,1,2.059-.543,3.508,3.508,0,0,1,2.73,1.094,4.444,4.444,0,0,1,1,3.1v.922H14.4a2.1,2.1,0,0,0,.66,1.328,2,2,0,0,0,1.395.5A2.437,2.437,0,0,0,18.5-2.609l1.109,1.242A3.389,3.389,0,0,1,18.23-.246,4.511,4.511,0,0,1,16.309.156Zm-.258-6.945a1.411,1.411,0,0,0-1.09.455,2.357,2.357,0,0,0-.535,1.3h3.141v-.181a1.681,1.681,0,0,0-.406-1.165A1.456,1.456,0,0,0,16.051-6.789Z" transform="translate(1246.819 9227.695)"/>
    <path id="Trazado_194753" data-name="Trazado 194753" d="M-19.75-2.82l2.578-8.555h2.609L-18.523,0h-2.445l-3.945-11.375h2.6ZM-10.094.156A4.15,4.15,0,0,1-13.121-.984a4.054,4.054,0,0,1-1.168-3.039v-.219A5.106,5.106,0,0,1-13.8-6.52,3.612,3.612,0,0,1-12.4-8.066a3.914,3.914,0,0,1,2.059-.543,3.508,3.508,0,0,1,2.73,1.094,4.444,4.444,0,0,1,1,3.1v.922H-12a2.1,2.1,0,0,0,.66,1.328,2,2,0,0,0,1.395.5,2.437,2.437,0,0,0,2.039-.945L-6.8-1.367A3.389,3.389,0,0,1-8.172-.246,4.511,4.511,0,0,1-10.094.156Zm-.258-6.945a1.411,1.411,0,0,0-1.09.455,2.357,2.357,0,0,0-.535,1.3h3.141v-.181a1.681,1.681,0,0,0-.406-1.165A1.456,1.456,0,0,0-10.352-6.789Zm7.094-1.664.07.977A2.951,2.951,0,0,1-.758-8.609a2.453,2.453,0,0,1,2,.789,3.682,3.682,0,0,1,.672,2.359V0H-.344V-5.406A1.465,1.465,0,0,0-.656-6.449,1.4,1.4,0,0,0-1.7-6.773a1.553,1.553,0,0,0-1.43.813V0H-5.383V-8.453Zm9.586-2.078v2.078H7.773V-6.8H6.328v4.219a1.007,1.007,0,0,0,.18.672.9.9,0,0,0,.688.2,3.6,3.6,0,0,0,.664-.055V-.047a4.648,4.648,0,0,1-1.367.2,2.156,2.156,0,0,1-2.422-2.4V-6.8H2.836V-8.453H4.07v-2.078ZM13.93,0A2.507,2.507,0,0,1,13.7-.758,2.732,2.732,0,0,1,11.57.156,3,3,0,0,1,9.512-.562,2.312,2.312,0,0,1,8.7-2.375a2.389,2.389,0,0,1,1-2.062,4.915,4.915,0,0,1,2.879-.727h1.039v-.484a1.393,1.393,0,0,0-.3-.937,1.183,1.183,0,0,0-.949-.352,1.345,1.345,0,0,0-.895.273.929.929,0,0,0-.324.75H8.883a2.268,2.268,0,0,1,.453-1.359,3,3,0,0,1,1.281-.98,4.669,4.669,0,0,1,1.859-.355,3.689,3.689,0,0,1,2.48.785,2.747,2.747,0,0,1,.918,2.207v3.664a4.041,4.041,0,0,0,.336,1.82V0ZM12.063-1.57a1.945,1.945,0,0,0,.922-.223,1.462,1.462,0,0,0,.625-.6V-3.844h-.844q-1.7,0-1.8,1.172l-.008.133a.9.9,0,0,0,.3.7A1.153,1.153,0,0,0,12.063-1.57Zm10.125-.766a.727.727,0,0,0-.41-.652,4.659,4.659,0,0,0-1.316-.426q-3.016-.633-3.016-2.562a2.323,2.323,0,0,1,.934-1.879,3.766,3.766,0,0,1,2.441-.754,4.053,4.053,0,0,1,2.574.758,2.388,2.388,0,0,1,.965,1.969H22.1a1.092,1.092,0,0,0-.312-.8A1.322,1.322,0,0,0,20.813-7a1.351,1.351,0,0,0-.883.258.814.814,0,0,0-.312.656.7.7,0,0,0,.355.605,3.657,3.657,0,0,0,1.2.4,9.8,9.8,0,0,1,1.422.379A2.336,2.336,0,0,1,24.383-2.43a2.2,2.2,0,0,1-.992,1.871,4.28,4.28,0,0,1-2.562.715,4.47,4.47,0,0,1-1.887-.379,3.166,3.166,0,0,1-1.293-1.039,2.414,2.414,0,0,1-.469-1.426H19.32a1.179,1.179,0,0,0,.445.922,1.766,1.766,0,0,0,1.109.32,1.635,1.635,0,0,0,.98-.246A.766.766,0,0,0,22.188-2.336Z" transform="translate(1131.871 9083.337)"/>
  </g>
</svg>
