<svg xmlns="http://www.w3.org/2000/svg" width="85" height="84.973" viewBox="0 0 85 84.973">
  <g id="_18" data-name="18" transform="translate(-731.081 -341.556)">
    <path id="Trazado_194464" data-name="Trazado 194464" d="M747.724,393.639c-1.493,0-2.737.009-3.981,0a4.123,4.123,0,0,1-4.431-4.463c-.01-1.37,0-2.74,0-4.11,0-3.287.885-4.437,4.063-5.229v-5.3c-.215-.047-.446-.1-.678-.148a4,4,0,0,1-3.354-3.8c-.072-1.976-.069-3.958,0-5.935a4,4,0,0,1,3.33-3.822c.234-.048.467-.1.714-.151v-5.336l-.645-.13a4.033,4.033,0,0,1-3.409-3.947q-.076-2.829,0-5.661a4.029,4.029,0,0,1,4.117-4.023c1.978-.039,3.958-.01,5.937-.011h34.436c3.279,0,4.831,1.542,4.836,4.793q0,1.963,0,3.927c0,3.116-1,4.379-4.113,5.079v5.175a14.27,14.27,0,0,1,2.281.932,3.891,3.891,0,0,1,1.829,3.48c.005,1.7.014,3.41,0,5.114a4.1,4.1,0,0,1-3.684,4.366c-.116.022-.229.058-.381.1v5.145c.9.425,1.731.842,2.584,1.2.218.092.512-.012.77,0a13.936,13.936,0,0,1,2.847.206c1.306.35,2.323.054,2.843-1.176a4.452,4.452,0,0,1,2.608-2.526,1.11,1.11,0,0,0,.6-.8c.032-7.58.025-15.16.021-22.74a5.086,5.086,0,0,0-.1-.609l-5.659,5.913-1.718-2.139,8.954-8.875,8.953,8.944-1.844,1.752-5.394-5.66-.378.215c-.021.3-.06.608-.06.912q-.006,11-.013,22.009c0,.62.109.982.792,1.184a3.808,3.808,0,0,1,2.383,2.246,2.046,2.046,0,0,0,2.985,1.274,4.143,4.143,0,0,1,4.5.837c.34.3.657.634.975.962a4.2,4.2,0,0,1,.951,4.788,1.99,1.99,0,0,0,1.1,2.776c2.128.9,2.812,2.562,2.789,4.755a4.419,4.419,0,0,1-2.759,4.5,2,2,0,0,0-1.148,2.759,4.2,4.2,0,0,1-.978,4.86c-.278.282-.553.567-.843.837a4.061,4.061,0,0,1-4.636.876,2.209,2.209,0,0,0-2.158.193,1.326,1.326,0,0,0-.4,2.033,9.59,9.59,0,0,1-7.249,15.316c-.242.016-.487.022-.73.022q-25.8,0-51.608-.007a12.32,12.32,0,0,1-1.6-24.556,1.207,1.207,0,0,0,1.191-.964,18.636,18.636,0,0,1,3.936-6.623C747.256,394.2,747.4,394.017,747.724,393.639Zm28.1,6.2a15.023,15.023,0,0,0-3.512-4.663c-9.113-8.439-24.069-3.859-27.037,8.283-.171.7-.231,1.255-1.271,1.2a9.559,9.559,0,1,0-.494,19.1q25.943.063,51.886.008a6.819,6.819,0,0,0,4.9-11.686,6.7,6.7,0,0,0-7.6-1.406c-.415.16-.825.333-1.278.516-1.726-6.033-5.445-9.7-11.825-9.212s-9.51,4.634-10.253,10.775H766.7C767.04,406.476,770.165,402.29,775.827,399.837ZM763.98,344.314q-10.049,0-20.1,0c-1.382,0-1.813.431-1.822,1.8-.009,1.583-.015,3.166,0,4.749.014,1.191.477,1.658,1.681,1.659q20.235.011,40.47,0c1.2,0,1.668-.469,1.683-1.658.019-1.522.008-3.045,0-4.567,0-1.61-.378-1.982-2.006-1.982Q773.938,344.311,763.98,344.314Zm.092,19.182q-10.095,0-20.189,0c-1.383,0-1.813.431-1.822,1.8-.009,1.583-.015,3.166,0,4.749.014,1.191.477,1.659,1.681,1.659q20.235.011,40.47,0c1.2,0,1.669-.469,1.683-1.658.019-1.522.008-3.045,0-4.567,0-1.61-.378-1.982-2.006-1.982Q773.984,363.494,764.072,363.5Zm13.9,27.394c2.07,0,4.141.01,6.21,0,1.247-.008,1.7-.469,1.712-1.722q.021-2.374,0-4.748c-.01-1.265-.458-1.734-1.7-1.734q-20.229-.01-40.458,0c-1.2,0-1.665.467-1.679,1.66-.018,1.582-.013,3.165,0,4.748.008,1.365.44,1.792,1.821,1.8,2.161.008,4.324.035,6.484-.019a4.335,4.335,0,0,0,1.807-.453c5.26-2.689,10.711-3.163,16.126-.827a15.589,15.589,0,0,0,7.122,1.307C776.27,390.859,777.124,390.891,777.976,390.891Zm22.417,17.791c1.819-2.575,3.537-3.174,6.386-2.225,1.164.388,1.716-.436,2.4-1.072a1.688,1.688,0,0,0,.421-2.061,4.661,4.661,0,0,1,2.5-6.145,2.533,2.533,0,0,0-.022-4.353,4.619,4.619,0,0,1-2.53-5.983,1.988,1.988,0,0,0-.571-2.436,2.1,2.1,0,0,0-2.564-.717,4.614,4.614,0,0,1-5.988-2.511,1.972,1.972,0,0,0-2.165-1.255c-.985.005-1.75.159-2.191,1.214a4.7,4.7,0,0,1-6.062,2.566,9.543,9.543,0,0,0-1.356-.281c0,1.941,0,3.7,0,5.458,0,3.127-1.47,4.64-4.593,4.769a1.111,1.111,0,0,0-.733.222,2.623,2.623,0,0,0,.84,3.177,4.835,4.835,0,0,1,2.945,3.368,1.5,1.5,0,0,0,.54.778,14.217,14.217,0,0,1,5.212,5.855.974.974,0,0,0,.8.435A9.911,9.911,0,0,1,800.393,408.682ZM746.2,360.673h35.536V355.35H746.2ZM781.76,374.53H746.224v5.328H781.76ZM775.1,393.7c1.123,1.725,2.205,3.4,3.307,5.066.117.177.34.395.52.4,1.012.039,2.026.019,3.039.019-1.741-1.531-1.583-3.528-1.547-5.487Z" transform="translate(0 0)"/>
    <path id="Trazado_194465" data-name="Trazado 194465" d="M778.124,440.83c-5.661,2.453-8.787,6.639-9.132,12.916h2.648c.743-6.141,3.883-10.29,10.253-10.775s10.1,3.179,11.825,9.212c.453-.183.863-.356,1.278-.516a6.869,6.869,0,0,1,9.152,8.821,6.808,6.808,0,0,1-6.452,4.271q-25.943.025-51.886-.008a9.559,9.559,0,1,1,.494-19.1c1.039.052,1.1-.5,1.271-1.2,2.968-12.143,17.924-16.723,27.037-8.283A15.025,15.025,0,0,1,778.124,440.83Zm-14.667-6.093c-5.5-.7-12.827,5.154-13.163,10.574l2.52.568c.119-.388.189-.652.28-.908a10.85,10.85,0,0,1,8.507-7.431c.633-.131,1.574-.056,1.824-.437.324-.494.1-1.348.1-2.047A1.656,1.656,0,0,0,763.457,434.737Zm19.309,13.569a5.706,5.706,0,0,1,3.8,1.611,5.621,5.621,0,0,1,1.651,3.843h2.6c.6-3.967-4.162-8.718-8.05-8.031Z" transform="translate(-2.297 -40.992)" fill="#b9ddfc"/>
    <path id="Trazado_194466" data-name="Trazado 194466" d="M773.1,346.606q9.957,0,19.915,0c1.628,0,2,.372,2.006,1.982,0,1.522.014,3.045,0,4.567-.015,1.189-.48,1.657-1.683,1.658q-20.235.011-40.47,0c-1.2,0-1.668-.468-1.681-1.659-.018-1.583-.012-3.167,0-4.749.009-1.366.44-1.8,1.822-1.8Q763.051,346.6,773.1,346.606Zm5.511,5.4h2.654v-2.593h-2.654Zm5.512-2.623v2.622h2.622v-2.622Zm5.451,2.62h2.651V349.42h-2.651Z" transform="translate(-9.12 -2.292)" fill="#ffb30b"/>
    <path id="Trazado_194467" data-name="Trazado 194467" d="M773.192,381.736q9.911,0,19.824,0c1.628,0,2,.372,2.006,1.982,0,1.522.014,3.045,0,4.567-.015,1.189-.48,1.657-1.683,1.658q-20.235.011-40.47,0c-1.2,0-1.667-.468-1.681-1.659-.018-1.583-.012-3.167,0-4.75.009-1.366.44-1.8,1.822-1.8Q763.1,381.731,773.192,381.736Zm-16.567,2.815h-2.648v2.583h2.648Zm2.821,2.6h2.609v-2.609h-2.609Zm5.492-2.631v2.622h2.622v-2.622Z" transform="translate(-9.12 -18.24)" fill="#ffb30b"/>
    <path id="Trazado_194468" data-name="Trazado 194468" d="M787.1,425.079c-.852,0-1.706-.033-2.557.007a15.589,15.589,0,0,1-7.121-1.307c-5.415-2.337-10.866-1.863-16.126.827a4.336,4.336,0,0,1-1.807.453c-2.16.054-4.323.027-6.484.019-1.381-.005-1.813-.432-1.821-1.8-.01-1.582-.015-3.165,0-4.748.014-1.194.476-1.66,1.679-1.66q20.229-.01,40.458,0c1.241,0,1.688.469,1.7,1.734q.02,2.374,0,4.748c-.011,1.253-.466,1.714-1.712,1.722C791.237,425.088,789.167,425.078,787.1,425.079Zm-8.437-5.447v2.65h2.587v-2.65Zm5.485,0v2.654h2.589v-2.654Zm8.146.025h-2.672v2.628h2.62c.02-.322.047-.587.05-.852C792.295,420.866,792.29,420.3,792.29,419.659Z" transform="translate(-9.12 -34.188)" fill="#ffb30b"/>
    <path id="Trazado_194469" data-name="Trazado 194469" d="M843.617,440.578a9.911,9.911,0,0,0-6.736-1.2.974.974,0,0,1-.8-.435,14.216,14.216,0,0,0-5.212-5.855,1.5,1.5,0,0,1-.54-.778,4.835,4.835,0,0,0-2.945-3.368,2.623,2.623,0,0,1-.84-3.177,1.111,1.111,0,0,1,.733-.222c3.123-.129,4.588-1.642,4.593-4.769,0-1.759,0-3.518,0-5.458a9.542,9.542,0,0,1,1.356.281,4.7,4.7,0,0,0,6.062-2.566c.442-1.055,1.206-1.208,2.191-1.214a1.972,1.972,0,0,1,2.164,1.255,4.614,4.614,0,0,0,5.988,2.511,2.1,2.1,0,0,1,2.564.717,1.988,1.988,0,0,1,.571,2.436,4.619,4.619,0,0,0,2.53,5.983,2.533,2.533,0,0,1,.022,4.353,4.661,4.661,0,0,0-2.5,6.145,1.688,1.688,0,0,1-.42,2.061c-.681.637-1.234,1.46-2.4,1.072C847.153,437.4,845.435,438,843.617,440.578Zm-2.143-4.089a9.587,9.587,0,1,0-9.6-9.578A9.6,9.6,0,0,0,841.473,436.49Z" transform="translate(-43.223 -31.896)" fill="#084a93"/>
    <path id="Trazado_194470" data-name="Trazado 194470" d="M758.768,372.141v-5.323H794.3v5.323Z" transform="translate(-12.569 -11.468)" fill="#c58f15"/>
    <path id="Trazado_194471" data-name="Trazado 194471" d="M794.349,401.943v5.328H758.812v-5.328Z" transform="translate(-12.588 -27.413)" fill="#c58f15"/>
    <path id="Trazado_194472" data-name="Trazado 194472" d="M811.7,437.057h5.32c-.037,1.959-.194,3.956,1.547,5.487-1.013,0-2.027.02-3.039-.019-.181-.007-.4-.224-.52-.4C813.907,440.459,812.825,438.782,811.7,437.057Z" transform="translate(-36.598 -43.354)" fill="#fff"/>
    <path id="Trazado_194473" data-name="Trazado 194473" d="M775.223,437.084a1.659,1.659,0,0,1,.071.319c0,.7.22,1.553-.1,2.047-.25.381-1.19.306-1.824.437a10.85,10.85,0,0,0-8.507,7.431c-.091.256-.161.52-.28.908l-2.52-.568C762.4,442.238,769.724,436.383,775.223,437.084Z" transform="translate(-14.063 -43.34)"/>
    <path id="Trazado_194474" data-name="Trazado 194474" d="M821.528,459.783v-2.577c3.887-.687,8.653,4.064,8.05,8.031h-2.6a5.621,5.621,0,0,0-1.651-3.843A5.705,5.705,0,0,0,821.528,459.783Z" transform="translate(-41.059 -52.47)"/>
    <path id="Trazado_194475" data-name="Trazado 194475" d="M801.423,354.346v-2.593h2.654v2.593Z" transform="translate(-31.932 -4.629)"/>
    <path id="Trazado_194476" data-name="Trazado 194476" d="M811.518,351.7h2.621v2.622h-2.621Z" transform="translate(-36.515 -4.604)"/>
    <path id="Trazado_194477" data-name="Trazado 194477" d="M821.5,354.345v-2.586h2.651v2.586Z" transform="translate(-41.047 -4.632)"/>
    <path id="Trazado_194478" data-name="Trazado 194478" d="M758.958,386.892v2.583H756.31v-2.583Z" transform="translate(-11.453 -20.581)"/>
    <path id="Trazado_194479" data-name="Trazado 194479" d="M766.325,389.477v-2.609h2.609v2.609Z" transform="translate(-15.999 -20.57)"/>
    <path id="Trazado_194480" data-name="Trazado 194480" d="M776.382,386.827H779v2.622h-2.622Z" transform="translate(-20.565 -20.551)"/>
    <path id="Trazado_194481" data-name="Trazado 194481" d="M801.511,421.931H804.1v2.65h-2.587Z" transform="translate(-31.972 -36.487)"/>
    <path id="Trazado_194482" data-name="Trazado 194482" d="M811.556,421.936h2.589v2.654h-2.589Z" transform="translate(-36.532 -36.489)"/>
    <path id="Trazado_194483" data-name="Trazado 194483" d="M824.252,421.981c0,.639,0,1.207,0,1.776,0,.265-.031.53-.05.852h-2.62v-2.628Z" transform="translate(-41.082 -36.51)"/>
    <path id="Trazado_194484" data-name="Trazado 194484" d="M846.111,441.059a9.587,9.587,0,1,1,9.578-9.6A9.609,9.609,0,0,1,846.111,441.059Zm.014-2.748a6.839,6.839,0,1,0-6.864-6.839A6.832,6.832,0,0,0,846.125,438.311Z" transform="translate(-47.861 -36.466)"/>
    <path id="Trazado_194485" data-name="Trazado 194485" d="M848.411,440.6a6.839,6.839,0,1,1,6.815-6.887A6.836,6.836,0,0,1,848.411,440.6Zm-.056-2.732a4.107,4.107,0,1,0-4.075-4.162A4.1,4.1,0,0,0,848.354,437.863Z" transform="translate(-50.147 -38.751)" fill="#b9ddfc"/>
    <path id="Trazado_194486" data-name="Trazado 194486" d="M850.626,440.134a4.107,4.107,0,1,1,4.137-4.1A4.1,4.1,0,0,1,850.626,440.134Zm.028-5.456A1.349,1.349,0,1,0,852.006,436,1.341,1.341,0,0,0,850.654,434.679Z" transform="translate(-52.418 -41.022)"/>
    <path id="Trazado_194487" data-name="Trazado 194487" d="M852.948,436.972a1.349,1.349,0,1,1-1.343,1.33A1.341,1.341,0,0,1,852.948,436.972Z" transform="translate(-54.712 -43.315)" fill="#fff"/>
  </g>
</svg>
