<svg xmlns="http://www.w3.org/2000/svg" width="505.449" height="246.383" viewBox="0 0 505.449 246.383">
  <g id="_20" data-name="20" transform="translate(-180 -10210.904)">
    <path id="Rectángulo_293621" data-name="Rectángulo 293621" d="M0,0H504.369V59.413H0Z" transform="translate(180.461 10263.501)" fill="#e3e3e3"/>
    <path id="Línea_338" data-name="Línea 338" d="M504.872,0H0" transform="translate(180 10366.258)" fill="none" stroke="#d9d9d9" stroke-width="0.572"/>
    <path id="Línea_339" data-name="Línea 339" d="M504.872,0H0" transform="translate(180 10408.312)" fill="none" stroke="#d9d9d9" stroke-width="0.572"/>
    <path id="Línea_337" data-name="Línea 337" d="M0,0V144.81" transform="translate(180.546 10263.501)" fill="none" stroke="#d9d9d9" stroke-width="0.898"/>
    <path id="Línea_337-2" data-name="Línea 337" d="M0,0V144.81" transform="translate(685 10263.501)" fill="none" stroke="#d9d9d9" stroke-width="0.898"/>
    <path id="Rectángulo_293620" data-name="Rectángulo 293620" d="M0,0H504.369V3.11H0Z" transform="translate(180 10260.392)" fill="#fda000"/>
    <path id="Trazado_194754" data-name="Trazado 194754" d="M-18.443-4.5a4.78,4.78,0,0,1-1.61,3.433A5.653,5.653,0,0,1-23.88.186a5.083,5.083,0,0,1-4.087-1.749,7.171,7.171,0,0,1-1.489-4.8V-7.19a8.1,8.1,0,0,1,.687-3.433A5.145,5.145,0,0,1-26.807-12.9a5.5,5.5,0,0,1,2.964-.793,5.507,5.507,0,0,1,3.767,1.252,5.137,5.137,0,0,1,1.651,3.516h-2.783a2.821,2.821,0,0,0-.728-1.9,2.7,2.7,0,0,0-1.906-.589,2.365,2.365,0,0,0-2.083,1,5.589,5.589,0,0,0-.71,3.094V-6.3a5.982,5.982,0,0,0,.663,3.2A2.321,2.321,0,0,0-23.88-2.087a2.748,2.748,0,0,0,1.925-.589A2.661,2.661,0,0,0-21.227-4.5Zm1.234-.612a5.953,5.953,0,0,1,.575-2.663,4.211,4.211,0,0,1,1.656-1.809,4.831,4.831,0,0,1,2.51-.64A4.571,4.571,0,0,1-9.152-8.98,4.989,4.989,0,0,1-7.719-5.6l.019.687A5.247,5.247,0,0,1-8.99-1.211a4.482,4.482,0,0,1-3.46,1.4,4.5,4.5,0,0,1-3.465-1.392,5.339,5.339,0,0,1-1.294-3.785Zm2.681.19a3.752,3.752,0,0,0,.538,2.188,1.775,1.775,0,0,0,1.54.757,1.779,1.779,0,0,0,1.521-.748,4.106,4.106,0,0,0,.547-2.393,3.715,3.715,0,0,0-.547-2.174,1.779,1.779,0,0,0-1.54-.771A1.75,1.75,0,0,0-13.99-7.3,4.175,4.175,0,0,0-14.528-4.921Zm2.588-9.329h2.922l-2.57,2.876h-2.18Zm5.474,9.157A6.049,6.049,0,0,1-5.413-8.832a3.417,3.417,0,0,1,2.881-1.392A3.074,3.074,0,0,1-.111-9.129V-14.25h2.69V0H.158L.028-1.067A3.155,3.155,0,0,1-2.551.186a3.407,3.407,0,0,1-2.844-1.4A6.244,6.244,0,0,1-6.466-5.093Zm2.681.2a3.963,3.963,0,0,0,.492,2.165,1.6,1.6,0,0,0,1.429.753A1.794,1.794,0,0,0-.111-3.026V-6.994a1.768,1.768,0,0,0-1.735-1.05Q-3.785-8.043-3.785-4.894ZM7.487,0H4.8V-10.038h2.69ZM4.639-12.636a1.32,1.32,0,0,1,.4-.993,1.516,1.516,0,0,1,1.1-.39,1.52,1.52,0,0,1,1.095.39,1.313,1.313,0,0,1,.408.993,1.316,1.316,0,0,1-.413,1,1.523,1.523,0,0,1-1.09.39,1.523,1.523,0,0,1-1.09-.39A1.316,1.316,0,0,1,4.639-12.636ZM9.305-5.093a5.883,5.883,0,0,1,1.1-3.72,3.562,3.562,0,0,1,2.964-1.41,3.124,3.124,0,0,1,2.57,1.132l.111-.946H18.48v9.7a4.29,4.29,0,0,1-.6,2.292A3.843,3.843,0,0,1,16.2,3.442a5.919,5.919,0,0,1-2.542.51A5.5,5.5,0,0,1,11.5,3.511,3.82,3.82,0,0,1,9.917,2.375L11.1.742a3.141,3.141,0,0,0,2.431,1.123A2.3,2.3,0,0,0,15.2,1.294,2.14,2.14,0,0,0,15.79-.325V-.863A3.1,3.1,0,0,1,13.35.186a3.553,3.553,0,0,1-2.927-1.415A5.881,5.881,0,0,1,9.305-4.982Zm2.681.2a3.663,3.663,0,0,0,.547,2.142,1.741,1.741,0,0,0,1.5.776A1.862,1.862,0,0,0,15.79-2.9V-7.124a1.857,1.857,0,0,0-1.735-.92,1.752,1.752,0,0,0-1.517.79A4.129,4.129,0,0,0,11.986-4.894Zm8.136-.218A5.953,5.953,0,0,1,20.7-7.774a4.211,4.211,0,0,1,1.656-1.809,4.831,4.831,0,0,1,2.51-.64A4.571,4.571,0,0,1,28.18-8.98,4.989,4.989,0,0,1,29.613-5.6l.019.687a5.247,5.247,0,0,1-1.29,3.706,4.482,4.482,0,0,1-3.46,1.4,4.5,4.5,0,0,1-3.465-1.392,5.339,5.339,0,0,1-1.294-3.785Zm2.681.19a3.752,3.752,0,0,0,.538,2.188,1.775,1.775,0,0,0,1.54.757A1.779,1.779,0,0,0,26.4-2.724a4.106,4.106,0,0,0,.547-2.393A3.715,3.715,0,0,0,26.4-7.291a1.779,1.779,0,0,0-1.54-.771,1.75,1.75,0,0,0-1.521.767A4.175,4.175,0,0,0,22.8-4.921Z" transform="translate(253.612 10300.313)" fill="#0c1d30"/>
    <path id="Trazado_194755" data-name="Trazado 194755" d="M-16.249-3.349l3.062-10.159h3.1L-14.793,0h-2.9l-4.685-13.508h3.089ZM-3.6,0a2.977,2.977,0,0,1-.269-.9A3.244,3.244,0,0,1-6.406.186,3.564,3.564,0,0,1-8.851-.668,2.745,2.745,0,0,1-9.82-2.82,2.837,2.837,0,0,1-8.637-5.27a5.837,5.837,0,0,1,3.419-.863h1.234v-.575a1.654,1.654,0,0,0-.357-1.113,1.405,1.405,0,0,0-1.127-.417,1.6,1.6,0,0,0-1.062.325,1.1,1.1,0,0,0-.385.891H-9.6a2.693,2.693,0,0,1,.538-1.614A3.557,3.557,0,0,1-7.538-9.8a5.545,5.545,0,0,1,2.208-.422,4.381,4.381,0,0,1,2.946.932A3.262,3.262,0,0,1-1.294-6.67v4.351A4.8,4.8,0,0,0-.9-.158V0ZM-5.822-1.865a2.309,2.309,0,0,0,1.095-.264,1.737,1.737,0,0,0,.742-.71V-4.564h-1Q-7-4.564-7.13-3.173l-.009.158a1.073,1.073,0,0,0,.353.826A1.369,1.369,0,0,0-5.822-1.865ZM3.595,0H.9V-14.25h2.69ZM5.385-5.112a5.953,5.953,0,0,1,.575-2.663A4.211,4.211,0,0,1,7.617-9.583a4.831,4.831,0,0,1,2.51-.64A4.571,4.571,0,0,1,13.443-8.98,4.989,4.989,0,0,1,14.876-5.6l.019.687a5.247,5.247,0,0,1-1.29,3.706,4.482,4.482,0,0,1-3.46,1.4A4.5,4.5,0,0,1,6.68-1.206,5.339,5.339,0,0,1,5.385-4.991Zm2.681.19A3.752,3.752,0,0,0,8.6-2.733a1.775,1.775,0,0,0,1.54.757,1.779,1.779,0,0,0,1.521-.748,4.106,4.106,0,0,0,.547-2.393,3.715,3.715,0,0,0-.547-2.174,1.779,1.779,0,0,0-1.54-.771A1.75,1.75,0,0,0,8.6-7.3,4.175,4.175,0,0,0,8.067-4.921Zm14.12-2.6a7.284,7.284,0,0,0-.965-.074,1.964,1.964,0,0,0-1.995,1.03V0H16.546V-10.038h2.533l.074,1.2a2.484,2.484,0,0,1,2.236-1.382,2.809,2.809,0,0,1,.835.121Z" transform="translate(598.597 10300.393)" fill="#0c1d30"/>
    <path id="Trazado_194756" data-name="Trazado 194756" d="M-23.13,0h-2.93l-5.7-9.355V0h-2.93V-14.219h2.93l5.713,9.375v-9.375h2.92ZM-21.2-5.381a6.266,6.266,0,0,1,.605-2.8,4.432,4.432,0,0,1,1.743-1.9,5.086,5.086,0,0,1,2.642-.674,4.812,4.812,0,0,1,3.491,1.309A5.252,5.252,0,0,1-11.206-5.9l.02.723a5.523,5.523,0,0,1-1.357,3.9A4.718,4.718,0,0,1-16.187.2,4.742,4.742,0,0,1-19.834-1.27,5.62,5.62,0,0,1-21.2-5.254Zm2.822.2a3.95,3.95,0,0,0,.566,2.3,1.868,1.868,0,0,0,1.621.8,1.873,1.873,0,0,0,1.6-.787,4.322,4.322,0,0,0,.576-2.518,3.91,3.91,0,0,0-.576-2.289,1.873,1.873,0,0,0-1.621-.812,1.842,1.842,0,0,0-1.6.807A4.395,4.395,0,0,0-18.374-5.181ZM-6.8-10.566l.088,1.182a3.713,3.713,0,0,1,3.037-1.377A2.818,2.818,0,0,1-.874-9.15,3.628,3.628,0,0,1,2.3-10.762a3.152,3.152,0,0,1,2.559,1A4.6,4.6,0,0,1,5.7-6.748V0H2.866V-6.738a2.012,2.012,0,0,0-.352-1.313,1.558,1.558,0,0,0-1.24-.415A1.761,1.761,0,0,0-.483-7.256L-.474,0H-3.3V-6.729a1.988,1.988,0,0,0-.361-1.328,1.573,1.573,0,0,0-1.23-.41,1.829,1.829,0,0,0-1.738,1V0H-9.448V-10.566ZM17.388-5.186A6.4,6.4,0,0,1,16.3-1.226,3.591,3.591,0,0,1,13.276.2a3.3,3.3,0,0,1-2.744-1.318L10.405,0H7.866V-15h2.822v5.381a3.214,3.214,0,0,1,2.568-1.143,3.62,3.62,0,0,1,3.032,1.421,6.408,6.408,0,0,1,1.1,4Zm-2.822-.205a4.2,4.2,0,0,0-.508-2.339,1.717,1.717,0,0,0-1.514-.737,1.862,1.862,0,0,0-1.855,1.1v4.17A1.887,1.887,0,0,0,12.563-2.08a1.742,1.742,0,0,0,1.8-1.348A6.952,6.952,0,0,0,14.565-5.391Zm10.5-2.529A7.667,7.667,0,0,0,24.048-8a2.067,2.067,0,0,0-2.1,1.084V0H19.126V-10.566h2.666l.078,1.26a2.615,2.615,0,0,1,2.354-1.455,2.957,2.957,0,0,1,.879.127ZM31.1.2A5.187,5.187,0,0,1,27.314-1.23a5.068,5.068,0,0,1-1.46-3.8V-5.3a6.383,6.383,0,0,1,.615-2.847,4.515,4.515,0,0,1,1.743-1.934,4.893,4.893,0,0,1,2.573-.679A4.385,4.385,0,0,1,34.2-9.395a5.555,5.555,0,0,1,1.245,3.877v1.152H28.716a2.622,2.622,0,0,0,.825,1.66,2.5,2.5,0,0,0,1.743.625,3.046,3.046,0,0,0,2.549-1.182L35.22-1.709A4.237,4.237,0,0,1,33.5-.308,5.639,5.639,0,0,1,31.1.2Zm-.322-8.682a1.764,1.764,0,0,0-1.362.569,2.946,2.946,0,0,0-.669,1.628h3.926v-.226a2.1,2.1,0,0,0-.508-1.457A1.819,1.819,0,0,0,30.776-8.486Z" transform="translate(432.054 10301.312)" fill="#0c1d30"/>
    <path id="Trazado_194757" data-name="Trazado 194757" d="M-71.27-4.512A5.231,5.231,0,0,1-72.935-1.03,5.457,5.457,0,0,1-76.66.2,5.01,5.01,0,0,1-80.7-1.611a7.268,7.268,0,0,1-1.519-4.834V-7.812a8.1,8.1,0,0,1,.708-3.486,5.289,5.289,0,0,1,2.007-2.31,5.588,5.588,0,0,1,3.008-.806,5.138,5.138,0,0,1,3.633,1.265,5.294,5.294,0,0,1,1.592,3.5h-1.885a4.085,4.085,0,0,0-1.06-2.468,3.206,3.206,0,0,0-2.28-.764,3.355,3.355,0,0,0-2.817,1.329,6.1,6.1,0,0,0-1.021,3.782v1.378a6.273,6.273,0,0,0,.967,3.685A3.124,3.124,0,0,0-76.66-1.338a3.608,3.608,0,0,0,2.4-.708,3.929,3.929,0,0,0,1.108-2.466Zm8.8,3.467A3.837,3.837,0,0,1-65.566.2,3.285,3.285,0,0,1-68.14-.786a4.248,4.248,0,0,1-.894-2.905v-6.875h1.807V-3.74q0,2.4,1.953,2.4A2.7,2.7,0,0,0-62.52-2.881v-7.686h1.807V0h-1.719ZM-51.445,0A3.8,3.8,0,0,1-51.7-1.113,4.031,4.031,0,0,1-54.707.2a3.73,3.73,0,0,1-2.563-.884,2.859,2.859,0,0,1-1-2.241,2.987,2.987,0,0,1,1.255-2.563,5.916,5.916,0,0,1,3.53-.913h1.758v-.83a2.029,2.029,0,0,0-.566-1.509,2.276,2.276,0,0,0-1.67-.562,2.634,2.634,0,0,0-1.621.488,1.439,1.439,0,0,0-.654,1.182h-1.816A2.493,2.493,0,0,1-57.5-9.165a3.832,3.832,0,0,1,1.523-1.167,5.125,5.125,0,0,1,2.114-.43A4.177,4.177,0,0,1-51-9.849a3.294,3.294,0,0,1,1.074,2.515v4.863a5.946,5.946,0,0,0,.371,2.314V0Zm-3-1.377a3.175,3.175,0,0,0,1.611-.439,2.658,2.658,0,0,0,1.1-1.143V-5.127h-1.416q-3.32,0-3.32,1.943A1.645,1.645,0,0,0-55.9-1.855,2.177,2.177,0,0,0-54.443-1.377Zm6.914-3.994a6.19,6.19,0,0,1,1.152-3.911,3.644,3.644,0,0,1,3.018-1.479,3.665,3.665,0,0,1,2.939,1.27V-15h1.807V0h-1.66l-.088-1.133A3.679,3.679,0,0,1-43.379.2a3.609,3.609,0,0,1-2.993-1.5,6.26,6.26,0,0,1-1.157-3.926Zm1.807.205a4.687,4.687,0,0,0,.742,2.813A2.4,2.4,0,0,0-42.93-1.338a2.636,2.636,0,0,0,2.51-1.543V-7.734a2.656,2.656,0,0,0-2.49-1.494A2.411,2.411,0,0,0-44.98-8.2,5.16,5.16,0,0,0-45.723-5.166ZM-31.426.2a4.617,4.617,0,0,1-3.5-1.411A5.237,5.237,0,0,1-36.27-4.99v-.332a6.341,6.341,0,0,1,.6-2.808,4.685,4.685,0,0,1,1.68-1.934,4.223,4.223,0,0,1,2.339-.7,3.957,3.957,0,0,1,3.2,1.357A5.877,5.877,0,0,1-27.3-5.518v.752h-7.158a3.756,3.756,0,0,0,.913,2.524,2.87,2.87,0,0,0,2.222.962,3.147,3.147,0,0,0,1.621-.391,4.073,4.073,0,0,0,1.162-1.035l1.1.859A4.437,4.437,0,0,1-31.426.2Zm-.225-9.473a2.41,2.41,0,0,0-1.836.8A3.868,3.868,0,0,0-34.4-6.25h5.293v-.137a3.441,3.441,0,0,0-.742-2.134A2.269,2.269,0,0,0-31.65-9.277Zm11.543.332A5.414,5.414,0,0,0-21-9.014,2.381,2.381,0,0,0-23.408-7.5V0h-1.807V-10.566h1.758l.029,1.221a2.813,2.813,0,0,1,2.52-1.416,1.846,1.846,0,0,1,.8.137Zm3.369-1.621.059,1.328a3.85,3.85,0,0,1,3.164-1.523q3.35,0,3.379,3.779V0h-1.807V-6.992a2.432,2.432,0,0,0-.522-1.689,2.094,2.094,0,0,0-1.6-.547,2.607,2.607,0,0,0-1.543.469,3.183,3.183,0,0,0-1.035,1.23V0h-1.807V-10.566Zm8.848,5.186a6.241,6.241,0,0,1,.61-2.793,4.553,4.553,0,0,1,1.7-1.914A4.626,4.626,0,0,1-3.1-10.762,4.456,4.456,0,0,1,.4-9.268,5.748,5.748,0,0,1,1.729-5.293v.127A6.3,6.3,0,0,1,1.138-2.4,4.486,4.486,0,0,1-.552-.488,4.679,4.679,0,0,1-3.076.2,4.445,4.445,0,0,1-6.558-1.3,5.719,5.719,0,0,1-7.891-5.254Zm1.816.215a4.52,4.52,0,0,0,.815,2.822A2.61,2.61,0,0,0-3.076-1.279,2.594,2.594,0,0,0-.889-2.358,4.943,4.943,0,0,0-.078-5.381,4.513,4.513,0,0,0-.9-8.2,2.623,2.623,0,0,0-3.1-9.277,2.594,2.594,0,0,0-5.254-8.213,4.906,4.906,0,0,0-6.074-5.166ZM9.59-7.129l.723-7.09H17.6v1.67H11.846l-.43,3.877a4.588,4.588,0,0,1,2.373-.615A3.923,3.923,0,0,1,16.875-8a5.033,5.033,0,0,1,1.143,3.472,4.858,4.858,0,0,1-1.187,3.462A4.325,4.325,0,0,1,13.516.2,4.494,4.494,0,0,1,10.439-.85,4.171,4.171,0,0,1,9.082-3.74h1.709A2.869,2.869,0,0,0,11.66-1.9a2.7,2.7,0,0,0,1.855.62,2.438,2.438,0,0,0,1.978-.859,3.593,3.593,0,0,0,.718-2.373,3.3,3.3,0,0,0-.776-2.29,2.641,2.641,0,0,0-2.065-.864,2.978,2.978,0,0,0-1.855.518l-.479.391ZM28.906-6.064a8.263,8.263,0,0,1-1.084,4.717A3.855,3.855,0,0,1,24.434.2a3.883,3.883,0,0,1-3.369-1.509A7.843,7.843,0,0,1,19.932-5.82V-8.232a8.079,8.079,0,0,1,1.084-4.658,3.885,3.885,0,0,1,3.4-1.523,3.92,3.92,0,0,1,3.379,1.47,7.8,7.8,0,0,1,1.113,4.536ZM27.1-8.535a6.62,6.62,0,0,0-.645-3.345,2.218,2.218,0,0,0-2.041-1.05,2.189,2.189,0,0,0-2.021,1.045,6.464,6.464,0,0,0-.654,3.213v2.891a6.726,6.726,0,0,0,.669,3.4,2.214,2.214,0,0,0,2.026,1.1,2.184,2.184,0,0,0,1.987-1.035A6.483,6.483,0,0,0,27.1-5.576Zm11.064-.752a3.841,3.841,0,0,1,3.125-1.475q3.35,0,3.379,3.779V0H42.861V-6.992a2.432,2.432,0,0,0-.522-1.689,2.094,2.094,0,0,0-1.6-.547A2.607,2.607,0,0,0,39.2-8.76a3.183,3.183,0,0,0-1.035,1.23V0H36.357V-15h1.807Zm8.73,3.906a6.241,6.241,0,0,1,.61-2.793,4.553,4.553,0,0,1,1.7-1.914,4.626,4.626,0,0,1,2.485-.674,4.456,4.456,0,0,1,3.491,1.494,5.748,5.748,0,0,1,1.333,3.975v.127A6.3,6.3,0,0,1,55.923-2.4,4.486,4.486,0,0,1,54.233-.488,4.679,4.679,0,0,1,51.709.2,4.445,4.445,0,0,1,48.228-1.3a5.719,5.719,0,0,1-1.333-3.955Zm1.816.215a4.52,4.52,0,0,0,.815,2.822,2.61,2.61,0,0,0,2.183,1.064A2.594,2.594,0,0,0,53.9-2.358a4.943,4.943,0,0,0,.811-3.022A4.513,4.513,0,0,0,53.882-8.2a2.623,2.623,0,0,0-2.192-1.079,2.594,2.594,0,0,0-2.158,1.064A4.906,4.906,0,0,0,48.711-5.166Zm11.934-5.4V1.221q0,3.047-2.764,3.047a3.371,3.371,0,0,1-1.1-.175V2.656a3.493,3.493,0,0,0,.82.078,1.227,1.227,0,0,0,.923-.327,1.619,1.619,0,0,0,.317-1.139V-10.566Zm-1.992-2.8a1.083,1.083,0,0,1,.269-.737.987.987,0,0,1,.786-.308,1.024,1.024,0,0,1,.8.3,1.067,1.067,0,0,1,.273.742,1.032,1.032,0,0,1-.273.732,1.043,1.043,0,0,1-.8.293,1.01,1.01,0,0,1-.791-.293A1.054,1.054,0,0,1,58.652-13.369ZM70.078,0a3.8,3.8,0,0,1-.254-1.113A4.031,4.031,0,0,1,66.816.2a3.73,3.73,0,0,1-2.563-.884,2.859,2.859,0,0,1-1-2.241,2.987,2.987,0,0,1,1.255-2.563,5.916,5.916,0,0,1,3.53-.913h1.758v-.83a2.029,2.029,0,0,0-.566-1.509,2.276,2.276,0,0,0-1.67-.562,2.634,2.634,0,0,0-1.621.488,1.439,1.439,0,0,0-.654,1.182H63.467a2.493,2.493,0,0,1,.562-1.528,3.832,3.832,0,0,1,1.523-1.167,5.125,5.125,0,0,1,2.114-.43,4.177,4.177,0,0,1,2.861.913A3.294,3.294,0,0,1,71.6-7.334v4.863a5.946,5.946,0,0,0,.371,2.314V0Zm-3-1.377a3.175,3.175,0,0,0,1.611-.439,2.658,2.658,0,0,0,1.1-1.143V-5.127H68.379q-3.32,0-3.32,1.943a1.645,1.645,0,0,0,.566,1.328A2.177,2.177,0,0,0,67.08-1.377ZM80.586-2.8a1.33,1.33,0,0,0-.552-1.138,5.311,5.311,0,0,0-1.924-.7,9.1,9.1,0,0,1-2.178-.7,3.1,3.1,0,0,1-1.191-.977,2.336,2.336,0,0,1-.386-1.348,2.741,2.741,0,0,1,1.1-2.2,4.291,4.291,0,0,1,2.808-.9,4.415,4.415,0,0,1,2.915.928,2.947,2.947,0,0,1,1.118,2.373H80.479a1.631,1.631,0,0,0-.63-1.279,2.36,2.36,0,0,0-1.587-.537,2.47,2.47,0,0,0-1.543.43,1.353,1.353,0,0,0-.557,1.123,1.1,1.1,0,0,0,.518.986,6.368,6.368,0,0,0,1.87.635,9.744,9.744,0,0,1,2.192.723A3.2,3.2,0,0,1,81.987-4.37a2.485,2.485,0,0,1,.405,1.44A2.7,2.7,0,0,1,81.26-.659,4.752,4.752,0,0,1,78.32.2a5.321,5.321,0,0,1-2.246-.449,3.653,3.653,0,0,1-1.528-1.255,3.025,3.025,0,0,1-.552-1.743H75.8a1.87,1.87,0,0,0,.728,1.44,2.822,2.822,0,0,0,1.792.532,2.913,2.913,0,0,0,1.646-.415A1.275,1.275,0,0,0,80.586-2.8Z" transform="translate(431.107 10396.836)" fill="#0c1d30"/>
    <path id="Línea_337-3" data-name="Línea 337" d="M0,0V144.81" transform="translate(334.403 10263.501)" fill="none" stroke="#d9d9d9" stroke-width="0.804" style="mix-blend-mode: multiply;isolation: isolate"/>
    <path id="Trazado_194758" data-name="Trazado 194758" d="M-19.264-1.457h6.4V0h-8.192V-13.508h1.791ZM-4.9,0a3.605,3.605,0,0,1-.241-1.058A3.829,3.829,0,0,1-8,.186a3.543,3.543,0,0,1-2.435-.84,2.716,2.716,0,0,1-.951-2.129A2.838,2.838,0,0,1-10.2-5.219a5.621,5.621,0,0,1,3.354-.867h1.67v-.789A1.928,1.928,0,0,0-5.71-8.308,2.163,2.163,0,0,0-7.3-8.841a2.5,2.5,0,0,0-1.54.464,1.367,1.367,0,0,0-.622,1.123h-1.726a2.369,2.369,0,0,1,.533-1.452A3.641,3.641,0,0,1-9.2-9.815a4.869,4.869,0,0,1,2.009-.408,3.968,3.968,0,0,1,2.718.867A3.129,3.129,0,0,1-3.456-6.967v4.62A5.649,5.649,0,0,0-3.1-.148V0ZM-7.751-1.308A3.016,3.016,0,0,0-6.22-1.726,2.525,2.525,0,0,0-5.172-2.811v-2.06H-6.517q-3.154,0-3.154,1.846a1.562,1.562,0,0,0,.538,1.262A2.068,2.068,0,0,0-7.751-1.308ZM-6.165-14.25h2.078l-2.486,2.728-1.382,0ZM7.714-4.908A6.011,6.011,0,0,1,6.666-1.215,3.36,3.36,0,0,1,3.827.186,3.681,3.681,0,0,1,.951-.974V3.859H-.765v-13.9H.8L.886-8.925a3.536,3.536,0,0,1,2.913-1.3A3.423,3.423,0,0,1,6.661-8.86,6.076,6.076,0,0,1,7.714-5.065ZM6-5.1a4.435,4.435,0,0,0-.724-2.681,2.331,2.331,0,0,0-1.985-.983A2.523,2.523,0,0,0,.951-7.385v4.8A2.528,2.528,0,0,0,3.307-1.215,2.32,2.32,0,0,0,5.27-2.194,4.841,4.841,0,0,0,6-5.1ZM11.759,0H10.043V-10.038h1.716ZM9.9-12.7a1.024,1.024,0,0,1,.255-.705.958.958,0,0,1,.756-.288.973.973,0,0,1,.761.288,1.014,1.014,0,0,1,.26.705.98.98,0,0,1-.26.7.99.99,0,0,1-.761.278A.975.975,0,0,1,10.159-12,.991.991,0,0,1,9.9-12.7ZM16.119-1.4h5.873V0H14.023V-1.262l5.539-7.357H14.106v-1.419h7.607v1.215Z" transform="translate(431.672 10354.547)" fill="#0c1d30"/>
    <path id="Línea_337-4" data-name="Línea 337" d="M0,0V144.81" transform="translate(534.139 10263.501)" fill="none" stroke="#d9d9d9" stroke-width="0.804" style="mix-blend-mode: multiply;isolation: isolate"/>
    <path id="Trazado_194759" data-name="Trazado 194759" d="M3.809-7.988H5.166a2.984,2.984,0,0,0,2.012-.674A2.251,2.251,0,0,0,7.91-10.43a2.205,2.205,0,0,0-2.49-2.5,2.59,2.59,0,0,0-1.87.669,2.341,2.341,0,0,0-.7,1.772H1.045A3.627,3.627,0,0,1,2.28-13.3a4.5,4.5,0,0,1,3.14-1.118A4.447,4.447,0,0,1,8.574-13.35a3.845,3.845,0,0,1,1.143,2.959,3.121,3.121,0,0,1-.6,1.8,3.626,3.626,0,0,1-1.636,1.3,3.494,3.494,0,0,1,1.812,1.23,3.417,3.417,0,0,1,.64,2.1A3.879,3.879,0,0,1,8.682-.928,4.681,4.681,0,0,1,5.43.2,4.8,4.8,0,0,1,2.173-.889,3.6,3.6,0,0,1,.918-3.75H2.734a2.324,2.324,0,0,0,.732,1.8,2.786,2.786,0,0,0,1.963.674,2.734,2.734,0,0,0,2-.684,2.634,2.634,0,0,0,.693-1.963,2.391,2.391,0,0,0-.762-1.9,3.319,3.319,0,0,0-2.2-.684H3.809Z" transform="translate(594.903 10396.836)" fill="#0c1d30"/>
    <path id="Trazado_194760" data-name="Trazado 194760" d="M8.271-14.229V-12.7H7.939a4.757,4.757,0,0,0-3.359,1.25A5.2,5.2,0,0,0,3.135-8.037,3.856,3.856,0,0,1,6.2-9.326,3.687,3.687,0,0,1,9.165-8.018a5.047,5.047,0,0,1,1.108,3.379,5.031,5.031,0,0,1-1.2,3.516A4.119,4.119,0,0,1,5.869.2,4.059,4.059,0,0,1,2.559-1.372,6.212,6.212,0,0,1,1.289-5.41V-6.1a9.36,9.36,0,0,1,1.675-6,6.151,6.151,0,0,1,4.985-2.124ZM5.9-7.822a2.882,2.882,0,0,0-1.709.557,2.9,2.9,0,0,0-1.084,1.4v.664A4.664,4.664,0,0,0,3.9-2.373,2.37,2.37,0,0,0,5.869-1.3a2.3,2.3,0,0,0,1.919-.9,3.728,3.728,0,0,0,.7-2.354,3.729,3.729,0,0,0-.708-2.368A2.269,2.269,0,0,0,5.9-7.822Z" transform="translate(594.903 10355.627)" fill="#0c1d30"/>
    <path id="Línea_338-2" data-name="Línea 338" d="M503.533,0H0" transform="translate(180.836 10263.501)" fill="none" stroke="#d9d9d9" stroke-width="0.867" style="mix-blend-mode: multiply;isolation: isolate"/>
    <path id="Trazado_194761" data-name="Trazado 194761" d="M-6.411-5.761A7.85,7.85,0,0,1-7.44-1.28,3.662,3.662,0,0,1-10.66.186a3.689,3.689,0,0,1-3.2-1.433,7.45,7.45,0,0,1-1.076-4.281V-7.821a7.675,7.675,0,0,1,1.03-4.425,3.691,3.691,0,0,1,3.229-1.447,3.724,3.724,0,0,1,3.21,1.4A7.407,7.407,0,0,1-6.411-7.988ZM-8.127-8.108a6.289,6.289,0,0,0-.612-3.177,2.108,2.108,0,0,0-1.939-1,2.08,2.08,0,0,0-1.92.993,6.14,6.14,0,0,0-.622,3.052v2.746a6.39,6.39,0,0,0,.635,3.233A2.1,2.1,0,0,0-10.66-1.215,2.075,2.075,0,0,0-8.772-2.2a6.159,6.159,0,0,0,.645-3.1ZM4.258-5.761A7.85,7.85,0,0,1,3.229-1.28,3.662,3.662,0,0,1,.009.186a3.689,3.689,0,0,1-3.2-1.433A7.45,7.45,0,0,1-4.268-5.529V-7.821a7.675,7.675,0,0,1,1.03-4.425A3.691,3.691,0,0,1-.009-13.693,3.724,3.724,0,0,1,3.2-12.3,7.407,7.407,0,0,1,4.258-7.988ZM2.542-8.108a6.289,6.289,0,0,0-.612-3.177,2.108,2.108,0,0,0-1.939-1,2.08,2.08,0,0,0-1.92.993,6.14,6.14,0,0,0-.622,3.052v2.746a6.39,6.39,0,0,0,.635,3.233A2.1,2.1,0,0,0,.009-1.215,2.075,2.075,0,0,0,1.9-2.2a6.159,6.159,0,0,0,.645-3.1ZM12.1,0H10.372V-11.439l-3.46,1.271v-1.559l4.917-1.846H12.1Z" transform="translate(254.753 10354.547)" fill="#0c1d30"/>
    <path id="Trazado_194762" data-name="Trazado 194762" d="M-6.411-5.761A7.85,7.85,0,0,1-7.44-1.28,3.662,3.662,0,0,1-10.66.186a3.689,3.689,0,0,1-3.2-1.433,7.45,7.45,0,0,1-1.076-4.281V-7.821a7.675,7.675,0,0,1,1.03-4.425,3.691,3.691,0,0,1,3.229-1.447,3.724,3.724,0,0,1,3.21,1.4A7.407,7.407,0,0,1-6.411-7.988ZM-8.127-8.108a6.289,6.289,0,0,0-.612-3.177,2.108,2.108,0,0,0-1.939-1,2.08,2.08,0,0,0-1.92.993,6.14,6.14,0,0,0-.622,3.052v2.746a6.39,6.39,0,0,0,.635,3.233A2.1,2.1,0,0,0-10.66-1.215,2.075,2.075,0,0,0-8.772-2.2a6.159,6.159,0,0,0,.645-3.1ZM4.258-5.761A7.85,7.85,0,0,1,3.229-1.28,3.662,3.662,0,0,1,.009.186a3.689,3.689,0,0,1-3.2-1.433A7.45,7.45,0,0,1-4.268-5.529V-7.821a7.675,7.675,0,0,1,1.03-4.425A3.691,3.691,0,0,1-.009-13.693,3.724,3.724,0,0,1,3.2-12.3,7.407,7.407,0,0,1,4.258-7.988ZM2.542-8.108a6.289,6.289,0,0,0-.612-3.177,2.108,2.108,0,0,0-1.939-1,2.08,2.08,0,0,0-1.92.993,6.14,6.14,0,0,0-.622,3.052v2.746a6.39,6.39,0,0,0,.635,3.233A2.1,2.1,0,0,0,.009-1.215,2.075,2.075,0,0,0,1.9-2.2a6.159,6.159,0,0,0,.645-3.1ZM15.308,0H6.457V-1.234l4.676-5.2a11.108,11.108,0,0,0,1.433-1.916,3.2,3.2,0,0,0,.394-1.526,2.424,2.424,0,0,0-.64-1.735,2.238,2.238,0,0,0-1.707-.677,2.651,2.651,0,0,0-1.99.728,2.782,2.782,0,0,0-.71,2.027H6.2a3.984,3.984,0,0,1,1.2-3.015,4.454,4.454,0,0,1,3.215-1.15,4.28,4.28,0,0,1,2.978.988,3.37,3.37,0,0,1,1.095,2.63q0,1.995-2.542,4.75L8.526-1.4h6.782Z" transform="translate(254.753 10395.836)" fill="#0c1d30"/>
    <path id="Trazado_193979" data-name="Trazado 193979" d="M1901.439,4651.8v-22.013H1555.273V4651.8" transform="translate(-1298.998 5608.592)" fill="none" stroke="#5e5d5e" stroke-width="0.614"/>
    <path id="Trazado_194763" data-name="Trazado 194763" d="M0,22.013V0" transform="translate(432.646 10238.379)" fill="none" stroke="#5e5d5e" stroke-width="0.614"/>
    <path id="Trazado_193980" data-name="Trazado 193980" d="M1901.439,4651.8v-22.013H1555.273V4651.8" transform="translate(-1298.998 5608.592)" fill="none" stroke="#5e5d5e" stroke-width="2"/>
    <path id="Trazado_194764" data-name="Trazado 194764" d="M0,22.013V0" transform="translate(432.646 10238.379)" fill="none" stroke="#5e5d5e" stroke-width="2"/>
    <path id="Trazado_193981" data-name="Trazado 193981" d="M1819.661,4817.328h76.832V4716.574H1868.95" transform="translate(-1229.789 5631.31)" fill="none" stroke="#5e5d5e" stroke-width="0.183"/>
    <path id="Trazado_194765" data-name="Trazado 194765" d="M0,0H27.543" transform="translate(639.161 10399.218)" fill="none" stroke="#5e5d5e" stroke-width="0.183"/>
    <path id="Trazado_193982" data-name="Trazado 193982" d="M1819.661,4817.328h76.832V4716.574H1868.95" transform="translate(-1229.789 5631.31)" fill="none" stroke="#5e5d5e" stroke-width="2"/>
    <path id="Trazado_194766" data-name="Trazado 194766" d="M0,0H27.543" transform="translate(639.161 10399.218)" fill="none" stroke="#5e5d5e" stroke-width="2"/>
    <path id="Trazado_193983" data-name="Trazado 193983" d="M1560.557,4808.456h-35.33v-57.987h13.415" transform="translate(-1306.863 5640.182)" fill="none" stroke="#5e5d5e" stroke-width="0.259"/>
    <path id="Trazado_193984" data-name="Trazado 193984" d="M1560.557,4808.456h-35.33v-57.987h13.415" transform="translate(-1306.863 5640.182)" fill="none" stroke="#5e5d5e" stroke-width="1.561"/>
    <path id="Trazado_194767" data-name="Trazado 194767" d="M12.588-6.65A8.8,8.8,0,0,1,11.885-3,5.326,5.326,0,0,1,9.893-.625,5.481,5.481,0,0,1,6.885.2,5.434,5.434,0,0,1,3.906-.63,5.453,5.453,0,0,1,1.89-2.983a8.439,8.439,0,0,1-.737-3.54V-7.549a8.691,8.691,0,0,1,.713-3.623,5.434,5.434,0,0,1,2.017-2.407,5.411,5.411,0,0,1,2.983-.835,5.512,5.512,0,0,1,3.013.825A5.316,5.316,0,0,1,11.885-11.2a8.838,8.838,0,0,1,.7,3.647Zm-1.865-.918A6.375,6.375,0,0,0,9.707-11.45,3.35,3.35,0,0,0,6.865-12.8a3.314,3.314,0,0,0-2.8,1.353A6.245,6.245,0,0,0,3.018-7.7V-6.65A6.384,6.384,0,0,0,4.048-2.8,3.328,3.328,0,0,0,6.885-1.4,3.314,3.314,0,0,0,9.7-2.72a6.348,6.348,0,0,0,1.025-3.794Zm8.633,6.289a2.6,2.6,0,0,0,1.689-.586,2.061,2.061,0,0,0,.8-1.465h1.709A3.276,3.276,0,0,1,22.93-1.6,4.116,4.116,0,0,1,21.392-.293,4.438,4.438,0,0,1,19.355.2a4.353,4.353,0,0,1-3.433-1.44,5.737,5.737,0,0,1-1.274-3.94v-.3a6.361,6.361,0,0,1,.566-2.744A4.314,4.314,0,0,1,16.841-10.1a4.619,4.619,0,0,1,2.5-.664A4.238,4.238,0,0,1,22.3-9.7a3.8,3.8,0,0,1,1.255,2.764H21.846a2.49,2.49,0,0,0-.776-1.685,2.415,2.415,0,0,0-1.724-.659,2.529,2.529,0,0,0-2.134.991,4.655,4.655,0,0,0-.757,2.866v.342a4.562,4.562,0,0,0,.752,2.813A2.541,2.541,0,0,0,19.355-1.279Zm12.754.234A3.837,3.837,0,0,1,29.014.2,3.285,3.285,0,0,1,26.44-.786a4.248,4.248,0,0,1-.894-2.905v-6.875h1.807V-3.74q0,2.4,1.953,2.4a2.7,2.7,0,0,0,2.754-1.543v-7.686h1.807V0H32.148Zm9.609-7.9a5.414,5.414,0,0,0-.889-.068A2.381,2.381,0,0,0,38.418-7.5V0H36.611V-10.566h1.758L38.4-9.346a2.813,2.813,0,0,1,2.52-1.416,1.846,1.846,0,0,1,.8.137Zm6.768,0a5.414,5.414,0,0,0-.889-.068A2.381,2.381,0,0,0,45.186-7.5V0H43.379V-10.566h1.758l.029,1.221a2.813,2.813,0,0,1,2.52-1.416,1.846,1.846,0,0,1,.8.137ZM54.346.2a4.617,4.617,0,0,1-3.5-1.411A5.237,5.237,0,0,1,49.5-4.99v-.332a6.341,6.341,0,0,1,.6-2.808,4.685,4.685,0,0,1,1.68-1.934,4.223,4.223,0,0,1,2.339-.7,3.957,3.957,0,0,1,3.2,1.357,5.877,5.877,0,0,1,1.143,3.887v.752H51.309a3.756,3.756,0,0,0,.913,2.524,2.87,2.87,0,0,0,2.222.962,3.147,3.147,0,0,0,1.621-.391,4.073,4.073,0,0,0,1.162-1.035l1.1.859A4.437,4.437,0,0,1,54.346.2Zm-.225-9.473a2.41,2.41,0,0,0-1.836.8,3.868,3.868,0,0,0-.918,2.231H56.66v-.137a3.441,3.441,0,0,0-.742-2.134A2.269,2.269,0,0,0,54.121-9.277Zm8.145-1.289.059,1.328a3.85,3.85,0,0,1,3.164-1.523q3.35,0,3.379,3.779V0H67.061V-6.992a2.432,2.432,0,0,0-.522-1.689,2.094,2.094,0,0,0-1.6-.547A2.607,2.607,0,0,0,63.4-8.76a3.183,3.183,0,0,0-1.035,1.23V0H60.557V-10.566ZM75.83-1.279a2.6,2.6,0,0,0,1.689-.586,2.061,2.061,0,0,0,.8-1.465h1.709A3.276,3.276,0,0,1,79.4-1.6,4.116,4.116,0,0,1,77.866-.293,4.438,4.438,0,0,1,75.83.2,4.353,4.353,0,0,1,72.4-1.245a5.737,5.737,0,0,1-1.274-3.94v-.3a6.361,6.361,0,0,1,.566-2.744A4.314,4.314,0,0,1,73.315-10.1a4.619,4.619,0,0,1,2.5-.664A4.238,4.238,0,0,1,78.774-9.7a3.8,3.8,0,0,1,1.255,2.764H78.32a2.49,2.49,0,0,0-.776-1.685,2.415,2.415,0,0,0-1.724-.659,2.529,2.529,0,0,0-2.134.991A4.655,4.655,0,0,0,72.93-5.42v.342a4.562,4.562,0,0,0,.752,2.813A2.541,2.541,0,0,0,75.83-1.279ZM84.023,0H82.217V-10.566h1.807ZM82.07-13.369a1.078,1.078,0,0,1,.269-.742,1.008,1.008,0,0,1,.8-.3,1.024,1.024,0,0,1,.8.3,1.067,1.067,0,0,1,.273.742,1.032,1.032,0,0,1-.273.732,1.043,1.043,0,0,1-.8.293,1.026,1.026,0,0,1-.8-.293A1.043,1.043,0,0,1,82.07-13.369ZM93.438,0a3.8,3.8,0,0,1-.254-1.113A4.031,4.031,0,0,1,90.176.2a3.73,3.73,0,0,1-2.563-.884,2.859,2.859,0,0,1-1-2.241,2.987,2.987,0,0,1,1.255-2.563,5.916,5.916,0,0,1,3.53-.913h1.758v-.83a2.029,2.029,0,0,0-.566-1.509,2.276,2.276,0,0,0-1.67-.562,2.634,2.634,0,0,0-1.621.488,1.439,1.439,0,0,0-.654,1.182H86.826a2.493,2.493,0,0,1,.562-1.528,3.832,3.832,0,0,1,1.523-1.167,5.125,5.125,0,0,1,2.114-.43,4.177,4.177,0,0,1,2.861.913,3.294,3.294,0,0,1,1.074,2.515v4.863a5.946,5.946,0,0,0,.371,2.314V0Zm-3-1.377a3.175,3.175,0,0,0,1.611-.439,2.658,2.658,0,0,0,1.1-1.143V-5.127H91.738q-3.32,0-3.32,1.943a1.645,1.645,0,0,0,.566,1.328A2.177,2.177,0,0,0,90.439-1.377ZM103.945-2.8a1.33,1.33,0,0,0-.552-1.138,5.311,5.311,0,0,0-1.924-.7,9.1,9.1,0,0,1-2.178-.7A3.1,3.1,0,0,1,98.1-6.318a2.336,2.336,0,0,1-.386-1.348,2.741,2.741,0,0,1,1.1-2.2,4.291,4.291,0,0,1,2.808-.9,4.415,4.415,0,0,1,2.915.928,2.947,2.947,0,0,1,1.118,2.373h-1.816a1.631,1.631,0,0,0-.63-1.279,2.36,2.36,0,0,0-1.587-.537,2.47,2.47,0,0,0-1.543.43,1.353,1.353,0,0,0-.557,1.123,1.1,1.1,0,0,0,.518.986,6.368,6.368,0,0,0,1.87.635,9.744,9.744,0,0,1,2.192.723,3.2,3.2,0,0,1,1.245,1.011,2.485,2.485,0,0,1,.405,1.44,2.7,2.7,0,0,1-1.133,2.271A4.752,4.752,0,0,1,101.68.2a5.321,5.321,0,0,1-2.246-.449,3.653,3.653,0,0,1-1.528-1.255,3.025,3.025,0,0,1-.552-1.743H99.16a1.87,1.87,0,0,0,.728,1.44,2.822,2.822,0,0,0,1.792.532,2.913,2.913,0,0,0,1.646-.415A1.275,1.275,0,0,0,103.945-2.8Z" transform="translate(472.889 10453.225)" fill="#0c1d30"/>
    <path id="Trazado_194768" data-name="Trazado 194768" d="M12.109-4.512A5.231,5.231,0,0,1,10.444-1.03,5.457,5.457,0,0,1,6.719.2,5.01,5.01,0,0,1,2.681-1.611,7.268,7.268,0,0,1,1.162-6.445V-7.812A8.1,8.1,0,0,1,1.87-11.3a5.288,5.288,0,0,1,2.007-2.31,5.588,5.588,0,0,1,3.008-.806,5.138,5.138,0,0,1,3.633,1.265,5.294,5.294,0,0,1,1.592,3.5H10.225a4.085,4.085,0,0,0-1.06-2.468,3.206,3.206,0,0,0-2.28-.764,3.355,3.355,0,0,0-2.817,1.329A6.1,6.1,0,0,0,3.047-7.769v1.378a6.273,6.273,0,0,0,.967,3.685A3.124,3.124,0,0,0,6.719-1.338a3.608,3.608,0,0,0,2.4-.708,3.929,3.929,0,0,0,1.108-2.466ZM16.348,0H14.541V-15h1.807Zm9.414,0a3.8,3.8,0,0,1-.254-1.113A4.031,4.031,0,0,1,22.5.2a3.73,3.73,0,0,1-2.563-.884,2.859,2.859,0,0,1-1-2.241A2.987,2.987,0,0,1,20.19-5.493a5.916,5.916,0,0,1,3.53-.913h1.758v-.83a2.029,2.029,0,0,0-.566-1.509,2.276,2.276,0,0,0-1.67-.562,2.634,2.634,0,0,0-1.621.488,1.439,1.439,0,0,0-.654,1.182H19.15a2.493,2.493,0,0,1,.562-1.528,3.832,3.832,0,0,1,1.523-1.167,5.125,5.125,0,0,1,2.114-.43,4.177,4.177,0,0,1,2.861.913,3.294,3.294,0,0,1,1.074,2.515v4.863a5.946,5.946,0,0,0,.371,2.314V0Zm-3-1.377a3.175,3.175,0,0,0,1.611-.439,2.658,2.658,0,0,0,1.1-1.143V-5.127H24.063q-3.32,0-3.32,1.943a1.645,1.645,0,0,0,.566,1.328A2.177,2.177,0,0,0,22.764-1.377ZM33.457-2.451l2.617-8.115H37.92L34.131,0H32.754L28.926-10.566h1.846ZM43.916.2a4.617,4.617,0,0,1-3.5-1.411A5.237,5.237,0,0,1,39.072-4.99v-.332a6.341,6.341,0,0,1,.6-2.808,4.685,4.685,0,0,1,1.68-1.934,4.223,4.223,0,0,1,2.339-.7,3.957,3.957,0,0,1,3.2,1.357,5.877,5.877,0,0,1,1.143,3.887v.752H40.879a3.756,3.756,0,0,0,.913,2.524,2.87,2.87,0,0,0,2.222.962,3.147,3.147,0,0,0,1.621-.391A4.073,4.073,0,0,0,46.8-2.705l1.1.859A4.437,4.437,0,0,1,43.916.2Zm-.225-9.473a2.41,2.41,0,0,0-1.836.8,3.868,3.868,0,0,0-.918,2.231H46.23v-.137a3.441,3.441,0,0,0-.742-2.134A2.269,2.269,0,0,0,43.691-9.277ZM64-5.166a6.327,6.327,0,0,1-1.1,3.887A3.537,3.537,0,0,1,59.912.2a3.875,3.875,0,0,1-3.027-1.221V4.063H55.078V-10.566h1.65l.088,1.172a3.722,3.722,0,0,1,3.066-1.367A3.6,3.6,0,0,1,62.9-9.326,6.4,6.4,0,0,1,64-5.332ZM62.2-5.371a4.669,4.669,0,0,0-.762-2.822,2.454,2.454,0,0,0-2.09-1.035,2.656,2.656,0,0,0-2.461,1.455v5.049a2.661,2.661,0,0,0,2.48,1.445,2.442,2.442,0,0,0,2.065-1.03A5.1,5.1,0,0,0,62.2-5.371Zm9.209-3.574a5.414,5.414,0,0,0-.889-.068A2.381,2.381,0,0,0,68.105-7.5V0H66.3V-10.566h1.758l.029,1.221a2.813,2.813,0,0,1,2.52-1.416,1.846,1.846,0,0,1,.8.137ZM75.029,0H73.223V-10.566h1.807ZM73.076-13.369a1.078,1.078,0,0,1,.269-.742,1.008,1.008,0,0,1,.8-.3,1.024,1.024,0,0,1,.8.3,1.067,1.067,0,0,1,.273.742,1.032,1.032,0,0,1-.273.732,1.043,1.043,0,0,1-.8.293,1.026,1.026,0,0,1-.8-.293A1.043,1.043,0,0,1,73.076-13.369Zm6.543,2.8.049,1.172A3.9,3.9,0,0,1,82.8-10.762a3.021,3.021,0,0,1,3.018,1.7,4,4,0,0,1,1.372-1.23,4.052,4.052,0,0,1,2-.469q3.477,0,3.535,3.682V0H90.918V-6.973A2.426,2.426,0,0,0,90.4-8.667a2.279,2.279,0,0,0-1.738-.562,2.4,2.4,0,0,0-1.67.6,2.436,2.436,0,0,0-.771,1.616V0H84.4V-6.924a2.016,2.016,0,0,0-2.256-2.3,2.417,2.417,0,0,0-2.432,1.514V0H77.91V-10.566ZM101.973,0a3.8,3.8,0,0,1-.254-1.113A4.031,4.031,0,0,1,98.711.2a3.73,3.73,0,0,1-2.563-.884,2.859,2.859,0,0,1-1-2.241A2.987,2.987,0,0,1,96.4-5.493a5.916,5.916,0,0,1,3.53-.913h1.758v-.83a2.029,2.029,0,0,0-.566-1.509,2.276,2.276,0,0,0-1.67-.562,2.634,2.634,0,0,0-1.621.488,1.439,1.439,0,0,0-.654,1.182H95.361a2.493,2.493,0,0,1,.562-1.528,3.832,3.832,0,0,1,1.523-1.167,5.125,5.125,0,0,1,2.114-.43,4.177,4.177,0,0,1,2.861.913A3.294,3.294,0,0,1,103.5-7.334v4.863a5.946,5.946,0,0,0,.371,2.314V0Zm-3-1.377a3.175,3.175,0,0,0,1.611-.439,2.658,2.658,0,0,0,1.1-1.143V-5.127h-1.416q-3.32,0-3.32,1.943a1.645,1.645,0,0,0,.566,1.328A2.177,2.177,0,0,0,98.975-1.377Zm12.461-7.568a5.414,5.414,0,0,0-.889-.068A2.381,2.381,0,0,0,108.135-7.5V0h-1.807V-10.566h1.758l.029,1.221a2.813,2.813,0,0,1,2.52-1.416,1.846,1.846,0,0,1,.8.137ZM115.059,0h-1.807V-10.566h1.807Zm-1.953-13.369a1.078,1.078,0,0,1,.269-.742,1.008,1.008,0,0,1,.8-.3,1.024,1.024,0,0,1,.8.3,1.067,1.067,0,0,1,.273.742,1.032,1.032,0,0,1-.273.732,1.043,1.043,0,0,1-.8.293,1.026,1.026,0,0,1-.8-.293A1.043,1.043,0,0,1,113.105-13.369ZM124.473,0a3.8,3.8,0,0,1-.254-1.113A4.031,4.031,0,0,1,121.211.2a3.73,3.73,0,0,1-2.563-.884,2.859,2.859,0,0,1-1-2.241A2.987,2.987,0,0,1,118.9-5.493a5.916,5.916,0,0,1,3.53-.913h1.758v-.83a2.029,2.029,0,0,0-.566-1.509,2.276,2.276,0,0,0-1.67-.562,2.634,2.634,0,0,0-1.621.488,1.439,1.439,0,0,0-.654,1.182h-1.816a2.493,2.493,0,0,1,.562-1.528,3.832,3.832,0,0,1,1.523-1.167,5.125,5.125,0,0,1,2.114-.43,4.177,4.177,0,0,1,2.861.913A3.294,3.294,0,0,1,126-7.334v4.863a5.946,5.946,0,0,0,.371,2.314V0Zm-3-1.377a3.175,3.175,0,0,0,1.611-.439,2.658,2.658,0,0,0,1.1-1.143V-5.127h-1.416q-3.32,0-3.32,1.943a1.645,1.645,0,0,0,.566,1.328A2.177,2.177,0,0,0,121.475-1.377Z" transform="translate(260.825 10453.225)" fill="#0c1d30"/>
    <path id="Trazado_194769" data-name="Trazado 194769" d="M9.5-3.721H3.545L2.207,0H.273L5.7-14.219H7.344L12.783,0H10.859ZM4.111-5.254H8.945L6.523-11.9ZM16.7-13.125v2.559h1.973v1.4H16.7v6.561a1.467,1.467,0,0,0,.264.953,1.11,1.11,0,0,0,.9.318,4.374,4.374,0,0,0,.859-.117V0A5.268,5.268,0,0,1,17.334.2a2.25,2.25,0,0,1-1.826-.732,3.147,3.147,0,0,1-.615-2.08V-9.17H12.969v-1.4h1.924v-2.559Zm9.189,4.18A5.414,5.414,0,0,0,25-9.014,2.381,2.381,0,0,0,22.588-7.5V0H20.781V-10.566h1.758l.029,1.221a2.813,2.813,0,0,1,2.52-1.416,1.846,1.846,0,0,1,.8.137ZM29.512,0H27.705V-10.566h1.807ZM27.559-13.369a1.078,1.078,0,0,1,.269-.742,1.008,1.008,0,0,1,.8-.3,1.024,1.024,0,0,1,.8.3,1.067,1.067,0,0,1,.273.742,1.032,1.032,0,0,1-.273.732,1.043,1.043,0,0,1-.8.293,1.026,1.026,0,0,1-.8-.293A1.043,1.043,0,0,1,27.559-13.369Zm13.789,8.2a6.283,6.283,0,0,1-1.113,3.892A3.557,3.557,0,0,1,37.246.2a3.683,3.683,0,0,1-3.1-1.416L34.063,0H32.4V-15h1.807v5.6a3.663,3.663,0,0,1,3.018-1.357,3.579,3.579,0,0,1,3.022,1.455,6.471,6.471,0,0,1,1.1,3.984Zm-1.807-.205a4.882,4.882,0,0,0-.713-2.852,2.36,2.36,0,0,0-2.051-1.006,2.652,2.652,0,0,0-2.568,1.66V-3A2.727,2.727,0,0,0,36.8-1.338a2.347,2.347,0,0,0,2.021-1.006A5.192,5.192,0,0,0,39.541-5.371ZM50.146-1.045A3.837,3.837,0,0,1,47.051.2a3.285,3.285,0,0,1-2.573-.981,4.248,4.248,0,0,1-.894-2.905v-6.875h1.807V-3.74q0,2.4,1.953,2.4A2.7,2.7,0,0,0,50.1-2.881v-7.686H51.9V0H50.186ZM57.1-13.125v2.559h1.973v1.4H57.1v6.561a1.467,1.467,0,0,0,.264.953,1.11,1.11,0,0,0,.9.318,4.374,4.374,0,0,0,.859-.117V0A5.268,5.268,0,0,1,57.734.2a2.25,2.25,0,0,1-1.826-.732,3.147,3.147,0,0,1-.615-2.08V-9.17H53.369v-1.4h1.924v-2.559Zm3.408,7.744a6.241,6.241,0,0,1,.61-2.793,4.553,4.553,0,0,1,1.7-1.914,4.626,4.626,0,0,1,2.485-.674,4.456,4.456,0,0,1,3.491,1.494,5.748,5.748,0,0,1,1.333,3.975v.127A6.3,6.3,0,0,1,69.536-2.4,4.486,4.486,0,0,1,67.847-.488,4.679,4.679,0,0,1,65.322.2,4.445,4.445,0,0,1,61.841-1.3a5.719,5.719,0,0,1-1.333-3.955Zm1.816.215a4.52,4.52,0,0,0,.815,2.822,2.61,2.61,0,0,0,2.183,1.064A2.594,2.594,0,0,0,67.51-2.358a4.943,4.943,0,0,0,.811-3.022A4.513,4.513,0,0,0,67.5-8.2,2.623,2.623,0,0,0,65.3-9.277a2.594,2.594,0,0,0-2.158,1.064A4.906,4.906,0,0,0,62.324-5.166ZM78.545-2.8a1.33,1.33,0,0,0-.552-1.138,5.311,5.311,0,0,0-1.924-.7,9.1,9.1,0,0,1-2.178-.7A3.1,3.1,0,0,1,72.7-6.318a2.336,2.336,0,0,1-.386-1.348,2.741,2.741,0,0,1,1.1-2.2,4.291,4.291,0,0,1,2.808-.9,4.415,4.415,0,0,1,2.915.928,2.947,2.947,0,0,1,1.118,2.373H78.438a1.631,1.631,0,0,0-.63-1.279,2.36,2.36,0,0,0-1.587-.537,2.47,2.47,0,0,0-1.543.43,1.353,1.353,0,0,0-.557,1.123,1.1,1.1,0,0,0,.518.986,6.368,6.368,0,0,0,1.87.635,9.744,9.744,0,0,1,2.192.723A3.2,3.2,0,0,1,79.946-4.37a2.485,2.485,0,0,1,.405,1.44A2.7,2.7,0,0,1,79.219-.659,4.752,4.752,0,0,1,76.279.2a5.321,5.321,0,0,1-2.246-.449A3.653,3.653,0,0,1,72.5-1.509a3.025,3.025,0,0,1-.552-1.743H73.76a1.87,1.87,0,0,0,.728,1.44,2.822,2.822,0,0,0,1.792.532,2.913,2.913,0,0,0,1.646-.415A1.275,1.275,0,0,0,78.545-2.8Z" transform="translate(388.478 10225.904)" fill="#0c1d30"/>
  </g>
</svg>
