<svg xmlns="http://www.w3.org/2000/svg" xmlns:xlink="http://www.w3.org/1999/xlink" width="628.574" height="212.766" viewBox="0 0 628.574 212.766">
  <defs>
    <filter id="Trazado_194807" x="0" y="0" width="114.408" height="37.26" filterUnits="userSpaceOnUse">
      <feOffset dx="3.233" dy="3.233" input="SourceAlpha"/>
      <feGaussianBlur stdDeviation="1.617" result="blur"/>
      <feFlood flood-color="#040405" flood-opacity="0.302"/>
      <feComposite operator="in" in2="blur"/>
      <feComposite in="SourceGraphic"/>
    </filter>
    <filter id="Trazado_194809" x="0" y="59.907" width="114.408" height="37.26" filterUnits="userSpaceOnUse">
      <feOffset dx="3.233" dy="3.233" input="SourceAlpha"/>
      <feGaussianBlur stdDeviation="1.617" result="blur-2"/>
      <feFlood flood-color="#040405" flood-opacity="0.302"/>
      <feComposite operator="in" in2="blur-2"/>
      <feComposite in="SourceGraphic"/>
    </filter>
    <filter id="Trazado_194811" x="0" y="117.706" width="114.408" height="37.26" filterUnits="userSpaceOnUse">
      <feOffset dx="3.233" dy="3.233" input="SourceAlpha"/>
      <feGaussianBlur stdDeviation="1.617" result="blur-3"/>
      <feFlood flood-color="#040405" flood-opacity="0.302"/>
      <feComposite operator="in" in2="blur-3"/>
      <feComposite in="SourceGraphic"/>
    </filter>
    <filter id="Trazado_194813" x="0" y="175.505" width="114.408" height="37.26" filterUnits="userSpaceOnUse">
      <feOffset dx="3.233" dy="3.233" input="SourceAlpha"/>
      <feGaussianBlur stdDeviation="1.617" result="blur-4"/>
      <feFlood flood-color="#040405" flood-opacity="0.302"/>
      <feComposite operator="in" in2="blur-4"/>
      <feComposite in="SourceGraphic"/>
    </filter>
    <filter id="Trazado_194815" x="515.362" y="0.199" width="113.212" height="36.064" filterUnits="userSpaceOnUse">
      <feOffset dx="2.835" dy="2.835" input="SourceAlpha"/>
      <feGaussianBlur stdDeviation="1.417" result="blur-5"/>
      <feFlood flood-color="#040405" flood-opacity="0.302"/>
      <feComposite operator="in" in2="blur-5"/>
      <feComposite in="SourceGraphic"/>
    </filter>
    <filter id="Trazado_194817" x="515.362" y="60.107" width="113.212" height="36.064" filterUnits="userSpaceOnUse">
      <feOffset dx="2.835" dy="2.835" input="SourceAlpha"/>
      <feGaussianBlur stdDeviation="1.417" result="blur-6"/>
      <feFlood flood-color="#040405" flood-opacity="0.302"/>
      <feComposite operator="in" in2="blur-6"/>
      <feComposite in="SourceGraphic"/>
    </filter>
    <filter id="Trazado_194819" x="515.362" y="117.905" width="113.212" height="36.064" filterUnits="userSpaceOnUse">
      <feOffset dx="2.835" dy="2.835" input="SourceAlpha"/>
      <feGaussianBlur stdDeviation="1.417" result="blur-7"/>
      <feFlood flood-color="#040405" flood-opacity="0.302"/>
      <feComposite operator="in" in2="blur-7"/>
      <feComposite in="SourceGraphic"/>
    </filter>
    <filter id="Trazado_194821" x="515.362" y="175.705" width="113.212" height="36.064" filterUnits="userSpaceOnUse">
      <feOffset dx="2.835" dy="2.835" input="SourceAlpha"/>
      <feGaussianBlur stdDeviation="1.417" result="blur-8"/>
      <feFlood flood-color="#040405" flood-opacity="0.302"/>
      <feComposite operator="in" in2="blur-8"/>
      <feComposite in="SourceGraphic"/>
    </filter>
  </defs>
  <g id="_24" data-name="24" transform="translate(5015.617 -713.383)">
    <g transform="matrix(1, 0, 0, 1, -5015.62, 713.38)" filter="url(#Trazado_194807)">
      <path id="Trazado_194807-2" data-name="Trazado 194807" d="M2.835,0h99.039a2.835,2.835,0,0,1,2.835,2.835V24.726a2.835,2.835,0,0,1-2.835,2.835H2.835A2.835,2.835,0,0,1,0,24.726V2.835A2.835,2.835,0,0,1,2.835,0Z" transform="translate(1.62 1.62)" fill="#003b82"/>
    </g>
    <path id="Trazado_194808" data-name="Trazado 194808" d="M-25.082,0h-2.727L-31.84-7.078V0h-2.742V-11.375h2.742L-27.816-4.3v-7.078h2.734ZM-23.8-4.3a4.989,4.989,0,0,1,.492-2.254,3.52,3.52,0,0,1,1.414-1.52,4.259,4.259,0,0,1,2.164-.531,3.887,3.887,0,0,1,2.992,1.176,4.512,4.512,0,0,1,1.094,3.2v.094A4.378,4.378,0,0,1-16.742-1,3.9,3.9,0,0,1-19.715.156a3.942,3.942,0,0,1-2.9-1.082,4.232,4.232,0,0,1-1.18-2.934Zm2.633.164A3.145,3.145,0,0,0-20.8-2.422a1.223,1.223,0,0,0,1.086.547q1.406,0,1.438-2.164V-4.3q0-2.273-1.453-2.273-1.32,0-1.43,1.961ZM-12-8.453l.086.992A2.906,2.906,0,0,1-9.5-8.609,2.14,2.14,0,0,1-7.332-7.336,2.813,2.813,0,0,1-4.848-8.609q2.57,0,2.641,3.109V0H-4.848V-5.336a1.611,1.611,0,0,0-.219-.945.931.931,0,0,0-.8-.3,1.247,1.247,0,0,0-1.164.7l.008.109V0H-9.66V-5.32a1.694,1.694,0,0,0-.211-.961.929.929,0,0,0-.8-.3,1.263,1.263,0,0,0-1.156.7V0h-2.633V-8.453Zm19.141,4.3a5.152,5.152,0,0,1-.859,3.2A2.878,2.878,0,0,1,3.863.156,2.5,2.5,0,0,1,1.785-.867L1.676,0H-.684V-12H1.949v4.227a2.41,2.41,0,0,1,1.9-.836A2.879,2.879,0,0,1,6.285-7.477a5.179,5.179,0,0,1,.859,3.188ZM4.5-4.324A3.437,3.437,0,0,0,4.18-6.059a1.093,1.093,0,0,0-1-.519A1.261,1.261,0,0,0,1.949-5.9v3.354a1.268,1.268,0,0,0,1.25.671,1.118,1.118,0,0,0,1.18-.9A6.5,6.5,0,0,0,4.5-4.324ZM13.418-6.07l-.867-.062a1.558,1.558,0,0,0-1.594.781V0H8.324V-8.453h2.469l.086,1.086A2.039,2.039,0,0,1,12.73-8.609a2.567,2.567,0,0,1,.734.094ZM18.309.156A4.345,4.345,0,0,1,15.16-1a4.006,4.006,0,0,1-1.2-3.02v-.219a5.191,5.191,0,0,1,.48-2.289,3.516,3.516,0,0,1,1.4-1.535,4.233,4.233,0,0,1,2.188-.543A3.659,3.659,0,0,1,20.84-7.5a4.344,4.344,0,0,1,1.031,3.082V-3.4H16.637a1.9,1.9,0,0,0,.617,1.117,1.836,1.836,0,0,0,1.234.406,2.366,2.366,0,0,0,1.953-.875l1.2,1.422A3.363,3.363,0,0,1,20.25-.246,4.713,4.713,0,0,1,18.309.156Zm-.3-6.734q-1.156,0-1.375,1.531h2.656v-.2a1.3,1.3,0,0,0-.32-.98A1.275,1.275,0,0,0,18.012-6.578ZM32.707,0H30.066V-8.406l-2.594.758v-2l4.992-1.727h.242Z" transform="translate(-4961.646 734.307)" fill="#fff"/>
    <g transform="matrix(1, 0, 0, 1, -5015.62, 713.38)" filter="url(#Trazado_194809)">
      <path id="Trazado_194809-2" data-name="Trazado 194809" d="M2.835,0h99.039a2.835,2.835,0,0,1,2.835,2.835V24.726a2.835,2.835,0,0,1-2.835,2.835H2.835A2.835,2.835,0,0,1,0,24.726V2.835A2.835,2.835,0,0,1,2.835,0Z" transform="translate(1.62 61.52)" fill="#003b82"/>
    </g>
    <path id="Trazado_194810" data-name="Trazado 194810" d="M-25.082,0h-2.727L-31.84-7.078V0h-2.742V-11.375h2.742L-27.816-4.3v-7.078h2.734ZM-23.8-4.3a4.989,4.989,0,0,1,.492-2.254,3.52,3.52,0,0,1,1.414-1.52,4.259,4.259,0,0,1,2.164-.531,3.887,3.887,0,0,1,2.992,1.176,4.512,4.512,0,0,1,1.094,3.2v.094A4.378,4.378,0,0,1-16.742-1,3.9,3.9,0,0,1-19.715.156a3.942,3.942,0,0,1-2.9-1.082,4.232,4.232,0,0,1-1.18-2.934Zm2.633.164A3.145,3.145,0,0,0-20.8-2.422a1.223,1.223,0,0,0,1.086.547q1.406,0,1.438-2.164V-4.3q0-2.273-1.453-2.273-1.32,0-1.43,1.961ZM-12-8.453l.086.992A2.906,2.906,0,0,1-9.5-8.609,2.14,2.14,0,0,1-7.332-7.336,2.813,2.813,0,0,1-4.848-8.609q2.57,0,2.641,3.109V0H-4.848V-5.336a1.611,1.611,0,0,0-.219-.945.931.931,0,0,0-.8-.3,1.247,1.247,0,0,0-1.164.7l.008.109V0H-9.66V-5.32a1.694,1.694,0,0,0-.211-.961.929.929,0,0,0-.8-.3,1.263,1.263,0,0,0-1.156.7V0h-2.633V-8.453Zm19.141,4.3a5.152,5.152,0,0,1-.859,3.2A2.878,2.878,0,0,1,3.863.156,2.5,2.5,0,0,1,1.785-.867L1.676,0H-.684V-12H1.949v4.227a2.41,2.41,0,0,1,1.9-.836A2.879,2.879,0,0,1,6.285-7.477a5.179,5.179,0,0,1,.859,3.188ZM4.5-4.324A3.437,3.437,0,0,0,4.18-6.059a1.093,1.093,0,0,0-1-.519A1.261,1.261,0,0,0,1.949-5.9v3.354a1.268,1.268,0,0,0,1.25.671,1.118,1.118,0,0,0,1.18-.9A6.5,6.5,0,0,0,4.5-4.324ZM13.418-6.07l-.867-.062a1.558,1.558,0,0,0-1.594.781V0H8.324V-8.453h2.469l.086,1.086A2.039,2.039,0,0,1,12.73-8.609a2.567,2.567,0,0,1,.734.094ZM18.309.156A4.345,4.345,0,0,1,15.16-1a4.006,4.006,0,0,1-1.2-3.02v-.219a5.191,5.191,0,0,1,.48-2.289,3.516,3.516,0,0,1,1.4-1.535,4.233,4.233,0,0,1,2.188-.543A3.659,3.659,0,0,1,20.84-7.5a4.344,4.344,0,0,1,1.031,3.082V-3.4H16.637a1.9,1.9,0,0,0,.617,1.117,1.836,1.836,0,0,0,1.234.406,2.366,2.366,0,0,0,1.953-.875l1.2,1.422A3.363,3.363,0,0,1,20.25-.246,4.713,4.713,0,0,1,18.309.156Zm-.3-6.734q-1.156,0-1.375,1.531h2.656v-.2a1.3,1.3,0,0,0-.32-.98A1.275,1.275,0,0,0,18.012-6.578ZM34.809,0H26.871V-1.719l3.656-3.844a4.364,4.364,0,0,0,1.352-2.445,1.7,1.7,0,0,0-.32-1.117,1.144,1.144,0,0,0-.93-.383A1.158,1.158,0,0,0,29.652-9a2.1,2.1,0,0,0-.375,1.277H26.637a3.736,3.736,0,0,1,.523-1.934,3.671,3.671,0,0,1,1.453-1.387,4.317,4.317,0,0,1,2.078-.5,4.246,4.246,0,0,1,2.84.852,3.04,3.04,0,0,1,1,2.445,3.551,3.551,0,0,1-.25,1.309A5.739,5.739,0,0,1,33.5-5.6a19.581,19.581,0,0,1-1.7,1.871l-1.469,1.7h4.477Z" transform="translate(-4961.646 794.214)" fill="#fff"/>
    <g transform="matrix(1, 0, 0, 1, -5015.62, 713.38)" filter="url(#Trazado_194811)">
      <path id="Trazado_194811-2" data-name="Trazado 194811" d="M2.835,0h99.039a2.835,2.835,0,0,1,2.835,2.835V24.726a2.835,2.835,0,0,1-2.835,2.835H2.835A2.835,2.835,0,0,1,0,24.726V2.835A2.835,2.835,0,0,1,2.835,0Z" transform="translate(1.62 119.32)" fill="#003b82"/>
    </g>
    <path id="Trazado_194812" data-name="Trazado 194812" d="M-25.082,0h-2.727L-31.84-7.078V0h-2.742V-11.375h2.742L-27.816-4.3v-7.078h2.734ZM-23.8-4.3a4.989,4.989,0,0,1,.492-2.254,3.52,3.52,0,0,1,1.414-1.52,4.259,4.259,0,0,1,2.164-.531,3.887,3.887,0,0,1,2.992,1.176,4.512,4.512,0,0,1,1.094,3.2v.094A4.378,4.378,0,0,1-16.742-1,3.9,3.9,0,0,1-19.715.156a3.942,3.942,0,0,1-2.9-1.082,4.232,4.232,0,0,1-1.18-2.934Zm2.633.164A3.145,3.145,0,0,0-20.8-2.422a1.223,1.223,0,0,0,1.086.547q1.406,0,1.438-2.164V-4.3q0-2.273-1.453-2.273-1.32,0-1.43,1.961ZM-12-8.453l.086.992A2.906,2.906,0,0,1-9.5-8.609,2.14,2.14,0,0,1-7.332-7.336,2.813,2.813,0,0,1-4.848-8.609q2.57,0,2.641,3.109V0H-4.848V-5.336a1.611,1.611,0,0,0-.219-.945.931.931,0,0,0-.8-.3,1.247,1.247,0,0,0-1.164.7l.008.109V0H-9.66V-5.32a1.694,1.694,0,0,0-.211-.961.929.929,0,0,0-.8-.3,1.263,1.263,0,0,0-1.156.7V0h-2.633V-8.453Zm19.141,4.3a5.152,5.152,0,0,1-.859,3.2A2.878,2.878,0,0,1,3.863.156,2.5,2.5,0,0,1,1.785-.867L1.676,0H-.684V-12H1.949v4.227a2.41,2.41,0,0,1,1.9-.836A2.879,2.879,0,0,1,6.285-7.477a5.179,5.179,0,0,1,.859,3.188ZM4.5-4.324A3.437,3.437,0,0,0,4.18-6.059a1.093,1.093,0,0,0-1-.519A1.261,1.261,0,0,0,1.949-5.9v3.354a1.268,1.268,0,0,0,1.25.671,1.118,1.118,0,0,0,1.18-.9A6.5,6.5,0,0,0,4.5-4.324ZM13.418-6.07l-.867-.062a1.558,1.558,0,0,0-1.594.781V0H8.324V-8.453h2.469l.086,1.086A2.039,2.039,0,0,1,12.73-8.609a2.567,2.567,0,0,1,.734.094ZM18.309.156A4.345,4.345,0,0,1,15.16-1a4.006,4.006,0,0,1-1.2-3.02v-.219a5.191,5.191,0,0,1,.48-2.289,3.516,3.516,0,0,1,1.4-1.535,4.233,4.233,0,0,1,2.188-.543A3.659,3.659,0,0,1,20.84-7.5a4.344,4.344,0,0,1,1.031,3.082V-3.4H16.637a1.9,1.9,0,0,0,.617,1.117,1.836,1.836,0,0,0,1.234.406,2.366,2.366,0,0,0,1.953-.875l1.2,1.422A3.363,3.363,0,0,1,20.25-.246,4.713,4.713,0,0,1,18.309.156Zm-.3-6.734q-1.156,0-1.375,1.531h2.656v-.2a1.3,1.3,0,0,0-.32-.98A1.275,1.275,0,0,0,18.012-6.578Zm11.266-.211H30.52A1.291,1.291,0,0,0,32-8.234a1.25,1.25,0,0,0-.352-.918,1.333,1.333,0,0,0-.992-.355,1.427,1.427,0,0,0-.91.3.93.93,0,0,0-.387.758H26.723a2.7,2.7,0,0,1,.5-1.6,3.3,3.3,0,0,1,1.387-1.1,4.741,4.741,0,0,1,1.949-.395,4.658,4.658,0,0,1,2.984.867,2.883,2.883,0,0,1,1.086,2.383A2.4,2.4,0,0,1,34.18-6.9a3.2,3.2,0,0,1-1.309,1.059,3.058,3.058,0,0,1,1.422,1A2.623,2.623,0,0,1,34.809-3.2,2.935,2.935,0,0,1,33.637-.758a4.864,4.864,0,0,1-3.078.914A5.045,5.045,0,0,1,28.484-.27a3.25,3.25,0,0,1-1.449-1.18,3.067,3.067,0,0,1-.492-1.715h2.648a1.185,1.185,0,0,0,.422.906,1.489,1.489,0,0,0,1.039.383,1.56,1.56,0,0,0,1.109-.387,1.293,1.293,0,0,0,.414-.988,1.511,1.511,0,0,0-.43-1.219,1.8,1.8,0,0,0-1.187-.359H29.277Z" transform="translate(-4961.646 852.013)" fill="#fff"/>
    <g transform="matrix(1, 0, 0, 1, -5015.62, 713.38)" filter="url(#Trazado_194813)">
      <path id="Trazado_194813-2" data-name="Trazado 194813" d="M2.835,0h99.039a2.835,2.835,0,0,1,2.835,2.835V24.726a2.835,2.835,0,0,1-2.835,2.835H2.835A2.835,2.835,0,0,1,0,24.726V2.835A2.835,2.835,0,0,1,2.835,0Z" transform="translate(1.62 177.12)" fill="#003b82"/>
    </g>
    <path id="Trazado_194814" data-name="Trazado 194814" d="M-25.082,0h-2.727L-31.84-7.078V0h-2.742V-11.375h2.742L-27.816-4.3v-7.078h2.734ZM-23.8-4.3a4.989,4.989,0,0,1,.492-2.254,3.52,3.52,0,0,1,1.414-1.52,4.259,4.259,0,0,1,2.164-.531,3.887,3.887,0,0,1,2.992,1.176,4.512,4.512,0,0,1,1.094,3.2v.094A4.378,4.378,0,0,1-16.742-1,3.9,3.9,0,0,1-19.715.156a3.942,3.942,0,0,1-2.9-1.082,4.232,4.232,0,0,1-1.18-2.934Zm2.633.164A3.145,3.145,0,0,0-20.8-2.422a1.223,1.223,0,0,0,1.086.547q1.406,0,1.438-2.164V-4.3q0-2.273-1.453-2.273-1.32,0-1.43,1.961ZM-12-8.453l.086.992A2.906,2.906,0,0,1-9.5-8.609,2.14,2.14,0,0,1-7.332-7.336,2.813,2.813,0,0,1-4.848-8.609q2.57,0,2.641,3.109V0H-4.848V-5.336a1.611,1.611,0,0,0-.219-.945.931.931,0,0,0-.8-.3,1.247,1.247,0,0,0-1.164.7l.008.109V0H-9.66V-5.32a1.694,1.694,0,0,0-.211-.961.929.929,0,0,0-.8-.3,1.263,1.263,0,0,0-1.156.7V0h-2.633V-8.453Zm19.141,4.3a5.152,5.152,0,0,1-.859,3.2A2.878,2.878,0,0,1,3.863.156,2.5,2.5,0,0,1,1.785-.867L1.676,0H-.684V-12H1.949v4.227a2.41,2.41,0,0,1,1.9-.836A2.879,2.879,0,0,1,6.285-7.477a5.179,5.179,0,0,1,.859,3.188ZM4.5-4.324A3.437,3.437,0,0,0,4.18-6.059a1.093,1.093,0,0,0-1-.519A1.261,1.261,0,0,0,1.949-5.9v3.354a1.268,1.268,0,0,0,1.25.671,1.118,1.118,0,0,0,1.18-.9A6.5,6.5,0,0,0,4.5-4.324ZM13.418-6.07l-.867-.062a1.558,1.558,0,0,0-1.594.781V0H8.324V-8.453h2.469l.086,1.086A2.039,2.039,0,0,1,12.73-8.609a2.567,2.567,0,0,1,.734.094ZM18.309.156A4.345,4.345,0,0,1,15.16-1a4.006,4.006,0,0,1-1.2-3.02v-.219a5.191,5.191,0,0,1,.48-2.289,3.516,3.516,0,0,1,1.4-1.535,4.233,4.233,0,0,1,2.188-.543A3.659,3.659,0,0,1,20.84-7.5a4.344,4.344,0,0,1,1.031,3.082V-3.4H16.637a1.9,1.9,0,0,0,.617,1.117,1.836,1.836,0,0,0,1.234.406,2.366,2.366,0,0,0,1.953-.875l1.2,1.422A3.363,3.363,0,0,1,20.25-.246,4.713,4.713,0,0,1,18.309.156Zm-.3-6.734q-1.156,0-1.375,1.531h2.656v-.2a1.3,1.3,0,0,0-.32-.98A1.275,1.275,0,0,0,18.012-6.578ZM33.824-4.445H34.98v2.031H33.824V0H31.191V-2.414h-4.4l-.156-1.609,4.555-7.328v-.023h2.633Zm-4.68,0h2.047v-3.5l-.164.266Z" transform="translate(-4961.646 909.812)" fill="#fff"/>
    <g transform="matrix(1, 0, 0, 1, -5015.62, 713.38)" filter="url(#Trazado_194815)">
      <path id="Trazado_194815-2" data-name="Trazado 194815" d="M2.835,0h99.039a2.835,2.835,0,0,1,2.835,2.835V24.726a2.835,2.835,0,0,1-2.835,2.835H2.835A2.835,2.835,0,0,1,0,24.726V2.835A2.835,2.835,0,0,1,2.835,0Z" transform="translate(516.78 1.62)" fill="#aad5f4"/>
    </g>
    <path id="Trazado_194816" data-name="Trazado 194816" d="M-28.836-9.258H-32.25V0h-2.742V-9.258h-3.352v-2.117h9.508Zm4.43,9.414A4.345,4.345,0,0,1-27.555-1a4.006,4.006,0,0,1-1.2-3.02v-.219a5.191,5.191,0,0,1,.48-2.289,3.516,3.516,0,0,1,1.4-1.535,4.233,4.233,0,0,1,2.188-.543A3.659,3.659,0,0,1-21.875-7.5a4.344,4.344,0,0,1,1.031,3.082V-3.4h-5.234a1.9,1.9,0,0,0,.617,1.117,1.836,1.836,0,0,0,1.234.406,2.366,2.366,0,0,0,1.953-.875l1.2,1.422A3.363,3.363,0,0,1-22.465-.246,4.713,4.713,0,0,1-24.406.156Zm-.3-6.734q-1.156,0-1.375,1.531h2.656v-.2a1.3,1.3,0,0,0-.32-.98A1.275,1.275,0,0,0-24.7-6.578ZM-17.008,0h-2.641V-12h2.641ZM-11.3.156A4.345,4.345,0,0,1-14.445-1a4.006,4.006,0,0,1-1.2-3.02v-.219a5.191,5.191,0,0,1,.48-2.289,3.516,3.516,0,0,1,1.4-1.535,4.233,4.233,0,0,1,2.188-.543A3.659,3.659,0,0,1-8.766-7.5,4.344,4.344,0,0,1-7.734-4.422V-3.4h-5.234a1.9,1.9,0,0,0,.617,1.117,1.836,1.836,0,0,0,1.234.406A2.366,2.366,0,0,0-9.164-2.75l1.2,1.422A3.363,3.363,0,0,1-9.355-.246,4.713,4.713,0,0,1-11.3.156Zm-.3-6.734q-1.156,0-1.375,1.531h2.656v-.2a1.3,1.3,0,0,0-.32-.98A1.275,1.275,0,0,0-11.594-6.578Zm-.031-5.43h2.781l-2.172,2.453-2.148,0ZM-6.094,0V-6.625H-7.32V-8.453h1.227v-.672a2.921,2.921,0,0,1,.852-2.242,3.364,3.364,0,0,1,2.391-.8A5.235,5.235,0,0,1-1.617-12l.008,1.938a2.4,2.4,0,0,0-.648-.07q-1.2,0-1.2,1.031v.648H-1.8v1.828H-3.453V0Zm4.883-4.3A4.989,4.989,0,0,1-.719-6.559,3.52,3.52,0,0,1,.7-8.078a4.259,4.259,0,0,1,2.164-.531A3.887,3.887,0,0,1,5.852-7.434a4.512,4.512,0,0,1,1.094,3.2v.094A4.378,4.378,0,0,1,5.848-1,3.9,3.9,0,0,1,2.875.156,3.942,3.942,0,0,1-.023-.926,4.232,4.232,0,0,1-1.2-3.859Zm2.633.164a3.145,3.145,0,0,0,.367,1.719,1.223,1.223,0,0,0,1.086.547q1.406,0,1.438-2.164V-4.3q0-2.273-1.453-2.273-1.32,0-1.43,1.961Zm9.1-4.312.086.992a2.867,2.867,0,0,1,2.414-1.148A2.412,2.412,0,0,1,15-7.82a3.757,3.757,0,0,1,.676,2.375V0H13.031V-5.336a1.426,1.426,0,0,0-.258-.941,1.193,1.193,0,0,0-.937-.3,1.256,1.256,0,0,0-1.148.609V0H8.055V-8.453ZM16.8-4.3a4.989,4.989,0,0,1,.492-2.254A3.52,3.52,0,0,1,18.7-8.078a4.259,4.259,0,0,1,2.164-.531,3.887,3.887,0,0,1,2.992,1.176,4.512,4.512,0,0,1,1.094,3.2v.094A4.378,4.378,0,0,1,23.855-1,3.9,3.9,0,0,1,20.883.156a3.942,3.942,0,0,1-2.9-1.082A4.232,4.232,0,0,1,16.8-3.859Zm2.633.164A3.145,3.145,0,0,0,19.8-2.422a1.223,1.223,0,0,0,1.086.547q1.406,0,1.438-2.164V-4.3q0-2.273-1.453-2.273-1.32,0-1.43,1.961ZM35.891,0H33.25V-8.406l-2.594.758v-2l4.992-1.727h.242Z" transform="translate(-4446.483 734.307)" fill="#161615"/>
    <g transform="matrix(1, 0, 0, 1, -5015.62, 713.38)" filter="url(#Trazado_194817)">
      <path id="Trazado_194817-2" data-name="Trazado 194817" d="M2.835,0h99.039a2.835,2.835,0,0,1,2.835,2.835V24.726a2.835,2.835,0,0,1-2.835,2.835H2.835A2.835,2.835,0,0,1,0,24.726V2.835A2.835,2.835,0,0,1,2.835,0Z" transform="translate(516.78 61.52)" fill="#aad5f4"/>
    </g>
    <path id="Trazado_194818" data-name="Trazado 194818" d="M-28.836-9.258H-32.25V0h-2.742V-9.258h-3.352v-2.117h9.508Zm4.43,9.414A4.345,4.345,0,0,1-27.555-1a4.006,4.006,0,0,1-1.2-3.02v-.219a5.191,5.191,0,0,1,.48-2.289,3.516,3.516,0,0,1,1.4-1.535,4.233,4.233,0,0,1,2.188-.543A3.659,3.659,0,0,1-21.875-7.5a4.344,4.344,0,0,1,1.031,3.082V-3.4h-5.234a1.9,1.9,0,0,0,.617,1.117,1.836,1.836,0,0,0,1.234.406,2.366,2.366,0,0,0,1.953-.875l1.2,1.422A3.363,3.363,0,0,1-22.465-.246,4.713,4.713,0,0,1-24.406.156Zm-.3-6.734q-1.156,0-1.375,1.531h2.656v-.2a1.3,1.3,0,0,0-.32-.98A1.275,1.275,0,0,0-24.7-6.578ZM-17.008,0h-2.641V-12h2.641ZM-11.3.156A4.345,4.345,0,0,1-14.445-1a4.006,4.006,0,0,1-1.2-3.02v-.219a5.191,5.191,0,0,1,.48-2.289,3.516,3.516,0,0,1,1.4-1.535,4.233,4.233,0,0,1,2.188-.543A3.659,3.659,0,0,1-8.766-7.5,4.344,4.344,0,0,1-7.734-4.422V-3.4h-5.234a1.9,1.9,0,0,0,.617,1.117,1.836,1.836,0,0,0,1.234.406A2.366,2.366,0,0,0-9.164-2.75l1.2,1.422A3.363,3.363,0,0,1-9.355-.246,4.713,4.713,0,0,1-11.3.156Zm-.3-6.734q-1.156,0-1.375,1.531h2.656v-.2a1.3,1.3,0,0,0-.32-.98A1.275,1.275,0,0,0-11.594-6.578Zm-.031-5.43h2.781l-2.172,2.453-2.148,0ZM-6.094,0V-6.625H-7.32V-8.453h1.227v-.672a2.921,2.921,0,0,1,.852-2.242,3.364,3.364,0,0,1,2.391-.8A5.235,5.235,0,0,1-1.617-12l.008,1.938a2.4,2.4,0,0,0-.648-.07q-1.2,0-1.2,1.031v.648H-1.8v1.828H-3.453V0Zm4.883-4.3A4.989,4.989,0,0,1-.719-6.559,3.52,3.52,0,0,1,.7-8.078a4.259,4.259,0,0,1,2.164-.531A3.887,3.887,0,0,1,5.852-7.434a4.512,4.512,0,0,1,1.094,3.2v.094A4.378,4.378,0,0,1,5.848-1,3.9,3.9,0,0,1,2.875.156,3.942,3.942,0,0,1-.023-.926,4.232,4.232,0,0,1-1.2-3.859Zm2.633.164a3.145,3.145,0,0,0,.367,1.719,1.223,1.223,0,0,0,1.086.547q1.406,0,1.438-2.164V-4.3q0-2.273-1.453-2.273-1.32,0-1.43,1.961Zm9.1-4.312.086.992a2.867,2.867,0,0,1,2.414-1.148A2.412,2.412,0,0,1,15-7.82a3.757,3.757,0,0,1,.676,2.375V0H13.031V-5.336a1.426,1.426,0,0,0-.258-.941,1.193,1.193,0,0,0-.937-.3,1.256,1.256,0,0,0-1.148.609V0H8.055V-8.453ZM16.8-4.3a4.989,4.989,0,0,1,.492-2.254A3.52,3.52,0,0,1,18.7-8.078a4.259,4.259,0,0,1,2.164-.531,3.887,3.887,0,0,1,2.992,1.176,4.512,4.512,0,0,1,1.094,3.2v.094A4.378,4.378,0,0,1,23.855-1,3.9,3.9,0,0,1,20.883.156a3.942,3.942,0,0,1-2.9-1.082A4.232,4.232,0,0,1,16.8-3.859Zm2.633.164A3.145,3.145,0,0,0,19.8-2.422a1.223,1.223,0,0,0,1.086.547q1.406,0,1.438-2.164V-4.3q0-2.273-1.453-2.273-1.32,0-1.43,1.961ZM37.992,0H30.055V-1.719l3.656-3.844a4.364,4.364,0,0,0,1.352-2.445,1.7,1.7,0,0,0-.32-1.117,1.144,1.144,0,0,0-.93-.383A1.158,1.158,0,0,0,32.836-9a2.1,2.1,0,0,0-.375,1.277H29.82a3.736,3.736,0,0,1,.523-1.934A3.671,3.671,0,0,1,31.8-11.039a4.317,4.317,0,0,1,2.078-.5,4.246,4.246,0,0,1,2.84.852,3.04,3.04,0,0,1,1,2.445,3.551,3.551,0,0,1-.25,1.309A5.739,5.739,0,0,1,36.684-5.6a19.581,19.581,0,0,1-1.7,1.871l-1.469,1.7h4.477Z" transform="translate(-4446.483 794.214)" fill="#161615"/>
    <g transform="matrix(1, 0, 0, 1, -5015.62, 713.38)" filter="url(#Trazado_194819)">
      <path id="Trazado_194819-2" data-name="Trazado 194819" d="M2.835,0h99.039a2.835,2.835,0,0,1,2.835,2.835V24.726a2.835,2.835,0,0,1-2.835,2.835H2.835A2.835,2.835,0,0,1,0,24.726V2.835A2.835,2.835,0,0,1,2.835,0Z" transform="translate(516.78 119.32)" fill="#aad5f4"/>
    </g>
    <path id="Trazado_194820" data-name="Trazado 194820" d="M-28.836-9.258H-32.25V0h-2.742V-9.258h-3.352v-2.117h9.508Zm4.43,9.414A4.345,4.345,0,0,1-27.555-1a4.006,4.006,0,0,1-1.2-3.02v-.219a5.191,5.191,0,0,1,.48-2.289,3.516,3.516,0,0,1,1.4-1.535,4.233,4.233,0,0,1,2.188-.543A3.659,3.659,0,0,1-21.875-7.5a4.344,4.344,0,0,1,1.031,3.082V-3.4h-5.234a1.9,1.9,0,0,0,.617,1.117,1.836,1.836,0,0,0,1.234.406,2.366,2.366,0,0,0,1.953-.875l1.2,1.422A3.363,3.363,0,0,1-22.465-.246,4.713,4.713,0,0,1-24.406.156Zm-.3-6.734q-1.156,0-1.375,1.531h2.656v-.2a1.3,1.3,0,0,0-.32-.98A1.275,1.275,0,0,0-24.7-6.578ZM-17.008,0h-2.641V-12h2.641ZM-11.3.156A4.345,4.345,0,0,1-14.445-1a4.006,4.006,0,0,1-1.2-3.02v-.219a5.191,5.191,0,0,1,.48-2.289,3.516,3.516,0,0,1,1.4-1.535,4.233,4.233,0,0,1,2.188-.543A3.659,3.659,0,0,1-8.766-7.5,4.344,4.344,0,0,1-7.734-4.422V-3.4h-5.234a1.9,1.9,0,0,0,.617,1.117,1.836,1.836,0,0,0,1.234.406A2.366,2.366,0,0,0-9.164-2.75l1.2,1.422A3.363,3.363,0,0,1-9.355-.246,4.713,4.713,0,0,1-11.3.156Zm-.3-6.734q-1.156,0-1.375,1.531h2.656v-.2a1.3,1.3,0,0,0-.32-.98A1.275,1.275,0,0,0-11.594-6.578Zm-.031-5.43h2.781l-2.172,2.453-2.148,0ZM-6.094,0V-6.625H-7.32V-8.453h1.227v-.672a2.921,2.921,0,0,1,.852-2.242,3.364,3.364,0,0,1,2.391-.8A5.235,5.235,0,0,1-1.617-12l.008,1.938a2.4,2.4,0,0,0-.648-.07q-1.2,0-1.2,1.031v.648H-1.8v1.828H-3.453V0Zm4.883-4.3A4.989,4.989,0,0,1-.719-6.559,3.52,3.52,0,0,1,.7-8.078a4.259,4.259,0,0,1,2.164-.531A3.887,3.887,0,0,1,5.852-7.434a4.512,4.512,0,0,1,1.094,3.2v.094A4.378,4.378,0,0,1,5.848-1,3.9,3.9,0,0,1,2.875.156,3.942,3.942,0,0,1-.023-.926,4.232,4.232,0,0,1-1.2-3.859Zm2.633.164a3.145,3.145,0,0,0,.367,1.719,1.223,1.223,0,0,0,1.086.547q1.406,0,1.438-2.164V-4.3q0-2.273-1.453-2.273-1.32,0-1.43,1.961Zm9.1-4.312.086.992a2.867,2.867,0,0,1,2.414-1.148A2.412,2.412,0,0,1,15-7.82a3.757,3.757,0,0,1,.676,2.375V0H13.031V-5.336a1.426,1.426,0,0,0-.258-.941,1.193,1.193,0,0,0-.937-.3,1.256,1.256,0,0,0-1.148.609V0H8.055V-8.453ZM16.8-4.3a4.989,4.989,0,0,1,.492-2.254A3.52,3.52,0,0,1,18.7-8.078a4.259,4.259,0,0,1,2.164-.531,3.887,3.887,0,0,1,2.992,1.176,4.512,4.512,0,0,1,1.094,3.2v.094A4.378,4.378,0,0,1,23.855-1,3.9,3.9,0,0,1,20.883.156a3.942,3.942,0,0,1-2.9-1.082A4.232,4.232,0,0,1,16.8-3.859Zm2.633.164A3.145,3.145,0,0,0,19.8-2.422a1.223,1.223,0,0,0,1.086.547q1.406,0,1.438-2.164V-4.3q0-2.273-1.453-2.273-1.32,0-1.43,1.961ZM32.461-6.789H33.7A1.291,1.291,0,0,0,35.18-8.234a1.25,1.25,0,0,0-.352-.918,1.333,1.333,0,0,0-.992-.355,1.427,1.427,0,0,0-.91.3.93.93,0,0,0-.387.758H29.906a2.7,2.7,0,0,1,.5-1.6,3.3,3.3,0,0,1,1.387-1.1,4.741,4.741,0,0,1,1.949-.395,4.658,4.658,0,0,1,2.984.867,2.883,2.883,0,0,1,1.086,2.383A2.4,2.4,0,0,1,37.363-6.9a3.2,3.2,0,0,1-1.309,1.059,3.058,3.058,0,0,1,1.422,1A2.623,2.623,0,0,1,37.992-3.2,2.935,2.935,0,0,1,36.82-.758a4.864,4.864,0,0,1-3.078.914A5.045,5.045,0,0,1,31.668-.27a3.25,3.25,0,0,1-1.449-1.18,3.067,3.067,0,0,1-.492-1.715h2.648a1.185,1.185,0,0,0,.422.906,1.489,1.489,0,0,0,1.039.383,1.56,1.56,0,0,0,1.109-.387,1.293,1.293,0,0,0,.414-.988,1.511,1.511,0,0,0-.43-1.219,1.8,1.8,0,0,0-1.187-.359H32.461Z" transform="translate(-4446.483 852.013)" fill="#161615"/>
    <g transform="matrix(1, 0, 0, 1, -5015.62, 713.38)" filter="url(#Trazado_194821)">
      <path id="Trazado_194821-2" data-name="Trazado 194821" d="M2.835,0h99.039a2.835,2.835,0,0,1,2.835,2.835V24.726a2.835,2.835,0,0,1-2.835,2.835H2.835A2.835,2.835,0,0,1,0,24.726V2.835A2.835,2.835,0,0,1,2.835,0Z" transform="translate(516.78 177.12)" fill="#aad5f4"/>
    </g>
    <path id="Trazado_194822" data-name="Trazado 194822" d="M-28.836-9.258H-32.25V0h-2.742V-9.258h-3.352v-2.117h9.508Zm4.43,9.414A4.345,4.345,0,0,1-27.555-1a4.006,4.006,0,0,1-1.2-3.02v-.219a5.191,5.191,0,0,1,.48-2.289,3.516,3.516,0,0,1,1.4-1.535,4.233,4.233,0,0,1,2.188-.543A3.659,3.659,0,0,1-21.875-7.5a4.344,4.344,0,0,1,1.031,3.082V-3.4h-5.234a1.9,1.9,0,0,0,.617,1.117,1.836,1.836,0,0,0,1.234.406,2.366,2.366,0,0,0,1.953-.875l1.2,1.422A3.363,3.363,0,0,1-22.465-.246,4.713,4.713,0,0,1-24.406.156Zm-.3-6.734q-1.156,0-1.375,1.531h2.656v-.2a1.3,1.3,0,0,0-.32-.98A1.275,1.275,0,0,0-24.7-6.578ZM-17.008,0h-2.641V-12h2.641ZM-11.3.156A4.345,4.345,0,0,1-14.445-1a4.006,4.006,0,0,1-1.2-3.02v-.219a5.191,5.191,0,0,1,.48-2.289,3.516,3.516,0,0,1,1.4-1.535,4.233,4.233,0,0,1,2.188-.543A3.659,3.659,0,0,1-8.766-7.5,4.344,4.344,0,0,1-7.734-4.422V-3.4h-5.234a1.9,1.9,0,0,0,.617,1.117,1.836,1.836,0,0,0,1.234.406A2.366,2.366,0,0,0-9.164-2.75l1.2,1.422A3.363,3.363,0,0,1-9.355-.246,4.713,4.713,0,0,1-11.3.156Zm-.3-6.734q-1.156,0-1.375,1.531h2.656v-.2a1.3,1.3,0,0,0-.32-.98A1.275,1.275,0,0,0-11.594-6.578Zm-.031-5.43h2.781l-2.172,2.453-2.148,0ZM-6.094,0V-6.625H-7.32V-8.453h1.227v-.672a2.921,2.921,0,0,1,.852-2.242,3.364,3.364,0,0,1,2.391-.8A5.235,5.235,0,0,1-1.617-12l.008,1.938a2.4,2.4,0,0,0-.648-.07q-1.2,0-1.2,1.031v.648H-1.8v1.828H-3.453V0Zm4.883-4.3A4.989,4.989,0,0,1-.719-6.559,3.52,3.52,0,0,1,.7-8.078a4.259,4.259,0,0,1,2.164-.531A3.887,3.887,0,0,1,5.852-7.434a4.512,4.512,0,0,1,1.094,3.2v.094A4.378,4.378,0,0,1,5.848-1,3.9,3.9,0,0,1,2.875.156,3.942,3.942,0,0,1-.023-.926,4.232,4.232,0,0,1-1.2-3.859Zm2.633.164a3.145,3.145,0,0,0,.367,1.719,1.223,1.223,0,0,0,1.086.547q1.406,0,1.438-2.164V-4.3q0-2.273-1.453-2.273-1.32,0-1.43,1.961Zm9.1-4.312.086.992a2.867,2.867,0,0,1,2.414-1.148A2.412,2.412,0,0,1,15-7.82a3.757,3.757,0,0,1,.676,2.375V0H13.031V-5.336a1.426,1.426,0,0,0-.258-.941,1.193,1.193,0,0,0-.937-.3,1.256,1.256,0,0,0-1.148.609V0H8.055V-8.453ZM16.8-4.3a4.989,4.989,0,0,1,.492-2.254A3.52,3.52,0,0,1,18.7-8.078a4.259,4.259,0,0,1,2.164-.531,3.887,3.887,0,0,1,2.992,1.176,4.512,4.512,0,0,1,1.094,3.2v.094A4.378,4.378,0,0,1,23.855-1,3.9,3.9,0,0,1,20.883.156a3.942,3.942,0,0,1-2.9-1.082A4.232,4.232,0,0,1,16.8-3.859Zm2.633.164A3.145,3.145,0,0,0,19.8-2.422a1.223,1.223,0,0,0,1.086.547q1.406,0,1.438-2.164V-4.3q0-2.273-1.453-2.273-1.32,0-1.43,1.961Zm17.578-.3h1.156v2.031H37.008V0H34.375V-2.414h-4.4L29.82-4.023l4.555-7.328v-.023h2.633Zm-4.68,0h2.047v-3.5l-.164.266Z" transform="translate(-4446.483 909.812)" fill="#161615"/>
    <path id="Trazado_194823" data-name="Trazado 194823" d="M0,0H383.294" transform="translate(-4896.792 728.78)" fill="none" stroke="#fda000" stroke-width="2"/>
    <path id="Trazado_194055" data-name="Trazado 194055" d="M4566.349,5270.715l-1.573-3.7,1.573-3.7-8.778,3.7Z" transform="translate(-9460.333 -4538.232)" fill="#fda000"/>
    <path id="Trazado_194056" data-name="Trazado 194056" d="M4953.9,5267.012l-9.949,4.065,2.361-4.065-2.361-4.064Z" transform="translate(-9460.333 -4538.232)" fill="#fda000"/>
    <path id="Trazado_194824" data-name="Trazado 194824" d="M0,0,383.343,33.118" transform="translate(-4896.815 741.263)" fill="none" stroke="#fda000" stroke-width="2"/>
    <path id="Trazado_194057" data-name="Trazado 194057" d="M4566,5283.426l-1.249-3.825,1.886-3.554-9.064,2.934Z" transform="translate(-9460.333 -4538.232)" fill="#fda000"/>
    <path id="Trazado_194058" data-name="Trazado 194058" d="M4953.9,5313.221l-10.262,3.194,2.7-3.847-2-4.253Z" transform="translate(-9460.333 -4538.232)" fill="#fda000"/>
    <path id="Trazado_194825" data-name="Trazado 194825" d="M0,0,383.337,31.079" transform="translate(-4896.812 802.003)" fill="none" stroke="#fda000" stroke-width="2"/>
    <path id="Trazado_194059" data-name="Trazado 194059" d="M4566.021,5344.153l-1.269-3.818,1.868-3.564-9.049,2.981Z" transform="translate(-9460.333 -4538.232)" fill="#fda000"/>
    <path id="Trazado_194060" data-name="Trazado 194060" d="M4953.9,5371.885l-10.245,3.248,2.682-3.861-2.024-4.242Z" transform="translate(-9460.333 -4538.232)" fill="#fda000"/>
    <path id="Trazado_194826" data-name="Trazado 194826" d="M0,29.951,383.334,0" transform="translate(-4896.811 860.734)" fill="none" stroke="#fda000" stroke-width="2"/>
    <path id="Trazado_194061" data-name="Trazado 194061" d="M4566.611,5432.391l-1.857-3.569,1.28-3.814-8.463,4.375Z" transform="translate(-9460.333 -4538.232)" fill="#fda000"/>
    <path id="Trazado_194062" data-name="Trazado 194062" d="M4953.9,5398.417l-9.6,4.828,2.037-4.237-2.67-3.868Z" transform="translate(-9460.333 -4538.232)" fill="#fda000"/>
    <path id="Trazado_194827" data-name="Trazado 194827" d="M0,0H383.294" transform="translate(-4896.792 788.688)" fill="none" stroke="#fda000" stroke-width="2"/>
    <path id="Trazado_194063" data-name="Trazado 194063" d="M4566.349,5330.623l-1.573-3.7,1.573-3.7-8.778,3.7Z" transform="translate(-9460.333 -4538.232)" fill="#fda000"/>
    <path id="Trazado_194064" data-name="Trazado 194064" d="M4953.9,5326.919l-9.949,4.065,2.361-4.065-2.361-4.064Z" transform="translate(-9460.333 -4538.232)" fill="#fda000"/>
    <path id="Trazado_194828" data-name="Trazado 194828" d="M0,0H383.294" transform="translate(-4896.792 846.486)" fill="none" stroke="#fda000" stroke-width="2"/>
    <path id="Trazado_194065" data-name="Trazado 194065" d="M4566.349,5388.421l-1.573-3.7,1.573-3.7-8.778,3.7Z" transform="translate(-9460.333 -4538.232)" fill="#fda000"/>
    <path id="Trazado_194066" data-name="Trazado 194066" d="M4953.9,5384.718l-9.949,4.065,2.361-4.065-2.361-4.064Z" transform="translate(-9460.333 -4538.232)" fill="#fda000"/>
    <path id="Trazado_194829" data-name="Trazado 194829" d="M0,0H383.294" transform="translate(-4896.792 903.12)" fill="none" stroke="#fda000" stroke-width="2"/>
    <path id="Trazado_194067" data-name="Trazado 194067" d="M4566.349,5445.055l-1.573-3.7,1.573-3.7-8.778,3.7Z" transform="translate(-9460.333 -4538.232)" fill="#fda000"/>
    <path id="Trazado_194068" data-name="Trazado 194068" d="M4953.9,5441.352l-9.949,4.065,2.361-4.065-2.361-4.064Z" transform="translate(-9460.333 -4538.232)" fill="#fda000"/>
  </g>
</svg>
