<svg xmlns="http://www.w3.org/2000/svg" width="190" height="189.614" viewBox="0 0 190 189.614">
  <g id="_6" data-name="6" transform="translate(-2698.474 -900.1)">
    <g id="Grupo_131855" data-name="Grupo 131855" transform="translate(2704.155 905.657)">
      <rect id="Rect치ngulo_294762" data-name="Rect치ngulo 294762" width="62.588" height="8.941" transform="translate(103.319 142.979)"/>
      <path id="Trazado_194491" data-name="Trazado 194491" d="M2881.966,934.112v92.518h-3.777c0-2.651,0-5.272,0-7.893,0-1.846.041-3.694.033-5.54-.018-4.167-1.951-6.188-6.093-6.411-.452-.025-.9-.079-1.483-.132v-5.418a1.88,1.88,0,0,1,.45-.207c6.019-.625,7.139-1.88,7.139-8.012,0-3.43.029-6.86-.009-10.29-.045-4.088-2.175-6.205-6.259-6.229q-7.024-.04-14.05,0c-2.319.01-3.6,1.013-3.628,2.744s1.263,2.8,3.555,2.812c4.287.027,8.577.08,12.861-.027,1.616-.041,2.014.523,1.975,2.039-.093,3.677-.03,7.359-.03,11.2-.837.052-1.471.127-2.1.127q-32.849.01-65.7.04c-1.681,0-2.355-.358-2.268-2.172.146-3.028.121-6.07.008-9.1-.06-1.634.451-2.14,2.111-2.13,10.884.068,21.768.035,32.651.035.594,0,1.187.016,1.781-.007,2.138-.082,3.35-1.129,3.308-2.844-.038-1.638-1.216-2.7-3.241-2.7-12.2-.022-24.405-.039-36.608.016a5.237,5.237,0,0,0-5.483,5.332c-.135,4.547-.127,9.1-.011,13.651.082,3.2,2.19,5.195,5.413,5.438.651.049,1.308.008,2.237.008v5.7c-.722.055-1.3.107-1.876.14-3.757.217-5.779,2.281-5.8,6.079-.025,3.958.055,7.915.077,11.873,0,.58-.052,1.16-.087,1.868h-93.5v-92.5ZM2811.474,956.9h10.485c6.067,0,12.132.019,18.2-.015,2.231-.011,3.423-.97,3.515-2.648.1-1.845-1.159-2.914-3.616-2.915q-28.386-.022-56.773,0c-2.374,0-3.614.982-3.64,2.719-.029,1.784,1.3,2.8,3.741,2.856.462.01.923,0,1.385,0Zm-51.434,25.535H2763q6.42,0,12.839,0c1.592,0,2.885-.492,3.246-2.242.388-1.884-.9-3.3-3.144-3.3q-15.9-.047-31.8-.006c-.519,0-1.238-.05-1.515.247-.707.759-1.686,1.71-1.673,2.569s.983,1.843,1.769,2.482c.466.378,1.389.247,2.107.249C2749.9,982.44,2754.97,982.433,2760.04,982.433Zm17.912,17.79c-3.816,0-7.63-.02-11.446.007-2.271.017-3.572,1.086-3.548,2.817.022,1.656,1.29,2.734,3.428,2.742q11.546.04,23.091,0c2.178-.008,3.389-1.033,3.422-2.719.036-1.756-1.229-2.821-3.5-2.838C2785.583,1000.2,2781.767,1000.221,2777.951,1000.222Zm-61.3-45.61c2.53-2.42,4.77-4.462,6.886-6.624a2.687,2.687,0,0,0,.057-4.045,2.618,2.618,0,0,0-3.9.116q-4.322,4.2-8.531,8.524a2.622,2.622,0,0,0-.133,3.912q4.3,4.5,8.808,8.8a2.524,2.524,0,0,0,3.875-.14,2.624,2.624,0,0,0-.039-3.758,17.285,17.285,0,0,0-1.505-1.566C2720.464,958.2,2718.74,956.584,2716.653,954.612Zm30.836.018c-2.289,2.238-4.391,4.229-6.416,6.3-1.524,1.556-1.622,3.155-.408,4.345,1.237,1.213,2.752,1.092,4.352-.466q3.9-3.8,7.714-7.679c1.773-1.8,1.781-3.166.034-4.947q-3.812-3.884-7.706-7.687c-1.585-1.554-3.115-1.719-4.337-.567-1.3,1.223-1.176,2.848.438,4.484C2743.149,950.426,2745.2,952.384,2747.489,954.63Zm-3.3,39.54c3.759,0,7.519.03,11.278-.012,2.21-.024,3.4-1.019,3.443-2.711.042-1.774-1.188-2.842-3.5-2.852q-11.18-.045-22.36,0c-2.178.009-3.42,1.045-3.468,2.71-.051,1.745,1.231,2.832,3.521,2.854C2736.8,994.2,2740.5,994.17,2744.193,994.17Zm76.113-30.627v-.009c-3.819,0-7.639-.039-11.458.016-2.02.029-3.218,1.118-3.24,2.726s1.2,2.792,3.162,2.8q11.459.067,22.917-.009a2.773,2.773,0,0,0,1.982-.638,4.4,4.4,0,0,0,1-2.753c-.164-1.5-1.45-2.117-2.9-2.127C2827.945,963.525,2824.126,963.543,2820.306,963.543Zm-48.232,5.56c3.092,0,6.187.035,9.28-.011,2.168-.032,3.365-1.07,3.371-2.769s-1.194-2.766-3.36-2.78q-9.281-.055-18.561,0c-2.218.011-3.419.991-3.483,2.671-.067,1.748,1.208,2.853,3.473,2.884C2765.886,969.136,2768.98,969.1,2772.074,969.1Zm83.739,22.415c2.964,0,5.928.022,8.892-.008,2.136-.021,3.38-1.066,3.391-2.755s-1.23-2.781-3.365-2.793q-8.793-.047-17.586,0c-2.146.011-3.391,1.084-3.4,2.768s1.253,2.758,3.371,2.781C2850.017,991.541,2852.914,991.518,2855.813,991.518Zm-117.138-45.585c-.142-.462-.141-.991-.393-1.18-.79-.589-1.813-1.6-2.492-1.43a4.344,4.344,0,0,0-2.656,2.149c-2.263,5.318-4.32,10.723-6.413,16.112-.844,2.174-.351,3.622,1.352,4.288,1.645.644,2.973-.137,3.846-2.342q3.121-7.878,6.194-15.777C2738.35,947.148,2738.5,946.509,2738.675,945.933Zm8.091,59.866c2.892,0,5.785.025,8.676-.008,2.288-.027,3.543-1.074,3.512-2.831-.03-1.694-1.241-2.718-3.406-2.728q-8.678-.044-17.354,0c-2.152.01-3.392,1.046-3.431,2.723-.041,1.729,1.26,2.81,3.523,2.835C2741.112,1005.823,2743.939,1005.8,2746.766,1005.8Zm-22.8-23.37c2.9,0,5.805.03,8.707-.009,2.154-.029,3.384-1.085,3.38-2.781s-1.254-2.755-3.391-2.765q-8.707-.04-17.414,0c-2.154.011-3.374,1.068-3.372,2.777s1.213,2.741,3.384,2.769C2718.16,982.459,2721.063,982.43,2723.965,982.429Zm-2.137,17.8c-2.241,0-4.483-.036-6.724.011-2.021.042-3.2,1.076-3.231,2.718s1.138,2.8,3.124,2.823q6.824.077,13.646-.005c1.891-.025,2.989-1.113,3.014-2.709.028-1.681-1.112-2.772-3.106-2.822C2726.313,1000.184,2724.07,1000.228,2721.829,1000.225Zm94.589-8.708c2.109,0,4.219.03,6.327-.009,2-.037,3.2-1.076,3.243-2.7.04-1.642-1.149-2.81-3.118-2.834q-6.325-.081-12.652,0a2.771,2.771,0,0,0-3.05,2.7c-.037,1.642,1.165,2.776,3.122,2.825C2812.332,991.556,2814.375,991.516,2816.418,991.517Zm-49.485-40.183c-1.578,0-3.157-.042-4.734.012a2.6,2.6,0,0,0-2.847,2.649,2.55,2.55,0,0,0,2.664,2.823c3.218.1,6.443.107,9.661-.007a2.521,2.521,0,0,0,2.637-2.828c-.057-1.771-1.191-2.563-2.843-2.633C2769.959,951.286,2768.445,951.337,2766.932,951.334Zm17.612,42.806v.009c1.446,0,2.9.072,4.337-.018,1.863-.116,2.957-1.228,2.865-2.834a2.611,2.611,0,0,0-2.827-2.669c-2.956-.066-5.917-.072-8.873.007a2.743,2.743,0,0,0-.037,5.485C2781.516,994.217,2783.032,994.14,2784.544,994.14Zm10.821-30.587c-1.319,0-2.64-.056-3.955.015a2.622,2.622,0,0,0-2.816,2.7,2.57,2.57,0,0,0,2.727,2.777q4.05.126,8.106,0a2.544,2.544,0,0,0,2.7-2.783c-.022-1.755-1.15-2.6-2.811-2.7C2798.006,963.492,2796.684,963.552,2795.365,963.553Zm-76.883,30.575c1.378,0,2.762.078,4.131-.021a2.727,2.727,0,0,0-.014-5.452c-2.686-.1-5.379-.092-8.066,0a2.523,2.523,0,0,0-2.635,2.635,2.576,2.576,0,0,0,2.651,2.823C2715.853,994.21,2717.171,994.13,2718.482,994.128Zm50.3-5.585a27.543,27.543,0,0,0-2.882.161,2.513,2.513,0,0,0-2.312,2.729,2.384,2.384,0,0,0,2.231,2.581,35.473,35.473,0,0,0,5.7.019,2.431,2.431,0,0,0,2.319-2.711,2.553,2.553,0,0,0-2.43-2.645C2770.573,988.566,2769.711,988.585,2768.787,988.543Zm66.077,2.938v-.023a16.528,16.528,0,0,0,2.547-.024,2.521,2.521,0,0,0,2.3-2.535,2.43,2.43,0,0,0-2.182-2.8,23.416,23.416,0,0,0-5.279,0,2.43,2.43,0,0,0-2.212,2.781,2.585,2.585,0,0,0,2.476,2.586A17.762,17.762,0,0,0,2834.863,991.481Z" transform="translate(-2703.557 -901.655)" fill="#ffb30b"/>
      <path id="Trazado_194492" data-name="Trazado 194492" d="M2881.938,931.689H2703.783c-.045-.673-.122-1.3-.123-1.928-.01-5.672-.029-11.344,0-17.016.027-5.092,2.622-7.669,7.689-7.669q81.522-.007,163.044,0c5,0,7.629,2.554,7.659,7.485.036,5.8.011,11.608,0,17.413C2882.057,930.484,2881.988,930.995,2881.938,931.689Zm-155.471-13.414a8.076,8.076,0,0,0-8.193-8.077,8.133,8.133,0,0,0,.11,16.266A8.051,8.051,0,0,0,2726.467,918.275Zm12.72-8.083a8.139,8.139,0,1,0,8.121,8.217A8.188,8.188,0,0,0,2739.187,910.192Zm28.831,8.183a8.074,8.074,0,0,0-8.094-8.178,8.133,8.133,0,0,0-.091,16.266A8.055,8.055,0,0,0,2768.017,918.375Z" transform="translate(-2703.547 -905.072)" fill="#acacac"/>
      <path id="Trazado_194493" data-name="Trazado 194493" d="M2829.31,1065.835h-82.947a36.2,36.2,0,0,1,.074-6.047,4.22,4.22,0,0,1,3.874-3.444,17.058,17.058,0,0,1,2.369-.069q34.924-.005,69.848,0c5.386,0,6.782,1.4,6.782,6.771Z" transform="translate(-2698.532 -887.284)" fill="#fff"/>
      <path id="Trazado_194494" data-name="Trazado 194494" d="M2792.208,1044.423c0-4.077-.032-8.082.055-12.084.008-.381.742-.786,1.2-1.1.18-.123.513-.023.777-.023h67.812v13.205Zm53.215-3.726c2.964,0,5.929.03,8.893-.01,2.135-.029,3.367-1.1,3.353-2.791s-1.244-2.738-3.406-2.75q-8.8-.049-17.589,0c-2.137.012-3.382,1.121-3.361,2.8s1.264,2.712,3.413,2.739C2839.625,1040.724,2842.524,1040.7,2845.423,1040.7Zm-39.373,0c2.109,0,4.219.04,6.327-.011,2-.049,3.18-1.119,3.186-2.757s-1.169-2.745-3.181-2.771q-6.228-.082-12.457,0c-2.007.026-3.191,1.138-3.189,2.767s1.186,2.71,3.184,2.762C2801.962,1040.736,2804.006,1040.695,2806.05,1040.693Zm18.286-.062v.029c.786,0,1.576.056,2.356-.012a2.545,2.545,0,0,0,2.586-2.664,2.482,2.482,0,0,0-2.466-2.763,27.457,27.457,0,0,0-4.9.037,2.442,2.442,0,0,0-2.31,2.7,2.523,2.523,0,0,0,2.38,2.656A17.2,17.2,0,0,0,2824.336,1040.632Z" transform="translate(-2693.128 -890.235)" fill="#084a93"/>
      <path id="Trazado_194495" data-name="Trazado 194495" d="M2862.09,1004.143v13.135h-69.877c0-4.079-.028-8.077.049-12.073.007-.357.644-.839,1.086-1.01a4.593,4.593,0,0,1,1.568-.052h67.173Zm-16.677,9.486v-.012c3.1,0,6.193.067,9.286-.025a2.783,2.783,0,0,0,2.974-2.793,2.713,2.713,0,0,0-3.009-2.708c-6.125-.047-12.251-.085-18.373.054a3.76,3.76,0,0,0-2.658,1.582c-1.105,1.794.427,3.81,2.889,3.882C2839.485,1013.694,2842.45,1013.628,2845.414,1013.628Zm-39.234-5.56c-2.108,0-4.218-.041-6.325.011-1.918.048-3.049,1.043-3.119,2.608a2.8,2.8,0,0,0,3.059,2.911q6.42.112,12.847-.012a2.767,2.767,0,0,0,2.926-2.838c-.036-1.56-1.185-2.616-3.062-2.666C2810.4,1008.025,2808.289,1008.069,2806.18,1008.068Zm18.258.039v-.016c-.72,0-1.443-.041-2.159.009a2.54,2.54,0,0,0-2.666,2.578,2.48,2.48,0,0,0,2.4,2.821,24.347,24.347,0,0,0,5.08-.051,2.423,2.423,0,0,0,2.188-2.79,2.49,2.49,0,0,0-2.488-2.539C2826.014,1008.046,2825.224,1008.107,2824.438,1008.107Z" transform="translate(-2693.127 -893.421)" fill="#084a93"/>
      <path id="Trazado_194496" data-name="Trazado 194496" d="M2763.015,1042.442h26.595c.144.16.283.243.306.35,1.053,4.974,2.37,6.025,7.567,6.026h11.137c.06.542.088.92.147,1.293.265,1.671-.3,2.3-2.119,2.259-6-.117-11.995-.044-17.993-.044h-25.64Z" transform="translate(-2696.562 -888.91)" fill="#fff"/>
      <path id="Trazado_194497" data-name="Trazado 194497" d="M2853.519,1026.777H2799.2v-5.633h54.317Z" transform="translate(-2692.304 -891.416)" fill="#00defc"/>
      <path id="Trazado_194498" data-name="Trazado 194498" d="M2799.187,993.983h54.322v5.6h-54.322Z" transform="translate(-2692.306 -894.612)" fill="#00defc"/>
      <path id="Trazado_194499" data-name="Trazado 194499" d="M2853.027,1026.576v-4.505h11.285c0,4.028.162,7.963-.07,11.874-.11,1.849-1.349,3.356-3.589,4.411v-3.439C2860.652,1028.49,2859.517,1027.222,2853.027,1026.576Z" transform="translate(-2685.971 -891.307)" fill="#fff"/>
      <path id="Trazado_194500" data-name="Trazado 194500" d="M2717.12,919.742a2.553,2.553,0,0,1-2.569-2.54,2.515,2.515,0,0,1,2.677-2.527,2.36,2.36,0,0,1,2.351,2.606A2.416,2.416,0,0,1,2717.12,919.742Z" transform="translate(-2702.264 -903.944)" fill="#ff435f"/>
      <path id="Trazado_194501" data-name="Trazado 194501" d="M2735.484,919.728a2.4,2.4,0,0,1-2.3-2.564,2.374,2.374,0,0,1,2.486-2.5,2.546,2.546,0,0,1,2.562,2.651A2.627,2.627,0,0,1,2735.484,919.728Z" transform="translate(-2700.072 -903.944)" fill="#ffb30b"/>
      <path id="Trazado_194502" data-name="Trazado 194502" d="M2754.4,919.737a2.544,2.544,0,0,1-2.662-2.406,2.516,2.516,0,0,1,2.536-2.66,2.356,2.356,0,0,1,2.485,2.478A2.421,2.421,0,0,1,2754.4,919.737Z" transform="translate(-2697.891 -903.943)" fill="#00defc"/>
    </g>
    <rect id="Rect치ngulo_294763" data-name="Rect치ngulo 294763" width="73.227" height="16.229" transform="translate(2801.599 984.249)" fill="#084a93"/>
    <path id="Trazado_194503" data-name="Trazado 194503" d="M2764.863,1059.122h-2.551q-11.279,0-22.56-.008a12.665,12.665,0,0,1-2.16-.161,2.464,2.464,0,0,1-2.2-2.638,2.535,2.535,0,0,1,2.39-2.681,19.459,19.459,0,0,1,2.37-.092q27.409-.007,54.816,0h2.668v-4.428c0-6.3,1.271-7.684,7.576-8.144v-4.544H2704.3c0,4.035-.334,8.117.106,12.115.346,3.143,3.147,4.885,6.7,4.98,2.834.077,5.673.013,8.509.026a13.2,13.2,0,0,1,1.973.105,2.512,2.512,0,0,1,2.3,2.549c.068,1.426-.656,2.625-2.074,2.691-5.245.245-10.6,1.075-15.672-.789-4.615-1.7-7-5.4-7.585-10.245a23.2,23.2,0,0,1-.078-2.766q0-65.5,0-131.005c0-9.168,4.846-13.983,14.073-13.984h161.876c9.209,0,14.064,4.828,14.05,14q-.1,65.305-.183,130.61c0,6.525-2.106,11.443-8.6,13.813a1.891,1.891,0,0,0-.831,1.327c-.658,4.152-2.41,5.707-6.624,5.709q-23.847.01-47.693,0h-2.47v3.508c2.268,0,4.488,0,6.708,0,7.713.016,11.705,4,11.72,11.713,0,1.451.063,2.907-.031,4.352a4.519,4.519,0,0,1-4.867,4.573q-42.249.005-84.5,0a4.413,4.413,0,0,1-4.776-4.607c-.054-2.175-.069-4.358.046-6.528a9.855,9.855,0,0,1,9.064-9.375c2.557-.208,5.141-.15,7.712-.106,1.243.021,1.786-.31,1.741-1.66C2764.8,1064.749,2764.863,1062.06,2764.863,1059.122Zm117.7-121.008H2704.155v92.5h93.5c.035-.708.091-1.288.087-1.868-.022-3.958-.1-7.915-.077-11.873.025-3.8,2.047-5.862,5.8-6.079.578-.032,1.154-.085,1.876-.14v-5.7c-.929,0-1.586.041-2.237-.008-3.222-.244-5.331-2.235-5.413-5.438-.116-4.548-.124-9.1.011-13.651a5.237,5.237,0,0,1,5.483-5.332c12.2-.055,24.4-.038,36.608-.016,2.025,0,3.2,1.066,3.241,2.7.042,1.716-1.17,2.763-3.308,2.844-.594.022-1.187.007-1.781.007-10.884,0-21.767.033-32.651-.035-1.66-.01-2.171.5-2.111,2.13.113,3.03.138,6.072-.008,9.1-.087,1.814.587,2.175,2.268,2.172q32.849-.079,65.7-.04c.632,0,1.266-.075,2.1-.127,0-3.838-.063-7.52.03-11.2.039-1.516-.359-2.08-1.975-2.039-4.284.107-8.574.054-12.861.027-2.292-.015-3.581-1.072-3.555-2.812s1.309-2.734,3.628-2.744q7.025-.032,14.05,0c4.084.023,6.214,2.14,6.259,6.229.038,3.43.01,6.86.009,10.29,0,6.133-1.12,7.388-7.139,8.012a1.88,1.88,0,0,0-.45.207v5.418c.582.052,1.031.107,1.483.132,4.142.222,6.076,2.244,6.093,6.411.008,1.846-.029,3.694-.033,5.54-.007,2.621,0,5.242,0,7.893h3.777Zm-.018-5.84c.05-.694.119-1.2.119-1.716.008-5.805.032-11.609,0-17.413-.03-4.931-2.661-7.485-7.659-7.485q-81.522-.007-163.044,0c-5.068,0-7.663,2.577-7.689,7.669-.03,5.672-.011,11.344,0,17.016,0,.627.078,1.255.123,1.928Zm-47.613,151.935v-2.792c0-5.375-1.4-6.771-6.782-6.771q-34.923,0-69.848,0a17.058,17.058,0,0,0-2.369.069,4.22,4.22,0,0,0-3.874,3.444,36.2,36.2,0,0,0-.074,6.047Zm-31.7-24.364h69.839V1046.64h-67.812c-.264,0-.6-.1-.777.023-.454.312-1.188.716-1.2,1.1C2803.2,1051.763,2803.235,1055.768,2803.235,1059.845Zm69.883-43.467h-67.173a4.593,4.593,0,0,0-1.568.052c-.443.171-1.08.654-1.086,1.01-.077,4-.049,7.993-.049,12.073h69.877Zm-102.51,42.81v9.885h25.64c6,0,12-.074,17.993.044,1.822.037,2.384-.588,2.119-2.259-.059-.373-.087-.751-.147-1.293h-11.137c-5.2,0-6.514-1.053-7.567-6.026-.023-.107-.162-.19-.306-.35Zm94.761-18.171v-5.633h-54.317v5.633Zm-54.333-35.989v5.6h54.322v-5.6Zm60.174,35.9c6.49.646,7.625,1.913,7.626,8.341v3.439c2.24-1.055,3.479-2.563,3.589-4.411.232-3.911.07-7.846.07-11.874H2871.21Z" transform="translate(0 0)"/>
    <path id="Trazado_194504" data-name="Trazado 194504" d="M2803.465,955.087H2776.76c-.462,0-.923.008-1.385,0-2.441-.056-3.77-1.072-3.741-2.856.027-1.737,1.266-2.717,3.64-2.719q28.386-.022,56.773,0c2.457,0,3.716,1.07,3.616,2.915-.092,1.677-1.284,2.636-3.515,2.648-6.067.033-12.132.013-18.2.015Z" transform="translate(8.607 5.812)"/>
    <path id="Trazado_194505" data-name="Trazado 194505" d="M2756.1,977.932c-5.07,0-10.139.008-15.209-.009-.718,0-1.641.129-2.107-.249-.786-.639-1.755-1.627-1.769-2.482s.966-1.811,1.673-2.569c.277-.3,1-.247,1.515-.247q15.9-.018,31.8.006c2.241.007,3.532,1.421,3.144,3.3-.361,1.75-1.654,2.24-3.246,2.242q-6.419.007-12.839,0Z" transform="translate(4.535 8.502)"/>
    <path id="Trazado_194506" data-name="Trazado 194506" d="M2771.7,993.264c3.815,0,7.631-.022,11.447.008,2.27.017,3.535,1.082,3.5,2.838-.034,1.687-1.244,2.711-3.422,2.719q-11.546.042-23.091,0c-2.138-.008-3.405-1.085-3.428-2.742-.023-1.73,1.277-2.8,3.548-2.817C2764.068,993.244,2767.883,993.264,2771.7,993.264Z" transform="translate(6.851 10.96)"/>
    <path id="Trazado_194507" data-name="Trazado 194507" d="M2715.951,953.663c2.087,1.972,3.811,3.589,5.522,5.222a17.285,17.285,0,0,1,1.505,1.566,2.624,2.624,0,0,1,.039,3.758,2.524,2.524,0,0,1-3.875.14q-4.5-4.3-8.808-8.8a2.622,2.622,0,0,1,.133-3.912q4.2-4.322,8.531-8.524a2.618,2.618,0,0,1,3.9-.116,2.687,2.687,0,0,1-.057,4.045C2720.721,949.2,2718.48,951.243,2715.951,953.663Z" transform="translate(1.3 4.951)"/>
    <path id="Trazado_194508" data-name="Trazado 194508" d="M2743.67,953.676c-2.291-2.245-4.34-4.2-6.329-6.221-1.614-1.636-1.735-3.261-.438-4.484,1.223-1.152,2.752-.987,4.337.567q3.888,3.807,7.706,7.687c1.747,1.78,1.739,3.143-.034,4.947q-3.814,3.883-7.714,7.679c-1.6,1.558-3.115,1.679-4.352.466-1.214-1.19-1.117-2.79.408-4.345C2739.279,957.905,2741.381,955.913,2743.67,953.676Z" transform="translate(4.417 4.956)"/>
    <path id="Trazado_194509" data-name="Trazado 194509" d="M2741.452,988.437c-3.694,0-7.388.028-11.082-.01-2.29-.022-3.572-1.11-3.521-2.854.048-1.665,1.29-2.7,3.468-2.71q11.181-.045,22.36,0c2.309.01,3.539,1.078,3.5,2.852-.04,1.692-1.233,2.688-3.443,2.711C2748.971,988.468,2745.211,988.437,2741.452,988.437Z" transform="translate(3.338 9.734)"/>
    <path id="Trazado_194510" data-name="Trazado 194510" d="M2809.563,960.447c3.82,0,7.639-.018,11.459.009,1.453.01,2.739.63,2.9,2.127a4.4,4.4,0,0,1-1,2.753,2.773,2.773,0,0,1-1.982.638q-11.459.064-22.917.009c-1.959-.011-3.185-1.208-3.162-2.8s1.22-2.7,3.24-2.726c3.819-.055,7.639-.016,11.458-.016Z" transform="translate(11.34 7.097)"/>
    <path id="Trazado_194511" data-name="Trazado 194511" d="M2766.2,966.009c-3.094,0-6.187.031-9.28-.01-2.265-.03-3.54-1.135-3.473-2.884.064-1.68,1.264-2.66,3.483-2.671q9.281-.045,18.561,0c2.166.013,3.366,1.078,3.36,2.78s-1.2,2.737-3.371,2.769C2772.391,966.043,2769.3,966.008,2766.2,966.009Z" transform="translate(6.468 7.097)"/>
    <path id="Trazado_194512" data-name="Trazado 194512" d="M2841.055,986.062c-2.9,0-5.8.023-8.694-.008-2.118-.022-3.378-1.1-3.371-2.781s1.25-2.757,3.4-2.768q8.793-.045,17.586,0c2.135.012,3.375,1.1,3.365,2.793s-1.255,2.734-3.391,2.755C2846.983,986.085,2844.019,986.062,2841.055,986.062Z" transform="translate(15.355 9.457)"/>
    <path id="Trazado_194513" data-name="Trazado 194513" d="M2736.279,944.966c-.175.576-.325,1.215-.562,1.822q-3.082,7.895-6.194,15.777c-.873,2.2-2.2,2.985-3.846,2.342-1.7-.666-2.2-2.115-1.352-4.288,2.094-5.389,4.15-10.794,6.413-16.112a4.344,4.344,0,0,1,2.656-2.149c.679-.169,1.7.841,2.492,1.43C2736.138,943.974,2736.137,944.5,2736.279,944.966Z" transform="translate(2.994 4.969)"/>
    <path id="Trazado_194514" data-name="Trazado 194514" d="M2743.481,998.841c-2.827,0-5.653.024-8.48-.009-2.262-.026-3.563-1.106-3.523-2.835.039-1.677,1.28-2.713,3.431-2.723q8.677-.042,17.354,0c2.165.01,3.375,1.034,3.406,2.728.031,1.757-1.224,2.8-3.512,2.831C2749.266,998.866,2746.373,998.841,2743.481,998.841Z" transform="translate(3.883 10.96)"/>
    <path id="Trazado_194515" data-name="Trazado 194515" d="M2723.09,977.931c-2.9,0-5.8.029-8.706-.01-2.172-.028-3.383-1.062-3.384-2.769s1.218-2.766,3.372-2.777q8.706-.04,17.414,0c2.137.01,3.385,1.079,3.391,2.765s-1.226,2.752-3.38,2.781C2728.9,977.96,2725.993,977.93,2723.09,977.931Z" transform="translate(1.473 8.501)"/>
    <path id="Trazado_194516" data-name="Trazado 194516" d="M2720.953,993.268c2.242,0,4.484-.041,6.724.015,1.994.05,3.134,1.141,3.106,2.822-.025,1.6-1.123,2.685-3.014,2.709q-6.823.089-13.646.005c-1.986-.023-3.157-1.172-3.124-2.823s1.209-2.676,3.231-2.718C2716.47,993.231,2718.712,993.266,2720.953,993.268Z" transform="translate(1.473 10.96)"/>
    <path id="Trazado_194517" data-name="Trazado 194517" d="M2805.511,986.062c-2.042,0-4.086.039-6.128-.012-1.957-.049-3.158-1.184-3.122-2.825a2.771,2.771,0,0,1,3.05-2.7q6.325-.089,12.652,0c1.969.025,3.158,1.193,3.118,2.834-.04,1.626-1.244,2.666-3.243,2.7C2809.73,986.092,2807.62,986.062,2805.511,986.062Z" transform="translate(11.504 9.456)"/>
    <path id="Trazado_194518" data-name="Trazado 194518" d="M2761.059,949.524c1.512,0,3.027-.049,4.537.016,1.652.07,2.786.862,2.843,2.633A2.521,2.521,0,0,1,2765.8,955c-3.218.114-6.443.107-9.661.007a2.55,2.55,0,0,1-2.664-2.823,2.6,2.6,0,0,1,2.847-2.649C2757.9,949.48,2759.481,949.523,2761.059,949.524Z" transform="translate(6.471 5.813)"/>
    <path id="Trazado_194519" data-name="Trazado 194519" d="M2776.783,988.407c-1.512,0-3.029.077-4.536-.02a2.743,2.743,0,0,1,.037-5.485c2.956-.078,5.917-.073,8.873-.007a2.611,2.611,0,0,1,2.827,2.669c.093,1.606-1,2.718-2.865,2.834-1.44.089-2.891.018-4.337.018Z" transform="translate(8.359 9.735)"/>
    <path id="Trazado_194520" data-name="Trazado 194520" d="M2786.414,960.456c1.319,0,2.641-.061,3.954.015,1.661.1,2.788.941,2.811,2.7a2.544,2.544,0,0,1-2.7,2.783q-4.05.131-8.106,0a2.57,2.57,0,0,1-2.727-2.777,2.622,2.622,0,0,1,2.816-2.7C2783.774,960.4,2785.1,960.456,2786.414,960.456Z" transform="translate(9.549 7.098)"/>
    <path id="Trazado_194521" data-name="Trazado 194521" d="M2717.6,988.395c-1.311,0-2.63.082-3.934-.019a2.576,2.576,0,0,1-2.651-2.823,2.523,2.523,0,0,1,2.635-2.635c2.687-.088,5.38-.094,8.066,0a2.727,2.727,0,0,1,.014,5.452C2720.366,988.472,2718.983,988.394,2717.6,988.395Z" transform="translate(1.476 9.736)"/>
    <path id="Trazado_194522" data-name="Trazado 194522" d="M2762.467,982.813c.924.042,1.786.023,2.63.133a2.553,2.553,0,0,1,2.43,2.645,2.431,2.431,0,0,1-2.319,2.711,35.473,35.473,0,0,1-5.7-.019,2.384,2.384,0,0,1-2.231-2.581,2.513,2.513,0,0,1,2.312-2.729A27.543,27.543,0,0,1,2762.467,982.813Z" transform="translate(6.918 9.731)"/>
    <path id="Trazado_194523" data-name="Trazado 194523" d="M2821.55,986.025a17.762,17.762,0,0,1-2.353-.018,2.585,2.585,0,0,1-2.476-2.586,2.43,2.43,0,0,1,2.212-2.781,23.416,23.416,0,0,1,5.279,0,2.43,2.43,0,0,1,2.182,2.8,2.521,2.521,0,0,1-2.3,2.535,16.528,16.528,0,0,1-2.547.024Z" transform="translate(13.911 9.458)"/>
    <path id="Trazado_194524" data-name="Trazado 194524" d="M2841.092,1013.213c-2.964,0-5.929.066-8.891-.021-2.462-.072-3.994-2.088-2.889-3.882a3.76,3.76,0,0,1,2.658-1.582c6.123-.139,12.249-.1,18.373-.054a2.713,2.713,0,0,1,3.009,2.708,2.783,2.783,0,0,1-2.974,2.793c-3.093.092-6.19.025-9.286.025Z" transform="translate(15.35 12.651)"/>
    <path id="Trazado_194525" data-name="Trazado 194525" d="M2805.7,1007.652c2.109,0,4.219-.042,6.326.015,1.878.049,3.027,1.105,3.063,2.666a2.767,2.767,0,0,1-2.926,2.838q-6.423.134-12.847.012a2.8,2.8,0,0,1-3.059-2.911c.07-1.565,1.2-2.559,3.119-2.608C2801.486,1007.61,2803.6,1007.652,2805.7,1007.652Z" transform="translate(11.504 12.652)"/>
    <path id="Trazado_194526" data-name="Trazado 194526" d="M2821.553,1007.688c.786,0,1.576-.061,2.355.012a2.49,2.49,0,0,1,2.488,2.539,2.423,2.423,0,0,1-2.188,2.79,24.347,24.347,0,0,1-5.08.051,2.48,2.48,0,0,1-2.4-2.821,2.54,2.54,0,0,1,2.666-2.578c.716-.05,1.439-.009,2.159-.009Z" transform="translate(13.912 12.654)"/>
  </g>
</svg>
