<svg xmlns="http://www.w3.org/2000/svg" xmlns:xlink="http://www.w3.org/1999/xlink" width="330.777" height="533.999" viewBox="0 0 330.777 533.999">
  <defs>
    <clipPath id="clip-path">
      <path id="Trazado_194262" data-name="Trazado 194262" d="M267.876,1335.452c-8.621,1.828-15.145-6.416-9.481-12.013a60.335,60.335,0,0,0,6.89-8.09c11.993-16.974,5.795-28.117,16.6-58.844,6.83-19.428,11.836-32.931,26.259-37.695,11.3-3.733,27.033-1.653,34.688,5.6,6.364,6.033,7.89,16.349,7.145,23.329-.607,5.689-2.754,9.462.2,13.145,3.021,3.763,7.807,2.993,10.812,5.94,6.093,5.978-2.858,19.683-4.3,21.9-16.091,24.639-51.422,36.132-66.908,40.994C283.848,1331.578,276.513,1333.621,267.876,1335.452Z" transform="translate(-256.271 -1216.991)" fill="#b9ddfc"/>
    </clipPath>
    <clipPath id="clip-path-2">
      <path id="Trazado_194267" data-name="Trazado 194267" d="M248.3,1410.563c13.111,6.252,30.91,12.693,51.174,14.321,5.171.415,37.118,2.981,40.781-7.818,1.29-3.8-2.019-6.053-.4-11.164,1.915-6.055,7.786-6.773,15.184-11.967,4.414-3.1,17.332-12.17,13.429-22.382-2.333-6.1-10.567-12.337-18.766-14.356-12.026-2.962-21.62,3.725-37.613,15.269-14.177,10.234-15.045,13.971-25.412,21.2C278.979,1399.024,266.907,1405.711,248.3,1410.563Z" transform="translate(-248.298 -1356.498)" fill="#084a93"/>
    </clipPath>
    <linearGradient id="linear-gradient" x1="0.234" y1="0.5" x2="1.234" y2="0.5" gradientUnits="objectBoundingBox">
      <stop offset="0.494" stop-color="#ebeff2"/>
      <stop offset="1" stop-color="#fff"/>
    </linearGradient>
    <linearGradient id="linear-gradient-2" x1="0.505" y1="0.386" x2="0.42" y2="5.917" gradientUnits="objectBoundingBox">
      <stop offset="0" stop-color="#40447e"/>
      <stop offset="0.996" stop-color="#3c3b6b"/>
    </linearGradient>
    <clipPath id="clip-path-3">
      <path id="Trazado_194292" data-name="Trazado 194292" d="M94.007,958.259c0,9.6-9.675,17.317-21.773,17.238-12.281-.08-22.373-8.142-22.373-18s10.092-17.574,22.373-17.227C84.331,940.606,94.007,948.661,94.007,958.259Z" transform="translate(-49.861 -940.254)" fill="none"/>
    </clipPath>
    <linearGradient id="linear-gradient-3" x1="31.943" y1="0.805" x2="33.165" y2="5.373" gradientUnits="objectBoundingBox">
      <stop offset="0" stop-color="#ffc444"/>
      <stop offset="0.996" stop-color="#f36f56"/>
    </linearGradient>
    <linearGradient id="linear-gradient-4" x1="12.357" y1="2.319" x2="13.352" y2="2.319" gradientUnits="objectBoundingBox">
      <stop offset="0" stop-color="#444b8c"/>
      <stop offset="0.996" stop-color="#26264f"/>
    </linearGradient>
    <linearGradient id="linear-gradient-5" x1="0" y1="0.5" x2="1" y2="0.5" xlink:href="#linear-gradient-3"/>
    <linearGradient id="linear-gradient-6" x1="34.462" y1="16.96" x2="35.428" y2="16.96" xlink:href="#linear-gradient-4"/>
    <linearGradient id="linear-gradient-7" x1="0" y1="0.5" x2="1" y2="0.5" xlink:href="#linear-gradient-3"/>
    <linearGradient id="linear-gradient-8" x1="28.497" y1="0.826" x2="27.455" y2="0.187" xlink:href="#linear-gradient-2"/>
    <linearGradient id="linear-gradient-9" x1="32.799" y1="1.27" x2="31.295" y2="0.635" xlink:href="#linear-gradient-2"/>
    <linearGradient id="linear-gradient-10" x1="18.65" y1="1.602" x2="18.991" y2="0.655" xlink:href="#linear-gradient-3"/>
    <linearGradient id="linear-gradient-11" x1="0" y1="0.5" x2="1" y2="0.5" xlink:href="#linear-gradient-4"/>
    <linearGradient id="linear-gradient-13" x1="18.434" y1="0.665" x2="18.213" y2="0.284" xlink:href="#linear-gradient-4"/>
    <linearGradient id="linear-gradient-14" x1="19.589" y1="0.5" x2="20.589" y2="0.5" gradientUnits="objectBoundingBox">
      <stop offset="0" stop-color="#311944"/>
      <stop offset="1" stop-color="#893976"/>
    </linearGradient>
    <linearGradient id="linear-gradient-16" x1="0.55" y1="0.002" x2="0.42" y2="1.959" xlink:href="#linear-gradient-3"/>
    <linearGradient id="linear-gradient-17" x1="3.156" y1="-0.823" x2="2.262" y2="-2.327" gradientUnits="objectBoundingBox">
      <stop offset="0" stop-color="#311944"/>
      <stop offset="1" stop-color="#6b3976"/>
    </linearGradient>
    <linearGradient id="linear-gradient-19" x1="3.363" y1="-1.623" x2="2.253" y2="-3.908" xlink:href="#linear-gradient-17"/>
    <linearGradient id="linear-gradient-20" x1="0" y1="0.5" x2="1" y2="0.5" xlink:href="#linear-gradient-3"/>
  </defs>
  <g id="_1" data-name="1" transform="translate(29.255 -502.755)">
    <g id="Grupo_131697" data-name="Grupo 131697" transform="translate(-29.255 575.087)">
      <g id="Grupo_131665" data-name="Grupo 131665" transform="translate(162.206 257.962)">
        <path id="Trazado_194256" data-name="Trazado 194256" d="M272.171,1334.788c-9.442,2.128-16.795-6.729-10.844-13.065a59.377,59.377,0,0,0,5.216-6.374c11.993-16.974,5.795-28.117,16.6-58.844,6.83-19.428,11.836-32.931,26.259-37.695,11.3-3.733,27.033-1.653,34.688,5.6,6.364,6.033,7.89,16.349,7.145,23.329-.607,5.689-2.754,9.462.2,13.145,3.021,3.763,7.807,2.993,10.812,5.94,6.093,5.978-2.858,19.683-4.3,21.9-16.091,24.639-51.422,36.132-66.908,40.994C285.812,1331.356,279.5,1333.136,272.171,1334.788Z" transform="translate(-257.529 -1216.991)" fill="#084a93"/>
        <g id="Grupo_131664" data-name="Grupo 131664">
          <path id="Trazado_194257" data-name="Trazado 194257" d="M267.876,1335.452c-8.621,1.828-15.145-6.416-9.481-12.013a60.335,60.335,0,0,0,6.89-8.09c11.993-16.974,5.795-28.117,16.6-58.844,6.83-19.428,11.836-32.931,26.259-37.695,11.3-3.733,27.033-1.653,34.688,5.6,6.364,6.033,7.89,16.349,7.145,23.329-.607,5.689-2.754,9.462.2,13.145,3.021,3.763,7.807,2.993,10.812,5.94,6.093,5.978-2.858,19.683-4.3,21.9-16.091,24.639-51.422,36.132-66.908,40.994C283.848,1331.578,276.513,1333.621,267.876,1335.452Z" transform="translate(-256.271 -1216.991)" fill="#b9ddfc"/>
          <g id="Grupo_131663" data-name="Grupo 131663" clip-path="url(#clip-path)">
            <g id="Grupo_131662" data-name="Grupo 131662" transform="translate(-34.282 -5.666)" opacity="0.5" style="mix-blend-mode: soft-light;isolation: isolate">
              <path id="Trazado_194258" data-name="Trazado 194258" d="M196.016,1336.782l-.091-.664c15.137-1.379,28.607-3.982,40.036-7.735,16.845-5.531,28.739-13.431,35.351-23.478,5.179-7.871,7.033-16.766,9.6-29.077a138.333,138.333,0,0,0,2.731-23.224c.419-8.213.749-14.7,4.691-23.39,4-8.818,10.51-17.053,19.353-24.476l.589.465c-8.762,7.356-15.212,15.513-19.172,24.242-3.9,8.592-4.226,15.033-4.641,23.187a138.786,138.786,0,0,1-2.742,23.308c-2.482,11.907-4.442,21.313-9.685,29.28-6.705,10.189-18.739,18.19-35.767,23.782C224.77,1332.78,211.227,1335.4,196.016,1336.782Z" transform="translate(-195.925 -1204.739)" fill="#fff"/>
              <path id="Trazado_194259" data-name="Trazado 194259" d="M332.707,1286.582l-.365-.233A51.8,51.8,0,0,1,319.5,1273.57a41.447,41.447,0,0,1-6.145-36.21l.8.151a40.893,40.893,0,0,0,6.058,35.727,51.882,51.882,0,0,0,12.277,12.344,89,89,0,0,1,37.329-28.868,79.026,79.026,0,0,1,20.194-5.606l.1.663a78.137,78.137,0,0,0-19.953,5.553,88.187,88.187,0,0,0-37.209,28.934Z" transform="translate(-245.892 -1222.275)" fill="#fff"/>
              <path id="Trazado_194260" data-name="Trazado 194260" d="M304.854,1350.628l-.1-.228a127.091,127.091,0,0,0-12.4-21.054c-7.442-10.032-29.895-17.68-30.121-17.756l.314-.618c.228.077,22.928,7.807,30.509,18.028a128.242,128.242,0,0,1,12.366,20.942c26.393-1.025,67.213-42.153,67.624-42.57l.64.418a268.425,268.425,0,0,1-24.072,21.108c-18.252,14.1-33.21,21.412-44.46,21.721Z" transform="translate(-224.562 -1259.91)" fill="#fff"/>
              <path id="Trazado_194261" data-name="Trazado 194261" d="M287.664,1420c-9.144,0-14.989-.621-15.073-.63l-.811-.088.572-.476c9.041-7.53,11.06-17,6-28.155a52.361,52.361,0,0,0-10.4-14.6l.619-.438a53.12,53.12,0,0,1,10.55,14.809c5,11.016,3.054,20.808-5.612,28.365a188.517,188.517,0,0,0,27.988.075c15.337-1.051,37.824-4.431,57.852-14.569l38.917-19.7.433.567-38.918,19.7c-20.173,10.212-42.8,13.614-58.237,14.669C296.414,1419.878,291.716,1420,287.664,1420Z" transform="translate(-227.035 -1296.592)" fill="#fff"/>
            </g>
          </g>
        </g>
      </g>
      <g id="Grupo_131669" data-name="Grupo 131669" transform="translate(157.677 322.476)">
        <g id="Grupo_131668" data-name="Grupo 131668">
          <path id="Trazado_194263" data-name="Trazado 194263" d="M248.3,1410.563c13.111,6.252,30.91,12.693,51.174,14.321,5.171.415,37.118,2.981,40.781-7.818,1.29-3.8-2.019-6.053-.4-11.164,1.915-6.055,7.786-6.773,15.184-11.967,4.414-3.1,17.332-12.17,13.429-22.382-2.333-6.1-10.567-12.337-18.766-14.356-12.026-2.962-21.62,3.725-37.613,15.269-14.177,10.234-15.045,13.971-25.412,21.2C278.979,1399.024,266.907,1405.711,248.3,1410.563Z" transform="translate(-248.298 -1356.498)" fill="#084a93"/>
          <g id="Grupo_131667" data-name="Grupo 131667" clip-path="url(#clip-path-2)">
            <g id="Grupo_131666" data-name="Grupo 131666" transform="translate(-58.762 -8.532)" opacity="0.5" style="mix-blend-mode: soft-light;isolation: isolate">
              <path id="Trazado_194264" data-name="Trazado 194264" d="M210.361,1400.788a103.365,103.365,0,0,1-65.5-23.319l.579-.473a102.846,102.846,0,0,0,41.08,20.333c20.077,4.813,41.455,3.395,63.541-4.214,23.01-7.927,41.023-20.587,52.082-29.811a50.6,50.6,0,0,0,16.1-25.256l.8.154a51.234,51.234,0,0,1-16.308,25.568c-11.112,9.268-29.214,21.989-52.35,29.96A122.682,122.682,0,0,1,210.361,1400.788Z" transform="translate(-144.861 -1338.047)" fill="#fff"/>
              <path id="Trazado_194265" data-name="Trazado 194265" d="M378.7,1388.4l-.058-.3c-.043-.219-4.058-22,12.94-35.961l.583.47c-15.627,12.833-13.176,32.443-12.762,35.089,38.26-1.7,49.913-18.668,52.578-23.843.075-.145.124-.235.147-.266l.707.34-.353-.17.358.163c-.019.029-.051.094-.1.191-2.722,5.283-14.635,22.647-53.67,24.268Z" transform="translate(-245.64 -1345.622)" fill="#fff"/>
              <path id="Trazado_194266" data-name="Trazado 194266" d="M368.547,1410.558h-.136c-8.6-.021-22.176-2.184-37.992-12.364l-.172-.11.018-.178c.017-.167,1.812-16.864,16.139-33.98l14.432-17.241.678.376L347.082,1364.3c-13.41,16.02-15.747,31.655-15.978,33.481,8.635,5.53,22.064,12.07,37.31,12.107h.13c9.071,0,14.53-2.34,14.584-2.364l.389.588C383.287,1408.215,377.818,1410.558,368.547,1410.558Z" transform="translate(-224.93 -1342.69)" fill="#fff"/>
            </g>
          </g>
        </g>
      </g>
      <g id="Grupo_131672" data-name="Grupo 131672" transform="translate(0 306.373)">
        <g id="Grupo_131671" data-name="Grupo 131671">
          <path id="Trazado_194268" data-name="Trazado 194268" d="M307.533,1608.356l-322.871-2.271v6.722a3.766,3.766,0,0,0,3.315,3.652l91.3,13.236a15.482,15.482,0,0,0,3.276.125l221.473-15.092a3.664,3.664,0,0,0,3.509-3.566Z" transform="translate(23.244 -1474.562)" fill="#bfc8d6"/>
          <g id="Grupo_131670" data-name="Grupo 131670">
            <path id="Trazado_194269" data-name="Trazado 194269" d="M188.2,1326.839V1439.29a5.214,5.214,0,0,1-1.65,3.725,6.036,6.036,0,0,1-3.84,1.686l-148.36,8.908-55.315,3.332h-.009l-.374.006-1.2.059c-3.673.22-6.7-2.128-6.7-5.233v-124.4c0-3.1,3.077-5.7,6.75-5.7H182.7A5.371,5.371,0,0,1,188.2,1326.839Z" transform="translate(29.255 -1321.676)" fill="#bfc8d6"/>
            <path id="Trazado_194270" data-name="Trazado 194270" d="M193.976,1326.839V1439.29a5.518,5.518,0,0,1-3.536,4.954l-.1.037a6.059,6.059,0,0,1-.606.206l-.139.041c-.037.007-.076.017-.109.024-.149.037-.3.065-.454.088a5.018,5.018,0,0,1-.561.061l-1.04.055L39.774,1453.6h-.009l-56.506,3.391a7.48,7.48,0,0,1-1.584-.048,1,1,0,0,0-.145,0h-.009a2.028,2.028,0,0,1-.415-.092c-2.637-.586-4.583-2.594-4.583-5.076v-124.4c0-3.1,3.069-5.7,6.742-5.7H188.472A5.379,5.379,0,0,1,193.976,1326.839Z" transform="translate(26.76 -1321.676)" fill="#fff"/>
            <path id="Trazado_194271" data-name="Trazado 194271" d="M188.928,1445.259-2.2,1455.941c-2.988.167-5.416-1.752-5.416-4.287V1342.746c0-2.535,2.428-4.6,5.416-4.608l191.132-.671a4.337,4.337,0,0,1,4.515,4.165v99.2A4.663,4.663,0,0,1,188.928,1445.259Z" transform="translate(19.911 -1330.164)" fill="#d8dee8"/>
            <path id="Trazado_194272" data-name="Trazado 194272" d="M178.163,1326.776a2.38,2.38,0,1,1-2.36-2.092A2.246,2.246,0,0,1,178.163,1326.776Z" transform="translate(-58.288 -1323.293)" fill="#fff"/>
            <path id="Trazado_194273" data-name="Trazado 194273" d="M-16.676,1457.089,187.5,1444.854l1.039-.062a6.028,6.028,0,0,0,3.614-1.489c-14.693-.655-23.819-4.9-29.705-9.284-11.822-8.807-9.771-17.492-22.52-23.283-15.9-7.222-28.4,1.929-40.47-7.1-7.315-5.474-3.723-9.556-12.725-17.737-9.97-9.061-16.46-6.015-26.48-14.17-12.669-10.312-6.333-18.334-17.245-25.737-13.238-8.981-27.515-.668-40.117-9.282-5.435-3.715-8.417-9.116-9.975-14.86h-9.588c-3.672,0-6.658,2.517-6.658,5.622v124.395C-23.334,1454.97-20.349,1457.308-16.676,1457.089Z" transform="translate(26.698 -1321.769)" fill="#fff" opacity="0.48" style="mix-blend-mode: soft-light;isolation: isolate"/>
          </g>
          <path id="Trazado_194274" data-name="Trazado 194274" d="M201.657,1586.186-15.338,1599.13l94.614,13.718a15.5,15.5,0,0,0,3.276.124l224.982-15.331-102.424-11.366A20.338,20.338,0,0,0,201.657,1586.186Z" transform="translate(23.244 -1463.846)" fill="url(#linear-gradient)"/>
          <path id="Trazado_194275" data-name="Trazado 194275" d="M40.4,1601.746l180.655-10.937,55.911,6.155-179.1,11.691Z" transform="translate(-0.828 -1466.35)" fill="#d8dee8"/>
        </g>
      </g>
      <path id="Trazado_194276" data-name="Trazado 194276" d="M191.289,1051.477v112.285a8.376,8.376,0,0,1-.625,3.006,10.234,10.234,0,0,1-2.535,3.68,14.041,14.041,0,0,1-8.79,3.687l-148.584,9.128-8.763.538a16.991,16.991,0,0,1-5.908-.64c-3.6-1.067-6.281-3.332-7.351-6.223A7.716,7.716,0,0,1,8.3,1174.2v-122.72Z" transform="translate(13.035 -870.056)" fill="#bfc8d6" opacity="0.3" style="mix-blend-mode: multiply;isolation: isolate"/>
      <g id="Grupo_131683" data-name="Grupo 131683" transform="translate(8.865 91.869)">
        <path id="Trazado_194277" data-name="Trazado 194277" d="M172.174,862.117l-170.8-4.284c-8.277-.208-15.026,4.7-15.026,10.969v198.106c0,6.266,6.749,10.932,15.026,10.423l170.8-10.49c7.155-.439,12.924-5.478,12.924-11.256V872.9C185.1,867.125,179.329,862.3,172.174,862.117Z" transform="translate(13.651 -857.827)" fill="#b9ddfc"/>
        <path id="Trazado_194278" data-name="Trazado 194278" d="M-5.172,1071.96V871.87c0-3.606,3.881-6.438,8.653-6.325l173.708,4.11c4.126.1,7.46,2.882,7.46,6.22v185.182c0,3.337-3.334,6.243-7.46,6.491L3.481,1077.971C-1.291,1078.257-5.172,1075.566-5.172,1071.96Z" transform="translate(9.989 -861.974)" fill="#b9ddfc"/>
        <path id="Trazado_194279" data-name="Trazado 194279" d="M172.174,862.117l-170.8-4.284c-8.277-.208-15.026,4.7-15.026,10.969v8.139L185.1,880.409V872.9C185.1,867.125,179.329,862.3,172.174,862.117Z" transform="translate(13.651 -857.827)" fill="url(#linear-gradient-2)"/>
        <path id="Trazado_194280" data-name="Trazado 194280" d="M25.92,876c0,2.029-2.17,3.632-4.853,3.579s-4.872-1.747-4.872-3.784,2.184-3.64,4.872-3.579S25.92,873.969,25.92,876Z" transform="translate(0.76 -865.561)" fill="#fff"/>
        <path id="Trazado_194281" data-name="Trazado 194281" d="M55.767,876.8c0,2.016-2.142,3.608-4.788,3.556s-4.807-1.735-4.807-3.758,2.155-3.615,4.807-3.556S55.767,874.783,55.767,876.8Z" transform="translate(-12.186 -866.005)" fill="#fff"/>
        <path id="Trazado_194282" data-name="Trazado 194282" d="M85.216,877.588c0,2-2.113,3.584-4.725,3.533s-4.742-1.722-4.742-3.732,2.125-3.592,4.742-3.533S85.216,875.586,85.216,877.588Z" transform="translate(-24.961 -866.443)" fill="#fff"/>
        <g id="Grupo_131682" data-name="Grupo 131682" transform="translate(17.527 33.346)">
          <g id="Grupo_131676" data-name="Grupo 131676" transform="translate(12.396)">
            <path id="Trazado_194283" data-name="Trazado 194283" d="M95.115,952.814c0,12.151-12.224,21.957-27.562,21.9-15.634-.056-28.53-10.3-28.53-22.877s12.9-22.373,28.53-21.886C82.891,930.431,95.115,940.662,95.115,952.814Z" transform="translate(-39.022 -929.936)" fill="#084a93"/>
            <path id="Trazado_194284" data-name="Trazado 194284" d="M94.507,955.85c0,10.73-10.806,19.372-24.34,19.3-13.763-.072-25.091-9.1-25.091-20.16S56.4,935.3,70.167,935.7C83.7,936.1,94.507,945.12,94.507,955.85Z" transform="translate(-41.637 -933.029)" fill="#fff" opacity="0.9"/>
            <g id="Grupo_131675" data-name="Grupo 131675" transform="translate(6.158 4.771)">
              <g id="Grupo_131674" data-name="Grupo 131674" clip-path="url(#clip-path-3)">
                <g id="Grupo_131673" data-name="Grupo 131673" transform="translate(-1.189 5.564)">
                  <path id="Trazado_194285" data-name="Trazado 194285" d="M83.726,970.987a3.792,3.792,0,0,0,2.014.643,3.685,3.685,0,0,0,2.025-.587,5.943,5.943,0,0,0,2.566-4.924,4.526,4.526,0,0,0-4.591-4.669,4.323,4.323,0,0,0-4.616,4.491A6.2,6.2,0,0,0,83.726,970.987Z" transform="translate(-62.175 -957.211)" fill="#084a93"/>
                  <path id="Trazado_194286" data-name="Trazado 194286" d="M91.191,991.264a11.036,11.036,0,0,0-1.653-2.091c-.062-.062-.187-.121-.259-.182-.006-.006-.027-.011-.034-.017s-.046-.036-.065-.054-.062-.056-.094-.083a.24.24,0,0,0-.048-.043c-.064-.062-.135-.122-.2-.182l-.035-.029-.077-.065-.009-.008c-.019-.018-.039-.033-.057-.048s-.049-.04-.072-.059a.423.423,0,0,0-.047-.038l-.142-.113-.031-.023c-.061-.047-.123-.093-.185-.14-.026-.019-.051-.039-.077-.058-.049-.035-.1-.072-.149-.106l-.036-.024a12.937,12.937,0,0,0-4.963-2.058c-.062-.013-.124-.024-.186-.036l0,0,0,.005a13.907,13.907,0,0,0-1.7-.189c-.195-.01-.388-.022-.585-.025-.831-.013-1.643.542-2.425.179h-.026l0,0h-.013a.057.057,0,0,1-.023-.007l0,.007h0c-3.645.725-6.665,2.57-8.115,5.239a7.505,7.505,0,0,0-.936,3.6v.295l23.153.215v-.291a9.667,9.667,0,0,0-.891-3.575Z" transform="translate(-56.908 -970.196)" fill="#084a93"/>
                  <path id="Trazado_194287" data-name="Trazado 194287" d="M64.33,962.543c2.577.047,4.66-2.715,4.66-5.539a4.59,4.59,0,0,0-4.66-4.716,4.359,4.359,0,0,0-4.686,4.513C59.644,959.641,61.745,962.5,64.33,962.543Z" transform="translate(-52.897 -952.286)" fill="#084a93"/>
                  <path id="Trazado_194288" data-name="Trazado 194288" d="M66.873,979.323c.007,0,.011-.215.018-.215h0c.156,0,.315.216.474.072.011.009,0,.121.009.13l-.017.109v0l.049-.308h0l0,.005-.009-.005h0c-.447,0-.929-.543-1.444-.849.007.01.015.085.022.1s-.006.028-.009.027a13.349,13.349,0,0,0-6.627-1.821c-6.443-.115-11.567,3.96-11.567,9.082v.049l10.825.132a.738.738,0,0,1-.08.034A12.161,12.161,0,0,1,66.873,979.323Z" transform="translate(-47.768 -965.334)" fill="#084a93"/>
                  <path id="Trazado_194289" data-name="Trazado 194289" d="M82.335,982.787a.855.855,0,0,1,.187.128.8.8,0,0,0-.187-.131Z" transform="translate(-62.698 -968.68)" fill="#084a93"/>
                  <path id="Trazado_194290" data-name="Trazado 194290" d="M106.56,963.666c2.5.046,4.524-2.677,4.524-5.459a4.489,4.489,0,0,0-4.524-4.646,4.263,4.263,0,0,0-4.549,4.448C102.011,960.808,104.051,963.621,106.56,963.666Z" transform="translate(-71.196 -952.971)" fill="#084a93"/>
                  <path id="Trazado_194291" data-name="Trazado 194291" d="M103.514,977.506a12.456,12.456,0,0,0-6.172,1.454,10.113,10.113,0,0,0-1.55,1.049l.051,0c.211.051.443-.042.649.019a13.545,13.545,0,0,1,8.118,6.61l9.759.121v-.048C114.369,981.737,109.725,977.617,103.514,977.506Z" transform="translate(-68.51 -965.842)" fill="#084a93"/>
                </g>
              </g>
            </g>
          </g>
          <path id="Trazado_194293" data-name="Trazado 194293" d="M231.9,943.673,166.9,941.962v-6.289l65.006,1.969Z" transform="translate(-81.855 -933.02)" fill="#fff"/>
          <path id="Trazado_194294" data-name="Trazado 194294" d="M245.705,973.747,166.9,972.363v-6.289l78.808,1.7Z" transform="translate(-81.855 -949.362)" fill="#fff"/>
          <path id="Trazado_194295" data-name="Trazado 194295" d="M245.705,1003.445l-78.808-.681v-6.289l78.808,1Z" transform="translate(-81.855 -965.704)" fill="#fff"/>
          <path id="Trazado_194296" data-name="Trazado 194296" d="M181.051,1213.609,17.2,1222.747v-6.627l163.85-8.486Z" transform="translate(-17.202 -1079.215)" fill="#fff"/>
          <path id="Trazado_194297" data-name="Trazado 194297" d="M181.051,1242.139,17.2,1252.7v-6.237l163.85-9.943Z" transform="translate(-17.202 -1094.74)" fill="#fff"/>
          <g id="Grupo_131681" data-name="Grupo 131681" transform="translate(0 56.368)">
            <g id="Grupo_131678" data-name="Grupo 131678" transform="translate(0 0.318)">
              <path id="Trazado_194298" data-name="Trazado 194298" d="M97.345,1113.011,17.2,1116.364v-63.539l80.144-.308Z" transform="translate(-17.202 -1052.517)" fill="#fff" opacity="0.42"/>
              <g id="Grupo_131677" data-name="Grupo 131677" transform="translate(7.569 8.237)">
                <path id="Trazado_194299" data-name="Trazado 194299" d="M95.531,1076.667l-65.006.84v-6.6l65.006-.581Z" transform="translate(-30.525 -1070.329)" fill="#fff"/>
                <path id="Trazado_194300" data-name="Trazado 194300" d="M95.531,1104.512l-65.006,1.358v-6.209l65.006-1.114Z" transform="translate(-30.525 -1085.498)" fill="#fff"/>
                <path id="Trazado_194301" data-name="Trazado 194301" d="M95.531,1132.3l-65.006,1.892v-6.6l65.006-1.632Z" transform="translate(-30.525 -1100.233)" fill="#fff"/>
                <path id="Trazado_194302" data-name="Trazado 194302" d="M95.531,1159.709l-65.006,2.41v-6.6l65.006-2.151Z" transform="translate(-30.525 -1114.969)" fill="#fff"/>
              </g>
            </g>
            <g id="Grupo_131680" data-name="Grupo 131680" transform="translate(93.056)">
              <path id="Trazado_194303" data-name="Trazado 194303" d="M251.8,1109.119,181,1112.093v-60l70.794-.268Z" transform="translate(-181.004 -1051.829)" fill="#fff" opacity="0.42"/>
              <g id="Grupo_131679" data-name="Grupo 131679" transform="translate(7.569 6.034)">
                <path id="Trazado_194304" data-name="Trazado 194304" d="M204.123,1145.14l-9.8.357v-19.775l9.8-.24Z" transform="translate(-194.328 -1097.456)" fill="#fff"/>
                <path id="Trazado_194305" data-name="Trazado 194305" d="M231.555,1131.092l-9.8.378V1100.64l9.8-.18Z" transform="translate(-206.176 -1084.005)" fill="#fff"/>
                <path id="Trazado_194306" data-name="Trazado 194306" d="M259.431,1118.949l-10.241.374v-40.2l10.241-.117Z" transform="translate(-218.023 -1072.47)" fill="#fff"/>
                <path id="Trazado_194307" data-name="Trazado 194307" d="M285.526,1110.794l-8.9.355v-46.2l8.9-.072Z" transform="translate(-229.871 -1064.876)" fill="#fff"/>
              </g>
            </g>
          </g>
        </g>
      </g>
      <g id="Grupo_131690" data-name="Grupo 131690" transform="translate(110.991 159.466)">
        <path id="Trazado_194308" data-name="Trazado 194308" d="M230.754,1139.532c-4.219-4.965,7.46-23.619,13.712-31.792,5.461-7.141,11.074-14.48,17.967-13.551,6.052.816,11.941,7.851,12.294,14.593C275.675,1126.92,236.752,1146.59,230.754,1139.532Z" transform="translate(-193.647 -1052.439)" fill="url(#linear-gradient-3)"/>
        <path id="Trazado_194309" data-name="Trazado 194309" d="M310.34,1606.539c.794.711.94,2.489,1.036,3.65a3.176,3.176,0,0,1,.011.961c-.384,1.337-2.736,1.478-6.424,1.893-5.829.657-7.563,1.162-8.019.206-.428-.9.607-2.363.724-2.525.626-.869,1.395-1.186,2.881-1.725,2.75-1,4.608-1.544,5.17-1.709C309.232,1606.257,309.818,1606.072,310.34,1606.539Z" transform="translate(-222.578 -1327.768)" fill="url(#linear-gradient-4)"/>
        <path id="Trazado_194310" data-name="Trazado 194310" d="M314.057,1594.13l-.583,7.321a3.347,3.347,0,0,0,3.708.5l1.5-7.2Z" transform="translate(-229.762 -1321.228)" fill="url(#linear-gradient-5)"/>
        <path id="Trazado_194311" data-name="Trazado 194311" d="M227.706,1603.536a3.908,3.908,0,0,1,.341,4.343c-.814,1.034-2.037.259-5.506.373-3.716.122-4.687,1.09-7.213.322-1.02-.311-2.822-1.065-2.788-1.868.024-.565.941-.856,4.006-1.988,4.349-1.606,4.33-1.693,5.254-1.862C224.119,1602.432,226.448,1602.006,227.706,1603.536Z" transform="translate(-186.168 -1325.706)" fill="url(#linear-gradient-6)"/>
        <path id="Trazado_194312" data-name="Trazado 194312" d="M233.627,1590.339l-1.864,6.834a3.376,3.376,0,0,0,3.663.815l2.768-6.633Z" transform="translate(-194.47 -1319.19)" fill="url(#linear-gradient-7)"/>
        <path id="Trazado_194313" data-name="Trazado 194313" d="M250.244,1266.645a704.7,704.7,0,0,1-5.1,76.856,698.732,698.732,0,0,1-13.253,74.824l7.135,2.116a67.638,67.638,0,0,0,17.318-29.76c2.279-8.562,1.52-12.962,2.965-23.494,2.3-16.769,6.965-25.554,11.785-39.077a241.094,241.094,0,0,0,12.2-53.821Z" transform="translate(-194.526 -1145.186)" fill="url(#linear-gradient-8)"/>
        <path id="Trazado_194314" data-name="Trazado 194314" d="M301.987,1261.784q2.183,43.82,3.56,89.255,1.021,34.088,1.513,67.3l7.288.992a99.407,99.407,0,0,0,7.6-21.623c2.594-11.465,1.993-18.274,3.131-30.157,1.277-13.328,3.13-16.231,6.415-33.044,6.666-34.121,10-51.181,2.563-61.793C331.645,1269.274,324.077,1260.631,301.987,1261.784Z" transform="translate(-224.8 -1142.517)" fill="url(#linear-gradient-9)"/>
        <path id="Trazado_194315" data-name="Trazado 194315" d="M318,1097.22a103.651,103.651,0,0,0-24.239-4.462c-14.564-.907-21.847-1.361-27.007,2.462-11.919,8.83-2.691,29.209-7.57,79.728-.7,7.215-.853,14.48-1.358,21.714-.835,11.977-1.025,12.628-.269,13.841,4.741,7.61,22.429-3.869,48.355.669,14.506,2.539,21.085,8.388,25.059,4.169,4.635-4.92.659-18.154-2.763-29.546-3.928-13.077-6.355-13.245-8.585-23.093-2.331-10.293-.921-15.593-.558-31.825A317,317,0,0,0,318,1097.22Z" transform="translate(-205.405 -1051.375)" fill="#ffb30b"/>
        <g id="Grupo_131684" data-name="Grupo 131684" transform="translate(54.858 64.261)" opacity="0.3" style="mix-blend-mode: multiply;isolation: isolate">
          <path id="Trazado_194316" data-name="Trazado 194316" d="M285.162,1219.386c6.776-.584,11.172,3.638,17.021.347,8.021-4.513,10.6-18.554,10.087-28.491-.777-15.1-8.6-19.079-7.25-28.838.729-5.278,4.148-12.285,16.422-19.444.164,6.025.132,11.161.041,15.241-.363,16.232-1.773,21.532.558,31.826,2.23,9.848,4.656,10.016,8.585,23.093,3.422,11.392,7.4,24.626,2.763,29.546-3.974,4.219-10.554-1.631-25.059-4.169-22.339-3.91-38.553,4.062-45.648,1.477C271.255,1224.357,279.03,1219.914,285.162,1219.386Z" transform="translate(-262.682 -1142.959)" fill="url(#linear-gradient-10)"/>
        </g>
        <path id="Trazado_194317" data-name="Trazado 194317" d="M335.294,1103.318c4.84-4.383,14.571.578,17.172,1.9,14.506,7.4,27.53,27.326,24.3,48.389-.484,3.159-2.729,17.934-14.079,25.093-10.241,6.459-24.07,4.8-35.15-4.351L323,1169.91l-4.469-5.325a35.136,35.136,0,0,1,11.908-7.232c7.367-2.62,12.73,2.082,16.149-1.493,2.359-2.467,2.364-6.824,1.782-9.465-1.174-5.323-5.431-6.819-8.984-10.6C331.038,1126.922,329.5,1108.566,335.294,1103.318Z" transform="translate(-231.945 -1056.436)" fill="#ffb30b"/>
        <g id="Grupo_131685" data-name="Grupo 131685" transform="translate(33.635 114.496)">
          <path id="Trazado_194318" data-name="Trazado 194318" d="M225.491,1252.825l64.868-1.067-17.249,9.176-47.784-3.447Z" transform="translate(-225.325 -1251.679)" fill="#00defc"/>
          <path id="Trazado_194319" data-name="Trazado 194319" d="M326.556,1253.566h0a3.184,3.184,0,0,1-1.9,2.991l-20.728,8.957-.094-6.21,20.433-7.639A1.836,1.836,0,0,1,326.556,1253.566Z" transform="translate(-259.233 -1251.588)" fill="url(#linear-gradient-11)"/>
        </g>
        <path id="Trazado_194320" data-name="Trazado 194320" d="M313.92,1241.268c.4-.1-1.939-5.232-3.775-4.64s-10.81,6.326-11.626,8.687l-.816,2.361a18.278,18.278,0,0,0,6.343-.562C306.474,1246.216,310.682,1242.064,313.92,1241.268Z" transform="translate(-222.95 -1129.025)" fill="url(#linear-gradient-7)"/>
        <g id="Grupo_131687" data-name="Grupo 131687" transform="translate(0 74.155)">
          <g id="Grupo_131686" data-name="Grupo 131686">
            <path id="Trazado_194321" data-name="Trazado 194321" d="M242.688,1168.842l4.572,45.89c.158,1.583-1.853,3.942-3.3,3.867l-67.076-4.539a2.444,2.444,0,0,1-2.207-2.15l-8.419-44.322c-.252-1.613,2.379-3.279,3.863-3.233l70.292,2.179A2.457,2.457,0,0,1,242.688,1168.842Z" transform="translate(-166.173 -1164.354)" fill="url(#linear-gradient-13)"/>
            <path id="Trazado_194322" data-name="Trazado 194322" d="M241.1,1171.735l4.573,45.891a2.5,2.5,0,0,1-2.449,2.873l-67.924-3.545a2.444,2.444,0,0,1-2.206-2.15l-6.94-44.525a2.519,2.519,0,0,1,2.384-3.03l70.292,2.179A2.456,2.456,0,0,1,241.1,1171.735Z" transform="translate(-166.118 -1165.91)" fill="#00defc"/>
          </g>
          <path id="Trazado_194323" data-name="Trazado 194323" d="M205.789,1208.551c5.931-2.771,3.837-8.055,10.842-14.639,9.24-8.686,18.657-4.919,21.954-11.652,1.027-2.1,1.517-5.36-.272-10.64l5.09.158a2.457,2.457,0,0,1,2.271,2.308l4.573,45.891a2.5,2.5,0,0,1-2.449,2.873l-67.924-3.545a2.444,2.444,0,0,1-2.206-2.15l-.958-6.144a24.244,24.244,0,0,1,7.4-3.056C194.071,1205.726,198.961,1211.741,205.789,1208.551Z" transform="translate(-170.692 -1168.26)" opacity="0.3" fill="url(#linear-gradient-14)" style="mix-blend-mode: multiply;isolation: isolate"/>
        </g>
        <path id="Trazado_194324" data-name="Trazado 194324" d="M174.725,1259.92a.581.581,0,0,1,.477-.77c1.436-.081,4.765-.114,6.6,1.127,2.388,1.612,5.475,4.554,2.875,6.039l-2.427,1.387a.478.478,0,0,1-.356.054c-.862-.209-4.494-1.1-4.891-1.318C176.645,1266.238,175.26,1261.709,174.725,1259.92Z" transform="translate(-169.824 -1141.14)" fill="url(#linear-gradient-7)"/>
        <g id="Grupo_131689" data-name="Grupo 131689" transform="translate(63.765)">
          <path id="Trazado_194325" data-name="Trazado 194325" d="M301.5,1031.682a94.77,94.77,0,0,0,1.4,17.238c.81,4.592,1.392,5.778,2.137,6.741,1.12,1.449,2.818,2.664,12.411,5.286,5.22,1.427,5.891,1.388,6.006,1.959.562,2.785-13.672,12.279-28.378,9.991-9-1.4-17.189-7.06-16.686-10.032.506-2.991,9.5-1.386,12.175-6.8,1.864-3.765-.226-9.109-2.7-13.535C290.256,1037.592,299.1,1036.622,301.5,1031.682Z" transform="translate(-278.361 -1018.881)" fill="url(#linear-gradient-16)"/>
          <g id="Grupo_131688" data-name="Grupo 131688" transform="translate(4.811)">
            <path id="Trazado_194326" data-name="Trazado 194326" d="M288.449,1019.719a11.319,11.319,0,0,1,.192-11.972c2.107-2.954,5.421-3.374,7.405-3.627,5.75-.732,13,1.914,15.528,7.747,1.5,3.457-1.74,10.64-2.246,11.931-.574,1.46-1.613,1.961-2.576,3.065-1.333,1.531-3.421,3.965-6.827,8.037a28.044,28.044,0,0,0-1.307-4.3,23.759,23.759,0,0,0-2.731-5.054C292.892,1021.517,290.462,1022.666,288.449,1019.719Z" transform="translate(-286.831 -1004)" fill="url(#linear-gradient-17)"/>
            <path id="Trazado_194327" data-name="Trazado 194327" d="M305.266,1045.206s-3.78,6.835-11.306,6.3c-6.739-.483-7.726-17.14-3.422-20.674a7.827,7.827,0,0,1,6.65-.947c1.381.427,1.849,1.059,4.118,1.708,2.093.6,2.684.343,3.316.929.79.734,1.369,2.531.049,7.4,1.286-1.434,2.829-1.985,3.922-1.416a2.416,2.416,0,0,1,.9.964C310.433,1041.367,308.856,1043.8,305.266,1045.206Z" transform="translate(-287.311 -1017.731)" fill="url(#linear-gradient-7)"/>
            <path id="Trazado_194328" data-name="Trazado 194328" d="M304.761,1033.775c-.325.267.669,1.6.742,3.5.144,3.671-3.227,8.078-6.667,8.452-2.033.221-2.592-1.13-5.954-1.521a14.017,14.017,0,0,0-4.9.312c-1.056,4.027-.062,8.042,2.379,9.9,2.629,2.005,5.987.789,7.391.28a9.7,9.7,0,0,0,5.522-4.466c1.639-3.17.031-5.081,1.91-7.225.949-1.082,2.194-1.55,3.407-3.644a10.642,10.642,0,0,0,.683-1.411C307.534,1035.92,305.232,1033.388,304.761,1033.775Z" transform="translate(-287.146 -1019.984)" fill="url(#linear-gradient-19)"/>
            <path id="Trazado_194329" data-name="Trazado 194329" d="M292.186,1060.228a7.55,7.55,0,0,0,3.97.683c.122-.008.257.032.273.1.058.263-1.555,1.443-3.042.982-1.055-.327-1.876-1.429-1.734-1.709C291.712,1060.167,291.951,1060.182,292.186,1060.228Z" transform="translate(-288.906 -1034.207)" fill="url(#linear-gradient-20)"/>
          </g>
        </g>
      </g>
      <g id="Grupo_131696" data-name="Grupo 131696" transform="translate(29.859 0)">
        <g id="Grupo_131694" data-name="Grupo 131694" transform="translate(0)">
          <g id="Grupo_131693" data-name="Grupo 131693" style="isolation: isolate">
            <g id="Grupo_131691" data-name="Grupo 131691" transform="translate(0 1.722)">
              <path id="Trazado_194330" data-name="Trazado 194330" d="M107.633,662.922c16.3.708,29.91,12.917,30.6,27.263a22.706,22.706,0,0,1-.153,4.005,25.092,25.092,0,0,1,9.058-1.348c13.03.412,23.935,10.2,24.486,21.87.524,11.083-8.465,20.028-20.513,20.739-.636.034-1.279.053-1.93.043l-113.506-1.9c-6.719-1.147-12.046-6.244-12.357-12.286-.349-6.81,5.813-12.183,13.721-12a16.79,16.79,0,0,1,4.784.81,25.2,25.2,0,0,1-1.22-6.536c-.784-15.428,13.025-27.41,30.619-26.756a37.16,37.16,0,0,1,9.355,1.564C84.579,668.8,95.077,662.377,107.633,662.922Z" transform="translate(-23.304 -662.89)" fill="#082956"/>
            </g>
            <g id="Grupo_131692" data-name="Grupo 131692" transform="translate(5.88)">
              <path id="Trazado_194331" data-name="Trazado 194331" d="M117.6,659.2c16.223.718,29.777,12.909,30.464,27.225a22.716,22.716,0,0,1-.153,4,24.922,24.922,0,0,1,9.019-1.338c12.972.421,23.829,10.2,24.378,21.841.521,11.059-8.429,19.978-20.424,20.678-.633.034-1.274.052-1.922.042L45.968,729.658c-6.688-1.15-11.99-6.239-12.3-12.267-.347-6.794,5.787-12.151,13.658-11.958a16.69,16.69,0,0,1,4.762.812,25.22,25.22,0,0,1-1.213-6.521c-.78-15.394,12.966-27.338,30.48-26.673a36.906,36.906,0,0,1,9.312,1.568C94.651,665.045,105.1,658.647,117.6,659.2Z" transform="translate(-33.655 -659.167)" fill="#084a93"/>
            </g>
          </g>
        </g>
        <g id="Grupo_131695" data-name="Grupo 131695" transform="translate(51.729 18.406)">
          <path id="Trazado_194332" data-name="Trazado 194332" d="M151.077,711.382l-2.032.013a10.269,10.269,0,0,0-.717-2.089l1.762-.808a.707.707,0,0,0,.368-1.079l-1.738-2.352a1.168,1.168,0,0,0-1.376-.283l-1.784.814a14.761,14.761,0,0,0-1.957-1.518l1.034-1.405a.7.7,0,0,0-.37-1.079l-3.026-1.359a1.182,1.182,0,0,0-1.384.293l-1.04,1.409a19.5,19.5,0,0,0-2.681-.547V699.76a.924.924,0,0,0-1.017-.791l-3.52.006a.932.932,0,0,0-1.021.8v1.636a19.762,19.762,0,0,0-2.7.564l-1.049-1.41a1.2,1.2,0,0,0-1.4-.288l-3.072,1.384a.711.711,0,0,0-.376,1.091l1.052,1.41a15.145,15.145,0,0,0-1.992,1.548l-1.821-.807a1.211,1.211,0,0,0-1.409.3l-1.783,2.4a.708.708,0,0,0,.378,1.09l1.807.8a10.4,10.4,0,0,0-.735,2.124l-2.087.014a.948.948,0,0,0-1.034.807v2.763a.931.931,0,0,0,1.034.791l2.07-.018a10.219,10.219,0,0,0,.724,2.125l-1.78.813a.715.715,0,0,0-.378,1.1l1.783,2.372a1.2,1.2,0,0,0,1.409.277l1.768-.81A14.765,14.765,0,0,0,123,723.379l-1.016,1.378a.7.7,0,0,0,.376,1.085l3.072,1.338a1.207,1.207,0,0,0,1.4-.309l1-1.366a19.6,19.6,0,0,0,2.742.535V727.6a.915.915,0,0,0,1.021.782l3.52-.047a.941.941,0,0,0,1.017-.807v-1.56a19.773,19.773,0,0,0,2.725-.6l1,1.334a1.172,1.172,0,0,0,1.384.272l3.026-1.4a.711.711,0,0,0,.37-1.084l-1-1.343a15,15,0,0,0,1.974-1.571l1.732.764a1.178,1.178,0,0,0,1.376-.3l1.738-2.378a.7.7,0,0,0-.368-1.074l-1.736-.769a10.381,10.381,0,0,0,.707-2.112l2.016-.017a.926.926,0,0,0,1-.8v-2.722A.909.909,0,0,0,151.077,711.382Zm-17.717-5.7c5.672-.025,10.252,3.531,10.252,7.942s-4.58,8.036-10.252,8.1c-5.7.061-10.334-3.495-10.334-7.942S127.663,705.708,133.361,705.683Z" transform="translate(-114.36 -698.969)" fill="#fff"/>
          <path id="Trazado_194333" data-name="Trazado 194333" d="M202.014,755.582l-1.506.01a7.569,7.569,0,0,0-.531-1.548l1.306-.6a.524.524,0,0,0,.273-.8l-1.288-1.742a.865.865,0,0,0-1.02-.21l-1.322.6a10.861,10.861,0,0,0-1.449-1.125l.766-1.041a.522.522,0,0,0-.274-.8l-2.242-1.007a.876.876,0,0,0-1.026.217l-.77,1.044a14.513,14.513,0,0,0-1.986-.405v-1.209a.685.685,0,0,0-.754-.586l-2.608,0a.69.69,0,0,0-.757.59v1.212a14.693,14.693,0,0,0-2,.418l-.778-1.045a.887.887,0,0,0-1.037-.214l-2.275,1.026a.526.526,0,0,0-.279.808l.779,1.045a11.234,11.234,0,0,0-1.475,1.147l-1.35-.6a.9.9,0,0,0-1.044.221l-1.321,1.777a.524.524,0,0,0,.28.807l1.339.591a7.71,7.71,0,0,0-.545,1.574l-1.546.011a.7.7,0,0,0-.766.6V758.4a.689.689,0,0,0,.766.586l1.534-.012a7.593,7.593,0,0,0,.536,1.574l-1.319.6a.529.529,0,0,0-.28.812l1.321,1.758a.89.89,0,0,0,1.044.2l1.31-.6a11,11,0,0,0,1.488,1.142l-.753,1.021a.521.521,0,0,0,.279.8l2.275.992a.894.894,0,0,0,1.037-.229l.745-1.011a14.535,14.535,0,0,0,2.032.4V767.6a.678.678,0,0,0,.757.579l2.608-.035a.7.7,0,0,0,.754-.6V766.39a14.588,14.588,0,0,0,2.018-.444l.738.988a.868.868,0,0,0,1.026.2l2.242-1.041a.527.527,0,0,0,.274-.8l-.741-.995a11.136,11.136,0,0,0,1.463-1.164l1.283.566a.872.872,0,0,0,1.02-.225l1.288-1.762a.519.519,0,0,0-.273-.8l-1.287-.57a7.693,7.693,0,0,0,.524-1.565l1.494-.013a.685.685,0,0,0,.744-.59v-2.017A.673.673,0,0,0,202.014,755.582Zm-13.126-4.223c4.2-.018,7.6,2.616,7.6,5.884s-3.393,5.954-7.6,6c-4.222.045-7.657-2.589-7.657-5.884S184.666,751.378,188.888,751.359Z" transform="translate(-140.469 -724.458)" fill="#fff"/>
        </g>
      </g>
    </g>
    <g id="Grupo_131700" data-name="Grupo 131700" transform="translate(122.467 530.128)">
      <g id="Grupo_131698" data-name="Grupo 131698" transform="translate(7.109 7.069)">
        <path id="Trazado_194334" data-name="Trazado 194334" d="M262.972,607.3a1.273,1.273,0,0,1-.863-.284.539.539,0,0,1-.173-.536l.184-.68a1.034,1.034,0,0,1,.988-.627l2.474-.166.4-5.182c-4.467.1-8.465.188-11.087.242a3.214,3.214,0,0,1-3.5-2.715l-1.062-16.984a2.264,2.264,0,0,1,2.356-2.253c6.995-.419,26.684-.757,34.824-.882a2.682,2.682,0,0,1,2.737,1.778h0c1.123,4.395,1.492,13.959,1.6,17.867a2.407,2.407,0,0,1-2.5,2.221c-2.542.136-6.74.285-12.827.455l1.259,4.629,1.912-.133a1.106,1.106,0,0,1,1.13.512l.468,1.093a.52.52,0,0,1-.089.558,1.255,1.255,0,0,1-.91.369l-17.247.715Zm3.38-8.04a.381.381,0,0,1,.246.085.251.251,0,0,1,.1.211l-.447,5.727a.315.315,0,0,1-.313.26l-2.769.185c-.207.014-.356.108-.375.187l-.183.68a.054.054,0,0,0,.02.057.561.561,0,0,0,.387.09l17.247-.715a.558.558,0,0,0,.378-.124.053.053,0,0,0,.009-.064l-.468-1.093c-.035-.081-.205-.155-.427-.139l-2.209.154a.329.329,0,0,1-.364-.217l-1.413-5.193a.24.24,0,0,1,.064-.231.371.371,0,0,1,.259-.108c6.3-.175,10.626-.327,13.216-.466a1.79,1.79,0,0,0,1.858-1.652c-.105-3.893-.472-13.417-1.583-17.767h0a2.018,2.018,0,0,0-2.054-1.335c-8.135.126-27.81.462-34.788.88a1.666,1.666,0,0,0-1.724,1.67l1.063,16.983a2.554,2.554,0,0,0,2.8,2.187c2.7-.055,6.843-.142,11.46-.251Z" transform="translate(-250.33 -577.233)" fill="#7d97f4"/>
        <path id="Trazado_194335" data-name="Trazado 194335" d="M255.49,598.937a2.044,2.044,0,0,1-2.175-1.683l-1.01-16.136h0a1.276,1.276,0,0,1,.466-1.045,1.941,1.941,0,0,1,1.243-.459l34.432-.746a1.562,1.562,0,0,1,1.691,1.279l.933,15.994a1.546,1.546,0,0,1-.56,1.255,2.346,2.346,0,0,1-1.491.558l-33.452.979Zm-2.5-17.847L254,597.226a1.418,1.418,0,0,0,1.546,1.153L289,597.4a1.592,1.592,0,0,0,1.011-.379,1.048,1.048,0,0,0,.381-.852l-.933-15.994a.905.905,0,0,0-.99-.748l-34.432.745a1.186,1.186,0,0,0-.76.28.781.781,0,0,0-.285.638Z" transform="translate(-251.182 -578.113)" fill="#7d97f4"/>
        <path id="Trazado_194336" data-name="Trazado 194336" d="M285.394,623.161a.9.9,0,0,1-.538-.169.608.608,0,0,1-.264-.453.58.58,0,0,1,.206-.471.88.88,0,0,1,.556-.215.91.91,0,0,1,.581.168.609.609,0,0,1,.263.453.582.582,0,0,1-.206.472.882.882,0,0,1-.556.216Zm0-.753h-.007a.135.135,0,0,0-.083.032.091.091,0,0,0-.031.07.1.1,0,0,0,.04.068.1.1,0,0,0,.087.025.13.13,0,0,0,.083-.032.09.09,0,0,0,.031-.07h0a.093.093,0,0,0-.04-.067A.131.131,0,0,0,285.4,622.408Z" transform="translate(-265.127 -601.218)" fill="#7d97f4"/>
        <path id="Trazado_194337" data-name="Trazado 194337" d="M289.21,638.736a.321.321,0,0,1-.341-.262.307.307,0,0,1,.322-.295l.712-.034a.326.326,0,0,1,.362.262.306.306,0,0,1-.322.294l-.712.034Z" transform="translate(-266.975 -609.977)" fill="#7d97f4"/>
        <path id="Trazado_194338" data-name="Trazado 194338" d="M272.769,639.8a.4.4,0,0,1-.081-.008.28.28,0,0,1-.251-.337l.084-.281c.08-.263.456-.455.935-.478l7.554-.361a.32.32,0,0,1,.361.262.306.306,0,0,1-.322.294l-7.554.361a.644.644,0,0,0-.326.083l-.069.252A.335.335,0,0,1,272.769,639.8Z" transform="translate(-259.874 -610.076)" fill="#7d97f4"/>
      </g>
      <g id="Grupo_131699" data-name="Grupo 131699" transform="translate(0 0)">
        <path id="Trazado_194339" data-name="Trazado 194339" d="M256.14,605.683c-2.6,0-4.965-.065-6.942-.2-4.59-.312-7.048-.949-7.518-1.949-1.607-3.427-6.857-35.095-1.544-39.827a.38.38,0,0,1,.224-.09c4.965-.334,48.606-3.19,51.7-.584,1.7,1.435,2.267,10.726,2.226,18.941-.041,8.07-.686,17.589-2.008,19.42-1.3,1.8-12.519,2.979-17.284,3.405C268.561,605.376,261.785,605.683,256.14,605.683Zm-15.585-41.519c-4.629,4.542-.22,34.94,1.765,39.172.164.348,1.166,1.2,6.935,1.593,13.787.934,40.757-1.49,42.436-3.816,1.06-1.469,1.865-9.518,1.913-19.141.05-10.029-.768-17.484-2.034-18.551C289.405,561.6,259.93,562.864,240.555,564.164Z" transform="translate(-237.815 -561.948)" fill="#7d97f4"/>
      </g>
    </g>
    <g id="Grupo_131704" data-name="Grupo 131704" transform="translate(43.51 502.755)">
      <g id="Grupo_131703" data-name="Grupo 131703">
        <g id="Grupo_131701" data-name="Grupo 131701" transform="translate(13.931 5.829)">
          <path id="Trazado_194340" data-name="Trazado 194340" d="M126.408,549.081a1.826,1.826,0,0,1-1.934-1.463c-.583-6.453-1.006-24.635-1.121-30.054a2.131,2.131,0,0,1,2.14-1.977c5.849-.511,17.735-.038,22.574.189a2.384,2.384,0,0,1,2.372,1.8h0c1.1,7.046,1.6,22.181,1.76,28.361a2.73,2.73,0,0,1-2.78,2.512c-6.708.46-18.314.594-22.992.629Zm6.275-33.165c-2.712,0-5.233.061-7.117.226a1.523,1.523,0,0,0-1.529,1.413c.115,5.415.537,23.585,1.119,30.022a1.182,1.182,0,0,0,1.252.947h.008c4.675-.036,16.261-.169,22.945-.627a2.115,2.115,0,0,0,2.153-1.945c-.162-6.171-.658-21.283-1.754-28.3h0a1.743,1.743,0,0,0-1.732-1.317C144.772,516.18,138.317,515.916,132.683,515.916Zm-.185,28.673c-2.019,0-3.777-.017-4.99-.033a2.025,2.025,0,0,1-2.13-1.632c-.5-5.246-.527-19.534-.524-23.788a1.893,1.893,0,0,1,1.908-1.707c4.825-.38,15.533-.028,19.912.141a2.2,2.2,0,0,1,2.246,1.774c.488,5.244.337,18.813.279,22.847a2.156,2.156,0,0,1-2.1,1.915C143.144,544.5,137.133,544.589,132.5,544.589Zm.433-26.775c-2.377,0-4.55.046-6.1.168a1.28,1.28,0,0,0-1.29,1.154c0,4.249.027,18.519.522,23.745A1.386,1.386,0,0,0,127.52,544c3.984.053,13.862.115,19.493-.447a1.54,1.54,0,0,0,1.5-1.369h0c.059-4.028.209-17.576-.278-22.8a1.563,1.563,0,0,0-1.6-1.26C143.7,518.011,137.873,517.814,132.931,517.814Z" transform="translate(-123.352 -515.359)" fill="#7d97f4"/>
          <path id="Trazado_194341" data-name="Trazado 194341" d="M146.164,582.347a2.309,2.309,0,0,1-1.386-.441,1.551,1.551,0,0,1-.661-1.159,1.492,1.492,0,0,1,.539-1.2,2.256,2.256,0,0,1,1.423-.538,1.92,1.92,0,0,1,2.137,1.6h0a1.854,1.854,0,0,1-1.963,1.738Zm0-2.782h-.058a1.506,1.506,0,0,0-.949.359.991.991,0,0,0-.358.8,1.032,1.032,0,0,0,.44.773,1.585,1.585,0,0,0,.982.292,1.235,1.235,0,0,0,1.308-1.158h0A1.276,1.276,0,0,0,146.167,579.565Z" transform="translate(-132.32 -549.574)" fill="#7d97f4"/>
          <path id="Trazado_194342" data-name="Trazado 194342" d="M146.354,517.73h-.011c-1.241-.016-4.018-.04-5-.048a.666.666,0,0,1-.71-.559h0a.638.638,0,0,1,.659-.607c1.661-.106,4.112-.026,5.09.013a.7.7,0,0,1,.662.448.517.517,0,0,1-.128.534A.786.786,0,0,1,146.354,517.73Zm-3.1-.708c-.67,0-1.342.013-1.908.049l-.028.029a.03.03,0,0,0,.032.025c.986.008,3.764.032,5.006.048l.023-.068C145.86,517.072,144.558,517.022,143.252,517.022Z" transform="translate(-130.815 -515.953)" fill="#7d97f4"/>
        </g>
        <g id="Grupo_131702" data-name="Grupo 131702">
          <path id="Trazado_194343" data-name="Trazado 194343" d="M128.322,546.163a170.8,170.8,0,0,1-20.79-1.094c-4.544-.616-6.931-1.416-7.3-2.444-1.257-3.523-3.3-35.434,2.468-39.8l.1-.075h.134c4.988-.01,48.764.061,51.586,2.865,1.553,1.544,1.18,10.84.312,19.026-.852,8.04-2.452,17.485-3.954,19.221-1.472,1.7-12.776,2.135-17.568,2.242C131.66,546.145,129.99,546.163,128.322,546.163Zm-25.248-42.851c-5.073,4.215-3.735,34.807-2.183,39.157.128.358,1.041,1.275,6.753,2.05,13.648,1.852,40.769,1.233,42.675-.973,1.2-1.393,2.817-9.362,3.832-18.949,1.059-9.992.994-17.477-.16-18.625C152.017,504.011,122.521,503.308,103.074,503.313Z" transform="translate(-98.83 -502.755)" fill="#7d97f4"/>
        </g>
      </g>
      <path id="Trazado_194344" data-name="Trazado 194344" d="M130.058,537.231a.319.319,0,0,1-.342-.267l-.446-9.1a.309.309,0,0,1,.328-.289.326.326,0,0,1,.356.267l.446,9.1a.309.309,0,0,1-.328.289Z" transform="translate(-111.977 -516.094)" fill="#7d97f4"/>
    </g>
    <g id="Grupo_131708" data-name="Grupo 131708" transform="translate(163.064 585.5)">
      <g id="Grupo_131705" data-name="Grupo 131705" transform="translate(0 0)">
        <path id="Trazado_194345" data-name="Trazado 194345" d="M352.412,736.457c-3.4,0-12.009-3.294-15.855-4.839a162.33,162.33,0,0,1-22.2-10.715c-3.662-2.271-5.313-3.884-5.048-4.932.907-3.594,17.394-32.592,25-34.257l.13-.028.119.051c4.407,1.891,43.091,18.581,43.979,22.133.488,1.956-5.173,10.036-10.633,16.945-5.364,6.787-12.195,14.531-14.518,15.5A2.609,2.609,0,0,1,352.412,736.457Zm-18.054-54.175c-6.9,1.8-23.262,29.364-24.383,33.8-.093.365.19,1.523,4.793,4.377,11.007,6.823,35.353,16.585,38.3,15.356,1.865-.775,7.859-7.21,14.255-15.3,6.666-8.435,10.9-15.079,10.537-16.532C377.241,701.5,351.553,689.664,334.358,682.282Z" transform="translate(-309.278 -681.686)" fill="#7d97f4"/>
      </g>
      <g id="Grupo_131707" data-name="Grupo 131707" transform="translate(10.437 11.937)">
        <g id="Grupo_131706" data-name="Grupo 131706">
          <path id="Trazado_194346" data-name="Trazado 194346" d="M362.667,741.332a3.122,3.122,0,0,1-.915-.136h0c-8.367-2.575-25.445-9.479-32.4-12.328a2.345,2.345,0,0,1-1.455-3.246c2.714-5.171,8.139-13.788,10.345-17.252a2.211,2.211,0,0,1,2.555-.734c7.441,2.663,27.886,11.091,33.974,13.611a1.846,1.846,0,0,1,1.167,2.519c-2.241,4.558-8.477,13.093-11.055,16.55A2.766,2.766,0,0,1,362.667,741.332Zm-.673-.657a2.145,2.145,0,0,0,2.306-.648c2.568-3.446,8.782-11.949,11.005-16.469a1.332,1.332,0,0,0-.842-1.816c-6.085-2.518-26.515-10.94-33.94-13.6a1.445,1.445,0,0,0-1.672.481c-2.2,3.459-7.619,12.061-10.323,17.214a1.827,1.827,0,0,0,1.133,2.531c6.944,2.845,24,9.74,32.333,12.3Zm-.507-1.284a3.03,3.03,0,0,1-1.023-.177c-6.185-2.223-21.6-9.015-26.173-11.044h0a1.874,1.874,0,0,1-1.186-2.443c2-4.343,6.706-11.421,8.635-14.262a2.47,2.47,0,0,1,2.842-.729c6.221,2.23,22.515,9.238,27.36,11.333a1.634,1.634,0,0,1,1.041,2.2c-1.82,3.648-7.223,11.148-9.461,14.2A2.512,2.512,0,0,1,361.486,739.391Zm-26.868-11.71c4.57,2.026,19.96,8.81,26.121,11.024a1.957,1.957,0,0,0,2.194-.517c2.23-3.044,7.612-10.515,9.416-14.128a1.121,1.121,0,0,0-.728-1.5c-4.84-2.093-21.115-9.093-27.314-11.315a1.715,1.715,0,0,0-1.969.488c-1.922,2.831-6.606,9.88-8.594,14.189a1.359,1.359,0,0,0,.874,1.758Z" transform="translate(-327.649 -707.5)" fill="#7d97f4"/>
          <path id="Trazado_194347" data-name="Trazado 194347" d="M340.667,727.668a1.773,1.773,0,0,1-.643-.119h0a1.132,1.132,0,0,1-.705-1.625,1.665,1.665,0,0,1,2-.574,1.132,1.132,0,0,1,.706,1.625A1.561,1.561,0,0,1,340.667,727.668Zm-.348-.621a.9.9,0,0,0,1.084-.312.615.615,0,0,0-.383-.882.9.9,0,0,0-1.084.312.615.615,0,0,0,.383.882Z" transform="translate(-332.626 -717.031)" fill="#7d97f4"/>
        </g>
        <path id="Trazado_194348" data-name="Trazado 194348" d="M389.822,736.113a.41.41,0,0,1-.148-.027l-10.344-4.044a.258.258,0,0,1-.16-.371.38.38,0,0,1,.457-.13l10.344,4.044a.258.258,0,0,1,.16.371A.357.357,0,0,1,389.822,736.113Z" transform="translate(-349.886 -720.408)" fill="#7d97f4"/>
      </g>
    </g>
    <g id="Grupo_131711" data-name="Grupo 131711" transform="translate(126.869 630.15)">
      <g id="Grupo_131709" data-name="Grupo 131709" transform="translate(22.233 39.8)">
        <path id="Trazado_194349" data-name="Trazado 194349" d="M285.591,864.534a1.577,1.577,0,0,1,.4.389c.164.252.268.635.487.971a10.022,10.022,0,0,1,.71,1.291l0,.008c.129.215.187.416-.094.537a.531.531,0,0,1-.68-.193s-.378-.645-.8-1.275c-.1-.158-.184-.324-.28-.473s-.141-.242-.2-.348a1.715,1.715,0,0,0-.145-.249c-.049-.067-.074-.106-.074-.106l-.122-.169a.338.338,0,0,1,.13-.559.5.5,0,0,1,.664.171Z" transform="translate(-284.7 -864.3)" fill="#7d97f4"/>
        <path id="Trazado_194350" data-name="Trazado 194350" d="M291.914,875.3l1.887,2.4a.4.4,0,0,1-.2.607.647.647,0,0,1-.771-.118l-1.892-2.4a.4.4,0,0,1,.2-.609.65.65,0,0,1,.775.118Z" transform="translate(-287.36 -870.111)" fill="#7d97f4"/>
        <path id="Trazado_194351" data-name="Trazado 194351" d="M298.463,885.937l2.257,2.151a.321.321,0,0,1-.077.553.615.615,0,0,1-.748-.1l-2.122-2.277c-.178-.188-.232-.355.022-.505s.419.084.667.176Z" transform="translate(-290.281 -875.81)" fill="#7d97f4"/>
        <path id="Trazado_194352" data-name="Trazado 194352" d="M305.935,895.951l2.6,1.874c.2.173.272.331.036.494a.592.592,0,0,1-.728-.074l-2.363-2.13c-.2-.173-.366-.232-.13-.4s.345.231.585.231Z" transform="translate(-293.569 -881.168)" fill="#7d97f4"/>
        <path id="Trazado_194353" data-name="Trazado 194353" d="M315.848,902.287l2.317,2.323c.216.155.051.635-.164.813a.836.836,0,0,1-.863.147l-2.7-1.847c-.218-.155.1-.82.31-1a2.728,2.728,0,0,1,1.1-.436Z" transform="translate(-297.513 -884.72)" fill="#7d97f4"/>
        <path id="Trazado_194354" data-name="Trazado 194354" d="M324.495,912.719l2.972,1.393c.236.134.3.27.113.461a.643.643,0,0,1-.756.043l-2.922-1.679c-.237-.134-.322-.159-.135-.352s.509-.424.727.133Z" transform="translate(-301.529 -890.14)" fill="#7d97f4"/>
        <path id="Trazado_194355" data-name="Trazado 194355" d="M335.857,917.94l2.888,1.529c.257.107.185.457.031.663a.8.8,0,0,1-.821.227l-3.236-1.31c-.257-.107-.052-.542.1-.749s.088-.36,1.036-.36Z" transform="translate(-306.25 -893.135)" fill="#7d97f4"/>
        <path id="Trazado_194356" data-name="Trazado 194356" d="M346.5,923.961l3.44,1a.383.383,0,0,1,.289.542.626.626,0,0,1-.7.256l-3.423-.977a.4.4,0,0,1-.3-.553c.118-.218.441-.271.694-.271Z" transform="translate(-311.073 -896.371)" fill="#7d97f4"/>
        <path id="Trazado_194357" data-name="Trazado 194357" d="M358.414,928.255l3.559.844c.275.069.451.286.344.5a.587.587,0,0,1-.67.262l-3.472-.876c-.276-.068-.487-.273-.38-.492s.533-.387.619-.242Z" transform="translate(-316.257 -898.65)" fill="#7d97f4"/>
        <path id="Trazado_194358" data-name="Trazado 194358" d="M370.617,932.384l3.664.564c.278.055.487.208.4.428a.545.545,0,0,1-.637.263l-3.542-.717c-.279-.055-.537-.148-.449-.369s.355-.17.564-.17Z" transform="translate(-321.556 -900.896)" fill="#7d97f4"/>
        <path id="Trazado_194359" data-name="Trazado 194359" d="M383.558,934.254l3.617.5a.411.411,0,0,1,.387.495.59.59,0,0,1-.631.359l-3.654-.421a.428.428,0,0,1-.376-.525c.06-.223.407-.5.655-.406Z" transform="translate(-327.108 -901.894)" fill="#7d97f4"/>
        <path id="Trazado_194360" data-name="Trazado 194360" d="M396.289,935.907s.945,0,1.876,0c.908-.038,1.824-.079,1.824-.079l.04,0c.287-.012.52.158.518.38a.5.5,0,0,1-.523.424l-1.916.081-1.862-.007c-.288,0-.52-.176-.5-.4s.307-.4.542-.4Z" transform="translate(-332.66 -902.749)" fill="#7d97f4"/>
        <path id="Trazado_194361" data-name="Trazado 194361" d="M409.084,933.2a2.218,2.218,0,0,0,.629-.061c.168-.043.406-.049.594-.112s.42-.1.629-.168c.408-.154.84-.283,1.127-.427s.5-.217.5-.217l.042-.016a.583.583,0,0,1,.7.137.373.373,0,0,1-.218.549l-.543.247c-.32.159-.778.311-1.228.48l-.689.211c-.223.073-.416.114-.587.158l-.565.14a.641.641,0,0,1-.694-.335c-.072-.211.31-.395.31-.584Z" transform="translate(-338.284 -900.766)" fill="#7d97f4"/>
        <path id="Trazado_194362" data-name="Trazado 194362" d="M420.135,924.812a2.461,2.461,0,0,1,.283-.413,3.169,3.169,0,0,0,.268-.4c.048-.071.087-.149.137-.223.018-.024.062-.106.055-.086l.061-.13c.039-.084.091-.178.119-.253l.065-.211a3.354,3.354,0,0,0,.086-.406c.022-.247.028-.412.028-.412v-.02a.5.5,0,0,1,.527-.409c.28-.007.5.163.5.38,0,0-.005.2-.032.492a4.015,4.015,0,0,1-.11.516l-.1.3c-.037.1-.083.175-.124.264l-.063.129c-.06.1-.068.1-.1.161l-.173.256a4,4,0,0,1-.318.433l-.322.392a.572.572,0,0,1-.672.167c-.236-.11-.1-.362-.1-.523Z" transform="translate(-343.179 -895.233)" fill="#7d97f4"/>
        <path id="Trazado_194363" data-name="Trazado 194363" d="M419.1,913.642a9.364,9.364,0,0,0-.681-1.312c-.473-.561-.883-1.146-.883-1.146l0-.047c-.149-.176-.041-.394.2-.521s.385-.377.727.121h0s.5.581,1.015,1.2c.4.631.8,1.245.8,1.245.122.191-.114.473-.368.579s-.693.082-.809-.11Z" transform="translate(-342.041 -889.103)" fill="#7d97f4"/>
        <path id="Trazado_194364" data-name="Trazado 194364" d="M411.118,905.124a.815.815,0,0,1-.586-.055c-.137-.07-.363-.082-.533-.147s-.382-.1-.564-.182-.4-.1-.58-.164a2.4,2.4,0,0,0-.513-.115c-.3-.053-.5-.081-.5-.081l-.093-.013c-.266-.046-.42-.252-.343-.461a.559.559,0,0,1,.616-.295l.621.106a3.2,3.2,0,0,1,.607.152c.211.072.449.126.662.222l.628.277a5.19,5.19,0,0,1,.489.259l.458.257c.22.122.387.164.216.343s-.35-.014-.581-.1Z" transform="translate(-337.687 -885.427)" fill="#7d97f4"/>
        <path id="Trazado_194365" data-name="Trazado 194365" d="M400.273,905.807a2.218,2.218,0,0,0-.746.19c-.074.039-.281.045-.366.09s-.205.081-.282.133c-.146.105-.333.208-.489.32-.147.133-.309.261-.446.385a4.864,4.864,0,0,0-.418.326,1.792,1.792,0,0,1-.389.33l-.03.03a.532.532,0,0,1-.637.15.307.307,0,0,1-.081-.517s.159-.153.374-.394a4.056,4.056,0,0,1,.4-.4c.156-.141.326-.29.491-.44.19-.144.395-.282.58-.413a3.323,3.323,0,0,1,.51-.307l.494-.264a1.042,1.042,0,0,1,.942.162c.148.174.095.433.095.616Z" transform="translate(-332.893 -886.165)" fill="#7d97f4"/>
        <path id="Trazado_194366" data-name="Trazado 194366" d="M393.532,915.543a11.254,11.254,0,0,1-.461,1.477c-.212.692-.371,1.421-.371,1.421l.018.045a.53.53,0,0,1-.583.32c-.265-.037-.422-.231-.358-.439,0,0,.228-.731.452-1.464.282-.7.566-1.4.566-1.4a.476.476,0,0,1,.519-.352c.261.051.218.2.218.394Z" transform="translate(-330.941 -891.63)" fill="#7d97f4"/>
        <path id="Trazado_194367" data-name="Trazado 194367" d="M392.266,927.376a9.715,9.715,0,0,0-.288,1.652,13.425,13.425,0,0,1-.077,1.514l-.052.072c0,.209-.238.418-.508.434s-.507-.127-.511-.336c0,0-.022-.731-.038-1.468.037-.723.071-1.443.071-1.443a.955.955,0,0,1,.721-.594c.272,0,.485.169.682.169Z" transform="translate(-330.521 -898.116)" fill="#7d97f4"/>
        <path id="Trazado_194368" data-name="Trazado 194368" d="M392.477,939.3l.628,3.066a.556.556,0,0,1-.408.583c-.264.049-.525-.011-.573-.213l-.669-2.778a.7.7,0,0,1,.424-.7c.265-.05.962-.518.6.038Z" transform="translate(-330.805 -904.472)" fill="#7d97f4"/>
        <path id="Trazado_194369" data-name="Trazado 194369" d="M395.176,952.546l1.137,2.649c.081.192-.057.384-.31.459a.5.5,0,0,1-.6-.225l-1.137-2.7c-.081-.193.055-.364.309-.44s.388.259.6.259Z" transform="translate(-332.01 -911.592)" fill="#7d97f4"/>
        <path id="Trazado_194370" data-name="Trazado 194370" d="M399.465,963.9l.216.408.491.887.723,1.3c.1.183-.012.405-.255.5a.518.518,0,0,1-.624-.166l-.725-1.3-.5-.9-.217-.408c-.1-.185.02-.407.266-.5a.515.515,0,0,1,.623.176Z" transform="translate(-333.868 -917.727)" fill="#7d97f4"/>
        <path id="Trazado_194371" data-name="Trazado 194371" d="M404.664,975.033l1.617,2.524c.113.177.014.4-.221.5a.524.524,0,0,1-.631-.14l-1.621-2.523c-.114-.177-.015-.4.221-.5a.526.526,0,0,1,.634.141Z" transform="translate(-336.123 -923.724)" fill="#7d97f4"/>
        <path id="Trazado_194372" data-name="Trazado 194372" d="M410.522,985.844l1.814,2.436a.334.334,0,0,1-.181.5.533.533,0,0,1-.637-.109l-1.819-2.434a.336.336,0,0,1,.182-.5.534.534,0,0,1,.64.11Z" transform="translate(-338.662 -929.547)" fill="#7d97f4"/>
        <path id="Trazado_194373" data-name="Trazado 194373" d="M417.086,996.248l2.032,2.325a.322.322,0,0,1-.136.5.541.541,0,0,1-.642-.074L416.3,996.68a.324.324,0,0,1,.136-.506.543.543,0,0,1,.645.074Z" transform="translate(-341.508 -935.151)" fill="#7d97f4"/>
        <path id="Trazado_194374" data-name="Trazado 194374" d="M424.536,1006.06l2.226,2.2a.324.324,0,0,1-.107.512.565.565,0,0,1-.656-.03l-2.281-2.177c-.156-.149-.076-.392.127-.522s.588-.153.69.017Z" transform="translate(-344.707 -940.439)" fill="#7d97f4"/>
        <path id="Trazado_194375" data-name="Trazado 194375" d="M432.5,1015.523l2.253,2.193a.308.308,0,0,1-.088.5.541.541,0,0,1-.637-.037l-2.257-2.191a.31.31,0,0,1,.088-.5.544.544,0,0,1,.641.037Z" transform="translate(-348.18 -945.525)" fill="#7d97f4"/>
        <path id="Trazado_194376" data-name="Trazado 194376" d="M440.35,1025.1l2.137,2.265a.309.309,0,0,1-.111.491.531.531,0,0,1-.628-.055l-2.141-2.263a.311.311,0,0,1,.112-.494.535.535,0,0,1,.631.056Z" transform="translate(-351.569 -950.667)" fill="#7d97f4"/>
        <path id="Trazado_194377" data-name="Trazado 194377" d="M447.781,1034.982l2.012,2.335a.311.311,0,0,1-.135.484.52.52,0,0,1-.617-.074l-2.016-2.333a.312.312,0,0,1,.135-.487.523.523,0,0,1,.62.075Z" transform="translate(-354.778 -955.975)" fill="#7d97f4"/>
        <path id="Trazado_194378" data-name="Trazado 194378" d="M454.765,1045.17l1.879,2.4a.313.313,0,0,1-.16.476.507.507,0,0,1-.6-.094l-1.883-2.4a.315.315,0,0,1,.16-.478.51.51,0,0,1,.608.094Z" transform="translate(-357.794 -961.446)" fill="#7d97f4"/>
        <path id="Trazado_194379" data-name="Trazado 194379" d="M461.273,1055.657l1.738,2.472a.316.316,0,0,1-.183.467.494.494,0,0,1-.591-.113l-1.742-2.47a.318.318,0,0,1,.184-.469.5.5,0,0,1,.595.113Z" transform="translate(-360.604 -967.077)" fill="#7d97f4"/>
        <path id="Trazado_194380" data-name="Trazado 194380" d="M467.277,1066.435l1.588,2.537c.1.163.008.367-.208.457a.479.479,0,0,1-.577-.132l-1.592-2.536c-.1-.164-.009-.369.208-.459a.482.482,0,0,1,.58.133Z" transform="translate(-363.196 -972.865)" fill="#7d97f4"/>
        <path id="Trazado_194381" data-name="Trazado 194381" d="M472.743,1077.491l1.429,2.6c.091.165-.013.365-.232.446a.464.464,0,0,1-.561-.153l-1.433-2.6c-.091-.166.013-.366.233-.448a.468.468,0,0,1,.564.153Z" transform="translate(-365.557 -978.802)" fill="#7d97f4"/>
        <path id="Trazado_194382" data-name="Trazado 194382" d="M477.643,1088.812l1.262,2.657c.079.167-.036.361-.256.433a.449.449,0,0,1-.544-.172l-1.266-2.656c-.08-.167.035-.363.257-.435a.451.451,0,0,1,.547.172Z" transform="translate(-367.674 -984.881)" fill="#7d97f4"/>
        <path id="Trazado_194383" data-name="Trazado 194383" d="M481.945,1100.381l1.086,2.711c.067.169-.058.357-.28.42a.433.433,0,0,1-.525-.191l-1.09-2.71c-.068-.169.058-.358.281-.422a.435.435,0,0,1,.528.191Z" transform="translate(-369.533 -991.093)" fill="#7d97f4"/>
        <path id="Trazado_194384" data-name="Trazado 194384" d="M485.619,1112.178l.9,2.762c.056.17-.08.351-.3.406a.416.416,0,0,1-.5-.21l-.906-2.761c-.056-.171.081-.353.3-.407a.419.419,0,0,1,.508.211Z" transform="translate(-371.121 -997.427)" fill="#7d97f4"/>
        <path id="Trazado_194385" data-name="Trazado 194385" d="M488.633,1124.19l.706,2.8c.043.171-.1.345-.327.389a.4.4,0,0,1-.482-.229l-.71-2.8c-.044-.172.1-.347.328-.391a.4.4,0,0,1,.485.23Z" transform="translate(-372.425 -1003.876)" fill="#7d97f4"/>
        <path id="Trazado_194386" data-name="Trazado 194386" d="M490.95,1136.379l.5,2.839c.03.172-.126.338-.349.372a.381.381,0,0,1-.458-.248l-.5-2.839c-.03-.172.127-.339.351-.374a.384.384,0,0,1,.461.249Z" transform="translate(-373.427 -1010.42)" fill="#7d97f4"/>
        <path id="Trazado_194387" data-name="Trazado 194387" d="M492.529,1148.711s.074.716.148,1.433c.037.353.076.723.095.991l.037.449a.374.374,0,0,1-.377.349.36.36,0,0,1-.428-.271s-.015-.179-.038-.449-.057-.618-.1-.98c-.075-.717-.151-1.433-.151-1.433-.018-.172.148-.331.372-.356a.367.367,0,0,1,.437.266Z" transform="translate(-374.112 -1017.042)" fill="#7d97f4"/>
        <path id="Trazado_194388" data-name="Trazado 194388" d="M493.313,1161.162l.044,2.886a.383.383,0,0,1-.394.332c-.22.013-.4-.115-.4-.285l-.048-2.886a.384.384,0,0,1,.4-.334c.221-.013.4.115.406.286Z" transform="translate(-374.454 -1023.725)" fill="#7d97f4"/>
        <path id="Trazado_194389" data-name="Trazado 194389" d="M493.107,1173.681l-.205,2.894a.393.393,0,0,1-.416.308c-.218,0-.384-.135-.372-.3l.2-2.894a.4.4,0,0,1,.418-.31c.219,0,.386.135.374.3Z" transform="translate(-374.282 -1030.446)" fill="#7d97f4"/>
        <path id="Trazado_194390" data-name="Trazado 194390" d="M491.955,1186.223l-.473,2.889a.405.405,0,0,1-.436.283c-.214-.011-.365-.155-.338-.322l.468-2.888a.407.407,0,0,1,.439-.285c.215.011.367.155.34.323Z" transform="translate(-373.674 -1037.178)" fill="#7d97f4"/>
        <path id="Trazado_194391" data-name="Trazado 194391" d="M489.83,1198.723l-.757,2.865a.416.416,0,0,1-.456.254c-.208-.023-.343-.174-.3-.338l.753-2.866a.42.42,0,0,1,.458-.256c.21.024.345.176.3.34Z" transform="translate(-372.639 -1043.887)" fill="#7d97f4"/>
        <path id="Trazado_194392" data-name="Trazado 194392" d="M486.671,1211.1l-1.058,2.822a.428.428,0,0,1-.474.222c-.2-.037-.318-.195-.258-.354l1.054-2.822a.43.43,0,0,1,.477-.224c.2.036.319.2.26.356Z" transform="translate(-371.152 -1050.531)" fill="#7d97f4"/>
        <path id="Trazado_194393" data-name="Trazado 194393" d="M482.424,1223.271l-1.375,2.752a.438.438,0,0,1-.49.188.264.264,0,0,1-.212-.369l1.371-2.753a.44.44,0,0,1,.492-.19.265.265,0,0,1,.214.371Z" transform="translate(-369.189 -1057.06)" fill="#7d97f4"/>
        <path id="Trazado_194394" data-name="Trazado 194394" d="M477.271,1235.106l-1.4,2.194a.445.445,0,0,1-.5.151.252.252,0,0,1-.164-.38l1.393-2.2a.447.447,0,0,1,.5-.152.253.253,0,0,1,.165.382Z" transform="translate(-366.963 -1063.411)" fill="#7d97f4"/>
      </g>
      <g id="Grupo_131710" data-name="Grupo 131710" transform="translate(0 0)">
        <path id="Trazado_194395" data-name="Trazado 194395" d="M285.054,839.949,278,845.413l-1.513-6.237Z" transform="translate(-258.92 -810.995)" fill="#7d97f4"/>
        <path id="Trazado_194396" data-name="Trazado 194396" d="M245.565,778.237l1.418,28.448a1.885,1.885,0,0,0,.826,1.418,2.838,2.838,0,0,0,1.829.5l35.034-2.235a.97.97,0,0,0,.864-.559.717.717,0,0,0-.312-.862Z" transform="translate(-245.565 -778.237)" fill="#91b3fa"/>
        <path id="Trazado_194397" data-name="Trazado 194397" d="M271.7,807.19l-26.131-28.953,20.478,29.328-1.877,1.583Z" transform="translate(-245.565 -778.237)" fill="#7d97f4"/>
        <path id="Trazado_194398" data-name="Trazado 194398" d="M275.709,841.859l1.956,4.888,1.4-5.09Z" transform="translate(-258.584 -812.329)" fill="#7d97f4"/>
      </g>
    </g>
    <g id="Grupo_131713" data-name="Grupo 131713" transform="translate(-29.255 549.659)">
      <g id="Grupo_131712" data-name="Grupo 131712">
        <path id="Trazado_194399" data-name="Trazado 194399" d="M-11.712,654.658c-1.671,0-2.713-.25-3.152-.752-2.616-2.988-17.489-32.559-13.809-38.227a.331.331,0,0,1,.19-.133c4.7-1.342,46.058-13.046,49.856-11.159,2.092,1.04,5.51,9.915,8.01,17.875,2.456,7.818,4.776,17.164,4.064,19.206-.7,2-11.194,5.448-15.674,6.837a179.184,179.184,0,0,1-24.755,5.947A35.269,35.269,0,0,1-11.712,654.658Zm-16.415-38.625c-3.076,5.344,10.59,33.86,13.82,37.549.266.3,1.5.924,7.207.12,13.633-1.92,38.982-9.792,39.887-12.387.572-1.639-1.139-9.594-4.068-18.916-3.053-9.717-6.149-16.765-7.7-17.537C18.356,603.539-9.778,610.8-28.127,616.033Z" transform="translate(29.255 -604.181)" fill="#7d97f4"/>
      </g>
      <path id="Trazado_194400" data-name="Trazado 194400" d="M-.528,653.835a2.4,2.4,0,0,1-1.023-.148c-2.048-1.119-9-13.821-8.245-19.723a3.148,3.148,0,0,1,2.1-2.893l1.32-.435c4.21-1.389,12.047-3.974,18.854-5.813a5.366,5.366,0,0,0,.236-1.666c.074-1.246.143-1.958.683-2.094,8.06-2.044,9.626-1.569,10.09-.926,1.284,1.781,12.658,23.283,10.476,25.121C32.094,646.83,5.434,653.834-.528,653.835Zm-6.915-22.248a2.624,2.624,0,0,0-1.674,2.434c-.754,5.866,6.3,18.3,7.946,19.2.745.406,6.421-.414,17.425-3.166,8.669-2.168,16.391-4.495,17.214-5.188.178-.15.818-1.422-4.014-11.819a129.664,129.664,0,0,0-6.562-12.633c-.215-.3-1.554-.787-9.3,1.177a6.127,6.127,0,0,0-.2,1.589c-.076,1.284-.147,2.018-.7,2.168-6.786,1.834-14.61,4.414-18.813,5.8Z" transform="translate(20.876 -612.461)" fill="#7d97f4"/>
      <path id="Trazado_194401" data-name="Trazado 194401" d="M-2.721,651.214a.341.341,0,0,1-.327-.2c-.105-.284-.08-.711.639-1.14a6.806,6.806,0,0,1,1.733-.643.359.359,0,0,1,.427.186.274.274,0,0,1-.228.347,5.853,5.853,0,0,0-1.526.56c-.318.19-.449.368-.389.53a.273.273,0,0,1-.228.347A.4.4,0,0,1-2.721,651.214Z" transform="translate(17.956 -628.392)" fill="#7d97f4"/>
      <path id="Trazado_194402" data-name="Trazado 194402" d="M8.809,643.009a.356.356,0,0,1-.308-.158.258.258,0,0,1,.16-.372A60.822,60.822,0,0,1,20,639.326a.346.346,0,0,1,.394.228.291.291,0,0,1-.281.321,59.987,59.987,0,0,0-11.153,3.106A.4.4,0,0,1,8.809,643.009Z" transform="translate(12.963 -623.072)" fill="#7d97f4"/>
    </g>
  </g>
</svg>
