<svg xmlns="http://www.w3.org/2000/svg" width="135" height="135" viewBox="0 0 135 135">
  <g id="_10" data-name="10" transform="translate(-386 -2278)">
    <circle id="Elipse_5170" data-name="Elipse 5170" cx="67.5" cy="67.5" r="67.5" transform="translate(386 2278)" fill="#084a93"/>
    <g id="Grupo_129056" data-name="Grupo 129056" transform="translate(917.279 3060.579)">
      <path id="Trazado_189985" data-name="Trazado 189985" d="M-452.473-656.447a25.981,25.981,0,0,0,19.647-2.918c0,1.973.035,3.752-.041,5.527-.01.244-.541.6-.881.674-1.948.432-3.908.81-5.87,1.176a1.482,1.482,0,0,0-1.279,1.128,53.819,53.819,0,0,1-2.331,5.757,1.838,1.838,0,0,0,.155,2.2c1.1,1.527,2.084,3.133,3.154,4.681a1.009,1.009,0,0,1-.137,1.523c-2.324,2.28-4.635,4.573-6.9,6.907a1.125,1.125,0,0,1-1.718.108c-1.58-1.093-3.212-2.111-4.775-3.226a1.528,1.528,0,0,0-1.793-.069c-1.952.9-3.955,1.692-5.969,2.445a1.387,1.387,0,0,0-1.066,1.188c-.34,1.929-.793,3.839-1.124,5.77-.138.811-.454,1.124-1.3,1.113q-4.824-.062-9.649,0c-.862.012-1.157-.345-1.3-1.129-.353-1.967-.738-3.931-1.2-5.875a1.725,1.725,0,0,0-.9-1q-3.111-1.37-6.288-2.588a1.733,1.733,0,0,0-1.341.061c-1.668,1.027-3.3,2.119-4.9,3.249a1.224,1.224,0,0,1-1.9-.13c-2.2-2.287-4.461-4.524-6.736-6.742a1.112,1.112,0,0,1-.151-1.709c1.13-1.6,2.166-3.269,3.287-4.876a1.345,1.345,0,0,0,.11-1.572c-.921-1.984-1.766-4.01-2.52-6.064a1.466,1.466,0,0,0-1.263-1.136c-1.928-.347-3.839-.792-5.767-1.135-.752-.134-1.067-.428-1.058-1.227.036-3.255.042-6.512,0-9.767-.011-.829.367-1.086,1.075-1.22,1.964-.371,3.93-.737,5.871-1.206a1.859,1.859,0,0,0,1.058-.969c.91-2.034,1.694-4.124,2.614-6.153a1.3,1.3,0,0,0-.069-1.484c-1.137-1.644-2.207-3.336-3.352-4.974a1.119,1.119,0,0,1,.184-1.709q3.457-3.363,6.825-6.817a1.064,1.064,0,0,1,1.619-.143c1.642,1.14,3.336,2.206,4.972,3.355a1.4,1.4,0,0,0,1.6.03c2-.89,4.053-1.664,6.052-2.557a1.87,1.87,0,0,0,.983-1.056c.469-1.942.823-3.911,1.207-5.873.121-.617.274-1.093,1.093-1.08,2.587.04,5.174.015,8,.015a25.817,25.817,0,0,0-4.415,19.58,17.216,17.216,0,0,0-12.911,7.731,16.1,16.1,0,0,0-2.766,10.726,17.152,17.152,0,0,0,15.644,15.826C-464.292-641.427-454.782-645.39-452.473-656.447Z" transform="translate(0 -48.639)" fill="#fff"/>
      <path id="Trazado_189986" data-name="Trazado 189986" d="M-327.5-752.648v-2.032c-1.2,0-2.355-.035-3.511.011-.882.036-1.319-.232-1.248-1.2a26.372,26.372,0,0,0,.011-2.7c-.021-.7.276-1.007.971-1.006q6.119.008,12.237,0c.619,0,.887.268.946.915.364,3.98.377,3.979-3.624,3.988h-1.1v2.064c7.666,1.028,13.658,4.758,17.6,11.491a22.455,22.455,0,0,1,2.626,16,23.013,23.013,0,0,1-23.182,18.466c-11.991-.5-21.252-9.141-22.34-21.037A23.033,23.033,0,0,1-327.5-752.648Zm3.689,43.268a20.13,20.13,0,0,0,11.972-4.958l-1.885-2.018,1.822-1.886,2.035,1.94a20.1,20.1,0,0,0,4.954-12.021h-2.72v-2.669h2.731a20.385,20.385,0,0,0-5.191-12.248l-1.5,1.945-2.107-1.71,1.87-1.974a20.019,20.019,0,0,0-12.005-4.9v2.654h-2.733v-2.687a19.931,19.931,0,0,0-11.945,4.968L-336.67-743l-1.891,1.8-.309.379-1.522-2.3a20.336,20.336,0,0,0-5.04,12.183h2.711v2.664h-2.724a20.462,20.462,0,0,0,5.111,12.16l1.485-1.926,2.6,1.934-2.391,1.677a20.532,20.532,0,0,0,12.139,5.083v-2.744h2.694Z" transform="translate(-120.855)" fill="#fff"/>
      <path id="Trazado_189987" data-name="Trazado 189987" d="M-256.889-684.277l2.512.974c-.956,2.494-1.858,4.9-2.805,7.291a3.4,3.4,0,0,0-.14,3.075,2.867,2.867,0,0,1-1.781,3.7,3.042,3.042,0,0,1-3.8-1.7,2.872,2.872,0,0,1,1.522-3.826,2.336,2.336,0,0,0,1.473-1.615C-258.935-678.973-257.929-681.56-256.889-684.277Z" transform="translate(-185.902 -57.574)" fill="#fff"/>
    </g>
  </g>
</svg>
