<svg xmlns="http://www.w3.org/2000/svg" width="135" height="135" viewBox="0 0 135 135">
  <g id="_12" data-name="12" transform="translate(-1087 -2278)">
    <circle id="Elipse_5173" data-name="Elipse 5173" cx="67.5" cy="67.5" r="67.5" transform="translate(1087 2278)" fill="#084a93"/>
    <g id="Grupo_129058" data-name="Grupo 129058" transform="translate(1110 2312)">
      <path id="Trazado_189992" data-name="Trazado 189992" d="M331.726-383.551c.457-.545.877-1.128,1.378-1.63q10.6-10.627,21.229-21.237c1.393-1.393,2.255-1.393,3.644-.007,1.364,1.361,2.732,2.719,4.088,4.089,1.127,1.139,1.123,2.13-.019,3.274q-7.653,7.662-15.316,15.314c-.219.221-.428.45-.673.708.245.259.454.489.673.71q7.563,7.568,15.129,15.134c1.4,1.4,1.4,2.263.026,3.639s-2.719,2.732-4.089,4.088c-1.155,1.145-2.125,1.149-3.275,0q-10.958-10.949-21.9-21.909a11.961,11.961,0,0,1-.894-1.138Z" transform="translate(-331.726 416.63)" fill="#fff"/>
      <path id="Trazado_189993" data-name="Trazado 189993" d="M397.531-382.929,386.775-393.68q-2.686-2.686-5.371-5.373c-1.171-1.178-1.165-2.148.014-3.335q2.1-2.112,4.213-4.209c1.15-1.137,2.145-1.144,3.286,0q10.961,10.952,21.913,21.914c1.155,1.156,1.165,2.132.027,3.273q-10.983,10.995-21.974,21.974a1.977,1.977,0,0,1-3.214,0q-2.149-2.125-4.274-4.273c-1.167-1.176-1.159-2.143.032-3.336q7.627-7.635,15.263-15.256A7.424,7.424,0,0,1,397.531-382.929Z" transform="translate(-323.304 416.632)" fill="#fff"/>
      <path id="Trazado_189994" data-name="Trazado 189994" d="M358.34-351.474c.157-.565.376-1.4.619-2.222q8.775-29.71,17.556-59.419a7.841,7.841,0,0,1,.329-.977,1.7,1.7,0,0,1,2.068-1.129,43.257,43.257,0,0,1,4.213,1.229c1.123.4,1.458,1.319,1.081,2.628-.612,2.126-1.245,4.246-1.873,6.367q-8.091,27.4-16.187,54.791a5.849,5.849,0,0,1-.406,1.133,1.663,1.663,0,0,1-1.936.951c-1.447-.36-2.882-.785-4.294-1.267C358.656-349.681,358.293-350.353,358.34-351.474Z" transform="translate(-327.134 415.281)" fill="#fff"/>
    </g>
  </g>
</svg>
