<svg xmlns="http://www.w3.org/2000/svg" width="190" height="190" viewBox="0 0 190 190">
  <g id="_13" data-name="13" transform="translate(-713.72 -529.318)">
    <path id="Trazado_194439" data-name="Trazado 194439" d="M839.271,633.428v-5.616c-.121-.107-.2-.229-.29-.248-6.327-1.314-8.839-4.381-8.841-10.808,0-3.387-.013-6.773,0-10.159.029-5.879,3.912-9.793,9.766-9.811,7.3-.021,14.593-.005,21.89-.006h1.977c.039-.769.092-1.338.093-1.907q.008-15.325,0-30.652c0-3.205-1-4.213-4.165-4.213q-27.844-.006-55.688-.028a1.907,1.907,0,0,0-2.207,1.573,15.021,15.021,0,0,1-14.613,10.7c-6.009.042-12.018.009-18.185.009v12.394c.477.126,1.019.278,1.567.412A20.942,20.942,0,0,1,784.542,595.6a2.055,2.055,0,0,0,2.183,1.224,15.322,15.322,0,1,1,.725,30.633q-21.627.153-43.255,0a15.324,15.324,0,1,1,.655-30.639,2.047,2.047,0,0,0,2.205-1.186,20.632,20.632,0,0,1,14.128-10.551c1.355-.307,1.626-.865,1.6-2.1-.069-3.489-.024-6.98-.024-10.714h-2.025c-5.662-.006-11.326.083-16.986-.041a15.295,15.295,0,0,1-3.8-29.939c1.655-.464,3.463-.354,5.175-.65a2.714,2.714,0,0,0,1.743-.984c8.857-15.086,29.1-15.119,37.844-.065a2.535,2.535,0,0,0,1.871,1.029c7.544,0,12.971,3.793,15.285,10.959.414,1.285,1.127,1.349,2.185,1.348q27.758-.026,55.514-.012c6.89,0,10.445,3.569,10.446,10.477q0,15.152,0,30.3v2.089h2.03q10.857,0,21.715,0c6.137.01,9.923,3.8,9.943,9.95.011,3.387,0,6.773,0,10.159,0,6.374-2.676,9.567-9.056,10.708v5.865c4.654.579,7.866,2.9,8.866,7.625a22.191,22.191,0,0,1,.183,4.361c.024,2.744.009,5.489.007,8.233,0,6.365-2.674,9.553-9.059,10.7v5.825c5.358,1.084,8.259,3.565,8.911,7.838a33.766,33.766,0,0,1,.143,4.893c.017,2.978.042,5.956-.009,8.933a9.083,9.083,0,0,1-9.13,9.158q-27.581.078-55.163,0a9.177,9.177,0,0,1-9.243-9.26c-.056-3.852-.025-7.706-.011-11.56.02-5.364,2.993-8.867,8.315-9.828.225-.041.447-.094.779-.165v-5.8c-.633-.134-1.248-.253-1.859-.4a9.179,9.179,0,0,1-7.213-8.792q-.117-6.3,0-12.611C830.261,637.769,833.456,634.554,839.271,633.428Zm-89-84.145a22.258,22.258,0,0,0-2.887-.918,14.87,14.87,0,0,0-4.462-.437,9.089,9.089,0,0,0-7.737,9.709,9.232,9.232,0,0,0,9.256,8.517q21.364.065,42.729-.007a8.777,8.777,0,0,0,8.521-5.649,8.5,8.5,0,0,0-1.61-9.613,8.663,8.663,0,0,0-9.865-2.548c-.912.31-1.845.56-2.892.874-2.038-8.27-6.779-13.59-15.434-13.623C757.158,535.554,752.343,540.862,750.272,549.283Zm31.071,55.143c-1.98-8.071-6.538-13.447-15.127-13.631-9.015-.194-13.861,5.226-15.966,13.621-1.241-.385-2.28-.736-3.335-1.029a8.672,8.672,0,0,0-9.491,2.78,8.563,8.563,0,0,0-1.457,9.636,8.7,8.7,0,0,0,8.429,5.482q21.434.054,42.867,0a8.672,8.672,0,0,0,8.4-5.524,8.553,8.553,0,0,0-1.509-9.627,8.74,8.74,0,0,0-9.677-2.692C783.485,603.728,782.505,604.058,781.343,604.426Zm85.7-1.458q-13.48,0-26.962,0c-2.674,0-3.732,1.05-3.745,3.691q-.028,5.516,0,11.031c.016,2.528,1.1,3.6,3.658,3.6q26.961.015,53.922,0c2.589,0,3.679-1.135,3.694-3.779.018-3.327.006-6.654.005-9.981,0-3.71-.844-4.569-4.487-4.569Q880.08,602.965,867.038,602.968Zm-.086,55.119q13.48,0,26.961-.006c2.534,0,3.67-1.114,3.689-3.6q.043-5.516,0-11.032c-.016-2.6-1.135-3.688-3.781-3.689q-26.874-.012-53.748,0c-2.674,0-3.731,1.051-3.745,3.692-.018,3.56-.012,7.121,0,10.681.007,2.983.989,3.954,4.013,3.956Q853.646,658.094,866.952,658.087Zm.041,18.449q-13.392,0-26.786,0c-2.875,0-3.871,1.014-3.879,3.912-.01,3.618-.021,7.237.005,10.856.017,2.443,1.1,3.554,3.526,3.556q27.048.021,54.1,0c2.506,0,3.629-1.136,3.647-3.648.026-3.56.015-7.12,0-10.681-.008-2.965-1.037-4-4-4Q880.3,676.529,866.993,676.536Zm21.306-48.9H845.622v5.822H888.3Zm0,36.78H845.618v5.83h42.677Z"/>
    <path id="Trazado_194440" data-name="Trazado 194440" d="M796.348,719.318H741.382v-6h9.008v-6.179h-2.037q-12.344,0-24.687,0c-6.189-.008-9.936-3.738-9.939-9.911q-.013-26.882,0-53.763c0-6.116,3.821-9.9,9.987-9.9q45.172-.009,90.345,0c6.119,0,10,3.846,10,9.927q.018,26.882,0,53.762c0,6.037-3.824,9.87-9.834,9.881q-12.43.024-24.862.005h-1.976v6.111h8.959Zm21.532-36.792v-1.772q0-18.477,0-36.953c0-3.1-.962-4.048-4.1-4.048q-44.913,0-89.827,0c-3.116,0-4.131.99-4.133,4.044q-.009,18.476,0,36.953c0,.566.049,1.133.078,1.776Zm-98.063,6.359c0,2.671,0,5.116,0,7.561,0,3.736.879,4.6,4.665,4.6q44.391,0,88.781,0a12.072,12.072,0,0,0,1.923-.055,2.78,2.78,0,0,0,2.617-2.639c.125-3.127.038-6.262.038-9.468Zm36.932,18.322v5.983h24.2v-5.983Z"/>
    <path id="Trazado_194441" data-name="Trazado 194441" d="M750.272,549.283c2.071-8.421,6.886-13.729,15.619-13.7,8.655.033,13.4,5.353,15.434,13.623,1.047-.314,1.98-.564,2.892-.874a8.663,8.663,0,0,1,9.865,2.548,8.5,8.5,0,0,1,1.61,9.613,8.777,8.777,0,0,1-8.521,5.649q-21.365.086-42.729.007a9.232,9.232,0,0,1-9.256-8.517,9.089,9.089,0,0,1,7.737-9.709,14.87,14.87,0,0,1,4.462.437A22.258,22.258,0,0,1,750.272,549.283Z" fill="#b9ddfc"/>
    <path id="Trazado_194442" data-name="Trazado 194442" d="M781.343,604.426c1.162-.368,2.142-.7,3.132-.988a8.74,8.74,0,0,1,9.677,2.692,8.553,8.553,0,0,1,1.509,9.627,8.672,8.672,0,0,1-8.4,5.524q-21.434.067-42.867,0a8.7,8.7,0,0,1-8.429-5.482,8.563,8.563,0,0,1,1.457-9.636,8.672,8.672,0,0,1,9.491-2.78c1.055.293,2.094.644,3.335,1.029,2.1-8.4,6.951-13.815,15.966-13.621C774.8,590.979,779.363,596.355,781.343,604.426Z" fill="#b9ddfc"/>
    <path id="Trazado_194443" data-name="Trazado 194443" d="M867.038,602.967q13.042,0,26.086,0c3.643,0,4.485.859,4.487,4.569,0,3.327.013,6.654-.005,9.981-.015,2.644-1.105,3.777-3.694,3.779q-26.961.015-53.922,0c-2.562,0-3.642-1.075-3.658-3.6q-.034-5.515,0-11.031c.013-2.641,1.071-3.687,3.745-3.691Q853.558,602.956,867.038,602.967Zm-24.551,12.11h5.992v-5.915h-5.992Zm12.26,0h5.992v-5.916h-5.992Z" fill="#ffb30b"/>
    <path id="Trazado_194444" data-name="Trazado 194444" d="M866.952,658.087q-13.305,0-26.611,0c-3.024,0-4.006-.973-4.013-3.956-.01-3.56-.016-7.121,0-10.681.014-2.641,1.071-3.69,3.745-3.692q26.874-.012,53.748,0c2.646,0,3.765,1.094,3.781,3.689q.035,5.516,0,11.032c-.019,2.49-1.155,3.6-3.689,3.6Q880.433,658.1,866.952,658.087Zm-18.449-12.1h-5.992v5.9H848.5Zm12.236-.023h-5.931v5.947h5.931Z" fill="#ffb30b"/>
    <path id="Trazado_194445" data-name="Trazado 194445" d="M866.993,676.536q13.307,0,26.611,0c2.967,0,4,1.033,4,4,.01,3.561.021,7.121,0,10.681-.018,2.512-1.141,3.646-3.647,3.648q-27.048.016-54.1,0c-2.426,0-3.509-1.113-3.526-3.556-.026-3.619-.015-7.238-.005-10.856.008-2.9,1-3.909,3.879-3.912Q853.6,676.527,866.993,676.536Zm-24.5,12.154h5.97v-5.941h-5.97Zm18.231,0v-5.944H854.81v5.944Z" fill="#ffb30b"/>
    <path id="Trazado_194446" data-name="Trazado 194446" d="M888.3,627.632v5.822H845.622v-5.822Z" fill="#c58f15"/>
    <path id="Trazado_194447" data-name="Trazado 194447" d="M888.295,664.412v5.83H845.618v-5.83Z" fill="#c58f15"/>
    <path id="Trazado_194448" data-name="Trazado 194448" d="M817.88,682.526H719.9c-.029-.643-.078-1.21-.078-1.776q-.006-18.477,0-36.953c0-3.054,1.017-4.044,4.133-4.044q44.913,0,89.827,0c3.137,0,4.1.948,4.1,4.048q.008,18.477,0,36.953Zm-6.166-36.575h-36.54v30.454h36.54Zm-85.653,18.205h42.646v-5.95H726.061Zm0,12.262h42.646v-5.951H726.061Zm12.263-24.528H768.7v-5.941H738.324Zm-6.337-5.93h-5.876V651.9h5.876Z" fill="#00defc"/>
    <path id="Trazado_194449" data-name="Trazado 194449" d="M719.817,688.885h98.024c0,3.206.087,6.341-.038,9.468a2.78,2.78,0,0,1-2.617,2.639,12.072,12.072,0,0,1-1.923.055q-44.39,0-88.781,0c-3.786,0-4.663-.866-4.665-4.6C719.816,694,719.817,691.556,719.817,688.885Z" fill="#fff"/>
    <path id="Trazado_194450" data-name="Trazado 194450" d="M756.749,707.207h24.2v5.983h-24.2Z" fill="#fff"/>
    <path id="Trazado_194451" data-name="Trazado 194451" d="M842.487,615.077v-5.915h5.992v5.915Z"/>
    <path id="Trazado_194452" data-name="Trazado 194452" d="M854.747,615.078v-5.916h5.992v5.916Z"/>
    <path id="Trazado_194453" data-name="Trazado 194453" d="M848.5,645.984v5.9h-5.992v-5.9Z"/>
    <path id="Trazado_194454" data-name="Trazado 194454" d="M860.739,645.961v5.947h-5.931v-5.947Z"/>
    <path id="Trazado_194455" data-name="Trazado 194455" d="M842.491,688.69v-5.941h5.97v5.941Z"/>
    <path id="Trazado_194456" data-name="Trazado 194456" d="M860.722,688.691H854.81v-5.944h5.912Z"/>
    <path id="Trazado_194457" data-name="Trazado 194457" d="M811.714,645.951v30.454h-36.54V645.951Zm-30.475,6.129v18.168h24.229V652.08Z"/>
    <path id="Trazado_194458" data-name="Trazado 194458" d="M726.061,664.156v-5.95h42.646v5.95Z"/>
    <path id="Trazado_194459" data-name="Trazado 194459" d="M726.061,676.418v-5.951h42.646v5.951Z"/>
    <path id="Trazado_194460" data-name="Trazado 194460" d="M738.324,651.89v-5.941H768.7v5.941Z"/>
    <path id="Trazado_194461" data-name="Trazado 194461" d="M731.987,645.96V651.9h-5.876V645.96Z"/>
    <path id="Trazado_194462" data-name="Trazado 194462" d="M781.239,652.08h24.229v18.168H781.239Z" fill="#f9f7ec"/>
  </g>
</svg>
