<svg xmlns="http://www.w3.org/2000/svg" width="135" height="135" viewBox="0 0 135 135">
  <g id="_13" data-name="13" transform="translate(9689 9494)">
    <circle id="Elipse_5176" data-name="Elipse 5176" cx="67.5" cy="67.5" r="67.5" transform="translate(-9689 -9494)" fill="#084a93"/>
    <g id="Grupo_129059" data-name="Grupo 129059" transform="translate(-9659 -9466)">
      <path id="Trazado_189995" data-name="Trazado 189995" d="M501.849-557h7.239a7.138,7.138,0,0,0,.823.129,70.61,70.61,0,0,1,15.195,2.2,26.9,26.9,0,0,1,10.215,4.639,7.756,7.756,0,0,1,3.2,6.412c-.062,8.264-.016,16.529-.035,24.794a1.88,1.88,0,0,0,.558,1.34,39.3,39.3,0,0,1,3.529,4.346,22.018,22.018,0,0,1,2.988,17.038,21.9,21.9,0,0,1-7.246,12.225,22.382,22.382,0,0,1-18.418,5.452,16.492,16.492,0,0,0-2.866-.473c-2.507.121-5,.5-7.508.623a78.254,78.254,0,0,1-23.735-2.2,26.706,26.706,0,0,1-10.223-4.619,7.726,7.726,0,0,1-3.226-6.476c.08-5.081.023-10.163.023-15.245q0-18.441-.012-36.882a7.27,7.27,0,0,1,2.165-5.4,18.483,18.483,0,0,1,6.563-4.045,59.729,59.729,0,0,1,16.947-3.552C499.3-556.8,500.575-556.9,501.849-557Zm-24.394,19.824v.893c0,3.055.026,6.109-.015,9.163a2.718,2.718,0,0,0,1.025,2.284,11.73,11.73,0,0,0,1.108.827,24.953,24.953,0,0,0,7.078,2.917,73.722,73.722,0,0,0,20.737,2.223,5.032,5.032,0,0,0,2.881-.967,22.122,22.122,0,0,1,19.207-3.159c1.318.374,2.59.907,3.9,1.372v-15.525c-.217.108-.376.18-.527.263a34.945,34.945,0,0,1-8.4,3.146,77.906,77.906,0,0,1-19.062,2.162,80.794,80.794,0,0,1-16.363-1.56A39.791,39.791,0,0,1,477.455-537.176Zm27.979.682c3.552-.268,7.113-.448,10.653-.827a45.088,45.088,0,0,0,11.567-2.711,13.908,13.908,0,0,0,4.966-2.845c1.037-1.026,1.1-1.887-.034-2.8a16.853,16.853,0,0,0-3.756-2.343c-5.794-2.522-11.96-3.348-18.2-3.734a85.468,85.468,0,0,0-13.987.285,49.14,49.14,0,0,0-13.464,2.973,22.738,22.738,0,0,0-4.618,2.544c-1.512,1.072-1.422,2.18-.008,3.4.117.1.239.193.364.284a23.72,23.72,0,0,0,8,3.445A79.43,79.43,0,0,0,505.434-536.494Zm-.016,35.443a17.888,17.888,0,0,0,17.762,17.82,17.836,17.836,0,0,0,17.843-17.792,17.8,17.8,0,0,0-17.737-17.8A17.859,17.859,0,0,0,505.418-501.051Zm-27.963-.5v.922c0,2.952.051,5.9-.024,8.854a3.22,3.22,0,0,0,1.42,2.877,19.545,19.545,0,0,0,6,2.878,68.955,68.955,0,0,0,23.269,2.694,3.388,3.388,0,0,0,.482-.1c-.209-.2-.333-.323-.464-.439a22.5,22.5,0,0,1-7.022-11.422,1,1,0,0,0-1.088-.87c-2.223-.179-4.451-.348-6.66-.646a49.593,49.593,0,0,1-13.2-3.432C479.286-500.613,478.433-501.072,477.455-501.549Zm.04-17.743c-.015.31-.038.556-.038.8,0,3.078.022,6.156-.016,9.234a2.4,2.4,0,0,0,1.022,2.195,26.332,26.332,0,0,0,3.826,2.243,46.821,46.821,0,0,0,13.7,3.259c1.419.158,2.844.256,4.352.389A23.269,23.269,0,0,1,504.2-513.75C494.942-514.1,485.9-514.98,477.495-519.292Z" transform="translate(-472.339 557)" fill="#fff"/>
      <path id="Trazado_189996" data-name="Trazado 189996" d="M679.014-342.7c.211-1.576.288-3.1.633-4.551a7.294,7.294,0,0,1,7.125-5.6,7.288,7.288,0,0,1,7.207,5.488,24.021,24.021,0,0,1,.454,4.027c.034.453.125.662.606.769a2.377,2.377,0,0,1,1.954,2.355q.049,6.426,0,12.852a2.455,2.455,0,0,1-2.517,2.489q-7.657.04-15.314,0a2.434,2.434,0,0,1-2.481-2.508q-.033-6.387,0-12.775C676.689-341.52,677.4-342.236,679.014-342.7Zm12.876,5.169H681.82v7.545h10.07Zm-7.721-5.205h5.3a26.837,26.837,0,0,0-.392-3.312,2.22,2.22,0,0,0-2.21-1.706,2.224,2.224,0,0,0-2.277,1.717A27.746,27.746,0,0,0,684.169-342.74Z" transform="translate(-635.938 393.547)" fill="#fff"/>
    </g>
  </g>
</svg>
