<svg xmlns="http://www.w3.org/2000/svg" width="135" height="135" viewBox="0 0 135 135">
  <g id="_14" data-name="14" transform="translate(9342 9422)">
    <circle id="Elipse_5175" data-name="Elipse 5175" cx="67.5" cy="67.5" r="67.5" transform="translate(-9342 -9422)" fill="#084a93"/>
    <g id="Grupo_129060" data-name="Grupo 129060" transform="translate(-9317 -9394)">
      <path id="Trazado_189997" data-name="Trazado 189997" d="M373.115-450.029c-.576.433-1.154.881-1.746,1.307-.774.559-1.533,1.146-2.348,1.638a1.715,1.715,0,0,1-2.44-.286,28.855,28.855,0,0,0-4.686-3.461c-1.63-.965-1.765-1.306-1.216-3.119.362-1.19.773-2.367,1.16-3.551.063-.19.114-.385.188-.641l-8.523-2.771c-.3.909-.584,1.779-.868,2.65-.235.713-.464,1.427-.7,2.139a1.723,1.723,0,0,1-1.909,1.282,30.246,30.246,0,0,0-6.794.008,1.535,1.535,0,0,1-1.7-.954c-.413-.95-.743-1.939-1.08-2.921-.243-.706-.441-1.428-.678-2.2l-8.547,2.776c.231.717.455,1.407.677,2.1.3.926.617,1.846.883,2.78a1.7,1.7,0,0,1-.875,2.124,30.149,30.149,0,0,0-4.948,3.536c-1.323,1.169-1.753,1.192-3.228.167-1.2-.835-2.38-1.713-3.637-2.623l-5.275,7.258,3.126,2.28c.331.24.667.475.991.724a1.734,1.734,0,0,1,.6,2.186,31.74,31.74,0,0,0-2.092,6.354c-.25,1.1-.667,1.444-1.824,1.49-1.245.049-2.492.025-3.738.032-.407,0-.815,0-1.261,0v8.971c.184.008.363.024.542.024,1.263,0,2.527,0,3.79,0a6.8,6.8,0,0,1,.816.049c1.09.141,1.442.411,1.684,1.474a33.407,33.407,0,0,0,2.1,6.405,1.7,1.7,0,0,1-.617,2.131c-1.207.891-2.425,1.77-3.639,2.654-.136.1-.27.205-.466.354L320.1-400.4c.961-.707,1.873-1.392,2.8-2.055.541-.385,1.094-.757,1.662-1.1a1.363,1.363,0,0,1,1.707.133c.627.526,1.224,1.094,1.889,1.568,1.194.849,2.408,1.673,3.653,2.445a1.852,1.852,0,0,1,.944,2.329c-.445,1.416-.913,2.824-1.368,4.236-.052.159-.092.322-.148.523l8.526,2.77c.268-.833.51-1.627.779-2.412.3-.871.605-1.739.935-2.6a1.511,1.511,0,0,1,1.661-1c1.533.069,3.068.121,4.6.13a17.1,17.1,0,0,0,2.037-.179,1.834,1.834,0,0,1,2.2,1.372c.507,1.537,1,3.077,1.527,4.68l8.536-2.773c-.158-.5-.307-.958-.455-1.423-.34-1.073-.707-2.137-1.01-3.219-.371-1.332-.205-1.766.966-2.465a31.27,31.27,0,0,0,5.27-3.873,1.569,1.569,0,0,1,2.076-.142c.788.47,1.531,1.021,2.279,1.557.663.474,1.308.974,1.993,1.488.4-.552.773-1.061,1.145-1.568q1.707-2.33,3.417-4.657a1.734,1.734,0,0,1,2.336-.4,1.709,1.709,0,0,1,.567,2.3c-.385.642-.834,1.246-1.273,1.855q-1.959,2.717-3.934,5.426a8.684,8.684,0,0,1-.548.676,1.583,1.583,0,0,1-2.241.333c-1.383-.937-2.732-1.927-4.069-2.929a.639.639,0,0,0-.95.034c-.967.755-1.977,1.456-2.986,2.155a.447.447,0,0,0-.217.619c.5,1.435.962,2.88,1.434,4.322a5.662,5.662,0,0,1,.168.643,1.6,1.6,0,0,1-1.058,2.009c-1.667.6-3.351,1.16-5.037,1.713-2.236.732-4.479,1.441-6.719,2.164a1.834,1.834,0,0,1-2.612-1.336c-.485-1.51-.986-3.015-1.464-4.528a.459.459,0,0,0-.541-.38q-1.942.034-3.888,0a.458.458,0,0,0-.535.384c-.485,1.546-.987,3.087-1.494,4.626a1.757,1.757,0,0,1-2.43,1.27q-5.894-1.894-11.777-3.821a1.741,1.741,0,0,1-1.137-2.3c.48-1.512.958-3.025,1.48-4.522a.691.691,0,0,0-.324-.981c-1.01-.665-1.978-1.4-2.939-2.135a.487.487,0,0,0-.7-.015c-1.374,1.011-2.748,2.024-4.148,3a1.69,1.69,0,0,1-2.166-.166,2.927,2.927,0,0,1-.361-.43q-2.66-3.663-5.313-7.33-.986-1.364-1.958-2.739a1.579,1.579,0,0,1,.3-2.242c.981-.794,2.016-1.519,3.03-2.269.4-.295.8-.588,1.209-.863a.427.427,0,0,0,.189-.592c-.422-1.225-.825-2.455-1.2-3.7a.491.491,0,0,0-.577-.408c-1.587.014-3.174.008-4.762,0a1.8,1.8,0,0,1-2.034-2.052q0-5.993,0-11.983c0-1.407.655-2.049,2.078-2.049,1.57,0,3.14-.012,4.711.007a.514.514,0,0,0,.6-.449c.36-1.207.746-2.409,1.166-3.6a.514.514,0,0,0-.228-.712c-1.295-.917-2.553-1.888-3.865-2.779a1.9,1.9,0,0,1-.448-2.829c2.385-3.217,4.711-6.479,7.062-9.722A1.815,1.815,0,0,1,321-453.8c1.272.919,2.545,1.838,3.806,2.774a.505.505,0,0,0,.743-.005q1.478-1.139,3.024-2.192a.557.557,0,0,0,.258-.782c-.458-1.3-.887-2.616-1.315-3.931a7.02,7.02,0,0,1-.269-1.038,1.557,1.557,0,0,1,1.037-1.881c1.228-.464,2.474-.881,3.722-1.288,2.67-.873,5.346-1.725,8.018-2.588a1.846,1.846,0,0,1,2.678,1.366c.489,1.491.976,2.983,1.446,4.479a.459.459,0,0,0,.537.382q1.944-.032,3.889,0a.463.463,0,0,0,.54-.388c.481-1.528.987-3.05,1.476-4.576a1.8,1.8,0,0,1,2.5-1.311q5.77,1.865,11.535,3.745a1.8,1.8,0,0,1,1.271,2.558c-.493,1.508-.97,3.02-1.481,4.522a.509.509,0,0,0,.252.7c1.025.706,2.038,1.431,3.026,2.187.3.228.478.264.787.029,1.044-.8,2.112-1.562,3.175-2.333.317-.23.641-.456.975-.659a1.569,1.569,0,0,1,2.234.344c1.131,1.474,2.209,2.99,3.309,4.488.685.935,1.378,1.864,2.046,2.81a2.253,2.253,0,0,1,.6,1.879,1.674,1.674,0,0,1-1.295,1.308,1.458,1.458,0,0,1-1.622-.46c-.45-.577-.939-1.126-1.371-1.715-1.1-1.5-2.172-3.017-3.258-4.525A1,1,0,0,0,373.115-450.029Z" transform="translate(-307.033 464.912)" fill="#fff"/>
      <path id="Trazado_189998" data-name="Trazado 189998" d="M320.076-426.753a24.822,24.822,0,0,1,15.23-23.035,24.353,24.353,0,0,1,16.582-.947,24.111,24.111,0,0,1,7.9,3.99,1.638,1.638,0,0,1,.689,1.84,1.806,1.806,0,0,1-1.488,1.385,1.774,1.774,0,0,1-1.421-.444,21.561,21.561,0,0,0-4.518-2.584,21.362,21.362,0,0,0-5.953-1.535,19.57,19.57,0,0,0-7.644.589,21.079,21.079,0,0,0-12.724,9.58,21.177,21.177,0,0,0-2.8,7.747A21.223,21.223,0,0,0,336-407.75a20.124,20.124,0,0,0,6.467,1.819,34.06,34.06,0,0,0,4.688,0,17.744,17.744,0,0,0,5.535-1.338,20.853,20.853,0,0,0,4.93-2.784,1.739,1.739,0,0,1,2.8.782,1.635,1.635,0,0,1-.637,2.028,25.419,25.419,0,0,1-6.425,3.549,23.065,23.065,0,0,1-10.5,1.408,25.2,25.2,0,0,1-16.337-8.154A23.882,23.882,0,0,1,320.076-426.753Z" transform="translate(-305.288 466.671)" fill="#fff"/>
      <path id="Trazado_189999" data-name="Trazado 189999" d="M359.636-425.109v.655q0,3.814,0,7.627a2.046,2.046,0,0,1-1.138,2.019,2.367,2.367,0,0,1-2.482-.16,2.067,2.067,0,0,1-.889-1.853q.009-4.658.016-9.313,0-6.676-.016-13.352a2.268,2.268,0,0,1,2.54-2.566c3.037,0,6.074-.009,9.11.051a23.915,23.915,0,0,1,3.4.363,6.7,6.7,0,0,1,5.594,4.992,8.635,8.635,0,0,1-1.473,8.537,8.39,8.39,0,0,1-5.215,2.682,36.032,36.032,0,0,1-6.567.316Zm0-4.126c.55,0,1.042,0,1.534,0,1.223-.006,2.449.024,3.67-.034a34.812,34.812,0,0,0,3.794-.343,3.325,3.325,0,0,0,1.591-.752,4.35,4.35,0,0,0,1.135-4.828,3.325,3.325,0,0,0-3.437-2.608c-2.689-.1-5.384-.071-8.077-.1a.7.7,0,0,0-.209.075Z" transform="translate(-300.601 467.969)" fill="#fff"/>
      <path id="Trazado_190000" data-name="Trazado 190000" d="M352.765-414.535a2.169,2.169,0,0,1-2.105-1.571c-.764-1.99-1.528-3.981-2.269-5.98a.658.658,0,0,0-.73-.521q-4.685.029-9.37,0a.61.61,0,0,0-.693.486c-.722,2.06-1.472,4.111-2.23,6.157a2.061,2.061,0,0,1-2.338,1.4,2.136,2.136,0,0,1-1.969-1.9,2.744,2.744,0,0,1,.189-1.144c1.3-3.391,2.626-6.768,3.926-10.158,1.551-4.043,3.073-8.1,4.628-12.14a3.287,3.287,0,0,1,4.779-1.689,3.25,3.25,0,0,1,1.378,1.662q4.512,11.066,9.022,22.129A2.273,2.273,0,0,1,352.765-414.535Zm-13.644-11.9h7.636l-3.851-10.14-.127.027Z" transform="translate(-303.82 467.968)" fill="#fff"/>
      <path id="Trazado_190001" data-name="Trazado 190001" d="M376.637-428.349v-11.36a2.086,2.086,0,0,1,1.16-2.06,2.378,2.378,0,0,1,2.525.177,2.191,2.191,0,0,1,.858,1.976q-.005,4.809,0,9.62,0,6.55,0,13.1a2.087,2.087,0,0,1-1.227,2.119,2.355,2.355,0,0,1-2.594-.323,2.247,2.247,0,0,1-.723-1.888Q376.642-422.67,376.637-428.349Z" transform="translate(-297.725 467.969)" fill="#fff"/>
    </g>
  </g>
</svg>
