<svg xmlns="http://www.w3.org/2000/svg" width="135" height="135" viewBox="0 0 135 135">
  <g id="_15" data-name="15" transform="translate(8987 9422)">
    <circle id="Elipse_5174" data-name="Elipse 5174" cx="67.5" cy="67.5" r="67.5" transform="translate(-8987 -9422)" fill="#084a93"/>
    <g id="Grupo_129065" data-name="Grupo 129065" transform="translate(-8961 -9387)">
      <path id="Trazado_190002" data-name="Trazado 190002" d="M537.323-420.827c-1.707-4.214-3.931-6.6-7.174-7.658a16.383,16.383,0,0,0-5.056-15.623,16.516,16.516,0,0,0-16.287-3.134c-5.869-10.378-12.9-14.36-22.1-12.517a18.9,18.9,0,0,0-10.336,5.721,19.672,19.672,0,0,0-5.239,14.534c-.193,0-.386,0-.578,0-.421,0-.842,0-1.262.025-5.783.288-10.134,2.834-12.934,7.564a21.018,21.018,0,0,0-1.756,4.346c-.212.666-.426,1.331-.667,1.981l-.029,3.969.076.117c.039.06.086.118.132.177.032.039.08.1.084.1,1.693,8.793,7.932,13.574,17.406,13.574a33.006,33.006,0,0,0,5.036-.407l.4-.062v-3.868h-.466c-.769,0-1.526.01-2.275.021-1.642.023-3.193.045-4.757-.042-4.9-.27-8.357-2.577-10.277-6.857a10.983,10.983,0,0,1,1.567-12.081,10.955,10.955,0,0,1,11.666-3.96c.722.162,1.439.345,2.257.554l2.156.543-.269-.805c-1.666-4.988-1.579-9.051.275-12.785a14.566,14.566,0,0,1,9.7-7.986,14.61,14.61,0,0,1,10.7,1.15c4.781,2.474,7.515,6.729,8.359,13.009l.1.771.632-.456c5.01-3.614,9.791-3.979,14.2-1.085,5.393,3.535,6.688,8.837,3.962,16.211l-.21.567,1.283.127c.385.039.7.072,1.019.095,3.948.295,6.628,3.075,6.517,6.761-.108,3.588-2.922,6.159-6.841,6.254-1.141.026-2.28.02-3.421.014l-8.455-.006v4.176h.466c1.346,0,2.684.026,4.013.051,2.938.056,5.976.115,8.929-.125,4.575-.371,7.758-3.142,9.463-8.238l.023-4.55Z" transform="translate(-453.901 460.195)" fill="#fff"/>
      <g id="Grupo_129061" data-name="Grupo 129061" transform="translate(26.31 34.852)">
        <path id="Trazado_190003" data-name="Trazado 190003" d="M497.455-391.961c-3.3,0-6.6.046-9.894-.013-3.51-.062-5.351-1.833-5.386-5.327q-.1-9.987,0-19.978c.032-3.55,1.905-5.436,5.474-5.474q9.894-.1,19.788,0c3.572.037,5.448,1.919,5.48,5.469q.092,9.989,0,19.978c-.035,3.5-1.872,5.271-5.38,5.333C504.175-391.915,500.815-391.961,497.455-391.961Zm-.046-3.326c3.3,0,6.6-.036,9.9.016,1.648.026,2.321-.721,2.316-2.315q-.028-9.807,0-19.614a1.989,1.989,0,0,0-2.228-2.274q-9.8-.027-19.609-.007c-1.563,0-2.327.761-2.32,2.379q.038,9.716,0,19.431c-.006,1.687.686,2.44,2.419,2.4C491.056-395.333,494.233-395.286,497.409-395.287Z" transform="translate(-482.126 422.805)" fill="#fff"/>
      </g>
      <g id="Grupo_129062" data-name="Grupo 129062" transform="translate(33.31 41.931)">
        <path id="Trazado_190004" data-name="Trazado 190004" d="M506.546-415.211v3.005h-16.91v-3.005Z" transform="translate(-489.636 415.211)" fill="#fff"/>
      </g>
      <g id="Grupo_129063" data-name="Grupo 129063" transform="translate(33.24 48.825)">
        <path id="Trazado_190005" data-name="Trazado 190005" d="M489.561-404.753v-3.062h16.908v3.062Z" transform="translate(-489.561 407.815)" fill="#fff"/>
      </g>
      <g id="Grupo_129064" data-name="Grupo 129064" transform="translate(33.246 55.745)">
        <path id="Trazado_190006" data-name="Trazado 190006" d="M489.567-397.353v-3.038h16.9v3.038Z" transform="translate(-489.567 400.391)" fill="#fff"/>
      </g>
    </g>
  </g>
</svg>
