<svg xmlns="http://www.w3.org/2000/svg" width="820" height="95.082" viewBox="0 0 820 95.082">
  <g id="_15" data-name="15" transform="translate(-622.558 -4924.085)">
    <rect id="Rect치ngulo_294498" data-name="Rect치ngulo 294498" width="168.511" height="45.489" rx="2" transform="translate(622.558 4948.881)" fill="#003b82"/>
    <path id="Trazado_194705" data-name="Trazado 194705" d="M-35.828-17.773l4.565,12.891,4.541-12.891h4.81V0h-3.674V-4.858l.366-8.386L-30.017,0h-2.515l-4.785-13.232.366,8.374V0h-3.662V-17.773ZM-19.495-6.726a7.833,7.833,0,0,1,.757-3.5,5.54,5.54,0,0,1,2.179-2.38,6.357,6.357,0,0,1,3.3-.842,6.014,6.014,0,0,1,4.364,1.636A6.565,6.565,0,0,1-7.007-7.373l.024.9a6.9,6.9,0,0,1-1.7,4.877A5.9,5.9,0,0,1-13.232.244a5.927,5.927,0,0,1-4.559-1.831,7.025,7.025,0,0,1-1.7-4.98Zm3.528.25A4.937,4.937,0,0,0-15.259-3.6a2.336,2.336,0,0,0,2.026,1,2.341,2.341,0,0,0,2-.984,5.4,5.4,0,0,0,.72-3.148,4.888,4.888,0,0,0-.72-2.861,2.341,2.341,0,0,0-2.026-1.015,2.3,2.3,0,0,0-2,1.009A5.493,5.493,0,0,0-15.967-6.476ZM-5.359-6.7a7.96,7.96,0,0,1,1.385-4.919,4.5,4.5,0,0,1,3.79-1.831A4.045,4.045,0,0,1,3-12.012V-18.75h3.54V0H3.357L3.186-1.4A4.151,4.151,0,0,1-.208.244,4.483,4.483,0,0,1-3.949-1.593,8.216,8.216,0,0,1-5.359-6.7Zm3.528.263A5.214,5.214,0,0,0-1.184-3.59,2.108,2.108,0,0,0,.7-2.6,2.361,2.361,0,0,0,3-3.982V-9.2A2.327,2.327,0,0,0,.72-10.583Q-1.831-10.583-1.831-6.439ZM15.356.244a6.484,6.484,0,0,1-4.73-1.782A6.335,6.335,0,0,1,8.8-6.287v-.342a7.979,7.979,0,0,1,.769-3.558A5.644,5.644,0,0,1,11.749-12.6a6.116,6.116,0,0,1,3.217-.848,5.482,5.482,0,0,1,4.266,1.709A6.944,6.944,0,0,1,20.789-6.9v1.44H12.378a3.277,3.277,0,0,0,1.031,2.075,3.118,3.118,0,0,0,2.179.781,3.808,3.808,0,0,0,3.186-1.477l1.733,1.941A5.3,5.3,0,0,1,18.359-.385,7.049,7.049,0,0,1,15.356.244Zm-.4-10.852a2.2,2.2,0,0,0-1.7.711,3.682,3.682,0,0,0-.836,2.035h4.907v-.282a2.626,2.626,0,0,0-.635-1.821A2.274,2.274,0,0,0,14.954-10.608ZM26.514,0h-3.54V-18.75h3.54ZM28.87-6.726a7.833,7.833,0,0,1,.757-3.5,5.54,5.54,0,0,1,2.179-2.38,6.357,6.357,0,0,1,3.3-.842,6.014,6.014,0,0,1,4.364,1.636,6.565,6.565,0,0,1,1.886,4.443l.024.9a6.9,6.9,0,0,1-1.7,4.877A5.9,5.9,0,0,1,35.132.244a5.927,5.927,0,0,1-4.559-1.831,7.025,7.025,0,0,1-1.7-4.98Zm3.528.25A4.937,4.937,0,0,0,33.105-3.6a2.336,2.336,0,0,0,2.026,1,2.341,2.341,0,0,0,2-.984,5.4,5.4,0,0,0,.72-3.148,4.888,4.888,0,0,0-.72-2.861,2.341,2.341,0,0,0-2.026-1.015,2.3,2.3,0,0,0-2,1.009A5.493,5.493,0,0,0,32.4-6.476Z" transform="translate(702.325 4977.069)" fill="#fff"/>
    <rect id="Rect치ngulo_294499" data-name="Rect치ngulo 294499" width="168.511" height="45.489" rx="2" transform="translate(1274.047 4948.881)" fill="#003b82"/>
    <path id="Trazado_194704" data-name="Trazado 194704" d="M-40.485-6.506H-43.4V0h-3.662V-17.773h6.6a7.465,7.465,0,0,1,4.858,1.4A4.845,4.845,0,0,1-33.893-12.4a5.468,5.468,0,0,1-.787,3.033,5.37,5.37,0,0,1-2.386,1.935l3.845,7.263V0h-3.931ZM-43.4-9.473h2.954a3.025,3.025,0,0,0,2.136-.7,2.509,2.509,0,0,0,.757-1.935,2.685,2.685,0,0,0-.714-1.978,2.968,2.968,0,0,0-2.191-.72H-43.4ZM-25.262.244a6.484,6.484,0,0,1-4.73-1.782,6.335,6.335,0,0,1-1.825-4.749v-.342a7.979,7.979,0,0,1,.769-3.558A5.644,5.644,0,0,1-28.87-12.6a6.116,6.116,0,0,1,3.217-.848,5.482,5.482,0,0,1,4.266,1.709A6.944,6.944,0,0,1-19.83-6.9v1.44h-8.411a3.277,3.277,0,0,0,1.031,2.075,3.118,3.118,0,0,0,2.179.781,3.808,3.808,0,0,0,3.186-1.477l1.733,1.941A5.3,5.3,0,0,1-22.26-.385,7.049,7.049,0,0,1-25.262.244Zm-.4-10.852a2.2,2.2,0,0,0-1.7.711A3.682,3.682,0,0,0-28.2-7.861H-23.3v-.282a2.626,2.626,0,0,0-.635-1.821A2.274,2.274,0,0,0-25.665-10.608ZM-14.105,0h-3.54V-18.75h3.54ZM-3.546,0A3.918,3.918,0,0,1-3.9-1.184,4.269,4.269,0,0,1-7.233.244,4.69,4.69,0,0,1-10.449-.879a3.612,3.612,0,0,1-1.276-2.832,3.733,3.733,0,0,1,1.556-3.223,7.68,7.68,0,0,1,4.5-1.135h1.624v-.757a2.177,2.177,0,0,0-.47-1.465A1.849,1.849,0,0,0-6-10.84a2.1,2.1,0,0,0-1.4.427A1.451,1.451,0,0,0-7.9-9.241h-3.528a3.544,3.544,0,0,1,.708-2.124,4.68,4.68,0,0,1,2-1.532,7.3,7.3,0,0,1,2.905-.555,5.764,5.764,0,0,1,3.876,1.227A4.292,4.292,0,0,1-.507-8.777v5.725A6.314,6.314,0,0,0,.018-.208V0ZM-6.464-2.454A3.038,3.038,0,0,0-5.023-2.8a2.285,2.285,0,0,0,.977-.934V-6.006H-5.365q-2.649,0-2.82,1.831l-.012.208a1.412,1.412,0,0,0,.464,1.086A1.8,1.8,0,0,0-6.464-2.454ZM7.7-2.6a2.314,2.314,0,0,0,1.587-.537,1.882,1.882,0,0,0,.635-1.428h3.308a4.525,4.525,0,0,1-.732,2.46A4.833,4.833,0,0,1,10.522-.372,6.17,6.17,0,0,1,7.758.244a5.734,5.734,0,0,1-4.468-1.8A7.125,7.125,0,0,1,1.654-6.531v-.232a7.044,7.044,0,0,1,1.624-4.871,5.667,5.667,0,0,1,4.456-1.819,5.555,5.555,0,0,1,3.973,1.41,4.992,4.992,0,0,1,1.52,3.754H9.918a2.424,2.424,0,0,0-.635-1.675,2.116,2.116,0,0,0-1.611-.644,2.125,2.125,0,0,0-1.862.9,5.208,5.208,0,0,0-.629,2.916v.367A5.274,5.274,0,0,0,5.8-3.493,2.151,2.151,0,0,0,7.7-2.6ZM18.964,0h-3.54V-13.208h3.54ZM15.216-16.626a1.737,1.737,0,0,1,.531-1.306,2,2,0,0,1,1.447-.513,2,2,0,0,1,1.44.513,1.727,1.727,0,0,1,.537,1.306,1.732,1.732,0,0,1-.543,1.318,2,2,0,0,1-1.434.513,2,2,0,0,1-1.434-.513A1.732,1.732,0,0,1,15.216-16.626Zm6.1,9.9a7.833,7.833,0,0,1,.757-3.5,5.54,5.54,0,0,1,2.179-2.38,6.357,6.357,0,0,1,3.3-.842,6.014,6.014,0,0,1,4.364,1.636,6.565,6.565,0,0,1,1.886,4.443l.024.9a6.9,6.9,0,0,1-1.7,4.877A5.9,5.9,0,0,1,27.582.244a5.927,5.927,0,0,1-4.559-1.831,7.025,7.025,0,0,1-1.7-4.98Zm3.528.25A4.937,4.937,0,0,0,25.555-3.6a2.336,2.336,0,0,0,2.026,1,2.341,2.341,0,0,0,2-.984,5.4,5.4,0,0,0,.72-3.148,4.888,4.888,0,0,0-.72-2.861,2.341,2.341,0,0,0-2.026-1.015,2.3,2.3,0,0,0-2,1.009A5.493,5.493,0,0,0,24.847-6.476ZM28.253-18.75H32.1l-3.381,3.784H25.848Zm11,5.542.11,1.526a4.611,4.611,0,0,1,3.8-1.77,3.832,3.832,0,0,1,3.125,1.233,5.752,5.752,0,0,1,1.05,3.687V0H43.8V-8.447a2.289,2.289,0,0,0-.488-1.63,2.186,2.186,0,0,0-1.624-.507,2.427,2.427,0,0,0-2.234,1.27V0H35.931V-13.208Z" transform="translate(1353.662 4977.069)" fill="#fff"/>
    <path id="Trazado_193972" data-name="Trazado 193972" d="M1301.323,4962.531h-84.706V4986.6h84.706v10.71l14.19-22.745-14.19-22.744Z" transform="translate(-62.969 -2.94)" fill="#00defc"/>
    <path id="Trazado_193973" data-name="Trazado 193973" d="M857.808,4986.6h84.707v-24.068H857.808v-10.709l-14.19,22.744,14.19,22.745Z" transform="translate(-23.432 -2.94)" fill="#00defc"/>
    <path id="Trazado_193974" data-name="Trazado 193974" d="M980.124,4971.625l98.607,47.542,98.606-47.542-98.606-47.541Z" transform="translate(-37.901)" fill="#003b82"/>
    <path id="Trazado_194703" data-name="Trazado 194703" d="M-30.078-7.7h-7.031v4.761h8.252V0H-40.771V-17.773h11.89v2.966h-8.228v4.236h7.031Zm6.384-5.505.11,1.526a4.611,4.611,0,0,1,3.8-1.77,3.832,3.832,0,0,1,3.125,1.233,5.752,5.752,0,0,1,1.05,3.687V0h-3.528V-8.447a2.289,2.289,0,0,0-.488-1.63,2.186,2.186,0,0,0-1.624-.507,2.427,2.427,0,0,0-2.234,1.27V0h-3.528V-13.208Zm14.978-3.247v3.247h2.258v2.588H-8.716v6.592a1.574,1.574,0,0,0,.281,1.05,1.41,1.41,0,0,0,1.074.317,5.626,5.626,0,0,0,1.038-.085V-.073A7.263,7.263,0,0,1-8.459.244q-3.711,0-3.784-3.748V-10.62h-1.929v-2.588h1.929v-3.247ZM-.769,0h-3.54V-13.208h3.54ZM-4.517-16.626a1.737,1.737,0,0,1,.531-1.306,2,2,0,0,1,1.447-.513,2,2,0,0,1,1.44.513,1.727,1.727,0,0,1,.537,1.306A1.732,1.732,0,0,1-1.1-15.308a2,2,0,0,1-1.434.513,2,2,0,0,1-1.434-.513A1.732,1.732,0,0,1-4.517-16.626ZM1.587-6.7a7.96,7.96,0,0,1,1.385-4.919,4.5,4.5,0,0,1,3.79-1.831,4.045,4.045,0,0,1,3.186,1.44V-18.75h3.54V0H10.3l-.171-1.4A4.151,4.151,0,0,1,6.738.244,4.483,4.483,0,0,1,3-1.593,8.216,8.216,0,0,1,1.587-6.7Zm3.528.263A5.214,5.214,0,0,0,5.762-3.59a2.108,2.108,0,0,0,1.88.99A2.361,2.361,0,0,0,9.949-3.982V-9.2a2.327,2.327,0,0,0-2.283-1.381Q5.115-10.583,5.115-6.439ZM23.877,0a3.918,3.918,0,0,1-.354-1.184A4.269,4.269,0,0,1,20.19.244,4.69,4.69,0,0,1,16.974-.879,3.612,3.612,0,0,1,15.7-3.711a3.733,3.733,0,0,1,1.556-3.223,7.68,7.68,0,0,1,4.5-1.135h1.624v-.757a2.177,2.177,0,0,0-.47-1.465,1.849,1.849,0,0,0-1.483-.549,2.1,2.1,0,0,0-1.4.427,1.451,1.451,0,0,0-.507,1.172H15.991a3.544,3.544,0,0,1,.708-2.124,4.68,4.68,0,0,1,2-1.532,7.3,7.3,0,0,1,2.905-.555,5.764,5.764,0,0,1,3.876,1.227,4.292,4.292,0,0,1,1.434,3.448v5.725a6.314,6.314,0,0,0,.525,2.844V0ZM20.959-2.454A3.038,3.038,0,0,0,22.4-2.8a2.285,2.285,0,0,0,.977-.934V-6.006H22.058q-2.649,0-2.82,1.831l-.012.208a1.412,1.412,0,0,0,.464,1.086A1.8,1.8,0,0,0,20.959-2.454ZM29.077-6.7a7.96,7.96,0,0,1,1.385-4.919,4.5,4.5,0,0,1,3.79-1.831,4.045,4.045,0,0,1,3.186,1.44V-18.75h3.54V0H37.793l-.171-1.4A4.151,4.151,0,0,1,34.229.244a4.483,4.483,0,0,1-3.741-1.837A8.216,8.216,0,0,1,29.077-6.7Zm3.528.263a5.214,5.214,0,0,0,.647,2.849,2.108,2.108,0,0,0,1.88.99,2.361,2.361,0,0,0,2.307-1.381V-9.2a2.327,2.327,0,0,0-2.283-1.381Q32.6-10.583,32.6-6.439Z" transform="translate(1036.341 4977.069)" fill="#fff"/>
  </g>
</svg>
