<svg xmlns="http://www.w3.org/2000/svg" width="135" height="135" viewBox="0 0 135 135">
  <g id="_16" data-name="16" transform="translate(8625 9422)">
    <circle id="Elipse_5177" data-name="Elipse 5177" cx="67.5" cy="67.5" r="67.5" transform="translate(-8625 -9422)" fill="#084a93"/>
    <g id="Grupo_129066" data-name="Grupo 129066" transform="translate(-8599 -9396)">
      <path id="Trazado_190007" data-name="Trazado 190007" d="M711.151-382.443q-4.659-4.582-9.362-9.156a16.894,16.894,0,0,0,.8-12.657,16.773,16.773,0,0,0-8.6-9.959,26.342,26.342,0,0,0-3.278-1.262l-.358-.119q0-13.229,0-26.456a7.365,7.365,0,0,0-1.189-4.051,12.44,12.44,0,0,0-3.9-3.722,33.132,33.132,0,0,0-11.6-4.346,69.126,69.126,0,0,0-20.034-1.065,51.343,51.343,0,0,0-14.07,2.974,20.637,20.637,0,0,0-7.533,4.54,8.338,8.338,0,0,0-2.493,6.07c.026,12.084.026,25.236,0,40.206a8.16,8.16,0,0,0,2.187,5.654,16.255,16.255,0,0,0,4.795,3.518,42.249,42.249,0,0,0,13.427,3.9,75.956,75.956,0,0,0,22.612-.342,17.034,17.034,0,0,0,20.792,5.4q4.743,4.69,9.531,9.334a5.991,5.991,0,0,0,4.19,1.737h.1a5.921,5.921,0,0,0,4.18-1.849A5.887,5.887,0,0,0,711.151-382.443Zm-75.4-60.668a9.159,9.159,0,0,1,3.615-2.712,34.1,34.1,0,0,1,10.853-3.1c2.243-.289,4.559-.475,6.8-.654l1.4-.113,1.528.042a54.788,54.788,0,0,1,17.263,2.469,18.635,18.635,0,0,1,5.416,2.623,8.176,8.176,0,0,1,1.511,1.47,1.175,1.175,0,0,1,0,1.76,10.906,10.906,0,0,1-2.36,2.026,26.24,26.24,0,0,1-9.122,3.289,62.43,62.43,0,0,1-28.7-.824,18.9,18.9,0,0,1-7.007-3.256,6.608,6.608,0,0,1-1.2-1.226A1.278,1.278,0,0,1,635.754-443.111Zm48.694,14.7a2.324,2.324,0,0,1-.493,1.04,10.809,10.809,0,0,1-4.551,3.032,39.53,39.53,0,0,1-10.971,2.773,64.986,64.986,0,0,1-21.283-.731,28.5,28.5,0,0,1-8.5-2.96,17.434,17.434,0,0,1-2.789-2.149,1.668,1.668,0,0,1-.48-1.409c.016-1.781.015-3.561.011-5.333.615.363,1.245.715,1.9,1.034a41.185,41.185,0,0,0,12.9,3.569,70.373,70.373,0,0,0,24.526-.915,32.987,32.987,0,0,0,9.692-3.6c.026-.014.05-.029.076-.043C684.5-432.219,684.5-430.295,684.448-428.411ZM667-393.912a66.231,66.231,0,0,1-16.906-.353,34.058,34.058,0,0,1-11.264-3.405,16.844,16.844,0,0,1-2.867-2.125,1.888,1.888,0,0,1-.587-1.6c.022-1.736.02-3.471.017-5.21a30.707,30.707,0,0,0,7.763,3.117,62.424,62.424,0,0,0,20.134,1.952c1.9-.106,3.807-.327,5.645-.542l.53-.062a16.848,16.848,0,0,0,.356,7.909C668.868-394.116,667.936-394,667-393.912Zm5.046-14.585a63.781,63.781,0,0,1-24.122.1,30.883,30.883,0,0,1-9.1-3.026,17.49,17.49,0,0,1-2.828-2.1,1.939,1.939,0,0,1-.616-1.65c.025-1.73.022-3.462.019-5.193a31.484,31.484,0,0,0,8.242,3.251,66.342,66.342,0,0,0,20.258,1.834,55.064,55.064,0,0,0,14.742-2.543,33.331,33.331,0,0,0,4.441-1.812c.47-.234.923-.488,1.365-.75v4.436c-.2.022-.4.047-.592.076A17.021,17.021,0,0,0,672.047-408.5Zm14.273,20.854h-.038a11.3,11.3,0,0,1-11.271-11.251,11.211,11.211,0,0,1,3.3-8.006,11.381,11.381,0,0,1,8.113-3.321h.024a11.359,11.359,0,0,1,11.136,11.2A11.336,11.336,0,0,1,686.321-387.642Zm22.554,11.178a2.519,2.519,0,0,1-1.773.8,2.644,2.644,0,0,1-1.846-.77q-4.926-4.784-9.813-9.615a3.122,3.122,0,0,0-.968-.673,14.878,14.878,0,0,0,3.84-3.762,2.856,2.856,0,0,0,.656.918q4.908,4.762,9.779,9.562A2.493,2.493,0,0,1,708.874-376.464Z" transform="translate(-629.528 455.518)" fill="#fff"/>
    </g>
  </g>
</svg>
