<svg xmlns="http://www.w3.org/2000/svg" width="135" height="135" viewBox="0 0 135 135">
  <g id="_17" data-name="17" transform="translate(8263 9422)">
    <circle id="Elipse_5178" data-name="Elipse 5178" cx="67.5" cy="67.5" r="67.5" transform="translate(-8263 -9422)" fill="#084a93"/>
    <g id="Grupo_129067" data-name="Grupo 129067" transform="translate(-8238 -9397)">
      <path id="Trazado_190009" data-name="Trazado 190009" d="M865.223-399.151a4.2,4.2,0,0,0-3.482-2.022,8.126,8.126,0,0,0-4.071.826,17.479,17.479,0,0,0-4.251,2.787,13.816,13.816,0,0,1-6.047,2.917,45.522,45.522,0,0,1-9.524.878,20.267,20.267,0,0,1-8.277-1.666,50.637,50.637,0,0,0-5.032-1.709q-.483-.144-.969-.277l2.234-.066.5-.015c.455-.014.913-.044,1.368-.076a15.231,15.231,0,0,1,2.473-.041c2.844.276,5.737.644,8.533,1l1.968.248c.834.105,1.667.23,2.5.356.645.1,1.29.193,1.935.281a3.857,3.857,0,0,0,3.152-.835,6.347,6.347,0,0,0,2.212-3.822,3.983,3.983,0,0,0-2.345-4.7,19.773,19.773,0,0,0-3.11-1.18,59.094,59.094,0,0,0-11.979-1.842,15.034,15.034,0,0,1-6.049-1.394c-.4-.208-.81-.4-1.219-.585-.385-.177-.771-.352-1.145-.55-4.975-2.636-10.66-3.635-17.382-3.064a48.016,48.016,0,0,0-8.5,1.761l-.659.179a2.748,2.748,0,0,0-2.211,2.619c-.423,4.454-.873,8.9-1.324,13.353l-.211,2.082a1.823,1.823,0,0,0,1.686,2.133,16.43,16.43,0,0,1,4.923,1.167l3.565,1.649q3.181,1.473,6.366,2.938l1.792.822c3.353,1.54,6.707,3.079,10.08,4.575a11.47,11.47,0,0,0,4.676,1.2,7.538,7.538,0,0,0,.922-.056c2.614-.316,5.656-.689,8.667-1.115,1.513-.214,3.023-.446,4.533-.679,1.881-.289,3.759-.578,5.646-.831a12.628,12.628,0,0,0,5.308-1.864c.433-.28.87-.556,1.305-.831.9-.567,1.788-1.132,2.658-1.734,1.772-1.228,4.1-2.856,6.392-4.573a7.282,7.282,0,0,0,1.8-2.082,3.028,3.028,0,0,0-.023-3.235,3.7,3.7,0,0,0,.7-1.05l.123-.282v-1.25Zm-3.7,4.259c.156.066.295.118.421.165a1.218,1.218,0,0,0,.163.052c.066.048.07.081.022.159a4.542,4.542,0,0,1-1.058,1.265c-2.253,1.689-4.552,3.3-6.3,4.509-.836.579-1.7,1.122-2.556,1.667-.445.281-.889.562-1.331.847a9.646,9.646,0,0,1-4.107,1.422c-1.9.255-3.8.547-5.7.839-1.5.229-3,.46-4.5.672-2.984.423-6.01.793-8.611,1.11a7.969,7.969,0,0,1-4.06-.913c-3.361-1.491-6.7-3.026-10.046-4.56l-1.792-.822q-3.179-1.459-6.357-2.934l-3.568-1.649a17.123,17.123,0,0,0-4.828-1.291l.115-1.14c.451-4.457.9-8.913,1.325-13.371l.007-.056.054-.015.664-.18a45.053,45.053,0,0,1,7.986-1.669c6.143-.527,11.3.369,15.763,2.733.425.224.86.424,1.3.624.364.167.729.334,1.085.52a17.961,17.961,0,0,0,7.189,1.718,56.617,56.617,0,0,1,11.391,1.738,16.662,16.662,0,0,1,2.645,1c.7.338.9.6.729,1.56a3.448,3.448,0,0,1-1.226,2.1.968.968,0,0,1-.862.161c-.631-.085-1.261-.18-1.894-.275-.854-.128-1.71-.256-2.567-.364l-1.961-.248c-2.819-.359-5.734-.73-8.619-1.01a17.755,17.755,0,0,0-2.958.034c-.419.028-.839.057-1.257.07l-.5.015c-1.853.056-3.708.112-5.565.148a2.051,2.051,0,0,0-1.982,1.328c-.1.246-.217.484-.344.741l-.876,1.836,1.6.626a3.773,3.773,0,0,0,.507.18c.515.134,1.033.263,1.551.392,1.037.256,2.073.514,3.095.819a48.158,48.158,0,0,1,4.745,1.607,22.847,22.847,0,0,0,9.463,1.889,48.479,48.479,0,0,0,10.135-.954,16.672,16.672,0,0,0,7.291-3.555,14.615,14.615,0,0,1,3.542-2.333,5.172,5.172,0,0,1,2.606-.576,2.262,2.262,0,0,1,.8.191,7.808,7.808,0,0,1-.9.55l-2.613,1.457Z" transform="translate(-780.764 464.081)" fill="#fff"/>
      <path id="Trazado_190010" data-name="Trazado 190010" d="M805.665-445.092a32.842,32.842,0,0,0,9.8,2.659,97.631,97.631,0,0,0,13.5.964q.8.009,1.646.008a82.693,82.693,0,0,0,18.04-1.712,24.722,24.722,0,0,0,6.378-2.134,9.151,9.151,0,0,0,2.046-1.483,3.139,3.139,0,0,0,.058-4.617,6.869,6.869,0,0,0-1.152-.97,14.439,14.439,0,0,0-4.171-1.86,66.346,66.346,0,0,0-16.982-2.451c-.346-.009-.691-.03-1.036-.05l-8.755-.03-.4.049c-.048.009-.1.021-.144.026-.942.1-1.887.186-2.831.276-2.1.2-4.271.406-6.409.684a35.975,35.975,0,0,0-8.38,2.055,9.778,9.778,0,0,0-3.743,2.268,3.314,3.314,0,0,0-1.029,2.446,3.135,3.135,0,0,0,1.139,2.238A10.682,10.682,0,0,0,805.665-445.092Zm-.424-4.3a7,7,0,0,1,2.674-1.559,33.141,33.141,0,0,1,7.708-1.884c2.088-.273,4.235-.476,6.311-.673.949-.091,1.9-.181,2.851-.278.11-.012.22-.029.385-.06h8l.451.026c.378.022.756.045,1.135.054a63.453,63.453,0,0,1,16.239,2.335,11.685,11.685,0,0,1,3.349,1.476,3.837,3.837,0,0,1,.65.541.8.8,0,0,1,.2.307.582.582,0,0,1-.165.221,6.189,6.189,0,0,1-1.386,1,22.179,22.179,0,0,1-5.637,1.856,83.391,83.391,0,0,1-19.015,1.634,94.69,94.69,0,0,1-13.095-.933,30.292,30.292,0,0,1-8.956-2.4,7.721,7.721,0,0,1-1.758-1.182c-.1-.093-.149-.161-.161-.161l0,0A.8.8,0,0,1,805.242-449.387Z" transform="translate(-779.434 456.768)" fill="#fff"/>
      <path id="Trazado_190011" data-name="Trazado 190011" d="M802.1-434.242a4.642,4.642,0,0,0,2.473,4.314c.358.208.722.408,1.094.59a24.428,24.428,0,0,0,5.246,1.756,78.551,78.551,0,0,0,16.047,1.847q1.676.044,3.295.043a95.026,95.026,0,0,0,15.165-1.134,39.791,39.791,0,0,0,7.981-2.006,10.673,10.673,0,0,0,3.366-1.894c.048-.042.111-.1.181-.167l-1.445,1.978a7.463,7.463,0,0,1-3.743,2.254c-.43.158-.87.3-1.311.423a59.368,59.368,0,0,1-13.062,2.039,103.445,103.445,0,0,1-20.5-.6,42.837,42.837,0,0,1-9.08-2.124A5.742,5.742,0,0,1,805-428.791l-.644-.786-2.253.259.01,5.973c.011,2.146.02,4.293.01,6.44a4.282,4.282,0,0,0,2.564,4.232l.523.239a29.957,29.957,0,0,0,3.664,1.491,57.743,57.743,0,0,0,12.139,2.083c3.024.254,6.069.382,9.11.382q4.009,0,7.992-.295a64.6,64.6,0,0,0,12.728-2.013,18.615,18.615,0,0,0,5.28-2.244,4.936,4.936,0,0,0,.767-.639l-1.4,1.9c-1.111,1.505-2.886,2.048-4.768,2.623a40.71,40.71,0,0,1-4.761,1.126,81.809,81.809,0,0,1-14.139,1.27h-.087a2.941,2.941,0,0,0-.391.025l.04,1.465-.116-1.458-1.246.1-.159,2.742,1.8.206c.9.111,1.8.216,2.7.322,2.044.24,4.159.488,6.214.8a23.675,23.675,0,0,1,6.474,1.843,5.5,5.5,0,0,1,3.538,4.867,1.776,1.776,0,0,0,.9,1.53,1.6,1.6,0,0,0,.763.2,2.162,2.162,0,0,0,1.03-.294c.265-.144.523-.3.784-.453a11.08,11.08,0,0,1,1.375-.732,4.1,4.1,0,0,0,2.666-4.148l0-.147c0-.095.009-.19.009-.282l.016-15.187-.476.648a4.414,4.414,0,0,0,.464-2.056c-.014-2.336,0-4.675.014-7.011l.017-8.763-.4.547a3.216,3.216,0,0,0,.309-1.386q.005-3.589.022-7.175l.015-4.312a2.443,2.443,0,0,0-.094-.632l-.527-2.565-1.909,1.8c-.163.152-.316.314-.467.472a3.686,3.686,0,0,1-.611.563,15.1,15.1,0,0,1-2.615,1.3,46.018,46.018,0,0,1-13.022,2.406c-3.74.192-7.57.187-11.281.178-1.165,0-2.329-.006-3.488,0a58.794,58.794,0,0,1-7.774-.764l-.579-.085a37.972,37.972,0,0,1-7.181-1.678c-1.754-.618-2.925-1.195-3.708-2.311a1.459,1.459,0,0,0-1.443-.607l-1.207.193-.111,1.2c-.008.091-.015.184-.015.284q.009,1.57.026,3.14C802.113-439.434,802.138-436.812,802.1-434.242Zm53.105,10.451c-.013,2.349-.028,4.7-.014,7.047a1.315,1.315,0,0,1-.682,1.273,15.9,15.9,0,0,1-4.464,1.868,61.814,61.814,0,0,1-12.148,1.911,105.691,105.691,0,0,1-16.64-.084,54.969,54.969,0,0,1-11.521-1.965,26.851,26.851,0,0,1-3.3-1.352l-.533-.244c-.514-.234-.855-.589-.851-1.556.011-2.156,0-4.312-.009-6.468l-.007-1.622a13.5,13.5,0,0,0,1.723.788,45.31,45.31,0,0,0,9.695,2.287,106.212,106.212,0,0,0,21.085.63,62.28,62.28,0,0,0,13.7-2.143c.518-.144,1.033-.309,1.538-.495a19.339,19.339,0,0,0,2.441-1.032Zm-.019,23.623-.006.139c0,.112-.01.224-.008.33.01.889-.277,1.17-.845,1.4a9.69,9.69,0,0,0-1.107.543,8.411,8.411,0,0,0-4.943-5.6,23.63,23.63,0,0,0-4.018-1.425q1.1-.165,2.21-.36a43.6,43.6,0,0,0,5.108-1.209,18.576,18.576,0,0,0,3.622-1.4Zm-47.61-40.94A40.858,40.858,0,0,0,815.3-439.3l.577.085a56.724,56.724,0,0,0,8.211.8q1.733-.005,3.474,0c3.747.009,7.62.015,11.438-.181a48.936,48.936,0,0,0,13.841-2.568,14.938,14.938,0,0,0,2.317-1.072l-.006,1.674q-.014,3.592-.022,7.184c0,.081,0,.19-.307.462a8.062,8.062,0,0,1-2.478,1.353,37.013,37.013,0,0,1-7.391,1.847,96.305,96.305,0,0,1-17.919,1.055,75.729,75.729,0,0,1-15.46-1.772,21.69,21.69,0,0,1-4.635-1.539c-.307-.149-.606-.315-.9-.486a1.726,1.726,0,0,1-1.018-1.744c.038-2.6.013-5.242-.009-7.795,0-.075,0-.15,0-.225A15.64,15.64,0,0,0,807.577-441.109Z" transform="translate(-779.439 458.252)" fill="#fff"/>
      <path id="Trazado_190012" data-name="Trazado 190012" d="M796.762-400.856c.165-1.969.415-3.978.657-5.921l.2-1.638a1.842,1.842,0,0,0-.412-1.49,1.878,1.878,0,0,0-1.488-.6c-.6-.007-1.2-.012-1.792-.01h-.214c-.086,0-.2,0-.321.01.039-.358.077-.722.116-1.073a2.008,2.008,0,0,0-.447-1.636,1.959,1.959,0,0,0-1.53-.618l-5.262-.007h-.007a2.1,2.1,0,0,0-2.181,1.875,85.378,85.378,0,0,0-1.182,10.408c-.029.635-.07,1.271-.11,1.906l-.057,7.412.04.389c.013.088.028.177.033.261l.024.492c.055,1.084.11,2.167.147,3.253a1.806,1.806,0,0,0,1.9,1.862h.013q2.753-.014,5.515.012h.029a1.874,1.874,0,0,0,1.411-.545,1.934,1.934,0,0,0,.489-1.487l-.058-1.087c0-.063-.006-.129-.008-.192a2.044,2.044,0,0,0,.517.077c.249,0,.5,0,.749,0h.518l1.721-.084.257-1.143.049-.32q.1-1.557.2-3.116C796.42-396.158,796.566-398.533,796.762-400.856Zm-7.54,7.514c-.022,1.486.059,2.973.136,4.411v.027q-1.23-.009-2.46-.008h-1.034c-.033-.777-.074-1.554-.113-2.332l-.024-.495c-.009-.176-.033-.351-.057-.526l-.01-6.376.052-.824c.041-.652.082-1.3.113-1.954a81.128,81.128,0,0,1,1.049-9.492l3.62,0C789.909-405.533,789.313-399.4,789.222-393.342Zm5.292-13.8c-.244,1.972-.5,4.011-.669,6.038q-.11,1.339-.2,2.686a63.669,63.669,0,0,1,.825-9.173h.1Z" transform="translate(-782.734 464.085)" fill="#fff"/>
    </g>
  </g>
</svg>
