<svg xmlns="http://www.w3.org/2000/svg" xmlns:xlink="http://www.w3.org/1999/xlink" width="316.413" height="278.231" viewBox="0 0 316.413 278.231">
  <defs>
    <linearGradient id="linear-gradient" y1="0.5" x2="1" y2="0.5" gradientUnits="objectBoundingBox">
      <stop offset="0" stop-color="#cacaca"/>
      <stop offset="0.338" stop-color="#e8e8e8"/>
      <stop offset="0.531" stop-color="#f4f4f4"/>
      <stop offset="0.67" stop-color="#efefef"/>
      <stop offset="0.826" stop-color="#e1e1e1"/>
      <stop offset="0.99" stop-color="#cbcbcb"/>
      <stop offset="1" stop-color="#cacaca"/>
    </linearGradient>
    <linearGradient id="linear-gradient-2" x1="-0.119" y1="0.906" x2="1.119" y2="0.094" gradientUnits="objectBoundingBox">
      <stop offset="0" stop-color="#282040"/>
      <stop offset="1" stop-color="#315081"/>
    </linearGradient>
    <linearGradient id="linear-gradient-3" y1="0.5" x2="1" y2="0.5" gradientUnits="objectBoundingBox">
      <stop offset="0" stop-color="#cacaca"/>
      <stop offset="0.236" stop-color="#d6d5d5"/>
      <stop offset="0.54" stop-color="#e2e1e1"/>
      <stop offset="0.726" stop-color="#dddcdc"/>
      <stop offset="0.933" stop-color="#cfcfcf"/>
      <stop offset="1" stop-color="#cacaca"/>
    </linearGradient>
    <radialGradient id="radial-gradient" cx="0.5" cy="0.5" r="2.604" gradientTransform="translate(0.39 0.002) scale(0.22 1.008)" gradientUnits="objectBoundingBox">
      <stop offset="0" stop-color="#fff"/>
      <stop offset="0.533" stop-color="#fdfdfd"/>
      <stop offset="0.725" stop-color="#f6f6f6"/>
      <stop offset="0.861" stop-color="#eaeaea"/>
      <stop offset="0.971" stop-color="#d9d9d9"/>
      <stop offset="1" stop-color="#d4d4d4"/>
    </radialGradient>
    <radialGradient id="radial-gradient-2" cx="0.5" cy="0.5" r="3.921" gradientTransform="translate(0.437 -0.811) scale(0.127 0.321)" gradientUnits="objectBoundingBox">
      <stop offset="0.361" stop-color="#e3e3e3"/>
      <stop offset="0.72" stop-color="#e1e1e1"/>
      <stop offset="0.849" stop-color="#dadada"/>
      <stop offset="0.941" stop-color="#cecece"/>
      <stop offset="1" stop-color="#c2c2c2"/>
    </radialGradient>
    <radialGradient id="radial-gradient-3" cx="0.5" cy="0.5" r="3.071" gradientTransform="translate(0.442) scale(0.116 1)" gradientUnits="objectBoundingBox">
      <stop offset="0" stop-color="#797979"/>
      <stop offset="0.259" stop-color="#6c6c6c"/>
      <stop offset="0.731" stop-color="#4c4b4b"/>
      <stop offset="1" stop-color="#373636"/>
    </radialGradient>
    <linearGradient id="linear-gradient-4" x1="0" y1="-8.239" x2="1" y2="-8.239" xlink:href="#linear-gradient-2"/>
    <radialGradient id="radial-gradient-4" cx="0.5" cy="0.5" r="2.42" gradientTransform="translate(0.368 -1.065) scale(0.264 0.409)" gradientUnits="objectBoundingBox">
      <stop offset="0" stop-color="#e3e3e3"/>
      <stop offset="0.413" stop-color="#e0e0e0"/>
      <stop offset="0.691" stop-color="#d7d7d7"/>
      <stop offset="0.928" stop-color="#c8c8c8"/>
      <stop offset="1" stop-color="#c2c2c2"/>
    </radialGradient>
    <filter id="Trazado_194536" x="23.677" y="32.838" width="95.519" height="90.563" filterUnits="userSpaceOnUse">
      <feOffset input="SourceAlpha"/>
      <feGaussianBlur stdDeviation="3" result="blur"/>
      <feFlood flood-color="#fff" flood-opacity="0.749"/>
      <feComposite operator="in" in2="blur"/>
      <feComposite in="SourceGraphic"/>
    </filter>
    <linearGradient id="linear-gradient-5" x1="0.5" y1="1" x2="0.5" gradientUnits="objectBoundingBox">
      <stop offset="0" stop-color="#fff" stop-opacity="0.502"/>
      <stop offset="1" stop-color="#fff"/>
    </linearGradient>
    <filter id="Trazado_194538" x="85.274" y="77.895" width="95.518" height="90.563" filterUnits="userSpaceOnUse">
      <feOffset input="SourceAlpha"/>
      <feGaussianBlur stdDeviation="3" result="blur-2"/>
      <feFlood flood-color="#fff" flood-opacity="0.749"/>
      <feComposite operator="in" in2="blur-2"/>
      <feComposite in="SourceGraphic"/>
    </filter>
    <linearGradient id="linear-gradient-6" x1="-110.885" y1="1" x2="-110.885" y2="0" xlink:href="#linear-gradient-5"/>
    <filter id="Rectángulo_294770" x="137.36" y="0" width="100.448" height="104.046" filterUnits="userSpaceOnUse">
      <feOffset input="SourceAlpha"/>
      <feGaussianBlur stdDeviation="3" result="blur-3"/>
      <feFlood flood-color="#fff" flood-opacity="0.749"/>
      <feComposite operator="in" in2="blur-3"/>
      <feComposite in="SourceGraphic"/>
    </filter>
    <linearGradient id="linear-gradient-7" x1="0.5" x2="0.5" y2="1" gradientUnits="objectBoundingBox">
      <stop offset="0" stop-color="#fff"/>
      <stop offset="1" stop-color="#fff" stop-opacity="0.502"/>
    </linearGradient>
    <filter id="Rectángulo_294771" x="193.902" y="81.636" width="95.64" height="99.027" filterUnits="userSpaceOnUse">
      <feOffset input="SourceAlpha"/>
      <feGaussianBlur stdDeviation="3" result="blur-4"/>
      <feFlood flood-color="#fff" flood-opacity="0.749"/>
      <feComposite operator="in" in2="blur-4"/>
      <feComposite in="SourceGraphic"/>
    </filter>
    <linearGradient id="linear-gradient-9" x1="-167.28" y1="1" x2="-167.28" y2="0" xlink:href="#linear-gradient-5"/>
    <linearGradient id="linear-gradient-11" x1="-112.242" y1="-41.848" x2="-112.242" y2="-42.848" xlink:href="#linear-gradient-7"/>
  </defs>
  <g id="_19" data-name="19" transform="translate(-1114.293 -10142.462)">
    <rect id="Rectángulo_294779" data-name="Rectángulo 294779" width="295" height="270" transform="translate(1125 10148.169)" fill="none" opacity="0.1"/>
    <g id="Grupo_131875" data-name="Grupo 131875" transform="translate(-4160.432 8437.697)">
      <g id="Grupo_131868" data-name="Grupo 131868" transform="translate(5291.432 1764.196)">
        <path id="Trazado_194529" data-name="Trazado 194529" d="M5574.432,2033.143h-283l41.046-77.5h200.908Z" transform="translate(-5291.433 -1831.049)" fill="#ececec" style="mix-blend-mode: multiply;isolation: isolate"/>
        <g id="Grupo_131867" data-name="Grupo 131867" transform="translate(12.611)">
          <g id="Grupo_131863" data-name="Grupo 131863" transform="translate(27.766)">
            <rect id="Rectángulo_294767" data-name="Rectángulo 294767" width="202.244" height="133.044" rx="8.024" fill="url(#linear-gradient)"/>
            <rect id="Rectángulo_294768" data-name="Rectángulo 294768" width="131.989" height="201.188" rx="7.294" transform="translate(201.716 0.528) rotate(90)" fill="url(#linear-gradient-2)"/>
          </g>
          <rect id="Rectángulo_294769" data-name="Rectángulo 294769" width="178.759" height="111.335" transform="translate(39.509 11.519)" fill="#b9ddfc"/>
          <g id="Grupo_131866" data-name="Grupo 131866" transform="translate(0 132.887)">
            <path id="Trazado_194530" data-name="Trazado 194530" d="M5560.392,2053.593H5315.137c-2.612,0-5.129-2.619-5.627-5.872l-.593-3.889h257.7l-.593,3.889C5565.521,2050.974,5563,2053.593,5560.392,2053.593Z" transform="translate(-5308.875 -1988.311)" fill="url(#linear-gradient-3)"/>
            <path id="Trazado_194531" data-name="Trazado 194531" d="M5562.992,2023.935H5312.506c-3.214,0-4.636-1.017-2.9-4.089l25.855-50.8a3.523,3.523,0,0,1,3.045-1.939h198.474a3.525,3.525,0,0,1,3.048,1.939l25.854,50.8C5567.626,2022.917,5566.205,2023.935,5562.992,2023.935Z" transform="translate(-5308.861 -1967.104)" fill="url(#radial-gradient)"/>
            <g id="Grupo_131865" data-name="Grupo 131865" transform="translate(21.799 3.297)">
              <path id="Trazado_194532" data-name="Trazado 194532" d="M5550.439,1998.82H5341.712c-1.809,0-3-.558-2.67-1.245l12.105-24.946c.26-.537,1.756-.969,3.343-.969h183.17c1.588,0,3.083.432,3.344.969l12.1,24.946C5553.441,1998.261,5552.246,1998.82,5550.439,1998.82Z" transform="translate(-5338.986 -1971.66)" fill="url(#radial-gradient-2)"/>
              <g id="Grupo_131864" data-name="Grupo 131864" transform="translate(7.239 1.3)">
                <path id="Trazado_194533" data-name="Trazado 194533" d="M5366.511,1975.356h-6.5c-.738,0-1.244-.2-1.129-.455l.271-.595c.113-.249.8-.45,1.531-.45h6.451c.733,0,1.246.2,1.144.45l-.244.595C5367.932,1975.152,5367.25,1975.356,5366.511,1975.356Zm13.694-1.5h-6.45c-.734,0-1.4.2-1.5.45l-.232.595c-.1.251.422.455,1.16.455h6.5c.739,0,1.407-.2,1.493-.455l.2-.595C5381.462,1974.057,5380.938,1973.856,5380.2,1973.856Zm13.069,0h-6.45c-.734,0-1.392.2-1.472.45l-.191.595c-.083.251.452.455,1.188.455h6.5c.739,0,1.393-.2,1.463-.455l.166-.595C5394.545,1974.057,5394.006,1973.856,5393.273,1973.856Zm13.067,0h-6.45c-.732,0-1.378.2-1.442.45l-.152.595c-.065.251.481.455,1.22.455h6.5c.737,0,1.379-.2,1.432-.455l.125-.595C5407.627,1974.057,5407.074,1973.856,5406.341,1973.856Zm13.07,0h-6.451c-.732,0-1.364.2-1.412.45l-.113.595c-.047.251.513.455,1.251.455h6.5c.739,0,1.367-.2,1.4-.455l.084-.595C5420.709,1974.057,5420.143,1973.856,5419.411,1973.856Zm13.068,0h-6.45c-.734,0-1.352.2-1.382.45l-.074.595c-.03.251.542.455,1.281.455h6.5c.737,0,1.352-.2,1.371-.455l.045-.595C5433.79,1974.057,5433.21,1973.856,5432.479,1973.856Zm13.069,0H5439.1c-.732,0-1.338.2-1.353.45l-.032.595c-.015.251.572.455,1.311.455h6.5c.739,0,1.34-.2,1.342-.455l.006-.595C5446.871,1974.057,5446.28,1973.856,5445.547,1973.856Zm13.068,0h-6.45c-.734,0-1.325.2-1.323.45l.007.595c0,.251.6.455,1.342.455h6.5c.738,0,1.326-.2,1.312-.455l-.034-.595C5459.953,1974.057,5459.349,1973.856,5458.615,1973.856Zm13.069,0h-6.451c-.732,0-1.311.2-1.291.45l.045.595c.018.251.632.455,1.373.455h6.5c.738,0,1.312-.2,1.281-.455l-.073-.595C5473.035,1974.057,5472.417,1973.856,5471.684,1973.856Zm13.068,0H5478.3c-.731,0-1.3.2-1.26.45l.084.595c.036.251.663.455,1.4.455h6.5c.739,0,1.3-.2,1.25-.455l-.113-.595C5486.117,1974.057,5485.485,1973.856,5484.752,1973.856Zm13.069,0h-6.45c-.734,0-1.285.2-1.234.45l.126.595c.053.251.7.455,1.433.455h6.5c.739,0,1.286-.2,1.222-.455l-.153-.595C5499.2,1974.057,5498.553,1973.856,5497.821,1973.856Zm13.068,0h-6.451c-.732,0-1.271.2-1.2.45l.164.595c.07.251.725.455,1.462.455h6.5c.738,0,1.271-.2,1.19-.455l-.191-.595C5512.281,1974.057,5511.622,1973.856,5510.89,1973.856Zm13.068,0h-6.452c-.73,0-1.256.2-1.171.45l.2.595c.086.251.755.455,1.494.455h6.5c.739,0,1.257-.2,1.159-.455l-.231-.595C5525.363,1974.057,5524.691,1973.856,5523.958,1973.856Zm13.07,0h-6.451c-.734,0-1.245.2-1.143.45l.243.595c.1.251.786.455,1.523.455h6.5c.738,0,1.244-.2,1.128-.455l-.271-.595C5538.445,1974.057,5537.758,1973.856,5537.027,1973.856Zm-171.2,2.382h-6.215c-.742,0-1.437.206-1.553.461l-.986,2.163c-.118.261.4.474,1.149.474h6.311c.752,0,1.451-.212,1.558-.474l.889-2.163C5367.088,1976.444,5366.573,1976.238,5365.832,1976.238Zm12.777,0h-6.216c-.743,0-1.423.206-1.522.461l-.848,2.163c-.1.261.425.474,1.177.474h6.313c.751,0,1.437-.212,1.527-.474l.75-2.163C5379.879,1976.444,5379.349,1976.238,5378.609,1976.238Zm12.774,0h-6.214c-.742,0-1.411.206-1.494.461l-.708,2.163c-.086.261.456.474,1.208.474h6.311c.754,0,1.424-.212,1.5-.474l.61-2.163C5392.668,1976.444,5392.125,1976.238,5391.383,1976.238Zm12.776,0h-6.213c-.743,0-1.4.206-1.464.461l-.569,2.163c-.069.261.486.474,1.239.474h6.313c.753,0,1.409-.212,1.467-.474l.471-2.163C5405.458,1976.444,5404.9,1976.238,5404.159,1976.238Zm12.778,0h-6.217c-.74,0-1.382.206-1.434.461l-.43,2.163c-.05.261.517.474,1.271.474h6.312c.753,0,1.4-.212,1.437-.474l.331-2.163C5418.247,1976.444,5417.678,1976.238,5416.937,1976.238Zm12.775,0H5423.5c-.741,0-1.37.206-1.406.461l-.289,2.163c-.036.261.546.474,1.3.474h6.312c.753,0,1.382-.212,1.406-.474l.193-2.163C5431.037,1976.444,5430.454,1976.238,5429.712,1976.238Zm12.777,0h-6.215c-.742,0-1.358.206-1.375.461l-.151,2.163c-.019.261.577.474,1.33.474h6.312c.753,0,1.369-.212,1.376-.474l.054-2.163C5443.826,1976.444,5443.23,1976.238,5442.49,1976.238Zm12.776,0h-6.216c-.742,0-1.343.206-1.344.461l-.013,2.163c0,.261.607.474,1.362.474h6.311c.753,0,1.356-.212,1.346-.474l-.086-2.163C5456.617,1976.444,5456.007,1976.238,5455.266,1976.238Zm12.776,0h-6.216c-.741,0-1.33.206-1.315.461l.126,2.163c.014.261.638.474,1.391.474h6.312c.753,0,1.343-.212,1.316-.474l-.224-2.163C5469.405,1976.444,5468.784,1976.238,5468.042,1976.238Zm12.775,0H5474.6c-.742,0-1.318.206-1.285.461l.265,2.163c.032.261.668.474,1.421.474h6.312c.753,0,1.328-.212,1.284-.474l-.362-2.163C5482.2,1976.444,5481.56,1976.238,5480.817,1976.238Zm12.777,0h-6.216c-.741,0-1.3.206-1.256.461l.405,2.163c.048.261.7.474,1.452.474h6.311c.754,0,1.314-.212,1.254-.474l-.5-2.163C5494.985,1976.444,5494.336,1976.238,5493.595,1976.238Zm12.775,0h-6.214c-.742,0-1.292.206-1.228.461l.545,2.163c.064.261.729.474,1.481.474h6.312c.753,0,1.3-.212,1.223-.474l-.641-2.163C5507.774,1976.444,5507.112,1976.238,5506.37,1976.238Zm12.778,0h-6.217c-.741,0-1.277.206-1.2.461l.682,2.163c.083.261.76.474,1.514.474h6.312c.752,0,1.287-.212,1.192-.474l-.779-2.163C5520.563,1976.444,5519.889,1976.238,5519.148,1976.238Zm18.947,0h-12.387c-.741,0-1.264.206-1.168.461l.822,2.163c.1.261.79.474,1.543.474h12.581c.754,0,1.268-.212,1.148-.474l-.986-2.163C5539.533,1976.444,5538.838,1976.238,5538.1,1976.238Zm-3.19,7.24h6.442c.769,0,1.291-.221,1.167-.493l-1.025-2.252c-.122-.266-.833-.48-1.589-.48h-6.341c-.757,0-1.282.214-1.172.48l.925,2.252C5533.423,1983.257,5534.138,1983.479,5534.9,1983.479Zm-13.241,0h6.441c.768,0,1.3-.221,1.2-.493l-.881-2.252c-.1-.266-.8-.48-1.557-.48h-6.342c-.755,0-1.293.214-1.2.48l.781,2.252C5520.195,1983.257,5520.895,1983.479,5521.664,1983.479Zm-13.242,0h6.442c.768,0,1.317-.221,1.229-.493l-.738-2.252c-.086-.266-.768-.48-1.526-.48h-6.341c-.756,0-1.307.214-1.233.48l.635,2.252C5506.968,1983.257,5507.654,1983.479,5508.422,1983.479Zm-13.242,0h6.442c.768,0,1.333-.221,1.262-.493l-.591-2.252c-.071-.266-.74-.48-1.5-.48h-6.34c-.756,0-1.323.214-1.264.48l.491,2.252C5493.739,1983.257,5494.412,1983.479,5495.18,1983.479Zm-13.241,0h6.441c.768,0,1.348-.221,1.294-.493l-.447-2.252c-.053-.266-.708-.48-1.466-.48h-6.339c-.757,0-1.338.214-1.3.48l.346,2.252C5480.514,1983.257,5481.171,1983.479,5481.939,1983.479Zm-13.243,0h6.441c.77,0,1.363-.221,1.326-.493l-.3-2.252c-.035-.266-.678-.48-1.434-.48h-6.339c-.759,0-1.353.214-1.328.48l.2,2.252C5467.284,1983.257,5467.929,1983.479,5468.7,1983.479Zm-13.241,0h6.44c.769,0,1.377-.221,1.357-.493l-.159-2.252c-.018-.266-.647-.48-1.4-.48h-6.34c-.758,0-1.365.214-1.359.48l.058,2.252C5454.057,1983.257,5454.686,1983.479,5455.456,1983.479Zm-13.242,0h6.44c.77,0,1.391-.221,1.39-.493l-.013-2.252c0-.266-.617-.48-1.373-.48h-6.341c-.757,0-1.378.214-1.389.48l-.088,2.252C5440.831,1983.257,5441.444,1983.479,5442.213,1983.479Zm-13.242,0h6.442c.768,0,1.4-.221,1.419-.493l.132-2.252c.015-.266-.585-.48-1.342-.48h-6.34c-.757,0-1.393.214-1.42.48l-.232,2.252C5427.6,1983.257,5428.2,1983.479,5428.971,1983.479Zm-13.241,0h6.442c.768,0,1.417-.221,1.452-.493l.277-2.252c.031-.266-.554-.48-1.312-.48h-6.341c-.756,0-1.406.214-1.451.48l-.376,2.252C5414.375,1983.257,5414.963,1983.479,5415.73,1983.479Zm-13.242,0h6.441c.77,0,1.434-.221,1.485-.493l.421-2.252c.048-.266-.524-.48-1.281-.48h-6.341c-.755,0-1.417.214-1.48.48l-.522,2.252C5401.147,1983.257,5401.72,1983.479,5402.488,1983.479Zm-13.24,0h6.44c.769,0,1.447-.221,1.515-.493l.568-2.252c.065-.266-.494-.48-1.25-.48h-6.341c-.755,0-1.432.214-1.511.48l-.667,2.252C5387.92,1983.257,5388.478,1983.479,5389.248,1983.479Zm-13.243,0h6.44c.769,0,1.461-.221,1.547-.493l.711-2.252c.084-.266-.462-.48-1.219-.48h-6.34c-.755,0-1.446.214-1.542.48l-.812,2.252C5374.694,1983.257,5375.236,1983.479,5376.005,1983.479Zm-19.64,0h12.839c.767,0,1.475-.221,1.578-.493l.855-2.252c.1-.266-.43-.48-1.187-.48h-12.639c-.754,0-1.467.214-1.587.48l-1.026,2.252C5355.073,1983.257,5355.6,1983.479,5356.366,1983.479Zm156.862,4.316h6.576c.785,0,1.341-.23,1.244-.514l-.807-2.346c-.1-.276-.8-.5-1.571-.5h-6.47c-.773,0-1.331.224-1.25.5l.7,2.346C5511.736,1987.565,5512.442,1987.795,5513.228,1987.795Zm-13.532,0h6.577c.784,0,1.356-.23,1.277-.514l-.657-2.346c-.079-.276-.766-.5-1.539-.5h-6.47c-.772,0-1.346.224-1.281.5l.551,2.346C5498.22,1987.565,5498.91,1987.795,5499.7,1987.795Zm-13.532,0h6.577c.785,0,1.37-.23,1.31-.514l-.506-2.346c-.06-.276-.733-.5-1.505-.5h-6.47c-.773,0-1.361.224-1.314.5l.4,2.346C5484.7,1987.565,5485.379,1987.795,5486.163,1987.795Zm-13.531,0h6.576c.785,0,1.387-.23,1.343-.514l-.354-2.346c-.042-.276-.7-.5-1.474-.5h-6.471c-.772,0-1.375.224-1.344.5l.25,2.346C5471.186,1987.565,5471.846,1987.795,5472.632,1987.795Zm-13.533,0h6.577c.785,0,1.4-.23,1.377-.514l-.2-2.346c-.024-.276-.67-.5-1.442-.5h-6.471c-.772,0-1.388.224-1.377.5l.1,2.346C5457.669,1987.565,5458.314,1987.795,5459.1,1987.795Zm-13.532,0h6.578c.783,0,1.414-.23,1.408-.514l-.052-2.346c-.007-.276-.637-.5-1.41-.5h-6.472c-.772,0-1.4.224-1.407.5l-.054,2.346C5444.152,1987.565,5444.783,1987.795,5445.567,1987.795Zm-13.532,0h6.576c.786,0,1.431-.23,1.444-.514l.1-2.346c.011-.276-.606-.5-1.378-.5H5432.3c-.772,0-1.417.224-1.441.5l-.2,2.346C5430.635,1987.565,5431.251,1987.795,5432.036,1987.795Zm-13.531,0h6.576c.784,0,1.446-.23,1.477-.514l.248-2.346c.029-.276-.573-.5-1.345-.5h-6.472c-.772,0-1.432.224-1.474.5l-.354,2.346C5417.118,1987.565,5417.72,1987.795,5418.5,1987.795Zm-13.533,0h6.577c.784,0,1.459-.23,1.508-.514l.4-2.346c.048-.276-.54-.5-1.312-.5h-6.472c-.772,0-1.445.224-1.5.5l-.505,2.346C5403.6,1987.565,5404.188,1987.795,5404.972,1987.795Zm-13.532,0h6.577c.784,0,1.475-.23,1.542-.514l.552-2.346c.065-.276-.509-.5-1.281-.5h-6.471c-.771,0-1.461.224-1.538.5l-.657,2.346C5390.084,1987.565,5390.655,1987.795,5391.44,1987.795Zm-13.531,0h6.576c.786,0,1.49-.23,1.575-.514l.7-2.346c.083-.276-.476-.5-1.248-.5h-6.471c-.772,0-1.476.224-1.57.5l-.808,2.346C5376.566,1987.565,5377.124,1987.795,5377.909,1987.795Zm-23.482,0h16.526c.785,0,1.506-.23,1.606-.514l.854-2.346c.1-.276-.444-.5-1.215-.5h-16.263c-.772,0-1.5.224-1.625.5l-1.069,2.346C5353.112,1987.565,5353.643,1987.795,5354.427,1987.795Zm172.332,0h16.526c.784,0,1.315-.23,1.187-.514l-1.068-2.346c-.127-.276-.855-.5-1.627-.5h-16.263c-.771,0-1.316.224-1.215.5l.853,2.346C5525.253,1987.565,5525.973,1987.795,5526.759,1987.795Zm-19,4.5h6.716c.8,0,1.377-.24,1.285-.536l-.766-2.448c-.09-.288-.8-.521-1.59-.521H5506.8c-.789,0-1.365.233-1.288.521l.654,2.448C5506.245,1992.056,5506.957,1992.3,5507.76,1992.3Zm-13.837,0h6.718c.8,0,1.391-.24,1.319-.536l-.607-2.448c-.07-.288-.768-.521-1.558-.521h-6.607c-.788,0-1.379.233-1.321.521l.5,2.448C5492.423,1992.056,5493.123,1992.3,5493.923,1992.3Zm-13.835,0h6.718c.8,0,1.406-.24,1.352-.536l-.449-2.448c-.053-.288-.734-.521-1.524-.521h-6.606c-.788,0-1.4.233-1.356.521l.339,2.448C5478.6,1992.056,5479.287,1992.3,5480.087,1992.3Zm-13.835,0h6.716c.8,0,1.424-.24,1.388-.536l-.291-2.448c-.035-.288-.7-.521-1.491-.521h-6.607c-.788,0-1.409.233-1.388.521l.18,2.448C5464.782,1992.056,5465.45,1992.3,5466.252,1992.3Zm-13.836,0h6.715c.8,0,1.439-.24,1.423-.536l-.134-2.448c-.015-.288-.668-.521-1.456-.521h-6.606c-.79,0-1.426.233-1.424.521l.024,2.448C5450.962,1992.056,5451.614,1992.3,5452.416,1992.3Zm-13.836,0h6.717c.8,0,1.453-.24,1.455-.536l.025-2.448c0-.288-.635-.521-1.422-.521h-6.606c-.79,0-1.441.233-1.457.521l-.133,2.448C5437.141,1992.056,5437.777,1992.3,5438.58,1992.3Zm-13.837,0h6.718c.8,0,1.469-.24,1.491-.536l.181-2.448c.021-.288-.6-.521-1.389-.521h-6.606c-.79,0-1.456.233-1.491.521l-.291,2.448C5423.32,1992.056,5423.942,1992.3,5424.743,1992.3Zm-13.835,0h6.717c.8,0,1.484-.24,1.525-.536l.34-2.448c.039-.288-.568-.521-1.355-.521h-6.607c-.789,0-1.47.233-1.523.521l-.45,2.448C5409.5,1992.056,5410.106,1992.3,5410.907,1992.3Zm-13.835,0h6.716c.8,0,1.5-.24,1.559-.536l.5-2.448c.059-.288-.533-.521-1.322-.521h-6.608c-.788,0-1.485.233-1.556.521l-.606,2.448C5395.681,1992.056,5396.27,1992.3,5397.072,1992.3Zm-13.836,0h6.716c.8,0,1.516-.24,1.595-.536l.656-2.448c.077-.288-.5-.521-1.289-.521h-6.608c-.787,0-1.5.233-1.59.521l-.763,2.448C5381.86,1992.056,5382.433,1992.3,5383.236,1992.3Zm-30.83,0h23.711c.8,0,1.531-.24,1.629-.536l.812-2.448c.1-.288-.466-.521-1.253-.521H5353.98c-.79,0-1.535.233-1.666.521l-1.116,2.448C5351.064,1992.056,5351.605,1992.3,5352.406,1992.3Zm169.19,0h23.711c.8,0,1.341-.24,1.206-.536l-1.116-2.448c-.13-.288-.876-.521-1.664-.521h-23.324c-.788,0-1.349.233-1.254.521l.813,2.448C5520.064,1992.056,5520.793,1992.3,5521.6,1992.3Zm-9.317,4.7h7.187c.82,0,1.4-.251,1.3-.56l-.241-.731c-.1-.306-.84-.553-1.653-.553h-7.125c-.812,0-1.4.247-1.314.553l.206.731C5510.725,1996.743,5511.459,1996.994,5512.279,1996.994Zm13.975,0h7.188c.818,0,1.383-.251,1.263-.559l-1-2.555c-.119-.3-.866-.544-1.672-.544h-7.068c-.8,0-1.374.243-1.27.544l.885,2.555C5524.685,1996.743,5525.434,1996.994,5526.253,1996.994Zm13.974,0h7.187c.819,0,1.37-.251,1.228-.56l-.334-.731c-.138-.306-.91-.553-1.721-.553h-7.127c-.813,0-1.371.247-1.244.553l.3.731C5538.642,1996.743,5539.408,1996.994,5540.228,1996.994Zm-42.091,0H5505c.819,0,1.417-.251,1.335-.559l-.671-2.555c-.079-.3-.795-.544-1.6-.544h-6.749c-.806,0-1.405.243-1.34.544l.557,2.555C5496.6,1996.743,5497.316,1996.994,5498.136,1996.994Zm-88.97-3.115-.468,2.555c-.057.308.561.559,1.38.559H5473.5c.82,0,1.454-.251,1.417-.559l-.3-2.555c-.035-.3-.717-.544-1.523-.544h-62.36C5409.919,1993.335,5409.222,1993.579,5409.166,1993.88Zm-16.453,3.115h10.09c.818,0,1.534-.251,1.6-.559l.519-2.555c.061-.3-.542-.544-1.348-.544h-9.922c-.806,0-1.522.243-1.6.544l-.672,2.555C5391.3,1996.743,5391.893,1996.994,5392.713,1996.994Zm-14.139,0h6.864c.819,0,1.554-.251,1.64-.559l.721-2.555c.085-.3-.5-.544-1.3-.544h-6.75c-.806,0-1.538.243-1.637.544l-.834,2.555C5377.174,1996.743,5377.756,1996.994,5378.574,1996.994Zm102.2,0h10.09c.819,0,1.434-.251,1.372-.559l-.505-2.555c-.061-.3-.761-.544-1.566-.544h-9.922c-.807,0-1.424.243-1.383.544l.355,2.555C5479.252,1996.743,5479.952,1996.994,5480.77,1996.994Zm-116.334,0h6.864c.819,0,1.569-.251,1.678-.559l.883-2.555c.1-.3-.463-.544-1.269-.544h-6.75c-.806,0-1.553.243-1.67.544l-1,2.555C5363.05,1996.743,5363.616,1996.994,5364.436,1996.994Zm-14.139,0h6.864c.82,0,1.586-.251,1.713-.559l1.05-2.555c.123-.3-.43-.544-1.235-.544h-6.75c-.805,0-1.57.243-1.706.544l-1.165,2.555C5348.928,1996.743,5349.478,1996.994,5350.3,1996.994Z" transform="translate(-5349.006 -1973.567)" fill="url(#radial-gradient-3)"/>
                <path id="Trazado_194534" data-name="Trazado 194534" d="M5366.461,1974.959h-6.5c-.739,0-1.243-.2-1.13-.456l.27-.595c.114-.249.8-.451,1.533-.451h6.454c.734,0,1.244.2,1.142.451l-.244.595C5367.88,1974.755,5367.2,1974.959,5366.461,1974.959Zm13.7-1.5h-6.454c-.732,0-1.4.2-1.5.451l-.23.595c-.1.252.421.456,1.159.456h6.505c.736,0,1.4-.2,1.492-.456l.2-.595C5381.416,1973.658,5380.893,1973.457,5380.159,1973.457Zm13.072,0h-6.45c-.735,0-1.393.2-1.474.451l-.192.595c-.081.252.451.456,1.19.456h6.5c.74,0,1.4-.2,1.462-.456l.167-.595C5394.506,1973.658,5393.966,1973.457,5393.231,1973.457Zm13.075,0h-6.453c-.732,0-1.377.2-1.443.451l-.152.595c-.064.252.482.456,1.222.456h6.5c.739,0,1.382-.2,1.434-.456l.125-.595C5407.592,1973.658,5407.039,1973.457,5406.306,1973.457Zm13.074,0h-6.452c-.732,0-1.366.2-1.413.451l-.114.595c-.045.252.514.456,1.252.456h6.5c.739,0,1.366-.2,1.4-.456l.085-.595C5420.681,1973.658,5420.113,1973.457,5419.38,1973.457Zm13.076,0H5426c-.735,0-1.354.2-1.384.451l-.075.595c-.029.252.543.456,1.282.456h6.5c.738,0,1.352-.2,1.372-.456l.046-.595C5433.767,1973.658,5433.189,1973.457,5432.456,1973.457Zm13.073,0h-6.452c-.735,0-1.34.2-1.355.451l-.032.595c-.015.252.572.456,1.31.456h6.5c.74,0,1.339-.2,1.343-.456l.006-.595C5446.854,1973.658,5446.263,1973.457,5445.529,1973.457Zm13.074,0h-6.452c-.733,0-1.326.2-1.321.451l0,.595c0,.252.6.456,1.341.456h6.5c.738,0,1.326-.2,1.312-.456l-.034-.595C5459.942,1973.658,5459.336,1973.457,5458.6,1973.457Zm13.076,0h-6.454c-.733,0-1.312.2-1.292.451l.044.595c.021.252.634.456,1.374.456h6.5c.74,0,1.313-.2,1.282-.456l-.073-.595C5473.029,1973.658,5472.41,1973.457,5471.678,1973.457Zm13.073,0H5478.3c-.733,0-1.3.2-1.263.451l.086.595c.036.252.663.456,1.4.456h6.5c.738,0,1.3-.2,1.25-.456l-.112-.595C5486.116,1973.658,5485.483,1973.457,5484.751,1973.457Zm13.073,0h-6.452c-.733,0-1.286.2-1.233.451l.125.595c.052.252.695.456,1.432.456h6.5c.739,0,1.284-.2,1.221-.456l-.153-.595C5499.2,1973.658,5498.559,1973.457,5497.824,1973.457Zm13.075,0h-6.453c-.732,0-1.272.2-1.2.451l.162.595c.069.252.725.456,1.463.456h6.5c.74,0,1.273-.2,1.192-.456l-.193-.595C5512.291,1973.658,5511.632,1973.457,5510.9,1973.457Zm13.074,0h-6.453c-.733,0-1.258.2-1.174.451l.205.595c.084.252.754.456,1.494.456h6.5c.739,0,1.257-.2,1.16-.456l-.231-.595C5525.379,1973.658,5524.706,1973.457,5523.973,1973.457Zm13.075,0h-6.453c-.732,0-1.246.2-1.144.451l.243.595c.1.252.787.456,1.527.456h6.5c.741,0,1.245-.2,1.13-.456l-.269-.595C5538.465,1973.658,5537.781,1973.457,5537.048,1973.457Zm-171.27,2.384h-6.217c-.74,0-1.437.207-1.553.462l-.987,2.165c-.118.261.4.474,1.149.474h6.313c.754,0,1.452-.213,1.559-.474l.89-2.165C5367.039,1976.048,5366.521,1975.841,5365.778,1975.841Zm12.783,0h-6.219c-.74,0-1.423.207-1.522.462l-.848,2.165c-.1.261.427.474,1.181.474h6.312c.755,0,1.439-.213,1.529-.474l.75-2.165C5379.832,1976.048,5379.3,1975.841,5378.561,1975.841Zm12.781,0h-6.217c-.743,0-1.411.207-1.5.462l-.706,2.165c-.087.261.456.474,1.209.474h6.315c.752,0,1.423-.213,1.5-.474l.61-2.165C5392.627,1976.048,5392.085,1975.841,5391.342,1975.841Zm12.782,0h-6.218c-.741,0-1.4.207-1.464.462l-.569,2.165c-.068.261.485.474,1.24.474h6.314c.753,0,1.411-.213,1.468-.474l.471-2.165C5405.422,1976.048,5404.866,1975.841,5404.125,1975.841Zm12.781,0h-6.218c-.741,0-1.384.207-1.434.462l-.43,2.165c-.054.261.517.474,1.27.474h6.314c.751,0,1.4-.213,1.436-.474l.333-2.165C5418.218,1976.048,5417.649,1975.841,5416.906,1975.841Zm12.781,0h-6.217c-.742,0-1.372.207-1.4.462l-.291,2.165c-.037.261.545.474,1.3.474h6.313c.752,0,1.384-.213,1.406-.474l.194-2.165C5431.012,1976.048,5430.431,1975.841,5429.687,1975.841Zm12.783,0h-6.217c-.743,0-1.359.207-1.377.462l-.151,2.165c-.017.261.578.474,1.33.474h6.315c.753,0,1.369-.213,1.378-.474l.053-2.165C5443.807,1976.048,5443.213,1975.841,5442.47,1975.841Zm12.781,0h-6.219c-.741,0-1.343.207-1.345.462l-.012,2.165c0,.261.608.474,1.361.474h6.315c.752,0,1.356-.213,1.346-.474l-.084-2.165C5456.6,1976.048,5455.994,1975.841,5455.251,1975.841Zm12.782,0h-6.219c-.742,0-1.33.207-1.314.462l.125,2.165c.015.261.64.474,1.394.474h6.313c.752,0,1.343-.213,1.313-.474l-.222-2.165C5469.4,1976.048,5468.774,1975.841,5468.034,1975.841Zm12.78,0H5474.6c-.744,0-1.319.207-1.288.462l.266,2.165c.032.261.669.474,1.424.474h6.313c.753,0,1.33-.213,1.285-.474l-.362-2.165C5482.194,1976.048,5481.557,1975.841,5480.814,1975.841Zm12.781,0h-6.216c-.744,0-1.3.207-1.257.462l.406,2.165c.048.261.7.474,1.451.474h6.313c.755,0,1.318-.213,1.255-.474l-.5-2.165C5494.987,1976.048,5494.338,1975.841,5493.6,1975.841Zm12.783,0h-6.217c-.743,0-1.292.207-1.228.462l.543,2.165c.066.261.73.474,1.483.474h6.316c.754,0,1.3-.213,1.222-.474l-.639-2.165C5507.783,1976.048,5507.121,1975.841,5506.378,1975.841Zm12.782,0h-6.22c-.742,0-1.276.207-1.194.462l.681,2.165c.083.261.761.474,1.513.474h6.316c.752,0,1.286-.213,1.193-.474l-.78-2.165C5520.577,1976.048,5519.9,1975.841,5519.161,1975.841Zm18.956,0h-12.393c-.742,0-1.265.207-1.167.462l.822,2.165c.1.261.79.474,1.545.474h12.583c.754,0,1.269-.213,1.149-.474l-.986-2.165C5539.554,1976.048,5538.86,1975.841,5538.117,1975.841Zm-3.192,7.247h6.445c.769,0,1.29-.222,1.167-.494l-1.027-2.254c-.12-.265-.831-.48-1.59-.48h-6.34c-.758,0-1.284.215-1.176.48l.927,2.254C5533.441,1982.866,5534.157,1983.088,5534.925,1983.088Zm-13.246,0h6.442c.769,0,1.305-.222,1.2-.494l-.881-2.254c-.106-.265-.8-.48-1.559-.48h-6.343c-.756,0-1.3.215-1.205.48l.781,2.254C5520.208,1982.866,5520.908,1983.088,5521.679,1983.088Zm-13.249,0h6.445c.768,0,1.32-.222,1.23-.494l-.737-2.254c-.086-.265-.771-.48-1.528-.48H5507.5c-.757,0-1.31.215-1.232.48l.633,2.254C5506.977,1982.866,5507.661,1983.088,5508.43,1983.088Zm-13.246,0h6.444c.768,0,1.333-.222,1.262-.494l-.592-2.254c-.071-.265-.74-.48-1.5-.48h-6.344c-.755,0-1.322.215-1.264.48l.491,2.254C5493.744,1982.866,5494.415,1983.088,5495.184,1983.088Zm-13.249,0h6.444c.77,0,1.348-.222,1.294-.494l-.447-2.254c-.054-.265-.708-.48-1.466-.48h-6.343c-.755,0-1.338.215-1.3.48l.347,2.254C5480.509,1982.866,5481.166,1983.088,5481.936,1983.088Zm-13.247,0h6.444c.769,0,1.363-.222,1.327-.494l-.3-2.254c-.035-.265-.678-.48-1.434-.48h-6.344c-.757,0-1.351.215-1.326.48l.2,2.254C5467.277,1982.866,5467.919,1983.088,5468.688,1983.088Zm-13.248,0h6.444c.769,0,1.377-.222,1.357-.494l-.158-2.254c-.017-.265-.646-.48-1.4-.48h-6.344c-.757,0-1.364.215-1.358.48l.057,2.254C5454.044,1982.866,5454.673,1983.088,5455.441,1983.088Zm-13.247,0h6.443c.77,0,1.392-.222,1.39-.494l-.012-2.254c0-.265-.617-.48-1.374-.48H5442.3c-.758,0-1.381.215-1.39.48l-.087,2.254C5440.81,1982.866,5441.426,1983.088,5442.194,1983.088Zm-13.246,0h6.443c.77,0,1.405-.222,1.422-.494l.131-2.254c.017-.265-.585-.48-1.343-.48h-6.343c-.758,0-1.392.215-1.418.48l-.234,2.254C5427.577,1982.866,5428.179,1983.088,5428.948,1983.088Zm-13.249,0h6.443c.77,0,1.418-.222,1.453-.494l.277-2.254c.033-.265-.555-.48-1.312-.48h-6.343c-.757,0-1.406.215-1.45.48l-.379,2.254C5414.345,1982.866,5414.931,1983.088,5415.7,1983.088Zm-13.247,0h6.444c.769,0,1.434-.222,1.484-.494l.422-2.254c.048-.265-.525-.48-1.283-.48h-6.341c-.759,0-1.421.215-1.482.48l-.523,2.254C5401.111,1982.866,5401.683,1983.088,5402.452,1983.088Zm-13.247,0h6.444c.769,0,1.448-.222,1.515-.494l.568-2.254c.066-.265-.493-.48-1.251-.48h-6.342c-.757,0-1.434.215-1.513.48l-.667,2.254C5387.878,1982.866,5388.435,1983.088,5389.205,1983.088Zm-13.247,0h6.442c.769,0,1.463-.222,1.548-.494l.712-2.254c.083-.265-.462-.48-1.218-.48H5377.1c-.755,0-1.447.215-1.543.48l-.811,2.254C5374.645,1982.866,5375.188,1983.088,5375.958,1983.088Zm-19.648,0h12.843c.769,0,1.478-.222,1.58-.494l.857-2.254c.1-.265-.431-.48-1.191-.48h-12.643c-.755,0-1.468.215-1.589.48l-1.025,2.254C5355.016,1982.866,5355.541,1983.088,5356.31,1983.088Zm156.927,4.32h6.579c.785,0,1.342-.23,1.245-.515l-.808-2.347c-.1-.277-.8-.5-1.571-.5h-6.475c-.773,0-1.332.224-1.247.5l.7,2.347C5511.748,1987.178,5512.452,1987.408,5513.237,1987.408Zm-13.538,0h6.58c.783,0,1.355-.23,1.278-.515l-.657-2.347c-.079-.277-.766-.5-1.54-.5h-6.474c-.772,0-1.345.224-1.281.5l.552,2.347C5498.225,1987.178,5498.914,1987.408,5499.7,1987.408Zm-13.537,0h6.58c.784,0,1.369-.23,1.308-.515l-.506-2.347c-.056-.277-.731-.5-1.5-.5h-6.474c-.774,0-1.36.224-1.313.5l.4,2.347C5484.7,1987.178,5485.377,1987.408,5486.163,1987.408Zm-13.538,0h6.579c.785,0,1.386-.23,1.344-.515l-.356-2.347c-.041-.277-.7-.5-1.473-.5h-6.474c-.772,0-1.376.224-1.346.5l.251,2.347C5471.179,1987.178,5471.84,1987.408,5472.625,1987.408Zm-13.538,0h6.58c.786,0,1.4-.23,1.377-.515l-.2-2.347c-.025-.277-.669-.5-1.443-.5h-6.472c-.772,0-1.39.224-1.379.5l.1,2.347C5457.656,1987.178,5458.3,1987.408,5459.087,1987.408Zm-13.537,0h6.579c.784,0,1.417-.23,1.41-.515l-.052-2.347c-.008-.277-.638-.5-1.411-.5H5445.6c-.772,0-1.4.224-1.409.5l-.053,2.347C5444.135,1987.178,5444.766,1987.408,5445.55,1987.408Zm-13.537,0h6.579c.784,0,1.43-.23,1.443-.515l.1-2.347c.011-.277-.6-.5-1.377-.5h-6.474c-.774,0-1.417.224-1.442.5l-.2,2.347C5430.61,1987.178,5431.228,1987.408,5432.013,1987.408Zm-13.539,0h6.58c.785,0,1.446-.23,1.476-.515l.249-2.347c.031-.277-.572-.5-1.344-.5h-6.474c-.772,0-1.434.224-1.475.5l-.355,2.347C5417.089,1987.178,5417.689,1987.408,5418.474,1987.408Zm-13.537,0h6.58c.783,0,1.459-.23,1.508-.515l.4-2.347c.047-.277-.543-.5-1.313-.5h-6.476c-.77,0-1.446.224-1.507.5l-.5,2.347C5403.566,1987.178,5404.152,1987.408,5404.938,1987.408Zm-13.537,0h6.58c.783,0,1.474-.23,1.54-.515l.552-2.347c.067-.277-.509-.5-1.281-.5h-6.474c-.772,0-1.459.224-1.538.5l-.658,2.347C5390.043,1987.178,5390.615,1987.408,5391.4,1987.408Zm-13.539,0h6.579c.786,0,1.491-.23,1.576-.515l.7-2.347c.083-.277-.477-.5-1.249-.5H5379c-.772,0-1.476.224-1.571.5l-.807,2.347C5376.52,1987.178,5377.079,1987.408,5377.862,1987.408Zm-23.49,0H5370.9c.787,0,1.506-.23,1.608-.515l.854-2.347c.1-.277-.443-.5-1.215-.5h-16.27c-.772,0-1.5.224-1.625.5l-1.07,2.347C5353.054,1987.178,5353.586,1987.408,5354.372,1987.408Zm172.4,0h16.532c.786,0,1.319-.23,1.188-.515l-1.07-2.347c-.128-.277-.854-.5-1.628-.5h-16.27c-.77,0-1.316.224-1.216.5l.854,2.347C5525.27,1987.178,5525.991,1987.408,5526.775,1987.408Zm-19.008,4.505h6.721c.8,0,1.376-.24,1.284-.536l-.764-2.449c-.092-.289-.8-.522-1.592-.522H5506.8c-.788,0-1.365.234-1.288.522l.655,2.449C5506.252,1991.672,5506.965,1991.913,5507.767,1991.913Zm-13.842,0h6.72c.8,0,1.393-.24,1.319-.536l-.606-2.449c-.073-.289-.769-.522-1.558-.522h-6.609c-.791,0-1.382.234-1.324.522l.5,2.449C5492.425,1991.672,5493.124,1991.913,5493.925,1991.913Zm-13.843,0h6.722c.8,0,1.407-.24,1.352-.536l-.448-2.449c-.053-.289-.734-.522-1.524-.522h-6.61c-.788,0-1.4.234-1.355.522l.34,2.449C5478.6,1991.672,5479.281,1991.913,5480.083,1991.913Zm-13.841,0h6.721c.8,0,1.422-.24,1.389-.536l-.293-2.449c-.035-.289-.7-.522-1.49-.522h-6.609c-.791,0-1.412.234-1.39.522l.181,2.449C5464.772,1991.672,5465.44,1991.913,5466.242,1991.913Zm-13.841,0h6.72c.8,0,1.44-.24,1.421-.536l-.131-2.449c-.018-.289-.67-.522-1.458-.522h-6.61c-.787,0-1.426.234-1.423.522l.026,2.449C5450.946,1991.672,5451.6,1991.913,5452.4,1991.913Zm-13.843,0h6.721c.8,0,1.453-.24,1.457-.536l.022-2.449c0-.289-.632-.522-1.422-.522h-6.61c-.789,0-1.438.234-1.454.522l-.136,2.449C5437.119,1991.672,5437.757,1991.913,5438.558,1991.913Zm-13.841,0h6.721c.8,0,1.467-.24,1.491-.536l.182-2.449c.021-.289-.6-.522-1.39-.522h-6.609c-.79,0-1.458.234-1.491.522l-.29,2.449C5423.293,1991.672,5423.916,1991.913,5424.717,1991.913Zm-13.84,0h6.718c.8,0,1.484-.24,1.527-.536l.339-2.449c.04-.289-.567-.522-1.357-.522h-6.61c-.788,0-1.472.234-1.523.522l-.449,2.449C5409.466,1991.672,5410.073,1991.913,5410.877,1991.913Zm-13.844,0h6.722c.8,0,1.5-.24,1.561-.536l.5-2.449c.059-.289-.534-.522-1.322-.522h-6.61c-.789,0-1.487.234-1.556.522l-.607,2.449C5395.642,1991.672,5396.232,1991.913,5397.033,1991.913Zm-13.842,0h6.721c.8,0,1.517-.24,1.595-.536l.655-2.449c.079-.289-.5-.522-1.289-.522h-6.61c-.787,0-1.5.234-1.591.522l-.763,2.449C5381.816,1991.672,5382.39,1991.913,5383.191,1991.913Zm-30.842,0h23.722c.8,0,1.531-.24,1.628-.536l.813-2.449c.094-.289-.466-.522-1.255-.522h-23.333c-.789,0-1.535.234-1.665.522l-1.117,2.449C5351.007,1991.672,5351.546,1991.913,5352.349,1991.913Zm169.26,0h23.721c.8,0,1.343-.24,1.208-.536l-1.117-2.449c-.131-.289-.876-.522-1.665-.522h-23.333c-.79,0-1.351.234-1.257.522l.813,2.449C5520.076,1991.672,5520.808,1991.913,5521.609,1991.913Zm-9.32,4.7h7.19c.818,0,1.4-.251,1.3-.56l-.24-.733c-.1-.306-.84-.553-1.654-.553h-7.129c-.812,0-1.4.247-1.314.553l.206.733C5510.735,1996.363,5511.47,1996.615,5512.289,1996.615Zm13.98,0h7.189c.819,0,1.385-.251,1.265-.56l-1-2.558c-.118-.3-.867-.544-1.672-.544h-7.07c-.807,0-1.376.243-1.271.544l.883,2.558C5524.7,1996.363,5525.45,1996.615,5526.27,1996.615Zm13.979,0h7.19c.819,0,1.369-.251,1.229-.56l-.334-.733c-.139-.306-.911-.553-1.724-.553h-7.128c-.812,0-1.371.247-1.245.553l.3.733C5538.662,1996.363,5539.428,1996.615,5540.249,1996.615Zm-42.11,0h6.868c.819,0,1.417-.251,1.336-.56l-.67-2.558c-.08-.3-.8-.544-1.6-.544h-6.751c-.807,0-1.408.243-1.341.544l.558,2.558C5496.6,1996.363,5497.321,1996.615,5498.139,1996.615Zm-89.005-3.118-.47,2.558c-.057.309.562.56,1.382.56h63.445c.818,0,1.452-.251,1.415-.56l-.3-2.558c-.037-.3-.719-.544-1.525-.544h-62.384C5409.887,1992.953,5409.189,1993.2,5409.134,1993.5Zm-16.461,3.118h10.095c.82,0,1.535-.251,1.6-.56l.517-2.558c.063-.3-.542-.544-1.347-.544h-9.927c-.8,0-1.521.243-1.6.544l-.673,2.558C5391.255,1996.363,5391.854,1996.615,5392.672,1996.615Zm-14.142,0h6.863c.821,0,1.555-.251,1.642-.56l.721-2.558c.085-.3-.5-.544-1.3-.544H5379.7c-.806,0-1.539.243-1.637.544l-.835,2.558C5377.125,1996.363,5377.708,1996.615,5378.531,1996.615Zm102.236,0h10.1c.818,0,1.432-.251,1.372-.56l-.507-2.558c-.06-.3-.76-.544-1.567-.544h-9.926c-.8,0-1.424.243-1.384.544l.355,2.558C5479.25,1996.363,5479.948,1996.615,5480.767,1996.615Zm-116.383,0h6.866c.82,0,1.571-.251,1.678-.56l.886-2.558c.1-.3-.465-.544-1.271-.544h-6.751c-.807,0-1.554.243-1.671.544l-1,2.558C5363,1996.363,5363.566,1996.615,5364.384,1996.615Zm-14.144,0h6.865c.819,0,1.586-.251,1.715-.56l1.049-2.558c.123-.3-.43-.544-1.235-.544h-6.751c-.807,0-1.571.243-1.709.544l-1.164,2.558C5348.87,1996.363,5349.419,1996.615,5350.24,1996.615Z" transform="translate(-5348.989 -1973.457)" fill="url(#linear-gradient-4)"/>
              </g>
            </g>
            <path id="Trazado_194535" data-name="Trazado 194535" d="M5508.411,2032.493h-71.978c-1.349,0-2.287-.845-2.1-1.878l3.058-16.647a2.449,2.449,0,0,1,2.5-1.561h65.064a2.448,2.448,0,0,1,2.5,1.561l3.058,16.647C5510.7,2031.648,5509.759,2032.493,5508.411,2032.493Z" transform="translate(-5343.535 -1979.625)" fill="url(#radial-gradient-4)"/>
          </g>
        </g>
      </g>
      <g id="Grupo_131874" data-name="Grupo 131874" transform="translate(5299.519 1713.765)">
        <g id="Grupo_131871" data-name="Grupo 131871" transform="translate(7.884 32.838)">
          <g id="Grupo_131869" data-name="Grupo 131869">
            <g transform="matrix(1, 0, 0, 1, -32.68, -41.84)" filter="url(#Trazado_194536)">
              <path id="Trazado_194536-2" data-name="Trazado 194536" d="M5383.3,1816.662h-10.911a2.182,2.182,0,0,0-2.182,2.176l-.026,11.13a1.743,1.743,0,0,1-2.987,1.215l-11.774-12.018a11.564,11.564,0,0,0-7.183-2.5h-27.008a7.724,7.724,0,0,1-7.724-7.724V1766.87a7.724,7.724,0,0,1,7.724-7.724H5383.3a7.724,7.724,0,0,1,7.723,7.724v42.069A7.723,7.723,0,0,1,5383.3,1816.662Z" transform="translate(-5280.82 -1717.31)" fill="#084a93"/>
            </g>
            <path id="Trazado_194537" data-name="Trazado 194537" d="M5355.907,1794.867h-6.757c.421,3.459,1.92,7.719,6.757,7.719v6.114h-4.458a13.732,13.732,0,0,1-13.732-13.731v-18.292h18.19Zm21.519-18.191h-18.19v18.292a13.731,13.731,0,0,0,13.731,13.731h4.459v-6.114c-4.836,0-6.336-4.26-6.756-7.719h6.756Z" transform="translate(-5320.194 -1763.991)" fill="url(#linear-gradient-5)" style="mix-blend-mode: screen;isolation: isolate"/>
          </g>
          <g id="Grupo_131870" data-name="Grupo 131870" transform="translate(61.597 45.056)">
            <g transform="matrix(1, 0, 0, 1, -94.27, -86.89)" filter="url(#Trazado_194538)">
              <path id="Trazado_194538-2" data-name="Trazado 194538" d="M5406.35,1878.927h10.912a2.182,2.182,0,0,1,2.18,2.175l.028,11.13a1.741,1.741,0,0,0,2.985,1.216l11.772-12.019a11.571,11.571,0,0,1,7.186-2.5h27.007a7.724,7.724,0,0,0,7.724-7.724v-42.068a7.724,7.724,0,0,0-7.724-7.724h-62.07a7.724,7.724,0,0,0-7.723,7.724V1871.2A7.724,7.724,0,0,0,5406.35,1878.927Z" transform="translate(-5304.35 -1734.52)" fill="#084a93"/>
            </g>
            <path id="Trazado_194539" data-name="Trazado 194539" d="M5448.182,1838.941h18.188v18.292a13.732,13.732,0,0,1-13.731,13.731h-4.458v-6.114c4.836,0,6.336-4.259,6.755-7.719h-6.755Zm-21.52,18.191h6.758c-.421,3.459-1.92,7.719-6.758,7.719v6.114h4.459a13.732,13.732,0,0,0,13.732-13.731v-18.292h-18.191Z" transform="translate(-5406.375 -1826.256)" fill="url(#linear-gradient-6)" style="mix-blend-mode: screen;isolation: isolate"/>
          </g>
        </g>
        <g id="Grupo_131872" data-name="Grupo 131872" transform="translate(121.566)">
          <g transform="matrix(1, 0, 0, 1, -146.36, -9)" filter="url(#Rectángulo_294770)">
            <rect id="Rectángulo_294770-2" data-name="Rectángulo 294770" width="82.448" height="86.046" rx="7.303" transform="translate(146.36 9)" fill="#084a93"/>
          </g>
          <path id="Trazado_194540" data-name="Trazado 194540" d="M5543.73,1781.994h-4.459v-6.379h-7.185v-3.5h4.062a2.238,2.238,0,0,0,2.238-2.237v-9.9a2.237,2.237,0,0,0-2.238-2.237h-4.062v-5.72h-14.746v-4.206h11.8a2.061,2.061,0,0,0,2.061-2.06v-11.838a2.061,2.061,0,0,0-2.061-2.061H5503.77a2.06,2.06,0,0,0-2.06,2.061v11.838a2.06,2.06,0,0,0,2.06,2.06h11.8v4.206h-14.745v5.72h-4.062a2.237,2.237,0,0,0-2.238,2.237v9.9a2.238,2.238,0,0,0,2.238,2.237h4.063v3.5h-7.186v6.379h-4.46a1.841,1.841,0,0,0-1.84,1.84v6.043a1.841,1.841,0,0,0,1.84,1.84h10.691a1.84,1.84,0,0,0,1.839-1.84v-6.043a1.84,1.84,0,0,0-1.839-1.84h-4.46v-4.607h20.159v4.607h-4.46a1.84,1.84,0,0,0-1.839,1.84v6.043a1.84,1.84,0,0,0,1.839,1.84h10.69a1.841,1.841,0,0,0,1.841-1.84v-6.043a1.841,1.841,0,0,0-1.841-1.84h-4.459v-4.607H5537.5v4.607h-4.458a1.84,1.84,0,0,0-1.84,1.84v6.043a1.84,1.84,0,0,0,1.84,1.84h10.688a1.841,1.841,0,0,0,1.842-1.84v-6.043A1.841,1.841,0,0,0,5543.73,1781.994Zm-41.134-6.379v-3.5h4.062a2.236,2.236,0,0,0,2.235-2.237v-9.9a2.235,2.235,0,0,0-2.235-2.237H5502.6V1753.8h27.719v3.948h-4.062a2.237,2.237,0,0,0-2.237,2.237v9.9a2.238,2.238,0,0,0,2.237,2.237h4.063v3.5Z" transform="translate(-5475.232 -1718.766)" fill="url(#linear-gradient-7)" style="mix-blend-mode: screen;isolation: isolate"/>
        </g>
        <g id="Grupo_131873" data-name="Grupo 131873" transform="translate(178.109 81.636)">
          <g transform="matrix(1, 0, 0, 1, -202.9, -90.64)" filter="url(#Rectángulo_294771)">
            <rect id="Rectángulo_294771-2" data-name="Rectángulo 294771" width="77.64" height="81.028" rx="6.878" transform="translate(202.9 90.64)" fill="#084a93"/>
          </g>
          <path id="Trazado_194541" data-name="Trazado 194541" d="M5617.847,1847.432c0,2.247-11.194,4.068-25,4.068s-25-1.821-25-4.068,11.2-4.068,25-4.068S5617.847,1845.185,5617.847,1847.432Zm0,4.469v13.219c0,2.247-11.194,4.068-25,4.068s-25-1.821-25-4.068V1851.9c0,2.246,11.2,4.068,25,4.068S5617.847,1854.148,5617.847,1851.9Zm-3.8,9.542a1.958,1.958,0,1,0-1.959,1.959A1.959,1.959,0,0,0,5614.042,1861.443Zm3.8,8.145v13.219c0,2.247-11.194,4.068-25,4.068s-25-1.821-25-4.068v-13.219c0,2.247,11.2,4.068,25,4.068S5617.847,1871.835,5617.847,1869.588Zm-3.8,9.543a1.958,1.958,0,1,0-1.959,1.958A1.958,1.958,0,0,0,5614.042,1879.131Zm3.8,8.145v13.218c0,2.247-11.194,4.069-25,4.069s-25-1.821-25-4.069v-13.218c0,2.247,11.2,4.068,25,4.068S5617.847,1889.522,5617.847,1887.276Zm-3.8,9.543a1.958,1.958,0,1,0-1.959,1.958A1.959,1.959,0,0,0,5614.042,1896.818Z" transform="translate(-5554.023 -1831.22)" fill="url(#linear-gradient-5)" style="mix-blend-mode: screen;isolation: isolate"/>
        </g>
        <path id="Trazado_194542" data-name="Trazado 194542" d="M5619.127,1742.009h12.132v12.2a9.159,9.159,0,0,1-9.158,9.159h-2.974v-4.078c3.226,0,4.227-2.841,4.506-5.148h-4.506Zm-14.351,12.132h4.506c-.28,2.307-1.281,5.148-4.506,5.148v4.078h2.973a9.158,9.158,0,0,0,9.158-9.159v-12.2h-12.131Z" transform="translate(-5386.125 -1721.571)" fill="url(#linear-gradient-9)" style="mix-blend-mode: screen;isolation: isolate"/>
        <path id="Trazado_194543" data-name="Trazado 194543" d="M5351.814,1898.627h-3.891v-5.566h-6.27v-3.054h3.544a1.952,1.952,0,0,0,1.953-1.952v-8.635a1.952,1.952,0,0,0-1.953-1.952h-3.544v-4.991h-12.867v-3.67h10.295a1.8,1.8,0,0,0,1.8-1.8v-10.33a1.8,1.8,0,0,0-1.8-1.8h-22.138a1.8,1.8,0,0,0-1.8,1.8v10.33a1.8,1.8,0,0,0,1.8,1.8h10.3v3.67h-12.867v4.991h-3.546a1.951,1.951,0,0,0-1.95,1.952v8.635a1.952,1.952,0,0,0,1.95,1.952h3.546v3.054h-6.27v5.566h-3.889a1.606,1.606,0,0,0-1.606,1.606v5.273a1.606,1.606,0,0,0,1.606,1.605h9.327a1.6,1.6,0,0,0,1.6-1.605v-5.273a1.6,1.6,0,0,0-1.6-1.606h-3.893v-4.02h17.591v4.02h-3.89a1.605,1.605,0,0,0-1.606,1.606v5.273a1.6,1.6,0,0,0,1.606,1.605h9.327a1.605,1.605,0,0,0,1.605-1.605v-5.273a1.606,1.606,0,0,0-1.605-1.606h-3.891v-4.02h17.59v4.02h-3.891a1.605,1.605,0,0,0-1.6,1.606v5.273a1.6,1.6,0,0,0,1.6,1.605h9.328a1.607,1.607,0,0,0,1.606-1.605v-5.273A1.607,1.607,0,0,0,5351.814,1898.627Zm-35.9-5.566v-3.054h3.545a1.953,1.953,0,0,0,1.953-1.952v-8.635a1.952,1.952,0,0,0-1.953-1.952h-3.545v-3.445h24.19v3.445h-3.545a1.951,1.951,0,0,0-1.952,1.952v8.635a1.952,1.952,0,0,0,1.952,1.952h3.545v3.054Z" transform="translate(-5302.608 -1752.768)" fill="#d2e1f1"/>
        <path id="Trazado_194544" data-name="Trazado 194544" d="M5429.8,1727.3c0,1.375-6.854,2.49-15.309,2.49s-15.311-1.115-15.311-2.49,6.853-2.492,15.311-2.492S5429.8,1725.926,5429.8,1727.3Zm0,2.735v8.094c0,1.375-6.854,2.492-15.309,2.492s-15.311-1.116-15.311-2.492v-8.094c0,1.376,6.853,2.491,15.311,2.491S5429.8,1731.413,5429.8,1730.037Zm-2.329,5.844a1.2,1.2,0,1,0-1.2,1.2A1.2,1.2,0,0,0,5427.473,1735.881Zm2.329,4.987v8.1c0,1.375-6.854,2.49-15.309,2.49s-15.311-1.115-15.311-2.49v-8.1c0,1.376,6.853,2.491,15.311,2.491S5429.8,1742.244,5429.8,1740.868Zm-2.329,5.844a1.2,1.2,0,1,0-1.2,1.2A1.2,1.2,0,0,0,5427.473,1746.711Zm2.329,4.987v8.095c0,1.375-6.854,2.491-15.309,2.491s-15.311-1.115-15.311-2.491V1751.7c0,1.376,6.853,2.491,15.311,2.491S5429.8,1753.074,5429.8,1751.7Zm-2.329,5.844a1.2,1.2,0,1,0-1.2,1.2A1.2,1.2,0,0,0,5427.473,1757.542Z" transform="translate(-5329.3 -1716.818)" fill="url(#linear-gradient-5)" style="mix-blend-mode: screen;isolation: isolate"/>
        <path id="Trazado_194546" data-name="Trazado 194546" d="M5482.036,1905.919l2.126.372c.074.32.155.639.252.95l-1.653,1.383a1.017,1.017,0,0,0-.228,1.286l1.569,2.717a1.016,1.016,0,0,0,1.228.446l2.029-.742q.334.36.694.693l-.742,2.03a1.015,1.015,0,0,0,.447,1.227l2.717,1.569a1.016,1.016,0,0,0,1.286-.227l1.384-1.653c.31.1.629.178.95.251l.373,2.127a1.013,1.013,0,0,0,1,.839h3.138a1.014,1.014,0,0,0,1-.839l.373-2.127c.321-.073.639-.155.951-.251l1.382,1.653a1.017,1.017,0,0,0,1.287.227l2.718-1.569a1.019,1.019,0,0,0,.447-1.227l-.743-2.03c.241-.223.471-.454.7-.693l2.029.742a1.012,1.012,0,0,0,1.225-.446l1.57-2.717a1.016,1.016,0,0,0-.228-1.286l-1.653-1.383c.1-.311.177-.63.25-.95l2.127-.372a1.015,1.015,0,0,0,.839-1v-3.137a1.015,1.015,0,0,0-.839-1l-2.127-.372c-.073-.321-.154-.639-.25-.95l1.653-1.384a1.016,1.016,0,0,0,.228-1.286l-1.57-2.717a1.012,1.012,0,0,0-1.225-.446l-2.029.741c-.224-.239-.455-.471-.7-.693l.743-2.03a1.021,1.021,0,0,0-.447-1.228l-2.718-1.568a1.016,1.016,0,0,0-1.287.227l-1.382,1.653c-.312-.1-.629-.178-.951-.251l-.373-2.127a1.014,1.014,0,0,0-1-.839h-3.138a1.013,1.013,0,0,0-1,.839l-.373,2.127c-.321.073-.64.155-.95.251l-1.384-1.653a1.015,1.015,0,0,0-1.286-.227l-2.717,1.568a1.017,1.017,0,0,0-.447,1.228l.742,2.03q-.36.333-.694.693l-2.029-.741a1.016,1.016,0,0,0-1.228.446l-1.569,2.717a1.017,1.017,0,0,0,.228,1.286l1.653,1.384c-.1.311-.178.629-.252.95l-2.126.372a1.016,1.016,0,0,0-.839,1v3.137A1.016,1.016,0,0,0,5482.036,1905.919Zm6.017-2.569a8.982,8.982,0,1,1,8.982,8.983A8.982,8.982,0,0,1,5488.053,1903.35Z" transform="translate(-5351.968 -1761.787)" fill="url(#linear-gradient-11)" style="mix-blend-mode: screen;isolation: isolate"/>
      </g>
    </g>
  </g>
</svg>
