<svg xmlns="http://www.w3.org/2000/svg" width="134" height="134" viewBox="0 0 134 134">
  <g id="_19" data-name="19" transform="translate(-733 -2846)">
    <g id="Grupo_129260" data-name="Grupo 129260" transform="translate(743.229 2855.961)">
      <g id="Elipse_157" data-name="Elipse 157" transform="translate(-0.229 0.039)" fill="#f3f9ff" stroke="#26defc" stroke-linejoin="round" stroke-width="10">
        <circle cx="57" cy="57" r="57" stroke="none"/>
        <circle cx="57" cy="57" r="62" fill="none"/>
      </g>
    </g>
    <path id="Trazado_190500" data-name="Trazado 190500" d="M4559.768-759.617l-1.145-.924c-.152-.222-.267-.48-.545-.586l-.943-1.307-.784-1.453-.064-.209-.64-1.771c-.076-.31-.326-.206-.517-.206q-5.446,0-10.889,0c-1.965,0-3.93-.008-5.894,0-.29,0-.628-.058-.737.346l.015,0c-.1-.021-.1.064-.121.123l-.446.926-.4.68a7.856,7.856,0,0,1-2.832,2.3,16.183,16.183,0,0,1-2.065.49h-1.173a10.282,10.282,0,0,1-2.071-.494l-1.021-.563c-.129-.233-.388-.306-.574-.468l-1.114-1.149c-.035-.067-.061-.146-.164-.119l.018-.008a4.655,4.655,0,0,0-.5-1.01l-.276-.7a12.552,12.552,0,0,1-.383-1.852l.082-1.383a8.894,8.894,0,0,1,1.087-2.683c.21-.336.562-.567.681-.962l-.011-.01.114-.009c.125-.091.28-.15.345-.308a7.062,7.062,0,0,1,3.446-1.568,7.027,7.027,0,0,1,1.739,0,7.3,7.3,0,0,1,3.452,1.412l.513.458a12.818,12.818,0,0,1,1.211,1.67l-.013.027.018.024c.528,1.336.528,1.336,1.724,1.24h3.458l1.742.01,1.716-.01a7.33,7.33,0,0,0,1.637-.031,10.658,10.658,0,0,0,1.821.031,8.145,8.145,0,0,0,1.637-.031,10.66,10.66,0,0,0,1.821.031,8.361,8.361,0,0,0,1.634-.029,3.724,3.724,0,0,0,1.023.03c.076.019.1-.02.111-.088a6.22,6.22,0,0,0,.521-1.262.679.679,0,0,0,.184-.4l.623-1.327.9-1.412.224-.279,1.6-1.481.245-.137a10.688,10.688,0,0,1,1.732-.925c.4-.126.8-.251,1.2-.379.841-.269.987-.494.9-1.386.042-.065.015-.113-.038-.155l-.009-.648a4.445,4.445,0,0,0,0-1.734v-1.838a2.073,2.073,0,0,0,.05-1.02c-.026-.281-.179-.514-.532-.474a8.387,8.387,0,0,0-1.723-.1l-1.168-.116a36.069,36.069,0,0,1-3.875-.512l-1.88-.422-1.838-.52c-1.107-.418-2.244-.758-3.318-1.263a2.1,2.1,0,0,0-.235-.161,8.142,8.142,0,0,1-4.161-4.065l-.264-1.383q0-.973,0-1.945v-36.089a12.947,12.947,0,0,1,.114-1.945,6.7,6.7,0,0,1,.718-1.73l.347-.451,1.158-1.12c.215-.185.52-.246.683-.5l1.611-.935.794-.357.941-.393,1.833-.632,1.625-.405,1.479-.3.133-.046,1.832-.3,1.887-.3a9.947,9.947,0,0,0,1.69-.153,4.97,4.97,0,0,0,1.495-.093l1.846-.035,1.5.012,1.954.1,1.738.115,1.846.15a6.883,6.883,0,0,0,1.488.231l3.43.708,1.88.537,1.725.634a.525.525,0,0,0,.358.16l1.365.645c.4.264.8.513,1.184.794a6.653,6.653,0,0,1,2.764,3.656c.029.378.081.757.083,1.136.017,2.613.022,5.226.031,7.84v21.8q-.005,4.6-.011,9.206-.069.613-.137,1.225l-.57,1.2-.612.782-1.02.9-1.139.843a2.206,2.206,0,0,0-.669.372l-1.513.736-1.483.531-.506.177-1.6.459-1.857.463-1.575.285-3.467.423-1.731.119c-1.032-.011-1.033-.011-1.029,1.019,0,.206.017.412.026.618v5.172c.186.485.662.335,1.011.463l1.726.691a4.211,4.211,0,0,0,.976.589,1.6,1.6,0,0,0,.628.463l1.216,1.147c.043.064.074.145.178.12l-.02.009c.009.262.277.351.373.556l.792,1.282c.214.505.393,1.028.652,1.509.234.435.04,1.138.585,1.315a5.042,5.042,0,0,0,1.532.018l1.742.01,1.717-.01h3.458l1.741.01,1.718-.01,1.741.01h1.72l.686.018a.991.991,0,0,0,1.069-.673,9.135,9.135,0,0,1,1.261-2.148l.45-.4a7.456,7.456,0,0,1,3.46-1.64,10.8,10.8,0,0,1,1.715-.029,7.331,7.331,0,0,1,3.233,1.207l.8.693,1,1.273.241.469q.31.8.618,1.6a14.33,14.33,0,0,1,.095,2.082l-.327,1.375a6.847,6.847,0,0,1-4.037,4.267l-1.618.347-1.718-.057a9.987,9.987,0,0,1-1.74-.52l-.907-.475a2.379,2.379,0,0,0-.647-.476l-1.165-1.272-.638-1.12c-.265-.889-.319-.933-1.218-.933-.779,0-1.559.008-2.338.012h-.121l-8.966-.006h-4.317c-.228,0-.491-.052-.461.319q-.327.877-.654,1.753-.462.866-.923,1.733l-.283.447-1,1.16-.746.682a11.067,11.067,0,0,1-3.286,1.574l-1.722.3-1.739.01-1.835-.2-1.59-.455-.478-.231Zm22.77-41.536a25.486,25.486,0,0,1-3.427,1.507,37.072,37.072,0,0,1-10.906,1.963,56.546,56.546,0,0,1-8.5-.21,32.259,32.259,0,0,1-10.948-3.029c-.38-.188-.513-.206-.5.29.043,1.377.054,2.755.057,4.133,0,.936-.05,1.873-.045,2.809a1.855,1.855,0,0,0,.845,1.713,22.47,22.47,0,0,0,9.341,3.3,52.85,52.85,0,0,0,11.412.27,40.113,40.113,0,0,0,7.428-1.407,12.565,12.565,0,0,0,4.3-2.091,2.334,2.334,0,0,0,.942-2.262,20.994,20.994,0,0,1,0-2.3C4582.539-798,4582.537-799.54,4582.537-801.153Zm-34.168-25.878a26.118,26.118,0,0,0-.054,3.887c-.021,1.089-.06,2.178-.06,3.268a2,2,0,0,0,.834,1.907,22.223,22.223,0,0,0,6.565,2.8,42.187,42.187,0,0,0,8.313.955,44.689,44.689,0,0,0,9.6-.643,22.814,22.814,0,0,0,7.651-2.793,2.455,2.455,0,0,0,1.342-2.543c-.093-1.131-.037-2.263-.037-3.395s0-2.274,0-3.4c-.12-.062-.2.013-.279.054a32.477,32.477,0,0,1-13.89,3.317,60.294,60.294,0,0,1-8.277-.17,34.872,34.872,0,0,1-8.166-1.732A31.634,31.634,0,0,1,4548.369-827.031Zm-.067,16.2c-.1,1.4.014,2.795.029,4.192a2.167,2.167,0,0,0,.746,1.546,10.641,10.641,0,0,0,4.623,2.328,38.468,38.468,0,0,0,10.069,1.521,42.706,42.706,0,0,0,11.418-1.028,15.826,15.826,0,0,0,6.364-2.619,2.131,2.131,0,0,0,1-1.837c-.131-2.124.063-4.245.012-6.368-.023-.944-.012-.961-.821-.578a35.585,35.585,0,0,1-14.024,3.079,55.54,55.54,0,0,1-8.209-.282,32.374,32.374,0,0,1-10.784-2.985c-.339-.165-.428-.134-.427.227C4548.3-812.7,4548.3-811.764,4548.3-810.829Zm16.432-16.321a50.838,50.838,0,0,0,6.474-.337,32.431,32.431,0,0,0,7.724-1.849,8,8,0,0,0,3.136-1.963,1.156,1.156,0,0,0-.141-1.948,15.611,15.611,0,0,0-4.181-2.233,32.385,32.385,0,0,0-9.337-1.672,46.5,46.5,0,0,0-12.113.79c-2.562.557-5.1,1.187-7.2,2.924-1.071.888-1.1,1.7.032,2.475a18.8,18.8,0,0,0,5.541,2.554A40.813,40.813,0,0,0,4564.733-827.151Zm.677,53.019a6.2,6.2,0,0,0-6.308,6.236,6.241,6.241,0,0,0,6.313,6.31,6.259,6.259,0,0,0,6.3-6.264A6.2,6.2,0,0,0,4565.41-774.132Zm33.309,9.335a3.04,3.04,0,0,0,3-3.053,3.011,3.011,0,0,0-3.014-3.089,3.119,3.119,0,0,0-3.129,3.138A3.107,3.107,0,0,0,4598.719-764.8Zm-64.4-3.094a3,3,0,0,0-3.114-3.048,3.011,3.011,0,0,0-3.017,3.024,3.069,3.069,0,0,0,3.015,3.119A3.121,3.121,0,0,0,4534.32-767.892Z" transform="translate(-3764.502 3709.623)" fill="#12263f"/>
  </g>
</svg>
