<svg xmlns="http://www.w3.org/2000/svg" width="163.394" height="52.952" viewBox="0 0 163.394 52.952">
  <g id="_2" data-name="2" transform="translate(-3247.302 -2707.194)">
    <rect id="Rectángulo_294715" data-name="Rectángulo 294715" width="163.394" height="52.952" rx="3" transform="translate(3247.302 2707.194)" fill="#0c4a91"/>
    <path id="Trazado_194847" data-name="Trazado 194847" d="M-19.266-4.828h-4.312v2.719h5.094V0H-26.32V-11.375h7.852v2.117h-5.109v2.4h4.313Zm4.2-3.625.086.992A2.867,2.867,0,0,1-12.57-8.609,2.412,2.412,0,0,1-10.6-7.82a3.757,3.757,0,0,1,.676,2.375V0h-2.641V-5.336a1.426,1.426,0,0,0-.258-.941,1.193,1.193,0,0,0-.937-.3,1.256,1.256,0,0,0-1.148.609V0h-2.633V-8.453Zm9.672-2.1v2.1h1.391v1.828H-5.4v3.867a.987.987,0,0,0,.172.664.922.922,0,0,0,.68.188,3.862,3.862,0,0,0,.656-.047V-.07A4.859,4.859,0,0,1-5.375.156,2.758,2.758,0,0,1-7.383-.484,2.626,2.626,0,0,1-8.031-2.43v-4.2H-9.109V-8.453h1.078v-2.1ZM-.2,0H-2.836V-8.453H-.2Zm-2.8-10.633a1.175,1.175,0,0,1,.406-.922,1.533,1.533,0,0,1,1.055-.359,1.533,1.533,0,0,1,1.055.359,1.175,1.175,0,0,1,.406.922,1.175,1.175,0,0,1-.406.922,1.533,1.533,0,0,1-1.055.359,1.533,1.533,0,0,1-1.055-.359A1.175,1.175,0,0,1-2.992-10.633ZM1.094-4.289a5.164,5.164,0,0,1,.867-3.164A2.854,2.854,0,0,1,4.383-8.609a2.428,2.428,0,0,1,1.906.891V-12H8.93V0H6.563L6.43-.906A2.493,2.493,0,0,1,4.367.156,2.849,2.849,0,0,1,1.977-1,5.327,5.327,0,0,1,1.094-4.289Zm2.633.164q0,2.25,1.313,2.25a1.3,1.3,0,0,0,1.25-.734V-5.828a1.261,1.261,0,0,0-1.234-.75q-1.219,0-1.32,1.969ZM15.188,0a2.973,2.973,0,0,1-.25-.758,2.448,2.448,0,0,1-2.031.914,3,3,0,0,1-2.031-.723,2.3,2.3,0,0,1-.836-1.816,2.364,2.364,0,0,1,1.016-2.078,5.174,5.174,0,0,1,2.953-.7h.813v-.448q0-1.17-1.008-1.17a.824.824,0,0,0-.937.926H10.242a2.36,2.36,0,0,1,1.043-1.99,4.383,4.383,0,0,1,2.66-.765A3.843,3.843,0,0,1,16.5-7.82a2.743,2.743,0,0,1,.961,2.164v3.742A3.832,3.832,0,0,0,17.82-.133V0ZM13.539-1.719a1.469,1.469,0,0,0,.816-.211,1.322,1.322,0,0,0,.465-.477V-3.758h-.766q-1.375,0-1.375,1.234a.754.754,0,0,0,.242.582A.876.876,0,0,0,13.539-1.719Zm5.047-2.57a5.164,5.164,0,0,1,.867-3.164,2.854,2.854,0,0,1,2.422-1.156,2.428,2.428,0,0,1,1.906.891V-12h2.641V0H24.055l-.133-.906A2.493,2.493,0,0,1,21.859.156,2.849,2.849,0,0,1,19.469-1,5.327,5.327,0,0,1,18.586-4.289Zm2.633.164q0,2.25,1.313,2.25a1.3,1.3,0,0,0,1.25-.734V-5.828a1.261,1.261,0,0,0-1.234-.75q-1.219,0-1.32,1.969Z" transform="translate(3328.997 2740.744)" fill="#fff"/>
  </g>
</svg>
