<svg xmlns="http://www.w3.org/2000/svg" width="133.668" height="133.668" viewBox="0 0 133.668 133.668">
  <g id="_20" data-name="20" transform="translate(-1145.166 -2845.961)">
    <g id="Grupo_129264" data-name="Grupo 129264" transform="translate(1155.166 2855.961)">
      <g id="Trazado_187974" data-name="Trazado 187974" transform="translate(0 0)" fill="#f3f9ff">
        <path d="M 56.83386993408203 118.6677474975586 C 48.48854827880859 118.6677474975586 40.39020919799805 117.0321884155273 32.76380920410156 113.8064880371094 C 29.09881019592285 112.2563323974609 25.56431007385254 110.3379135131836 22.25848960876465 108.1045303344727 C 18.98534965515137 105.8932266235352 15.90758991241455 103.353889465332 13.11073017120361 100.5570297241211 C 10.31385040283203 97.76014709472656 7.774509906768799 94.68241119384766 5.563230037689209 91.40927124023438 C 3.3298499584198 88.10343170166016 1.411429882049561 84.56893157958984 -0.138730064034462 80.9039306640625 C -3.364429950714111 73.27752685546875 -4.999989986419678 65.17919158935547 -4.999989986419678 56.83386993408203 C -4.999989986419678 48.48854827880859 -3.364429950714111 40.39020919799805 -0.138730064034462 32.76380920410156 C 1.411429882049561 29.09882926940918 3.3298499584198 25.56431007385254 5.563230037689209 22.25848960876465 C 7.774509906768799 18.98534965515137 10.31385040283203 15.90758991241455 13.11073017120361 13.11073017120361 C 15.90758991241455 10.31385040283203 18.98534965515137 7.774509906768799 22.25848960876465 5.563230037689209 C 25.56431007385254 3.3298499584198 29.09882926940918 1.411429882049561 32.76380920410156 -0.138730064034462 C 40.39020919799805 -3.364429950714111 48.48854827880859 -4.999989986419678 56.83386993408203 -4.999989986419678 C 65.17919158935547 -4.999989986419678 73.27752685546875 -3.364429950714111 80.9039306640625 -0.138730064034462 C 84.56893157958984 1.411429882049561 88.10343170166016 3.3298499584198 91.40927124023438 5.563230037689209 C 94.68241119384766 7.774509906768799 97.76014709472656 10.31385040283203 100.5570297241211 13.11073017120361 C 103.353889465332 15.90758991241455 105.8932266235352 18.98534965515137 108.1045303344727 22.25848960876465 C 110.3379135131836 25.56431007385254 112.2563323974609 29.09881019592285 113.8064880371094 32.76380920410156 C 117.0321884155273 40.39020919799805 118.6677474975586 48.48854827880859 118.6677474975586 56.83386993408203 C 118.6677474975586 65.17919158935547 117.0321884155273 73.27752685546875 113.8064880371094 80.9039306640625 C 112.2563323974609 84.56893157958984 110.3379135131836 88.10343170166016 108.1045303344727 91.40927124023438 C 105.8932266235352 94.68241119384766 103.353889465332 97.76014709472656 100.5570297241211 100.5570297241211 C 97.76014709472656 103.353889465332 94.68241119384766 105.8932266235352 91.40927124023438 108.1045303344727 C 88.10343170166016 110.3379135131836 84.56893157958984 112.2563323974609 80.9039306640625 113.8064880371094 C 73.27752685546875 117.0321884155273 65.17919158935547 118.6677474975586 56.83386993408203 118.6677474975586 Z" stroke="none"/>
        <path d="M 56.83386993408203 -7.62939453125e-06 C 25.44539642333984 -7.62939453125e-06 -7.62939453125e-06 25.44539642333984 -7.62939453125e-06 56.83386993408203 C -7.62939453125e-06 88.22234344482422 25.44539642333984 113.667724609375 56.83386993408203 113.667724609375 C 88.22234344482422 113.667724609375 113.667724609375 88.22234344482422 113.667724609375 56.83386993408203 C 113.667724609375 25.44539642333984 88.22234344482422 -7.62939453125e-06 56.83386993408203 -7.62939453125e-06 M 56.83386993408203 -10.00000762939453 C 93.68618011474609 -10.00000762939453 123.667724609375 19.98153686523438 123.667724609375 56.83386993408203 C 123.667724609375 93.68618011474609 93.68618011474609 123.667724609375 56.83386993408203 123.667724609375 C 19.98153686523438 123.667724609375 -10.00000762939453 93.68618011474609 -10.00000762939453 56.83386993408203 C -10.00000762939453 19.98153686523438 19.98153686523438 -10.00000762939453 56.83386993408203 -10.00000762939453 Z" stroke="none" fill="#fdb32b"/>
      </g>
    </g>
    <g id="Grupo_129266" data-name="Grupo 129266" transform="translate(-2951.21 3734.652)">
      <path id="Trazado_190501" data-name="Trazado 190501" d="M4162.337-776.97a8.723,8.723,0,0,1-5.184-2.779,7.347,7.347,0,0,1-1.794-3.619,1.143,1.143,0,0,0-1.013-1.068,37.867,37.867,0,0,1-23.023-16.075,35.7,35.7,0,0,1-5.3-12.148,1.366,1.366,0,0,0-1.218-1.177,7.641,7.641,0,0,1-5.885-5.48,7.711,7.711,0,0,1,1.938-7.968,7.133,7.133,0,0,1,4.225-2.257c.621-.09.776-.458.9-.974a37.246,37.246,0,0,1,7.861-15.66,37.685,37.685,0,0,1,20.188-12.63,1.636,1.636,0,0,0,1.389-1.421,7.679,7.679,0,0,1,5.771-5.816,7.711,7.711,0,0,1,7.634,2.019,7.148,7.148,0,0,1,2.263,4.223c.089.613.441.782.964.906a37.561,37.561,0,0,1,17.671,9.662,37.558,37.558,0,0,1,10.625,18.382,1.633,1.633,0,0,0,1.409,1.4,7.88,7.88,0,0,1,5.957,6.176c.061.247.117.5.175.743v1.746c-.058.247-.114.5-.175.742a7.888,7.888,0,0,1-5.954,6.176,1.636,1.636,0,0,0-1.412,1.4,37.632,37.632,0,0,1-11.062,18.8,37.44,37.44,0,0,1-16.879,9.161,1.683,1.683,0,0,0-1.424,1.4,10.762,10.762,0,0,1-1.631,3.221,8.055,8.055,0,0,1-5.27,2.927Zm8.554-10.678c14.539-3.236,24.152-15.245,26.259-26.35-3.333-1.4-5.333-3.865-5.388-7.52-.058-3.809,1.982-6.368,5.425-7.83a34.7,34.7,0,0,0-26.309-26.279c-1.414,3.4-3.942,5.415-7.666,5.417-3.755,0-6.288-2.049-7.7-5.456-14.917,3.351-24.268,15.693-26.239,26.353,3.338,1.4,5.332,3.869,5.385,7.523.055,3.808-1.989,6.366-5.432,7.825A34.734,34.734,0,0,0,4155.5-787.69c2.243-3.924,4.547-5.583,7.783-5.442A8.114,8.114,0,0,1,4170.891-787.648Zm-2.387-70.62a5.289,5.289,0,0,0-5.325-5.294,5.289,5.289,0,0,0-5.261,5.27,5.329,5.329,0,0,0,5.281,5.356A5.33,5.33,0,0,0,4168.5-858.268Zm-41.876,41.905a5.331,5.331,0,0,0,5.31-5.329,5.333,5.333,0,0,0-5.29-5.262,5.3,5.3,0,0,0-5.334,5.286A5.293,5.293,0,0,0,4126.627-816.362Zm73.171,0a5.29,5.29,0,0,0,5.308-5.312,5.287,5.287,0,0,0-5.253-5.276,5.328,5.328,0,0,0-5.371,5.266A5.331,5.331,0,0,0,4199.8-816.363Zm-31.3,31.41a5.325,5.325,0,0,0-5.206-5.427,5.319,5.319,0,0,0-5.37,5.174,5.281,5.281,0,0,0,5.159,5.449A5.28,5.28,0,0,0,4168.5-784.953Z" fill="#12263f"/>
      <path id="Trazado_190502" data-name="Trazado 190502" d="M4250.774-770.277a8.548,8.548,0,0,1,.041,8.453,7.96,7.96,0,0,1-.1,8.163c1.675,1.867,1.209,4.174.973,6.3-.192,1.724-1.75,2.659-3.25,3.388a23.445,23.445,0,0,1-10.5,2.1,22.719,22.719,0,0,1-10.32-2.1,10.684,10.684,0,0,1-2.331-1.644,3.265,3.265,0,0,1-1.111-2.731,15.8,15.8,0,0,0,0-1.831,4.238,4.238,0,0,1,1.075-3.4,8.4,8.4,0,0,1-.044-8.48c-1.651-1.638-.943-3.852-.945-5.92a3.186,3.186,0,0,1,.719-1.641.7.7,0,0,0-.04-1.045,3.1,3.1,0,0,1-.764-2.336,16.454,16.454,0,0,0,0-2.005,4.427,4.427,0,0,1,2.127-4.128,16.338,16.338,0,0,1,6.813-2.495,27.271,27.271,0,0,1,12.009.521,20.482,20.482,0,0,1,4.586,2.028,4.066,4.066,0,0,1,2.1,4.028,7.649,7.649,0,0,0,0,.785C4251.859-772.773,4251.98-771.264,4250.774-770.277Zm-13.732-8.73a44.554,44.554,0,0,0-5.06.752,16.286,16.286,0,0,0-4.111,1.782c-.88.5-.847,1.222,0,1.8a10.81,10.81,0,0,0,2.7,1.364,25.008,25.008,0,0,0,13.835.318,13.759,13.759,0,0,0,3.419-1.463c1.239-.7,1.194-1.487,0-2.3a7.751,7.751,0,0,0-1.14-.631C4243.931-778.633,4240.991-778.912,4237.042-779.007Zm1,31.412a20.706,20.706,0,0,0,8.663-1.6,5.971,5.971,0,0,0,1.706-1.161,1.342,1.342,0,0,0,.1-1.132c-.146-.443-.557-.479-1.007-.276a11.589,11.589,0,0,1-1.793.66,27.514,27.514,0,0,1-17.191-.655c-.448-.17-.859-.195-1.012.259a1.349,1.349,0,0,0,.083,1.134,5.9,5.9,0,0,0,1.7,1.166A20.8,20.8,0,0,0,4238.039-747.6Zm0-8.017c2.062-.3,4.138-.527,6.18-.931a8.262,8.262,0,0,0,4.138-1.91.866.866,0,0,0,.2-1.233c-.293-.44-.633-.434-1.11-.261a26.848,26.848,0,0,1-18.906-.01c-.491-.179-.917-.173-1.072.3a1.322,1.322,0,0,0,.157,1.132,5.6,5.6,0,0,0,1.636,1.114A24.587,24.587,0,0,0,4238.039-755.612Zm0-8.392a20.825,20.825,0,0,0,8.744-1.634,5.659,5.659,0,0,0,1.625-1.13,1.352,1.352,0,0,0,.1-1.133c-.147-.445-.561-.473-1.009-.274a11.736,11.736,0,0,1-1.794.657,27.531,27.531,0,0,1-17.19-.652c-.449-.171-.859-.192-1.012.26a1.358,1.358,0,0,0,.085,1.135,5.415,5.415,0,0,0,1.623,1.132A20.974,20.974,0,0,0,4238.041-764Z" transform="translate(-74.793 -59.719)" fill="#12263f"/>
    </g>
  </g>
</svg>
