<svg xmlns="http://www.w3.org/2000/svg" width="427.801" height="161.455" viewBox="0 0 427.801 161.455">
  <g id="_23" data-name="23" transform="translate(-2543.493 -301.309)">
    <path id="Rectángulo_294227" data-name="Rectángulo 294227" d="M1.335,0H112.284a1.334,1.334,0,0,1,1.334,1.334V112.283a1.335,1.335,0,0,1-1.335,1.335H1.335A1.335,1.335,0,0,1,0,112.283V1.335A1.335,1.335,0,0,1,1.335,0Z" transform="translate(2581.735 335.009)" fill="#fff"/>
    <path id="Rectángulo_294228" data-name="Rectángulo 294228" d="M1.334,0h110.95a1.334,1.334,0,0,1,1.334,1.334V112.283a1.335,1.335,0,0,1-1.335,1.335H1.335A1.335,1.335,0,0,1,0,112.283V1.334A1.334,1.334,0,0,1,1.334,0Z" transform="translate(2717.933 335.009)" fill="#fff"/>
    <path id="Rectángulo_294229" data-name="Rectángulo 294229" d="M1.334,0h110.95a1.334,1.334,0,0,1,1.334,1.334V112.283a1.335,1.335,0,0,1-1.335,1.335H1.335A1.335,1.335,0,0,1,0,112.283V1.334A1.334,1.334,0,0,1,1.334,0Z" transform="translate(2854.132 335.009)" fill="#fff"/>
    <g id="Grupo_130060" data-name="Grupo 130060" transform="translate(2553.331 388.412)">
      <path id="Trazado_191943" data-name="Trazado 191943" d="M2570.181,449.4h-18.359V375.052h3.543V445.7h14.815Z" transform="translate(-2551.822 -375.052)" fill="#1d1d1b"/>
    </g>
    <g id="Grupo_130061" data-name="Grupo 130061" transform="translate(2553.331 301.309)">
      <path id="Trazado_191944" data-name="Trazado 191944" d="M2555.366,375.66h-3.543V301.309h18.359v3.7h-14.815Z" transform="translate(-2551.822 -301.309)" fill="#1d1d1b"/>
    </g>
    <path id="Trazado_191945" data-name="Trazado 191945" d="M2555.1,374.759l-11.611-4.792,11.611-4.792Z" transform="translate(0 11.57)" fill="#1d1d1b"/>
    <g id="Grupo_130072" data-name="Grupo 130072" transform="translate(2578.191 302.161)">
      <g id="Grupo_130071" data-name="Grupo 130071" transform="translate(0 29.304)">
        <g id="Grupo_130062" data-name="Grupo 130062">
          <path id="Trazado_191946" data-name="Trazado 191946" d="M2688.455,447.546H2577.99a5.126,5.126,0,0,1-5.121-5.12V331.96a5.126,5.126,0,0,1,5.121-5.12h110.465a5.127,5.127,0,0,1,5.12,5.12V442.425A5.127,5.127,0,0,1,2688.455,447.546ZM2577.99,330.383a1.579,1.579,0,0,0-1.577,1.577V442.425A1.579,1.579,0,0,0,2577.99,444h110.465a1.579,1.579,0,0,0,1.577-1.577V331.96a1.579,1.579,0,0,0-1.577-1.577Z" transform="translate(-2572.869 -326.84)" fill="#1d1d1b"/>
        </g>
        <g id="Grupo_130063" data-name="Grupo 130063" transform="translate(7.857 12.975)">
          <path id="Trazado_191947" data-name="Trazado 191947" d="M2682.747,341.354h-101.46a1.765,1.765,0,1,1,0-3.529h101.46a1.765,1.765,0,0,1,0,3.529Z" transform="translate(-2579.521 -337.825)" fill="#1d1d1b"/>
        </g>
        <g id="Grupo_130064" data-name="Grupo 130064" transform="translate(7.857 25.529)">
          <path id="Trazado_191948" data-name="Trazado 191948" d="M2682.747,351.982h-101.46a1.765,1.765,0,1,1,0-3.529h101.46a1.765,1.765,0,0,1,0,3.529Z" transform="translate(-2579.521 -348.453)" fill="#1d1d1b"/>
        </g>
        <g id="Grupo_130065" data-name="Grupo 130065" transform="translate(7.857 38.082)">
          <path id="Trazado_191949" data-name="Trazado 191949" d="M2682.747,362.61h-101.46a1.765,1.765,0,1,1,0-3.529h101.46a1.765,1.765,0,0,1,0,3.529Z" transform="translate(-2579.521 -359.081)" fill="#1d1d1b"/>
        </g>
        <g id="Grupo_130066" data-name="Grupo 130066" transform="translate(7.857 50.634)">
          <path id="Trazado_191950" data-name="Trazado 191950" d="M2682.747,373.237h-101.46a1.765,1.765,0,1,1,0-3.529h101.46a1.765,1.765,0,0,1,0,3.529Z" transform="translate(-2579.521 -369.708)" fill="#1d1d1b"/>
        </g>
        <g id="Grupo_130067" data-name="Grupo 130067" transform="translate(7.857 63.186)">
          <path id="Trazado_191951" data-name="Trazado 191951" d="M2682.747,383.866h-101.46a1.765,1.765,0,1,1,0-3.531h101.46a1.765,1.765,0,0,1,0,3.531Z" transform="translate(-2579.521 -380.335)" fill="#1d1d1b"/>
        </g>
        <g id="Grupo_130068" data-name="Grupo 130068" transform="translate(60.298 83.725)">
          <circle id="Elipse_5179" data-name="Elipse 5179" cx="2.262" cy="2.262" r="2.262" fill="#1d1d1b"/>
        </g>
        <g id="Grupo_130069" data-name="Grupo 130069" transform="translate(60.298 89.681)">
          <circle id="Elipse_5180" data-name="Elipse 5180" cx="2.262" cy="2.262" r="2.262" fill="#1d1d1b"/>
        </g>
        <g id="Grupo_130070" data-name="Grupo 130070" transform="translate(60.298 95.637)">
          <circle id="Elipse_5181" data-name="Elipse 5181" cx="2.262" cy="2.262" r="2.262" fill="#1d1d1b"/>
        </g>
      </g>
      <path id="Trazado_194555" data-name="Trazado 194555" d="M9.789-9.258H6.375V0H3.633V-9.258H.281v-2.117H9.789ZM14.273,0a2.973,2.973,0,0,1-.25-.758,2.448,2.448,0,0,1-2.031.914A3,3,0,0,1,9.961-.566a2.3,2.3,0,0,1-.836-1.816,2.364,2.364,0,0,1,1.016-2.078,5.174,5.174,0,0,1,2.953-.7h.813v-.448q0-1.17-1.008-1.17a.824.824,0,0,0-.937.926H9.328a2.36,2.36,0,0,1,1.043-1.99,4.383,4.383,0,0,1,2.66-.765,3.843,3.843,0,0,1,2.555.789,2.743,2.743,0,0,1,.961,2.164v3.742a3.832,3.832,0,0,0,.359,1.781V0ZM12.625-1.719a1.469,1.469,0,0,0,.816-.211,1.322,1.322,0,0,0,.465-.477V-3.758h-.766q-1.375,0-1.375,1.234a.754.754,0,0,0,.242.582A.876.876,0,0,0,12.625-1.719ZM25.852-4.156a5.152,5.152,0,0,1-.859,3.2A2.878,2.878,0,0,1,22.57.156,2.5,2.5,0,0,1,20.492-.867L20.383,0H18.023V-12h2.633v4.227a2.41,2.41,0,0,1,1.9-.836,2.879,2.879,0,0,1,2.438,1.133,5.179,5.179,0,0,1,.859,3.188Zm-2.641-.168a3.437,3.437,0,0,0-.324-1.735,1.093,1.093,0,0,0-1-.519,1.261,1.261,0,0,0-1.234.679v3.354a1.268,1.268,0,0,0,1.25.671,1.118,1.118,0,0,0,1.18-.9A6.5,6.5,0,0,0,23.211-4.324ZM29.789,0H27.148V-12h2.641Zm6.383,0a2.973,2.973,0,0,1-.25-.758,2.448,2.448,0,0,1-2.031.914,3,3,0,0,1-2.031-.723,2.3,2.3,0,0,1-.836-1.816,2.364,2.364,0,0,1,1.016-2.078,5.174,5.174,0,0,1,2.953-.7H35.8v-.448q0-1.17-1.008-1.17a.824.824,0,0,0-.937.926H31.227a2.36,2.36,0,0,1,1.043-1.99,4.383,4.383,0,0,1,2.66-.765,3.843,3.843,0,0,1,2.555.789,2.743,2.743,0,0,1,.961,2.164v3.742A3.832,3.832,0,0,0,38.8-.133V0ZM34.523-1.719a1.469,1.469,0,0,0,.816-.211,1.322,1.322,0,0,0,.465-.477V-3.758h-.766q-1.375,0-1.375,1.234a.754.754,0,0,0,.242.582A.876.876,0,0,0,34.523-1.719Zm15.945-.406H46.711L46.055,0h-2.93L47.3-11.375h2.578L54.078,0H51.133Zm-3.1-2.117h2.445L48.586-8.187Z" transform="translate(27.301 17)" fill="#1d1d1b"/>
    </g>
    <g id="Grupo_130083" data-name="Grupo 130083" transform="translate(2714.39 302.161)">
      <g id="Grupo_130082" data-name="Grupo 130082" transform="translate(0 29.304)">
        <g id="Grupo_130073" data-name="Grupo 130073">
          <path id="Trazado_191952" data-name="Trazado 191952" d="M2803.762,447.546H2693.3a5.126,5.126,0,0,1-5.119-5.12V331.96a5.126,5.126,0,0,1,5.119-5.12h110.465a5.126,5.126,0,0,1,5.12,5.12V442.425A5.126,5.126,0,0,1,2803.762,447.546ZM2693.3,330.383a1.578,1.578,0,0,0-1.576,1.577V442.425A1.578,1.578,0,0,0,2693.3,444h110.465a1.578,1.578,0,0,0,1.577-1.577V331.96a1.578,1.578,0,0,0-1.577-1.577Z" transform="translate(-2688.178 -326.84)" fill="#1d1d1b"/>
        </g>
        <g id="Grupo_130074" data-name="Grupo 130074" transform="translate(7.857 12.975)">
          <path id="Trazado_191953" data-name="Trazado 191953" d="M2798.055,341.354H2696.594a1.765,1.765,0,0,1,0-3.529h101.461a1.765,1.765,0,1,1,0,3.529Z" transform="translate(-2694.83 -337.825)" fill="#1d1d1b"/>
        </g>
        <g id="Grupo_130075" data-name="Grupo 130075" transform="translate(7.857 25.529)">
          <path id="Trazado_191954" data-name="Trazado 191954" d="M2798.055,351.982H2696.594a1.765,1.765,0,1,1,0-3.529h101.461a1.765,1.765,0,1,1,0,3.529Z" transform="translate(-2694.83 -348.453)" fill="#1d1d1b"/>
        </g>
        <g id="Grupo_130076" data-name="Grupo 130076" transform="translate(7.857 38.082)">
          <path id="Trazado_191955" data-name="Trazado 191955" d="M2798.055,362.61H2696.594a1.765,1.765,0,0,1,0-3.529h101.461a1.765,1.765,0,1,1,0,3.529Z" transform="translate(-2694.83 -359.081)" fill="#1d1d1b"/>
        </g>
        <g id="Grupo_130077" data-name="Grupo 130077" transform="translate(7.857 50.634)">
          <path id="Trazado_191956" data-name="Trazado 191956" d="M2798.055,373.237H2696.594a1.765,1.765,0,0,1,0-3.529h101.461a1.765,1.765,0,1,1,0,3.529Z" transform="translate(-2694.83 -369.708)" fill="#1d1d1b"/>
        </g>
        <g id="Grupo_130078" data-name="Grupo 130078" transform="translate(7.857 63.186)">
          <path id="Trazado_191957" data-name="Trazado 191957" d="M2798.055,383.866H2696.594a1.765,1.765,0,0,1,0-3.531h101.461a1.765,1.765,0,0,1,0,3.531Z" transform="translate(-2694.83 -380.335)" fill="#1d1d1b"/>
        </g>
        <g id="Grupo_130079" data-name="Grupo 130079" transform="translate(60.297 83.725)">
          <circle id="Elipse_5182" data-name="Elipse 5182" cx="2.262" cy="2.262" r="2.262" fill="#1d1d1b"/>
        </g>
        <g id="Grupo_130080" data-name="Grupo 130080" transform="translate(60.297 89.681)">
          <circle id="Elipse_5183" data-name="Elipse 5183" cx="2.262" cy="2.262" r="2.262" fill="#1d1d1b"/>
        </g>
        <g id="Grupo_130081" data-name="Grupo 130081" transform="translate(60.297 95.637)">
          <circle id="Elipse_5184" data-name="Elipse 5184" cx="2.262" cy="2.262" r="2.262" fill="#1d1d1b"/>
        </g>
      </g>
      <path id="Trazado_194556" data-name="Trazado 194556" d="M9.789-9.258H6.375V0H3.633V-9.258H.281v-2.117H9.789ZM14.273,0a2.973,2.973,0,0,1-.25-.758,2.448,2.448,0,0,1-2.031.914A3,3,0,0,1,9.961-.566a2.3,2.3,0,0,1-.836-1.816,2.364,2.364,0,0,1,1.016-2.078,5.174,5.174,0,0,1,2.953-.7h.813v-.448q0-1.17-1.008-1.17a.824.824,0,0,0-.937.926H9.328a2.36,2.36,0,0,1,1.043-1.99,4.383,4.383,0,0,1,2.66-.765,3.843,3.843,0,0,1,2.555.789,2.743,2.743,0,0,1,.961,2.164v3.742a3.832,3.832,0,0,0,.359,1.781V0ZM12.625-1.719a1.469,1.469,0,0,0,.816-.211,1.322,1.322,0,0,0,.465-.477V-3.758h-.766q-1.375,0-1.375,1.234a.754.754,0,0,0,.242.582A.876.876,0,0,0,12.625-1.719ZM25.852-4.156a5.152,5.152,0,0,1-.859,3.2A2.878,2.878,0,0,1,22.57.156,2.5,2.5,0,0,1,20.492-.867L20.383,0H18.023V-12h2.633v4.227a2.41,2.41,0,0,1,1.9-.836,2.879,2.879,0,0,1,2.438,1.133,5.179,5.179,0,0,1,.859,3.188Zm-2.641-.168a3.437,3.437,0,0,0-.324-1.735,1.093,1.093,0,0,0-1-.519,1.261,1.261,0,0,0-1.234.679v3.354a1.268,1.268,0,0,0,1.25.671,1.118,1.118,0,0,0,1.18-.9A6.5,6.5,0,0,0,23.211-4.324ZM29.789,0H27.148V-12h2.641Zm6.383,0a2.973,2.973,0,0,1-.25-.758,2.448,2.448,0,0,1-2.031.914,3,3,0,0,1-2.031-.723,2.3,2.3,0,0,1-.836-1.816,2.364,2.364,0,0,1,1.016-2.078,5.174,5.174,0,0,1,2.953-.7H35.8v-.448q0-1.17-1.008-1.17a.824.824,0,0,0-.937.926H31.227a2.36,2.36,0,0,1,1.043-1.99,4.383,4.383,0,0,1,2.66-.765,3.843,3.843,0,0,1,2.555.789,2.743,2.743,0,0,1,.961,2.164v3.742A3.832,3.832,0,0,0,38.8-.133V0ZM34.523-1.719a1.469,1.469,0,0,0,.816-.211,1.322,1.322,0,0,0,.465-.477V-3.758h-.766q-1.375,0-1.375,1.234a.754.754,0,0,0,.242.582A.876.876,0,0,0,34.523-1.719ZM44.008,0V-11.375h4.086a5.786,5.786,0,0,1,3.34.8,2.677,2.677,0,0,1,1.145,2.336,2.707,2.707,0,0,1-.406,1.508,2.367,2.367,0,0,1-1.2.922,2.4,2.4,0,0,1,1.367.875,2.544,2.544,0,0,1,.477,1.563A3.012,3.012,0,0,1,51.762-.855,5.038,5.038,0,0,1,48.625,0ZM46.75-4.836v2.727h1.8a1.709,1.709,0,0,0,1.141-.34,1.189,1.189,0,0,0,.4-.957,1.261,1.261,0,0,0-1.414-1.43Zm0-1.8h1.43a2.031,2.031,0,0,0,1.281-.329,1.168,1.168,0,0,0,.383-.948,1.226,1.226,0,0,0-.414-1.038,2.216,2.216,0,0,0-1.336-.317H46.75Z" transform="translate(27.686 17)" fill="#1d1d1b"/>
    </g>
    <g id="Grupo_130094" data-name="Grupo 130094" transform="translate(2850.588 302.161)">
      <g id="Grupo_130093" data-name="Grupo 130093" transform="translate(0 29.304)">
        <g id="Grupo_130084" data-name="Grupo 130084">
          <path id="Trazado_191958" data-name="Trazado 191958" d="M2919.071,447.546H2808.6a5.126,5.126,0,0,1-5.119-5.12V331.96a5.126,5.126,0,0,1,5.119-5.12h110.467a5.126,5.126,0,0,1,5.12,5.12V442.425A5.127,5.127,0,0,1,2919.071,447.546ZM2808.6,330.383a1.578,1.578,0,0,0-1.575,1.577V442.425A1.578,1.578,0,0,0,2808.6,444h110.467a1.579,1.579,0,0,0,1.577-1.577V331.96a1.579,1.579,0,0,0-1.577-1.577Z" transform="translate(-2803.486 -326.84)" fill="#1d1d1b"/>
        </g>
        <g id="Grupo_130085" data-name="Grupo 130085" transform="translate(7.857 12.975)">
          <path id="Trazado_191959" data-name="Trazado 191959" d="M2913.364,341.354H2811.9a1.765,1.765,0,0,1,0-3.529h101.461a1.765,1.765,0,0,1,0,3.529Z" transform="translate(-2810.138 -337.825)" fill="#1d1d1b"/>
        </g>
        <g id="Grupo_130086" data-name="Grupo 130086" transform="translate(7.857 25.529)">
          <path id="Trazado_191960" data-name="Trazado 191960" d="M2913.364,351.982H2811.9a1.765,1.765,0,1,1,0-3.529h101.461a1.765,1.765,0,1,1,0,3.529Z" transform="translate(-2810.138 -348.453)" fill="#1d1d1b"/>
        </g>
        <g id="Grupo_130087" data-name="Grupo 130087" transform="translate(7.857 38.082)">
          <path id="Trazado_191961" data-name="Trazado 191961" d="M2913.364,362.61H2811.9a1.765,1.765,0,0,1,0-3.529h101.461a1.765,1.765,0,0,1,0,3.529Z" transform="translate(-2810.138 -359.081)" fill="#1d1d1b"/>
        </g>
        <g id="Grupo_130088" data-name="Grupo 130088" transform="translate(7.857 50.634)">
          <path id="Trazado_191962" data-name="Trazado 191962" d="M2913.364,373.237H2811.9a1.765,1.765,0,0,1,0-3.529h101.461a1.765,1.765,0,0,1,0,3.529Z" transform="translate(-2810.138 -369.708)" fill="#1d1d1b"/>
        </g>
        <g id="Grupo_130089" data-name="Grupo 130089" transform="translate(7.857 63.186)">
          <path id="Trazado_191963" data-name="Trazado 191963" d="M2913.364,383.866H2811.9a1.765,1.765,0,0,1,0-3.531h101.461a1.765,1.765,0,0,1,0,3.531Z" transform="translate(-2810.138 -380.335)" fill="#1d1d1b"/>
        </g>
        <g id="Grupo_130090" data-name="Grupo 130090" transform="translate(60.297 83.725)">
          <circle id="Elipse_5185" data-name="Elipse 5185" cx="2.262" cy="2.262" r="2.262" fill="#1d1d1b"/>
        </g>
        <g id="Grupo_130091" data-name="Grupo 130091" transform="translate(60.297 89.681)">
          <circle id="Elipse_5186" data-name="Elipse 5186" cx="2.262" cy="2.262" r="2.262" fill="#1d1d1b"/>
        </g>
        <g id="Grupo_130092" data-name="Grupo 130092" transform="translate(60.297 95.637)">
          <circle id="Elipse_5187" data-name="Elipse 5187" cx="2.262" cy="2.262" r="2.262" fill="#1d1d1b"/>
        </g>
      </g>
      <path id="Trazado_194557" data-name="Trazado 194557" d="M9.789-9.258H6.375V0H3.633V-9.258H.281v-2.117H9.789ZM14.273,0a2.973,2.973,0,0,1-.25-.758,2.448,2.448,0,0,1-2.031.914A3,3,0,0,1,9.961-.566a2.3,2.3,0,0,1-.836-1.816,2.364,2.364,0,0,1,1.016-2.078,5.174,5.174,0,0,1,2.953-.7h.813v-.448q0-1.17-1.008-1.17a.824.824,0,0,0-.937.926H9.328a2.36,2.36,0,0,1,1.043-1.99,4.383,4.383,0,0,1,2.66-.765,3.843,3.843,0,0,1,2.555.789,2.743,2.743,0,0,1,.961,2.164v3.742a3.832,3.832,0,0,0,.359,1.781V0ZM12.625-1.719a1.469,1.469,0,0,0,.816-.211,1.322,1.322,0,0,0,.465-.477V-3.758h-.766q-1.375,0-1.375,1.234a.754.754,0,0,0,.242.582A.876.876,0,0,0,12.625-1.719ZM25.852-4.156a5.152,5.152,0,0,1-.859,3.2A2.878,2.878,0,0,1,22.57.156,2.5,2.5,0,0,1,20.492-.867L20.383,0H18.023V-12h2.633v4.227a2.41,2.41,0,0,1,1.9-.836,2.879,2.879,0,0,1,2.438,1.133,5.179,5.179,0,0,1,.859,3.188Zm-2.641-.168a3.437,3.437,0,0,0-.324-1.735,1.093,1.093,0,0,0-1-.519,1.261,1.261,0,0,0-1.234.679v3.354a1.268,1.268,0,0,0,1.25.671,1.118,1.118,0,0,0,1.18-.9A6.5,6.5,0,0,0,23.211-4.324ZM29.789,0H27.148V-12h2.641Zm6.383,0a2.973,2.973,0,0,1-.25-.758,2.448,2.448,0,0,1-2.031.914,3,3,0,0,1-2.031-.723,2.3,2.3,0,0,1-.836-1.816,2.364,2.364,0,0,1,1.016-2.078,5.174,5.174,0,0,1,2.953-.7H35.8v-.448q0-1.17-1.008-1.17a.824.824,0,0,0-.937.926H31.227a2.36,2.36,0,0,1,1.043-1.99,4.383,4.383,0,0,1,2.66-.765,3.843,3.843,0,0,1,2.555.789,2.743,2.743,0,0,1,.961,2.164v3.742A3.832,3.832,0,0,0,38.8-.133V0ZM34.523-1.719a1.469,1.469,0,0,0,.816-.211,1.322,1.322,0,0,0,.465-.477V-3.758h-.766q-1.375,0-1.375,1.234a.754.754,0,0,0,.242.582A.876.876,0,0,0,34.523-1.719ZM53.211-3.852a4.154,4.154,0,0,1-.641,2.1,3.866,3.866,0,0,1-1.645,1.41,5.6,5.6,0,0,1-2.418.5A4.467,4.467,0,0,1,44.977-1.3,6.032,6.032,0,0,1,43.688-5.43v-.562a6.885,6.885,0,0,1,.582-2.926,4.41,4.41,0,0,1,1.676-1.937,4.676,4.676,0,0,1,2.531-.684,4.9,4.9,0,0,1,3.328,1.09,4.306,4.306,0,0,1,1.43,3H50.5a2.037,2.037,0,0,0-.523-1.492,2.153,2.153,0,0,0-1.5-.453,1.638,1.638,0,0,0-1.5.766,4.921,4.921,0,0,0-.5,2.445v.8a5.445,5.445,0,0,0,.457,2.6,1.672,1.672,0,0,0,1.574.781,2.106,2.106,0,0,0,1.445-.445,1.89,1.89,0,0,0,.531-1.414Z" transform="translate(27.665 17)" fill="#1d1d1b"/>
    </g>
  </g>
</svg>
