<svg xmlns="http://www.w3.org/2000/svg" xmlns:xlink="http://www.w3.org/1999/xlink" width="621.002" height="181.251" viewBox="0 0 621.002 181.251">
  <defs>
    <filter id="Trazado_194785" x="0" y="69.853" width="114.408" height="37.26" filterUnits="userSpaceOnUse">
      <feOffset dx="3.233" dy="3.233" input="SourceAlpha"/>
      <feGaussianBlur stdDeviation="1.617" result="blur"/>
      <feFlood flood-color="#040405" flood-opacity="0.302"/>
      <feComposite operator="in" in2="blur"/>
      <feComposite in="SourceGraphic"/>
    </filter>
    <filter id="Trazado_194787" x="188.161" y="0" width="113.212" height="36.064" filterUnits="userSpaceOnUse">
      <feOffset dx="2.835" dy="2.835" input="SourceAlpha"/>
      <feGaussianBlur stdDeviation="1.417" result="blur-2"/>
      <feFlood flood-color="#040405" flood-opacity="0.302"/>
      <feComposite operator="in" in2="blur-2"/>
      <feComposite in="SourceGraphic"/>
    </filter>
    <filter id="Trazado_194789" x="188.161" y="70.053" width="113.212" height="36.064" filterUnits="userSpaceOnUse">
      <feOffset dx="2.835" dy="2.835" input="SourceAlpha"/>
      <feGaussianBlur stdDeviation="1.417" result="blur-3"/>
      <feFlood flood-color="#040405" flood-opacity="0.302"/>
      <feComposite operator="in" in2="blur-3"/>
      <feComposite in="SourceGraphic"/>
    </filter>
    <filter id="Trazado_194791" x="188.161" y="145.187" width="113.212" height="36.064" filterUnits="userSpaceOnUse">
      <feOffset dx="2.835" dy="2.835" input="SourceAlpha"/>
      <feGaussianBlur stdDeviation="1.417" result="blur-4"/>
      <feFlood flood-color="#040405" flood-opacity="0.302"/>
      <feComposite operator="in" in2="blur-4"/>
      <feComposite in="SourceGraphic"/>
    </filter>
    <filter id="Trazado_194796" x="319.63" y="69.853" width="114.408" height="37.26" filterUnits="userSpaceOnUse">
      <feOffset dx="3.233" dy="3.233" input="SourceAlpha"/>
      <feGaussianBlur stdDeviation="1.617" result="blur-5"/>
      <feFlood flood-color="#040405" flood-opacity="0.302"/>
      <feComposite operator="in" in2="blur-5"/>
      <feComposite in="SourceGraphic"/>
    </filter>
    <filter id="Trazado_194798" x="507.79" y="0" width="113.212" height="36.064" filterUnits="userSpaceOnUse">
      <feOffset dx="2.835" dy="2.835" input="SourceAlpha"/>
      <feGaussianBlur stdDeviation="1.417" result="blur-6"/>
      <feFlood flood-color="#040405" flood-opacity="0.302"/>
      <feComposite operator="in" in2="blur-6"/>
      <feComposite in="SourceGraphic"/>
    </filter>
    <filter id="Trazado_194800" x="507.79" y="70.053" width="113.212" height="36.064" filterUnits="userSpaceOnUse">
      <feOffset dx="2.835" dy="2.835" input="SourceAlpha"/>
      <feGaussianBlur stdDeviation="1.417" result="blur-7"/>
      <feFlood flood-color="#040405" flood-opacity="0.302"/>
      <feComposite operator="in" in2="blur-7"/>
      <feComposite in="SourceGraphic"/>
    </filter>
    <filter id="Trazado_194802" x="507.79" y="145.187" width="113.212" height="36.064" filterUnits="userSpaceOnUse">
      <feOffset dx="2.835" dy="2.835" input="SourceAlpha"/>
      <feGaussianBlur stdDeviation="1.417" result="blur-8"/>
      <feFlood flood-color="#040405" flood-opacity="0.302"/>
      <feComposite operator="in" in2="blur-8"/>
      <feComposite in="SourceGraphic"/>
    </filter>
  </defs>
  <g id="_23" data-name="23" transform="translate(5011.617 -341.583)">
    <g transform="matrix(1, 0, 0, 1, -5011.62, 341.58)" filter="url(#Trazado_194785)">
      <path id="Trazado_194785-2" data-name="Trazado 194785" d="M2.835,0h99.039a2.835,2.835,0,0,1,2.835,2.835V24.726a2.835,2.835,0,0,1-2.835,2.835H2.835A2.835,2.835,0,0,1,0,24.726V2.835A2.835,2.835,0,0,1,2.835,0Z" transform="translate(1.62 71.47)" fill="#003b82"/>
    </g>
    <path id="Trazado_194786" data-name="Trazado 194786" d="M-25.082,0h-2.727L-31.84-7.078V0h-2.742V-11.375h2.742L-27.816-4.3v-7.078h2.734ZM-23.8-4.3a4.989,4.989,0,0,1,.492-2.254,3.52,3.52,0,0,1,1.414-1.52,4.259,4.259,0,0,1,2.164-.531,3.887,3.887,0,0,1,2.992,1.176,4.512,4.512,0,0,1,1.094,3.2v.094A4.378,4.378,0,0,1-16.742-1,3.9,3.9,0,0,1-19.715.156a3.942,3.942,0,0,1-2.9-1.082,4.232,4.232,0,0,1-1.18-2.934Zm2.633.164A3.145,3.145,0,0,0-20.8-2.422a1.223,1.223,0,0,0,1.086.547q1.406,0,1.438-2.164V-4.3q0-2.273-1.453-2.273-1.32,0-1.43,1.961ZM-12-8.453l.086.992A2.906,2.906,0,0,1-9.5-8.609,2.14,2.14,0,0,1-7.332-7.336,2.813,2.813,0,0,1-4.848-8.609q2.57,0,2.641,3.109V0H-4.848V-5.336a1.611,1.611,0,0,0-.219-.945.931.931,0,0,0-.8-.3,1.247,1.247,0,0,0-1.164.7l.008.109V0H-9.66V-5.32a1.694,1.694,0,0,0-.211-.961.929.929,0,0,0-.8-.3,1.263,1.263,0,0,0-1.156.7V0h-2.633V-8.453Zm19.141,4.3a5.152,5.152,0,0,1-.859,3.2A2.878,2.878,0,0,1,3.863.156,2.5,2.5,0,0,1,1.785-.867L1.676,0H-.684V-12H1.949v4.227a2.41,2.41,0,0,1,1.9-.836A2.879,2.879,0,0,1,6.285-7.477a5.179,5.179,0,0,1,.859,3.188ZM4.5-4.324A3.437,3.437,0,0,0,4.18-6.059a1.093,1.093,0,0,0-1-.519A1.261,1.261,0,0,0,1.949-5.9v3.354a1.268,1.268,0,0,0,1.25.671,1.118,1.118,0,0,0,1.18-.9A6.5,6.5,0,0,0,4.5-4.324ZM13.418-6.07l-.867-.062a1.558,1.558,0,0,0-1.594.781V0H8.324V-8.453h2.469l.086,1.086A2.039,2.039,0,0,1,12.73-8.609a2.567,2.567,0,0,1,.734.094ZM18.309.156A4.345,4.345,0,0,1,15.16-1a4.006,4.006,0,0,1-1.2-3.02v-.219a5.191,5.191,0,0,1,.48-2.289,3.516,3.516,0,0,1,1.4-1.535,4.233,4.233,0,0,1,2.188-.543A3.659,3.659,0,0,1,20.84-7.5a4.344,4.344,0,0,1,1.031,3.082V-3.4H16.637a1.9,1.9,0,0,0,.617,1.117,1.836,1.836,0,0,0,1.234.406,2.366,2.366,0,0,0,1.953-.875l1.2,1.422A3.363,3.363,0,0,1,20.25-.246,4.713,4.713,0,0,1,18.309.156Zm-.3-6.734q-1.156,0-1.375,1.531h2.656v-.2a1.3,1.3,0,0,0-.32-.98A1.275,1.275,0,0,0,18.012-6.578ZM32.707,0H30.066V-8.406l-2.594.758v-2l4.992-1.727h.242Z" transform="translate(-4957.646 432.359)" fill="#fff"/>
    <g transform="matrix(1, 0, 0, 1, -5011.62, 341.58)" filter="url(#Trazado_194787)">
      <path id="Trazado_194787-2" data-name="Trazado 194787" d="M2.835,0h99.039a2.835,2.835,0,0,1,2.835,2.835V24.726a2.835,2.835,0,0,1-2.835,2.835H2.835A2.835,2.835,0,0,1,0,24.726V2.835A2.835,2.835,0,0,1,2.835,0Z" transform="translate(189.58 1.42)" fill="#aad5f4"/>
    </g>
    <path id="Trazado_194788" data-name="Trazado 194788" d="M-28.836-9.258H-32.25V0h-2.742V-9.258h-3.352v-2.117h9.508Zm4.43,9.414A4.345,4.345,0,0,1-27.555-1a4.006,4.006,0,0,1-1.2-3.02v-.219a5.191,5.191,0,0,1,.48-2.289,3.516,3.516,0,0,1,1.4-1.535,4.233,4.233,0,0,1,2.188-.543A3.659,3.659,0,0,1-21.875-7.5a4.344,4.344,0,0,1,1.031,3.082V-3.4h-5.234a1.9,1.9,0,0,0,.617,1.117,1.836,1.836,0,0,0,1.234.406,2.366,2.366,0,0,0,1.953-.875l1.2,1.422A3.363,3.363,0,0,1-22.465-.246,4.713,4.713,0,0,1-24.406.156Zm-.3-6.734q-1.156,0-1.375,1.531h2.656v-.2a1.3,1.3,0,0,0-.32-.98A1.275,1.275,0,0,0-24.7-6.578ZM-17.008,0h-2.641V-12h2.641ZM-11.3.156A4.345,4.345,0,0,1-14.445-1a4.006,4.006,0,0,1-1.2-3.02v-.219a5.191,5.191,0,0,1,.48-2.289,3.516,3.516,0,0,1,1.4-1.535,4.233,4.233,0,0,1,2.188-.543A3.659,3.659,0,0,1-8.766-7.5,4.344,4.344,0,0,1-7.734-4.422V-3.4h-5.234a1.9,1.9,0,0,0,.617,1.117,1.836,1.836,0,0,0,1.234.406A2.366,2.366,0,0,0-9.164-2.75l1.2,1.422A3.363,3.363,0,0,1-9.355-.246,4.713,4.713,0,0,1-11.3.156Zm-.3-6.734q-1.156,0-1.375,1.531h2.656v-.2a1.3,1.3,0,0,0-.32-.98A1.275,1.275,0,0,0-11.594-6.578Zm-.031-5.43h2.781l-2.172,2.453-2.148,0ZM-6.094,0V-6.625H-7.32V-8.453h1.227v-.672a2.921,2.921,0,0,1,.852-2.242,3.364,3.364,0,0,1,2.391-.8A5.235,5.235,0,0,1-1.617-12l.008,1.938a2.4,2.4,0,0,0-.648-.07q-1.2,0-1.2,1.031v.648H-1.8v1.828H-3.453V0Zm4.883-4.3A4.989,4.989,0,0,1-.719-6.559,3.52,3.52,0,0,1,.7-8.078a4.259,4.259,0,0,1,2.164-.531A3.887,3.887,0,0,1,5.852-7.434a4.512,4.512,0,0,1,1.094,3.2v.094A4.378,4.378,0,0,1,5.848-1,3.9,3.9,0,0,1,2.875.156,3.942,3.942,0,0,1-.023-.926,4.232,4.232,0,0,1-1.2-3.859Zm2.633.164a3.145,3.145,0,0,0,.367,1.719,1.223,1.223,0,0,0,1.086.547q1.406,0,1.438-2.164V-4.3q0-2.273-1.453-2.273-1.32,0-1.43,1.961Zm9.1-4.312.086.992a2.867,2.867,0,0,1,2.414-1.148A2.412,2.412,0,0,1,15-7.82a3.757,3.757,0,0,1,.676,2.375V0H13.031V-5.336a1.426,1.426,0,0,0-.258-.941,1.193,1.193,0,0,0-.937-.3,1.256,1.256,0,0,0-1.148.609V0H8.055V-8.453ZM16.8-4.3a4.989,4.989,0,0,1,.492-2.254A3.52,3.52,0,0,1,18.7-8.078a4.259,4.259,0,0,1,2.164-.531,3.887,3.887,0,0,1,2.992,1.176,4.512,4.512,0,0,1,1.094,3.2v.094A4.378,4.378,0,0,1,23.855-1,3.9,3.9,0,0,1,20.883.156a3.942,3.942,0,0,1-2.9-1.082A4.232,4.232,0,0,1,16.8-3.859Zm2.633.164A3.145,3.145,0,0,0,19.8-2.422a1.223,1.223,0,0,0,1.086.547q1.406,0,1.438-2.164V-4.3q0-2.273-1.453-2.273-1.32,0-1.43,1.961ZM35.891,0H33.25V-8.406l-2.594.758v-2l4.992-1.727h.242Z" transform="translate(-4769.686 362.307)" fill="#161615"/>
    <g transform="matrix(1, 0, 0, 1, -5011.62, 341.58)" filter="url(#Trazado_194789)">
      <path id="Trazado_194789-2" data-name="Trazado 194789" d="M2.835,0h99.039a2.835,2.835,0,0,1,2.835,2.835V24.726a2.835,2.835,0,0,1-2.835,2.835H2.835A2.835,2.835,0,0,1,0,24.726V2.835A2.835,2.835,0,0,1,2.835,0Z" transform="translate(189.58 71.47)" fill="#aad5f4"/>
    </g>
    <path id="Trazado_194790" data-name="Trazado 194790" d="M-28.836-9.258H-32.25V0h-2.742V-9.258h-3.352v-2.117h9.508Zm4.43,9.414A4.345,4.345,0,0,1-27.555-1a4.006,4.006,0,0,1-1.2-3.02v-.219a5.191,5.191,0,0,1,.48-2.289,3.516,3.516,0,0,1,1.4-1.535,4.233,4.233,0,0,1,2.188-.543A3.659,3.659,0,0,1-21.875-7.5a4.344,4.344,0,0,1,1.031,3.082V-3.4h-5.234a1.9,1.9,0,0,0,.617,1.117,1.836,1.836,0,0,0,1.234.406,2.366,2.366,0,0,0,1.953-.875l1.2,1.422A3.363,3.363,0,0,1-22.465-.246,4.713,4.713,0,0,1-24.406.156Zm-.3-6.734q-1.156,0-1.375,1.531h2.656v-.2a1.3,1.3,0,0,0-.32-.98A1.275,1.275,0,0,0-24.7-6.578ZM-17.008,0h-2.641V-12h2.641ZM-11.3.156A4.345,4.345,0,0,1-14.445-1a4.006,4.006,0,0,1-1.2-3.02v-.219a5.191,5.191,0,0,1,.48-2.289,3.516,3.516,0,0,1,1.4-1.535,4.233,4.233,0,0,1,2.188-.543A3.659,3.659,0,0,1-8.766-7.5,4.344,4.344,0,0,1-7.734-4.422V-3.4h-5.234a1.9,1.9,0,0,0,.617,1.117,1.836,1.836,0,0,0,1.234.406A2.366,2.366,0,0,0-9.164-2.75l1.2,1.422A3.363,3.363,0,0,1-9.355-.246,4.713,4.713,0,0,1-11.3.156Zm-.3-6.734q-1.156,0-1.375,1.531h2.656v-.2a1.3,1.3,0,0,0-.32-.98A1.275,1.275,0,0,0-11.594-6.578Zm-.031-5.43h2.781l-2.172,2.453-2.148,0ZM-6.094,0V-6.625H-7.32V-8.453h1.227v-.672a2.921,2.921,0,0,1,.852-2.242,3.364,3.364,0,0,1,2.391-.8A5.235,5.235,0,0,1-1.617-12l.008,1.938a2.4,2.4,0,0,0-.648-.07q-1.2,0-1.2,1.031v.648H-1.8v1.828H-3.453V0Zm4.883-4.3A4.989,4.989,0,0,1-.719-6.559,3.52,3.52,0,0,1,.7-8.078a4.259,4.259,0,0,1,2.164-.531A3.887,3.887,0,0,1,5.852-7.434a4.512,4.512,0,0,1,1.094,3.2v.094A4.378,4.378,0,0,1,5.848-1,3.9,3.9,0,0,1,2.875.156,3.942,3.942,0,0,1-.023-.926,4.232,4.232,0,0,1-1.2-3.859Zm2.633.164a3.145,3.145,0,0,0,.367,1.719,1.223,1.223,0,0,0,1.086.547q1.406,0,1.438-2.164V-4.3q0-2.273-1.453-2.273-1.32,0-1.43,1.961Zm9.1-4.312.086.992a2.867,2.867,0,0,1,2.414-1.148A2.412,2.412,0,0,1,15-7.82a3.757,3.757,0,0,1,.676,2.375V0H13.031V-5.336a1.426,1.426,0,0,0-.258-.941,1.193,1.193,0,0,0-.937-.3,1.256,1.256,0,0,0-1.148.609V0H8.055V-8.453ZM16.8-4.3a4.989,4.989,0,0,1,.492-2.254A3.52,3.52,0,0,1,18.7-8.078a4.259,4.259,0,0,1,2.164-.531,3.887,3.887,0,0,1,2.992,1.176,4.512,4.512,0,0,1,1.094,3.2v.094A4.378,4.378,0,0,1,23.855-1,3.9,3.9,0,0,1,20.883.156a3.942,3.942,0,0,1-2.9-1.082A4.232,4.232,0,0,1,16.8-3.859Zm2.633.164A3.145,3.145,0,0,0,19.8-2.422a1.223,1.223,0,0,0,1.086.547q1.406,0,1.438-2.164V-4.3q0-2.273-1.453-2.273-1.32,0-1.43,1.961ZM37.992,0H30.055V-1.719l3.656-3.844a4.364,4.364,0,0,0,1.352-2.445,1.7,1.7,0,0,0-.32-1.117,1.144,1.144,0,0,0-.93-.383A1.158,1.158,0,0,0,32.836-9a2.1,2.1,0,0,0-.375,1.277H29.82a3.736,3.736,0,0,1,.523-1.934A3.671,3.671,0,0,1,31.8-11.039a4.317,4.317,0,0,1,2.078-.5,4.246,4.246,0,0,1,2.84.852,3.04,3.04,0,0,1,1,2.445,3.551,3.551,0,0,1-.25,1.309A5.739,5.739,0,0,1,36.684-5.6a19.581,19.581,0,0,1-1.7,1.871l-1.469,1.7h4.477Z" transform="translate(-4769.686 432.359)" fill="#161615"/>
    <g transform="matrix(1, 0, 0, 1, -5011.62, 341.58)" filter="url(#Trazado_194791)">
      <path id="Trazado_194791-2" data-name="Trazado 194791" d="M2.835,0h99.039a2.835,2.835,0,0,1,2.835,2.835V24.726a2.835,2.835,0,0,1-2.835,2.835H2.835A2.835,2.835,0,0,1,0,24.726V2.835A2.835,2.835,0,0,1,2.835,0Z" transform="translate(189.58 146.6)" fill="#aad5f4"/>
    </g>
    <path id="Trazado_194792" data-name="Trazado 194792" d="M-28.836-9.258H-32.25V0h-2.742V-9.258h-3.352v-2.117h9.508Zm4.43,9.414A4.345,4.345,0,0,1-27.555-1a4.006,4.006,0,0,1-1.2-3.02v-.219a5.191,5.191,0,0,1,.48-2.289,3.516,3.516,0,0,1,1.4-1.535,4.233,4.233,0,0,1,2.188-.543A3.659,3.659,0,0,1-21.875-7.5a4.344,4.344,0,0,1,1.031,3.082V-3.4h-5.234a1.9,1.9,0,0,0,.617,1.117,1.836,1.836,0,0,0,1.234.406,2.366,2.366,0,0,0,1.953-.875l1.2,1.422A3.363,3.363,0,0,1-22.465-.246,4.713,4.713,0,0,1-24.406.156Zm-.3-6.734q-1.156,0-1.375,1.531h2.656v-.2a1.3,1.3,0,0,0-.32-.98A1.275,1.275,0,0,0-24.7-6.578ZM-17.008,0h-2.641V-12h2.641ZM-11.3.156A4.345,4.345,0,0,1-14.445-1a4.006,4.006,0,0,1-1.2-3.02v-.219a5.191,5.191,0,0,1,.48-2.289,3.516,3.516,0,0,1,1.4-1.535,4.233,4.233,0,0,1,2.188-.543A3.659,3.659,0,0,1-8.766-7.5,4.344,4.344,0,0,1-7.734-4.422V-3.4h-5.234a1.9,1.9,0,0,0,.617,1.117,1.836,1.836,0,0,0,1.234.406A2.366,2.366,0,0,0-9.164-2.75l1.2,1.422A3.363,3.363,0,0,1-9.355-.246,4.713,4.713,0,0,1-11.3.156Zm-.3-6.734q-1.156,0-1.375,1.531h2.656v-.2a1.3,1.3,0,0,0-.32-.98A1.275,1.275,0,0,0-11.594-6.578Zm-.031-5.43h2.781l-2.172,2.453-2.148,0ZM-6.094,0V-6.625H-7.32V-8.453h1.227v-.672a2.921,2.921,0,0,1,.852-2.242,3.364,3.364,0,0,1,2.391-.8A5.235,5.235,0,0,1-1.617-12l.008,1.938a2.4,2.4,0,0,0-.648-.07q-1.2,0-1.2,1.031v.648H-1.8v1.828H-3.453V0Zm4.883-4.3A4.989,4.989,0,0,1-.719-6.559,3.52,3.52,0,0,1,.7-8.078a4.259,4.259,0,0,1,2.164-.531A3.887,3.887,0,0,1,5.852-7.434a4.512,4.512,0,0,1,1.094,3.2v.094A4.378,4.378,0,0,1,5.848-1,3.9,3.9,0,0,1,2.875.156,3.942,3.942,0,0,1-.023-.926,4.232,4.232,0,0,1-1.2-3.859Zm2.633.164a3.145,3.145,0,0,0,.367,1.719,1.223,1.223,0,0,0,1.086.547q1.406,0,1.438-2.164V-4.3q0-2.273-1.453-2.273-1.32,0-1.43,1.961Zm9.1-4.312.086.992a2.867,2.867,0,0,1,2.414-1.148A2.412,2.412,0,0,1,15-7.82a3.757,3.757,0,0,1,.676,2.375V0H13.031V-5.336a1.426,1.426,0,0,0-.258-.941,1.193,1.193,0,0,0-.937-.3,1.256,1.256,0,0,0-1.148.609V0H8.055V-8.453ZM16.8-4.3a4.989,4.989,0,0,1,.492-2.254A3.52,3.52,0,0,1,18.7-8.078a4.259,4.259,0,0,1,2.164-.531,3.887,3.887,0,0,1,2.992,1.176,4.512,4.512,0,0,1,1.094,3.2v.094A4.378,4.378,0,0,1,23.855-1,3.9,3.9,0,0,1,20.883.156a3.942,3.942,0,0,1-2.9-1.082A4.232,4.232,0,0,1,16.8-3.859Zm2.633.164A3.145,3.145,0,0,0,19.8-2.422a1.223,1.223,0,0,0,1.086.547q1.406,0,1.438-2.164V-4.3q0-2.273-1.453-2.273-1.32,0-1.43,1.961ZM32.461-6.789H33.7A1.291,1.291,0,0,0,35.18-8.234a1.25,1.25,0,0,0-.352-.918,1.333,1.333,0,0,0-.992-.355,1.427,1.427,0,0,0-.91.3.93.93,0,0,0-.387.758H29.906a2.7,2.7,0,0,1,.5-1.6,3.3,3.3,0,0,1,1.387-1.1,4.741,4.741,0,0,1,1.949-.395,4.658,4.658,0,0,1,2.984.867,2.883,2.883,0,0,1,1.086,2.383A2.4,2.4,0,0,1,37.363-6.9a3.2,3.2,0,0,1-1.309,1.059,3.058,3.058,0,0,1,1.422,1A2.623,2.623,0,0,1,37.992-3.2,2.935,2.935,0,0,1,36.82-.758a4.864,4.864,0,0,1-3.078.914A5.045,5.045,0,0,1,31.668-.27a3.25,3.25,0,0,1-1.449-1.18,3.067,3.067,0,0,1-.492-1.715h2.648a1.185,1.185,0,0,0,.422.906,1.489,1.489,0,0,0,1.039.383,1.56,1.56,0,0,0,1.109-.387,1.293,1.293,0,0,0,.414-.988,1.511,1.511,0,0,0-.43-1.219,1.8,1.8,0,0,0-1.187-.359H32.461Z" transform="translate(-4769.686 507.494)" fill="#161615"/>
    <path id="Trazado_194793" data-name="Trazado 194793" d="M0,0H51.555" transform="translate(-4893.519 426.833)" fill="none" stroke="#fda000" stroke-width="2"/>
    <path id="Trazado_194043" data-name="Trazado 194043" d="M3852.743,5357.29l-1.573-3.7,1.573-3.7-8.778,3.7Z" transform="translate(-8743.453 -4926.754)" fill="#fda000"/>
    <path id="Trazado_194044" data-name="Trazado 194044" d="M3915.61,5353.587l-19.9,8.131,4.722-8.131-4.722-8.129Z" transform="translate(-8743.453 -4926.754)" fill="#fda000"/>
    <path id="Trazado_194794" data-name="Trazado 194794" d="M0,38.067,52.318,0" transform="translate(-4894.662 366.979)" fill="none" stroke="#fda000" stroke-width="2"/>
    <path id="Trazado_194045" data-name="Trazado 194045" d="M3853.241,5333.142l-3.451-2.069-.906-3.92-4.92,8.159Z" transform="translate(-8743.453 -4926.754)" fill="#fda000"/>
    <path id="Trazado_194046" data-name="Trazado 194046" d="M3912.529,5285.425l-11.306,18.282-.966-9.353-8.6-3.795Z" transform="translate(-8743.453 -4926.754)" fill="#fda000"/>
    <path id="Trazado_194795" data-name="Trazado 194795" d="M0,0,52.889,42.4" transform="translate(-4894.831 448.842)" fill="none" stroke="#fda000" stroke-width="2"/>
    <path id="Trazado_194047" data-name="Trazado 194047" d="M3848.5,5380.242l1.089-3.873,3.544-1.905-9.165-2.6Z" transform="translate(-8743.453 -4926.754)" fill="#fda000"/>
    <path id="Trazado_194048" data-name="Trazado 194048" d="M3912.529,5426.832l-20.611-6.1,8.77-3.39,1.4-9.3Z" transform="translate(-8743.453 -4926.754)" fill="#fda000"/>
    <g transform="matrix(1, 0, 0, 1, -5011.62, 341.58)" filter="url(#Trazado_194796)">
      <path id="Trazado_194796-2" data-name="Trazado 194796" d="M2.835,0h99.039a2.835,2.835,0,0,1,2.835,2.835V24.726a2.835,2.835,0,0,1-2.835,2.835H2.835A2.835,2.835,0,0,1,0,24.726V2.835A2.835,2.835,0,0,1,2.835,0Z" transform="translate(321.25 71.47)" fill="#003b82"/>
    </g>
    <path id="Trazado_194797" data-name="Trazado 194797" d="M-25.082,0h-2.727L-31.84-7.078V0h-2.742V-11.375h2.742L-27.816-4.3v-7.078h2.734ZM-23.8-4.3a4.989,4.989,0,0,1,.492-2.254,3.52,3.52,0,0,1,1.414-1.52,4.259,4.259,0,0,1,2.164-.531,3.887,3.887,0,0,1,2.992,1.176,4.512,4.512,0,0,1,1.094,3.2v.094A4.378,4.378,0,0,1-16.742-1,3.9,3.9,0,0,1-19.715.156a3.942,3.942,0,0,1-2.9-1.082,4.232,4.232,0,0,1-1.18-2.934Zm2.633.164A3.145,3.145,0,0,0-20.8-2.422a1.223,1.223,0,0,0,1.086.547q1.406,0,1.438-2.164V-4.3q0-2.273-1.453-2.273-1.32,0-1.43,1.961ZM-12-8.453l.086.992A2.906,2.906,0,0,1-9.5-8.609,2.14,2.14,0,0,1-7.332-7.336,2.813,2.813,0,0,1-4.848-8.609q2.57,0,2.641,3.109V0H-4.848V-5.336a1.611,1.611,0,0,0-.219-.945.931.931,0,0,0-.8-.3,1.247,1.247,0,0,0-1.164.7l.008.109V0H-9.66V-5.32a1.694,1.694,0,0,0-.211-.961.929.929,0,0,0-.8-.3,1.263,1.263,0,0,0-1.156.7V0h-2.633V-8.453Zm19.141,4.3a5.152,5.152,0,0,1-.859,3.2A2.878,2.878,0,0,1,3.863.156,2.5,2.5,0,0,1,1.785-.867L1.676,0H-.684V-12H1.949v4.227a2.41,2.41,0,0,1,1.9-.836A2.879,2.879,0,0,1,6.285-7.477a5.179,5.179,0,0,1,.859,3.188ZM4.5-4.324A3.437,3.437,0,0,0,4.18-6.059a1.093,1.093,0,0,0-1-.519A1.261,1.261,0,0,0,1.949-5.9v3.354a1.268,1.268,0,0,0,1.25.671,1.118,1.118,0,0,0,1.18-.9A6.5,6.5,0,0,0,4.5-4.324ZM13.418-6.07l-.867-.062a1.558,1.558,0,0,0-1.594.781V0H8.324V-8.453h2.469l.086,1.086A2.039,2.039,0,0,1,12.73-8.609a2.567,2.567,0,0,1,.734.094ZM18.309.156A4.345,4.345,0,0,1,15.16-1a4.006,4.006,0,0,1-1.2-3.02v-.219a5.191,5.191,0,0,1,.48-2.289,3.516,3.516,0,0,1,1.4-1.535,4.233,4.233,0,0,1,2.188-.543A3.659,3.659,0,0,1,20.84-7.5a4.344,4.344,0,0,1,1.031,3.082V-3.4H16.637a1.9,1.9,0,0,0,.617,1.117,1.836,1.836,0,0,0,1.234.406,2.366,2.366,0,0,0,1.953-.875l1.2,1.422A3.363,3.363,0,0,1,20.25-.246,4.713,4.713,0,0,1,18.309.156Zm-.3-6.734q-1.156,0-1.375,1.531h2.656v-.2a1.3,1.3,0,0,0-.32-.98A1.275,1.275,0,0,0,18.012-6.578ZM34.809,0H26.871V-1.719l3.656-3.844a4.364,4.364,0,0,0,1.352-2.445,1.7,1.7,0,0,0-.32-1.117,1.144,1.144,0,0,0-.93-.383A1.158,1.158,0,0,0,29.652-9a2.1,2.1,0,0,0-.375,1.277H26.637a3.736,3.736,0,0,1,.523-1.934,3.671,3.671,0,0,1,1.453-1.387,4.317,4.317,0,0,1,2.078-.5,4.246,4.246,0,0,1,2.84.852,3.04,3.04,0,0,1,1,2.445,3.551,3.551,0,0,1-.25,1.309A5.739,5.739,0,0,1,33.5-5.6a19.581,19.581,0,0,1-1.7,1.871l-1.469,1.7h4.477Z" transform="translate(-4638.017 432.359)" fill="#fff"/>
    <g transform="matrix(1, 0, 0, 1, -5011.62, 341.58)" filter="url(#Trazado_194798)">
      <path id="Trazado_194798-2" data-name="Trazado 194798" d="M2.835,0h99.039a2.835,2.835,0,0,1,2.835,2.835V24.726a2.835,2.835,0,0,1-2.835,2.835H2.835A2.835,2.835,0,0,1,0,24.726V2.835A2.835,2.835,0,0,1,2.835,0Z" transform="translate(509.21 1.42)" fill="#aad5f4"/>
    </g>
    <path id="Trazado_194799" data-name="Trazado 194799" d="M-28.836-9.258H-32.25V0h-2.742V-9.258h-3.352v-2.117h9.508Zm4.43,9.414A4.345,4.345,0,0,1-27.555-1a4.006,4.006,0,0,1-1.2-3.02v-.219a5.191,5.191,0,0,1,.48-2.289,3.516,3.516,0,0,1,1.4-1.535,4.233,4.233,0,0,1,2.188-.543A3.659,3.659,0,0,1-21.875-7.5a4.344,4.344,0,0,1,1.031,3.082V-3.4h-5.234a1.9,1.9,0,0,0,.617,1.117,1.836,1.836,0,0,0,1.234.406,2.366,2.366,0,0,0,1.953-.875l1.2,1.422A3.363,3.363,0,0,1-22.465-.246,4.713,4.713,0,0,1-24.406.156Zm-.3-6.734q-1.156,0-1.375,1.531h2.656v-.2a1.3,1.3,0,0,0-.32-.98A1.275,1.275,0,0,0-24.7-6.578ZM-17.008,0h-2.641V-12h2.641ZM-11.3.156A4.345,4.345,0,0,1-14.445-1a4.006,4.006,0,0,1-1.2-3.02v-.219a5.191,5.191,0,0,1,.48-2.289,3.516,3.516,0,0,1,1.4-1.535,4.233,4.233,0,0,1,2.188-.543A3.659,3.659,0,0,1-8.766-7.5,4.344,4.344,0,0,1-7.734-4.422V-3.4h-5.234a1.9,1.9,0,0,0,.617,1.117,1.836,1.836,0,0,0,1.234.406A2.366,2.366,0,0,0-9.164-2.75l1.2,1.422A3.363,3.363,0,0,1-9.355-.246,4.713,4.713,0,0,1-11.3.156Zm-.3-6.734q-1.156,0-1.375,1.531h2.656v-.2a1.3,1.3,0,0,0-.32-.98A1.275,1.275,0,0,0-11.594-6.578Zm-.031-5.43h2.781l-2.172,2.453-2.148,0ZM-6.094,0V-6.625H-7.32V-8.453h1.227v-.672a2.921,2.921,0,0,1,.852-2.242,3.364,3.364,0,0,1,2.391-.8A5.235,5.235,0,0,1-1.617-12l.008,1.938a2.4,2.4,0,0,0-.648-.07q-1.2,0-1.2,1.031v.648H-1.8v1.828H-3.453V0Zm4.883-4.3A4.989,4.989,0,0,1-.719-6.559,3.52,3.52,0,0,1,.7-8.078a4.259,4.259,0,0,1,2.164-.531A3.887,3.887,0,0,1,5.852-7.434a4.512,4.512,0,0,1,1.094,3.2v.094A4.378,4.378,0,0,1,5.848-1,3.9,3.9,0,0,1,2.875.156,3.942,3.942,0,0,1-.023-.926,4.232,4.232,0,0,1-1.2-3.859Zm2.633.164a3.145,3.145,0,0,0,.367,1.719,1.223,1.223,0,0,0,1.086.547q1.406,0,1.438-2.164V-4.3q0-2.273-1.453-2.273-1.32,0-1.43,1.961Zm9.1-4.312.086.992a2.867,2.867,0,0,1,2.414-1.148A2.412,2.412,0,0,1,15-7.82a3.757,3.757,0,0,1,.676,2.375V0H13.031V-5.336a1.426,1.426,0,0,0-.258-.941,1.193,1.193,0,0,0-.937-.3,1.256,1.256,0,0,0-1.148.609V0H8.055V-8.453ZM16.8-4.3a4.989,4.989,0,0,1,.492-2.254A3.52,3.52,0,0,1,18.7-8.078a4.259,4.259,0,0,1,2.164-.531,3.887,3.887,0,0,1,2.992,1.176,4.512,4.512,0,0,1,1.094,3.2v.094A4.378,4.378,0,0,1,23.855-1,3.9,3.9,0,0,1,20.883.156a3.942,3.942,0,0,1-2.9-1.082A4.232,4.232,0,0,1,16.8-3.859Zm2.633.164A3.145,3.145,0,0,0,19.8-2.422a1.223,1.223,0,0,0,1.086.547q1.406,0,1.438-2.164V-4.3q0-2.273-1.453-2.273-1.32,0-1.43,1.961Zm17.578-.3h1.156v2.031H37.008V0H34.375V-2.414h-4.4L29.82-4.023l4.555-7.328v-.023h2.633Zm-4.68,0h2.047v-3.5l-.164.266Z" transform="translate(-4450.056 362.307)" fill="#161615"/>
    <g transform="matrix(1, 0, 0, 1, -5011.62, 341.58)" filter="url(#Trazado_194800)">
      <path id="Trazado_194800-2" data-name="Trazado 194800" d="M2.835,0h99.039a2.835,2.835,0,0,1,2.835,2.835V24.726a2.835,2.835,0,0,1-2.835,2.835H2.835A2.835,2.835,0,0,1,0,24.726V2.835A2.835,2.835,0,0,1,2.835,0Z" transform="translate(509.21 71.47)" fill="#aad5f4"/>
    </g>
    <path id="Trazado_194801" data-name="Trazado 194801" d="M-28.836-9.258H-32.25V0h-2.742V-9.258h-3.352v-2.117h9.508Zm4.43,9.414A4.345,4.345,0,0,1-27.555-1a4.006,4.006,0,0,1-1.2-3.02v-.219a5.191,5.191,0,0,1,.48-2.289,3.516,3.516,0,0,1,1.4-1.535,4.233,4.233,0,0,1,2.188-.543A3.659,3.659,0,0,1-21.875-7.5a4.344,4.344,0,0,1,1.031,3.082V-3.4h-5.234a1.9,1.9,0,0,0,.617,1.117,1.836,1.836,0,0,0,1.234.406,2.366,2.366,0,0,0,1.953-.875l1.2,1.422A3.363,3.363,0,0,1-22.465-.246,4.713,4.713,0,0,1-24.406.156Zm-.3-6.734q-1.156,0-1.375,1.531h2.656v-.2a1.3,1.3,0,0,0-.32-.98A1.275,1.275,0,0,0-24.7-6.578ZM-17.008,0h-2.641V-12h2.641ZM-11.3.156A4.345,4.345,0,0,1-14.445-1a4.006,4.006,0,0,1-1.2-3.02v-.219a5.191,5.191,0,0,1,.48-2.289,3.516,3.516,0,0,1,1.4-1.535,4.233,4.233,0,0,1,2.188-.543A3.659,3.659,0,0,1-8.766-7.5,4.344,4.344,0,0,1-7.734-4.422V-3.4h-5.234a1.9,1.9,0,0,0,.617,1.117,1.836,1.836,0,0,0,1.234.406A2.366,2.366,0,0,0-9.164-2.75l1.2,1.422A3.363,3.363,0,0,1-9.355-.246,4.713,4.713,0,0,1-11.3.156Zm-.3-6.734q-1.156,0-1.375,1.531h2.656v-.2a1.3,1.3,0,0,0-.32-.98A1.275,1.275,0,0,0-11.594-6.578Zm-.031-5.43h2.781l-2.172,2.453-2.148,0ZM-6.094,0V-6.625H-7.32V-8.453h1.227v-.672a2.921,2.921,0,0,1,.852-2.242,3.364,3.364,0,0,1,2.391-.8A5.235,5.235,0,0,1-1.617-12l.008,1.938a2.4,2.4,0,0,0-.648-.07q-1.2,0-1.2,1.031v.648H-1.8v1.828H-3.453V0Zm4.883-4.3A4.989,4.989,0,0,1-.719-6.559,3.52,3.52,0,0,1,.7-8.078a4.259,4.259,0,0,1,2.164-.531A3.887,3.887,0,0,1,5.852-7.434a4.512,4.512,0,0,1,1.094,3.2v.094A4.378,4.378,0,0,1,5.848-1,3.9,3.9,0,0,1,2.875.156,3.942,3.942,0,0,1-.023-.926,4.232,4.232,0,0,1-1.2-3.859Zm2.633.164a3.145,3.145,0,0,0,.367,1.719,1.223,1.223,0,0,0,1.086.547q1.406,0,1.438-2.164V-4.3q0-2.273-1.453-2.273-1.32,0-1.43,1.961Zm9.1-4.312.086.992a2.867,2.867,0,0,1,2.414-1.148A2.412,2.412,0,0,1,15-7.82a3.757,3.757,0,0,1,.676,2.375V0H13.031V-5.336a1.426,1.426,0,0,0-.258-.941,1.193,1.193,0,0,0-.937-.3,1.256,1.256,0,0,0-1.148.609V0H8.055V-8.453ZM16.8-4.3a4.989,4.989,0,0,1,.492-2.254A3.52,3.52,0,0,1,18.7-8.078a4.259,4.259,0,0,1,2.164-.531,3.887,3.887,0,0,1,2.992,1.176,4.512,4.512,0,0,1,1.094,3.2v.094A4.378,4.378,0,0,1,23.855-1,3.9,3.9,0,0,1,20.883.156a3.942,3.942,0,0,1-2.9-1.082A4.232,4.232,0,0,1,16.8-3.859Zm2.633.164A3.145,3.145,0,0,0,19.8-2.422a1.223,1.223,0,0,0,1.086.547q1.406,0,1.438-2.164V-4.3q0-2.273-1.453-2.273-1.32,0-1.43,1.961ZM30.211-5.556l.7-5.819h6.648v2.047H33.047l-.258,2.26a3.105,3.105,0,0,1,.738-.29,3.368,3.368,0,0,1,.895-.126,3.337,3.337,0,0,1,2.605,1,4.044,4.044,0,0,1,.91,2.816,4.037,4.037,0,0,1-.488,1.98A3.356,3.356,0,0,1,36.078-.32a4.329,4.329,0,0,1-2.086.477,4.658,4.658,0,0,1-2.008-.441,3.6,3.6,0,0,1-1.469-1.21,2.94,2.94,0,0,1-.523-1.737h2.641a1.494,1.494,0,0,0,.4.99,1.265,1.265,0,0,0,.945.366q1.328,0,1.328-1.965,0-1.817-1.625-1.817a1.622,1.622,0,0,0-1.375.593Z" transform="translate(-4450.056 432.359)" fill="#161615"/>
    <g transform="matrix(1, 0, 0, 1, -5011.62, 341.58)" filter="url(#Trazado_194802)">
      <path id="Trazado_194802-2" data-name="Trazado 194802" d="M2.835,0h99.039a2.835,2.835,0,0,1,2.835,2.835V24.726a2.835,2.835,0,0,1-2.835,2.835H2.835A2.835,2.835,0,0,1,0,24.726V2.835A2.835,2.835,0,0,1,2.835,0Z" transform="translate(509.21 146.6)" fill="#aad5f4"/>
    </g>
    <path id="Trazado_194803" data-name="Trazado 194803" d="M-28.836-9.258H-32.25V0h-2.742V-9.258h-3.352v-2.117h9.508Zm4.43,9.414A4.345,4.345,0,0,1-27.555-1a4.006,4.006,0,0,1-1.2-3.02v-.219a5.191,5.191,0,0,1,.48-2.289,3.516,3.516,0,0,1,1.4-1.535,4.233,4.233,0,0,1,2.188-.543A3.659,3.659,0,0,1-21.875-7.5a4.344,4.344,0,0,1,1.031,3.082V-3.4h-5.234a1.9,1.9,0,0,0,.617,1.117,1.836,1.836,0,0,0,1.234.406,2.366,2.366,0,0,0,1.953-.875l1.2,1.422A3.363,3.363,0,0,1-22.465-.246,4.713,4.713,0,0,1-24.406.156Zm-.3-6.734q-1.156,0-1.375,1.531h2.656v-.2a1.3,1.3,0,0,0-.32-.98A1.275,1.275,0,0,0-24.7-6.578ZM-17.008,0h-2.641V-12h2.641ZM-11.3.156A4.345,4.345,0,0,1-14.445-1a4.006,4.006,0,0,1-1.2-3.02v-.219a5.191,5.191,0,0,1,.48-2.289,3.516,3.516,0,0,1,1.4-1.535,4.233,4.233,0,0,1,2.188-.543A3.659,3.659,0,0,1-8.766-7.5,4.344,4.344,0,0,1-7.734-4.422V-3.4h-5.234a1.9,1.9,0,0,0,.617,1.117,1.836,1.836,0,0,0,1.234.406A2.366,2.366,0,0,0-9.164-2.75l1.2,1.422A3.363,3.363,0,0,1-9.355-.246,4.713,4.713,0,0,1-11.3.156Zm-.3-6.734q-1.156,0-1.375,1.531h2.656v-.2a1.3,1.3,0,0,0-.32-.98A1.275,1.275,0,0,0-11.594-6.578Zm-.031-5.43h2.781l-2.172,2.453-2.148,0ZM-6.094,0V-6.625H-7.32V-8.453h1.227v-.672a2.921,2.921,0,0,1,.852-2.242,3.364,3.364,0,0,1,2.391-.8A5.235,5.235,0,0,1-1.617-12l.008,1.938a2.4,2.4,0,0,0-.648-.07q-1.2,0-1.2,1.031v.648H-1.8v1.828H-3.453V0Zm4.883-4.3A4.989,4.989,0,0,1-.719-6.559,3.52,3.52,0,0,1,.7-8.078a4.259,4.259,0,0,1,2.164-.531A3.887,3.887,0,0,1,5.852-7.434a4.512,4.512,0,0,1,1.094,3.2v.094A4.378,4.378,0,0,1,5.848-1,3.9,3.9,0,0,1,2.875.156,3.942,3.942,0,0,1-.023-.926,4.232,4.232,0,0,1-1.2-3.859Zm2.633.164a3.145,3.145,0,0,0,.367,1.719,1.223,1.223,0,0,0,1.086.547q1.406,0,1.438-2.164V-4.3q0-2.273-1.453-2.273-1.32,0-1.43,1.961Zm9.1-4.312.086.992a2.867,2.867,0,0,1,2.414-1.148A2.412,2.412,0,0,1,15-7.82a3.757,3.757,0,0,1,.676,2.375V0H13.031V-5.336a1.426,1.426,0,0,0-.258-.941,1.193,1.193,0,0,0-.937-.3,1.256,1.256,0,0,0-1.148.609V0H8.055V-8.453ZM16.8-4.3a4.989,4.989,0,0,1,.492-2.254A3.52,3.52,0,0,1,18.7-8.078a4.259,4.259,0,0,1,2.164-.531,3.887,3.887,0,0,1,2.992,1.176,4.512,4.512,0,0,1,1.094,3.2v.094A4.378,4.378,0,0,1,23.855-1,3.9,3.9,0,0,1,20.883.156a3.942,3.942,0,0,1-2.9-1.082A4.232,4.232,0,0,1,16.8-3.859Zm2.633.164A3.145,3.145,0,0,0,19.8-2.422a1.223,1.223,0,0,0,1.086.547q1.406,0,1.438-2.164V-4.3q0-2.273-1.453-2.273-1.32,0-1.43,1.961Zm16.984-7.4v2.07H36.3a3.953,3.953,0,0,0-2.426.707A2.985,2.985,0,0,0,32.7-6.8a3.079,3.079,0,0,1,2.25-.875A2.872,2.872,0,0,1,37.3-6.594a4.348,4.348,0,0,1,.875,2.828,3.982,3.982,0,0,1-.512,1.992,3.651,3.651,0,0,1-1.43,1.418A4.108,4.108,0,0,1,34.2.156a4.246,4.246,0,0,1-2.164-.551,3.787,3.787,0,0,1-1.484-1.574,5.184,5.184,0,0,1-.547-2.359V-5.383a6.567,6.567,0,0,1,.754-3.16,5.466,5.466,0,0,1,2.152-2.2,6.154,6.154,0,0,1,3.1-.8ZM34.039-5.656a1.506,1.506,0,0,0-.875.242,1.538,1.538,0,0,0-.523.594v.789q0,2.156,1.492,2.156a1.211,1.211,0,0,0,1-.539,2.2,2.2,0,0,0,.4-1.352,2.156,2.156,0,0,0-.41-1.363A1.312,1.312,0,0,0,34.039-5.656Z" transform="translate(-4450.056 507.494)" fill="#161615"/>
    <path id="Trazado_194804" data-name="Trazado 194804" d="M0,0H51.555" transform="translate(-4573.889 426.833)" fill="none" stroke="#fda000" stroke-width="2"/>
    <path id="Trazado_194049" data-name="Trazado 194049" d="M4172.373,5357.29l-1.573-3.7,1.573-3.7-8.778,3.7Z" transform="translate(-8743.453 -4926.754)" fill="#fda000"/>
    <path id="Trazado_194050" data-name="Trazado 194050" d="M4235.24,5353.587l-19.9,8.131,4.722-8.131-4.722-8.129Z" transform="translate(-8743.453 -4926.754)" fill="#fda000"/>
    <path id="Trazado_194805" data-name="Trazado 194805" d="M0,38.067,52.318,0" transform="translate(-4575.032 366.979)" fill="none" stroke="#fda000" stroke-width="2"/>
    <path id="Trazado_194051" data-name="Trazado 194051" d="M4172.871,5333.142l-3.451-2.069-.907-3.92-4.919,8.159Z" transform="translate(-8743.453 -4926.754)" fill="#fda000"/>
    <path id="Trazado_194052" data-name="Trazado 194052" d="M4232.158,5285.425l-11.306,18.282-.966-9.353-8.6-3.795Z" transform="translate(-8743.453 -4926.754)" fill="#fda000"/>
    <path id="Trazado_194806" data-name="Trazado 194806" d="M0,0,52.889,42.4" transform="translate(-4575.201 448.842)" fill="none" stroke="#fda000" stroke-width="2"/>
    <path id="Trazado_194053" data-name="Trazado 194053" d="M4168.127,5380.242l1.089-3.873,3.544-1.905-9.166-2.6Z" transform="translate(-8743.453 -4926.754)" fill="#fda000"/>
    <path id="Trazado_194054" data-name="Trazado 194054" d="M4232.158,5426.832l-20.611-6.1,8.77-3.39,1.4-9.3Z" transform="translate(-8743.453 -4926.754)" fill="#fda000"/>
  </g>
</svg>
