<svg xmlns="http://www.w3.org/2000/svg" xmlns:xlink="http://www.w3.org/1999/xlink" width="610" height="486.479" viewBox="0 0 610 486.479">
  <defs>
    <filter id="Rect치ngulo_294241" x="13" y="14.026" width="582.225" height="460.042" filterUnits="userSpaceOnUse">
      <feOffset dy="3" input="SourceAlpha"/>
      <feGaussianBlur stdDeviation="3" result="blur"/>
      <feFlood flood-opacity="0.161"/>
      <feComposite operator="in" in2="blur"/>
      <feComposite in="SourceGraphic"/>
    </filter>
  </defs>
  <g id="_25" data-name="25" transform="translate(-810 -5143.974)">
    <g id="Grupo_130099" data-name="Grupo 130099" transform="translate(630.166 72)">
      <g id="Grupo_129887" data-name="Grupo 129887" transform="translate(16.238 956.561)">
        <path id="Trazado_118536" data-name="Trazado 118536" d="M-146.051-470.475h0a4.812,4.812,0,0,0-4.81,4.811v47.412L-137.4-431.71v-22.417a2.892,2.892,0,0,1,2.89-2.889h22.417l13.457-13.457Z" transform="translate(314.457 4585.889)" fill="#ffd101"/>
        <path id="Trazado_118537" data-name="Trazado 118537" d="M4.81,0h0A4.812,4.812,0,0,0,0,4.811V52.224L13.458,38.765V16.348a2.892,2.892,0,0,1,2.89-2.889H38.766L52.224,0Z" transform="translate(773.596 4601.893) rotate(180)" fill="#ffd101"/>
      </g>
      <g id="Grupo_131900" data-name="Grupo 131900">
        <path id="Trazado_194555" data-name="Trazado 194555" d="M7.681-6.881,5.853-4.875V0H1.4V-18.484H5.853v8.15L7.4-12.683l3.986-5.8H16.9l-6.246,8.176L16.9,0H11.616ZM24.146.254A7.061,7.061,0,0,1,19.03-1.631a6.51,6.51,0,0,1-1.955-4.907v-.355a8.436,8.436,0,0,1,.781-3.72,5.713,5.713,0,0,1,2.279-2.495,6.879,6.879,0,0,1,3.555-.882,5.946,5.946,0,0,1,4.57,1.8,7.059,7.059,0,0,1,1.676,5.008v1.663H21.43a3.084,3.084,0,0,0,1,1.815,2.984,2.984,0,0,0,2.006.66,3.845,3.845,0,0,0,3.174-1.422l1.955,2.311A5.465,5.465,0,0,1,27.3-.4,7.658,7.658,0,0,1,24.146.254Zm-.482-10.943q-1.879,0-2.234,2.488h4.316v-.33a2.119,2.119,0,0,0-.521-1.593A2.071,2.071,0,0,0,23.664-10.689Zm13.317,4.7,2.285-7.744H43.85L38.251,2.3l-.241.584a4.253,4.253,0,0,1-4.215,2.666,6.705,6.705,0,0,1-1.765-.253V2.247h.559a2.926,2.926,0,0,0,1.377-.26,1.58,1.58,0,0,0,.7-.934l.343-.915L30.24-13.736h4.57ZM52.152-3.859a.988.988,0,0,0-.571-.876,8.69,8.69,0,0,0-2.171-.686,9.9,9.9,0,0,1-2.641-.933,4.423,4.423,0,0,1-1.587-1.4,3.35,3.35,0,0,1-.546-1.892A3.8,3.8,0,0,1,46.2-12.765a6.432,6.432,0,0,1,4.088-1.225,7.127,7.127,0,0,1,4.367,1.231A3.851,3.851,0,0,1,56.3-9.521H52.013q0-1.65-1.739-1.65a1.724,1.724,0,0,0-1.13.375,1.16,1.16,0,0,0-.457.933,1.064,1.064,0,0,0,.559.927,5.278,5.278,0,0,0,1.784.584,15.414,15.414,0,0,1,2.152.546q3.1,1.066,3.1,3.821a3.6,3.6,0,0,1-1.669,3.06A7.321,7.321,0,0,1,50.286.254a7.471,7.471,0,0,1-3.148-.635,5.265,5.265,0,0,1-2.158-1.727,3.91,3.91,0,0,1-.774-2.3h4a1.653,1.653,0,0,0,.635,1.39,2.611,2.611,0,0,0,1.562.438,2.054,2.054,0,0,0,1.314-.355A1.137,1.137,0,0,0,52.152-3.859Z" transform="translate(294.798 5142)" fill="#1d1d1b"/>
        <path id="Trazado_194556" data-name="Trazado 194556" d="M8.569-5.027l3.682-13.457h4.977L11.007,0H6.132L-.038-18.484H4.9ZM25.53,0a4.831,4.831,0,0,1-.406-1.231,3.978,3.978,0,0,1-3.3,1.485,4.874,4.874,0,0,1-3.3-1.174,3.738,3.738,0,0,1-1.358-2.952,3.842,3.842,0,0,1,1.65-3.377,8.408,8.408,0,0,1,4.8-1.143h1.32v-.727q0-1.9-1.638-1.9a1.339,1.339,0,0,0-1.523,1.505H17.494a3.835,3.835,0,0,1,1.695-3.233,7.122,7.122,0,0,1,4.323-1.243,6.245,6.245,0,0,1,4.151,1.282,4.458,4.458,0,0,1,1.562,3.517V-3.11a6.227,6.227,0,0,0,.584,2.895V0ZM22.852-2.793a2.386,2.386,0,0,0,1.327-.343,2.148,2.148,0,0,0,.755-.774v-2.2H23.689q-2.234,0-2.234,2.006a1.225,1.225,0,0,0,.394.946A1.424,1.424,0,0,0,22.852-2.793ZM36.105,0H31.814V-19.5h4.291ZM46.922-1.485A4.411,4.411,0,0,1,43.253.254,4.326,4.326,0,0,1,39.832-1.06,5.526,5.526,0,0,1,38.67-4.837v-8.9h4.278v8.925a1.538,1.538,0,0,0,1.714,1.765A2.236,2.236,0,0,0,46.757-4.1v-9.636h4.3V0H47.049ZM60.049.254a7.061,7.061,0,0,1-5.116-1.885,6.51,6.51,0,0,1-1.955-4.907v-.355a8.436,8.436,0,0,1,.781-3.72,5.713,5.713,0,0,1,2.279-2.495,6.879,6.879,0,0,1,3.555-.882,5.946,5.946,0,0,1,4.57,1.8,7.059,7.059,0,0,1,1.676,5.008v1.663H57.332a3.084,3.084,0,0,0,1,1.815,2.984,2.984,0,0,0,2.006.66,3.845,3.845,0,0,0,3.174-1.422L65.47-2.158A5.465,5.465,0,0,1,63.2-.4,7.658,7.658,0,0,1,60.049.254Zm-.482-10.943q-1.879,0-2.234,2.488h4.316v-.33a2.119,2.119,0,0,0-.521-1.593A2.071,2.071,0,0,0,59.566-10.689ZM74.75-3.859a.988.988,0,0,0-.571-.876,8.69,8.69,0,0,0-2.171-.686,9.9,9.9,0,0,1-2.641-.933,4.423,4.423,0,0,1-1.587-1.4,3.35,3.35,0,0,1-.546-1.892A3.8,3.8,0,0,1,68.8-12.765a6.432,6.432,0,0,1,4.088-1.225,7.127,7.127,0,0,1,4.367,1.231A3.851,3.851,0,0,1,78.9-9.521H74.61q0-1.65-1.739-1.65a1.724,1.724,0,0,0-1.13.375,1.16,1.16,0,0,0-.457.933,1.064,1.064,0,0,0,.559.927,5.278,5.278,0,0,0,1.784.584,15.414,15.414,0,0,1,2.152.546q3.1,1.066,3.1,3.821a3.6,3.6,0,0,1-1.669,3.06A7.321,7.321,0,0,1,72.884.254a7.471,7.471,0,0,1-3.148-.635,5.265,5.265,0,0,1-2.158-1.727,3.91,3.91,0,0,1-.774-2.3h4a1.653,1.653,0,0,0,.635,1.39A2.611,2.611,0,0,0,73-2.577a2.054,2.054,0,0,0,1.314-.355A1.137,1.137,0,0,0,74.75-3.859Z" transform="translate(592.58 5142)" fill="#1d1d1b"/>
        <path id="Trazado_194557" data-name="Trazado 194557" d="M0,0H45V24.68H0Z" transform="translate(540.512 5168.23)" fill="#ffb30b"/>
        <path id="Trazado_194558" data-name="Trazado 194558" d="M0,0H114.689V30.487H0Z" transform="translate(588.42 5165.327)" fill="#084a93"/>
        <path id="Trazado_194559" data-name="Trazado 194559" d="M0,0H114.689V30.487H0Z" transform="translate(588.42 5195.813)" fill="#084a93"/>
        <path id="Trazado_194560" data-name="Trazado 194560" d="M0,0H114.689V30.487H0Z" transform="translate(588.42 5226.301)" fill="#084a93"/>
        <path id="Trazado_194561" data-name="Trazado 194561" d="M2,0H127.207a2,2,0,0,1,2,2V28.487a2,2,0,0,1-2,2H2a2,2,0,0,1-2-2V2A2,2,0,0,1,2,0Z" transform="translate(263.834 5193.636)" fill="#084a93"/>
        <path id="Trazado_194562" data-name="Trazado 194562" d="M2,0H127.207a2,2,0,0,1,2,2V28.487a2,2,0,0,1-2,2H2a2,2,0,0,1-2-2V2A2,2,0,0,1,2,0Z" transform="translate(263.834 5319.939)" fill="#084a93"/>
        <path id="Trazado_194563" data-name="Trazado 194563" d="M2,0H127.207a2,2,0,0,1,2,2V28.487a2,2,0,0,1-2,2H2a2,2,0,0,1-2-2V2A2,2,0,0,1,2,0Z" transform="translate(263.834 5447.694)" fill="#084a93"/>
        <path id="Trazado_194564" data-name="Trazado 194564" d="M0,0H114.689V30.487H0Z" transform="translate(589.146 5418.659)" fill="#084a93"/>
        <path id="Trazado_194565" data-name="Trazado 194565" d="M0,0H114.689V30.487H0Z" transform="translate(589.146 5449.146)" fill="#084a93"/>
        <path id="Trazado_194566" data-name="Trazado 194566" d="M0,0H114.689V30.487H0Z" transform="translate(589.146 5479.633)" fill="#084a93"/>
        <path id="Trazado_194567" data-name="Trazado 194567" d="M0,0H114.689V30.487H0Z" transform="translate(589.146 5277.838)" fill="#084a93"/>
        <path id="Trazado_194568" data-name="Trazado 194568" d="M0,0H114.689V30.487H0Z" transform="translate(589.146 5308.325)" fill="#084a93"/>
        <path id="Trazado_194569" data-name="Trazado 194569" d="M0,0H114.689V30.487H0Z" transform="translate(589.146 5338.812)" fill="#084a93"/>
        <path id="Trazado_194570" data-name="Trazado 194570" d="M0,0H114.689V30.487H0Z" transform="translate(589.146 5369.299)" fill="#084a93"/>
        <path id="Trazado_194571" data-name="Trazado 194571" d="M0,0H45V24.68H0Z" transform="translate(540.512 5196.539)" fill="#ffb30b"/>
        <path id="Trazado_194572" data-name="Trazado 194572" d="M0,0H45V24.68H0Z" transform="translate(540.512 5224.849)" fill="#ffb30b"/>
        <path id="Trazado_194573" data-name="Trazado 194573" d="M0,0H45V24.68H0Z" transform="translate(540.512 5422.288)" fill="#ffb30b"/>
        <path id="Trazado_194574" data-name="Trazado 194574" d="M0,0H45V24.68H0Z" transform="translate(540.512 5450.598)" fill="#ffb30b"/>
        <path id="Trazado_194575" data-name="Trazado 194575" d="M0,0H45V24.68H0Z" transform="translate(540.512 5478.907)" fill="#ffb30b"/>
        <path id="Trazado_194576" data-name="Trazado 194576" d="M0,0H45V24.68H0Z" transform="translate(540.512 5281.468)" fill="#ffb30b"/>
        <path id="Trazado_194577" data-name="Trazado 194577" d="M0,0H45V24.68H0Z" transform="translate(540.512 5309.777)" fill="#ffb30b"/>
        <path id="Trazado_194578" data-name="Trazado 194578" d="M0,0H45V24.68H0Z" transform="translate(540.512 5338.086)" fill="#ffb30b"/>
        <path id="Trazado_194579" data-name="Trazado 194579" d="M0,0H45V24.68H0Z" transform="translate(540.512 5367.121)" fill="#ffb30b"/>
        <path id="Trazado_194580" data-name="Trazado 194580" d="M5.6-11.375H7.945V-3.5a3.766,3.766,0,0,1-.48,1.918A3.261,3.261,0,0,1,6.109-.3,4.235,4.235,0,0,1,4.133.156,4.025,4.025,0,0,1,1.32-.762a3.335,3.335,0,0,1-1.008-2.6H2.672a1.829,1.829,0,0,0,.352,1.234,1.407,1.407,0,0,0,1.109.4A1.343,1.343,0,0,0,5.2-2.187,1.948,1.948,0,0,0,5.6-3.5ZM9.453-4.3a5.013,5.013,0,0,1,.484-2.242A3.546,3.546,0,0,1,11.332-8.07a4.069,4.069,0,0,1,2.113-.539,3.849,3.849,0,0,1,2.793,1.047,4.2,4.2,0,0,1,1.207,2.844l.016.578A4.418,4.418,0,0,1,16.375-1.02,3.775,3.775,0,0,1,13.461.156a3.793,3.793,0,0,1-2.918-1.172A4.5,4.5,0,0,1,9.453-4.2Zm2.258.16A3.16,3.16,0,0,0,12.164-2.3a1.5,1.5,0,0,0,1.3.638,1.5,1.5,0,0,0,1.281-.63A3.457,3.457,0,0,0,15.2-4.309a3.128,3.128,0,0,0-.461-1.831,1.5,1.5,0,0,0-1.3-.649,1.474,1.474,0,0,0-1.281.646A3.516,3.516,0,0,0,11.711-4.144Zm9.344-3.387a2.818,2.818,0,0,1,2.258-1.078q2.75,0,2.789,3.2V0H23.844V-5.352a1.57,1.57,0,0,0-.312-1.074,1.34,1.34,0,0,0-1.039-.348,1.537,1.537,0,0,0-1.437.766V0H18.8V-12h2.258Zm8.828-.922.07.977a2.951,2.951,0,0,1,2.43-1.133,2.453,2.453,0,0,1,2,.789,3.682,3.682,0,0,1,.672,2.359V0H32.8V-5.406a1.465,1.465,0,0,0-.312-1.043,1.4,1.4,0,0,0-1.039-.324,1.553,1.553,0,0,0-1.43.813V0H27.758V-8.453ZM46.8-2.984A1.2,1.2,0,0,0,46.328-4a6.148,6.148,0,0,0-1.687-.75,11.962,11.962,0,0,1-1.93-.777,3.153,3.153,0,0,1-1.937-2.82A2.747,2.747,0,0,1,41.293-10a3.389,3.389,0,0,1,1.492-1.129,5.616,5.616,0,0,1,2.184-.406,5.112,5.112,0,0,1,2.172.441,3.458,3.458,0,0,1,1.48,1.246,3.261,3.261,0,0,1,.527,1.828H46.8a1.534,1.534,0,0,0-.492-1.215,2.023,2.023,0,0,0-1.383-.434,2.162,2.162,0,0,0-1.336.363,1.146,1.146,0,0,0-.477.957,1.1,1.1,0,0,0,.559.93,6.311,6.311,0,0,0,1.645.7,7.106,7.106,0,0,1,2.914,1.492A2.972,2.972,0,0,1,49.148-3,2.737,2.737,0,0,1,48.031-.684a4.891,4.891,0,0,1-3.008.84,5.808,5.808,0,0,1-2.391-.48,3.783,3.783,0,0,1-1.645-1.316,3.371,3.371,0,0,1-.566-1.937h2.352q0,1.883,2.25,1.883a2.189,2.189,0,0,0,1.3-.34A1.106,1.106,0,0,0,46.8-2.984ZM52.7-8.453l.07.945a2.971,2.971,0,0,1,2.43-1.1A2.255,2.255,0,0,1,57.445-7.32a2.9,2.9,0,0,1,2.539-1.289,2.521,2.521,0,0,1,2.047.8A3.681,3.681,0,0,1,62.7-5.4V0H60.438V-5.391a1.61,1.61,0,0,0-.281-1.051,1.246,1.246,0,0,0-.992-.332,1.409,1.409,0,0,0-1.406.969L57.766,0H55.508V-5.383a1.59,1.59,0,0,0-.289-1.062,1.259,1.259,0,0,0-.984-.328,1.463,1.463,0,0,0-1.391.8V0H50.586V-8.453ZM66.82,0H64.555V-8.453H66.82Zm-2.4-10.641a1.112,1.112,0,0,1,.34-.836,1.277,1.277,0,0,1,.926-.328,1.28,1.28,0,0,1,.922.328,1.105,1.105,0,0,1,.344.836,1.108,1.108,0,0,1-.348.844,1.283,1.283,0,0,1-.918.328A1.283,1.283,0,0,1,64.77-9.8,1.108,1.108,0,0,1,64.422-10.641Zm6.961.109v2.078h1.445V-6.8H71.383v4.219a1.007,1.007,0,0,0,.18.672.9.9,0,0,0,.688.2,3.6,3.6,0,0,0,.664-.055V-.047a4.648,4.648,0,0,1-1.367.2,2.156,2.156,0,0,1-2.422-2.4V-6.8H67.891V-8.453h1.234v-2.078Zm4.906,3a2.818,2.818,0,0,1,2.258-1.078q2.75,0,2.789,3.2V0H79.078V-5.352a1.57,1.57,0,0,0-.312-1.074,1.34,1.34,0,0,0-1.039-.348,1.537,1.537,0,0,0-1.437.766V0H74.031V-12h2.258Z" transform="translate(280.193 5209.656)" fill="#fff"/>
        <path id="Trazado_194581" data-name="Trazado 194581" d="M8.957-5A6.123,6.123,0,0,1,7.919-1.162,3.622,3.622,0,0,1,4.881.166a3.647,3.647,0,0,1-3.021-1.3A5.943,5.943,0,0,1,.789-4.873V-7.1a6.042,6.042,0,0,1,1.05-3.843,3.649,3.649,0,0,1,3.026-1.312,3.652,3.652,0,0,1,3.021,1.3A5.925,5.925,0,0,1,8.957-7.222Zm-2.4-2.446a4.426,4.426,0,0,0-.411-2.189,1.389,1.389,0,0,0-1.282-.685,1.364,1.364,0,0,0-1.249.652,4.142,4.142,0,0,0-.427,2.04v2.941a4.646,4.646,0,0,0,.4,2.2,1.37,1.37,0,0,0,1.291.719,1.347,1.347,0,0,0,1.27-.69,4.535,4.535,0,0,0,.407-2.11ZM18.71-5a6.123,6.123,0,0,1-1.038,3.835A3.622,3.622,0,0,1,14.634.166a3.647,3.647,0,0,1-3.021-1.3,5.943,5.943,0,0,1-1.071-3.735V-7.1a6.042,6.042,0,0,1,1.05-3.843,3.649,3.649,0,0,1,3.026-1.312,3.652,3.652,0,0,1,3.021,1.3A5.925,5.925,0,0,1,18.71-7.222Zm-2.4-2.446A4.426,4.426,0,0,0,15.9-9.632a1.389,1.389,0,0,0-1.282-.685,1.364,1.364,0,0,0-1.249.652,4.142,4.142,0,0,0-.427,2.04v2.941a4.646,4.646,0,0,0,.4,2.2,1.37,1.37,0,0,0,1.291.719,1.347,1.347,0,0,0,1.27-.69,4.535,4.535,0,0,0,.407-2.11ZM28.463-5a6.123,6.123,0,0,1-1.038,3.835A3.622,3.622,0,0,1,24.388.166a3.647,3.647,0,0,1-3.021-1.3A5.943,5.943,0,0,1,20.3-4.873V-7.1a6.042,6.042,0,0,1,1.05-3.843,3.649,3.649,0,0,1,3.026-1.312,3.652,3.652,0,0,1,3.021,1.3,5.925,5.925,0,0,1,1.071,3.731Zm-2.4-2.446a4.426,4.426,0,0,0-.411-2.189,1.389,1.389,0,0,0-1.282-.685,1.364,1.364,0,0,0-1.249.652,4.142,4.142,0,0,0-.427,2.04v2.941a4.646,4.646,0,0,0,.4,2.2,1.37,1.37,0,0,0,1.291.719,1.347,1.347,0,0,0,1.27-.69,4.535,4.535,0,0,0,.407-2.11Z" transform="translate(545.866 5184.524)" fill="#fff"/>
        <path id="Trazado_194582" data-name="Trazado 194582" d="M8.957-5A6.123,6.123,0,0,1,7.919-1.162,3.622,3.622,0,0,1,4.881.166a3.647,3.647,0,0,1-3.021-1.3A5.943,5.943,0,0,1,.789-4.873V-7.1a6.042,6.042,0,0,1,1.05-3.843,3.649,3.649,0,0,1,3.026-1.312,3.652,3.652,0,0,1,3.021,1.3A5.925,5.925,0,0,1,8.957-7.222Zm-2.4-2.446a4.426,4.426,0,0,0-.411-2.189,1.389,1.389,0,0,0-1.282-.685,1.364,1.364,0,0,0-1.249.652,4.142,4.142,0,0,0-.427,2.04v2.941a4.646,4.646,0,0,0,.4,2.2,1.37,1.37,0,0,0,1.291.719,1.347,1.347,0,0,0,1.27-.69,4.535,4.535,0,0,0,.407-2.11ZM18.71-5a6.123,6.123,0,0,1-1.038,3.835A3.622,3.622,0,0,1,14.634.166a3.647,3.647,0,0,1-3.021-1.3,5.943,5.943,0,0,1-1.071-3.735V-7.1a6.042,6.042,0,0,1,1.05-3.843,3.649,3.649,0,0,1,3.026-1.312,3.652,3.652,0,0,1,3.021,1.3A5.925,5.925,0,0,1,18.71-7.222Zm-2.4-2.446A4.426,4.426,0,0,0,15.9-9.632a1.389,1.389,0,0,0-1.282-.685,1.364,1.364,0,0,0-1.249.652,4.142,4.142,0,0,0-.427,2.04v2.941a4.646,4.646,0,0,0,.4,2.2,1.37,1.37,0,0,0,1.291.719,1.347,1.347,0,0,0,1.27-.69,4.535,4.535,0,0,0,.407-2.11ZM28.463-5a6.123,6.123,0,0,1-1.038,3.835A3.622,3.622,0,0,1,24.388.166a3.647,3.647,0,0,1-3.021-1.3A5.943,5.943,0,0,1,20.3-4.873V-7.1a6.042,6.042,0,0,1,1.05-3.843,3.649,3.649,0,0,1,3.026-1.312,3.652,3.652,0,0,1,3.021,1.3,5.925,5.925,0,0,1,1.071,3.731Zm-2.4-2.446a4.426,4.426,0,0,0-.411-2.189,1.389,1.389,0,0,0-1.282-.685,1.364,1.364,0,0,0-1.249.652,4.142,4.142,0,0,0-.427,2.04v2.941a4.646,4.646,0,0,0,.4,2.2,1.37,1.37,0,0,0,1.291.719,1.347,1.347,0,0,0,1.27-.69,4.535,4.535,0,0,0,.407-2.11Z" transform="translate(545.866 5241.144)" fill="#fff"/>
        <path id="Trazado_194583" data-name="Trazado 194583" d="M8.957-5A6.123,6.123,0,0,1,7.919-1.162,3.622,3.622,0,0,1,4.881.166a3.647,3.647,0,0,1-3.021-1.3A5.943,5.943,0,0,1,.789-4.873V-7.1a6.042,6.042,0,0,1,1.05-3.843,3.649,3.649,0,0,1,3.026-1.312,3.652,3.652,0,0,1,3.021,1.3A5.925,5.925,0,0,1,8.957-7.222Zm-2.4-2.446a4.426,4.426,0,0,0-.411-2.189,1.389,1.389,0,0,0-1.282-.685,1.364,1.364,0,0,0-1.249.652,4.142,4.142,0,0,0-.427,2.04v2.941a4.646,4.646,0,0,0,.4,2.2,1.37,1.37,0,0,0,1.291.719,1.347,1.347,0,0,0,1.27-.69,4.535,4.535,0,0,0,.407-2.11ZM18.71-5a6.123,6.123,0,0,1-1.038,3.835A3.622,3.622,0,0,1,14.634.166a3.647,3.647,0,0,1-3.021-1.3,5.943,5.943,0,0,1-1.071-3.735V-7.1a6.042,6.042,0,0,1,1.05-3.843,3.649,3.649,0,0,1,3.026-1.312,3.652,3.652,0,0,1,3.021,1.3A5.925,5.925,0,0,1,18.71-7.222Zm-2.4-2.446A4.426,4.426,0,0,0,15.9-9.632a1.389,1.389,0,0,0-1.282-.685,1.364,1.364,0,0,0-1.249.652,4.142,4.142,0,0,0-.427,2.04v2.941a4.646,4.646,0,0,0,.4,2.2,1.37,1.37,0,0,0,1.291.719,1.347,1.347,0,0,0,1.27-.69,4.535,4.535,0,0,0,.407-2.11ZM26.156,0h-2.4V-9.247l-2.864.888V-10.31L25.9-12.1h.257Z" transform="translate(545.866 5215.012)" fill="#fff"/>
        <path id="Trazado_194584" data-name="Trazado 194584" d="M8.7-8.874a2.811,2.811,0,0,1-.44,1.561A3.166,3.166,0,0,1,7.047-6.226,3.5,3.5,0,0,1,8.442-5.059a2.992,2.992,0,0,1,.515,1.747,3.168,3.168,0,0,1-1.1,2.544,4.445,4.445,0,0,1-2.98.934A4.465,4.465,0,0,1,1.893-.772a3.16,3.16,0,0,1-1.1-2.54A3.011,3.011,0,0,1,1.3-5.063,3.442,3.442,0,0,1,2.689-6.226,3.134,3.134,0,0,1,1.482-7.313a2.831,2.831,0,0,1-.436-1.561,3.133,3.133,0,0,1,1.029-2.461,4.052,4.052,0,0,1,2.8-.917,4.079,4.079,0,0,1,2.793.909A3.121,3.121,0,0,1,8.7-8.874ZM6.549-3.486a1.74,1.74,0,0,0-.457-1.262,1.628,1.628,0,0,0-1.229-.473,1.625,1.625,0,0,0-1.22.469,1.737,1.737,0,0,0-.457,1.266,1.736,1.736,0,0,0,.448,1.245,1.633,1.633,0,0,0,1.245.473,1.629,1.629,0,0,0,1.224-.457A1.733,1.733,0,0,0,6.549-3.486ZM6.3-8.757A1.66,1.66,0,0,0,5.927-9.89a1.325,1.325,0,0,0-1.054-.427A1.335,1.335,0,0,0,3.827-9.9a1.651,1.651,0,0,0-.374,1.146A1.735,1.735,0,0,0,3.827-7.6a1.307,1.307,0,0,0,1.054.44,1.3,1.3,0,0,0,1.05-.44A1.747,1.747,0,0,0,6.3-8.757Zm12.493-1.99L14.12,0H11.588L16.27-10.152H10.26v-1.934h8.533ZM28.613,0H20.329V-1.644l3.91-4.167a9.645,9.645,0,0,0,1.191-1.536,2.467,2.467,0,0,0,.386-1.245,1.846,1.846,0,0,0-.407-1.266,1.468,1.468,0,0,0-1.162-.461,1.584,1.584,0,0,0-1.282.56A2.219,2.219,0,0,0,22.5-8.284H20.088a3.962,3.962,0,0,1,.527-2.017,3.715,3.715,0,0,1,1.49-1.432,4.529,4.529,0,0,1,2.183-.519,4.288,4.288,0,0,1,2.9.9,3.172,3.172,0,0,1,1.033,2.532A4.064,4.064,0,0,1,27.758-7a10.148,10.148,0,0,1-1.594,2.167l-2.748,2.9h5.2Z" transform="translate(545.866 5297.762)" fill="#fff"/>
        <path id="Trazado_194585" data-name="Trazado 194585" d="M8.7-8.874a2.811,2.811,0,0,1-.44,1.561A3.166,3.166,0,0,1,7.047-6.226,3.5,3.5,0,0,1,8.442-5.059a2.992,2.992,0,0,1,.515,1.747,3.168,3.168,0,0,1-1.1,2.544,4.445,4.445,0,0,1-2.98.934A4.465,4.465,0,0,1,1.893-.772a3.16,3.16,0,0,1-1.1-2.54A3.011,3.011,0,0,1,1.3-5.063,3.442,3.442,0,0,1,2.689-6.226,3.134,3.134,0,0,1,1.482-7.313a2.831,2.831,0,0,1-.436-1.561,3.133,3.133,0,0,1,1.029-2.461,4.052,4.052,0,0,1,2.8-.917,4.079,4.079,0,0,1,2.793.909A3.121,3.121,0,0,1,8.7-8.874ZM6.549-3.486a1.74,1.74,0,0,0-.457-1.262,1.628,1.628,0,0,0-1.229-.473,1.625,1.625,0,0,0-1.22.469,1.737,1.737,0,0,0-.457,1.266,1.736,1.736,0,0,0,.448,1.245,1.633,1.633,0,0,0,1.245.473,1.629,1.629,0,0,0,1.224-.457A1.733,1.733,0,0,0,6.549-3.486ZM6.3-8.757A1.66,1.66,0,0,0,5.927-9.89a1.325,1.325,0,0,0-1.054-.427A1.335,1.335,0,0,0,3.827-9.9a1.651,1.651,0,0,0-.374,1.146A1.735,1.735,0,0,0,3.827-7.6a1.307,1.307,0,0,0,1.054.44,1.3,1.3,0,0,0,1.05-.44A1.747,1.747,0,0,0,6.3-8.757Zm12.493-1.99L14.12,0H11.588L16.27-10.152H10.26v-1.934h8.533Zm8.633,6.2H28.8v1.934h-1.37V0h-2.4V-2.615H20.071l-.108-1.511L25-12.086h2.424Zm-5.072,0h2.673V-8.815l-.158.274Z" transform="translate(545.866 5354.381)" fill="#fff"/>
        <path id="Trazado_194586" data-name="Trazado 194586" d="M8.7-8.874a2.811,2.811,0,0,1-.44,1.561A3.166,3.166,0,0,1,7.047-6.226,3.5,3.5,0,0,1,8.442-5.059a2.992,2.992,0,0,1,.515,1.747,3.168,3.168,0,0,1-1.1,2.544,4.445,4.445,0,0,1-2.98.934A4.465,4.465,0,0,1,1.893-.772a3.16,3.16,0,0,1-1.1-2.54A3.011,3.011,0,0,1,1.3-5.063,3.442,3.442,0,0,1,2.689-6.226,3.134,3.134,0,0,1,1.482-7.313a2.831,2.831,0,0,1-.436-1.561,3.133,3.133,0,0,1,1.029-2.461,4.052,4.052,0,0,1,2.8-.917,4.079,4.079,0,0,1,2.793.909A3.121,3.121,0,0,1,8.7-8.874ZM6.549-3.486a1.74,1.74,0,0,0-.457-1.262,1.628,1.628,0,0,0-1.229-.473,1.625,1.625,0,0,0-1.22.469,1.737,1.737,0,0,0-.457,1.266,1.736,1.736,0,0,0,.448,1.245,1.633,1.633,0,0,0,1.245.473,1.629,1.629,0,0,0,1.224-.457A1.733,1.733,0,0,0,6.549-3.486ZM6.3-8.757A1.66,1.66,0,0,0,5.927-9.89a1.325,1.325,0,0,0-1.054-.427A1.335,1.335,0,0,0,3.827-9.9a1.651,1.651,0,0,0-.374,1.146A1.735,1.735,0,0,0,3.827-7.6a1.307,1.307,0,0,0,1.054.44,1.3,1.3,0,0,0,1.05-.44A1.747,1.747,0,0,0,6.3-8.757Zm12.493-1.99L14.12,0H11.588L16.27-10.152H10.26v-1.934h8.533ZM28.613,0H20.329V-1.644l3.91-4.167a9.645,9.645,0,0,0,1.191-1.536,2.467,2.467,0,0,0,.386-1.245,1.846,1.846,0,0,0-.407-1.266,1.468,1.468,0,0,0-1.162-.461,1.584,1.584,0,0,0-1.282.56A2.219,2.219,0,0,0,22.5-8.284H20.088a3.962,3.962,0,0,1,.527-2.017,3.715,3.715,0,0,1,1.49-1.432,4.529,4.529,0,0,1,2.183-.519,4.288,4.288,0,0,1,2.9.9,3.172,3.172,0,0,1,1.033,2.532A4.064,4.064,0,0,1,27.758-7a10.148,10.148,0,0,1-1.594,2.167l-2.748,2.9h5.2Z" transform="translate(545.866 5384.868)" fill="#fff"/>
        <path id="Trazado_194587" data-name="Trazado 194587" d="M8.7-8.874a2.811,2.811,0,0,1-.44,1.561A3.166,3.166,0,0,1,7.047-6.226,3.5,3.5,0,0,1,8.442-5.059a2.992,2.992,0,0,1,.515,1.747,3.168,3.168,0,0,1-1.1,2.544,4.445,4.445,0,0,1-2.98.934A4.465,4.465,0,0,1,1.893-.772a3.16,3.16,0,0,1-1.1-2.54A3.011,3.011,0,0,1,1.3-5.063,3.442,3.442,0,0,1,2.689-6.226,3.134,3.134,0,0,1,1.482-7.313a2.831,2.831,0,0,1-.436-1.561,3.133,3.133,0,0,1,1.029-2.461,4.052,4.052,0,0,1,2.8-.917,4.079,4.079,0,0,1,2.793.909A3.121,3.121,0,0,1,8.7-8.874ZM6.549-3.486a1.74,1.74,0,0,0-.457-1.262,1.628,1.628,0,0,0-1.229-.473,1.625,1.625,0,0,0-1.22.469,1.737,1.737,0,0,0-.457,1.266,1.736,1.736,0,0,0,.448,1.245,1.633,1.633,0,0,0,1.245.473,1.629,1.629,0,0,0,1.224-.457A1.733,1.733,0,0,0,6.549-3.486ZM6.3-8.757A1.66,1.66,0,0,0,5.927-9.89a1.325,1.325,0,0,0-1.054-.427A1.335,1.335,0,0,0,3.827-9.9a1.651,1.651,0,0,0-.374,1.146A1.735,1.735,0,0,0,3.827-7.6a1.307,1.307,0,0,0,1.054.44,1.3,1.3,0,0,0,1.05-.44A1.747,1.747,0,0,0,6.3-8.757Zm12.493-1.99L14.12,0H11.588L16.27-10.152H10.26v-1.934h8.533ZM28.613,0H20.329V-1.644l3.91-4.167a9.645,9.645,0,0,0,1.191-1.536,2.467,2.467,0,0,0,.386-1.245,1.846,1.846,0,0,0-.407-1.266,1.468,1.468,0,0,0-1.162-.461,1.584,1.584,0,0,0-1.282.56A2.219,2.219,0,0,0,22.5-8.284H20.088a3.962,3.962,0,0,1,.527-2.017,3.715,3.715,0,0,1,1.49-1.432,4.529,4.529,0,0,1,2.183-.519,4.288,4.288,0,0,1,2.9.9,3.172,3.172,0,0,1,1.033,2.532A4.064,4.064,0,0,1,27.758-7a10.148,10.148,0,0,1-1.594,2.167l-2.748,2.9h5.2Z" transform="translate(545.866 5438.583)" fill="#fff"/>
        <path id="Trazado_194588" data-name="Trazado 194588" d="M6.433-4.831a3.029,3.029,0,0,1-2.191.921,3.24,3.24,0,0,1-2.565-1.1A4.347,4.347,0,0,1,.714-7.977a4.63,4.63,0,0,1,.519-2.179A3.806,3.806,0,0,1,2.681-11.7a4.019,4.019,0,0,1,2.092-.552,3.844,3.844,0,0,1,2.125.6A3.929,3.929,0,0,1,8.342-9.936a6.169,6.169,0,0,1,.523,2.565v.888a6.991,6.991,0,0,1-1.5,4.748A5.68,5.68,0,0,1,3.1.108L2.515.116v-2l.531-.008Q6.176-2.034,6.433-4.831Zm-1.6-.913a1.678,1.678,0,0,0,1-.3,2,2,0,0,0,.635-.722v-.988A3.3,3.3,0,0,0,6-9.646a1.443,1.443,0,0,0-1.245-.672,1.4,1.4,0,0,0-1.187.66A2.806,2.806,0,0,0,3.1-8a2.731,2.731,0,0,0,.452,1.623A1.474,1.474,0,0,0,4.831-5.744Zm11.355.913A3.029,3.029,0,0,1,14-3.91a3.24,3.24,0,0,1-2.565-1.1,4.347,4.347,0,0,1-.963-2.968,4.63,4.63,0,0,1,.519-2.179A3.806,3.806,0,0,1,12.435-11.7a4.019,4.019,0,0,1,2.092-.552,3.844,3.844,0,0,1,2.125.6A3.929,3.929,0,0,1,18.1-9.936a6.169,6.169,0,0,1,.523,2.565v.888a6.991,6.991,0,0,1-1.5,4.748A5.68,5.68,0,0,1,12.858.108l-.589.008v-2l.531-.008Q15.929-2.034,16.187-4.831Zm-1.6-.913a1.678,1.678,0,0,0,1-.3,2,2,0,0,0,.635-.722v-.988a3.3,3.3,0,0,0-.465-1.893,1.443,1.443,0,0,0-1.245-.672,1.4,1.4,0,0,0-1.187.66A2.806,2.806,0,0,0,12.858-8a2.731,2.731,0,0,0,.452,1.623A1.474,1.474,0,0,0,14.584-5.744ZM28.206-8.874a2.811,2.811,0,0,1-.44,1.561,3.166,3.166,0,0,1-1.212,1.087,3.5,3.5,0,0,1,1.395,1.166,2.992,2.992,0,0,1,.515,1.747,3.168,3.168,0,0,1-1.1,2.544,4.445,4.445,0,0,1-2.98.934A4.465,4.465,0,0,1,21.4-.772a3.16,3.16,0,0,1-1.1-2.54,3.011,3.011,0,0,1,.515-1.751A3.442,3.442,0,0,1,22.2-6.226a3.134,3.134,0,0,1-1.208-1.087,2.831,2.831,0,0,1-.436-1.561,3.133,3.133,0,0,1,1.029-2.461,4.052,4.052,0,0,1,2.8-.917,4.079,4.079,0,0,1,2.793.909A3.121,3.121,0,0,1,28.206-8.874Zm-2.15,5.387A1.74,1.74,0,0,0,25.6-4.748a1.628,1.628,0,0,0-1.229-.473,1.625,1.625,0,0,0-1.22.469,1.737,1.737,0,0,0-.457,1.266,1.736,1.736,0,0,0,.448,1.245,1.633,1.633,0,0,0,1.245.473,1.629,1.629,0,0,0,1.224-.457A1.733,1.733,0,0,0,26.056-3.486Zm-.249-5.271a1.66,1.66,0,0,0-.374-1.133,1.325,1.325,0,0,0-1.054-.427,1.335,1.335,0,0,0-1.046.415,1.651,1.651,0,0,0-.374,1.146A1.735,1.735,0,0,0,23.333-7.6a1.307,1.307,0,0,0,1.054.44,1.3,1.3,0,0,0,1.05-.44A1.747,1.747,0,0,0,25.807-8.757Z" transform="translate(545.866 5467.618)" fill="#fff"/>
        <path id="Trazado_194589" data-name="Trazado 194589" d="M6.433-4.831a3.029,3.029,0,0,1-2.191.921,3.24,3.24,0,0,1-2.565-1.1A4.347,4.347,0,0,1,.714-7.977a4.63,4.63,0,0,1,.519-2.179A3.806,3.806,0,0,1,2.681-11.7a4.019,4.019,0,0,1,2.092-.552,3.844,3.844,0,0,1,2.125.6A3.929,3.929,0,0,1,8.342-9.936a6.169,6.169,0,0,1,.523,2.565v.888a6.991,6.991,0,0,1-1.5,4.748A5.68,5.68,0,0,1,3.1.108L2.515.116v-2l.531-.008Q6.176-2.034,6.433-4.831Zm-1.6-.913a1.678,1.678,0,0,0,1-.3,2,2,0,0,0,.635-.722v-.988A3.3,3.3,0,0,0,6-9.646a1.443,1.443,0,0,0-1.245-.672,1.4,1.4,0,0,0-1.187.66A2.806,2.806,0,0,0,3.1-8a2.731,2.731,0,0,0,.452,1.623A1.474,1.474,0,0,0,4.831-5.744Zm11.355.913A3.029,3.029,0,0,1,14-3.91a3.24,3.24,0,0,1-2.565-1.1,4.347,4.347,0,0,1-.963-2.968,4.63,4.63,0,0,1,.519-2.179A3.806,3.806,0,0,1,12.435-11.7a4.019,4.019,0,0,1,2.092-.552,3.844,3.844,0,0,1,2.125.6A3.929,3.929,0,0,1,18.1-9.936a6.169,6.169,0,0,1,.523,2.565v.888a6.991,6.991,0,0,1-1.5,4.748A5.68,5.68,0,0,1,12.858.108l-.589.008v-2l.531-.008Q15.929-2.034,16.187-4.831Zm-1.6-.913a1.678,1.678,0,0,0,1-.3,2,2,0,0,0,.635-.722v-.988a3.3,3.3,0,0,0-.465-1.893,1.443,1.443,0,0,0-1.245-.672,1.4,1.4,0,0,0-1.187.66A2.806,2.806,0,0,0,12.858-8a2.731,2.731,0,0,0,.452,1.623A1.474,1.474,0,0,0,14.584-5.744Zm11.355.913a3.029,3.029,0,0,1-2.191.921,3.24,3.24,0,0,1-2.565-1.1,4.347,4.347,0,0,1-.963-2.968,4.63,4.63,0,0,1,.519-2.179A3.806,3.806,0,0,1,22.188-11.7a4.019,4.019,0,0,1,2.092-.552,3.844,3.844,0,0,1,2.125.6,3.929,3.929,0,0,1,1.444,1.718,6.169,6.169,0,0,1,.523,2.565v.888a6.991,6.991,0,0,1-1.5,4.748A5.68,5.68,0,0,1,22.611.108l-.589.008v-2l.531-.008Q25.683-2.034,25.94-4.831Zm-1.6-.913a1.678,1.678,0,0,0,1-.3,2,2,0,0,0,.635-.722v-.988a3.3,3.3,0,0,0-.465-1.893,1.443,1.443,0,0,0-1.245-.672,1.4,1.4,0,0,0-1.187.66A2.806,2.806,0,0,0,22.611-8a2.731,2.731,0,0,0,.452,1.623A1.474,1.474,0,0,0,24.338-5.744Z" transform="translate(545.866 5495.202)" fill="#fff"/>
        <path id="Trazado_194590" data-name="Trazado 194590" d="M8.7-8.874a2.811,2.811,0,0,1-.44,1.561A3.166,3.166,0,0,1,7.047-6.226,3.5,3.5,0,0,1,8.442-5.059a2.992,2.992,0,0,1,.515,1.747,3.168,3.168,0,0,1-1.1,2.544,4.445,4.445,0,0,1-2.98.934A4.465,4.465,0,0,1,1.893-.772a3.16,3.16,0,0,1-1.1-2.54A3.011,3.011,0,0,1,1.3-5.063,3.442,3.442,0,0,1,2.689-6.226,3.134,3.134,0,0,1,1.482-7.313a2.831,2.831,0,0,1-.436-1.561,3.133,3.133,0,0,1,1.029-2.461,4.052,4.052,0,0,1,2.8-.917,4.079,4.079,0,0,1,2.793.909A3.121,3.121,0,0,1,8.7-8.874ZM6.549-3.486a1.74,1.74,0,0,0-.457-1.262,1.628,1.628,0,0,0-1.229-.473,1.625,1.625,0,0,0-1.22.469,1.737,1.737,0,0,0-.457,1.266,1.736,1.736,0,0,0,.448,1.245,1.633,1.633,0,0,0,1.245.473,1.629,1.629,0,0,0,1.224-.457A1.733,1.733,0,0,0,6.549-3.486ZM6.3-8.757A1.66,1.66,0,0,0,5.927-9.89a1.325,1.325,0,0,0-1.054-.427A1.335,1.335,0,0,0,3.827-9.9a1.651,1.651,0,0,0-.374,1.146A1.735,1.735,0,0,0,3.827-7.6a1.307,1.307,0,0,0,1.054.44,1.3,1.3,0,0,0,1.05-.44A1.747,1.747,0,0,0,6.3-8.757Zm12.493-1.99L14.12,0H11.588L16.27-10.152H10.26v-1.934h8.533Zm3.976,3.641h1.278A1.8,1.8,0,0,0,25.4-7.562a1.673,1.673,0,0,0,.44-1.212A1.479,1.479,0,0,0,25.4-9.911a1.689,1.689,0,0,0-1.2-.407,1.77,1.77,0,0,0-1.154.378,1.208,1.208,0,0,0-.465.984h-2.4a2.95,2.95,0,0,1,.51-1.7,3.4,3.4,0,0,1,1.428-1.175,4.765,4.765,0,0,1,2.021-.423,4.519,4.519,0,0,1,3,.917,3.13,3.13,0,0,1,1.087,2.528,2.543,2.543,0,0,1-.506,1.527A3.29,3.29,0,0,1,26.4-6.209a3,3,0,0,1,1.523,1.1,2.972,2.972,0,0,1,.5,1.727A3.181,3.181,0,0,1,27.256-.805a4.723,4.723,0,0,1-3.109.971,4.478,4.478,0,0,1-2.959-.955,3.118,3.118,0,0,1-1.15-2.523h2.4a1.39,1.39,0,0,0,.51,1.112,1.881,1.881,0,0,0,1.258.432,1.89,1.89,0,0,0,1.341-.452,1.562,1.562,0,0,0,.486-1.2q0-1.81-1.992-1.81h-1.27Z" transform="translate(545.866 5328.249)" fill="#fff"/>
        <path id="Trazado_194591" data-name="Trazado 194591" d="M1.109-5.594l.656-5.781H8.141v1.883H3.617L3.336-7.047a3.58,3.58,0,0,1,1.711-.43A3.279,3.279,0,0,1,7.594-6.469a4.026,4.026,0,0,1,.922,2.82,4.124,4.124,0,0,1-.465,1.973A3.281,3.281,0,0,1,6.719-.324a4.158,4.158,0,0,1-2.047.48A4.416,4.416,0,0,1,2.758-.262,3.4,3.4,0,0,1,1.363-1.437,3.2,3.2,0,0,1,.82-3.164H3.055a1.669,1.669,0,0,0,.5,1.105,1.573,1.573,0,0,0,1.113.395,1.388,1.388,0,0,0,1.18-.551,2.551,2.551,0,0,0,.414-1.559,2.11,2.11,0,0,0-.477-1.484A1.749,1.749,0,0,0,4.43-5.773a1.954,1.954,0,0,0-1.3.422l-.219.2ZM17.75,0h-7.8V-1.547l3.68-3.922a9.078,9.078,0,0,0,1.121-1.445,2.322,2.322,0,0,0,.363-1.172,1.738,1.738,0,0,0-.383-1.191,1.382,1.382,0,0,0-1.094-.434,1.49,1.49,0,0,0-1.207.527A2.089,2.089,0,0,0,11.992-7.8H9.727a3.729,3.729,0,0,1,.5-1.9,3.5,3.5,0,0,1,1.4-1.348,4.262,4.262,0,0,1,2.055-.488,4.036,4.036,0,0,1,2.73.844A2.985,2.985,0,0,1,17.383-8.3a3.825,3.825,0,0,1-.437,1.719,9.551,9.551,0,0,1-1.5,2.039L12.859-1.82H17.75Zm6.867,0H22.359V-8.7l-2.7.836V-9.7l4.711-1.687h.242ZM32.8-3.961H28.4v-1.82h4.4ZM40,0H37.742V-8.7l-2.7.836V-9.7l4.711-1.687H40ZM51.492,0H43.7V-1.547l3.68-3.922A9.078,9.078,0,0,0,48.5-6.914a2.322,2.322,0,0,0,.363-1.172,1.738,1.738,0,0,0-.383-1.191,1.382,1.382,0,0,0-1.094-.434,1.49,1.49,0,0,0-1.207.527A2.089,2.089,0,0,0,45.734-7.8H43.469a3.729,3.729,0,0,1,.5-1.9,3.5,3.5,0,0,1,1.4-1.348,4.262,4.262,0,0,1,2.055-.488,4.036,4.036,0,0,1,2.73.844A2.985,2.985,0,0,1,51.125-8.3a3.825,3.825,0,0,1-.437,1.719,9.551,9.551,0,0,1-1.5,2.039L46.6-1.82h4.891Zm3.68-6.687h1.2a1.7,1.7,0,0,0,1.273-.43,1.574,1.574,0,0,0,.414-1.141,1.392,1.392,0,0,0-.41-1.07,1.59,1.59,0,0,0-1.129-.383,1.666,1.666,0,0,0-1.086.355A1.137,1.137,0,0,0,55-8.43H52.742a2.777,2.777,0,0,1,.48-1.6,3.2,3.2,0,0,1,1.344-1.105,4.485,4.485,0,0,1,1.9-.4,4.253,4.253,0,0,1,2.828.863A2.945,2.945,0,0,1,60.32-8.289a2.394,2.394,0,0,1-.477,1.438,3.1,3.1,0,0,1-1.25,1.008,2.826,2.826,0,0,1,1.434,1.031A2.8,2.8,0,0,1,60.5-3.187a2.994,2.994,0,0,1-1.105,2.43,4.445,4.445,0,0,1-2.926.914,4.214,4.214,0,0,1-2.785-.9A2.934,2.934,0,0,1,52.6-3.117h2.258a1.308,1.308,0,0,0,.48,1.047,1.771,1.771,0,0,0,1.184.406,1.779,1.779,0,0,0,1.262-.426,1.47,1.47,0,0,0,.457-1.129q0-1.7-1.875-1.7h-1.2ZM68.734-4.281h1.289v1.82H68.734V0H66.477V-2.461H61.813l-.1-1.422,4.742-7.492h2.281Zm-4.773,0h2.516V-8.3l-.148.258Z" transform="translate(606.84 5327.249)" fill="#fff"/>
        <path id="Trazado_194592" data-name="Trazado 194592" d="M1.109-5.594l.656-5.781H8.141v1.883H3.617L3.336-7.047a3.58,3.58,0,0,1,1.711-.43A3.279,3.279,0,0,1,7.594-6.469a4.026,4.026,0,0,1,.922,2.82,4.124,4.124,0,0,1-.465,1.973A3.281,3.281,0,0,1,6.719-.324a4.158,4.158,0,0,1-2.047.48A4.416,4.416,0,0,1,2.758-.262,3.4,3.4,0,0,1,1.363-1.437,3.2,3.2,0,0,1,.82-3.164H3.055a1.669,1.669,0,0,0,.5,1.105,1.573,1.573,0,0,0,1.113.395,1.388,1.388,0,0,0,1.18-.551,2.551,2.551,0,0,0,.414-1.559,2.11,2.11,0,0,0-.477-1.484A1.749,1.749,0,0,0,4.43-5.773a1.954,1.954,0,0,0-1.3.422l-.219.2ZM17.75,0h-7.8V-1.547l3.68-3.922a9.078,9.078,0,0,0,1.121-1.445,2.322,2.322,0,0,0,.363-1.172,1.738,1.738,0,0,0-.383-1.191,1.382,1.382,0,0,0-1.094-.434,1.49,1.49,0,0,0-1.207.527A2.089,2.089,0,0,0,11.992-7.8H9.727a3.729,3.729,0,0,1,.5-1.9,3.5,3.5,0,0,1,1.4-1.348,4.262,4.262,0,0,1,2.055-.488,4.036,4.036,0,0,1,2.73.844A2.985,2.985,0,0,1,17.383-8.3a3.825,3.825,0,0,1-.437,1.719,9.551,9.551,0,0,1-1.5,2.039L12.859-1.82H17.75Zm6.867,0H22.359V-8.7l-2.7.836V-9.7l4.711-1.687h.242ZM32.8-3.961H28.4v-1.82h4.4Zm2.055-1.633.656-5.781h6.375v1.883H37.359l-.281,2.445a3.58,3.58,0,0,1,1.711-.43,3.279,3.279,0,0,1,2.547,1.008,4.026,4.026,0,0,1,.922,2.82,4.124,4.124,0,0,1-.465,1.973A3.281,3.281,0,0,1,40.461-.324a4.158,4.158,0,0,1-2.047.48A4.416,4.416,0,0,1,36.5-.262a3.4,3.4,0,0,1-1.395-1.176,3.2,3.2,0,0,1-.543-1.727H36.8a1.669,1.669,0,0,0,.5,1.105,1.573,1.573,0,0,0,1.113.395,1.388,1.388,0,0,0,1.18-.551A2.551,2.551,0,0,0,40-3.773a2.11,2.11,0,0,0-.477-1.484,1.749,1.749,0,0,0-1.352-.516,1.954,1.954,0,0,0-1.3.422l-.219.2Zm16.5.891a5.762,5.762,0,0,1-.977,3.609A3.409,3.409,0,0,1,47.516.156,3.433,3.433,0,0,1,44.672-1.07a5.594,5.594,0,0,1-1.008-3.516V-6.68a5.687,5.687,0,0,1,.988-3.617A3.434,3.434,0,0,1,47.5-11.531a3.437,3.437,0,0,1,2.844,1.223A5.576,5.576,0,0,1,51.352-6.8Zm-2.258-2.3a4.165,4.165,0,0,0-.387-2.061A1.307,1.307,0,0,0,47.5-9.711a1.284,1.284,0,0,0-1.176.614,3.9,3.9,0,0,0-.4,1.92v2.768A4.372,4.372,0,0,0,46.3-2.341a1.29,1.29,0,0,0,1.215.676,1.268,1.268,0,0,0,1.2-.649A4.268,4.268,0,0,0,49.094-4.3Zm6.078.318h1.2a1.7,1.7,0,0,0,1.273-.43,1.574,1.574,0,0,0,.414-1.141,1.392,1.392,0,0,0-.41-1.07,1.59,1.59,0,0,0-1.129-.383,1.666,1.666,0,0,0-1.086.355A1.137,1.137,0,0,0,55-8.43H52.742a2.777,2.777,0,0,1,.48-1.6,3.2,3.2,0,0,1,1.344-1.105,4.485,4.485,0,0,1,1.9-.4,4.253,4.253,0,0,1,2.828.863A2.945,2.945,0,0,1,60.32-8.289a2.394,2.394,0,0,1-.477,1.438,3.1,3.1,0,0,1-1.25,1.008,2.826,2.826,0,0,1,1.434,1.031A2.8,2.8,0,0,1,60.5-3.187a2.994,2.994,0,0,1-1.105,2.43,4.445,4.445,0,0,1-2.926.914,4.214,4.214,0,0,1-2.785-.9A2.934,2.934,0,0,1,52.6-3.117h2.258a1.308,1.308,0,0,0,.48,1.047,1.771,1.771,0,0,0,1.184.406,1.779,1.779,0,0,0,1.262-.426,1.47,1.47,0,0,0,.457-1.129q0-1.7-1.875-1.7h-1.2ZM69.711-4.7a5.763,5.763,0,0,1-.977,3.609A3.409,3.409,0,0,1,65.875.156,3.433,3.433,0,0,1,63.031-1.07a5.594,5.594,0,0,1-1.008-3.516V-6.68a5.687,5.687,0,0,1,.988-3.617,3.434,3.434,0,0,1,2.848-1.234A3.437,3.437,0,0,1,68.7-10.309,5.576,5.576,0,0,1,69.711-6.8Zm-2.258-2.3a4.165,4.165,0,0,0-.387-2.061,1.307,1.307,0,0,0-1.207-.645,1.284,1.284,0,0,0-1.176.614,3.9,3.9,0,0,0-.4,1.92v2.768a4.373,4.373,0,0,0,.379,2.068,1.29,1.29,0,0,0,1.215.676,1.268,1.268,0,0,0,1.2-.649A4.268,4.268,0,0,0,67.453-4.3Z" transform="translate(606.84 5466.618)" fill="#fff"/>
        <path id="Trazado_194593" data-name="Trazado 194593" d="M1.109-5.594l.656-5.781H8.141v1.883H3.617L3.336-7.047a3.58,3.58,0,0,1,1.711-.43A3.279,3.279,0,0,1,7.594-6.469a4.026,4.026,0,0,1,.922,2.82,4.124,4.124,0,0,1-.465,1.973A3.281,3.281,0,0,1,6.719-.324a4.158,4.158,0,0,1-2.047.48A4.416,4.416,0,0,1,2.758-.262,3.4,3.4,0,0,1,1.363-1.437,3.2,3.2,0,0,1,.82-3.164H3.055a1.669,1.669,0,0,0,.5,1.105,1.573,1.573,0,0,0,1.113.395,1.388,1.388,0,0,0,1.18-.551,2.551,2.551,0,0,0,.414-1.559,2.11,2.11,0,0,0-.477-1.484A1.749,1.749,0,0,0,4.43-5.773a1.954,1.954,0,0,0-1.3.422l-.219.2ZM17.75,0h-7.8V-1.547l3.68-3.922a9.078,9.078,0,0,0,1.121-1.445,2.322,2.322,0,0,0,.363-1.172,1.738,1.738,0,0,0-.383-1.191,1.382,1.382,0,0,0-1.094-.434,1.49,1.49,0,0,0-1.207.527A2.089,2.089,0,0,0,11.992-7.8H9.727a3.729,3.729,0,0,1,.5-1.9,3.5,3.5,0,0,1,1.4-1.348,4.262,4.262,0,0,1,2.055-.488,4.036,4.036,0,0,1,2.73.844A2.985,2.985,0,0,1,17.383-8.3a3.825,3.825,0,0,1-.437,1.719,9.551,9.551,0,0,1-1.5,2.039L12.859-1.82H17.75Zm6.867,0H22.359V-8.7l-2.7.836V-9.7l4.711-1.687h.242ZM32.8-3.961H28.4v-1.82h4.4ZM41.93-8.352a2.646,2.646,0,0,1-.414,1.469,2.98,2.98,0,0,1-1.141,1.023,3.3,3.3,0,0,1,1.313,1.1,2.816,2.816,0,0,1,.484,1.645A2.981,2.981,0,0,1,41.141-.723a4.183,4.183,0,0,1-2.8.879,4.2,4.2,0,0,1-2.812-.883,2.974,2.974,0,0,1-1.039-2.391,2.834,2.834,0,0,1,.484-1.648,3.239,3.239,0,0,1,1.3-1.094,2.95,2.95,0,0,1-1.137-1.023,2.664,2.664,0,0,1-.41-1.469,2.948,2.948,0,0,1,.969-2.316,3.814,3.814,0,0,1,2.633-.863,3.839,3.839,0,0,1,2.629.855A2.937,2.937,0,0,1,41.93-8.352Zm-2.023,5.07a1.638,1.638,0,0,0-.43-1.187,1.532,1.532,0,0,0-1.156-.445,1.529,1.529,0,0,0-1.148.441,1.635,1.635,0,0,0-.43,1.191,1.634,1.634,0,0,0,.422,1.172,1.537,1.537,0,0,0,1.172.445,1.533,1.533,0,0,0,1.152-.43A1.631,1.631,0,0,0,39.906-3.281Zm-.234-4.961a1.563,1.563,0,0,0-.352-1.066,1.247,1.247,0,0,0-.992-.4,1.256,1.256,0,0,0-.984.391,1.553,1.553,0,0,0-.352,1.078,1.633,1.633,0,0,0,.352,1.094,1.23,1.23,0,0,0,.992.414,1.219,1.219,0,0,0,.988-.414A1.645,1.645,0,0,0,39.672-8.242Zm9.3,3.7a2.851,2.851,0,0,1-2.062.867A3.049,3.049,0,0,1,44.5-4.715a4.091,4.091,0,0,1-.906-2.793,4.357,4.357,0,0,1,.488-2.051,3.582,3.582,0,0,1,1.363-1.453,3.782,3.782,0,0,1,1.969-.52,3.617,3.617,0,0,1,2,.563,3.7,3.7,0,0,1,1.359,1.617,5.806,5.806,0,0,1,.492,2.414V-6.1a6.579,6.579,0,0,1-1.414,4.469A5.346,5.346,0,0,1,45.844.1l-.555.008V-1.773l.5-.008Q48.734-1.914,48.977-4.547Zm-1.508-.859a1.579,1.579,0,0,0,.941-.281,1.879,1.879,0,0,0,.6-.68V-7.3a3.1,3.1,0,0,0-.437-1.781A1.358,1.358,0,0,0,47.4-9.711a1.318,1.318,0,0,0-1.117.621,2.641,2.641,0,0,0-.437,1.559A2.57,2.57,0,0,0,46.27-6,1.387,1.387,0,0,0,47.469-5.406Zm13.141-4.708L56.211,0H53.828l4.406-9.555H52.578v-1.82h8.031Zm7.57-1.377v1.859h-.219a3.836,3.836,0,0,0-2.465.8,3.238,3.238,0,0,0-1.121,2.148,3.075,3.075,0,0,1,2.289-.922,2.9,2.9,0,0,1,2.359,1.063,4.259,4.259,0,0,1,.875,2.8,4.19,4.19,0,0,1-.48,2.008,3.446,3.446,0,0,1-1.359,1.4,3.949,3.949,0,0,1-1.988.5,3.689,3.689,0,0,1-2.9-1.25A4.852,4.852,0,0,1,62.063-4.43v-.812a7.3,7.3,0,0,1,.7-3.27,5.127,5.127,0,0,1,2.008-2.2,5.884,5.884,0,0,1,3.035-.785Zm-2.2,5.7a1.8,1.8,0,0,0-.992.285,1.715,1.715,0,0,0-.656.753v.686A3.04,3.04,0,0,0,64.773-2.3a1.439,1.439,0,0,0,1.25.635A1.423,1.423,0,0,0,67.2-2.237a2.337,2.337,0,0,0,.449-1.485,2.333,2.333,0,0,0-.453-1.5A1.477,1.477,0,0,0,65.977-5.789Z" transform="translate(606.84 5212.56)" fill="#fff"/>
        <path id="Trazado_194594" data-name="Trazado 194594" d="M3.359-1.883H8.336V0H1.016V-11.375H3.359ZM11.914,0H9.648V-8.453h2.266Zm-2.4-10.641a1.112,1.112,0,0,1,.34-.836,1.277,1.277,0,0,1,.926-.328,1.28,1.28,0,0,1,.922.328,1.105,1.105,0,0,1,.344.836A1.108,1.108,0,0,1,11.7-9.8a1.283,1.283,0,0,1-.918.328A1.283,1.283,0,0,1,9.863-9.8,1.108,1.108,0,0,1,9.516-10.641Zm8.836,8.3a.727.727,0,0,0-.41-.652,4.659,4.659,0,0,0-1.316-.426q-3.016-.633-3.016-2.562a2.323,2.323,0,0,1,.934-1.879,3.766,3.766,0,0,1,2.441-.754,4.053,4.053,0,0,1,2.574.758,2.388,2.388,0,0,1,.965,1.969H18.266a1.092,1.092,0,0,0-.312-.8A1.322,1.322,0,0,0,16.977-7a1.351,1.351,0,0,0-.883.258.814.814,0,0,0-.312.656.7.7,0,0,0,.355.605,3.657,3.657,0,0,0,1.2.4,9.8,9.8,0,0,1,1.422.379A2.336,2.336,0,0,1,20.547-2.43a2.2,2.2,0,0,1-.992,1.871,4.28,4.28,0,0,1-2.562.715,4.47,4.47,0,0,1-1.887-.379,3.166,3.166,0,0,1-1.293-1.039,2.414,2.414,0,0,1-.469-1.426h2.141a1.179,1.179,0,0,0,.445.922,1.766,1.766,0,0,0,1.109.32,1.635,1.635,0,0,0,.98-.246A.766.766,0,0,0,18.352-2.336ZM26.9,0a2.507,2.507,0,0,1-.227-.758,2.732,2.732,0,0,1-2.133.914A3,3,0,0,1,22.48-.562a2.312,2.312,0,0,1-.816-1.812,2.389,2.389,0,0,1,1-2.062,4.915,4.915,0,0,1,2.879-.727h1.039v-.484a1.393,1.393,0,0,0-.3-.937,1.183,1.183,0,0,0-.949-.352,1.345,1.345,0,0,0-.895.273.929.929,0,0,0-.324.75H21.852A2.268,2.268,0,0,1,22.3-7.273a3,3,0,0,1,1.281-.98,4.669,4.669,0,0,1,1.859-.355,3.689,3.689,0,0,1,2.48.785,2.747,2.747,0,0,1,.918,2.207v3.664a4.041,4.041,0,0,0,.336,1.82V0ZM25.031-1.57a1.945,1.945,0,0,0,.922-.223,1.462,1.462,0,0,0,.625-.6V-3.844h-.844q-1.7,0-1.8,1.172l-.008.133a.9.9,0,0,0,.3.7A1.153,1.153,0,0,0,25.031-1.57ZM40.609-2.984A1.2,1.2,0,0,0,40.141-4a6.148,6.148,0,0,0-1.687-.75,11.962,11.962,0,0,1-1.93-.777,3.153,3.153,0,0,1-1.937-2.82A2.747,2.747,0,0,1,35.105-10,3.389,3.389,0,0,1,36.6-11.125a5.616,5.616,0,0,1,2.184-.406,5.112,5.112,0,0,1,2.172.441,3.458,3.458,0,0,1,1.48,1.246,3.261,3.261,0,0,1,.527,1.828H40.617a1.534,1.534,0,0,0-.492-1.215,2.023,2.023,0,0,0-1.383-.434,2.162,2.162,0,0,0-1.336.363,1.146,1.146,0,0,0-.477.957,1.1,1.1,0,0,0,.559.93,6.311,6.311,0,0,0,1.645.7,7.106,7.106,0,0,1,2.914,1.492A2.972,2.972,0,0,1,42.961-3,2.737,2.737,0,0,1,41.844-.684a4.891,4.891,0,0,1-3.008.84,5.808,5.808,0,0,1-2.391-.48A3.783,3.783,0,0,1,34.8-1.641a3.371,3.371,0,0,1-.566-1.937h2.352q0,1.883,2.25,1.883a2.189,2.189,0,0,0,1.3-.34A1.106,1.106,0,0,0,40.609-2.984Zm5.906-5.469.07.945a2.971,2.971,0,0,1,2.43-1.1A2.255,2.255,0,0,1,51.258-7.32,2.9,2.9,0,0,1,53.8-8.609a2.521,2.521,0,0,1,2.047.8,3.681,3.681,0,0,1,.672,2.41V0H54.25V-5.391a1.61,1.61,0,0,0-.281-1.051,1.246,1.246,0,0,0-.992-.332A1.409,1.409,0,0,0,51.57-5.8L51.578,0H49.32V-5.383a1.59,1.59,0,0,0-.289-1.062,1.259,1.259,0,0,0-.984-.328,1.463,1.463,0,0,0-1.391.8V0H44.4V-8.453ZM60.633,0H58.367V-8.453h2.266Zm-2.4-10.641a1.112,1.112,0,0,1,.34-.836A1.277,1.277,0,0,1,59.5-11.8a1.28,1.28,0,0,1,.922.328,1.105,1.105,0,0,1,.344.836,1.108,1.108,0,0,1-.348.844,1.283,1.283,0,0,1-.918.328,1.283,1.283,0,0,1-.918-.328A1.108,1.108,0,0,1,58.234-10.641Zm6.961.109v2.078h1.445V-6.8H65.2v4.219a1.007,1.007,0,0,0,.18.672.9.9,0,0,0,.688.2,3.6,3.6,0,0,0,.664-.055V-.047a4.648,4.648,0,0,1-1.367.2,2.156,2.156,0,0,1-2.422-2.4V-6.8H61.7V-8.453h1.234v-2.078Zm4.906,3a2.818,2.818,0,0,1,2.258-1.078q2.75,0,2.789,3.2V0H72.891V-5.352a1.57,1.57,0,0,0-.312-1.074,1.34,1.34,0,0,0-1.039-.348,1.537,1.537,0,0,0-1.437.766V0H67.844V-12H70.1Z" transform="translate(283.856 5340.314)" fill="#fff"/>
        <path id="Trazado_194595" data-name="Trazado 194595" d="M6.914-2.984A1.2,1.2,0,0,0,6.445-4a6.148,6.148,0,0,0-1.687-.75,11.963,11.963,0,0,1-1.93-.777A3.153,3.153,0,0,1,.891-8.352,2.747,2.747,0,0,1,1.41-10,3.389,3.389,0,0,1,2.9-11.125a5.616,5.616,0,0,1,2.184-.406,5.112,5.112,0,0,1,2.172.441,3.458,3.458,0,0,1,1.48,1.246,3.261,3.261,0,0,1,.527,1.828H6.922A1.534,1.534,0,0,0,6.43-9.23a2.023,2.023,0,0,0-1.383-.434A2.162,2.162,0,0,0,3.711-9.3a1.146,1.146,0,0,0-.477.957,1.1,1.1,0,0,0,.559.93,6.311,6.311,0,0,0,1.645.7A7.106,7.106,0,0,1,8.352-5.219,2.972,2.972,0,0,1,9.266-3,2.737,2.737,0,0,1,8.148-.684a4.891,4.891,0,0,1-3.008.84A5.808,5.808,0,0,1,2.75-.324,3.783,3.783,0,0,1,1.105-1.641,3.371,3.371,0,0,1,.539-3.578H2.891q0,1.883,2.25,1.883a2.189,2.189,0,0,0,1.3-.34A1.106,1.106,0,0,0,6.914-2.984ZM15.6,0a2.507,2.507,0,0,1-.227-.758,2.732,2.732,0,0,1-2.133.914,3,3,0,0,1-2.059-.719,2.312,2.312,0,0,1-.816-1.812,2.389,2.389,0,0,1,1-2.062,4.915,4.915,0,0,1,2.879-.727h1.039v-.484a1.393,1.393,0,0,0-.3-.937,1.183,1.183,0,0,0-.949-.352,1.345,1.345,0,0,0-.895.273.929.929,0,0,0-.324.75H10.555a2.268,2.268,0,0,1,.453-1.359,3,3,0,0,1,1.281-.98,4.669,4.669,0,0,1,1.859-.355,3.689,3.689,0,0,1,2.48.785,2.747,2.747,0,0,1,.918,2.207v3.664a4.041,4.041,0,0,0,.336,1.82V0ZM13.734-1.57a1.945,1.945,0,0,0,.922-.223,1.462,1.462,0,0,0,.625-.6V-3.844h-.844q-1.7,0-1.8,1.172l-.008.133a.9.9,0,0,0,.3.7A1.153,1.153,0,0,0,13.734-1.57ZM21.4-8.453l.07.945a2.971,2.971,0,0,1,2.43-1.1A2.255,2.255,0,0,1,26.141-7.32,2.9,2.9,0,0,1,28.68-8.609a2.521,2.521,0,0,1,2.047.8A3.681,3.681,0,0,1,31.4-5.4V0H29.133V-5.391a1.61,1.61,0,0,0-.281-1.051,1.246,1.246,0,0,0-.992-.332,1.409,1.409,0,0,0-1.406.969L26.461,0H24.2V-5.383a1.59,1.59,0,0,0-.289-1.062,1.259,1.259,0,0,0-.984-.328,1.463,1.463,0,0,0-1.391.8V0H19.281V-8.453ZM37.266,0V-11.375h3.5a5.315,5.315,0,0,1,2.684.676A4.712,4.712,0,0,1,45.3-8.777a5.928,5.928,0,0,1,.664,2.832v.523a5.945,5.945,0,0,1-.652,2.82,4.672,4.672,0,0,1-1.84,1.914A5.355,5.355,0,0,1,40.789,0Zm2.344-9.477v7.594h1.133a2.545,2.545,0,0,0,2.1-.9,4.06,4.06,0,0,0,.742-2.57v-.6a4.124,4.124,0,0,0-.719-2.629,2.537,2.537,0,0,0-2.1-.895ZM47.164-4.3a5.013,5.013,0,0,1,.484-2.242A3.546,3.546,0,0,1,49.043-8.07a4.069,4.069,0,0,1,2.113-.539,3.849,3.849,0,0,1,2.793,1.047,4.2,4.2,0,0,1,1.207,2.844l.016.578A4.418,4.418,0,0,1,54.086-1.02,3.775,3.775,0,0,1,51.172.156a3.793,3.793,0,0,1-2.918-1.172A4.5,4.5,0,0,1,47.164-4.2Zm2.258.16A3.16,3.16,0,0,0,49.875-2.3a1.5,1.5,0,0,0,1.3.638,1.5,1.5,0,0,0,1.281-.63,3.457,3.457,0,0,0,.461-2.015,3.128,3.128,0,0,0-.461-1.831,1.5,1.5,0,0,0-1.3-.649,1.474,1.474,0,0,0-1.281.646A3.516,3.516,0,0,0,49.422-4.144ZM60.453.156A4.15,4.15,0,0,1,57.426-.984a4.054,4.054,0,0,1-1.168-3.039v-.219A5.106,5.106,0,0,1,56.75-6.52a3.612,3.612,0,0,1,1.395-1.547A3.914,3.914,0,0,1,60.2-8.609a3.508,3.508,0,0,1,2.73,1.094,4.444,4.444,0,0,1,1,3.1v.922H58.547a2.1,2.1,0,0,0,.66,1.328,2,2,0,0,0,1.395.5,2.437,2.437,0,0,0,2.039-.945L63.75-1.367A3.389,3.389,0,0,1,62.375-.246,4.511,4.511,0,0,1,60.453.156ZM60.2-6.789a1.411,1.411,0,0,0-1.09.455,2.357,2.357,0,0,0-.535,1.3h3.141v-.181A1.681,1.681,0,0,0,61.3-6.377,1.456,1.456,0,0,0,60.2-6.789Z" transform="translate(290.152 5466.618)" fill="#fff"/>
        <path id="Trazado_191941" data-name="Trazado 191941" d="M3280.419-3358.7h124.969V-3485h22.5" transform="translate(-2887.379 8693.88)" fill="none" stroke="#ffb30b" stroke-miterlimit="10" stroke-width="4"/>
        <path id="Trazado_191942" data-name="Trazado 191942" d="M3280.419-3485.5h29.152v86.38H3427.89" transform="translate(-2887.379 8693.653)" fill="none" stroke="#ffb30b" stroke-miterlimit="10" stroke-width="4"/>
        <path id="Trazado_194596" data-name="Trazado 194596" d="M0,0H146.628" transform="translate(393.884 5463.664)" fill="none" stroke="#ffb30b" stroke-width="4"/>
      </g>
    </g>
    <g transform="matrix(1, 0, 0, 1, 810, 5143.97)" filter="url(#Rect치ngulo_294241)">
      <g id="Rect치ngulo_294241-2" data-name="Rect치ngulo 294241" transform="translate(22 462.07) rotate(-90)" fill="none" stroke="#b9ddfc" stroke-width="2" stroke-dasharray="10">
        <rect width="442.042" height="564.225" rx="4" stroke="none"/>
        <rect x="1" y="1" width="440.042" height="562.225" rx="3" fill="none"/>
      </g>
    </g>
  </g>
</svg>
