<svg xmlns="http://www.w3.org/2000/svg" xmlns:xlink="http://www.w3.org/1999/xlink" width="397" height="306" viewBox="0 0 397 306">
  <defs>
    <clipPath id="clip-path">
      <rect id="Rectángulo_294285" data-name="Rectángulo 294285" width="397" height="306" transform="translate(-0.348)" fill="none"/>
    </clipPath>
    <linearGradient id="linear-gradient" x1="0.672" y1="0.547" x2="-0.337" y2="0.554" gradientUnits="objectBoundingBox">
      <stop offset="0" stop-color="#dae3fe"/>
      <stop offset="1" stop-color="#e9effd"/>
    </linearGradient>
    <linearGradient id="linear-gradient-2" x1="2.241" y1="-0.069" x2="1.363" y2="0.286" gradientUnits="objectBoundingBox">
      <stop offset="0" stop-color="#09005d"/>
      <stop offset="1" stop-color="#1a0f91"/>
    </linearGradient>
    <linearGradient id="linear-gradient-3" x1="2.238" y1="-0.653" x2="1.485" y2="-0.146" xlink:href="#linear-gradient-2"/>
    <linearGradient id="linear-gradient-4" x1="9.535" y1="-2.383" x2="4.217" y2="-0.686" xlink:href="#linear-gradient-2"/>
    <linearGradient id="linear-gradient-5" x1="0" y1="0.5" x2="1" y2="0.5" xlink:href="#linear-gradient"/>
    <linearGradient id="linear-gradient-8" x1="9.72" y1="17.62" x2="10.255" y2="17.62" xlink:href="#linear-gradient-2"/>
    <linearGradient id="linear-gradient-9" x1="0.005" y1="-7.461" x2="0.246" y2="-3.587" gradientUnits="objectBoundingBox">
      <stop offset="0" stop-color="#ff928e"/>
      <stop offset="1" stop-color="#feb3b1"/>
    </linearGradient>
    <linearGradient id="linear-gradient-10" x1="0.31" y1="-2.559" x2="0.402" y2="-1.069" xlink:href="#linear-gradient-9"/>
    <linearGradient id="linear-gradient-11" x1="-0.722" y1="-11.822" x2="0.082" y2="-3.712" xlink:href="#linear-gradient-9"/>
    <linearGradient id="linear-gradient-12" x1="0.02" y1="-4.341" x2="0.336" y2="-1.153" xlink:href="#linear-gradient-9"/>
    <linearGradient id="linear-gradient-13" x1="-0.123" y1="-11.059" x2="0.188" y2="-5.295" xlink:href="#linear-gradient-9"/>
    <linearGradient id="linear-gradient-14" x1="0.25" y1="-4.143" x2="0.375" y2="-1.827" xlink:href="#linear-gradient-9"/>
    <linearGradient id="linear-gradient-15" x1="0.673" y1="-39.536" x2="0.607" y2="-24.38" xlink:href="#linear-gradient-2"/>
    <linearGradient id="linear-gradient-16" x1="0" y1="0.5" x2="1" y2="0.5" xlink:href="#linear-gradient-2"/>
    <linearGradient id="linear-gradient-17" x1="0" y1="0.5" x2="1" y2="0.5" xlink:href="#linear-gradient-9"/>
    <linearGradient id="linear-gradient-18" x1="0.96" y1="-27.798" x2="0.788" y2="-17.306" xlink:href="#linear-gradient-2"/>
    <linearGradient id="linear-gradient-19" x1="0" y1="0.5" x2="1" y2="0.5" xlink:href="#linear-gradient-2"/>
    <linearGradient id="linear-gradient-20" x1="0" y1="0.5" x2="1" y2="0.5" xlink:href="#linear-gradient-9"/>
    <linearGradient id="linear-gradient-21" x1="-0.289" y1="1.193" x2="1.375" y2="0.002" xlink:href="#linear-gradient-2"/>
    <linearGradient id="linear-gradient-22" x1="2.021" y1="-1.329" x2="0.515" y2="0.466" xlink:href="#linear-gradient-9"/>
    <linearGradient id="linear-gradient-23" x1="0" y1="0.5" x2="1" y2="0.5" xlink:href="#linear-gradient-9"/>
    <linearGradient id="linear-gradient-24" x1="0.503" y1="-0.004" x2="0.489" y2="1.888" xlink:href="#linear-gradient-9"/>
    <linearGradient id="linear-gradient-25" x1="0.862" y1="0.049" x2="0.21" y2="0.745" xlink:href="#linear-gradient-2"/>
    <linearGradient id="linear-gradient-26" x1="0" y1="0.5" x2="1" y2="0.5" xlink:href="#linear-gradient-2"/>
    <linearGradient id="linear-gradient-27" x1="4.047" y1="0.5" x2="1.796" y2="0.5" xlink:href="#linear-gradient-9"/>
    <linearGradient id="linear-gradient-28" x1="-25.6" y1="111.859" x2="-24.578" y2="111.859" xlink:href="#linear-gradient-2"/>
    <linearGradient id="linear-gradient-29" x1="-125.532" y1="500.333" x2="-122.241" y2="497.977" xlink:href="#linear-gradient-9"/>
    <linearGradient id="linear-gradient-30" x1="1.742" y1="-9.502" x2="0.675" y2="-0.818" xlink:href="#linear-gradient-9"/>
    <linearGradient id="linear-gradient-31" x1="0" y1="0.5" x2="1" y2="0.5" xlink:href="#linear-gradient-9"/>
    <linearGradient id="linear-gradient-32" x1="486.888" y1="-9.096" x2="486.898" y2="-5.39" xlink:href="#linear-gradient-2"/>
    <linearGradient id="linear-gradient-33" x1="1928.623" y1="0.5" x2="1929.623" y2="0.5" xlink:href="#linear-gradient-9"/>
    <linearGradient id="linear-gradient-34" x1="582.546" y1="0.5" x2="583.546" y2="0.5" xlink:href="#linear-gradient-2"/>
    <linearGradient id="linear-gradient-35" x1="1198.266" y1="-10.848" x2="1198.29" y2="-6.508" xlink:href="#linear-gradient-2"/>
    <linearGradient id="linear-gradient-36" x1="2225.019" y1="0.5" x2="2226.019" y2="0.5" xlink:href="#linear-gradient-9"/>
    <linearGradient id="linear-gradient-37" x1="409.7" y1="0.5" x2="410.7" y2="0.5" xlink:href="#linear-gradient-2"/>
    <linearGradient id="linear-gradient-38" x1="-0.529" y1="-0.96" x2="0.628" y2="0.595" xlink:href="#linear-gradient-9"/>
    <linearGradient id="linear-gradient-39" x1="-1.177" y1="-1.006" x2="2.272" y2="2.19" xlink:href="#linear-gradient-9"/>
    <linearGradient id="linear-gradient-40" x1="4.068" y1="-2.004" x2="-0.537" y2="1.036" xlink:href="#linear-gradient-9"/>
    <linearGradient id="linear-gradient-41" x1="296.956" y1="0.5" x2="297.956" y2="0.5" xlink:href="#linear-gradient-9"/>
    <linearGradient id="linear-gradient-42" x1="1.163" y1="-0.681" x2="0.764" y2="0.029" xlink:href="#linear-gradient-2"/>
    <linearGradient id="linear-gradient-43" x1="1.714" y1="-1.19" x2="0.894" y2="-0.024" xlink:href="#linear-gradient-9"/>
    <linearGradient id="linear-gradient-44" x1="0.26" y1="-0.874" x2="0.786" y2="2.175" xlink:href="#linear-gradient-9"/>
    <linearGradient id="linear-gradient-45" x1="-75.37" y1="222.023" x2="-76.275" y2="223.854" xlink:href="#linear-gradient-9"/>
    <linearGradient id="linear-gradient-46" x1="-86.999" y1="228.683" x2="-86.794" y2="229.862" xlink:href="#linear-gradient-2"/>
    <linearGradient id="linear-gradient-47" x1="-248.633" y1="1073.118" x2="-251.581" y2="1081.992" xlink:href="#linear-gradient-9"/>
  </defs>
  <g id="_5" data-name="5" transform="translate(0.348)" clip-path="url(#clip-path)">
    <g id="Grupo_130369" data-name="Grupo 130369" transform="translate(0 0)">
      <rect id="Rectángulo_294299" data-name="Rectángulo 294299" width="397" height="306" transform="translate(-0.348)" fill="#f6f6f6"/>
      <path id="Trazado_192924" data-name="Trazado 192924" d="M3336.607,648.676l-7.774-9.235s-34.9-32.119-36.169-68.334-16.715-41.094-53.674-43.4c-31.247-1.947-67.368-7.426-96.384,13.1a70.113,70.113,0,0,1-43.1,13.022l-33.7-1.234a69.772,69.772,0,0,0-44.961,14.459c-19.37,14.789-40.22,42.026-31.672,88.382a150.113,150.113,0,0,1,2.521,24.139l.367,19.694c.322,17.3,13.308,31.267,29.518,31.648l252.921,5.953c26,.612,50.989-10.521,68.837-30.655a29.232,29.232,0,0,0,7.2-19.919A60.247,60.247,0,0,0,3336.607,648.676Z" transform="translate(-2969.731 -487.852)" fill="url(#linear-gradient)"/>
      <g id="Grupo_130305" data-name="Grupo 130305" transform="translate(83.687 67.654)">
        <path id="Trazado_192925" data-name="Trazado 192925" d="M3172.518,579.144H3095.5a2.98,2.98,0,0,1-2.98-2.98h0a2.98,2.98,0,0,1,2.98-2.981h77.021a2.981,2.981,0,0,1,2.98,2.981h0A2.981,2.981,0,0,1,3172.518,579.144Z" transform="translate(-3092.517 -573.183)" fill="#bdd0fb"/>
        <path id="Trazado_192926" data-name="Trazado 192926" d="M3187.237,597.712h-77.02a2.981,2.981,0,0,1-2.981-2.98h0a2.981,2.981,0,0,1,2.981-2.981h77.02a2.98,2.98,0,0,1,2.98,2.981h0A2.98,2.98,0,0,1,3187.237,597.712Z" transform="translate(-3097.982 -580.077)" fill="#bdd0fb"/>
        <path id="Trazado_192927" data-name="Trazado 192927" d="M3165.335,634.848h-55.118a2.98,2.98,0,0,1-2.981-2.98h0a2.981,2.981,0,0,1,2.981-2.98h55.118a2.98,2.98,0,0,1,2.98,2.98h0A2.98,2.98,0,0,1,3165.335,634.848Z" transform="translate(-3097.982 -593.865)" fill="#bdd0fb"/>
        <path id="Trazado_192928" data-name="Trazado 192928" d="M3200.975,616.28h-77.02a2.98,2.98,0,0,1-2.98-2.98h0a2.98,2.98,0,0,1,2.98-2.98h77.02a2.98,2.98,0,0,1,2.98,2.98h0A2.98,2.98,0,0,1,3200.975,616.28Z" transform="translate(-3103.083 -586.971)" fill="#bdd0fb"/>
      </g>
      <g id="Grupo_130306" data-name="Grupo 130306" transform="translate(259.374 76.227)">
        <path id="Trazado_192929" data-name="Trazado 192929" d="M3502.494,601.384l6.291.394a5.842,5.842,0,0,1,5.476,5.916l-2.2,149.346a6.129,6.129,0,0,1-6.26,6.038l-43.214-.922Z" transform="translate(-3405.603 -592.227)" fill="url(#linear-gradient-2)"/>
        <path id="Trazado_192930" data-name="Trazado 192930" d="M3406.013,599.3l79.78-3.857a2.829,2.829,0,0,1,2.965,2.917l-4.922,153.894a5.915,5.915,0,0,1-6.15,5.721l-56.075-2.254Z" transform="translate(-3384.597 -590.021)" fill="#91b3fa"/>
        <path id="Trazado_192931" data-name="Trazado 192931" d="M3412.787,601.427l70.169-8.954a2.974,2.974,0,0,1,3.35,3.016l-3.413,155.217a4.111,4.111,0,0,1-3.99,4.02l-51.622,1.51Z" transform="translate(-3387.112 -588.909)" fill="#bdd0fb"/>
        <path id="Trazado_192932" data-name="Trazado 192932" d="M3379.183,591.621l76.93-4.788a6.661,6.661,0,0,1,7.074,6.648v158.5a5.82,5.82,0,0,1-5.819,5.82H3386.44a6.3,6.3,0,0,1-6.289-5.959l-8.19-152.111A7.712,7.712,0,0,1,3379.183,591.621Z" transform="translate(-3371.95 -586.819)" fill="url(#linear-gradient-3)"/>
        <rect id="Rectángulo_294295" data-name="Rectángulo 294295" width="11.959" height="47.3" rx="5.979" transform="translate(85.258 15.136)" fill="url(#linear-gradient-4)"/>
      </g>
      <g id="Grupo_130311" data-name="Grupo 130311" transform="translate(15.835 95.913)">
        <g id="Grupo_130307" data-name="Grupo 130307" transform="translate(34.501 0.96)">
          <path id="Trazado_192933" data-name="Trazado 192933" d="M3048.451,708.939a1.933,1.933,0,0,1-3.179-.435,58.93,58.93,0,0,1-.183-50.609c9.206-20.065,12.29-31.819,13.321-37.253a1.212,1.212,0,0,1,2.283-.3C3066.287,631.97,3081.351,671.646,3048.451,708.939Z" transform="translate(-3039.471 -619.656)" fill="#bdd0fb"/>
          <path id="Trazado_192934" data-name="Trazado 192934" d="M3050.373,723.377a.753.753,0,0,1-.753-.739c-.005-.336-.457-33.912,11.1-62.429a.753.753,0,1,1,1.4.565c-11.442,28.235-10.994,61.5-10.988,61.837a.753.753,0,0,1-.739.766Z" transform="translate(-3043.238 -634.538)" fill="url(#linear-gradient-5)"/>
        </g>
        <g id="Grupo_130309" data-name="Grupo 130309" transform="translate(6.347 0)">
          <path id="Trazado_192935" data-name="Trazado 192935" d="M2996.605,618.561c-1.857,14.938-11.146,107.048,37.843,136.44a2.324,2.324,0,0,0,3.511-1.827c.795-10.978,1.291-45.866-18.858-87.04-14.537-29.708-19.866-43.1-21.546-47.681A.491.491,0,0,0,2996.605,618.561Z" transform="translate(-2994.692 -618.129)" fill="#91b3fa"/>
          <g id="Grupo_130308" data-name="Grupo 130308" transform="translate(7.332 31.885)">
            <path id="Trazado_192936" data-name="Trazado 192936" d="M3042.289,772.756a.752.752,0,0,1-.662-.394c-13.047-23.985-21.955-50.256-27.131-68.071-5.518-18.987-8.425-33.954-8.122-34.921a.753.753,0,0,1,1.461.345c0,2.462,10.549,56.766,35.115,101.927a.753.753,0,0,1-.661,1.113Zm-34.478-102.937v0Z" transform="translate(-3006.353 -668.843)" fill="#bdd0fb"/>
          </g>
        </g>
        <g id="Grupo_130310" data-name="Grupo 130310" transform="translate(0 90.005)">
          <path id="Trazado_192937" data-name="Trazado 192937" d="M3030.184,811.706c-9.923,1.075-38.87-.117-45.573-48.869a1.358,1.358,0,0,1,2.423-1.017c3.979,5.2,11.086,14.061,17.491,17.135,19.844,9.523,26.225,22.745,28.188,28.854A2.994,2.994,0,0,1,3030.184,811.706Z" transform="translate(-2984.597 -761.283)" fill="#bdd0fb"/>
          <path id="Trazado_192938" data-name="Trazado 192938" d="M3035.31,819.159a.762.762,0,0,1-.269-.05c-27.1-10.353-39.369-33.9-39.491-34.133a.753.753,0,0,1,1.341-.685c.118.231,12.148,23.272,38.688,33.411a.753.753,0,0,1-.269,1.456Z" transform="translate(-2988.633 -769.673)" fill="url(#linear-gradient-5)"/>
        </g>
      </g>
      <g id="Grupo_130316" data-name="Grupo 130316" transform="translate(258.229 71.519)">
        <g id="Grupo_130312" data-name="Grupo 130312" transform="translate(0 0.96)">
          <path id="Trazado_192939" data-name="Trazado 192939" d="M3390.7,670.14a1.933,1.933,0,0,0,3.179-.434,58.932,58.932,0,0,0,.184-50.61c-9.205-20.064-12.291-31.819-13.321-37.252a1.212,1.212,0,0,0-2.283-.3C3372.869,593.171,3357.8,632.847,3390.7,670.14Z" transform="translate(-3370.129 -580.857)" fill="#bdd0fb"/>
          <path id="Trazado_192940" data-name="Trazado 192940" d="M3398.822,684.579h-.013a.752.752,0,0,1-.74-.766c.006-.333.449-33.61-10.989-61.837a.753.753,0,0,1,1.4-.565c11.555,28.517,11.1,62.092,11.1,62.428A.753.753,0,0,1,3398.822,684.579Z" transform="translate(-3376.402 -595.739)" fill="url(#linear-gradient-5)"/>
        </g>
        <g id="Grupo_130314" data-name="Grupo 130314" transform="translate(13.688 0)">
          <path id="Trazado_192941" data-name="Trazado 192941" d="M3434.286,579.762c1.857,14.937,11.146,107.047-37.843,136.439a2.324,2.324,0,0,1-3.511-1.826c-.795-10.978-1.291-45.866,18.858-87.041,14.538-29.707,19.867-43.1,21.547-47.681A.492.492,0,0,1,3434.286,579.762Z" transform="translate(-3392.178 -579.33)" fill="#91b3fa"/>
          <g id="Grupo_130313" data-name="Grupo 130313" transform="translate(0 31.885)">
            <path id="Trazado_192942" data-name="Trazado 192942" d="M3392.653,733.957a.754.754,0,0,1-.661-1.113c24.563-45.158,35.116-99.465,35.115-101.928a.753.753,0,0,1,1.462-.345c.3.968-2.606,15.934-8.123,34.921-5.176,17.815-14.085,44.086-27.132,68.071A.751.751,0,0,1,3392.653,733.957Zm34.478-102.938v0Zm0,0h0Zm-.024-.125Z" transform="translate(-3391.9 -630.044)" fill="#bdd0fb"/>
          </g>
        </g>
        <g id="Grupo_130315" data-name="Grupo 130315" transform="translate(15.794 90.005)">
          <path id="Trazado_192943" data-name="Trazado 192943" d="M3397.925,772.906c9.923,1.075,38.869-.118,45.572-48.869a1.358,1.358,0,0,0-2.423-1.017c-3.979,5.2-11.086,14.06-17.492,17.134-19.844,9.523-26.224,22.746-28.186,28.855A2.994,2.994,0,0,0,3397.925,772.906Z" transform="translate(-3395.25 -722.484)" fill="url(#linear-gradient-8)"/>
          <path id="Trazado_192944" data-name="Trazado 192944" d="M3397.326,780.359a.753.753,0,0,1-.269-1.456c26.563-10.148,38.569-33.179,38.687-33.411a.753.753,0,0,1,1.341.685c-.121.236-12.394,23.78-39.491,34.132A.748.748,0,0,1,3397.326,780.359Z" transform="translate(-3395.741 -730.873)" fill="#2a6fae"/>
        </g>
      </g>
      <g id="Grupo_130317" data-name="Grupo 130317" transform="translate(32.795 66.95)">
        <path id="Trazado_192945" data-name="Trazado 192945" d="M3256.132,650.954a1.953,1.953,0,0,1-1.907-1.915c-.195-10.724-3.54-63.974-50.434-75.1-52.209-12.388-76.1,40.705-76.1,40.705s-64.6-24.777-76.985,41.59c-40.5,9.721-51.027,62.617-24.683,88.464a22.644,22.644,0,0,0,15.66,6.481l253.659,2.285a16.7,16.7,0,0,0,16.161-11.944C3319.425,714.775,3329.81,652.679,3256.132,650.954Z" transform="translate(-3011.572 -572.064)" fill="#084a93"/>
        <path id="Trazado_192946" data-name="Trazado 192946" d="M3254.712,655.844a1.952,1.952,0,0,1-1.906-1.911c-.208-10.285-3.52-59.662-47.688-70.012-49.366-11.569-71.958,38.012-71.958,38.012s-61.081-23.138-72.795,38.838c-37.932,8.991-48.056,57.53-24.046,81.911a22.655,22.655,0,0,0,15.94,6.757l238.785,2.125a16.7,16.7,0,0,0,16.173-11.989C3314.663,714.177,3323.5,657.491,3254.712,655.844Z" transform="translate(-3015.949 -575.816)" fill="#084a93"/>
      </g>
      <g id="Grupo_130330" data-name="Grupo 130330" transform="translate(116.245 105.344)">
        <g id="Grupo_130321" data-name="Grupo 130321" transform="translate(32.771 13.416)">
          <g id="Grupo_130318" data-name="Grupo 130318" opacity="0.64">
            <path id="Trazado_192947" data-name="Trazado 192947" d="M3199.937,756.244a.566.566,0,0,1-.542-.406q-.213-.729-.406-1.467a.565.565,0,1,1,1.093-.285q.188.72.4,1.434a.566.566,0,0,1-.384.7A.555.555,0,0,1,3199.937,756.244Z" transform="translate(-3197.37 -691.298)" fill="#fff"/>
            <path id="Trazado_192948" data-name="Trazado 192948" d="M3197.615,713.328a.566.566,0,0,1-.557-.475c-.154-.966-.283-1.95-.382-2.925a.565.565,0,1,1,1.124-.113c.1.953.222,1.916.373,2.86a.565.565,0,0,1-.468.647A.639.639,0,0,1,3197.615,713.328Zm-.626-7.626a.565.565,0,0,1-.565-.562v-.265c0-.89.024-1.793.071-2.684a.558.558,0,0,1,.593-.534.565.565,0,0,1,.534.594c-.046.871-.069,1.755-.069,2.627v.257a.564.564,0,0,1-.562.567Zm.542-7.631a.536.536,0,0,1-.083-.006.565.565,0,0,1-.477-.641c.144-.971.317-1.948.516-2.9a.565.565,0,1,1,1.106.23c-.194.935-.364,1.89-.5,2.839A.565.565,0,0,1,3197.53,698.071Zm1.693-7.459a.553.553,0,0,1-.167-.026.565.565,0,0,1-.373-.706c.289-.932.61-1.871.956-2.791a.564.564,0,1,1,1.057.4c-.337.9-.651,1.816-.933,2.727A.565.565,0,0,1,3199.223,690.613Zm2.822-7.11a.565.565,0,0,1-.506-.814c.431-.881.9-1.76,1.377-2.613a.564.564,0,1,1,.982.556c-.47.834-.923,1.693-1.345,2.554A.565.565,0,0,1,3202.045,683.5Zm3.888-6.594a.565.565,0,0,1-.463-.888c.56-.8,1.152-1.6,1.76-2.368a.565.565,0,1,1,.886.7c-.595.754-1.174,1.533-1.721,2.316A.563.563,0,0,1,3205.933,676.909Zm4.851-5.918a.564.564,0,0,1-.408-.955c.675-.706,1.382-1.4,2.1-2.072a.565.565,0,1,1,.769.827c-.7.654-1.393,1.335-2.053,2.026A.565.565,0,0,1,3210.784,670.991Zm5.7-5.108a.565.565,0,0,1-.344-1.012c.779-.6,1.583-1.178,2.39-1.727a.565.565,0,1,1,.635.935c-.79.536-1.576,1.1-2.337,1.688A.565.565,0,0,1,3216.48,665.882Zm6.407-4.18a.565.565,0,0,1-.272-1.06c.858-.47,1.741-.921,2.625-1.34a.565.565,0,0,1,.483,1.021c-.864.409-1.727.85-2.566,1.31A.563.563,0,0,1,3222.887,661.7Zm46.922-.472a.563.563,0,0,1-.261-.064c-.848-.443-1.721-.866-2.595-1.259a.565.565,0,0,1,.463-1.03c.894.4,1.787.835,2.655,1.288a.565.565,0,0,1-.261,1.065Zm-39.954-2.678a.565.565,0,0,1-.192-1.1c.918-.332,1.86-.642,2.8-.92a.565.565,0,0,1,.321,1.083c-.917.272-1.837.575-2.733.9A.563.563,0,0,1,3229.855,658.553Zm32.917-.328a.568.568,0,0,1-.181-.03c-.905-.306-1.833-.59-2.758-.843a.565.565,0,1,1,.3-1.09c.947.26,1.9.549,2.822.863a.565.565,0,0,1-.181,1.1Zm-25.55-1.71a.565.565,0,0,1-.108-1.119c.961-.187,1.941-.348,2.91-.479a.565.565,0,0,1,.15,1.12c-.948.127-1.905.285-2.844.468A.589.589,0,0,1,3237.222,656.515Zm18.134-.175a.559.559,0,0,1-.1-.008c-.943-.164-1.9-.3-2.856-.41a.565.565,0,0,1,.129-1.122c.973.111,1.956.253,2.919.419a.565.565,0,0,1-.1,1.121Zm-10.536-.7a.565.565,0,0,1-.021-1.129c.975-.038,1.964-.047,2.951-.026a.565.565,0,1,1-.023,1.129c-.964-.02-1.932-.011-2.884.026Z" transform="translate(-3196.424 -654.469)" fill="#fff"/>
            <path id="Trazado_192949" data-name="Trazado 192949" d="M3320.613,669.232a.561.561,0,0,1-.322-.1q-.61-.424-1.234-.831a.565.565,0,0,1,.616-.946q.639.416,1.263.85a.564.564,0,0,1-.323,1.028Z" transform="translate(-3241.859 -659.219)" fill="#fff"/>
          </g>
          <g id="Grupo_130319" data-name="Grupo 130319" transform="translate(19.534 39.86)" opacity="0.64">
            <path id="Trazado_192950" data-name="Trazado 192950" d="M3354.085,720.475a.565.565,0,0,1-.556-.469q-.127-.735-.274-1.462a.565.565,0,0,1,1.107-.226q.152.745.28,1.5a.565.565,0,0,1-.461.653A.55.55,0,0,1,3354.085,720.475Z" transform="translate(-3274.18 -717.867)" fill="#fff"/>
            <path id="Trazado_192951" data-name="Trazado 192951" d="M3261.571,782.519c-.634,0-1.277-.013-1.912-.036a.565.565,0,0,1,.043-1.128c1.01.038,2.03.044,3.032.021a.564.564,0,1,1,.026,1.129Q3262.167,782.519,3261.571,782.519Zm6.143-.38a.565.565,0,0,1-.069-1.125c1-.124,2.007-.281,3-.466a.565.565,0,1,1,.208,1.11c-1.011.19-2.042.35-3.064.478A.619.619,0,0,1,3267.714,782.14Zm-13-.087a.552.552,0,0,1-.077-.006c-1.022-.14-2.051-.313-3.059-.515a.565.565,0,1,1,.222-1.107c.985.2,1.991.367,2.991.5a.565.565,0,0,1-.076,1.124Zm20.871-1.549a.565.565,0,0,1-.159-1.107c.964-.284,1.931-.6,2.876-.945a.565.565,0,0,1,.385,1.061c-.966.352-1.955.677-2.943.967A.561.561,0,0,1,3275.587,780.5Zm-28.728-.181a.568.568,0,0,1-.166-.025c-.985-.3-1.972-.639-2.936-1a.565.565,0,1,1,.4-1.057c.942.355,1.907.684,2.869.98a.565.565,0,0,1-.166,1.1Zm36.228-2.708a.565.565,0,0,1-.246-1.073c.906-.436,1.811-.907,2.688-1.4a.564.564,0,0,1,.552.985c-.9.5-1.822.984-2.749,1.43A.557.557,0,0,1,3283.087,777.614Zm-43.7-.271a.567.567,0,0,1-.25-.059c-.922-.458-1.842-.951-2.734-1.466a.565.565,0,1,1,.564-.978c.873.5,1.772.985,2.672,1.432a.565.565,0,0,1-.251,1.071Zm50.638-3.791a.565.565,0,0,1-.324-1.027c.824-.576,1.642-1.186,2.43-1.812a.565.565,0,0,1,.7.884c-.807.641-1.643,1.264-2.486,1.854A.559.559,0,0,1,3290.025,773.553Zm6.2-5.122a.565.565,0,0,1-.394-.97c.722-.7,1.432-1.433,2.11-2.179a.565.565,0,1,1,.835.761c-.693.761-1.42,1.511-2.158,2.228A.564.564,0,0,1,3296.225,768.431Zm5.3-6.05a.564.564,0,0,1-.453-.9c.6-.81,1.184-1.648,1.733-2.49a.565.565,0,1,1,.946.616c-.561.862-1.157,1.719-1.773,2.548A.564.564,0,0,1,3301.525,762.381Zm4.26-6.825a.564.564,0,0,1-.5-.824c.462-.9.9-1.817,1.308-2.739a.565.565,0,0,1,1.034.455c-.415.944-.866,1.887-1.339,2.8A.563.563,0,0,1,3305.784,755.555Zm3.1-7.427a.565.565,0,0,1-.537-.739c.31-.955.594-1.934.845-2.911a.565.565,0,0,1,1.094.281c-.257,1-.548,2-.864,2.978A.566.566,0,0,1,3308.882,748.129Zm1.854-7.825a.583.583,0,0,1-.086-.007.564.564,0,0,1-.473-.643c.152-.994.275-2.006.366-3.01a.565.565,0,0,1,1.125.1c-.094,1.026-.22,2.062-.375,3.078A.565.565,0,0,1,3310.736,740.3Zm.577-8.022a.564.564,0,0,1-.565-.56c-.008-1.008-.047-2.028-.117-3.03a.565.565,0,0,1,1.127-.078c.071,1.025.112,2.068.119,3.1a.564.564,0,0,1-.56.569Z" transform="translate(-3230.696 -721.662)" fill="#fff"/>
            <path id="Trazado_192952" data-name="Trazado 192952" d="M3229.265,798.6a.564.564,0,0,1-.33-.106q-.618-.445-1.222-.907a.565.565,0,1,1,.687-.9q.59.453,1.195.887a.565.565,0,0,1-.331,1.023Z" transform="translate(-3227.492 -747.087)" fill="#fff"/>
          </g>
          <g id="Grupo_130320" data-name="Grupo 130320" transform="translate(11.837 11.411)">
            <path id="Trazado_192953" data-name="Trazado 192953" d="M3226.884,738.773a.6.6,0,0,0,.669.183l6.826-2.51a31.679,31.679,0,0,0,9.038,4.868l1.665,7.076a.6.6,0,0,0,.521.458l8.68.879a.6.6,0,0,0,.6-.344l3.05-6.6a31.691,31.691,0,0,0,9.83-2.956l6.185,3.828a.6.6,0,0,0,.692-.045l6.759-5.516a.6.6,0,0,0,.183-.67l-2.51-6.827a31.683,31.683,0,0,0,4.867-9.038l7.076-1.665a.6.6,0,0,0,.458-.521l.879-8.68a.6.6,0,0,0-.344-.6l-6.6-3.05a31.678,31.678,0,0,0-2.956-9.831l3.829-6.184a.6.6,0,0,0-.045-.692l-5.516-6.76a.6.6,0,0,0-.67-.183l-6.826,2.511a31.682,31.682,0,0,0-9.039-4.867l-1.665-7.076a.6.6,0,0,0-.521-.458l-8.68-.88a.6.6,0,0,0-.6.344l-3.05,6.6a31.671,31.671,0,0,0-9.83,2.956l-6.185-3.828a.6.6,0,0,0-.692.045l-6.76,5.516a.6.6,0,0,0-.183.669l2.51,6.827a31.7,31.7,0,0,0-4.867,9.038l-7.075,1.665a.6.6,0,0,0-.458.522l-.879,8.68a.6.6,0,0,0,.343.6l6.6,3.051a31.691,31.691,0,0,0,2.955,9.83l-3.828,6.185a.6.6,0,0,0,.045.692Z" transform="translate(-3215.251 -672.619)" fill="#ffb30b"/>
            <path id="Trazado_192954" data-name="Trazado 192954" d="M3271.646,737.346a8.323,8.323,0,1,1,1.229-.091h0A8.453,8.453,0,0,1,3271.646,737.346Zm.022-15.5a7.21,7.21,0,0,0-1.052.078,7.182,7.182,0,0,0,2.094,14.211h0a7.183,7.183,0,0,0-1.042-14.289Z" transform="translate(-3233.109 -690.478)" fill="url(#linear-gradient-9)"/>
            <path id="Trazado_192955" data-name="Trazado 192955" d="M3264.035,742.589a21.724,21.724,0,0,1-2.195-.111h0a21.734,21.734,0,0,1-4.5-.944.565.565,0,0,1-.391-.536.558.558,0,0,1,.028-.175.566.566,0,0,1,.711-.363,20.58,20.58,0,0,0,4.271.9h0a20.5,20.5,0,0,0,22.408-17.956c.014-.12.028-.242.04-.362a20.767,20.767,0,0,0,.107-2.106,20.489,20.489,0,1,0-39.044,8.735.545.545,0,0,1,.053.24.564.564,0,0,1-1.075.24,21.558,21.558,0,0,1-2.041-9.16,21.619,21.619,0,0,1,23.8-21.521,21.621,21.621,0,0,1,19.44,21.464,22.064,22.064,0,0,1-.112,2.221A21.648,21.648,0,0,1,3264.035,742.589Z" transform="translate(-3225.332 -682.545)" fill="url(#linear-gradient-10)"/>
          </g>
        </g>
        <g id="Grupo_130325" data-name="Grupo 130325" transform="translate(0 71.89)">
          <g id="Grupo_130322" data-name="Grupo 130322" opacity="0.64">
            <path id="Trazado_192956" data-name="Trazado 192956" d="M3145.906,791.656a.376.376,0,0,1-.361-.27q-.135-.458-.25-.924a.376.376,0,0,1,.731-.18q.111.45.241.893a.376.376,0,0,1-.255.467A.39.39,0,0,1,3145.906,791.656Z" transform="translate(-3144.666 -763.261)" fill="#fff"/>
            <path id="Trazado_192957" data-name="Trazado 192957" d="M3144.924,773.1a.376.376,0,0,1-.372-.319c-.1-.633-.169-1.279-.21-1.92a.377.377,0,0,1,.751-.048c.04.618.108,1.242.2,1.853a.377.377,0,0,1-.314.43A.456.456,0,0,1,3144.924,773.1Zm-.246-3.784h-.008a.376.376,0,0,1-.368-.385q.011-.513.048-1.031.031-.45.08-.9a.376.376,0,0,1,.748.084c-.032.286-.057.575-.077.864q-.036.5-.046,1A.377.377,0,0,1,3144.678,769.316Zm.415-3.769a.378.378,0,0,1-.37-.45c.126-.629.281-1.26.46-1.874a.376.376,0,1,1,.722.211c-.174.593-.323,1.2-.445,1.811A.376.376,0,0,1,3145.093,765.548Zm1.066-3.637a.366.366,0,0,1-.137-.026.376.376,0,0,1-.213-.487c.233-.6.5-1.19.783-1.766a.377.377,0,0,1,.674.336c-.277.556-.532,1.129-.757,1.7A.375.375,0,0,1,3146.158,761.911Zm1.69-3.395a.376.376,0,0,1-.321-.573c.336-.547.7-1.084,1.082-1.6a.376.376,0,0,1,.6.448c-.368.5-.72,1.016-1.044,1.545A.376.376,0,0,1,3147.849,758.516Zm2.26-3.044a.377.377,0,0,1-.281-.627c.427-.48.879-.946,1.344-1.386a.377.377,0,1,1,.517.548c-.449.424-.886.875-1.3,1.338A.376.376,0,0,1,3150.109,755.472Zm2.756-2.6a.376.376,0,0,1-.234-.672c.5-.4,1.029-.778,1.564-1.13a.376.376,0,0,1,.414.629c-.518.341-1.026.708-1.511,1.092A.376.376,0,0,1,3152.865,752.868Zm3.167-2.084a.377.377,0,0,1-.179-.708c.565-.3,1.15-.587,1.739-.84a.376.376,0,0,1,.3.692c-.568.244-1.133.517-1.678.811A.375.375,0,0,1,3156.031,750.785Zm20.073-.2a.375.375,0,0,1-.172-.042c-.552-.283-1.123-.545-1.695-.778a.376.376,0,1,1,.283-.7c.593.241,1.183.512,1.756.805a.376.376,0,0,1-.172.711Zm-16.591-1.3a.376.376,0,0,1-.117-.734c.608-.2,1.234-.376,1.858-.522a.377.377,0,1,1,.17.734c-.6.14-1.206.309-1.793.5A.386.386,0,0,1,3159.514,749.287Zm13.078-.125a.369.369,0,0,1-.11-.017c-.592-.181-1.2-.338-1.805-.467a.376.376,0,1,1,.156-.736c.628.133,1.257.3,1.869.484a.377.377,0,0,1-.11.737Zm-9.388-.736a.377.377,0,0,1-.052-.749c.635-.089,1.282-.152,1.921-.185a.376.376,0,1,1,.039.752c-.617.032-1.241.093-1.854.179A.4.4,0,0,1,3163.2,748.426Zm5.679-.051a.378.378,0,0,1-.046,0c-.37-.045-.747-.081-1.122-.107-.247-.017-.492-.03-.738-.038a.376.376,0,0,1,.026-.753q.38.013.763.04c.388.027.779.064,1.16.111a.376.376,0,0,1-.045.75Z" transform="translate(-3144.302 -747.473)" fill="#fff"/>
            <path id="Trazado_192958" data-name="Trazado 192958" d="M3198.1,754.021a.37.37,0,0,1-.214-.067q-.38-.263-.77-.511a.376.376,0,1,1,.4-.637q.406.257.8.529a.376.376,0,0,1-.215.685Z" transform="translate(-3163.845 -749.432)" fill="#fff"/>
          </g>
          <g id="Grupo_130323" data-name="Grupo 130323" transform="translate(8.46 17.26)" opacity="0.64">
            <path id="Trazado_192959" data-name="Trazado 192959" d="M3212.8,776.605a.377.377,0,0,1-.371-.318c-.049-.306-.1-.609-.165-.91a.377.377,0,0,1,.738-.15q.094.468.17.942a.376.376,0,0,1-.313.431A.363.363,0,0,1,3212.8,776.605Z" transform="translate(-3177.99 -774.926)" fill="#fff"/>
            <path id="Trazado_192960" data-name="Trazado 192960" d="M3172.666,803.206h-.087a.377.377,0,0,1,0-.753h.085c.581,0,1.169-.025,1.749-.072a.376.376,0,1,1,.062.75C3173.877,803.181,3173.268,803.206,3172.666,803.206Zm-1.95-.087h-.033c-.631-.057-1.265-.14-1.884-.25a.376.376,0,0,1,.131-.741c.6.106,1.209.187,1.819.241a.376.376,0,0,1-.033.751Zm5.582-.222a.376.376,0,0,1-.063-.747c.6-.1,1.2-.234,1.792-.389a.376.376,0,0,1,.191.728c-.608.16-1.233.3-1.856.4A.314.314,0,0,1,3176.3,802.9Zm-9.257-.426a.4.4,0,0,1-.1-.013c-.611-.163-1.221-.356-1.813-.571a.376.376,0,0,1,.258-.707c.571.207,1.16.393,1.75.55a.377.377,0,0,1-.1.741Zm12.864-.521a.377.377,0,0,1-.128-.731c.573-.205,1.145-.438,1.7-.693a.376.376,0,0,1,.314.684c-.573.263-1.165.5-1.758.718A.378.378,0,0,1,3179.9,801.951Zm-16.371-.753a.375.375,0,0,1-.158-.035c-.572-.267-1.139-.561-1.686-.876a.376.376,0,1,1,.375-.653c.529.3,1.076.589,1.628.846a.377.377,0,0,1-.159.718Zm19.761-.8a.376.376,0,0,1-.187-.7c.529-.3,1.052-.629,1.554-.975a.376.376,0,1,1,.427.62c-.52.358-1.06.7-1.608,1.01A.374.374,0,0,1,3183.294,800.393Zm3.071-2.117a.377.377,0,0,1-.24-.667c.471-.388.93-.8,1.363-1.227a.377.377,0,0,1,.528.538c-.45.441-.925.869-1.412,1.271A.376.376,0,0,1,3186.365,798.276Zm2.663-2.613a.376.376,0,0,1-.285-.621c.4-.463.778-.948,1.133-1.443a.376.376,0,0,1,.611.439c-.367.512-.762,1.015-1.173,1.494A.373.373,0,0,1,3189.028,795.663Zm2.175-3.03a.371.371,0,0,1-.191-.053.376.376,0,0,1-.132-.516c.312-.526.6-1.069.868-1.617a.376.376,0,1,1,.677.327c-.273.567-.575,1.13-.9,1.674A.377.377,0,0,1,3191.2,792.632Zm1.619-3.362a.366.366,0,0,1-.133-.024.376.376,0,0,1-.219-.485c.215-.568.408-1.154.573-1.742a.377.377,0,0,1,.725.2c-.172.609-.372,1.216-.594,1.8A.375.375,0,0,1,3192.821,789.27Zm1.012-3.589a.379.379,0,0,1-.37-.447c.113-.6.2-1.207.264-1.815a.377.377,0,0,1,.75.077c-.064.628-.157,1.261-.274,1.879A.376.376,0,0,1,3193.833,785.681Zm.379-3.711h-.006a.377.377,0,0,1-.371-.382c0-.12,0-.24,0-.359,0-.492-.017-.988-.051-1.476a.377.377,0,0,1,.752-.052c.034.5.052,1.019.052,1.528q0,.185,0,.37A.377.377,0,0,1,3194.212,781.97Z" transform="translate(-3159.147 -776.569)" fill="#fff"/>
            <path id="Trazado_192961" data-name="Trazado 192961" d="M3158.892,810.343a.375.375,0,0,1-.215-.068q-.393-.274-.772-.565a.376.376,0,0,1,.458-.6q.367.281.746.546a.376.376,0,0,1-.216.685Z" transform="translate(-3157.757 -787.59)" fill="#fff"/>
          </g>
          <g id="Grupo_130324" data-name="Grupo 130324" transform="translate(5.256 5.064)">
            <path id="Trazado_192962" data-name="Trazado 192962" d="M3157.7,784.2a.26.26,0,0,0,.29.08l2.958-1.088a13.728,13.728,0,0,0,3.917,2.109l.721,3.066a.258.258,0,0,0,.227.2l3.761.382a.26.26,0,0,0,.261-.149l1.321-2.859a13.73,13.73,0,0,0,4.26-1.281l2.68,1.659a.259.259,0,0,0,.3-.019l2.929-2.39a.259.259,0,0,0,.08-.29l-1.088-2.959a13.729,13.729,0,0,0,2.109-3.916l3.066-.722a.259.259,0,0,0,.2-.226l.381-3.762a.26.26,0,0,0-.149-.261l-2.859-1.322a13.744,13.744,0,0,0-1.281-4.26l1.659-2.68a.259.259,0,0,0-.02-.3l-2.39-2.929a.259.259,0,0,0-.29-.079l-2.958,1.088a13.724,13.724,0,0,0-3.917-2.109l-.722-3.066a.258.258,0,0,0-.226-.2l-3.762-.381a.259.259,0,0,0-.262.149l-1.322,2.859a13.747,13.747,0,0,0-4.26,1.281l-2.68-1.659a.259.259,0,0,0-.3.02l-2.929,2.39a.26.26,0,0,0-.079.29l1.088,2.958a13.729,13.729,0,0,0-2.109,3.917l-3.067.721a.259.259,0,0,0-.2.226l-.381,3.762a.259.259,0,0,0,.149.261l2.859,1.322a13.724,13.724,0,0,0,1.281,4.26l-1.659,2.68a.26.26,0,0,0,.019.3Z" transform="translate(-3152.662 -755.528)" fill="#ffb30b"/>
            <path id="Trazado_192963" data-name="Trazado 192963" d="M3177.023,783.631a3.739,3.739,0,1,1,.552-.041A3.818,3.818,0,0,1,3177.023,783.631Zm.01-6.715a2.931,2.931,0,0,0-.436.032,2.98,2.98,0,1,0,.436-.032Z" transform="translate(-3160.323 -763.189)" fill="url(#linear-gradient-11)"/>
            <path id="Trazado_192964" data-name="Trazado 192964" d="M3173.726,785.9a9.557,9.557,0,0,1-2.857-.436l-.086-.028a.377.377,0,0,1-.261-.358.383.383,0,0,1,.019-.116.376.376,0,0,1,.474-.242,8.837,8.837,0,0,0,1.824.382,8.743,8.743,0,1,0-7.04-4.99.375.375,0,0,1-.181.5.376.376,0,0,1-.5-.18,9.458,9.458,0,0,1-.9-4.026c0-.321.016-.643.048-.964a9.5,9.5,0,0,1,18.952.949,9.631,9.631,0,0,1-.049.966A9.514,9.514,0,0,1,3173.726,785.9Z" transform="translate(-3156.953 -759.751)" fill="url(#linear-gradient-12)"/>
          </g>
        </g>
        <g id="Grupo_130329" data-name="Grupo 130329" transform="translate(90.534)">
          <g id="Grupo_130326" data-name="Grupo 130326" opacity="0.64">
            <path id="Trazado_192965" data-name="Trazado 192965" d="M3289.539,665.351a.376.376,0,0,1-.361-.27c-.091-.309-.174-.623-.244-.933a.377.377,0,0,1,.734-.167c.067.295.145.593.231.888a.377.377,0,0,1-.255.467A.37.37,0,0,1,3289.539,665.351Z" transform="translate(-3288.53 -644.475)" fill="#fff"/>
            <path id="Trazado_192966" data-name="Trazado 192966" d="M3288.753,651.185a.377.377,0,0,1-.374-.339,16.2,16.2,0,0,1-.082-1.627c0-.118,0-.236,0-.355a.377.377,0,0,1,.376-.368h.009a.377.377,0,0,1,.368.385c0,.113,0,.225,0,.338a15.264,15.264,0,0,0,.079,1.551.376.376,0,0,1-.337.412A.261.261,0,0,1,3288.753,651.185Zm.083-3.865a.326.326,0,0,1-.054,0,.376.376,0,0,1-.319-.426,16.286,16.286,0,0,1,.4-1.941.377.377,0,0,1,.727.2,15.439,15.439,0,0,0-.385,1.851A.376.376,0,0,1,3288.837,647.32Zm1.019-3.73a.372.372,0,0,1-.143-.028.376.376,0,0,1-.2-.492,16.025,16.025,0,0,1,.868-1.784.376.376,0,1,1,.655.37,15.369,15.369,0,0,0-.827,1.7A.377.377,0,0,1,3289.855,643.59Zm1.9-3.366a.372.372,0,0,1-.224-.074.376.376,0,0,1-.078-.526,16.247,16.247,0,0,1,1.277-1.517.376.376,0,0,1,.545.519,15.5,15.5,0,0,0-1.218,1.446A.375.375,0,0,1,3291.759,640.224Zm2.667-2.8a.376.376,0,0,1-.239-.667,16,16,0,0,1,1.606-1.161.376.376,0,0,1,.4.636,15.419,15.419,0,0,0-1.532,1.107A.376.376,0,0,1,3294.426,637.424Zm3.266-2.066a.377.377,0,0,1-.161-.717,16.24,16.24,0,0,1,1.84-.734.377.377,0,0,1,.236.716,15.4,15.4,0,0,0-1.755.7A.372.372,0,0,1,3297.692,635.358Zm13.146-.119a.381.381,0,0,1-.154-.033,15.206,15.206,0,0,0-1.769-.667.377.377,0,1,1,.221-.72,16.122,16.122,0,0,1,1.856.7.377.377,0,0,1-.155.72Zm-9.476-1.087a.376.376,0,0,1-.072-.746,16.172,16.172,0,0,1,1.966-.26.38.38,0,0,1,.4.35.376.376,0,0,1-.35.4,15.245,15.245,0,0,0-1.873.247A.366.366,0,0,1,3301.362,634.152Zm5.781-.049a.384.384,0,0,1-.066-.006,15.514,15.514,0,0,0-1.626-.2l-.252-.016a.376.376,0,0,1-.356-.4.38.38,0,0,1,.4-.356l.263.016a16.509,16.509,0,0,1,1.706.209.377.377,0,0,1-.065.748Z" transform="translate(-3288.297 -633.13)" fill="#fff"/>
            <path id="Trazado_192967" data-name="Trazado 192967" d="M3327.465,638a.377.377,0,0,1-.215-.067c-.248-.173-.507-.341-.769-.5a.377.377,0,0,1,.394-.643c.274.168.545.345.806.526a.376.376,0,0,1-.215.685Z" transform="translate(-3302.407 -634.47)" fill="#fff"/>
          </g>
          <g id="Grupo_130327" data-name="Grupo 130327" transform="translate(6.166 12.56)" opacity="0.64">
            <path id="Trazado_192968" data-name="Trazado 192968" d="M3338.336,654.787a.376.376,0,0,1-.373-.324c-.043-.3-.1-.61-.156-.905a.377.377,0,0,1,.738-.15c.063.31.118.629.163.949a.376.376,0,0,1-.32.426A.372.372,0,0,1,3338.336,654.787Z" transform="translate(-3312.843 -653.107)" fill="#fff"/>
            <path id="Trazado_192969" data-name="Trazado 192969" d="M3309.685,674.382a.376.376,0,0,1,0-.753,15.352,15.352,0,0,0,1.853-.137.377.377,0,0,1,.1.746,16.21,16.21,0,0,1-1.945.143Zm-1.9-.089a.3.3,0,0,1-.041,0,16.1,16.1,0,0,1-1.923-.323.376.376,0,0,1,.169-.734,15.527,15.527,0,0,0,1.834.309.376.376,0,0,1-.039.751Zm5.669-.421a.377.377,0,0,1-.1-.741,15.324,15.324,0,0,0,1.767-.581.377.377,0,0,1,.278.7,16.2,16.2,0,0,1-1.854.609A.386.386,0,0,1,3313.452,673.873Zm-9.376-.437a.369.369,0,0,1-.129-.023,16.062,16.062,0,0,1-1.789-.778.376.376,0,1,1,.341-.671,15.483,15.483,0,0,0,1.706.742.376.376,0,0,1-.128.73Zm12.91-.968a.376.376,0,0,1-.181-.707,15.446,15.446,0,0,0,1.575-.988.376.376,0,1,1,.438.612,16.1,16.1,0,0,1-1.652,1.037A.371.371,0,0,1,3316.985,672.468Zm3.093-2.212a.376.376,0,0,1-.254-.654,15.48,15.48,0,0,0,1.293-1.336.377.377,0,0,1,.572.49,16.261,16.261,0,0,1-1.357,1.4A.376.376,0,0,1,3320.078,670.256Zm2.475-2.888a.376.376,0,0,1-.313-.585,15.109,15.109,0,0,0,.936-1.607.377.377,0,0,1,.673.338,16.152,16.152,0,0,1-.982,1.687A.375.375,0,0,1,3322.553,667.368Zm1.709-3.4a.378.378,0,0,1-.355-.5,15.4,15.4,0,0,0,.519-1.786.376.376,0,0,1,.734.166,16.066,16.066,0,0,1-.544,1.873A.376.376,0,0,1,3324.262,663.97Zm.837-3.709-.039,0a.376.376,0,0,1-.336-.413c.017-.165.031-.331.042-.5.025-.355.037-.717.037-1.074,0-.1,0-.191,0-.286a.376.376,0,0,1,.369-.384.381.381,0,0,1,.384.369c0,.1,0,.2,0,.3,0,.375-.013.754-.039,1.126q-.019.262-.045.522A.376.376,0,0,1,3325.1,660.26Z" transform="translate(-3299.533 -654.776)" fill="#fff"/>
            <path id="Trazado_192970" data-name="Trazado 192970" d="M3299.244,679.254a.374.374,0,0,1-.21-.065c-.262-.177-.525-.367-.781-.563a.376.376,0,1,1,.458-.6c.244.187.494.367.744.536a.376.376,0,0,1-.211.688Z" transform="translate(-3298.105 -662.331)" fill="#fff"/>
          </g>
          <g id="Grupo_130328" data-name="Grupo 130328" transform="translate(3.935 3.778)">
            <path id="Trazado_192971" data-name="Trazado 192971" d="M3298.228,660.021a.189.189,0,0,0,.211.058l2.155-.792a10,10,0,0,0,2.853,1.536l.525,2.234a.189.189,0,0,0,.165.145l2.74.277a.188.188,0,0,0,.19-.108l.963-2.083a10,10,0,0,0,3.1-.933l1.953,1.208a.188.188,0,0,0,.218-.014l2.134-1.741a.19.19,0,0,0,.058-.211l-.793-2.155a9.992,9.992,0,0,0,1.536-2.853l2.234-.525a.189.189,0,0,0,.144-.165l.278-2.74a.19.19,0,0,0-.109-.191l-2.083-.963a9.994,9.994,0,0,0-.933-3.1l1.209-1.952a.19.19,0,0,0-.014-.219l-1.742-2.134a.188.188,0,0,0-.211-.057l-2.155.792A10,10,0,0,0,3310,641.8l-.525-2.233a.189.189,0,0,0-.165-.145l-2.74-.278a.189.189,0,0,0-.19.109l-.963,2.083a10,10,0,0,0-3.1.933l-1.953-1.208a.188.188,0,0,0-.218.014l-2.134,1.742a.189.189,0,0,0-.058.211l.792,2.155a9.991,9.991,0,0,0-1.537,2.853l-2.233.526a.19.19,0,0,0-.145.165l-.277,2.74a.189.189,0,0,0,.109.191l2.082.963a10.02,10.02,0,0,0,.933,3.1l-1.208,1.952a.189.189,0,0,0,.014.218Z" transform="translate(-3294.555 -639.139)" fill="#ffb30b"/>
            <path id="Trazado_192972" data-name="Trazado 192972" d="M3312.241,659.652a2.826,2.826,0,1,1,.417-.031h0A2.909,2.909,0,0,1,3312.241,659.652Zm.362-.4h0Zm-.352-4.489a2.084,2.084,0,0,0-.306.023,2.059,2.059,0,1,0,.306-.023Z" transform="translate(-3300.076 -644.659)" fill="url(#linear-gradient-13)"/>
            <path id="Trazado_192973" data-name="Trazado 192973" d="M3309.839,661.307a6.966,6.966,0,0,1-.713-.036,7.043,7.043,0,0,1-1.354-.272h0l-.066-.021-.042-.014a.375.375,0,0,1-.26-.357.367.367,0,0,1,.018-.117.377.377,0,0,1,.474-.242,6.315,6.315,0,0,0,1.307.274h0l.065.006a6.272,6.272,0,0,0,6.782-5.428v-.015c.008-.056.014-.113.019-.17a6.091,6.091,0,0,0,.033-.637,6.269,6.269,0,0,0-12.507-.626,6.167,6.167,0,0,0-.032.636,6.247,6.247,0,0,0,.592,2.656.371.371,0,0,1,.036.16.377.377,0,0,1-.718.161,7,7,0,0,1-.663-2.976q0-.356.036-.712a7.022,7.022,0,1,1,6.992,7.73Z" transform="translate(-3297.62 -642.155)" fill="url(#linear-gradient-14)"/>
          </g>
        </g>
      </g>
      <g id="Grupo_130342" data-name="Grupo 130342" transform="translate(57.086 102.909)">
        <g id="Grupo_130340" data-name="Grupo 130340" transform="translate(32.238)">
          <g id="Grupo_130336" data-name="Grupo 130336" transform="translate(0 11.13)">
            <g id="Grupo_130331" data-name="Grupo 130331" transform="translate(15.195 56.314)">
              <path id="Trazado_192974" data-name="Trazado 192974" d="M3133.057,743.708c-1.306.113-3.572.3-5.358.375a5.168,5.168,0,0,1-2.049-.2c0,.04,0,.078,0,.113a.369.369,0,0,0,.351.349,62.6,62.6,0,0,0,7.017.007.263.263,0,0,0,.214-.395A2.07,2.07,0,0,0,3133.057,743.708Z" transform="translate(-3125.65 -739.193)" fill="url(#linear-gradient-15)"/>
              <path id="Trazado_192975" data-name="Trazado 192975" d="M3127.7,742.527c1.786-.079,4.052-.262,5.358-.375-1.284-1.575-5.358-2.636-5.358-2.636h-1.151a4.824,4.824,0,0,0-.9,2.811A5.171,5.171,0,0,0,3127.7,742.527Z" transform="translate(-3125.65 -737.636)" fill="url(#linear-gradient-16)"/>
              <path id="Trazado_192976" data-name="Trazado 192976" d="M3126.77,736.527l.107,2.131a.487.487,0,0,0,.416.458,1.886,1.886,0,0,0,.865-.072.575.575,0,0,0,.387-.443l.372-2.074Z" transform="translate(-3126.066 -736.527)" fill="url(#linear-gradient-17)"/>
            </g>
            <g id="Grupo_130333" data-name="Grupo 130333" transform="translate(0 54.322)">
              <g id="Grupo_130332" data-name="Grupo 130332" transform="translate(0 1.978)">
                <path id="Trazado_192977" data-name="Trazado 192977" d="M3102.433,743.873a1.033,1.033,0,0,1-.93-.687l0,.008a.736.736,0,0,0,.5.839,3.232,3.232,0,0,0,1.373.215,1.362,1.362,0,0,0,1.029-.475l0,0A3.453,3.453,0,0,1,3102.433,743.873Z" transform="translate(-3101.482 -738.985)" fill="url(#linear-gradient-18)"/>
                <path id="Trazado_192978" data-name="Trazado 192978" d="M3105.116,736.5h-.95c-1.445-.03-2.353,3.019-2.651,4.2a1.034,1.034,0,0,0,.93.687,3.451,3.451,0,0,0,1.97-.1,9.06,9.06,0,0,0,1.354-3.411A1.2,1.2,0,0,0,3105.116,736.5Z" transform="translate(-3101.495 -736.505)" fill="url(#linear-gradient-19)"/>
              </g>
              <path id="Trazado_192979" data-name="Trazado 192979" d="M3105.6,733.359l-.527,2.1a.568.568,0,0,0,.3.644,2.012,2.012,0,0,0,1.091.264.474.474,0,0,0,.387-.317l.774-2.2Z" transform="translate(-3102.811 -733.359)" fill="url(#linear-gradient-20)"/>
            </g>
            <path id="Trazado_192980" data-name="Trazado 192980" d="M3104.926,716.724c.656.582,2.788.659,2.788.659,7.683-18.439,10.825-21.058,10.825-21.058-1.109,6.959-.179,22.367-.179,22.367a4.614,4.614,0,0,0,2.9,0,118.743,118.743,0,0,1,3.923-29.164c-5.192-.116-7.953-1.893-8.855-2.606C3112,693.9,3104.926,716.724,3104.926,716.724Z" transform="translate(-3102.761 -661.796)" fill="url(#linear-gradient-21)"/>
            <path id="Trazado_192981" data-name="Trazado 192981" d="M3124.1,653.121c-.983,4.9-.631,13.676-.4,17.679a7.913,7.913,0,0,1-1.355,3.748.335.335,0,0,0,.135.47,23.151,23.151,0,0,0,8.834,2.449.6.6,0,0,0,.6-.445,116.167,116.167,0,0,1,6.689-18.94C3134.633,651.745,3124.1,653.121,3124.1,653.121Z" transform="translate(-3109.21 -649.2)" fill="#ffb30b"/>
            <path id="Trazado_192982" data-name="Trazado 192982" d="M3127.267,699.386a.246.246,0,0,1-.21-.374,7.727,7.727,0,0,1,3.046-2.644.246.246,0,0,1,.214.443,7.368,7.368,0,0,0-2.84,2.457A.244.244,0,0,1,3127.267,699.386Z" transform="translate(-3110.965 -665.294)" fill="#084a93"/>
            <g id="Grupo_130334" data-name="Grupo 130334" transform="translate(8.597 3.921)">
              <path id="Trazado_192983" data-name="Trazado 192983" d="M3115.358,675.372a16.863,16.863,0,0,0,3.114,7.42l.709-.578a21.91,21.91,0,0,1-.354-7.092A8.48,8.48,0,0,0,3115.358,675.372Z" transform="translate(-3115.231 -661.303)" fill="url(#linear-gradient-22)"/>
              <path id="Trazado_192984" data-name="Trazado 192984" d="M3122.545,659.245l-1.1-6.049s-7.334,5.606-6.164,14.07a8.482,8.482,0,0,1,3.47-.25A11.866,11.866,0,0,1,3122.545,659.245Z" transform="translate(-3115.157 -653.196)" fill="#ffb30b"/>
            </g>
            <g id="Grupo_130335" data-name="Grupo 130335" transform="translate(26.56 8.882)">
              <path id="Trazado_192985" data-name="Trazado 192985" d="M3146.558,661.086l-2.831,6.1c.458,3.681,2.435,5.273,4.567,5.883a12.934,12.934,0,0,1,.951-3.971C3146.521,666.283,3146.558,661.086,3146.558,661.086Z" transform="translate(-3143.727 -661.086)" fill="#ffb30b"/>
              <path id="Trazado_192986" data-name="Trazado 192986" d="M3151.943,673.825a12.948,12.948,0,0,0-.951,3.971c5.688,2.207,7.194-2.073,7.194-2.073l-1.051-.186A5.958,5.958,0,0,1,3151.943,673.825Z" transform="translate(-3146.424 -665.816)" fill="url(#linear-gradient-23)"/>
            </g>
            <path id="Trazado_192987" data-name="Trazado 192987" d="M3140.933,648.314l-1.367,5.024a.977.977,0,0,1-1.307.651,19.991,19.991,0,0,1-1.97-.9,1.317,1.317,0,0,1-.465-1.893l2.841-4.237Z" transform="translate(-3114.15 -646.959)" fill="url(#linear-gradient-24)"/>
          </g>
          <path id="Trazado_192988" data-name="Trazado 192988" d="M3144.857,671.5l-35.022,12.746a2.682,2.682,0,0,0-1.524,3.63l.106.234a2.493,2.493,0,0,0,3.316,1.23l34-15.731Z" transform="translate(-3103.928 -644.939)" fill="url(#linear-gradient-25)"/>
          <g id="Grupo_130337" data-name="Grupo 130337" transform="translate(39.737 1.914)" opacity="0.41">
            <ellipse id="Elipse_5199" data-name="Elipse 5199" cx="17.288" cy="16.976" rx="17.288" ry="16.976" fill="#bdd0fb"/>
          </g>
          <path id="Trazado_192989" data-name="Trazado 192989" d="M3180.823,629.256a18.893,18.893,0,1,0,19.237,18.89A19.066,19.066,0,0,0,3180.823,629.256Zm0,35.005a16.118,16.118,0,1,1,16.412-16.115A16.265,16.265,0,0,1,3180.823,664.261Z" transform="translate(-3123.797 -629.256)" fill="url(#linear-gradient-26)"/>
          <g id="Grupo_130338" data-name="Grupo 130338" transform="translate(38.944 1.11)">
            <path id="Trazado_192990" data-name="Trazado 192990" d="M3163.73,651.2a.189.189,0,0,1-.186-.165c-.057-.448-.1-.9-.12-1.359a.188.188,0,0,1,.179-.2.186.186,0,0,1,.2.179c.022.445.062.892.118,1.33a.188.188,0,0,1-.163.211Zm.133-5.283a.2.2,0,0,1-.033,0,.189.189,0,0,1-.152-.219,17.47,17.47,0,0,1,1.041-3.564h0a18.037,18.037,0,0,1,16.786-11.112,18.292,18.292,0,0,1,9.721,2.778.188.188,0,0,1-.2.319,17.914,17.914,0,0,0-9.521-2.72,17.662,17.662,0,0,0-16.438,10.878h0a17.1,17.1,0,0,0-1.019,3.487A.188.188,0,0,1,3163.863,645.918Z" transform="translate(-3163.424 -631.022)" fill="#bdd0fb"/>
          </g>
          <g id="Grupo_130339" data-name="Grupo 130339" transform="translate(23.421 5.969)">
            <path id="Trazado_192991" data-name="Trazado 192991" d="M3146.268,642.567c.013.086-1.14,5.733-1.14,5.733l-3.21-.727.3-5.515S3146.06,641.122,3146.268,642.567Z" transform="translate(-3139.917 -639.868)" fill="url(#linear-gradient-27)"/>
            <path id="Trazado_192992" data-name="Trazado 192992" d="M3141.784,642.17l-.384,2.891a.4.4,0,0,0,0,.111c.032.226.2,1,.979.777a3.666,3.666,0,0,1,1.8-.235.407.407,0,0,1,.28.471,17.6,17.6,0,0,1-.739,2.631.407.407,0,0,1-.493.24,13.156,13.156,0,0,1-2.83-1.158.408.408,0,0,1-.2-.367c.031-.73.116-2.948.045-3.57-.067-.583-.784-.934-1.1-1.059a.4.4,0,0,1-.223-.224,1.056,1.056,0,0,1,.71-1.539.408.408,0,0,0,.258-.528,1.058,1.058,0,0,1,.594-1.462,1.493,1.493,0,0,1,1.781.429.406.406,0,0,0,.519.061.322.322,0,0,1,.366.013.4.4,0,0,0,.569-.172,1.216,1.216,0,0,1,1.413-.7c1.439.246,1.6,1.841,1.222,2.775s-1.924.578-2.7.107a1.742,1.742,0,0,0-1.686.218A.4.4,0,0,0,3141.784,642.17Z" transform="translate(-3138.763 -638.75)" fill="url(#linear-gradient-28)"/>
            <path id="Trazado_192993" data-name="Trazado 192993" d="M3140.088,647.386s.591-1.656-.016-2.062-1.507-.195-1.309,1C3139.009,647.822,3140.088,647.386,3140.088,647.386Z" transform="translate(-3138.735 -641.121)" fill="url(#linear-gradient-29)"/>
          </g>
          <path id="Trazado_192994" data-name="Trazado 192994" d="M3120.59,686.137l3.311-.27,1.434,1.322s-.34.469-1.4.2a15.246,15.246,0,0,0-2.514-.336s-1.464.66-1.481-.575Z" transform="translate(-3108.335 -650.274)" fill="url(#linear-gradient-30)"/>
          <path id="Trazado_192995" data-name="Trazado 192995" d="M3161.56,676.609c.287.223,1.268-.243,1.867-.567a.689.689,0,0,0,.334-.816c-.144-.455-.385-1.044-.681-1.117C3162.587,673.986,3160.38,675.687,3161.56,676.609Z" transform="translate(-3123.66 -645.906)" fill="url(#linear-gradient-31)"/>
          <path id="Trazado_192996" data-name="Trazado 192996" d="M3110.905,695.845a.194.194,0,0,1-.062-.011c-1.4-.484-1.725-1.316-1.751-1.93a2.141,2.141,0,0,1,1.4-2.065l4.205-1.64a.188.188,0,0,1,.137.351l-4.205,1.64a1.765,1.765,0,0,0-1.157,1.7c.031.722.536,1.257,1.5,1.589a.188.188,0,0,1-.061.366Z" transform="translate(-3104.307 -651.878)" fill="#bdd0fb"/>
          <path id="Trazado_192997" data-name="Trazado 192997" d="M3120.06,689.635a.188.188,0,0,1-.068-.363l.545-.212a.188.188,0,1,1,.136.351l-.544.213A.192.192,0,0,1,3120.06,689.635Z" transform="translate(-3108.31 -651.455)" fill="#bdd0fb"/>
        </g>
        <g id="Grupo_130341" data-name="Grupo 130341" transform="translate(0 72.697)">
          <path id="Trazado_192998" data-name="Trazado 192998" d="M3142.469,820.335a.615.615,0,0,1-.615-.615V746.2a.615.615,0,1,1,1.23,0V819.72A.614.614,0,0,1,3142.469,820.335Z" transform="translate(-3084.233 -745.142)" fill="#91b3fa"/>
          <path id="Trazado_192999" data-name="Trazado 192999" d="M3115.958,820.335a.615.615,0,0,1-.616-.615V746.2a.615.615,0,1,1,1.23,0V819.72A.615.615,0,0,1,3115.958,820.335Z" transform="translate(-3074.39 -745.142)" fill="#91b3fa"/>
          <path id="Trazado_193000" data-name="Trazado 193000" d="M3050.822,820.8a.616.616,0,0,1-.566-.856l31.454-73.987a.615.615,0,1,1,1.133.482l-31.454,73.987A.615.615,0,0,1,3050.822,820.8Z" transform="translate(-3050.207 -745.142)" fill="#91b3fa"/>
          <path id="Trazado_193001" data-name="Trazado 193001" d="M3081.724,820.8a.616.616,0,0,1-.566-.856l31.454-73.987a.615.615,0,1,1,1.132.482l-31.453,73.987A.616.616,0,0,1,3081.724,820.8Z" transform="translate(-3061.68 -745.142)" fill="#91b3fa"/>
          <path id="Trazado_193002" data-name="Trazado 193002" d="M3126.825,746.615h-28.812a.867.867,0,0,1-.866-.867h0a.867.867,0,0,1,.866-.867h28.813a.867.867,0,0,1,.867.867h0A.867.867,0,0,1,3126.825,746.615Z" transform="translate(-3067.634 -744.881)" fill="#91b3fa"/>
          <path id="Trazado_193003" data-name="Trazado 193003" d="M3112.687,764.808H3093.2a.615.615,0,0,1,0-1.23h19.486a.615.615,0,0,1,0,1.23Z" transform="translate(-3065.941 -751.823)" fill="#91b3fa"/>
          <rect id="Rectángulo_294296" data-name="Rectángulo 294296" width="19.486" height="1.23" transform="translate(21.281 25.748)" fill="#91b3fa"/>
          <rect id="Rectángulo_294297" data-name="Rectángulo 294297" width="19.486" height="1.23" transform="translate(15.492 39.741)" fill="#91b3fa"/>
          <path id="Trazado_193004" data-name="Trazado 193004" d="M3084.317,831.576H3064.83a.615.615,0,1,1,0-1.23h19.487a.615.615,0,1,1,0,1.23Z" transform="translate(-3055.408 -776.612)" fill="#91b3fa"/>
          <path id="Trazado_193005" data-name="Trazado 193005" d="M3074.982,853.832H3055.5a.615.615,0,0,1,0-1.23h19.486a.615.615,0,1,1,0,1.23Z" transform="translate(-3051.943 -784.875)" fill="#91b3fa"/>
        </g>
      </g>
      <g id="Grupo_130343" data-name="Grupo 130343" transform="translate(248.698 201.932)">
        <path id="Trazado_193006" data-name="Trazado 193006" d="M3416.779,791.359h-59.508a2.3,2.3,0,0,1-2.3-2.3h0a2.3,2.3,0,0,1,2.3-2.3h59.508a2.3,2.3,0,0,1,2.3,2.3h0A2.3,2.3,0,0,1,3416.779,791.359Z" transform="translate(-3354.969 -786.754)" fill="#7d97f4"/>
        <path id="Trazado_193007" data-name="Trazado 193007" d="M3428.152,805.705h-59.509a2.3,2.3,0,0,1-2.3-2.3h0a2.3,2.3,0,0,1,2.3-2.3h59.509a2.3,2.3,0,0,1,2.3,2.3h0A2.3,2.3,0,0,1,3428.152,805.705Z" transform="translate(-3359.191 -792.08)" fill="#7d97f4"/>
        <path id="Trazado_193008" data-name="Trazado 193008" d="M3411.23,834.4h-42.586a2.3,2.3,0,0,1-2.3-2.3h0a2.3,2.3,0,0,1,2.3-2.3h42.586a2.3,2.3,0,0,1,2.3,2.3h0A2.3,2.3,0,0,1,3411.23,834.4Z" transform="translate(-3359.191 -802.733)" fill="#7d97f4"/>
        <path id="Trazado_193009" data-name="Trazado 193009" d="M3438.766,820.052h-59.508a2.3,2.3,0,0,1-2.3-2.3h0a2.3,2.3,0,0,1,2.3-2.3h59.508a2.3,2.3,0,0,1,2.3,2.3h0A2.3,2.3,0,0,1,3438.766,820.052Z" transform="translate(-3363.132 -797.407)" fill="#7d97f4"/>
      </g>
      <g id="Grupo_130348" data-name="Grupo 130348" transform="translate(265.782 177.429)">
        <path id="Trazado_193010" data-name="Trazado 193010" d="M3412.721,857.142s.253,1.434.377,2.854a.977.977,0,0,1-.936,1.06c-1.891.079-5.937.232-7.388.167a.318.318,0,0,1-.28-.436h0a.712.712,0,0,1,.364-.384l6.683-3.071Z" transform="translate(-3390.431 -788.384)" fill="url(#linear-gradient-32)"/>
        <path id="Trazado_193011" data-name="Trazado 193011" d="M3416.639,855.644l-.2,1.716a2.129,2.129,0,0,1-1.97-.069l.484-1.913Z" transform="translate(-3394.142 -787.73)" fill="url(#linear-gradient-33)"/>
        <path id="Trazado_193012" data-name="Trazado 193012" d="M3416.569,804.487c.087.448.471,22.363-1.871,32.183a.334.334,0,0,0,.2.388,5.808,5.808,0,0,0,1.908.388.574.574,0,0,0,.57-.412c.67-2.279,3.878-13.7,4.3-24.6.468-12.186,0-.415,0-.415l-.274-7.533Z" transform="translate(-3394.225 -768.835)" fill="url(#linear-gradient-34)"/>
        <path id="Trazado_193013" data-name="Trazado 193013" d="M3428.235,858.332a10.345,10.345,0,0,1,.793,2.649.6.6,0,0,1-.525.715c-.625.062-1.586.14-2.356.135a.6.6,0,0,1-.589-.664,5.01,5.01,0,0,1,1.172-2.753Z" transform="translate(-3398.259 -788.826)" fill="url(#linear-gradient-35)"/>
        <path id="Trazado_193014" data-name="Trazado 193014" d="M3429.273,854.762l-.475,2.6a1.678,1.678,0,0,1-1.4.1l.228-2.792Z" transform="translate(-3398.943 -787.463)" fill="url(#linear-gradient-36)"/>
        <path id="Trazado_193015" data-name="Trazado 193015" d="M3426.835,804.841c1.916,11.563-.416,28.578-1.2,31.908a.519.519,0,0,1-.419.394,3.488,3.488,0,0,1-1.5-.06.476.476,0,0,1-.342-.438c-.105-2.692.084-19.222-1.7-25.753a1.481,1.481,0,0,0-.572-.818l-3.465-2.463-.266-3.982Z" transform="translate(-3395.221 -768.516)" fill="url(#linear-gradient-37)"/>
        <g id="Grupo_130344" data-name="Grupo 130344" transform="translate(2.448 5.524)">
          <path id="Trazado_193016" data-name="Trazado 193016" d="M3408.114,770.158a53.976,53.976,0,0,1,12.076,1.507c1.712,9.986.3,21.5.3,21.5-4.445,1.166-9.458-.712-9.458-.712-.739-4.174-4.186-15.921-4.186-15.921a18.915,18.915,0,0,1-7.019-2.227,12.316,12.316,0,0,0,2.433-5.09A19.285,19.285,0,0,0,3408.114,770.158Z" transform="translate(-3391.155 -761.265)" fill="#ffb30b"/>
          <path id="Trazado_193017" data-name="Trazado 193017" d="M3386.034,757a1.1,1.1,0,0,1,1.278-.359c.845,3.569,5.275,6.463,9.827,7.877a12.319,12.319,0,0,1-2.433,5.089C3387.152,765.365,3386.034,757,3386.034,757Z" transform="translate(-3386.034 -756.569)" fill="url(#linear-gradient-38)"/>
        </g>
        <g id="Grupo_130345" data-name="Grupo 130345" transform="translate(0)">
          <path id="Trazado_193018" data-name="Trazado 193018" d="M3384.726,753.915c-.059.188.625.473,1.027-.294a7.237,7.237,0,0,0,.018-2.243,29.413,29.413,0,0,0-3.44-3.6.54.54,0,0,0-.067.75l1.1,1.147a5.315,5.315,0,0,0-.643,1.271,1.544,1.544,0,0,0,.154,1.135c.193.348.457.8.706,1.154A1.523,1.523,0,0,0,3384.726,753.915Z" transform="translate(-3382.141 -747.782)" fill="url(#linear-gradient-39)"/>
          <path id="Trazado_193019" data-name="Trazado 193019" d="M3384.721,751.982l1,.851.315.847-.895.992a11.573,11.573,0,0,0-.524-2.044C3384.4,752.264,3384.513,752.089,3384.721,751.982Z" transform="translate(-3383.017 -749.341)" fill="url(#linear-gradient-40)"/>
        </g>
        <path id="Trazado_193020" data-name="Trazado 193020" d="M3428.714,778.669l2.2-5.56s5.363,3.644,6.245,8.264a12.7,12.7,0,0,0-4.662,1.249C3432.1,780.441,3428.714,778.669,3428.714,778.669Z" transform="translate(-3399.433 -757.185)" fill="#ffb30b"/>
        <path id="Trazado_193021" data-name="Trazado 193021" d="M3420.789,788.78s6.021,3.4,8.052.5a2.283,2.283,0,0,0,.418-1.775,12.7,12.7,0,0,1,4.662-1.249,6.379,6.379,0,0,1-.693,4.372c-3.559,6.51-13.238-.36-13.238-.36Z" transform="translate(-3396.194 -762.065)" fill="url(#linear-gradient-41)"/>
        <g id="Grupo_130346" data-name="Grupo 130346" transform="translate(10.276 17.476)">
          <path id="Trazado_193022" data-name="Trazado 193022" d="M3413.528,789.779l-3.286-11.476a.334.334,0,0,0-.283-.241c-.6-.069-2.321-.264-4.312-.433a48.882,48.882,0,0,0-6.851-.228.336.336,0,0,0-.274.484c.947,1.915,4.841,9.707,6.791,12.26a.337.337,0,0,0,.271.133l7.625-.071A.335.335,0,0,0,3413.528,789.779Z" transform="translate(-3398.486 -776.235)" fill="url(#linear-gradient-42)"/>
          <path id="Trazado_193023" data-name="Trazado 193023" d="M3407.808,775.976l-2.383-.4a.171.171,0,0,0-.19.222l.236.715a.17.17,0,0,0,.14.116l2.293.307a.171.171,0,0,0,.189-.209l-.146-.624A.172.172,0,0,0,3407.808,775.976Z" transform="translate(-3400.988 -775.577)" fill="#084a93"/>
          <path id="Trazado_193024" data-name="Trazado 193024" d="M3408.936,778.415l-.2-1.022a.237.237,0,0,0-.208-.191l-4.812-.488a.236.236,0,0,0-.254.29l.306,1.274a.236.236,0,0,0,.218.18l4.7.237A.237.237,0,0,0,3408.936,778.415Z" transform="translate(-3400.332 -775.999)" fill="#084a93"/>
          <path id="Trazado_193025" data-name="Trazado 193025" d="M3418.75,790.4a8.347,8.347,0,0,0,.273-2.55c-.185-.668-.543-1.526-1.735-1.335a17.469,17.469,0,0,0-2.6.693.682.682,0,0,0,.977.589l-.562.435s.08.7.846.324l-.523.577a.609.609,0,0,0,.892.205C3416.883,788.97,3417.152,790.626,3418.75,790.4Z" transform="translate(-3404.501 -779.627)" fill="url(#linear-gradient-43)"/>
        </g>
        <path id="Trazado_193026" data-name="Trazado 193026" d="M3420.063,763.3l1.827,5.283a.19.19,0,0,1-.087.229,4.294,4.294,0,0,1-4.454-.3.894.894,0,0,1-.413-.64l-.591-4.573Z" transform="translate(-3394.84 -753.543)" fill="url(#linear-gradient-44)"/>
        <g id="Grupo_130347" data-name="Grupo 130347" transform="translate(19.476 2.117)">
          <path id="Trazado_193027" data-name="Trazado 193027" d="M3414.89,755.517s-2.006,3.776-1.749,5.3,2.743,1.416,4.914.177l1.517-4.077Z" transform="translate(-3413.119 -752.771)" fill="url(#linear-gradient-45)"/>
          <path id="Trazado_193028" data-name="Trazado 193028" d="M3418.4,757.371a.156.156,0,0,1-.068-.228,4.034,4.034,0,0,0,.558-1.185s.361-.231-.917-.537-3.185-.781-3.586-1.869c-.391-1.061.636-3.729,2.274-1.6a.155.155,0,0,0,.246,0,1.605,1.605,0,0,1,1.955-.635,1.472,1.472,0,0,1,1.008,1.422.154.154,0,0,0,.183.159,1.8,1.8,0,0,1,2.1.977,1.443,1.443,0,0,1-.1,1.733.155.155,0,0,0,.066.258.934.934,0,0,1,.659,1.066c-.055.987-1.158.9-1.473.855a.156.156,0,0,0-.138.048,5.3,5.3,0,0,1-2.8,1.717.157.157,0,0,1-.165-.207l.568-1.653a.155.155,0,0,0-.084-.194Z" transform="translate(-3413.558 -751.15)" fill="url(#linear-gradient-46)"/>
          <path id="Trazado_193029" data-name="Trazado 193029" d="M3420.194,761.132s1.429-.98,1.533-.155-1.287,1.2-1.976.888Z" transform="translate(-3415.581 -754.676)" fill="url(#linear-gradient-47)"/>
        </g>
      </g>
      <g id="Grupo_130351" data-name="Grupo 130351" transform="translate(185.885 31.972)">
        <g id="Grupo_130349" data-name="Grupo 130349" transform="translate(3.913 4.779)">
          <path id="Trazado_193030" data-name="Trazado 193030" d="M3268.244,544.356a.624.624,0,0,1-.475-.192.414.414,0,0,1-.095-.362l.1-.46a.581.581,0,0,1,.544-.424l1.362-.112.222-3.5c-2.458.071-4.658.128-6.1.164a1.893,1.893,0,0,1-1.928-1.836l-.584-11.481a1.405,1.405,0,0,1,1.3-1.523c3.849-.284,14.684-.511,19.164-.6a1.51,1.51,0,0,1,1.506,1.2h0a91.567,91.567,0,0,1,.879,12.078,1.468,1.468,0,0,1-1.374,1.5c-1.4.092-3.709.193-7.059.308l.693,3.129,1.052-.09a.579.579,0,0,1,.623.346l.258.739a.418.418,0,0,1-.049.377.636.636,0,0,1-.5.25l-9.491.484Zm1.86-5.435a.188.188,0,0,1,.188.2l-.246,3.872a.188.188,0,0,1-.172.176l-1.524.125a.224.224,0,0,0-.206.126l-.1.459a.041.041,0,0,0,.012.039.266.266,0,0,0,.213.061l9.491-.484a.274.274,0,0,0,.208-.085.041.041,0,0,0,.005-.043l-.258-.739a.227.227,0,0,0-.235-.094l-1.216.1a.181.181,0,0,1-.2-.146l-.778-3.511a.189.189,0,0,1,.178-.229c3.468-.118,5.847-.221,7.272-.315a1.094,1.094,0,0,0,1.023-1.117,91.448,91.448,0,0,0-.871-12.011h0a1.134,1.134,0,0,0-1.13-.9c-4.476.085-15.3.313-19.144.6a1.036,1.036,0,0,0-.949,1.129l.585,11.481a1.506,1.506,0,0,0,1.542,1.479c1.483-.037,3.765-.1,6.307-.17Z" transform="translate(-3261.288 -524.031)" fill="#7d97f4"/>
          <path id="Trazado_193031" data-name="Trazado 193031" d="M3264.022,538.41a1.2,1.2,0,0,1-1.2-1.137l-.556-10.908h0a.968.968,0,0,1,.941-1.017l18.948-.5a.915.915,0,0,1,.93.865l.514,10.812a1.173,1.173,0,0,1-1.128,1.227l-18.409.662Zm-1.377-12.065.556,10.908a.829.829,0,0,0,.851.78l18.408-.663a.8.8,0,0,0,.766-.832l-.514-10.812a.53.53,0,0,0-.545-.505l-18.947.5a.591.591,0,0,0-.575.621Z" transform="translate(-3261.652 -524.333)" fill="#7d97f4"/>
          <path id="Trazado_193032" data-name="Trazado 193032" d="M3278.764,547.1a.443.443,0,0,1-.021-.885.443.443,0,0,1,.351.739.437.437,0,0,1-.306.146Zm0-.509h0a.065.065,0,0,0-.046.022.069.069,0,0,0-.017.047.071.071,0,0,0,.022.047.05.05,0,0,0,.048.016.063.063,0,0,0,.046-.021.068.068,0,0,0,.017-.047h0a.071.071,0,0,0-.022-.046A.065.065,0,0,0,3278.766,546.592Z" transform="translate(-3267.612 -532.267)" fill="#7d97f4"/>
          <path id="Trazado_193033" data-name="Trazado 193033" d="M3280.638,554.717a.188.188,0,0,1-.011-.376l.392-.023a.188.188,0,0,1,.022.375l-.391.023Z" transform="translate(-3268.402 -535.275)" fill="#7d97f4"/>
          <path id="Trazado_193034" data-name="Trazado 193034" d="M3272.463,555.4a.182.182,0,0,1-.044-.005.188.188,0,0,1-.138-.228l.046-.19a.525.525,0,0,1,.514-.323l4.157-.245a.186.186,0,0,1,.2.177.188.188,0,0,1-.177.2l-4.157.244a.306.306,0,0,0-.179.057l-.038.17A.189.189,0,0,1,3272.463,555.4Z" transform="translate(-3265.367 -535.31)" fill="#7d97f4"/>
        </g>
        <g id="Grupo_130350" data-name="Grupo 130350" transform="translate(0 0)">
          <path id="Trazado_193035" data-name="Trazado 193035" d="M3265.149,546c-1.432,0-2.732-.044-3.821-.135-2.525-.211-3.878-.642-4.136-1.318-.885-2.317-3.773-23.724-.85-26.923a.188.188,0,0,1,.124-.06c2.732-.226,26.747-2.157,28.45-.395.938.97,1.247,7.251,1.225,12.8-.023,5.455-.377,11.891-1.1,13.128-.713,1.214-6.89,2.015-9.511,2.3A99.14,99.14,0,0,1,3265.149,546Zm-8.577-28.068c-2.547,3.071-.121,23.62.971,26.481.09.235.642.812,3.816,1.076,7.587.632,22.428-1.007,23.352-2.579.583-.993,1.026-6.435,1.053-12.939.028-6.78-.423-11.82-1.119-12.541C3283.454,516.194,3267.234,517.05,3256.573,517.928Z" transform="translate(-3255.065 -516.43)" fill="#7d97f4"/>
        </g>
      </g>
      <g id="Grupo_130355" data-name="Grupo 130355" transform="translate(129.498 29.411)">
        <g id="Grupo_130354" data-name="Grupo 130354">
          <g id="Grupo_130352" data-name="Grupo 130352" transform="translate(7.666 3.94)">
            <path id="Trazado_193036" data-name="Trazado 193036" d="M3179.255,541.42a1.07,1.07,0,0,1-1.064-.989c-.321-4.362-.553-16.654-.617-20.317a1.313,1.313,0,0,1,1.178-1.337,101.984,101.984,0,0,1,12.423.128,1.4,1.4,0,0,1,1.305,1.218h0c.605,4.763.878,14.995.968,19.172a1.673,1.673,0,0,1-1.53,1.7c-3.691.311-10.078.4-12.653.426Zm3.453-22.42c-1.493,0-2.879.041-3.916.153a.937.937,0,0,0-.842.955c.064,3.661.3,15.944.616,20.3a.692.692,0,0,0,.689.64h0c2.573-.025,8.948-.114,12.627-.424a1.3,1.3,0,0,0,1.184-1.315c-.089-4.172-.362-14.388-.965-19.133h0a1.02,1.02,0,0,0-.953-.89C3189.361,519.178,3185.808,519,3182.708,519Zm-.1,19.384c-1.111,0-2.078-.012-2.745-.023a1.19,1.19,0,0,1-1.172-1.1c-.273-3.546-.29-13.205-.288-16.081a1.156,1.156,0,0,1,1.049-1.154,107.337,107.337,0,0,1,10.958.095,1.3,1.3,0,0,1,1.235,1.2c.269,3.545.187,12.717.154,15.445a1.323,1.323,0,0,1-1.158,1.295A76.459,76.459,0,0,1,3182.606,538.383Zm.239-18.1c-1.308,0-2.5.031-3.358.113a.783.783,0,0,0-.71.78c0,2.872.015,12.518.288,16.052a.814.814,0,0,0,.8.756,98.136,98.136,0,0,0,10.728-.3.946.946,0,0,0,.827-.926h0c.032-2.723.115-11.882-.153-15.412a.925.925,0,0,0-.877-.852C3188.768,520.416,3185.563,520.283,3182.844,520.283Z" transform="translate(-3177.573 -518.624)" fill="#7d97f4"/>
            <path id="Trazado_193037" data-name="Trazado 193037" d="M3189.025,552.528a1.128,1.128,0,1,1,1.129-1.176h0a1.13,1.13,0,0,1-1.08,1.174Zm0-1.881h-.032a.752.752,0,0,0-.477,1.305.763.763,0,0,0,.54.2.753.753,0,0,0,.719-.783h0A.753.753,0,0,0,3189.026,550.648Z" transform="translate(-3181.407 -530.374)" fill="#7d97f4"/>
            <path id="Trazado_193038" data-name="Trazado 193038" d="M3189.315,520.028h-.006c-.683-.011-2.211-.027-2.753-.032a.394.394,0,0,1-.39-.378h0a.392.392,0,0,1,.362-.411,26.064,26.064,0,0,1,2.8.009.4.4,0,0,1,.365.3.409.409,0,0,1-.07.361A.394.394,0,0,1,3189.315,520.028Zm-1.708-.478c-.369,0-.739.009-1.05.033l-.016.02a.018.018,0,0,0,.018.017c.543.006,2.072.021,2.755.032l.013-.046C3189.043,519.584,3188.326,519.55,3187.607,519.55Z" transform="translate(-3180.764 -518.827)" fill="#7d97f4"/>
          </g>
          <g id="Grupo_130353" data-name="Grupo 130353">
            <path id="Trazado_193039" data-name="Trazado 193039" d="M3181.609,541.7a76.7,76.7,0,0,1-11.44-.74c-2.5-.416-3.814-.957-4.016-1.652-.692-2.382-1.818-23.954,1.358-26.9l.054-.05h.074c2.744-.006,26.834.041,28.386,1.936.855,1.044.65,7.328.173,12.862-.469,5.435-1.35,11.82-2.176,12.994-.811,1.151-7.031,1.443-9.668,1.515C3183.447,541.689,3182.528,541.7,3181.609,541.7Zm-13.893-28.968c-2.791,2.849-2.055,23.53-1.2,26.471.07.242.573.862,3.717,1.385,7.51,1.252,22.434.834,23.483-.658.663-.942,1.55-6.329,2.109-12.81.583-6.755.547-11.814-.088-12.59C3194.649,513.206,3178.417,512.73,3167.716,512.733Z" transform="translate(-3165.381 -512.356)" fill="#7d97f4"/>
          </g>
        </g>
        <path id="Trazado_193040" data-name="Trazado 193040" d="M3180.95,531.226a.189.189,0,0,1-.189-.181l-.245-6.155a.188.188,0,0,1,.18-.2.192.192,0,0,1,.2.18l.245,6.155a.188.188,0,0,1-.181.2Z" transform="translate(-3171 -516.937)" fill="#7d97f4"/>
      </g>
      <g id="Grupo_130359" data-name="Grupo 130359" transform="translate(232.593 31.577)">
        <g id="Grupo_130356" data-name="Grupo 130356">
          <path id="Trazado_193041" data-name="Trazado 193041" d="M3353.092,552.829c-1.873,0-6.608-2.228-8.725-3.272a83.542,83.542,0,0,1-12.218-7.244c-2.015-1.535-2.924-2.625-2.778-3.333.5-2.429,9.572-22.033,13.758-23.159l.071-.019.065.034c2.426,1.279,23.713,12.562,24.2,14.963.269,1.322-2.846,6.784-5.851,11.455-2.952,4.588-6.71,9.823-7.989,10.476A1.2,1.2,0,0,1,3353.092,552.829Zm-9.935-36.623c-3.8,1.217-12.8,19.85-13.417,22.85-.051.247.1,1.029,2.637,2.959,6.057,4.613,19.455,11.211,21.078,10.381,1.025-.524,4.325-4.875,7.844-10.344,3.668-5.7,6-10.194,5.8-11.176C3366.755,529.194,3352.619,521.2,3343.157,516.206Z" transform="translate(-3329.355 -515.803)" fill="#7d97f4"/>
        </g>
        <g id="Grupo_130358" data-name="Grupo 130358" transform="translate(5.743 8.07)">
          <g id="Grupo_130357" data-name="Grupo 130357">
            <path id="Trazado_193042" data-name="Trazado 193042" d="M3357.76,551.509a1.424,1.424,0,0,1-.5-.092h0c-4.6-1.741-14-6.408-17.829-8.334a1.709,1.709,0,0,1-.8-2.195c1.493-3.5,4.478-9.321,5.693-11.663a1.092,1.092,0,0,1,1.406-.5c4.095,1.8,15.345,7.5,18.7,9.2a1.341,1.341,0,0,1,.643,1.7,104.423,104.423,0,0,1-6.084,11.188A1.427,1.427,0,0,1,3357.76,551.509Zm-.371-.444a1.052,1.052,0,0,0,1.269-.438,104.073,104.073,0,0,0,6.056-11.133.967.967,0,0,0-.463-1.227c-3.349-1.7-14.591-7.4-18.677-9.193a.714.714,0,0,0-.92.325c-1.213,2.338-4.193,8.153-5.681,11.637a1.332,1.332,0,0,0,.624,1.711c3.822,1.923,13.2,6.584,17.792,8.318Zm-.279-.868a1.406,1.406,0,0,1-.564-.12c-3.4-1.5-11.884-6.095-14.4-7.466h0a1.361,1.361,0,0,1-.654-1.652,93.02,93.02,0,0,1,4.752-9.641,1.209,1.209,0,0,1,1.564-.493c3.423,1.508,12.389,6.245,15.055,7.662a1.186,1.186,0,0,1,.572,1.487,100.967,100.967,0,0,1-5.206,9.6A1.294,1.294,0,0,1,3357.111,550.2Zm-14.786-7.916c2.515,1.37,10.984,5.955,14.375,7.452a.95.95,0,0,0,1.207-.35,101.132,101.132,0,0,0,5.181-9.55.813.813,0,0,0-.4-1.013c-2.664-1.415-11.619-6.147-15.031-7.649a.837.837,0,0,0-1.083.33,92.973,92.973,0,0,0-4.729,9.592.984.984,0,0,0,.481,1.188Z" transform="translate(-3338.49 -528.638)" fill="#7d97f4"/>
            <path id="Trazado_193043" data-name="Trazado 193043" d="M3345.042,539.1a.815.815,0,0,1-.354-.081h0a.824.824,0,1,1,.354.081Zm-.191-.42a.448.448,0,1,0-.211-.6.448.448,0,0,0,.211.6Z" transform="translate(-3340.617 -531.911)" fill="#7d97f4"/>
          </g>
          <path id="Trazado_193044" data-name="Trazado 193044" d="M3369.971,543.688a.188.188,0,0,1-.082-.019l-5.692-2.734a.188.188,0,1,1,.163-.339l5.692,2.734a.188.188,0,0,1-.081.358Z" transform="translate(-3347.995 -533.071)" fill="#7d97f4"/>
        </g>
      </g>
      <g id="Grupo_130362" data-name="Grupo 130362" transform="translate(281.139 39.877)">
        <g id="Grupo_130360" data-name="Grupo 130360" transform="translate(12.235 26.905)">
          <path id="Trazado_193045" data-name="Trazado 193045" d="M3426.517,571.955a.963.963,0,0,1,.219.263c.091.17.147.429.268.656a7.39,7.39,0,0,1,.39.873l0,.006c.071.145.1.281-.052.363a.264.264,0,0,1-.374-.131s-.208-.436-.439-.861c-.056-.107-.1-.219-.154-.319s-.078-.164-.111-.235a1.182,1.182,0,0,0-.079-.169c-.027-.045-.041-.072-.041-.072l-.067-.114a.253.253,0,0,1,.072-.377.247.247,0,0,1,.364.116Z" transform="translate(-3426.028 -571.797)" fill="#7d97f4"/>
          <path id="Trazado_193046" data-name="Trazado 193046" d="M3429.67,577.3l1.039,1.622a.3.3,0,0,1-.111.411.31.31,0,0,1-.425-.08l-1.041-1.621a.3.3,0,0,1,.111-.412.312.312,0,0,1,.427.08Z" transform="translate(-3427.164 -573.793)" fill="#7d97f4"/>
          <path id="Trazado_193047" data-name="Trazado 193047" d="M3432.915,582.6l1.242,1.454a.243.243,0,0,1-.042.374.3.3,0,0,1-.412-.066l-1.167-1.539c-.1-.128-.128-.241.012-.342s.231.057.367.119Z" transform="translate(-3428.413 -575.75)" fill="#7d97f4"/>
          <path id="Trazado_193048" data-name="Trazado 193048" d="M3436.623,587.584l1.431,1.267c.108.117.149.223.02.334a.281.281,0,0,1-.4-.05l-1.3-1.439c-.109-.117-.2-.157-.072-.268s.19.157.322.157Z" transform="translate(-3429.818 -577.59)" fill="#7d97f4"/>
          <path id="Trazado_193049" data-name="Trazado 193049" d="M3441.594,590.685l1.275,1.571c.119.1.028.429-.09.55s-.355.2-.474.1l-1.484-1.249c-.12-.105.052-.555.17-.676a1.357,1.357,0,0,1,.6-.295Z" transform="translate(-3431.504 -578.81)" fill="#7d97f4"/>
          <path id="Trazado_193050" data-name="Trazado 193050" d="M3445.858,595.935l1.636.942c.131.09.165.182.062.312a.3.3,0,0,1-.416.029l-1.608-1.135c-.131-.091-.177-.107-.074-.238s.281-.287.4.09Z" transform="translate(-3433.22 -580.671)" fill="#7d97f4"/>
          <path id="Trazado_193051" data-name="Trazado 193051" d="M3451.531,598.468l1.589,1.034c.141.072.1.309.017.448a.388.388,0,0,1-.452.153l-1.781-.885c-.142-.073-.029-.367.056-.506s.049-.244.57-.244Z" transform="translate(-3435.238 -581.7)" fill="#7d97f4"/>
          <path id="Trazado_193052" data-name="Trazado 193052" d="M3456.795,601.462l1.893.677a.27.27,0,0,1,.159.367.317.317,0,0,1-.386.174l-1.884-.661a.28.28,0,0,1-.164-.373.393.393,0,0,1,.381-.183Z" transform="translate(-3437.3 -582.811)" fill="#7d97f4"/>
          <path id="Trazado_193053" data-name="Trazado 193053" d="M3462.714,603.607l1.958.571a.262.262,0,0,1,.189.341.3.3,0,0,1-.37.177l-1.911-.592a.264.264,0,0,1-.209-.333c.059-.148.294-.261.341-.164Z" transform="translate(-3439.516 -583.594)" fill="#7d97f4"/>
          <path id="Trazado_193054" data-name="Trazado 193054" d="M3468.778,605.651l2.016.382c.153.036.269.14.22.289a.282.282,0,0,1-.351.178l-1.949-.485c-.154-.037-.3-.1-.247-.249s.2-.115.311-.115Z" transform="translate(-3441.781 -584.365)" fill="#7d97f4"/>
          <path id="Trazado_193055" data-name="Trazado 193055" d="M3475.217,606.583l1.99.336a.272.272,0,0,1,.213.334.323.323,0,0,1-.348.243l-2.01-.285a.288.288,0,0,1-.207-.355c.033-.151.224-.337.361-.275Z" transform="translate(-3444.154 -584.708)" fill="#7d97f4"/>
          <path id="Trazado_193056" data-name="Trazado 193056" d="M3481.541,607.416s.52,0,1.032,0c.5-.025,1-.053,1-.053l.022,0a.26.26,0,0,1,.285.257.3.3,0,0,1-.288.287l-1.054.054-1.025-.005a.262.262,0,0,1-.276-.27.316.316,0,0,1,.3-.268Z" transform="translate(-3446.527 -585.001)" fill="#7d97f4"/>
          <path id="Trazado_193057" data-name="Trazado 193057" d="M3487.892,606.243a.994.994,0,0,0,.345-.041c.093-.029.224-.033.327-.075s.231-.07.346-.113c.225-.1.463-.192.62-.289s.273-.146.273-.146l.023-.011a.282.282,0,0,1,.384.092.274.274,0,0,1-.12.371l-.3.167c-.176.107-.427.211-.675.324l-.379.143c-.124.049-.23.077-.323.106l-.311.095a.338.338,0,0,1-.381-.226c-.04-.143.17-.267.17-.4Z" transform="translate(-3448.931 -584.32)" fill="#7d97f4"/>
          <path id="Trazado_193058" data-name="Trazado 193058" d="M3493.371,602.416a1.71,1.71,0,0,1,.155-.279,2.16,2.16,0,0,0,.148-.274c.027-.048.048-.1.076-.151.01-.016.035-.072.03-.058l.034-.088c.021-.057.05-.12.065-.171s.025-.1.036-.143a2.757,2.757,0,0,0,.047-.275c.012-.167.016-.279.016-.279v-.014a.3.3,0,0,1,.29-.277.255.255,0,0,1,.273.257s0,.133-.018.333a3.191,3.191,0,0,1-.061.348l-.056.2c-.021.066-.045.118-.068.179l-.035.087c-.033.069-.037.07-.057.109l-.095.173a2.886,2.886,0,0,1-.175.292l-.177.265a.279.279,0,0,1-.369.114c-.131-.074-.058-.245-.058-.354Z" transform="translate(-3451.023 -582.42)" fill="#7d97f4"/>
          <path id="Trazado_193059" data-name="Trazado 193059" d="M3492.938,596.9a6.928,6.928,0,0,0-.375-.887c-.26-.379-.486-.775-.486-.775v-.031a.252.252,0,0,1,.108-.353c.13-.086.211-.255.4.082h0s.274.393.559.808c.222.426.44.841.44.841.067.129-.063.319-.2.392s-.382.056-.445-.075Z" transform="translate(-3450.536 -580.315)" fill="#7d97f4"/>
          <path id="Trazado_193060" data-name="Trazado 193060" d="M3489.084,592.368a.373.373,0,0,1-.323-.038c-.075-.047-.2-.055-.293-.1s-.211-.07-.31-.123a2.88,2.88,0,0,0-.32-.111,1.1,1.1,0,0,0-.282-.077c-.165-.036-.278-.055-.278-.055l-.051-.009a.244.244,0,0,1-.188-.312.3.3,0,0,1,.339-.2l.342.071a1.508,1.508,0,0,1,.334.1,3.56,3.56,0,0,1,.365.15l.345.187a2.7,2.7,0,0,1,.269.174l.253.174c.121.083.213.111.119.232s-.193-.01-.319-.068Z" transform="translate(-3448.675 -579.053)" fill="#7d97f4"/>
          <path id="Trazado_193061" data-name="Trazado 193061" d="M3483.7,592.585a1.044,1.044,0,0,0-.411.128c-.041.026-.154.031-.2.061a1.569,1.569,0,0,0-.156.09c-.08.071-.184.14-.269.216s-.17.176-.245.26a2.73,2.73,0,0,0-.23.22,1.079,1.079,0,0,1-.214.223l-.017.02a.259.259,0,0,1-.35.1.231.231,0,0,1-.045-.349s.087-.1.206-.266a2.526,2.526,0,0,1,.219-.269l.27-.3c.1-.1.218-.191.32-.28a1.785,1.785,0,0,1,.28-.208l.272-.178a.488.488,0,0,1,.518.109.737.737,0,0,1,.052.417Z" transform="translate(-3446.626 -579.306)" fill="#7d97f4"/>
          <path id="Trazado_193062" data-name="Trazado 193062" d="M3480.235,597.349a8.929,8.929,0,0,1-.253,1c-.117.468-.2.961-.2.961l.01.03a.288.288,0,0,1-.32.217.238.238,0,0,1-.2-.3s.126-.494.249-.99c.156-.475.312-.948.312-.948.045-.14.142-.273.285-.238s.12.134.12.267Z" transform="translate(-3445.792 -581.183)" fill="#7d97f4"/>
          <path id="Trazado_193063" data-name="Trazado 193063" d="M3479.59,603.19a7.944,7.944,0,0,0-.158,1.117c.009.477-.042,1.023-.042,1.023l-.029.048a.313.313,0,0,1-.28.294.245.245,0,0,1-.281-.227s-.013-.494-.021-.992c.02-.489.039-.976.039-.976a.569.569,0,0,1,.4-.4c.149,0,.267.114.375.114Z" transform="translate(-3445.613 -583.41)" fill="#7d97f4"/>
          <path id="Trazado_193064" data-name="Trazado 193064" d="M3479.672,609.137l.345,2.073a.381.381,0,0,1-.225.394c-.146.033-.29-.008-.315-.144l-.368-1.878c-.026-.137.087-.437.233-.471s.53-.35.329.026Z" transform="translate(-3445.733 -585.593)" fill="#7d97f4"/>
          <path id="Trazado_193065" data-name="Trazado 193065" d="M3481.008,615.723l.626,1.791a.248.248,0,0,1-.171.311.257.257,0,0,1-.332-.152l-.626-1.826a.233.233,0,0,1,.171-.3c.14-.051.213.175.332.175Z" transform="translate(-3446.249 -588.038)" fill="#7d97f4"/>
          <path id="Trazado_193066" data-name="Trazado 193066" d="M3483.141,621.358l.119.277c.074.163.172.381.271.6l.4.876a.259.259,0,0,1-.141.335.254.254,0,0,1-.343-.113l-.4-.876-.274-.607-.12-.276a.26.26,0,0,1,.146-.335.255.255,0,0,1,.343.119Z" transform="translate(-3447.043 -590.145)" fill="#7d97f4"/>
          <path id="Trazado_193067" data-name="Trazado 193067" d="M3485.725,626.89l.89,1.707a.253.253,0,0,1-.122.337.256.256,0,0,1-.347-.094l-.892-1.706a.266.266,0,0,1,.471-.244Z" transform="translate(-3448.007 -592.205)" fill="#7d97f4"/>
          <path id="Trazado_193068" data-name="Trazado 193068" d="M3488.636,632.262l1,1.647a.248.248,0,0,1-.1.34.257.257,0,0,1-.351-.074l-1-1.646a.249.249,0,0,1,.1-.341.258.258,0,0,1,.352.074Z" transform="translate(-3449.092 -594.204)" fill="#7d97f4"/>
          <path id="Trazado_193069" data-name="Trazado 193069" d="M3491.9,637.431l1.119,1.571a.243.243,0,0,1-.076.34.256.256,0,0,1-.353-.05l-1.12-1.57a.244.244,0,0,1,.075-.342.258.258,0,0,1,.355.05Z" transform="translate(-3450.308 -596.129)" fill="#7d97f4"/>
          <path id="Trazado_193070" data-name="Trazado 193070" d="M3495.605,642.305l1.225,1.487a.248.248,0,0,1-.059.346.266.266,0,0,1-.361-.02l-1.255-1.472a.258.258,0,0,1,.07-.353c.111-.088.323-.1.38.011Z" transform="translate(-3451.676 -597.944)" fill="#7d97f4"/>
          <path id="Trazado_193071" data-name="Trazado 193071" d="M3499.562,647.011l1.24,1.483a.235.235,0,0,1-.048.336.255.255,0,0,1-.351-.025l-1.242-1.481a.236.236,0,0,1,.048-.338.257.257,0,0,1,.353.025Z" transform="translate(-3453.161 -599.691)" fill="#7d97f4"/>
          <path id="Trazado_193072" data-name="Trazado 193072" d="M3503.464,651.774l1.176,1.531a.234.234,0,0,1-.061.332.252.252,0,0,1-.346-.038l-1.177-1.529a.235.235,0,0,1,.061-.334.252.252,0,0,1,.347.037Z" transform="translate(-3454.609 -601.457)" fill="#7d97f4"/>
          <path id="Trazado_193073" data-name="Trazado 193073" d="M3507.159,656.69l1.107,1.579a.234.234,0,0,1-.075.327.247.247,0,0,1-.34-.05l-1.109-1.577a.235.235,0,0,1,.075-.329.249.249,0,0,1,.342.05Z" transform="translate(-3455.98 -603.28)" fill="#7d97f4"/>
          <path id="Trazado_193074" data-name="Trazado 193074" d="M3510.632,661.758l1.034,1.625a.233.233,0,0,1-.088.322.242.242,0,0,1-.332-.063l-1.036-1.624a.235.235,0,0,1,.088-.324.244.244,0,0,1,.334.064Z" transform="translate(-3457.27 -605.159)" fill="#7d97f4"/>
          <path id="Trazado_193075" data-name="Trazado 193075" d="M3513.868,666.974l.957,1.671a.233.233,0,0,1-.1.315.239.239,0,0,1-.326-.076l-.958-1.67a.235.235,0,0,1,.1-.318.24.24,0,0,1,.327.077Z" transform="translate(-3458.471 -607.093)" fill="#7d97f4"/>
          <path id="Trazado_193076" data-name="Trazado 193076" d="M3516.853,672.335l.873,1.715a.242.242,0,0,1-.431.219l-.877-1.714a.244.244,0,0,1,.435-.22Z" transform="translate(-3459.579 -609.08)" fill="#7d97f4"/>
          <path id="Trazado_193077" data-name="Trazado 193077" d="M3519.571,677.835l.786,1.757a.233.233,0,0,1-.128.3.229.229,0,0,1-.308-.1l-.789-1.756a.242.242,0,0,1,.439-.2Z" transform="translate(-3460.588 -611.119)" fill="#7d97f4"/>
          <path id="Trazado_193078" data-name="Trazado 193078" d="M3522.007,683.466l.694,1.8a.232.232,0,0,1-.141.293.226.226,0,0,1-.3-.116l-.7-1.8a.234.234,0,0,1,.141-.295.227.227,0,0,1,.3.117Z" transform="translate(-3461.493 -613.207)" fill="#7d97f4"/>
          <path id="Trazado_193079" data-name="Trazado 193079" d="M3524.146,689.221l.6,1.833a.232.232,0,0,1-.154.284.221.221,0,0,1-.29-.129l-.6-1.832a.234.234,0,0,1,.154-.285.222.222,0,0,1,.291.13Z" transform="translate(-3462.287 -615.34)" fill="#7d97f4"/>
          <path id="Trazado_193080" data-name="Trazado 193080" d="M3525.973,695.089l.5,1.867a.233.233,0,0,1-.167.274.216.216,0,0,1-.277-.142l-.5-1.867a.232.232,0,0,1,.167-.275.218.218,0,0,1,.279.143Z" transform="translate(-3462.966 -617.515)" fill="#7d97f4"/>
          <path id="Trazado_193081" data-name="Trazado 193081" d="M3527.471,701.064l.389,1.9a.231.231,0,0,1-.18.263.212.212,0,0,1-.265-.155l-.391-1.9a.231.231,0,0,1,.18-.264.213.213,0,0,1,.267.155Z" transform="translate(-3463.523 -619.73)" fill="#7d97f4"/>
          <path id="Trazado_193082" data-name="Trazado 193082" d="M3528.623,707.127l.275,1.919a.232.232,0,0,1-.193.252.208.208,0,0,1-.252-.168l-.278-1.919a.233.233,0,0,1,.193-.253.21.21,0,0,1,.254.169Z" transform="translate(-3463.952 -621.978)" fill="#7d97f4"/>
          <path id="Trazado_193083" data-name="Trazado 193083" d="M3529.408,713.261s.041.485.082.969c.021.239.042.489.052.67l.02.3a.23.23,0,0,1-.208.236.2.2,0,0,1-.235-.183s-.008-.121-.021-.3-.031-.418-.052-.663l-.083-.968a.232.232,0,0,1,.2-.241.205.205,0,0,1,.24.18Z" transform="translate(-3464.244 -624.252)" fill="#7d97f4"/>
          <path id="Trazado_193084" data-name="Trazado 193084" d="M3529.8,719.456l.024,1.951a.23.23,0,0,1-.217.224.2.2,0,0,1-.222-.193l-.026-1.951a.232.232,0,0,1,.218-.226.2.2,0,0,1,.224.194Z" transform="translate(-3464.391 -626.547)" fill="#7d97f4"/>
          <path id="Trazado_193085" data-name="Trazado 193085" d="M3529.706,725.684l-.114,1.957a.228.228,0,0,1-.228.208.2.2,0,0,1-.205-.205l.11-1.957a.23.23,0,0,1,.23-.209.2.2,0,0,1,.207.206Z" transform="translate(-3464.317 -628.855)" fill="#7d97f4"/>
          <path id="Trazado_193086" data-name="Trazado 193086" d="M3529.146,731.924l-.26,1.952a.227.227,0,0,1-.24.191.192.192,0,0,1-.186-.217l.257-1.953a.231.231,0,0,1,.241-.192.194.194,0,0,1,.188.218Z" transform="translate(-3464.057 -631.167)" fill="#7d97f4"/>
          <path id="Trazado_193087" data-name="Trazado 193087" d="M3528.1,738.142l-.417,1.937a.227.227,0,0,1-.251.172.189.189,0,0,1-.165-.228l.415-1.938a.227.227,0,0,1,.251-.173.19.19,0,0,1,.167.23Z" transform="translate(-3463.615 -633.47)" fill="#7d97f4"/>
          <path id="Trazado_193088" data-name="Trazado 193088" d="M3526.548,744.3l-.582,1.908a.226.226,0,0,1-.261.15.186.186,0,0,1-.142-.239l.581-1.908a.226.226,0,0,1,.262-.151.187.187,0,0,1,.143.241Z" transform="translate(-3462.979 -635.752)" fill="#7d97f4"/>
          <path id="Trazado_193089" data-name="Trazado 193089" d="M3524.453,750.355l-.756,1.861a.225.225,0,0,1-.27.127.184.184,0,0,1-.116-.25l.754-1.861a.224.224,0,0,1,.271-.128.186.186,0,0,1,.118.251Z" transform="translate(-3462.14 -637.994)" fill="#7d97f4"/>
          <path id="Trazado_193090" data-name="Trazado 193090" d="M3521.89,756.244l-.769,1.484a.221.221,0,0,1-.276.1.182.182,0,0,1-.09-.257l.767-1.484a.221.221,0,0,1,.277-.1.183.183,0,0,1,.091.258Z" transform="translate(-3461.189 -640.176)" fill="#7d97f4"/>
        </g>
        <g id="Grupo_130361" data-name="Grupo 130361" transform="translate(0 0)">
          <path id="Trazado_193091" data-name="Trazado 193091" d="M3426.658,559.828l-3.881,3.694-.833-4.217Z" transform="translate(-3412.277 -540.254)" fill="#7d97f4"/>
          <path id="Trazado_193092" data-name="Trazado 193092" d="M3406.568,529l.781,19.232a1.356,1.356,0,0,0,1.461,1.3l19.278-1.511a.543.543,0,0,0,.3-.961Z" transform="translate(-3406.568 -529.004)" fill="#91b3fa"/>
          <path id="Trazado_193093" data-name="Trazado 193093" d="M3420.948,548.577,3406.568,529l11.269,19.826-1.033,1.07Z" transform="translate(-3406.568 -529.004)" fill="#7d97f4"/>
          <path id="Trazado_193094" data-name="Trazado 193094" d="M3421.557,560.675l1.076,3.3.77-3.441Z" transform="translate(-3412.133 -540.712)" fill="#7d97f4"/>
        </g>
      </g>
      <g id="Grupo_130363" data-name="Grupo 130363" transform="translate(125.309 203.447)">
        <path id="Trazado_193095" data-name="Trazado 193095" d="M3164.507,842.677h-5.413a.376.376,0,0,1-.376-.376V826.106a.376.376,0,0,1,.376-.376h5.413a.376.376,0,0,1,.376.376V842.3A.376.376,0,0,1,3164.507,842.677Zm-5.037-.753h4.66V826.483h-4.66Z" transform="translate(-3158.717 -802.74)" fill="#bdd0fb"/>
        <path id="Trazado_193096" data-name="Trazado 193096" d="M3180.3,836.454h-7.4a.376.376,0,0,1-.376-.376V809.345a.376.376,0,0,1,.376-.376h7.4a.376.376,0,0,1,.377.376v26.733A.376.376,0,0,1,3180.3,836.454Zm-7.021-.753h6.645v-25.98h-6.645Z" transform="translate(-3163.845 -796.517)" fill="#bdd0fb"/>
        <path id="Trazado_193097" data-name="Trazado 193097" d="M3200.788,833.114h-10.271a.376.376,0,0,1-.376-.376V800.349a.376.376,0,0,1,.376-.376h10.271a.376.376,0,0,1,.376.376v32.389A.376.376,0,0,1,3200.788,833.114Zm-9.894-.753h9.517V800.726h-9.517Z" transform="translate(-3170.384 -793.177)" fill="#bdd0fb"/>
        <path id="Trazado_193098" data-name="Trazado 193098" d="M3229.157,829.1h-12.3a.376.376,0,0,1-.377-.376V789.54a.376.376,0,0,1,.377-.376h12.3a.376.376,0,0,1,.376.376v39.185A.376.376,0,0,1,3229.157,829.1Zm-11.922-.753h11.545V789.917h-11.545Z" transform="translate(-3180.164 -789.164)" fill="#bdd0fb"/>
      </g>
      <g id="Grupo_130365" data-name="Grupo 130365" transform="translate(56.172 52.052)">
        <g id="Grupo_130364" data-name="Grupo 130364">
          <path id="Trazado_193099" data-name="Trazado 193099" d="M3058.408,582.492c-.92,0-1.492-.17-1.735-.509-1.439-2.019-9.624-22.01-7.6-25.842a.187.187,0,0,1,.1-.09c2.587-.907,25.345-8.819,27.435-7.543,1.151.7,3.032,6.7,4.408,12.083,1.351,5.286,2.627,11.6,2.236,12.984-.385,1.354-6.16,3.684-8.625,4.622a83.639,83.639,0,0,1-13.623,4.02A15.913,15.913,0,0,1,3058.408,582.492Zm-9.033-26.111c-1.693,3.613,5.828,22.89,7.6,25.384.147.206.825.624,3.966.081,7.5-1.3,21.451-6.619,21.949-8.374.314-1.108-.627-6.485-2.238-12.787-1.68-6.569-3.384-11.333-4.24-11.856C3074.954,547.934,3059.473,552.846,3049.375,556.381Z" transform="translate(-3048.754 -548.368)" fill="#7d97f4"/>
        </g>
        <path id="Trazado_193100" data-name="Trazado 193100" d="M3063.533,579.181a1.1,1.1,0,0,1-.563-.1c-1.127-.756-4.954-9.343-4.537-13.333a2.126,2.126,0,0,1,1.155-1.955l.727-.294c2.316-.939,6.629-2.686,10.375-3.93a4.366,4.366,0,0,0,.129-1.127c.041-.842.079-1.323.376-1.416,4.435-1.382,5.3-1.061,5.552-.626.707,1.2,6.966,15.74,5.765,16.982C3081.485,574.446,3066.814,579.18,3063.533,579.181Zm-3.805-15.04c-.519.209-.829.763-.921,1.646-.414,3.965,3.466,12.371,4.373,12.981.411.275,3.534-.28,9.59-2.14,4.77-1.466,9.02-3.039,9.472-3.507.1-.1.45-.962-2.209-7.99-1.529-4.041-3.186-7.816-3.611-8.541-.118-.2-.855-.532-5.115.8a5.023,5.023,0,0,0-.111,1.075c-.042.868-.081,1.364-.388,1.466-3.734,1.24-8.04,2.984-10.352,3.922Z" transform="translate(-3052.336 -551.212)" fill="#7d97f4"/>
        <path id="Trazado_193101" data-name="Trazado 193101" d="M3061.967,572.111a.189.189,0,0,1-.179-.134c-.058-.192-.044-.481.351-.771a3.348,3.348,0,0,1,.954-.435.188.188,0,0,1,.109.36,2.874,2.874,0,0,0-.84.378c-.175.128-.247.248-.214.358a.188.188,0,0,1-.125.234A.208.208,0,0,1,3061.967,572.111Z" transform="translate(-3053.583 -556.683)" fill="#7d97f4"/>
        <path id="Trazado_193102" data-name="Trazado 193102" d="M3067.7,568.333a.188.188,0,0,1-.082-.358,28.925,28.925,0,0,1,6.238-2.132.191.191,0,0,1,.217.155.189.189,0,0,1-.155.217,28.48,28.48,0,0,0-6.137,2.1A.189.189,0,0,1,3067.7,568.333Z" transform="translate(-3055.718 -554.855)" fill="#7d97f4"/>
      </g>
      <g id="Grupo_130368" data-name="Grupo 130368" transform="translate(248.743 111.548)">
        <g id="Grupo_130366" data-name="Grupo 130366" transform="translate(0)">
          <path id="Trazado_193103" data-name="Trazado 193103" d="M3396.144,650.647a1.435,1.435,0,0,0-1.108-.382c-4.352.392-11.187-4.075-17.777-7.134a1.434,1.434,0,0,0-1.462.152c-5.9,4.411-15.684,5.324-19.079,5.511a1.433,1.433,0,0,0-1.345,1.283c-3.088,29.827,16.332,40.635,20.359,42.543a1.436,1.436,0,0,0,1.373-.079c20.074-12.5,19.215-28.764,19.493-40.813A1.439,1.439,0,0,0,3396.144,650.647Z" transform="translate(-3355.041 -642.998)" fill="#ffb30b"/>
          <path id="Trazado_193104" data-name="Trazado 193104" d="M3377.226,692.936a.378.378,0,0,1-.211-.064,49.84,49.84,0,0,1-10.469-10.31c-4.528-6.017-9.44-15.677-7.122-27.522a.38.38,0,0,1,.4-.3,34.863,34.863,0,0,0,7.44-.45c3.672-.626,8.639-2.17,11.446-5.968a.377.377,0,0,1,.592-.018c.05.06,5.074,6.016,9.037,7.443a13.631,13.631,0,0,0,6.854.808.377.377,0,0,1,.458.358c.005.227.329,22.854-18.2,35.957A.372.372,0,0,1,3377.226,692.936ZM3360.1,655.506c-2.112,11.417,2.645,20.747,7.032,26.584a49.754,49.754,0,0,0,10.091,10.008c16.591-11.894,17.613-31.574,17.667-34.737a14.97,14.97,0,0,1-6.812-.909c-3.622-1.3-7.883-5.973-9.054-7.313-2.385,2.966-6.4,5-11.656,5.893A35.861,35.861,0,0,1,3360.1,655.506Z" transform="translate(-3356.448 -644.916)" fill="#fff" opacity="0.78"/>
        </g>
        <g id="Grupo_130367" data-name="Grupo 130367" transform="translate(12.087 11.34)" opacity="0.84">
          <path id="Trazado_193105" data-name="Trazado 193105" d="M3389.086,689.258h-12.336a1.7,1.7,0,0,1-1.823-1.579h0l-.658-11.711a1.661,1.661,0,0,1,.479-1.263,1.847,1.847,0,0,1,1.3-.592l13.052-.426a1.958,1.958,0,0,1,1.4.512,1.9,1.9,0,0,1,.695,1.312v12.209C3391.188,688.729,3390.13,689.258,3389.086,689.258Zm-13.408-1.622a.965.965,0,0,0,1.071.868h12.336c.521,0,1.349-.213,1.349-.785V675.51a1.262,1.262,0,0,0-.465-.77,1.246,1.246,0,0,0-.85-.3l-13.052.426a1.084,1.084,0,0,0-.764.348.911.911,0,0,0-.284.712Z" transform="translate(-3374.266 -665.731)" fill="#fff"/>
          <path id="Trazado_193106" data-name="Trazado 193106" d="M3379.29,670.116a.377.377,0,0,1-.372-.322c-.419-2.851-.017-5.1,1.193-6.675a5.339,5.339,0,0,1,3.347-2.035c3.433-.4,6.022,1.629,6.756,5.3,0,.014.005.029.006.045l.225,2.933a.376.376,0,0,1-.75.057l-.223-2.909c-.666-3.282-2.881-5.028-5.926-4.674a4.666,4.666,0,0,0-2.846,1.757c-1.075,1.41-1.424,3.461-1.037,6.1a.377.377,0,0,1-.318.428A.415.415,0,0,1,3379.29,670.116Z" transform="translate(-3375.933 -661.034)" fill="#fff"/>
          <path id="Trazado_193107" data-name="Trazado 193107" d="M3382.735,671.835a.377.377,0,0,1-.372-.319c-.019-.126-.455-3.1.977-4.764a3.224,3.224,0,0,1,2.573-1.088,3.177,3.177,0,0,1,2.59,1.1c1.323,1.608.8,4.379.773,4.5a.376.376,0,1,1-.739-.145c0-.025.479-2.542-.617-3.874a2.431,2.431,0,0,0-2.007-.824,2.474,2.474,0,0,0-2,.825c-1.207,1.4-.809,4.133-.8,4.161a.377.377,0,0,1-.316.429A.335.335,0,0,1,3382.735,671.835Z" transform="translate(-3377.243 -662.753)" fill="#fff"/>
          <path id="Trazado_193108" data-name="Trazado 193108" d="M3386.083,688.6h-.113a1.271,1.271,0,0,1-1.219-1.367v-4.787a2.4,2.4,0,0,1-1.462-2.061,2.916,2.916,0,0,1,5.738,0,2.221,2.221,0,0,1-1.642,2.173v4.675A1.338,1.338,0,0,1,3386.083,688.6Zm-.916-6.792a.377.377,0,0,1,.338.372v5.052c0,.3.146.614.466.614h.113a.585.585,0,0,0,.551-.614v-4.956a.376.376,0,0,1,.284-.365,1.542,1.542,0,0,0,1.358-1.528,2.185,2.185,0,0,0-4.233,0A1.692,1.692,0,0,0,3385.167,681.8Z" transform="translate(-3377.616 -667.327)" fill="#fff"/>
        </g>
      </g>
    </g>
  </g>
</svg>
