<svg xmlns="http://www.w3.org/2000/svg" width="821" height="532.412" viewBox="0 0 821 532.412">
  <g id="_7" data-name="7" transform="translate(-389.5 -2503)">
    <path id="Trazado_194600" data-name="Trazado 194600" d="M94.113,0c51.977,0,94.113,31.992,94.113,71.456s-42.136,71.456-94.113,71.456S0,110.92,0,71.456,42.136,0,94.113,0Z" transform="translate(475.778 2503)" fill="#084a93"/>
    <path id="Trazado_194601" data-name="Trazado 194601" d="M39.649,0C61.547,0,79.3,8,79.3,17.864S61.547,35.728,39.649,35.728,0,27.73,0,17.864,17.752,0,39.649,0Z" transform="translate(390 2689.482)" fill="none" stroke="#707070" stroke-width="1"/>
    <path id="Trazado_194602" data-name="Trazado 194602" d="M39.649,0C61.547,0,79.3,8,79.3,17.864S61.547,35.728,39.649,35.728,0,27.73,0,17.864,17.752,0,39.649,0Z" transform="translate(390 2748.158)" fill="none" stroke="#707070" stroke-width="1"/>
    <path id="Trazado_194603" data-name="Trazado 194603" d="M39.649,0C61.547,0,79.3,8,79.3,17.864S61.547,35.728,39.649,35.728,0,27.73,0,17.864,17.752,0,39.649,0Z" transform="translate(390 2813.223)" fill="none" stroke="#707070" stroke-width="1"/>
    <path id="Trazado_194604" data-name="Trazado 194604" d="M39.649,0C61.547,0,79.3,8,79.3,17.864S61.547,35.728,39.649,35.728,0,27.73,0,17.864,17.752,0,39.649,0Z" transform="translate(1130.701 2706.91)" fill="none" stroke="#707070" stroke-width="1"/>
    <path id="Trazado_194605" data-name="Trazado 194605" d="M39.649,0C61.547,0,79.3,8,79.3,17.864S61.547,35.728,39.649,35.728,0,27.73,0,17.864,17.752,0,39.649,0Z" transform="translate(1130.701 2788.824)" fill="none" stroke="#707070" stroke-width="1"/>
    <path id="Trazado_194606" data-name="Trazado 194606" d="M39.649,0C61.547,0,79.3,8,79.3,17.864S61.547,35.728,39.649,35.728,0,27.73,0,17.864,17.752,0,39.649,0Z" transform="translate(715.908 2858.537)" fill="none" stroke="#707070" stroke-width="1"/>
    <path id="Trazado_194607" data-name="Trazado 194607" d="M39.649,0C61.547,0,79.3,8,79.3,17.864S61.547,35.728,39.649,35.728,0,27.73,0,17.864,17.752,0,39.649,0Z" transform="translate(800.954 2858.537)" fill="none" stroke="#707070" stroke-width="1"/>
    <path id="Trazado_194608" data-name="Trazado 194608" d="M94.113,0c51.977,0,94.113,31.992,94.113,71.456s-42.136,71.456-94.113,71.456S0,110.92,0,71.456,42.136,0,94.113,0Z" transform="translate(913.775 2503)" fill="#ffb30b"/>
    <path id="Trazado_194609" data-name="Trazado 194609" d="M94.113,0c51.977,0,94.113,31.992,94.113,71.456s-42.136,71.456-94.113,71.456S0,110.92,0,71.456,42.136,0,94.113,0Z" transform="translate(475.778 2892.5)" fill="#ffb30b" opacity="0.35"/>
    <path id="Trazado_194610" data-name="Trazado 194610" d="M94.113,0c51.977,0,94.113,31.992,94.113,71.456s-42.136,71.456-94.113,71.456S0,110.92,0,71.456,42.136,0,94.113,0Z" transform="translate(913.775 2892.5)" fill="#b9ddfc"/>
    <path id="Trazado_194611" data-name="Trazado 194611" d="M0,0H623.115" transform="translate(469.299 2766.021)" fill="none" stroke="#707070" stroke-width="1"/>
    <path id="Trazado_193815" data-name="Trazado 193815" d="M4042.085,1157H4002v81.913h40.085" transform="translate(-2910.513 1567.339)" fill="none" stroke="#707070" stroke-miterlimit="10" stroke-width="1"/>
    <path id="Trazado_193816" data-name="Trazado 193816" d="M3645,1147h34.857v125.484H3645" transform="translate(-3175.702 1559.91)" fill="none" stroke="#707070" stroke-miterlimit="10" stroke-width="1"/>
    <path id="Trazado_193817" data-name="Trazado 193817" d="M3809,1244.4V1220h85.4v24.4" transform="translate(-3053.877 1614.138)" fill="none" stroke="#707070" stroke-miterlimit="10" stroke-width="1"/>
    <path id="Trazado_194612" data-name="Trazado 194612" d="M3,0H113.769a3,3,0,0,1,3,3V42.313a3,3,0,0,1-3,3H3a3,3,0,0,1-3-3V3A3,3,0,0,1,3,0Z" transform="translate(540.754 2743.365)" fill="#084a93"/>
    <path id="Trazado_194613" data-name="Trazado 194613" d="M3,0H113.769a3,3,0,0,1,3,3V42.313a3,3,0,0,1-3,3H3a3,3,0,0,1-3-3V3A3,3,0,0,1,3,0Z" transform="translate(939.861 2743.365)" fill="#084a93"/>
    <path id="Trazado_193818" data-name="Trazado 193818" d="M3859.256,1242.751l-59.257-43.3,59.257-43.3,59.256,43.3Z" transform="translate(-3060.563 1566.713)" fill="#fff" stroke="#084a93" stroke-miterlimit="10" stroke-width="1"/>
    <path id="Trazado_194614" data-name="Trazado 194614" d="M0,0V25.29" transform="translate(798.692 2808.848)" fill="none" stroke="#707070" stroke-width="1"/>
    <path id="Trazado_193819" data-name="Trazado 193819" d="M-31.479-10.911l5.092,14.378,5.065-14.378h5.365V8.914h-4.1V3.495l.408-9.354L-25,8.914h-2.8L-33.14-5.846l.408,9.34V8.914h-4.085V-10.911ZM-13.261,1.412A8.737,8.737,0,0,1-12.417-2.5a6.18,6.18,0,0,1,2.43-2.655A7.091,7.091,0,0,1-6.3-6.091,6.709,6.709,0,0,1-1.436-4.266,7.323,7.323,0,0,1,.668.69L.7,1.7A7.7,7.7,0,0,1-1.2,7.137,6.579,6.579,0,0,1-6.276,9.186a6.611,6.611,0,0,1-5.086-2.042,7.836,7.836,0,0,1-1.9-5.555Zm3.935.279A5.507,5.507,0,0,0-8.536,4.9a2.605,2.605,0,0,0,2.26,1.111,2.611,2.611,0,0,0,2.233-1.1A6.026,6.026,0,0,0-3.24,1.4a5.452,5.452,0,0,0-.8-3.191A2.611,2.611,0,0,0-6.3-2.918,2.569,2.569,0,0,0-8.536-1.793,6.127,6.127,0,0,0-9.326,1.691ZM2.506,1.439A8.878,8.878,0,0,1,4.052-4.048,5.014,5.014,0,0,1,8.279-6.091a4.512,4.512,0,0,1,3.554,1.607V-12h3.949V8.914H12.228l-.191-1.566A4.631,4.631,0,0,1,8.252,9.186,5,5,0,0,1,4.079,7.137,9.164,9.164,0,0,1,2.506,1.439Zm3.935.293a5.816,5.816,0,0,0,.722,3.177,2.351,2.351,0,0,0,2.1,1.1,2.633,2.633,0,0,0,2.573-1.541V-1.35A2.6,2.6,0,0,0,9.287-2.891Q6.441-2.891,6.441,1.732ZM25.612,9.186A7.232,7.232,0,0,1,20.336,7.2,7.066,7.066,0,0,1,18.3,1.9V1.521a8.9,8.9,0,0,1,.858-3.969,6.3,6.3,0,0,1,2.43-2.7,6.822,6.822,0,0,1,3.588-.946,6.114,6.114,0,0,1,4.759,1.906,7.746,7.746,0,0,1,1.736,5.405V2.828H22.29A3.655,3.655,0,0,0,23.44,5.142a3.478,3.478,0,0,0,2.43.871,4.247,4.247,0,0,0,3.554-1.648l1.933,2.165a5.907,5.907,0,0,1-2.4,1.954A7.862,7.862,0,0,1,25.612,9.186Zm-.449-12.1a2.459,2.459,0,0,0-1.9.793,4.107,4.107,0,0,0-.933,2.27H27.8V-.169A2.929,2.929,0,0,0,27.1-2.2,2.537,2.537,0,0,0,25.163-2.918ZM38.057,8.914H34.108V-12h3.949Zm2.628-7.5A8.737,8.737,0,0,1,41.529-2.5a6.18,6.18,0,0,1,2.43-2.655,7.091,7.091,0,0,1,3.683-.939A6.709,6.709,0,0,1,52.51-4.266,7.323,7.323,0,0,1,54.614.69L54.641,1.7a7.7,7.7,0,0,1-1.893,5.44A6.579,6.579,0,0,1,47.67,9.186a6.611,6.611,0,0,1-5.086-2.042,7.836,7.836,0,0,1-1.9-5.555Zm3.935.279A5.507,5.507,0,0,0,45.41,4.9a2.837,2.837,0,0,0,4.493.014,6.026,6.026,0,0,0,.8-3.511,5.452,5.452,0,0,0-.8-3.191,2.611,2.611,0,0,0-2.26-1.132A2.569,2.569,0,0,0,45.41-1.793,6.127,6.127,0,0,0,44.62,1.691ZM63.4,1.439a8.878,8.878,0,0,1,1.545-5.487,5.014,5.014,0,0,1,4.228-2.042,4.512,4.512,0,0,1,3.554,1.607V-12h3.949V8.914H73.118l-.191-1.566a4.631,4.631,0,0,1-3.785,1.838,5,5,0,0,1-4.173-2.049A9.164,9.164,0,0,1,63.4,1.439Zm3.935.293a5.816,5.816,0,0,0,.722,3.177,2.351,2.351,0,0,0,2.1,1.1,2.633,2.633,0,0,0,2.573-1.541V-1.35a2.6,2.6,0,0,0-2.546-1.541Q67.331-2.891,67.331,1.732ZM86.5,9.186A7.232,7.232,0,0,1,81.226,7.2,7.066,7.066,0,0,1,79.19,1.9V1.521a8.9,8.9,0,0,1,.858-3.969,6.3,6.3,0,0,1,2.43-2.7,6.822,6.822,0,0,1,3.588-.946,6.114,6.114,0,0,1,4.759,1.906,7.746,7.746,0,0,1,1.736,5.405V2.828H83.18A3.655,3.655,0,0,0,84.33,5.142a3.478,3.478,0,0,0,2.43.871,4.247,4.247,0,0,0,3.554-1.648l1.933,2.165a5.907,5.907,0,0,1-2.4,1.954A7.862,7.862,0,0,1,86.5,9.186Zm-.449-12.1a2.459,2.459,0,0,0-1.9.793,4.107,4.107,0,0,0-.933,2.27h5.474V-.169A2.929,2.929,0,0,0,87.986-2.2,2.537,2.537,0,0,0,86.053-2.918ZM-6.644,34.9A8.878,8.878,0,0,1-5.1,29.414,5.014,5.014,0,0,1-.871,27.372a4.512,4.512,0,0,1,3.554,1.607V21.462H6.632V42.376H3.078L2.887,40.81A4.631,4.631,0,0,1-.9,42.649,5,5,0,0,1-5.071,40.6,9.164,9.164,0,0,1-6.644,34.9Zm3.935.293a5.816,5.816,0,0,0,.722,3.177,2.351,2.351,0,0,0,2.1,1.1,2.633,2.633,0,0,0,2.573-1.541V32.112A2.6,2.6,0,0,0,.137,30.571Q-2.709,30.571-2.709,35.194Zm20.928,7.182a4.37,4.37,0,0,1-.395-1.321,4.761,4.761,0,0,1-3.717,1.593A5.231,5.231,0,0,1,10.519,41.4,4.029,4.029,0,0,1,9.1,38.237a4.163,4.163,0,0,1,1.736-3.595,8.566,8.566,0,0,1,5.017-1.266h1.811v-.844a2.428,2.428,0,0,0-.524-1.634,2.062,2.062,0,0,0-1.654-.613,2.345,2.345,0,0,0-1.559.477,1.619,1.619,0,0,0-.565,1.307H9.423a3.953,3.953,0,0,1,.79-2.369,5.22,5.22,0,0,1,2.233-1.709,8.138,8.138,0,0,1,3.241-.62,6.43,6.43,0,0,1,4.323,1.368,4.787,4.787,0,0,1,1.6,3.846v6.386a7.043,7.043,0,0,0,.585,3.172v.231Zm-3.254-2.737a3.389,3.389,0,0,0,1.607-.388,2.549,2.549,0,0,0,1.089-1.042V35.677H16.19q-2.955,0-3.145,2.042l-.014.231a1.575,1.575,0,0,0,.517,1.212A2.01,2.01,0,0,0,14.965,39.639ZM29.343,24.022v3.622h2.519V30.53H29.343v7.353a1.756,1.756,0,0,0,.313,1.171,1.573,1.573,0,0,0,1.2.354,6.275,6.275,0,0,0,1.157-.1v2.982a8.1,8.1,0,0,1-2.383.354q-4.139,0-4.221-4.18V30.53H23.257V27.644h2.151V24.022Zm3.69,10.852a8.737,8.737,0,0,1,.844-3.908,6.18,6.18,0,0,1,2.43-2.655,7.091,7.091,0,0,1,3.683-.939A6.709,6.709,0,0,1,44.858,29.2a7.323,7.323,0,0,1,2.1,4.956l.027,1.008A7.7,7.7,0,0,1,45.1,40.6a6.579,6.579,0,0,1-5.079,2.049,6.611,6.611,0,0,1-5.086-2.042,7.836,7.836,0,0,1-1.9-5.555Zm3.935.279a5.507,5.507,0,0,0,.79,3.211,2.837,2.837,0,0,0,4.493.014,6.026,6.026,0,0,0,.8-3.511,5.452,5.452,0,0,0-.8-3.191,2.611,2.611,0,0,0-2.26-1.132,2.569,2.569,0,0,0-2.233,1.125A6.127,6.127,0,0,0,36.968,35.153Zm20.424,3.152a1.268,1.268,0,0,0-.715-1.137,8.12,8.12,0,0,0-2.294-.742q-5.256-1.1-5.256-4.466a4.048,4.048,0,0,1,1.627-3.275,6.564,6.564,0,0,1,4.255-1.314A7.064,7.064,0,0,1,59.5,28.692a4.162,4.162,0,0,1,1.682,3.431H57.242a1.9,1.9,0,0,0-.545-1.4,2.3,2.3,0,0,0-1.7-.551,2.355,2.355,0,0,0-1.539.449,1.418,1.418,0,0,0-.545,1.144,1.212,1.212,0,0,0,.62,1.055,6.373,6.373,0,0,0,2.09.694,17.071,17.071,0,0,1,2.478.66q3.118,1.144,3.118,3.962A3.843,3.843,0,0,1,59.488,41.4a7.459,7.459,0,0,1-4.466,1.246,7.791,7.791,0,0,1-3.288-.66,5.517,5.517,0,0,1-2.253-1.811,4.208,4.208,0,0,1-.817-2.485h3.731a2.054,2.054,0,0,0,.776,1.607,3.078,3.078,0,0,0,1.933.558,2.849,2.849,0,0,0,1.709-.429A1.335,1.335,0,0,0,57.392,38.305Z" transform="translate(542.543 2561.796)" fill="#fff"/>
    <path id="Trazado_193825" data-name="Trazado 193825" d="M-31.22,1.657h-3.254V8.914h-4.085V-10.911h7.366a8.327,8.327,0,0,1,5.419,1.566A5.4,5.4,0,0,1-23.867-4.92a6.1,6.1,0,0,1-.878,3.384A5.99,5.99,0,0,1-27.407.622l4.289,8.1v.191H-27.5Zm-3.254-3.309h3.3A3.374,3.374,0,0,0-28.8-2.435a2.8,2.8,0,0,0,.844-2.158,3,3,0,0,0-.8-2.206,3.31,3.31,0,0,0-2.444-.8h-3.281ZM-14.241,9.186A7.232,7.232,0,0,1-19.517,7.2a7.066,7.066,0,0,1-2.036-5.3V1.521a8.9,8.9,0,0,1,.858-3.969,6.3,6.3,0,0,1,2.43-2.7,6.822,6.822,0,0,1,3.588-.946A6.114,6.114,0,0,1-9.918-4.185,7.746,7.746,0,0,1-8.182,1.221V2.828h-9.381a3.655,3.655,0,0,0,1.151,2.315,3.478,3.478,0,0,0,2.43.871,4.247,4.247,0,0,0,3.554-1.648l1.933,2.165a5.907,5.907,0,0,1-2.4,1.954A7.862,7.862,0,0,1-14.241,9.186Zm-.449-12.1a2.459,2.459,0,0,0-1.9.793,4.107,4.107,0,0,0-.933,2.27h5.474V-.169A2.929,2.929,0,0,0-12.757-2.2,2.537,2.537,0,0,0-14.69-2.918ZM-1.8,8.914H-5.744V-12H-1.8Zm11.778,0a4.37,4.37,0,0,1-.395-1.321A4.761,4.761,0,0,1,5.87,9.186,5.231,5.231,0,0,1,2.282,7.934,4.029,4.029,0,0,1,.859,4.775,4.163,4.163,0,0,1,2.6,1.18,8.566,8.566,0,0,1,7.613-.086H9.424V-.93A2.428,2.428,0,0,0,8.9-2.564a2.062,2.062,0,0,0-1.654-.613A2.345,2.345,0,0,0,5.686-2.7a1.619,1.619,0,0,0-.565,1.307H1.186a3.953,3.953,0,0,1,.79-2.369A5.22,5.22,0,0,1,4.209-5.471a8.138,8.138,0,0,1,3.241-.62,6.43,6.43,0,0,1,4.323,1.368,4.787,4.787,0,0,1,1.6,3.846V5.51a7.043,7.043,0,0,0,.585,3.172v.231ZM6.728,6.177a3.389,3.389,0,0,0,1.607-.388A2.549,2.549,0,0,0,9.424,4.747V2.215H7.953Q5,2.215,4.808,4.257l-.014.231A1.575,1.575,0,0,0,5.312,5.7,2.01,2.01,0,0,0,6.728,6.177Zm15.794-.163a2.581,2.581,0,0,0,1.77-.6A2.1,2.1,0,0,0,25,3.822h3.69a5.048,5.048,0,0,1-.817,2.744,5.391,5.391,0,0,1-2.2,1.933,6.882,6.882,0,0,1-3.084.688,6.4,6.4,0,0,1-4.983-2.008,7.947,7.947,0,0,1-1.825-5.548V1.371a7.856,7.856,0,0,1,1.811-5.433,6.321,6.321,0,0,1,4.97-2.029,6.2,6.2,0,0,1,4.432,1.573,5.568,5.568,0,0,1,1.7,4.187H25A2.7,2.7,0,0,0,24.292-2.2a2.361,2.361,0,0,0-1.8-.719,2.37,2.37,0,0,0-2.076,1,5.809,5.809,0,0,0-.7,3.252v.409a5.882,5.882,0,0,0,.694,3.273A2.4,2.4,0,0,0,22.522,6.014Zm12.567,2.9H31.141V-5.818h3.949ZM30.909-9.631a1.938,1.938,0,0,1,.592-1.457,2.225,2.225,0,0,1,1.613-.572,2.23,2.23,0,0,1,1.607.572,1.927,1.927,0,0,1,.6,1.457,1.932,1.932,0,0,1-.606,1.471,2.236,2.236,0,0,1-1.6.572,2.235,2.235,0,0,1-1.6-.572A1.932,1.932,0,0,1,30.909-9.631ZM37.717,1.412A8.737,8.737,0,0,1,38.561-2.5a6.18,6.18,0,0,1,2.43-2.655,7.091,7.091,0,0,1,3.683-.939,6.709,6.709,0,0,1,4.868,1.825A7.323,7.323,0,0,1,51.646.69L51.674,1.7a7.7,7.7,0,0,1-1.893,5.44A6.579,6.579,0,0,1,44.7,9.186a6.611,6.611,0,0,1-5.086-2.042,7.836,7.836,0,0,1-1.9-5.555Zm3.935.279a5.507,5.507,0,0,0,.79,3.211,2.837,2.837,0,0,0,4.493.014,6.026,6.026,0,0,0,.8-3.511,5.452,5.452,0,0,0-.8-3.191,2.611,2.611,0,0,0-2.26-1.132,2.569,2.569,0,0,0-2.233,1.125A6.127,6.127,0,0,0,41.652,1.691ZM57.719-5.818l.123,1.7a5.144,5.144,0,0,1,4.235-1.974,4.275,4.275,0,0,1,3.486,1.375A6.416,6.416,0,0,1,66.733-.6V8.914H62.8V-.508a2.553,2.553,0,0,0-.545-1.818,2.438,2.438,0,0,0-1.811-.565A2.707,2.707,0,0,0,57.95-1.475V8.914H54.015V-5.818Zm18.776,15A7.232,7.232,0,0,1,71.219,7.2a7.066,7.066,0,0,1-2.036-5.3V1.521a8.9,8.9,0,0,1,.858-3.969,6.3,6.3,0,0,1,2.43-2.7,6.822,6.822,0,0,1,3.588-.946,6.114,6.114,0,0,1,4.759,1.906,7.746,7.746,0,0,1,1.736,5.405V2.828H73.173a3.655,3.655,0,0,0,1.151,2.315,3.478,3.478,0,0,0,2.43.871,4.247,4.247,0,0,0,3.554-1.648l1.933,2.165a5.907,5.907,0,0,1-2.4,1.954A7.862,7.862,0,0,1,76.5,9.186Zm-.449-12.1a2.459,2.459,0,0,0-1.9.793,4.107,4.107,0,0,0-.933,2.27h5.474V-.169A2.929,2.929,0,0,0,77.979-2.2,2.537,2.537,0,0,0,76.046-2.918Zm16.72,7.761a1.268,1.268,0,0,0-.715-1.137,8.12,8.12,0,0,0-2.294-.742Q84.5,1.861,84.5-1.5a4.048,4.048,0,0,1,1.627-3.275,6.564,6.564,0,0,1,4.255-1.314A7.064,7.064,0,0,1,94.87-4.77a4.162,4.162,0,0,1,1.682,3.431H92.616a1.9,1.9,0,0,0-.545-1.4,2.3,2.3,0,0,0-1.7-.551,2.355,2.355,0,0,0-1.539.449,1.418,1.418,0,0,0-.545,1.144,1.212,1.212,0,0,0,.62,1.055A6.373,6.373,0,0,0,91,.057a17.071,17.071,0,0,1,2.478.66q3.118,1.144,3.118,3.962A3.843,3.843,0,0,1,94.863,7.94,7.459,7.459,0,0,1,90.4,9.186a7.791,7.791,0,0,1-3.288-.66,5.517,5.517,0,0,1-2.253-1.811,4.208,4.208,0,0,1-.817-2.485h3.731a2.054,2.054,0,0,0,.776,1.607,3.078,3.078,0,0,0,1.933.558,2.849,2.849,0,0,0,1.709-.429A1.335,1.335,0,0,0,92.766,4.843Z" transform="translate(541.249 2963.191)"/>
    <path id="Trazado_193822" data-name="Trazado 193822" d="M-14.681.988a15.672,15.672,0,0,1,.623-4.452A11.749,11.749,0,0,1-12.22-7.207,6.864,6.864,0,0,1-9.585-9.469l.572,1.593a7.108,7.108,0,0,0-2.328,3.411A15.793,15.793,0,0,0-12.179.927v.317a16.094,16.094,0,0,0,.827,5.412,7.247,7.247,0,0,0,2.339,3.462l-.572,1.562a6.866,6.866,0,0,1-2.589-2.2,11.553,11.553,0,0,1-1.833-3.641,15.579,15.579,0,0,1-.674-4.309ZM4.814,7.034H1.75L-4.213-2.749V7.034H-7.277V-7.835h3.064l5.974,9.8v-9.8H4.814Zm2.624-1.45A1.486,1.486,0,0,1,7.913,4.44,1.685,1.685,0,0,1,9.1,4a1.7,1.7,0,0,1,1.2.439,1.486,1.486,0,0,1,.475,1.144,1.465,1.465,0,0,1-.47,1.128A1.706,1.706,0,0,1,9.1,7.146a1.692,1.692,0,0,1-1.195-.434A1.465,1.465,0,0,1,7.438,5.584Zm0-8.364a1.486,1.486,0,0,1,.475-1.144A1.685,1.685,0,0,1,9.1-4.363a1.7,1.7,0,0,1,1.2.439,1.486,1.486,0,0,1,.475,1.144,1.465,1.465,0,0,1-.47,1.128A1.706,1.706,0,0,1,9.1-1.218a1.692,1.692,0,0,1-1.195-.434A1.465,1.465,0,0,1,7.438-2.78Zm9.957-5.055L21.214,2.949l3.8-10.784h4.023V7.034H25.963V2.969l.306-7.016L22.256,7.034h-2.1l-4-11.07.306,7.005V7.034H13.392V-7.835ZM36.6,1.223a14.871,14.871,0,0,1-.664,4.442,12.058,12.058,0,0,1-1.91,3.768,6.88,6.88,0,0,1-2.665,2.247l-.572-1.562a7.181,7.181,0,0,0,2.287-3.37,15.605,15.605,0,0,0,.868-5.239V.968a15.958,15.958,0,0,0-.832-5.382,7.485,7.485,0,0,0-2.323-3.492l.572-1.562a6.882,6.882,0,0,1,2.619,2.185A11.9,11.9,0,0,1,35.894-3.6,14.765,14.765,0,0,1,36.6.764Z" transform="translate(789.039 2710.619)"/>
    <path id="Trazado_193824" data-name="Trazado 193824" d="M-11.763.988a15.672,15.672,0,0,1,.623-4.452A11.749,11.749,0,0,1-9.3-7.207,6.864,6.864,0,0,1-6.667-9.469L-6.1-7.876A7.108,7.108,0,0,0-8.423-4.465,15.793,15.793,0,0,0-9.261.927v.317a16.094,16.094,0,0,0,.827,5.412A7.247,7.247,0,0,0-6.1,10.118l-.572,1.562a6.866,6.866,0,0,1-2.589-2.2,11.553,11.553,0,0,1-1.833-3.641,15.579,15.579,0,0,1-.674-4.309ZM2.493,7.034H-.458V-4.342L-3.981-3.25v-2.4L2.177-7.855h.317Zm5.719,3.727L6.67,9.954l.368-.664a5.306,5.306,0,0,0,.7-2.481V4.522h2.492l-.01,2.042a5.305,5.305,0,0,1-.572,2.287A5.864,5.864,0,0,1,8.212,10.761ZM15.268-4.016l.092,1.276A3.858,3.858,0,0,1,18.536-4.22,3.206,3.206,0,0,1,21.15-3.188,4.812,4.812,0,0,1,22.028-.1V7.034H19.077V-.033A1.915,1.915,0,0,0,18.669-1.4a1.829,1.829,0,0,0-1.358-.424A2.03,2.03,0,0,0,15.442-.758V7.034H12.491V-4.016ZM29.35,1.223a14.871,14.871,0,0,1-.664,4.442,12.058,12.058,0,0,1-1.91,3.768,6.88,6.88,0,0,1-2.665,2.247l-.572-1.562a7.181,7.181,0,0,0,2.287-3.37A15.605,15.605,0,0,0,26.7,1.509V.968a15.958,15.958,0,0,0-.832-5.382A7.485,7.485,0,0,0,23.54-7.906l.572-1.562a6.882,6.882,0,0,1,2.619,2.185A11.9,11.9,0,0,1,28.641-3.6a14.765,14.765,0,0,1,.71,4.36Z" transform="translate(690.123 2748.961)"/>
    <path id="Trazado_193823" data-name="Trazado 193823" d="M-11.763.988a15.672,15.672,0,0,1,.623-4.452A11.749,11.749,0,0,1-9.3-7.207,6.864,6.864,0,0,1-6.667-9.469L-6.1-7.876A7.108,7.108,0,0,0-8.423-4.465,15.793,15.793,0,0,0-9.261.927v.317a16.094,16.094,0,0,0,.827,5.412A7.247,7.247,0,0,0-6.1,10.118l-.572,1.562a6.866,6.866,0,0,1-2.589-2.2,11.553,11.553,0,0,1-1.833-3.641,15.579,15.579,0,0,1-.674-4.309ZM2.493,7.034H-.458V-4.342L-3.981-3.25v-2.4L2.177-7.855h.317Zm5.719,3.727L6.67,9.954l.368-.664a5.306,5.306,0,0,0,.7-2.481V4.522h2.492l-.01,2.042a5.305,5.305,0,0,1-.572,2.287A5.864,5.864,0,0,1,8.212,10.761ZM15.268-4.016l.092,1.276A3.858,3.858,0,0,1,18.536-4.22,3.206,3.206,0,0,1,21.15-3.188,4.812,4.812,0,0,1,22.028-.1V7.034H19.077V-.033A1.915,1.915,0,0,0,18.669-1.4a1.829,1.829,0,0,0-1.358-.424A2.03,2.03,0,0,0,15.442-.758V7.034H12.491V-4.016ZM29.35,1.223a14.871,14.871,0,0,1-.664,4.442,12.058,12.058,0,0,1-1.91,3.768,6.88,6.88,0,0,1-2.665,2.247l-.572-1.562a7.181,7.181,0,0,0,2.287-3.37A15.605,15.605,0,0,0,26.7,1.509V.968a15.958,15.958,0,0,0-.832-5.382A7.485,7.485,0,0,0,23.54-7.906l.572-1.562a6.882,6.882,0,0,1,2.619,2.185A11.9,11.9,0,0,1,28.641-3.6a14.765,14.765,0,0,1,.71,4.36Z" transform="translate(895.776 2748.961)"/>
    <path id="Trazado_193821" data-name="Trazado 193821" d="M-10.268-7.6h-6.073V8.914h-4.085V-7.6h-5.991v-3.309h16.148ZM-4.046,8.914H-7.994V-5.818h3.949ZM-8.226-9.631a1.938,1.938,0,0,1,.592-1.457A2.225,2.225,0,0,1-6.02-11.66a2.23,2.23,0,0,1,1.607.572,1.927,1.927,0,0,1,.6,1.457A1.932,1.932,0,0,1-4.42-8.16a2.235,2.235,0,0,1-1.6.572,2.235,2.235,0,0,1-1.6-.572A1.932,1.932,0,0,1-8.226-9.631ZM12.457,1.684a8.836,8.836,0,0,1-1.545,5.453A4.955,4.955,0,0,1,6.738,9.186,4.59,4.59,0,0,1,3.13,7.634v6.944H-.805v-20.4H2.844L2.98-4.375A4.625,4.625,0,0,1,6.711-6.091a4.989,4.989,0,0,1,4.235,2.015A9.075,9.075,0,0,1,12.457,1.48ZM8.522,1.4a5.8,5.8,0,0,0-.728-3.172A2.373,2.373,0,0,0,5.676-2.891,2.577,2.577,0,0,0,3.13-1.475V4.557A2.62,2.62,0,0,0,5.7,6.014Q8.522,6.014,8.522,1.4Zm5.759.014A8.737,8.737,0,0,1,15.125-2.5a6.18,6.18,0,0,1,2.43-2.655,7.091,7.091,0,0,1,3.683-.939,6.709,6.709,0,0,1,4.868,1.825A7.323,7.323,0,0,1,28.21.69L28.237,1.7a7.7,7.7,0,0,1-1.893,5.44,6.579,6.579,0,0,1-5.079,2.049,6.611,6.611,0,0,1-5.086-2.042,7.836,7.836,0,0,1-1.9-5.555Zm3.935.279a5.507,5.507,0,0,0,.79,3.211,2.605,2.605,0,0,0,2.26,1.111,2.611,2.611,0,0,0,2.233-1.1A6.026,6.026,0,0,0,24.3,1.4a5.452,5.452,0,0,0-.8-3.191,2.611,2.611,0,0,0-2.26-1.132,2.569,2.569,0,0,0-2.233,1.125A6.127,6.127,0,0,0,18.216,1.691ZM38.64,4.843a1.268,1.268,0,0,0-.715-1.137,8.12,8.12,0,0,0-2.294-.742q-5.256-1.1-5.256-4.466A4.048,4.048,0,0,1,32-4.777a6.564,6.564,0,0,1,4.255-1.314A7.064,7.064,0,0,1,40.744-4.77a4.162,4.162,0,0,1,1.682,3.431H38.49a1.9,1.9,0,0,0-.545-1.4,2.3,2.3,0,0,0-1.7-.551,2.355,2.355,0,0,0-1.539.449,1.418,1.418,0,0,0-.545,1.144,1.212,1.212,0,0,0,.62,1.055,6.373,6.373,0,0,0,2.09.694,17.071,17.071,0,0,1,2.478.66q3.118,1.144,3.118,3.962A3.843,3.843,0,0,1,40.737,7.94a7.459,7.459,0,0,1-4.466,1.246,7.791,7.791,0,0,1-3.288-.66,5.517,5.517,0,0,1-2.253-1.811,4.208,4.208,0,0,1-.817-2.485h3.731a2.054,2.054,0,0,0,.776,1.607,3.078,3.078,0,0,0,1.933.558,2.849,2.849,0,0,0,1.709-.429A1.335,1.335,0,0,0,38.64,4.843Zm12.69-3.4a8.878,8.878,0,0,1,1.545-5.487A5.014,5.014,0,0,1,57.1-6.091a4.512,4.512,0,0,1,3.554,1.607V-12h3.949V8.914H61.052l-.191-1.566a4.631,4.631,0,0,1-3.785,1.838A5,5,0,0,1,52.9,7.137,9.164,9.164,0,0,1,51.33,1.439Zm3.935.293a5.816,5.816,0,0,0,.722,3.177,2.351,2.351,0,0,0,2.1,1.1,2.633,2.633,0,0,0,2.573-1.541V-1.35a2.6,2.6,0,0,0-2.546-1.541Q55.265-2.891,55.265,1.732ZM74.436,9.186A7.232,7.232,0,0,1,69.16,7.2a7.066,7.066,0,0,1-2.036-5.3V1.521a8.9,8.9,0,0,1,.858-3.969,6.3,6.3,0,0,1,2.43-2.7A6.822,6.822,0,0,1,74-6.091a6.114,6.114,0,0,1,4.759,1.906,7.746,7.746,0,0,1,1.736,5.405V2.828H71.114a3.655,3.655,0,0,0,1.151,2.315,3.478,3.478,0,0,0,2.43.871,4.247,4.247,0,0,0,3.554-1.648l1.933,2.165a5.907,5.907,0,0,1-2.4,1.954A7.862,7.862,0,0,1,74.436,9.186Zm-.449-12.1a2.459,2.459,0,0,0-1.9.793,4.107,4.107,0,0,0-.933,2.27h5.474V-.169A2.929,2.929,0,0,0,75.92-2.2,2.537,2.537,0,0,0,73.987-2.918ZM-28.241,31.334a10.691,10.691,0,0,0-1.416-.109,2.882,2.882,0,0,0-2.927,1.511v9.64H-36.52V27.644H-32.8l.109,1.756a3.646,3.646,0,0,1,3.281-2.029,4.123,4.123,0,0,1,1.225.177Zm8.673,11.315a7.232,7.232,0,0,1-5.276-1.988,7.066,7.066,0,0,1-2.036-5.3v-.381a8.9,8.9,0,0,1,.858-3.969,6.3,6.3,0,0,1,2.43-2.7A6.822,6.822,0,0,1-20,27.372a6.114,6.114,0,0,1,4.759,1.906,7.746,7.746,0,0,1,1.736,5.405V36.29H-22.89A3.655,3.655,0,0,0-21.74,38.6a3.478,3.478,0,0,0,2.43.871,4.247,4.247,0,0,0,3.554-1.648l1.933,2.165a5.907,5.907,0,0,1-2.4,1.954A7.862,7.862,0,0,1-19.568,42.649Zm-.449-12.1a2.459,2.459,0,0,0-1.9.793,4.107,4.107,0,0,0-.933,2.27h5.474v-.315a2.929,2.929,0,0,0-.708-2.031A2.537,2.537,0,0,0-20.017,30.544ZM-7.123,42.376h-3.949V21.462h3.949Zm11.778,0a4.37,4.37,0,0,1-.395-1.321A4.761,4.761,0,0,1,.543,42.649,5.231,5.231,0,0,1-3.045,41.4a4.029,4.029,0,0,1-1.423-3.159,4.163,4.163,0,0,1,1.736-3.595,8.566,8.566,0,0,1,5.017-1.266H4.1v-.844A2.428,2.428,0,0,0,3.572,30.9a2.062,2.062,0,0,0-1.654-.613,2.345,2.345,0,0,0-1.559.477,1.619,1.619,0,0,0-.565,1.307H-4.141a3.953,3.953,0,0,1,.79-2.369,5.22,5.22,0,0,1,2.233-1.709,8.138,8.138,0,0,1,3.241-.62A6.43,6.43,0,0,1,6.445,28.74a4.787,4.787,0,0,1,1.6,3.846v6.386a7.043,7.043,0,0,0,.585,3.172v.231ZM1.4,39.639a3.389,3.389,0,0,0,1.607-.388A2.549,2.549,0,0,0,4.1,38.21V35.677H2.626q-2.955,0-3.145,2.042l-.014.231a1.575,1.575,0,0,0,.517,1.212A2.01,2.01,0,0,0,1.4,39.639Zm15.794-.163a2.581,2.581,0,0,0,1.77-.6,2.1,2.1,0,0,0,.708-1.593h3.69a5.047,5.047,0,0,1-.817,2.744,5.391,5.391,0,0,1-2.2,1.933,6.882,6.882,0,0,1-3.084.688A6.4,6.4,0,0,1,12.28,40.64a7.947,7.947,0,0,1-1.825-5.548v-.259A7.856,7.856,0,0,1,12.266,29.4a6.321,6.321,0,0,1,4.97-2.029,6.2,6.2,0,0,1,4.432,1.573,5.568,5.568,0,0,1,1.7,4.187h-3.69a2.7,2.7,0,0,0-.708-1.868,2.361,2.361,0,0,0-1.8-.719,2.37,2.37,0,0,0-2.076,1,5.809,5.809,0,0,0-.7,3.252v.409a5.882,5.882,0,0,0,.694,3.273A2.4,2.4,0,0,0,17.195,39.476Zm12.567,2.9H25.814V27.644h3.949Zm-4.18-18.545a1.938,1.938,0,0,1,.592-1.457,2.552,2.552,0,0,1,3.22,0,2.079,2.079,0,0,1-.007,2.927,2.524,2.524,0,0,1-3.2,0A1.932,1.932,0,0,1,25.582,23.831ZM32.39,34.874a8.737,8.737,0,0,1,.844-3.908,6.18,6.18,0,0,1,2.43-2.655,7.091,7.091,0,0,1,3.683-.939A6.709,6.709,0,0,1,44.216,29.2a7.323,7.323,0,0,1,2.1,4.956l.027,1.008a7.7,7.7,0,0,1-1.893,5.44,6.579,6.579,0,0,1-5.079,2.049,6.611,6.611,0,0,1-5.086-2.042,7.836,7.836,0,0,1-1.9-5.555Zm3.935.279a5.507,5.507,0,0,0,.79,3.211,2.837,2.837,0,0,0,4.493.014,6.026,6.026,0,0,0,.8-3.511,5.452,5.452,0,0,0-.8-3.191,2.611,2.611,0,0,0-2.26-1.132,2.569,2.569,0,0,0-2.233,1.125A6.127,6.127,0,0,0,36.325,35.153Zm16.067-7.509.123,1.7a5.144,5.144,0,0,1,4.235-1.974,4.275,4.275,0,0,1,3.486,1.375,6.416,6.416,0,0,1,1.171,4.112v9.517H57.471V32.954a2.553,2.553,0,0,0-.545-1.818,2.438,2.438,0,0,0-1.811-.565,2.707,2.707,0,0,0-2.492,1.416V42.376H48.688V27.644Zm18.776,15a7.232,7.232,0,0,1-5.276-1.988,7.066,7.066,0,0,1-2.036-5.3v-.381a8.9,8.9,0,0,1,.858-3.969,6.3,6.3,0,0,1,2.43-2.7,6.822,6.822,0,0,1,3.588-.946,6.114,6.114,0,0,1,4.759,1.906,7.746,7.746,0,0,1,1.736,5.405V36.29H67.846A3.655,3.655,0,0,0,69,38.6a3.478,3.478,0,0,0,2.43.871,4.247,4.247,0,0,0,3.554-1.648l1.933,2.165a5.907,5.907,0,0,1-2.4,1.954A7.862,7.862,0,0,1,71.168,42.649Zm-.449-12.1a2.459,2.459,0,0,0-1.9.793,4.108,4.108,0,0,0-.933,2.27H73.36v-.315a2.929,2.929,0,0,0-.708-2.031A2.537,2.537,0,0,0,70.719,30.544Zm16.72,7.761a1.268,1.268,0,0,0-.715-1.137,8.12,8.12,0,0,0-2.294-.742q-5.256-1.1-5.256-4.466A4.048,4.048,0,0,1,80.8,28.685a6.564,6.564,0,0,1,4.255-1.314,7.064,7.064,0,0,1,4.486,1.321,4.162,4.162,0,0,1,1.682,3.431H87.289a1.9,1.9,0,0,0-.545-1.4,2.3,2.3,0,0,0-1.7-.551,2.355,2.355,0,0,0-1.539.449,1.418,1.418,0,0,0-.545,1.144,1.212,1.212,0,0,0,.62,1.055,6.373,6.373,0,0,0,2.09.694,17.071,17.071,0,0,1,2.478.66q3.118,1.144,3.118,3.962A3.843,3.843,0,0,1,89.536,41.4a7.459,7.459,0,0,1-4.466,1.246,7.791,7.791,0,0,1-3.288-.66,5.517,5.517,0,0,1-2.253-1.811,4.208,4.208,0,0,1-.817-2.485h3.731a2.054,2.054,0,0,0,.776,1.607,3.078,3.078,0,0,0,1.933.558,2.849,2.849,0,0,0,1.709-.429A1.335,1.335,0,0,0,87.439,38.305Z" transform="translate(980.76 2946.46)"/>
    <path id="Trazado_193820" data-name="Trazado 193820" d="M14.759,16.858H6.916v5.31h9.2V25.45H2.831V5.625H16.093V8.934H6.916v4.725h7.843Zm11.478,4.52a1.268,1.268,0,0,0-.715-1.137,8.12,8.12,0,0,0-2.294-.742q-5.256-1.1-5.256-4.466A4.048,4.048,0,0,1,19.6,11.759a6.564,6.564,0,0,1,4.255-1.314,7.064,7.064,0,0,1,4.486,1.321A4.162,4.162,0,0,1,30.022,15.2H26.087a1.9,1.9,0,0,0-.545-1.4,2.3,2.3,0,0,0-1.7-.551A2.355,2.355,0,0,0,22.3,13.7a1.418,1.418,0,0,0-.545,1.144,1.212,1.212,0,0,0,.62,1.055,6.373,6.373,0,0,0,2.09.694,17.071,17.071,0,0,1,2.478.66q3.118,1.144,3.118,3.962a3.843,3.843,0,0,1-1.729,3.261,7.459,7.459,0,0,1-4.466,1.246,7.791,7.791,0,0,1-3.288-.66,5.517,5.517,0,0,1-2.253-1.811,4.208,4.208,0,0,1-.817-2.485H21.24a2.054,2.054,0,0,0,.776,1.607,3.078,3.078,0,0,0,1.933.558,2.849,2.849,0,0,0,1.709-.429A1.335,1.335,0,0,0,26.237,21.379ZM37.306,7.1v3.622h2.519V13.6H37.306v7.353a1.756,1.756,0,0,0,.313,1.171,1.573,1.573,0,0,0,1.2.354,6.275,6.275,0,0,0,1.157-.1v2.982a8.1,8.1,0,0,1-2.383.354q-4.139,0-4.221-4.18V13.6H31.22V10.717h2.151V7.1ZM50.3,14.407A10.691,10.691,0,0,0,48.88,14.3a2.882,2.882,0,0,0-2.927,1.511v9.64H42.018V10.717h3.717l.109,1.756a3.646,3.646,0,0,1,3.281-2.029,4.123,4.123,0,0,1,1.225.177Zm10.716,9.545a4.935,4.935,0,0,1-4.03,1.77,4.654,4.654,0,0,1-3.615-1.362,5.812,5.812,0,0,1-1.273-3.989V10.717h3.935v9.529q0,2.3,2.1,2.3a2.841,2.841,0,0,0,2.75-1.391V10.717h3.949V25.45h-3.7Zm12.908-1.4a2.581,2.581,0,0,0,1.77-.6,2.1,2.1,0,0,0,.708-1.593h3.69A5.047,5.047,0,0,1,79.27,23.1a5.391,5.391,0,0,1-2.2,1.933,6.882,6.882,0,0,1-3.084.688A6.4,6.4,0,0,1,69,23.714a7.947,7.947,0,0,1-1.825-5.548v-.259a7.857,7.857,0,0,1,1.811-5.433,6.321,6.321,0,0,1,4.97-2.029,6.2,6.2,0,0,1,4.432,1.573,5.568,5.568,0,0,1,1.7,4.187H76.4a2.7,2.7,0,0,0-.708-1.868,2.632,2.632,0,0,0-3.874.284,5.809,5.809,0,0,0-.7,3.252v.409a5.882,5.882,0,0,0,.694,3.273A2.4,2.4,0,0,0,73.919,22.549ZM87.045,7.1v3.622h2.519V13.6H87.045v7.353a1.756,1.756,0,0,0,.313,1.171,1.573,1.573,0,0,0,1.2.354,6.275,6.275,0,0,0,1.157-.1v2.982a8.1,8.1,0,0,1-2.383.354q-4.139,0-4.221-4.18V13.6H80.959V10.717H83.11V7.1Zm13.534,16.856a4.935,4.935,0,0,1-4.03,1.77,4.654,4.654,0,0,1-3.615-1.362,5.812,5.812,0,0,1-1.273-3.989V10.717H95.6v9.529q0,2.3,2.1,2.3a2.841,2.841,0,0,0,2.75-1.391V10.717h3.949V25.45h-3.7Zm15.059-9.545a10.691,10.691,0,0,0-1.416-.109,2.882,2.882,0,0,0-2.927,1.511v9.64H107.36V10.717h3.717l.109,1.756a3.646,3.646,0,0,1,3.281-2.029,4.123,4.123,0,0,1,1.225.177ZM125.66,25.45a4.37,4.37,0,0,1-.395-1.321,4.761,4.761,0,0,1-3.717,1.593,5.231,5.231,0,0,1-3.588-1.253,4.029,4.029,0,0,1-1.423-3.159,4.163,4.163,0,0,1,1.736-3.595,8.566,8.566,0,0,1,5.017-1.266H125.1v-.844a2.428,2.428,0,0,0-.524-1.634,2.062,2.062,0,0,0-1.654-.613,2.344,2.344,0,0,0-1.559.477,1.619,1.619,0,0,0-.565,1.307h-3.935a3.953,3.953,0,0,1,.79-2.369,5.22,5.22,0,0,1,2.233-1.709,8.138,8.138,0,0,1,3.241-.62,6.43,6.43,0,0,1,4.323,1.368,4.787,4.787,0,0,1,1.6,3.846v6.386a7.043,7.043,0,0,0,.585,3.172v.231Zm-3.254-2.737a3.389,3.389,0,0,0,1.607-.388,2.549,2.549,0,0,0,1.089-1.042V18.751h-1.471q-2.955,0-3.145,2.042l-.014.231a1.575,1.575,0,0,0,.517,1.212A2.01,2.01,0,0,0,122.405,22.713ZM12.955,51.437A8.878,8.878,0,0,1,14.5,45.95a5.014,5.014,0,0,1,4.228-2.042,4.512,4.512,0,0,1,3.554,1.607V38H26.23V58.912H22.676l-.191-1.566A4.631,4.631,0,0,1,18.7,59.184a5,5,0,0,1-4.173-2.049A9.164,9.164,0,0,1,12.955,51.437Zm3.935.293a5.816,5.816,0,0,0,.722,3.177,2.351,2.351,0,0,0,2.1,1.1,2.633,2.633,0,0,0,2.573-1.541V48.648a2.6,2.6,0,0,0-2.546-1.541Q16.89,47.107,16.89,51.73Zm19.171,7.454A7.232,7.232,0,0,1,30.784,57.2a7.066,7.066,0,0,1-2.036-5.3v-.381a8.9,8.9,0,0,1,.858-3.969,6.3,6.3,0,0,1,2.43-2.7,6.822,6.822,0,0,1,3.588-.946,6.114,6.114,0,0,1,4.759,1.906,7.746,7.746,0,0,1,1.736,5.405v1.607H32.738a3.655,3.655,0,0,0,1.151,2.315,3.478,3.478,0,0,0,2.43.871,4.247,4.247,0,0,0,3.554-1.648l1.933,2.165a5.907,5.907,0,0,1-2.4,1.954A7.862,7.862,0,0,1,36.061,59.184Zm-.449-12.1a2.459,2.459,0,0,0-1.9.793,4.107,4.107,0,0,0-.933,2.27h5.474v-.315a2.929,2.929,0,0,0-.708-2.031A2.537,2.537,0,0,0,35.611,47.08Zm15.073,4.357a8.878,8.878,0,0,1,1.545-5.487,5.014,5.014,0,0,1,4.228-2.042,4.512,4.512,0,0,1,3.554,1.607V38h3.949V58.912H60.406l-.191-1.566a4.631,4.631,0,0,1-3.785,1.838,5,5,0,0,1-4.173-2.049A9.164,9.164,0,0,1,50.684,51.437Zm3.935.293a5.816,5.816,0,0,0,.722,3.177,2.351,2.351,0,0,0,2.1,1.1,2.633,2.633,0,0,0,2.573-1.541V48.648a2.6,2.6,0,0,0-2.546-1.541Q54.619,47.107,54.619,51.73Zm20.928,7.182a4.37,4.37,0,0,1-.395-1.321,4.761,4.761,0,0,1-3.717,1.593,5.231,5.231,0,0,1-3.588-1.253,4.029,4.029,0,0,1-1.423-3.159,4.163,4.163,0,0,1,1.736-3.595,8.566,8.566,0,0,1,5.017-1.266h1.811v-.844a2.428,2.428,0,0,0-.524-1.634,2.062,2.062,0,0,0-1.654-.613,2.344,2.344,0,0,0-1.559.477,1.619,1.619,0,0,0-.565,1.307H66.751a3.953,3.953,0,0,1,.79-2.369,5.22,5.22,0,0,1,2.233-1.709,8.138,8.138,0,0,1,3.241-.62,6.43,6.43,0,0,1,4.323,1.368,4.787,4.787,0,0,1,1.6,3.846v6.386a7.043,7.043,0,0,0,.585,3.172v.231Zm-3.254-2.737a3.389,3.389,0,0,0,1.607-.388,2.549,2.549,0,0,0,1.089-1.042V52.213H73.518q-2.955,0-3.145,2.042l-.014.231a1.575,1.575,0,0,0,.517,1.212A2.01,2.01,0,0,0,72.292,56.175ZM86.671,40.558V44.18H89.19v2.887H86.671v7.353a1.756,1.756,0,0,0,.313,1.171,1.573,1.573,0,0,0,1.2.354,6.275,6.275,0,0,0,1.157-.1V58.83a8.1,8.1,0,0,1-2.383.354q-4.139,0-4.221-4.18V47.066H80.584V44.18h2.151V40.558Zm3.69,10.852A8.737,8.737,0,0,1,91.2,47.5a6.18,6.18,0,0,1,2.43-2.655,7.091,7.091,0,0,1,3.683-.939,6.709,6.709,0,0,1,4.868,1.825,7.322,7.322,0,0,1,2.1,4.956l.027,1.008a7.7,7.7,0,0,1-1.893,5.44,7.335,7.335,0,0,1-10.164.007,7.836,7.836,0,0,1-1.9-5.555Zm3.935.279a5.507,5.507,0,0,0,.79,3.211,2.837,2.837,0,0,0,4.493.014,6.026,6.026,0,0,0,.8-3.511,5.452,5.452,0,0,0-.8-3.191,2.611,2.611,0,0,0-2.26-1.132A2.569,2.569,0,0,0,95.085,48.2,6.127,6.127,0,0,0,94.3,51.689Zm20.424,3.152A1.268,1.268,0,0,0,114,53.7a8.12,8.12,0,0,0-2.294-.742q-5.256-1.1-5.256-4.466a4.048,4.048,0,0,1,1.627-3.275,6.563,6.563,0,0,1,4.255-1.314,7.064,7.064,0,0,1,4.486,1.321,4.162,4.162,0,0,1,1.682,3.431H114.57a1.9,1.9,0,0,0-.545-1.4,2.3,2.3,0,0,0-1.7-.551,2.355,2.355,0,0,0-1.539.449,1.418,1.418,0,0,0-.545,1.144,1.212,1.212,0,0,0,.62,1.055,6.373,6.373,0,0,0,2.09.694,17.071,17.071,0,0,1,2.478.66q3.118,1.144,3.118,3.962a3.843,3.843,0,0,1-1.729,3.261,7.459,7.459,0,0,1-4.466,1.246,7.791,7.791,0,0,1-3.288-.66,5.517,5.517,0,0,1-2.253-1.811,4.208,4.208,0,0,1-.817-2.485h3.731a2.054,2.054,0,0,0,.776,1.607,3.078,3.078,0,0,0,1.933.558,2.849,2.849,0,0,0,1.709-.429A1.335,1.335,0,0,0,114.719,54.841ZM13.976,81.332a10.688,10.688,0,0,0-1.416-.109,2.882,2.882,0,0,0-2.927,1.511v9.64H5.7V77.642H9.414L9.523,79.4A3.646,3.646,0,0,1,12.8,77.37a4.123,4.123,0,0,1,1.225.177Zm8.673,11.315a7.232,7.232,0,0,1-5.276-1.988,7.066,7.066,0,0,1-2.036-5.3v-.381a8.9,8.9,0,0,1,.858-3.969,6.3,6.3,0,0,1,2.43-2.7,6.821,6.821,0,0,1,3.588-.946,6.114,6.114,0,0,1,4.759,1.906,7.746,7.746,0,0,1,1.736,5.405v1.607H19.327A3.655,3.655,0,0,0,20.477,88.6a3.478,3.478,0,0,0,2.43.871,4.247,4.247,0,0,0,3.554-1.648l1.933,2.165A5.907,5.907,0,0,1,26,91.945,7.862,7.862,0,0,1,22.649,92.647Zm-.449-12.1a2.459,2.459,0,0,0-1.9.793,4.107,4.107,0,0,0-.933,2.27h5.474v-.315a2.93,2.93,0,0,0-.708-2.031A2.537,2.537,0,0,0,22.2,80.542ZM35.094,92.374H31.145V71.46h3.949Zm11.778,0a4.37,4.37,0,0,1-.395-1.321,4.761,4.761,0,0,1-3.717,1.593,5.231,5.231,0,0,1-3.588-1.253,4.029,4.029,0,0,1-1.423-3.159,4.163,4.163,0,0,1,1.736-3.595A8.566,8.566,0,0,1,44.5,83.374h1.811V82.53a2.428,2.428,0,0,0-.524-1.634,2.062,2.062,0,0,0-1.654-.613,2.344,2.344,0,0,0-1.559.477,1.619,1.619,0,0,0-.565,1.307H38.076a3.953,3.953,0,0,1,.79-2.369A5.22,5.22,0,0,1,41.1,77.989a8.138,8.138,0,0,1,3.241-.62,6.43,6.43,0,0,1,4.323,1.368,4.787,4.787,0,0,1,1.6,3.846V88.97a7.043,7.043,0,0,0,.585,3.172v.231Zm-3.254-2.737a3.389,3.389,0,0,0,1.607-.388,2.549,2.549,0,0,0,1.089-1.042V85.675H44.843q-2.955,0-3.145,2.042l-.014.231a1.575,1.575,0,0,0,.517,1.212A2.01,2.01,0,0,0,43.617,89.637Zm15.794-.163a2.581,2.581,0,0,0,1.77-.6,2.1,2.1,0,0,0,.708-1.593h3.69a5.047,5.047,0,0,1-.817,2.744,5.391,5.391,0,0,1-2.2,1.933,6.882,6.882,0,0,1-3.084.688A6.4,6.4,0,0,1,54.5,90.638a7.947,7.947,0,0,1-1.825-5.548v-.259A7.856,7.856,0,0,1,54.483,79.4a6.321,6.321,0,0,1,4.97-2.029,6.2,6.2,0,0,1,4.432,1.573,5.568,5.568,0,0,1,1.7,4.187H61.89a2.7,2.7,0,0,0-.708-1.868,2.632,2.632,0,0,0-3.874.284,5.809,5.809,0,0,0-.7,3.252v.409a5.882,5.882,0,0,0,.694,3.273A2.4,2.4,0,0,0,59.412,89.474Zm12.567,2.9H68.031V77.642h3.949ZM67.8,73.829a1.938,1.938,0,0,1,.592-1.457,2.553,2.553,0,0,1,3.22,0A2.079,2.079,0,0,1,71.6,75.3a2.524,2.524,0,0,1-3.2,0A1.932,1.932,0,0,1,67.8,73.829Zm6.808,11.042a8.737,8.737,0,0,1,.844-3.908,6.18,6.18,0,0,1,2.43-2.655,7.091,7.091,0,0,1,3.683-.939,6.709,6.709,0,0,1,4.868,1.825,7.322,7.322,0,0,1,2.1,4.956l.027,1.008a7.7,7.7,0,0,1-1.893,5.44,7.335,7.335,0,0,1-10.164.007,7.836,7.836,0,0,1-1.9-5.555Zm3.935.279a5.507,5.507,0,0,0,.79,3.211,2.837,2.837,0,0,0,4.493.014,6.026,6.026,0,0,0,.8-3.511,5.452,5.452,0,0,0-.8-3.191,2.611,2.611,0,0,0-2.26-1.132,2.569,2.569,0,0,0-2.233,1.125A6.127,6.127,0,0,0,78.542,85.151Zm16.067-7.509.123,1.7a5.144,5.144,0,0,1,4.235-1.974,4.275,4.275,0,0,1,3.486,1.375,6.416,6.416,0,0,1,1.171,4.112v9.517H99.687V82.952a2.553,2.553,0,0,0-.545-1.818,2.438,2.438,0,0,0-1.811-.565,2.707,2.707,0,0,0-2.492,1.416V92.374H90.905V77.642Zm20.533,14.732a4.369,4.369,0,0,1-.395-1.321,4.761,4.761,0,0,1-3.717,1.593,5.231,5.231,0,0,1-3.588-1.253,4.029,4.029,0,0,1-1.423-3.159,4.163,4.163,0,0,1,1.736-3.595,8.566,8.566,0,0,1,5.017-1.266h1.811V82.53a2.428,2.428,0,0,0-.524-1.634,2.062,2.062,0,0,0-1.654-.613,2.344,2.344,0,0,0-1.559.477,1.619,1.619,0,0,0-.565,1.307h-3.935a3.953,3.953,0,0,1,.79-2.369,5.22,5.22,0,0,1,2.233-1.709,8.138,8.138,0,0,1,3.241-.62,6.43,6.43,0,0,1,4.323,1.368,4.787,4.787,0,0,1,1.6,3.846V88.97a7.043,7.043,0,0,0,.585,3.172v.231Zm-3.254-2.737a3.389,3.389,0,0,0,1.607-.388,2.549,2.549,0,0,0,1.089-1.042V85.675h-1.471q-2.955,0-3.145,2.042l-.014.231a1.575,1.575,0,0,0,.517,1.212A2.01,2.01,0,0,0,111.887,89.637Zm13.82,2.737h-3.949V71.46h3.949Z" transform="translate(942.076 2526.462)" fill="#12263f"/>
  </g>
</svg>
