<svg xmlns="http://www.w3.org/2000/svg" width="400" height="275.966" viewBox="0 0 400 275.966">
  <g id="_8" data-name="8" transform="translate(-1020 -3209.517)">
    <rect id="Rectángulo_294757" data-name="Rectángulo 294757" width="400" height="275" transform="translate(1020 3210)" fill="none"/>
    <g id="Grupo_131428" data-name="Grupo 131428" transform="translate(-1370.396 3904.13)">
      <g id="Grupo_131410" data-name="Grupo 131410" transform="translate(2419.68 -694.13)">
        <g id="Grupo_131408" data-name="Grupo 131408">
          <path id="Trazado_193986" data-name="Trazado 193986" d="M2499.467-675.66v35.2a8.554,8.554,0,0,1-8.562,8.562h-62.663a8.561,8.561,0,0,1-8.562-8.562v-35.2Z" transform="translate(-2419.68 694.265)" fill="#dee9f0"/>
          <path id="Trazado_193987" data-name="Trazado 193987" d="M2499.467-581.2V-546a8.563,8.563,0,0,1-8.562,8.572h-62.663A8.569,8.569,0,0,1,2419.68-546v-35.2Z" transform="translate(-2419.68 694.953)" fill="#dee9f0"/>
          <path id="Trazado_193988" data-name="Trazado 193988" d="M2632.917-581.2V-546a8.57,8.57,0,0,1-8.562,8.572h-62.664A8.564,8.564,0,0,1,2553.13-546v-35.2Z" transform="translate(-2418.707 694.953)" fill="#dee9f0"/>
          <path id="Trazado_193989" data-name="Trazado 193989" d="M2759.217-675.66v35.2a8.563,8.563,0,0,1-8.572,8.562h-62.654a8.555,8.555,0,0,1-8.562-8.562v-35.2Z" transform="translate(-2417.786 694.265)" fill="#dee9f0"/>
          <path id="Trazado_193990" data-name="Trazado 193990" d="M2759.047-464.57v35.195a8.572,8.572,0,0,1-8.572,8.572h-62.653a8.564,8.564,0,0,1-8.562-8.572V-464.57Z" transform="translate(-2417.788 695.803)" fill="#dee9f0"/>
          <path id="Trazado_193991" data-name="Trazado 193991" d="M2632.917-464.57v35.195a8.57,8.57,0,0,1-8.562,8.572h-62.664a8.564,8.564,0,0,1-8.562-8.572V-464.57Z" transform="translate(-2418.707 695.803)" fill="#dee9f0"/>
          <path id="Trazado_193992" data-name="Trazado 193992" d="M2499.467-464.57v35.195a8.563,8.563,0,0,1-8.562,8.572h-62.663a8.57,8.57,0,0,1-8.562-8.572V-464.57Z" transform="translate(-2419.68 695.803)" fill="#dee9f0"/>
          <path id="Trazado_193993" data-name="Trazado 193993" d="M2759.047-474.478v10.043H2679.26v-10.043a8.562,8.562,0,0,1,8.562-8.562h62.653A8.57,8.57,0,0,1,2759.047-474.478Z" transform="translate(-2417.788 695.669)" fill="#b9ddfc"/>
          <path id="Trazado_193994" data-name="Trazado 193994" d="M2632.917-474.478v10.043H2553.13v-10.043a8.561,8.561,0,0,1,8.562-8.562h62.664A8.568,8.568,0,0,1,2632.917-474.478Z" transform="translate(-2418.707 695.669)" fill="#b9ddfc"/>
          <path id="Trazado_193995" data-name="Trazado 193995" d="M2632.917-591.1v10.033H2553.13V-591.1a8.555,8.555,0,0,1,8.562-8.562h62.664A8.561,8.561,0,0,1,2632.917-591.1Z" transform="translate(-2418.707 694.818)" fill="#b9ddfc"/>
          <path id="Trazado_193996" data-name="Trazado 193996" d="M2759.217-685.558v10.033H2679.43v-10.033a8.563,8.563,0,0,1,8.562-8.572h62.654A8.572,8.572,0,0,1,2759.217-685.558Z" transform="translate(-2417.786 694.13)" fill="#b9ddfc"/>
          <path id="Trazado_193997" data-name="Trazado 193997" d="M2499.467-685.558v10.033H2419.68v-10.033a8.569,8.569,0,0,1,8.562-8.572h62.663A8.563,8.563,0,0,1,2499.467-685.558Z" transform="translate(-2419.68 694.13)" fill="#b9ddfc"/>
          <path id="Trazado_193998" data-name="Trazado 193998" d="M2499.467-591.1v10.033H2419.68V-591.1a8.561,8.561,0,0,1,8.562-8.562h62.663A8.554,8.554,0,0,1,2499.467-591.1Z" transform="translate(-2419.68 694.818)" fill="#b9ddfc"/>
          <path id="Trazado_193999" data-name="Trazado 193999" d="M2499.467-474.478v10.043H2419.68v-10.043a8.567,8.567,0,0,1,8.562-8.562h62.663A8.561,8.561,0,0,1,2499.467-474.478Z" transform="translate(-2419.68 695.669)" fill="#b9ddfc"/>
        </g>
        <g id="Grupo_131409" data-name="Grupo 131409">
          <path id="Trazado_194000" data-name="Trazado 194000" d="M2499.467-675.525v35.2a8.554,8.554,0,0,1-8.562,8.562h-62.663a8.561,8.561,0,0,1-8.562-8.562v-45.237a8.569,8.569,0,0,1,8.562-8.572h62.663a8.563,8.563,0,0,1,8.562,8.572Z" transform="translate(-2419.68 694.13)" fill="none" stroke="#009ada" stroke-miterlimit="10" stroke-width="0.966"/>
          <line id="Línea_453" data-name="Línea 453" x2="79.787" transform="translate(0 18.605)" fill="none" stroke="#009ada" stroke-miterlimit="10" stroke-width="0.966"/>
          <path id="Trazado_194001" data-name="Trazado 194001" d="M2759.217-675.525v35.2a8.563,8.563,0,0,1-8.572,8.562h-62.654a8.555,8.555,0,0,1-8.562-8.562v-45.237a8.563,8.563,0,0,1,8.562-8.572h62.654a8.572,8.572,0,0,1,8.572,8.572Z" transform="translate(-2417.786 694.13)" fill="none" stroke="#009ada" stroke-miterlimit="10" stroke-width="0.966"/>
          <line id="Línea_454" data-name="Línea 454" x2="79.787" transform="translate(261.643 18.605)" fill="none" stroke="#009ada" stroke-miterlimit="10" stroke-width="0.966"/>
          <path id="Trazado_194002" data-name="Trazado 194002" d="M2632.917-581.065v35.2a8.57,8.57,0,0,1-8.562,8.572h-62.664a8.564,8.564,0,0,1-8.562-8.572V-591.1a8.555,8.555,0,0,1,8.562-8.562h62.664a8.561,8.561,0,0,1,8.562,8.562Z" transform="translate(-2418.707 694.818)" fill="none" stroke="#009ada" stroke-miterlimit="10" stroke-width="0.966"/>
          <line id="Línea_455" data-name="Línea 455" x2="79.787" transform="translate(134.423 113.753)" fill="none" stroke="#009ada" stroke-miterlimit="10" stroke-width="0.966"/>
          <path id="Trazado_194003" data-name="Trazado 194003" d="M2499.467-581.065v35.2a8.563,8.563,0,0,1-8.562,8.572h-62.663a8.569,8.569,0,0,1-8.562-8.572V-591.1a8.561,8.561,0,0,1,8.562-8.562h62.663a8.554,8.554,0,0,1,8.562,8.562Z" transform="translate(-2419.68 694.818)" fill="none" stroke="#009ada" stroke-miterlimit="10" stroke-width="0.966"/>
          <line id="Línea_456" data-name="Línea 456" x2="79.787" transform="translate(0 113.753)" fill="none" stroke="#009ada" stroke-miterlimit="10" stroke-width="0.966"/>
          <path id="Trazado_194004" data-name="Trazado 194004" d="M2499.467-464.435v35.195a8.563,8.563,0,0,1-8.562,8.572h-62.663a8.57,8.57,0,0,1-8.562-8.572v-45.237a8.567,8.567,0,0,1,8.562-8.562h62.663a8.561,8.561,0,0,1,8.562,8.562Z" transform="translate(-2419.68 695.669)" fill="none" stroke="#009ada" stroke-miterlimit="10" stroke-width="0.966"/>
          <line id="Línea_457" data-name="Línea 457" x2="79.787" transform="translate(0 231.233)" fill="none" stroke="#009ada" stroke-miterlimit="10" stroke-width="0.966"/>
          <path id="Trazado_194005" data-name="Trazado 194005" d="M2632.917-464.435v35.195a8.57,8.57,0,0,1-8.562,8.572h-62.664a8.564,8.564,0,0,1-8.562-8.572v-45.237a8.561,8.561,0,0,1,8.562-8.562h62.664a8.568,8.568,0,0,1,8.562,8.562Z" transform="translate(-2418.707 695.669)" fill="none" stroke="#009ada" stroke-miterlimit="10" stroke-width="0.966"/>
          <line id="Línea_458" data-name="Línea 458" x2="79.787" transform="translate(134.423 231.233)" fill="none" stroke="#009ada" stroke-miterlimit="10" stroke-width="0.966"/>
          <path id="Trazado_194006" data-name="Trazado 194006" d="M2759.047-464.435v35.195a8.572,8.572,0,0,1-8.572,8.572h-62.653a8.564,8.564,0,0,1-8.562-8.572v-45.237a8.562,8.562,0,0,1,8.562-8.562h62.653a8.57,8.57,0,0,1,8.572,8.562Z" transform="translate(-2417.788 695.669)" fill="none" stroke="#009ada" stroke-miterlimit="10" stroke-width="0.966"/>
          <line id="Línea_459" data-name="Línea 459" x2="79.787" transform="translate(261.472 231.233)" fill="none" stroke="#009ada" stroke-miterlimit="10" stroke-width="0.966"/>
        </g>
      </g>
      <g id="Grupo_131427" data-name="Grupo 131427" transform="translate(2454.171 -676.642)">
        <g id="Grupo_131412" data-name="Grupo 131412" transform="translate(45.299)">
          <line id="Línea_460" data-name="Línea 460" x2="173.135" transform="translate(0 5.404)" fill="none" stroke="#ffb30b" stroke-miterlimit="10" stroke-width="3"/>
          <g id="Grupo_131411" data-name="Grupo 131411" transform="translate(169.036)">
            <path id="Trazado_194007" data-name="Trazado 194007" d="M2666.707-665.96l2.3-5.4-2.3-5.4,12.812,5.4Z" transform="translate(-2666.707 676.769)" fill="#ffb30b"/>
          </g>
        </g>
        <g id="Grupo_131414" data-name="Grupo 131414" transform="translate(139.824 23.661)">
          <path id="Trazado_194008" data-name="Trazado 194008" d="M2592.734-599.312V-642.2a5.711,5.711,0,0,1,5.711-5.71h72.9" transform="translate(-2592.734 653.319)" fill="none" stroke="#ffb30b" stroke-miterlimit="10" stroke-width="3"/>
          <g id="Grupo_131413" data-name="Grupo 131413" transform="translate(74.512)">
            <path id="Trazado_194009" data-name="Trazado 194009" d="M2666.707-642.47l2.3-5.4-2.3-5.4,12.812,5.4Z" transform="translate(-2666.707 653.28)" fill="#ffb30b"/>
          </g>
        </g>
        <g id="Grupo_131416" data-name="Grupo 131416" transform="translate(261.466 44.887)">
          <line id="Línea_461" data-name="Línea 461" y1="141.54" transform="translate(5.405 8.712)" fill="none" stroke="#ffb30b" stroke-miterlimit="10" stroke-width="3"/>
          <g id="Grupo_131415" data-name="Grupo 131415">
            <path id="Trazado_194010" data-name="Trazado 194010" d="M2724.305-619.4l-5.4-2.3-5.4,2.3,5.4-12.812Z" transform="translate(-2713.496 632.207)" fill="#ffb30b"/>
          </g>
        </g>
        <g id="Grupo_131418" data-name="Grupo 131418" transform="translate(0 44.887)">
          <line id="Línea_462" data-name="Línea 462" y2="24.067" transform="translate(5.404 8.712)" fill="none" stroke="#ffb30b" stroke-miterlimit="10" stroke-width="3"/>
          <g id="Grupo_131417" data-name="Grupo 131417">
            <path id="Trazado_194011" data-name="Trazado 194011" d="M2453.922-619.4l5.4-2.3,5.4,2.3-5.4-12.812Z" transform="translate(-2453.922 632.207)" fill="#ffb30b"/>
          </g>
        </g>
        <g id="Grupo_131420" data-name="Grupo 131420" transform="translate(0 140.038)">
          <line id="Línea_463" data-name="Línea 463" y1="46.388" transform="translate(5.404)" fill="none" stroke="#ffb30b" stroke-miterlimit="10" stroke-width="3"/>
          <g id="Grupo_131419" data-name="Grupo 131419" transform="translate(0 42.289)">
            <path id="Trazado_194012" data-name="Trazado 194012" d="M2464.731-495.761l-5.4,2.3-5.4-2.3,5.4,12.811Z" transform="translate(-2453.922 495.761)" fill="#ffb30b"/>
          </g>
        </g>
        <g id="Grupo_131422" data-name="Grupo 131422" transform="translate(22.664 140.038)">
          <path id="Trazado_194013" data-name="Trazado 194013" d="M2481.787-491.355v-13.128a5.71,5.71,0,0,1,5.711-5.71h101.223a5.71,5.71,0,0,0,5.71-5.71v-21.84" transform="translate(-2476.383 537.744)" fill="none" stroke="#ffb30b" stroke-miterlimit="10" stroke-width="3"/>
          <g id="Grupo_131421" data-name="Grupo 131421" transform="translate(0 42.289)">
            <path id="Trazado_194014" data-name="Trazado 194014" d="M2487.231-495.761l-5.4,2.3-5.4-2.3,5.4,12.811Z" transform="translate(-2476.422 495.761)" fill="#ffb30b"/>
          </g>
        </g>
        <g id="Grupo_131424" data-name="Grupo 131424" transform="translate(179.719 212.945)">
          <line id="Línea_464" data-name="Línea 464" x1="38.716" transform="translate(8.713 5.405)" fill="none" stroke="#ffb30b" stroke-miterlimit="10" stroke-width="3"/>
          <g id="Grupo_131423" data-name="Grupo 131423">
            <path id="Trazado_194015" data-name="Trazado 194015" d="M2645.152-465.365l-2.3,5.4,2.3,5.4-12.812-5.4Z" transform="translate(-2632.34 465.365)" fill="#ffb30b"/>
          </g>
        </g>
        <g id="Grupo_131426" data-name="Grupo 131426" transform="translate(45.299 212.945)">
          <line id="Línea_465" data-name="Línea 465" x2="45.917" transform="translate(0 5.405)" fill="none" stroke="#ffb30b" stroke-miterlimit="10" stroke-width="3"/>
          <g id="Grupo_131425" data-name="Grupo 131425" transform="translate(41.818)">
            <path id="Trazado_194016" data-name="Trazado 194016" d="M2540.409-454.556l2.3-5.4-2.3-5.4,12.811,5.4Z" transform="translate(-2540.409 465.365)" fill="#ffb30b"/>
          </g>
        </g>
      </g>
    </g>
  </g>
</svg>
