<svg xmlns="http://www.w3.org/2000/svg" width="85" height="84.984" viewBox="0 0 85 84.984">
  <g id="_9" data-name="9" transform="translate(-537.495 -353.143)">
    <path id="Trazado_191898" data-name="Trazado 191898" d="M630.515,399.709V397.2c-.054-.047-.087-.1-.13-.111-2.83-.588-3.954-1.959-3.955-4.834,0-1.515-.006-3.029,0-4.544a4.151,4.151,0,0,1,4.369-4.388c3.264-.01,6.529,0,9.793,0h.885c.017-.344.041-.6.041-.853q0-6.855,0-13.71c0-1.434-.447-1.884-1.863-1.885q-12.457,0-24.913-.012a.853.853,0,0,0-.987.7,6.72,6.72,0,0,1-6.537,4.787c-2.688.019-5.377,0-8.136,0V377.9c.213.056.456.124.7.184a9.37,9.37,0,0,1,6.247,4.709.919.919,0,0,0,.976.548,6.853,6.853,0,1,1,.324,13.7q-9.675.069-19.351,0a6.854,6.854,0,1,1,.293-13.7.916.916,0,0,0,.986-.531,9.23,9.23,0,0,1,6.32-4.719c.606-.137.727-.387.717-.939-.031-1.561-.011-3.122-.011-4.792h-.906c-2.533,0-5.067.037-7.6-.018a6.841,6.841,0,0,1-1.7-13.392c.74-.207,1.549-.158,2.315-.291a1.214,1.214,0,0,0,.779-.44,9.615,9.615,0,0,1,16.93-.029,1.135,1.135,0,0,0,.837.46,6.691,6.691,0,0,1,6.838,4.9c.185.574.5.6.978.6q12.417-.012,24.835-.005c3.082,0,4.673,1.6,4.673,4.686q0,6.777,0,13.554v.935h.908q4.857,0,9.714,0a4.132,4.132,0,0,1,4.448,4.451c0,1.515,0,3.029,0,4.544,0,2.851-1.2,4.279-4.051,4.789v2.623a4.151,4.151,0,0,1,3.966,3.41,9.946,9.946,0,0,1,.082,1.951c.01,1.227,0,2.455,0,3.682,0,2.847-1.2,4.273-4.052,4.787v2.605c2.4.485,3.695,1.595,3.986,3.506a15.14,15.14,0,0,1,.064,2.189c.007,1.332.018,2.664,0,4a4.064,4.064,0,0,1-4.084,4.1q-12.339.034-24.678,0a4.106,4.106,0,0,1-4.135-4.142c-.025-1.723-.011-3.447,0-5.171a4.164,4.164,0,0,1,3.72-4.4c.1-.018.2-.042.349-.074v-2.6c-.283-.06-.558-.113-.831-.177a4.106,4.106,0,0,1-3.227-3.933q-.052-2.819,0-5.64C626.484,401.651,627.914,400.213,630.515,399.709ZM590.7,362.073a9.88,9.88,0,0,0-1.291-.411,6.662,6.662,0,0,0-2-.2,4.066,4.066,0,0,0-3.461,4.343,4.13,4.13,0,0,0,4.141,3.81q9.558.029,19.115,0a3.927,3.927,0,0,0,3.812-2.527,3.8,3.8,0,0,0-.72-4.3,3.876,3.876,0,0,0-4.413-1.14c-.408.139-.826.25-1.294.391-.912-3.7-3.033-6.079-6.9-6.094C593.781,355.932,591.626,358.306,590.7,362.073Zm13.9,24.664c-.886-3.61-2.925-6.014-6.768-6.1-4.033-.087-6.2,2.338-7.142,6.093-.555-.172-1.02-.329-1.492-.46a3.881,3.881,0,0,0-4.246,1.243,3.83,3.83,0,0,0-.652,4.31,3.893,3.893,0,0,0,3.771,2.452q9.589.025,19.178,0a3.88,3.88,0,0,0,3.757-2.471,3.826,3.826,0,0,0-.675-4.306A3.91,3.91,0,0,0,606,386.3C605.558,386.425,605.12,386.573,604.6,386.737Zm38.337-.652q-6.031,0-12.062,0c-1.2,0-1.67.47-1.676,1.651q-.013,2.467,0,4.934c.007,1.131.49,1.611,1.636,1.611q12.061.007,24.123,0c1.158,0,1.646-.507,1.652-1.69.008-1.488,0-2.976,0-4.464,0-1.66-.377-2.044-2.007-2.044Zm-.038,24.654q6.031,0,12.062,0c1.133,0,1.642-.5,1.65-1.612q.019-2.467,0-4.934c-.007-1.161-.508-1.65-1.692-1.65q-12.022-.005-24.045,0c-1.2,0-1.669.47-1.675,1.651-.008,1.593-.005,3.185,0,4.778,0,1.334.443,1.768,1.8,1.769Q636.946,410.742,642.9,410.739Zm.019,8.252q-5.992,0-11.983,0c-1.286,0-1.732.453-1.736,1.749,0,1.619-.009,3.237,0,4.856.008,1.093.492,1.59,1.578,1.59q12.1.009,24.2,0c1.121,0,1.623-.508,1.632-1.631.012-1.592.007-3.185,0-4.778,0-1.326-.464-1.787-1.791-1.788Q648.87,418.988,642.917,418.991Zm9.532-21.874H633.356v2.6h19.093Zm0,16.451H633.354v2.607h19.092Z" transform="translate(-36.853)"/>
    <path id="Trazado_191899" data-name="Trazado 191899" d="M574.46,689.065H549.87v-2.682h4.03V683.62h-.911q-5.522,0-11.044,0a4.1,4.1,0,0,1-4.446-4.433q-.006-12.024,0-24.047a4.124,4.124,0,0,1,4.468-4.427q20.209,0,40.418,0a4.157,4.157,0,0,1,4.474,4.44q.008,12.024,0,24.047a4.119,4.119,0,0,1-4.4,4.42q-5.561.011-11.123,0h-.884v2.733h4.008Zm9.633-16.457v-.792q0-8.264,0-16.529c0-1.387-.43-1.81-1.834-1.811q-20.093,0-40.186,0c-1.394,0-1.848.443-1.849,1.809q0,8.264,0,16.529c0,.253.022.507.035.794Zm-43.87,2.845c0,1.195,0,2.288,0,3.382,0,1.671.394,2.058,2.087,2.059h39.718a5.4,5.4,0,0,0,.86-.024,1.244,1.244,0,0,0,1.171-1.181c.056-1.4.017-2.8.017-4.235Zm16.522,8.2v2.676H567.57v-2.676Z" transform="translate(0 -250.939)"/>
    <path id="Trazado_191900" data-name="Trazado 191900" d="M605.478,377.165c.927-3.767,3.081-6.141,6.988-6.126,3.872.015,5.993,2.395,6.9,6.094.468-.141.886-.252,1.294-.391a3.876,3.876,0,0,1,4.413,1.14,3.8,3.8,0,0,1,.72,4.3,3.927,3.927,0,0,1-3.812,2.527q-9.558.038-19.115,0a4.13,4.13,0,0,1-4.141-3.81,4.066,4.066,0,0,1,3.461-4.343,6.661,6.661,0,0,1,2,.2A9.884,9.884,0,0,1,605.478,377.165Z" transform="translate(-51.632 -15.093)" fill="#b9ddfc"/>
    <path id="Trazado_191901" data-name="Trazado 191901" d="M619.22,534.712c.52-.164.958-.312,1.4-.442a3.91,3.91,0,0,1,4.329,1.2,3.826,3.826,0,0,1,.675,4.306,3.88,3.88,0,0,1-3.757,2.471q-9.589.03-19.178,0a3.893,3.893,0,0,1-3.771-2.452,3.83,3.83,0,0,1,.652-4.31,3.881,3.881,0,0,1,4.246-1.243c.472.131.937.288,1.492.46.942-3.755,3.11-6.179,7.142-6.093C616.3,528.7,618.334,531.1,619.22,534.712Z" transform="translate(-51.473 -147.975)" fill="#b9ddfc"/>
    <path id="Trazado_191902" data-name="Trazado 191902" d="M901.249,563.369h11.67c1.63,0,2.006.384,2.007,2.044,0,1.488.006,2.976,0,4.464-.006,1.183-.494,1.689-1.652,1.69q-12.062.007-24.123,0c-1.146,0-1.629-.481-1.636-1.611q-.016-2.467,0-4.934c.006-1.181.479-1.649,1.676-1.651Q895.218,563.363,901.249,563.369Zm-10.983,5.417h2.681V566.14h-2.681Zm5.484,0h2.681v-2.646H895.75Z" transform="translate(-295.165 -177.284)" fill="#ffb30b"/>
    <path id="Trazado_191903" data-name="Trazado 191903" d="M901.218,676.571q-5.953,0-11.905,0c-1.353,0-1.792-.435-1.8-1.769,0-1.593-.007-3.185,0-4.778.006-1.181.479-1.651,1.675-1.651q12.023-.006,24.045,0c1.184,0,1.684.489,1.692,1.65q.016,2.467,0,4.934c-.009,1.114-.517,1.61-1.65,1.612Q907.248,676.578,901.218,676.571Zm-8.254-5.413h-2.681V673.8h2.681Zm5.474-.01h-2.653v2.66h2.653Z" transform="translate(-295.172 -265.832)" fill="#ffb30b"/>
    <path id="Trazado_191904" data-name="Trazado 191904" d="M901.232,773.37q5.952,0,11.9,0c1.327,0,1.787.462,1.791,1.788,0,1.593.01,3.185,0,4.778-.008,1.123-.51,1.63-1.631,1.631q-12.1.008-24.2,0c-1.086,0-1.57-.5-1.578-1.59-.011-1.618-.007-3.237,0-4.856,0-1.3.449-1.748,1.736-1.75Q895.24,773.365,901.232,773.37Zm-10.962,5.436h2.671v-2.657h-2.671Zm8.156,0v-2.658h-2.645v2.658Z" transform="translate(-295.168 -354.379)" fill="#ffb30b"/>
    <path id="Trazado_191905" data-name="Trazado 191905" d="M933.167,633.779v2.6H914.074v-2.6Z" transform="translate(-317.571 -236.662)" fill="#c58f15"/>
    <path id="Trazado_191906" data-name="Trazado 191906" d="M933.155,738.767v2.607H914.063v-2.607Z" transform="translate(-317.562 -325.199)" fill="#c58f15"/>
    <path id="Trazado_191907" data-name="Trazado 191907" d="M598.769,687.5H554.935c-.013-.288-.035-.541-.035-.794q0-8.264,0-16.529c0-1.366.455-1.809,1.849-1.809q20.093,0,40.186,0c1.4,0,1.833.424,1.834,1.811q0,8.264,0,16.529Zm-2.759-16.359H579.664v13.622H596.01Zm-38.318,8.143H576.77v-2.661H557.692Zm0,5.485H576.77V682.11H557.692Zm5.486-10.971h13.59v-2.658h-13.59Zm-2.835-2.653h-2.629v2.658h2.629Z" transform="translate(-14.676 -265.834)" fill="#00defc"/>
    <path id="Trazado_191908" data-name="Trazado 191908" d="M554.9,808.624h43.853c0,1.434.039,2.836-.017,4.235a1.244,1.244,0,0,1-1.171,1.181,5.4,5.4,0,0,1-.86.024H556.987c-1.694,0-2.086-.388-2.087-2.059C554.9,810.912,554.9,809.819,554.9,808.624Z" transform="translate(-14.677 -384.109)" fill="#fff"/>
    <path id="Trazado_191909" data-name="Trazado 191909" d="M660.342,860.923h10.826V863.6H660.342Z" transform="translate(-103.598 -428.213)" fill="#fff"/>
    <path id="Trazado_191910" data-name="Trazado 191910" d="M905.126,583.7v-2.646h2.681V583.7Z" transform="translate(-310.025 -192.2)"/>
    <path id="Trazado_191911" data-name="Trazado 191911" d="M940.126,583.7v-2.646h2.681V583.7Z" transform="translate(-339.541 -192.2)"/>
    <path id="Trazado_191912" data-name="Trazado 191912" d="M907.873,686.164V688.8h-2.681v-2.639Z" transform="translate(-310.081 -280.838)"/>
    <path id="Trazado_191913" data-name="Trazado 191913" d="M942.955,686.1v2.66H940.3V686.1Z" transform="translate(-339.689 -280.784)"/>
    <path id="Trazado_191914" data-name="Trazado 191914" d="M905.135,793.764v-2.657h2.671v2.657Z" transform="translate(-310.033 -369.337)"/>
    <path id="Trazado_191915" data-name="Trazado 191915" d="M942.952,793.762h-2.645V791.1h2.645Z" transform="translate(-339.693 -369.335)"/>
    <path id="Trazado_191916" data-name="Trazado 191916" d="M729.294,686.069v13.622H712.947V686.069ZM715.66,688.81v8.126H726.5V688.81Z" transform="translate(-147.96 -280.758)"/>
    <path id="Trazado_191917" data-name="Trazado 191917" d="M572.728,723.711V721.05h19.078v2.661Z" transform="translate(-29.712 -310.258)"/>
    <path id="Trazado_191918" data-name="Trazado 191918" d="M572.729,758.711v-2.662h19.078v2.662Z" transform="translate(-29.713 -339.773)"/>
    <path id="Trazado_191919" data-name="Trazado 191919" d="M607.74,688.72v-2.658h13.59v2.658Z" transform="translate(-59.238 -280.752)"/>
    <path id="Trazado_191920" data-name="Trazado 191920" d="M575.5,686.095v2.658H572.87v-2.658Z" transform="translate(-29.832 -280.78)"/>
    <path id="Trazado_191921" data-name="Trazado 191921" d="M730.261,703.565H741.1v8.126H730.261Z" transform="translate(-162.561 -295.513)" fill="#f9f7ec"/>
  </g>
</svg>
