<svg id="a1" xmlns="http://www.w3.org/2000/svg" width="91.749" height="120.299" viewBox="0 0 91.749 120.299">
  <g id="Grupo_128875" data-name="Grupo 128875" transform="translate(7.593)">
    <g id="Grupo_128874" data-name="Grupo 128874" style="isolation: isolate">
      <g id="Grupo_128870" data-name="Grupo 128870" transform="translate(0.19)">
        <path id="Trazado_189431" data-name="Trazado 189431" d="M196.25-565.916l2.3-1.331-50.182-28.84-2.3,1.331Z" transform="translate(-146.069 596.087)" fill="#ffd438"/>
      </g>
      <g id="Grupo_128871" data-name="Grupo 128871" transform="translate(81.643 39.42)">
        <path id="Trazado_189432" data-name="Trazado 189432" d="M282.239-453.662l2.3-1.331.211-75.194-2.3,1.331Z" transform="translate(-282.239 530.187)" fill="#ffb700"/>
      </g>
      <g id="Grupo_128872" data-name="Grupo 128872" transform="translate(53.679 23.227)">
        <path id="Trazado_189433" data-name="Trazado 189433" d="M263.664-539.734l2.3-1.331L237.79-557.258l-2.3,1.331Z" transform="translate(-235.489 557.258)" fill="#ffd438"/>
      </g>
      <g id="Grupo_128873" data-name="Grupo 128873" transform="translate(0 1.331)">
        <path id="Trazado_189434" data-name="Trazado 189434" d="M199.43-570.635l-3.308,5.614-50.18-28.84-.19,67.692L227.4-479.248l.211-75.194Z" transform="translate(-145.752 593.862)" fill="#fbc70e"/>
      </g>
    </g>
  </g>
  <g id="Grupo_128880" data-name="Grupo 128880" transform="translate(3.497 6.546)">
    <g id="Grupo_128879" data-name="Grupo 128879" style="isolation: isolate">
      <g id="Grupo_128876" data-name="Grupo 128876" transform="translate(78.043 44.842)">
        <path id="Trazado_189435" data-name="Trazado 189435" d="M269.373-444.541l6.137-3.55.173-62.088-6.136,3.549Z" transform="translate(-269.373 510.179)" fill="#d4e2fc"/>
      </g>
      <g id="Grupo_128877" data-name="Grupo 128877" transform="translate(0.173)">
        <path id="Trazado_189436" data-name="Trazado 189436" d="M217.237-536.752l6.136-3.549L145.33-585.144l-6.137,3.549Z" transform="translate(-139.194 585.144)" fill="#ecf5fe"/>
      </g>
      <g id="Grupo_128878" data-name="Grupo 128878" transform="translate(0 3.549)">
        <path id="Trazado_189437" data-name="Trazado 189437" d="M139.077-579.211l-.173,62.089,78.043,44.842.173-62.089Z" transform="translate(-138.904 579.211)" fill="#b5b3c4"/>
      </g>
    </g>
  </g>
  <g id="Grupo_128881" data-name="Grupo 128881" transform="translate(81.63 108.078)">
    <path id="Trazado_189438" data-name="Trazado 189438" d="M277.148-415.409v2.34l.039.961h2.244v1.441l-9.895,5.684-.014-5.877Z" transform="translate(-269.522 415.409)" fill="#fbc70e"/>
  </g>
  <g id="Grupo_128886" data-name="Grupo 128886" transform="translate(0 8.994)">
    <g id="Grupo_128885" data-name="Grupo 128885" style="isolation: isolate">
      <g id="Grupo_128882" data-name="Grupo 128882" transform="translate(81.643 46.923)">
        <path id="Trazado_189439" data-name="Trazado 189439" d="M269.545-438.227l2.3-1.331.176-63.05-2.3,1.331Z" transform="translate(-269.545 502.608)" fill="#ffb700"/>
      </g>
      <g id="Grupo_128883" data-name="Grupo 128883" transform="translate(0.176)">
        <path id="Trazado_189440" data-name="Trazado 189440" d="M215-532.8l2.3-1.331-81.644-46.923-2.3,1.332Z" transform="translate(-133.353 581.052)" fill="#ffd438"/>
      </g>
      <g id="Grupo_128884" data-name="Grupo 128884" transform="translate(0 1.332)">
        <path id="Trazado_189441" data-name="Trazado 189441" d="M133.234-578.825l-.176,63.049L214.7-468.853l.176-63.05Z" transform="translate(-133.058 578.825)" fill="#fbc70e"/>
      </g>
    </g>
  </g>
  <g id="Grupo_128887" data-name="Grupo 128887" transform="translate(81.63 108.511)">
    <path id="Trazado_189442" data-name="Trazado 189442" d="M269.536-402.9l9.895-5.684v-6.1l-9.908,5.91Z" transform="translate(-269.522 414.684)" fill="#ffb700"/>
  </g>
</svg>
